<svg width="191" height="100" viewBox="0 0 191 100" fill="none" xmlns="http://www.w3.org/2000/svg">
<path d="M119.474 9.75827C118.187 10.5506 116.318 11.345 114.854 11.9209C114.395 12.1023 114.431 11.6805 114.107 11.7941C113.466 12.0215 113.034 12.4878 112.395 12.7069C112.183 12.7779 112.116 12.1723 111.9 12.2584C110.709 12.7386 109.799 13.5293 108.706 14.1835C106.555 15.4738 104.538 16.929 102.719 18.5389C99.6847 21.2548 96.7161 23.9932 93.6101 26.7629C91.911 28.279 89.5567 29.8154 87.9544 31.5675C87.7676 31.7726 88.2118 32.0159 88.1996 32.0805C87.9957 33.0825 87.5521 32.1788 87.0633 32.4472C85.1365 33.5028 83.3221 35.0272 81.855 36.4916C81.2301 37.1158 82.5172 37.2841 81.4914 37.44C81.421 37.4513 81.2693 36.9169 81.0489 37.0284C80.5532 37.2801 79.801 38.0068 79.4457 38.2381C78.7544 38.6867 78.6555 38.771 78.0401 39.244C77.1991 39.8835 76.0441 40.4414 75.199 41.204C75.0191 41.3683 75.5868 41.599 75.3261 41.8996C75.0653 42.2012 74.2037 42.7658 73.8497 42.8644C73.4958 42.9639 73.3802 42.5436 73.276 42.5021C72.4124 42.1428 72.0691 43.7135 71.9552 43.8226C69.9142 45.7725 67.5568 46.5239 65.3393 47.8597C65.2411 47.9188 65.1426 47.9789 65.0437 48.0396C63.3786 49.0648 61.6154 50.1583 59.9133 50.869C57.758 51.764 55.8167 52.1543 53.6939 52.8373C53.4687 52.9082 53.908 53.4184 53.6308 53.5065C50.6825 54.4378 47.6492 54.9909 44.5888 54.9949C44.2822 54.9944 44.5961 54.4083 44.2875 54.3753C42.3844 54.1992 39.495 53.3636 38.5183 55.7492C37.2578 55.7247 35.7248 55.6649 34.613 55.19C33.8938 54.8835 34.5935 54.3017 33.7162 54.5441C33.5183 54.5972 33.7687 55.1144 33.4708 55.1549C32.2077 55.3243 30.8421 55.1013 29.5834 55.283C29.3254 55.3211 29.3632 55.7847 29.285 55.8624C28.6261 56.4912 27.7007 55.2969 27.4944 55.195C25.8899 54.4367 24.6692 54.5201 23.1274 54.2655C22.7718 54.2052 23.0963 54.8831 22.7489 54.8462C20.9388 54.6434 19.081 54.2103 17.4084 53.4947C17.042 53.3348 17.5256 52.9167 17.3591 52.8144C16.6086 52.3616 16.1836 53.2751 15.4458 52.8291C15.294 52.7367 15.5193 52.3342 15.504 52.2777C15.3981 51.8768 15.1977 51.8482 14.9938 51.9337C14.7638 52.0422 14.5285 52.3205 14.4676 52.3155C13.0396 52.2262 12.4361 50.8871 11.0194 50.7306C10.8516 50.7143 11.0945 51.3525 10.6319 51.2737C9.00191 51.0068 7.14486 50.6484 5.74535 50.4552C5.7501 50.4498 5.79109 50.4486 5.89912 50.4278C6.05031 50.3861 6.23262 50.3938 6.69579 50.0579C7.12306 49.7711 7.45787 48.9986 7.44167 48.6663C7.45862 48.2981 7.3934 48.1663 7.37043 48.0976C7.31226 47.9721 7.32468 48.065 7.35775 48.1469C7.39892 48.2486 7.45002 48.3576 7.52603 48.4963C7.81082 49.0213 8.21572 49.637 8.60341 50.2402C8.86936 50.6493 8.32032 50.6735 8.30014 50.7307C8.0195 51.6606 9.06209 51.1649 9.2014 51.2577C10.2709 51.9959 10.4021 53.5098 11.9693 53.2836C13.9044 55.866 16.1961 58.167 17.8664 61.3483C19.1313 64.0023 19.1739 66.4465 18.9239 68.8115C18.9165 68.8831 18.363 68.8058 18.3503 68.9464C18.1779 70.638 18.9905 70.2512 20.0873 71.3148C20.3622 71.5863 19.1508 72.4901 19.0618 72.5661C18.7355 72.8511 17.9145 72.603 17.8529 72.6963C17.3695 73.4616 20.0424 73.2407 20.0795 74.2512C20.0762 74.2828 19.5786 74.1681 19.5326 74.2543C19.3881 74.5234 19.593 74.775 19.4326 75.038C19.0615 75.636 17.7668 75.8985 18.5625 76.7605C18.6664 76.8674 20.1744 76.6339 20.1471 77.511C20.1448 77.5824 20.1475 77.7032 20.1531 77.852C20.15 77.82 20.1469 77.7623 20.1216 77.6413C20.106 77.5699 20.0749 77.4339 19.9933 77.2504C19.9431 77.1452 19.9237 77.0893 19.7858 76.8883C19.6511 76.6985 19.4392 76.4695 19.1327 76.2865C18.5043 75.885 17.6481 75.9465 17.2772 76.1073C16.9597 76.2291 16.8428 76.3256 16.7339 76.4051C16.5623 76.5428 16.5409 76.5826 16.5143 76.6106C16.462 76.6818 16.5803 76.5299 16.6614 76.4079C16.8411 76.1445 17.0438 75.8367 17.1639 75.7114C17.4735 75.3808 17.7407 75.8914 17.7753 75.8746C18.9484 75.1651 18.9471 75.6939 20.077 75.6797C21.199 75.6807 19.1811 74.6144 19.1024 74.2626C19.0228 73.9088 19.9808 73.4376 20.2627 73.369C20.5429 73.296 20.6364 73.7006 20.835 73.6039C22.1441 72.9925 20.2734 72.4656 20.2672 71.8831C20.3169 70.4634 22.211 70.9259 23.0729 70.5195C23.3225 70.4014 22.9235 70.2118 23.1101 70.0417C23.1111 70.0409 23.112 70.04 23.1129 70.0392C23.8237 69.431 24.5471 69.6389 25.2742 68.7641C25.3706 68.6291 25.7893 67.3361 26.5568 67.8408C26.6662 67.9137 26.621 68.3822 27.0077 68.3343C27.5985 68.2567 28.5638 68.0227 29.1023 67.7102C29.4924 67.4809 28.8021 66.9662 29.4043 67.0089C29.6722 67.0296 29.3442 67.5502 29.835 67.5582C30.3328 67.5615 31.4485 67.2434 31.8855 67.1233C32.3117 67.0031 31.9517 66.5501 31.9777 66.5071C32.1376 66.257 32.939 65.8094 33.0112 65.7951C36.7901 64.8849 40.4075 65.2504 44.0379 64.4912C44.3245 64.4327 44.0627 63.9063 44.1057 63.8917C45.0671 63.5381 44.4686 65.0987 45.215 65.505C44.9802 64.3992 45.4104 64.5517 46.0933 64.3475C46.4208 64.2485 46.1884 63.8366 46.2137 63.7886C46.6352 63.073 47.08 63.8839 47.1882 64.0478C47.5891 64.6505 47.8638 63.8548 48.1345 64.258C48.4043 64.6582 47.9598 65.3435 48.6232 65.2631C48.7666 64.8421 48.158 63.8483 48.6463 63.6238C50.4936 62.7718 54.1449 63.2442 55.6857 63.1821C57.2232 63.1194 57.7066 62.9978 58.6158 63.0551C60.2483 63.1587 59.5827 62.439 60.5451 61.9826C61.5031 61.5255 61.2153 63.4878 61.4007 63.8845C61.5818 64.2813 61.6974 63.8417 61.8973 64.0493C62.0974 64.2567 61.7442 64.5762 62.1684 64.6177C62.5922 64.6596 63.6418 63.8066 63.7418 63.3601C63.9479 62.4154 63.342 61.5171 64.4528 61.7311C64.5183 61.7437 64.3707 62.2697 64.6186 62.2927C66.56 62.4608 68.5291 62.2339 70.4681 62.2623C70.7381 62.2661 70.5963 62.8601 70.7551 62.8684C71.1559 62.8893 71.4099 62.8542 71.5784 62.7735C72.1215 62.5149 71.8266 61.8218 72.2856 60.9099C72.388 62.3178 73.0425 63.0763 74.2614 62.7693C74.983 62.5812 74.6984 62.0215 75.0278 61.4759C75.1246 61.3125 75.7409 61.5612 75.7417 61.2574C75.7382 60.2655 74.9688 59.4218 76.225 59.4297C76.2813 59.4308 76.296 59.9728 76.4787 59.9407C77.6656 59.7208 77.4385 58.7527 78.5316 58.1451C79.382 57.673 81.2202 57.4121 82.2588 56.912C83.0246 58.2937 83.816 57.4047 83.6026 56.2483C84.2554 55.8895 84.8894 55.3898 85.5628 55.0964C85.7958 54.9939 85.9271 55.4604 85.9812 55.4825C86.832 55.8263 86.4765 54.7725 86.5788 54.6448C87.7328 53.2789 89.3556 52.9677 90.0813 51.2561C90.1072 51.194 89.4384 50.324 90.3048 50.6116C90.3642 50.6314 90.297 51.3742 90.9002 50.8658C91.5052 50.3573 92.9914 49.7211 93.3894 48.5634C93.487 48.2849 93.2945 47.1925 94.1674 47.265C94.2855 47.2755 94.4646 47.5454 94.6639 47.586C95.3031 47.7105 94.605 46.8316 95.5718 47.1588C96.5368 47.4873 97.6396 47.3007 97.8714 46.0064C97.8805 45.9658 97.377 45.1994 97.609 44.9372C97.9873 44.5114 98.6264 44.0032 98.9889 43.5275C99.1601 43.3024 98.6186 43.1112 98.6408 43.0664C99.5543 41.3848 100.733 40.596 102.081 39.0387C102.326 38.7583 102.321 37.4569 103.213 37.1855C103.331 37.1508 103.459 37.1523 103.595 37.1781C104.596 37.358 106.002 38.8387 106.436 37.218C106.634 36.4841 104.394 33.7611 106.597 33.7022C107.737 31.3609 109.877 29.9978 110.946 27.5835C110.994 27.4747 110.467 26.6073 110.644 26.3996C110.909 26.09 111.395 26.1862 111.594 25.9773C112.442 25.1037 112.829 23.9989 113.599 23.1201C113.89 22.787 114.153 23.193 114.502 22.7941C114.848 22.3985 114.598 21.7451 115.27 21.3685C115.781 21.0836 117.081 21.4306 117.64 20.9608C116.708 20.18 117.034 19.813 117.329 18.9279C117.385 18.7584 116.943 18.6348 116.952 18.5411C116.983 18.1522 117.446 18.1343 117.449 17.7486C117.451 17.6543 117.129 17.3932 117.112 17.3015C116.957 16.5148 118.219 16.4248 118.436 16.4115C119.272 16.348 119.008 15.8107 119.466 15.6191C119.921 15.4301 119.766 16.1231 120.191 15.8184C120.945 15.2732 121.614 14.3858 122.196 13.6095C122.251 13.5416 122.307 13.35 122.311 13.2625C122.311 13.0738 122.302 12.8928 122.289 12.72C122.244 12.2598 121.729 12.6419 121.709 12.577C121.469 11.7493 121.743 10.6979 120.544 10.6122C123.014 9.06774 120.123 10.2103 120.164 8.89203C120.167 8.78724 121.337 8.0991 121.682 8.38212C122.027 8.66977 121.872 9.38578 122.352 9.8083C122.464 9.89198 123.919 10.2703 124.026 10.3848C124.864 11.1608 122.899 11.7502 122.801 11.7982C122.032 12.326 122.562 12.7861 122.923 13.2628C122.915 13.4424 122.8 13.8356 122.686 13.9751C122.715 14.1742 122.747 14.3436 122.729 14.4117C122.434 15.5231 121.657 16.0648 121.355 16.9524C121.156 17.5303 122.159 18.3913 121.845 18.7245C120.8 19.8344 119.034 19.0922 119.399 21.1958C119.475 21.6474 120.794 22.3088 119.227 22.4519C119.13 22.458 117.814 22.4431 118.04 23.2128C118.068 23.31 118.398 23.5708 118.378 23.6531C118.233 24.2006 117.76 24.2571 117.536 24.7959C117.314 25.3333 117.085 26.008 116.578 26.4196C116.275 26.6662 115.352 26.5715 115.089 26.5963C114.333 26.6646 114.706 27.6598 113.98 27.5029C113.249 27.3469 112.833 26.2173 111.966 26.6249C112.81 27.3196 113.652 28.064 114.49 28.7769C113.323 30.221 111.942 31.4543 110.876 32.9771C110.746 33.1662 111.358 33.3265 111.23 33.5371C110.691 34.427 109.822 34.9104 109.332 35.8833C108.957 36.6342 108.942 37.7372 108.582 38.5331C107.721 38.3537 107.259 38.8367 106.874 39.3957C106.664 39.6996 106.457 40.0507 106.233 40.3065C106.009 40.5642 105.746 40.3571 105.517 40.4976C104.661 41.026 105.815 41.2992 105.813 41.6075C105.788 42.9362 103.693 41.57 102.999 42.6336C102.959 42.6933 103.546 44.1459 103.539 44.2932C103.529 45.2121 103.091 44.1182 102.739 44.4231C102.092 44.9824 101.49 45.2444 101.184 46.2613C101.102 46.5514 101.304 47.6282 100.454 47.6485C100.342 47.6519 100.028 47.3403 99.9702 47.3694C98.9548 47.92 99.9987 48.824 99.946 49.6069C99.8903 50.3926 98.5323 50.4792 98.1968 50.438C97.3289 50.3351 98.2314 49.9453 98.198 49.8761C97.7911 49.0813 97.437 49.6966 97.0325 50.0332C95.9801 49.1735 95.549 49.7582 96.613 50.3886C96.7309 50.4562 96.9162 50.069 97.0325 50.0332C97.7054 51.2715 97.2535 52.0095 95.7296 51.7889C95.0173 51.6802 94.818 50.9234 94.0996 51.989C93.7695 52.4701 94.5823 52.9834 94.388 53.5247C93.933 54.7701 92.2013 55.1572 91.3585 56.0382C91.0505 56.3601 91.7101 56.4767 91.5085 56.7114C90.967 57.3392 90.1692 57.4818 89.6347 58.1331C89.5862 58.1928 90.0551 58.5102 89.8538 58.6703C88.3216 59.894 86.7097 60.5665 84.9335 61.5897C84.08 62.0887 82.6318 63.1822 81.6513 63.5636C79.958 64.2517 77.6218 64.2951 76.2225 64.9058C75.298 65.3057 75.6501 65.7557 75.3241 66.2241C74.6723 67.1398 72.9057 66.2218 72.6871 66.0584C72.6821 66.0549 73.5022 65.7558 72.9957 65.5802C72.6219 65.0722 72.6976 66.0536 72.6871 66.0584C72.6392 66.0272 72.4373 66.0271 72.1716 66.0428C71.639 66.0696 70.7709 66.1762 70.5806 66.2767C70.4182 66.359 70.5929 66.8453 70.506 66.8788C68.4161 67.6646 66.2886 68.0514 64.1268 68.0513C64.088 68.0453 64.0827 67.4746 63.9922 67.4675C62.7313 67.3514 62.014 68.1232 61.047 68.6357C60.0655 69.149 59.2654 69.0885 58.5673 68.1774C57.8258 68.3731 56.6895 68.0501 56.0436 67.85C55.3936 67.6503 55.4124 68.759 55.3596 68.7861C53.7201 69.6486 52.6707 69.1155 50.8991 69.1991C50.0553 69.2367 48.4177 69.5739 47.5318 69.7974C46.8338 69.975 46.3744 69.7681 45.7423 70.0113C45.6569 70.0439 45.8051 70.5217 45.7805 70.5438C45.1284 71.2166 45.3296 69.9801 45.1534 69.7853C44.5129 69.0777 44.116 68.7072 43.2365 69.1949C43.0296 69.3072 42.641 71.1084 42.2743 71.2629C41.795 71.461 41.8938 70.8193 41.3896 71.045C41.3467 71.0639 41.4112 71.4413 41.0871 71.4727C39.5855 71.6235 37.9365 71.6734 36.4353 72.0087C36.2314 72.0529 36.6104 72.5971 36.3205 72.6706C34.9486 73.0179 33.4919 73.3305 32.1548 73.408C31.8312 73.4238 31.9065 72.961 31.8059 72.8581C31.1648 72.2437 30.9045 73.4857 30.827 73.5332C29.163 74.5206 27.5778 74.5362 26.4658 75.279C26.4584 75.292 26.3656 75.4057 26.2712 75.6178C26.2332 75.6866 26.7493 76.8779 25.7309 76.5383C25.6689 76.5064 24.6003 76.184 24.9779 76.8933C25.0029 76.9362 25.5816 77.0435 25.2957 77.3621C25.0051 77.6887 24.9201 78.493 24.0523 78.7967C23.771 78.9016 22.6311 78.794 22.9048 79.9471C22.9063 79.9905 23.1268 80.3766 23.079 80.9962C23.0605 81.1587 23.0242 81.3374 22.9223 81.5694C22.7917 81.8245 22.6814 82.0911 22.0887 82.6708C21.9749 82.7823 21.6601 83.0548 21.2963 83.2886C20.8567 83.5399 20.632 83.7782 19.3186 84.1144C18.162 84.4116 16.2424 84.2615 14.8651 83.3846C13.4985 82.5886 12.7381 81.265 12.5946 80.9574C12.096 79.9617 12.0336 79.2957 12.0056 79.0638C11.9736 78.7491 11.9815 78.516 12.0045 78.3215C12.0732 78.2504 12.1774 78.1849 12.3249 78.1275C12.5349 78.0482 13.9044 78.0395 13.1599 77.1814C13.016 77.0179 12.7242 77.3407 12.5135 76.9006C12.1892 76.2246 12.5245 75.3175 11.8855 74.5316C11.7724 74.394 10.8212 73.8314 11.509 73.3366C11.6167 73.2588 12.0796 73.3807 12.1211 73.1307C12.3199 71.9403 11.9555 70.7646 12.1796 69.6395C12.2572 69.2424 13.0124 69.3744 13.1712 68.9467C13.3311 68.5179 13.4229 67.6777 13.0253 67.3309C12.6297 66.9947 11.5321 67.5846 11.3476 67.0643C11.0196 66.1511 10.7756 65.3548 10.7391 65.1218C10.3466 64.1066 9.62716 62.6717 8.64791 61.3853C8.39601 61.0555 8.29107 61.5892 7.8921 61.1239C6.43106 59.393 3.26047 56.6662 2.26715 54.0598C1.4753 51.9033 3.59996 53.7294 2.80901 52.2292C2.62592 51.8635 2.09445 51.6508 1.5173 51.2903C1.2385 51.129 0.911886 50.8458 0.672359 50.5835C0.40277 50.2532 0.206746 49.8603 0.152283 49.6273C0.026131 49.0148 -0.167267 48.1466 0.277061 46.6957C0.725031 45.2299 1.97835 44.004 3.0083 43.5107C3.85843 43.0731 4.58008 42.9508 5.0146 42.8926C5.43027 42.8396 5.77673 42.8342 6.08552 42.8452C7.70056 42.9203 8.40539 43.3816 9.58881 43.4328C9.89866 43.4481 9.69623 42.8478 9.96293 42.8681C10.8717 42.933 11.74 43.3629 12.5827 43.505C12.9603 43.5678 12.987 43.1386 13.3258 43.2511C14.1374 43.5174 14.8304 43.8781 15.5328 44.4874C15.5955 44.5426 14.9618 44.9133 15.5638 45.1029C16.0138 45.2453 16.4943 45.4835 17.0077 45.7066C17.4522 45.9173 17.977 46.0881 18.5197 46.012C18.8242 45.9691 19.0924 45.0393 19.4956 45.8354C19.5837 46.0013 19.1386 47.0944 20.0817 46.2878C20.2399 46.1567 21.6864 45.094 22.0786 46.0605C22.1833 46.3166 22.403 47.331 22.7722 47.2459C22.8227 47.2308 22.7316 46.6846 23.0227 46.6858C24.0567 46.6995 25.0901 46.9138 26.1552 46.8846C26.4391 46.8754 26.0958 46.289 26.5099 46.2909C27.6473 46.2953 29.0467 46.5638 30.1499 46.8041C30.5595 46.894 30.2454 47.3213 30.2721 47.3718C30.7105 48.1919 31.0586 47.1405 31.2205 47.0865C32.2365 46.7634 32.9771 47.2859 33.8993 47.1642C34.1535 47.1314 33.9782 46.6208 34.029 46.5759C34.552 46.1362 34.1582 47.0477 34.4903 47.1497C35.419 47.4375 36.4634 47.3768 37.4 47.2726C37.7448 47.2334 37.3318 46.6605 37.6395 46.6317C39.4506 46.449 41.3189 46.3413 43.1125 46.4304C43.4508 46.4479 43.3043 46.926 43.3873 47.0196C43.9699 47.6742 44.5271 46.5868 44.6677 46.4681C45.3223 45.926 45.6653 46.273 46.2877 46.0804C49.312 45.1471 53.0339 44.3413 55.7622 43.3704C57.7039 42.6915 59.3858 42.0411 60.9785 41.2349C62.4352 40.4826 63.8522 39.6774 65.3086 38.67C65.512 38.5297 64.9737 38.159 65.144 38.032C67.3642 36.4085 69.6986 35.0527 71.7808 33.249C71.9519 33.102 71.347 32.8427 71.6088 32.5919C72.1419 32.0752 72.8967 31.5251 73.597 31.2001C73.9387 31.0399 73.8604 31.732 74.1992 31.5618C74.9852 31.1688 75.7299 30.6124 76.3559 29.9701C76.6191 29.6975 75.8076 29.6122 76.1781 29.2933C78.7009 27.1016 81.0936 24.813 84.1323 23.0148C84.3393 22.8927 85.3141 23.6122 85.5206 23.1047C85.3218 22.8379 85.054 22.556 84.824 22.2873C88.3179 18.7389 92.1672 15.5311 95.8126 12.0093C95.968 11.8588 95.258 11.674 95.557 11.38C95.5674 11.3697 95.5779 11.3594 95.5884 11.3491C97.5158 9.45075 99.3983 7.63934 101.904 6.52992C102.154 6.41996 102.709 7.38728 103.229 6.79625C103.318 6.68983 104.173 5.89405 104.285 5.52553C104.298 5.47222 103.825 5.16929 104.127 4.94133C105.885 3.62451 107.896 2.50076 109.941 1.70007C110.27 1.57299 110.221 2.23579 110.456 2.15058C112.125 1.5409 113.636 0.283437 115.402 0.0181869C116.581 -0.150801 116.586 0.897272 117.504 1.51952C117.627 1.60883 118.27 1.36097 118.508 1.85543C119.106 3.09479 119.397 4.60219 120.071 5.90815C120.22 6.18586 120.814 5.58302 120.672 6.46018C120.661 6.51829 120.235 6.96686 120.205 7.26219C120.186 7.46486 120.562 7.90848 120.476 8.19412C120.393 8.47908 120.005 8.14003 119.818 8.51953C119.627 8.90576 120.029 9.41409 119.474 9.75827ZM53.1207 66.9615C52.492 66.4906 52.6004 68.4335 53.1763 67.9088C53.204 67.8812 53.153 66.9845 53.1207 66.9615ZM110.782 30.5706C109.643 30.6576 110.345 31.8283 111.193 31.7984C112.04 31.7705 111.126 30.5452 110.782 30.5706ZM115.086 23.9919C114.006 24.2667 116.083 26.085 116.233 24.9975C116.242 24.9351 115.149 23.9759 115.086 23.9919ZM115.175 2.89668C115.195 2.91498 115.636 2.72711 115.637 2.69911C115.6 2.02965 114.705 2.41185 115.175 2.89668ZM119.424 17.4493C118.961 17.4351 118.8 18.3299 119.378 18.348C119.844 18.3609 120.002 17.4658 119.424 17.4493ZM23.6402 71.2807C23.6151 71.2602 23.3388 71.434 23.4466 71.5599C23.789 71.957 24.0271 71.6029 23.6402 71.2807ZM119.212 4.98866C120.225 6.78857 118.678 8.82829 117.934 6.95743C117.785 6.61258 118.962 7.28123 118.903 6.76965C118.776 5.80131 117.244 6.09456 117.387 4.88472C117.418 4.67541 119.159 4.88616 119.217 4.98991C119.215 4.98949 119.213 4.98907 119.212 4.98866ZM52.5576 64.6708C52.5435 64.6463 52.0768 64.6685 52.0682 64.695C51.8786 65.3343 52.818 65.29 52.5576 64.6708ZM18.2638 67.5878C18.3198 67.5578 18.2196 66.4398 18.159 66.4121C17.0851 66.0094 17.2782 68.188 18.2638 67.5878ZM82.2955 56.9393C82.4099 56.1554 82.8504 55.8007 83.6003 56.2488C83.1625 56.4762 82.7401 56.7252 82.2955 56.9393Z" fill="#812424" fill-opacity="0.75"/>
<path d="M162.694 18.5315C161.597 20.1166 159.864 21.9238 158.444 23.2477C158.007 23.6534 157.933 23.2023 157.615 23.4782C156.995 24.0163 156.644 24.7042 156.01 25.2181C155.797 25.39 155.591 24.7838 155.376 24.9726C154.219 25.9889 153.408 27.1839 152.331 28.2987C149.081 31.6606 145.96 35.0763 142.853 38.534C140.779 40.8516 138.555 43.0492 136.157 45.0878C134.11 46.8409 131.268 48.4599 129.176 50.1995C128.932 50.404 129.363 50.6858 129.336 50.753C128.904 51.7954 128.606 50.8222 128.027 51.0659C125.723 52.0353 123.442 53.4175 121.585 54.777C120.797 55.3555 122.127 55.6551 121.013 55.7128C120.936 55.7176 120.88 55.1551 120.624 55.2481C120.045 55.4602 119.12 56.1332 118.704 56.3417C117.901 56.7417 117.778 56.8232 117.06 57.2623C116.079 57.8582 114.794 58.3723 113.838 59.1392C113.635 59.304 114.209 59.5504 113.913 59.852C113.881 59.8846 113.842 59.9204 113.796 59.9584C113.392 60.2929 112.579 60.7674 112.224 60.8648C111.829 60.9736 111.747 60.5381 111.638 60.4965C110.741 60.1331 110.206 61.7655 110.073 61.8786C107.66 63.9164 104.996 64.7176 102.4 66.0678C100.415 67.1014 98.3343 68.3156 96.359 69.1286C93.9936 70.0991 91.8698 70.5971 89.5462 71.4191C89.302 71.5043 89.7828 71.9917 89.4826 72.0973C87.4791 72.8017 85.4313 73.3696 83.452 73.8015C82.2817 74.0575 81.1061 74.2939 79.9133 74.5008C79.5956 74.5553 79.8296 73.919 79.5023 73.943C77.4891 74.0992 74.153 74.109 73.7888 76.7118C72.4755 77.0636 70.8672 77.5122 69.5367 77.4421C68.6843 77.3945 69.2448 76.6031 68.3858 77.1339C68.1905 77.2525 68.6189 77.6582 68.3107 77.7995C67.0134 78.3937 65.4591 78.6473 64.0994 79.2066C63.8224 79.3216 63.994 79.7553 63.9278 79.8537C63.3528 80.6627 61.9645 79.7643 61.7086 79.7149C60.4563 79.5187 59.4612 79.5492 58.443 79.6037C57.7573 79.6385 57.0787 79.656 56.357 79.6003C55.9206 79.5639 56.3932 80.2206 55.9644 80.2049C54.4418 80.1368 52.9538 79.8592 51.6 79.4657C51.2417 79.3647 50.8852 79.2511 50.4811 79.0927C50.2774 79.012 50.0652 78.9231 49.7995 78.7901C49.6618 78.7205 49.5182 78.6453 49.3179 78.5197C49.1137 78.3745 48.8846 78.2848 48.404 77.7167C48.0686 77.3397 47.6862 76.4107 47.8098 75.6509C47.9141 74.904 48.2 74.5681 48.3179 74.4248C48.597 74.1297 48.6248 74.2394 48.604 74.3773C48.5801 74.5233 48.5247 74.7578 48.562 74.8159C48.6002 74.8786 48.7578 74.6137 49.0932 74.3125C49.6379 73.872 49.8188 73.8846 50.009 73.7966C50.1792 73.7351 50.303 73.6927 50.4084 73.6494C50.622 73.5635 50.7589 73.478 50.9005 73.382C51.2272 73.1091 51.4893 72.7484 52.0794 72.8037C52.2844 72.8224 52.2266 73.284 52.2688 73.3286C52.9077 74.0331 53.2764 72.8997 53.4283 72.8636C55.2715 72.4037 56.4371 73.5697 58.1581 73.5522C58.3689 73.5516 57.9473 72.9372 58.5434 72.9729C60.8344 73.1677 63.0712 73.479 65.5892 74.9938C67.6607 76.3736 68.4977 78.4767 68.8724 80.1943C69.0023 80.828 68.4527 80.5172 68.4158 80.574C67.8121 81.4068 68.9633 81.4925 69.0542 81.6918C69.7103 83.2056 68.9223 84.7039 70.3112 85.6384C70.3079 88.6209 70.2281 91.4777 70.0465 94.2969C70.0479 94.1844 70.0755 94.0412 69.9856 93.6484C69.973 93.5984 69.9574 93.544 69.9372 93.4841C69.9101 93.4122 69.9178 93.4061 69.8146 93.1934C69.6562 92.8599 69.2114 92.3137 68.5321 92.1079C67.8684 91.8925 67.2608 92.0758 67.0422 92.1724C66.8943 92.2341 66.7858 92.2967 66.6989 92.3525C66.0836 92.817 66.2353 92.7905 66.1518 92.8631C66.0795 92.9647 66.0918 92.9528 66.0856 92.9615C66.0851 92.963 66.1046 92.929 66.1256 92.8902C66.1657 92.8166 66.2191 92.714 66.2682 92.6186C66.371 92.419 66.4786 92.2069 66.5878 91.994C66.807 91.5664 67.0342 91.132 67.2746 90.6967C67.7609 89.8246 68.2638 88.9648 68.9774 88.0619C70.5466 86.266 72.0597 86.0004 73.5293 85.612C73.6083 85.5939 73.6871 86.1508 73.8408 86.1141C75.7225 85.701 75.0802 85.0598 75.9718 83.6628C76.1959 83.3137 77.4983 84.2169 77.6022 84.2825C77.9983 84.515 77.9249 85.384 78.0434 85.4164C78.9896 85.6685 78.1004 83.1352 79.2182 82.815C79.2546 82.8093 79.2413 83.3257 79.349 83.3462C79.6769 83.4133 79.9063 83.1457 80.2379 83.2302C80.9832 83.4327 81.5505 84.6269 82.3344 83.6342C82.4363 83.5058 81.85 82.0873 82.8571 81.8974C83.2548 81.8231 84.9892 81.3495 85.4957 81.3228C86.0044 81.2946 85.7927 81.854 85.8324 81.8658C87.3029 82.1599 86.8652 82.5484 87.7595 83.3106C88.6473 84.071 87.9044 81.909 88.1087 81.5949C88.3167 81.2806 89.3981 81.5579 89.6819 81.6775C89.9642 81.7976 89.7455 82.1742 89.982 82.2227C91.5305 82.5383 90.309 80.9728 90.6763 80.5063C91.5354 79.404 92.7895 80.8269 93.8158 80.7325C94.0915 80.7074 93.7791 80.3908 94.0059 80.2948C94.7418 79.9888 95.3289 80.1721 96.0377 79.8502C96.2023 79.7753 96.3717 79.6731 96.5477 79.5311C96.7068 79.4073 97.2651 78.2015 98.0225 78.759C98.1299 78.8399 98.0247 79.3085 98.4445 79.2857C99.0637 79.2554 100.161 79.0211 100.739 78.6899C101.174 78.4432 100.433 77.9509 101.08 77.9708C101.367 77.9796 101.012 78.5201 101.543 78.5035C102.065 78.4912 103.301 78.0569 103.762 77.879C104.226 77.7016 103.795 77.2948 103.821 77.2481C103.983 76.9772 104.777 76.4222 104.857 76.3924C108.761 74.9 112.676 74.1557 116.331 72.1905C116.617 72.0372 116.193 71.6197 116.234 71.591C117.151 70.9231 116.959 72.6279 117.87 72.7591C117.305 71.7784 117.805 71.7769 118.471 71.341C118.789 71.1309 118.423 70.8178 118.436 70.7629C118.673 69.9294 119.383 70.5484 119.546 70.6667C120.149 71.1013 120.204 70.2431 120.612 70.5321C121.017 70.8186 120.744 71.6342 121.429 71.3192C121.458 70.8648 120.517 70.131 120.97 69.7419C122.675 68.2649 126.734 67.4256 128.382 66.8667C130.029 66.298 130.531 66.0294 131.526 65.8059C133.336 65.4081 132.425 64.9155 133.387 64.1836C134.337 63.4625 134.463 65.4612 134.755 65.7958C135.043 66.1318 135.066 65.6726 135.33 65.8206C135.593 65.969 135.28 66.3767 135.749 66.3025C136.21 66.23 137.171 65.1264 137.2 64.6624C137.239 63.6843 136.385 62.9531 137.673 62.8842C137.748 62.8809 137.684 63.4339 137.961 63.3971C138.82 63.2743 139.628 63.1183 140.483 62.9393C141.814 62.6644 143.114 62.338 144.44 62.1094C144.733 62.0599 144.667 62.6772 144.84 62.6542C146.666 62.4024 145.734 61.7202 146.305 60.3974C146.575 61.7892 147.371 62.4214 148.67 61.9434C149.437 61.6591 149.094 61.1336 149.432 60.5407C149.534 60.362 150.219 60.5453 150.216 60.2366C150.19 59.2329 149.305 58.4555 150.739 58.3291C150.804 58.3243 150.816 58.8757 151.025 58.8243C152.369 58.4934 152.136 57.524 153.431 56.8316C154.442 56.2911 156.546 55.9849 157.767 55.4915C158.43 56.9236 159.405 56.039 159.354 54.8412C160.128 54.4962 160.919 54.0081 161.704 53.7481C161.979 53.6559 162.035 54.1458 162.09 54.1718C162.955 54.5786 162.755 53.4758 162.898 53.3473C164.408 52.0211 166.241 51.8346 167.332 50.1212C167.373 50.0577 166.829 49.1049 167.688 49.4693C167.746 49.4942 167.538 50.2647 168.272 49.774C168.495 49.6228 168.813 49.462 169.142 49.2833C169.9 48.8692 170.814 48.276 171.173 47.4312C171.305 47.1335 171.184 45.994 172.091 46.0361C172.215 46.0418 172.385 46.3204 172.592 46.3537C173.263 46.4488 172.576 45.5592 173.574 45.849C174.572 46.1384 175.756 45.8506 176.046 44.4321C176.057 44.3873 175.552 43.6106 175.803 43.304C176.207 42.8159 176.889 42.1955 177.268 41.647C177.448 41.3852 176.885 41.2385 176.909 41.1877C177.869 39.2764 179.086 38.2749 180.44 36.411C180.69 36.0684 180.648 34.6595 181.551 34.2401C182.545 33.7668 184.449 35.8764 184.885 33.7218C185.065 32.8398 182.53 30.3676 184.762 29.8261C185.494 27.553 186.913 25.7658 187.733 23.5939C187.758 23.5428 187.782 23.3975 187.781 23.3406C187.698 22.4916 187.067 22.0607 186.562 21.8262C186.407 21.7454 185.575 22.3418 185.348 22.2123C184.974 21.9954 184.943 21.5008 184.651 21.3447C183.45 20.7029 182.133 20.692 180.908 20.2561C180.441 20.0932 180.727 19.7007 180.174 19.5102C179.605 19.3164 179.063 19.7865 178.371 19.2835C177.849 18.9015 177.607 17.5503 176.877 17.1883C176.51 18.3467 175.981 18.1681 174.95 18.1963C174.749 18.2016 174.825 18.6652 174.723 18.6886C174.307 18.7919 174.092 18.3612 173.688 18.4863C173.59 18.5161 173.465 18.9118 173.378 18.9584C172.638 19.3724 171.982 18.1873 171.878 17.9828C171.458 17.2007 171.012 17.6223 170.624 17.2376C170.238 16.8526 171.025 16.7953 170.533 16.4751C169.521 15.8153 168.088 15.3751 166.989 14.9284C166.551 14.7533 166.65 15.3857 166.583 15.3727C165.608 15.1452 164.924 14.2205 163.986 15.0158C164.5 12.126 163.326 15.0402 162.267 13.917C162.185 13.8267 162.641 12.5507 163.102 12.5487C163.561 12.546 163.962 13.1919 164.619 13.1404C164.776 13.1314 165.985 12.2712 166.108 12.2384C167.09 11.997 166.45 13.9075 166.452 14.0284C166.484 15.3296 167.886 14.4066 168.151 14.4034C169.384 14.4019 170.217 14.991 171.235 15.0067C171.903 15.0189 172.364 13.7796 172.823 13.9707C174.337 14.5941 174.367 16.5259 176.326 15.4413C176.742 15.2083 176.832 13.7318 177.667 15.1573C177.72 15.2474 178.291 16.4936 178.984 16.0098C179.07 15.9486 179.185 15.5439 179.278 15.534C179.892 15.4737 180.184 15.9067 180.843 15.9324C181.51 15.9605 182.317 15.9505 183.015 16.3187C183.419 16.5336 183.758 17.4698 183.903 17.7219C184.321 18.4452 185.277 17.8326 185.435 18.6182C185.556 19.3963 184.47 20.0448 185.226 20.8405C185.704 19.857 186.252 18.8734 186.78 17.9071C187.369 18.1948 187.974 18.5159 188.733 19.1203C189.386 19.7017 190.783 20.7633 190.921 23.2157C190.922 23.5867 190.768 24.5348 190.605 24.8679C190.06 25.8668 189.509 26.8692 189.045 27.9236C188.938 28.1693 189.586 28.1698 189.485 28.4394C189.051 29.5852 188.209 30.3679 187.793 31.5757C187.474 32.5103 187.531 33.7625 187.181 34.7561C185.782 34.7293 185.425 36.2773 184.768 37.1948C184.539 37.5162 184.263 37.3263 184.029 37.5124C183.154 38.2161 184.354 38.3492 184.357 38.6876C184.353 40.1445 182.16 38.9428 181.446 40.1942C181.41 40.2578 182.018 41.7762 182.011 41.9351C182.001 42.9345 181.548 41.7962 181.177 42.1768C180.495 42.8697 179.864 43.2265 179.521 44.365C179.425 44.695 179.614 45.8364 178.706 45.9578C178.588 45.9734 178.268 45.6665 178.206 45.7042C177.116 46.3985 178.169 47.2864 178.066 48.1469C177.958 49.0114 176.483 49.2302 176.13 49.2036C175.204 49.159 176.21 48.6652 176.177 48.5936C175.801 47.7634 175.384 48.4522 174.914 48.8484C173.864 47.9861 173.354 48.6329 174.431 49.2579C174.552 49.3236 174.786 48.8953 174.914 48.8484C175.529 50.1412 174.936 51.0021 173.311 50.815C172.551 50.7182 172.446 49.919 171.509 51.0639C171.166 51.4696 171.582 51.8979 171.625 52.3472C171.637 52.4684 171.62 52.5915 171.548 52.7178C170.767 54.0784 168.818 54.3407 167.752 55.1736C167.354 55.4824 168.036 55.6586 167.778 55.8812C167.077 56.4805 166.214 56.5484 165.531 57.1683C165.47 57.2245 165.909 57.5904 165.671 57.7348C163.847 58.8469 162.061 59.3979 160.102 60.3477C159.152 60.8112 157.563 61.8777 156.538 62.2646C154.76 62.9493 152.33 63.1074 150.905 63.8613C149.971 64.3521 150.373 64.7696 150.084 65.2701C149.513 66.2449 147.625 65.5785 147.368 65.4594C147.357 65.4573 148.169 65.0317 147.621 64.9362C147.163 64.4918 147.378 65.4533 147.368 65.4594C147.202 65.387 145.463 65.8619 145.157 66.0693C144.99 66.1843 145.255 66.6309 145.164 66.6819C144.168 67.238 143.144 67.7152 142.077 68.1133C140.922 68.5492 139.758 68.9006 138.558 69.1697C138.516 69.1731 138.393 68.6151 138.296 68.6298C136.943 68.8203 136.36 69.7626 135.477 70.5203C134.582 71.2837 133.733 71.4575 132.775 70.7804C132.044 71.1912 130.779 71.2275 130.036 71.2466C129.299 71.2627 129.63 72.3229 129.581 72.3662C128.108 73.7286 126.856 73.576 125.006 74.278C124.128 74.6086 122.48 75.52 121.592 76.0536C120.891 76.4759 120.334 76.4431 119.716 76.9036C119.632 76.9657 119.928 77.372 119.908 77.402C119.38 78.2856 119.256 77.0222 119.008 76.8978C118.111 76.4448 117.586 76.2253 116.745 77.0031C116.551 77.1816 116.584 79.0626 116.2 79.3418C115.701 79.7011 115.661 79.0413 115.143 79.4309C115.098 79.4637 115.262 79.8106 114.896 79.9504C113.203 80.6035 111.277 81.1644 109.509 81.8921C109.268 81.9898 109.799 82.4355 109.452 82.5862C107.818 83.2955 105.95 83.9433 104.208 84.2198C103.775 84.2873 103.9 83.7979 103.772 83.7072C103.002 83.1565 102.57 84.4581 102.444 84.5193C100.802 85.3516 99.2312 85.5955 97.6264 85.8787C96.4575 86.0806 95.2923 86.3125 94.0437 86.8453C93.888 86.9145 92.9234 88.3898 92.1036 87.5445C92.0462 87.489 91.242 86.6156 90.9208 87.4338C90.9016 87.4848 91.3791 87.9185 90.7626 88.0183C90.1509 88.1169 89.2654 88.7114 88.297 88.3478C87.9964 88.2322 87.1152 87.3808 86.5465 88.384C86.5086 88.4532 85.7844 90.579 85.0447 89.4333C84.9257 89.2442 84.6381 87.9007 83.9093 88.8199C83.7711 88.9976 84.167 89.209 83.7533 89.5164C83.1337 89.9855 82.105 89.8835 81.4405 90.7068C81.3155 90.8544 80.9698 91.9208 80.2831 91.3887C80.1763 91.3051 80.1882 90.8236 79.9199 90.8505C78.625 90.9832 77.4959 91.6734 76.3519 91.7935C75.9596 91.8342 75.8468 91.0781 75.3977 91.0568C74.9433 91.0332 74.1666 91.2234 74.1664 91.6414C74.164 91.8469 74.4001 92.1468 74.5972 92.4344C74.8042 92.7146 74.9477 93.0071 75.0238 93.006C75.086 92.9969 75.2397 92.9071 75.4637 92.6274C75.2982 92.9683 74.8643 93.7135 74.4458 94.4263C74.23 94.7927 74.0042 95.171 73.7616 95.5752C73.6396 95.7784 73.5155 95.9846 73.3715 96.2239C73.3008 96.3406 73.2218 96.4732 73.1189 96.6433C73.0611 96.7393 73.0025 96.838 72.8918 97.0147C72.8611 97.0637 72.8191 97.1303 72.7708 97.2036C72.7211 97.2777 72.67 97.3583 72.53 97.5483C72.4626 97.6386 72.381 97.7448 72.2634 97.8823C72.123 98.0266 71.8602 98.418 70.9748 99.0074C70.7409 99.1565 70.4501 99.3228 70.0561 99.4854C69.4259 99.7591 67.8258 100.215 66.0812 99.6277C64.3029 99.0626 63.166 97.6322 62.7554 96.7593C62.6409 96.534 62.5486 96.3001 62.5321 96.2567C62.4988 96.1706 62.4692 96.0882 62.4426 96.0092C62.3896 95.8512 62.3486 95.7068 62.3154 95.5742C62.078 94.5304 62.149 94.1275 62.156 93.7953C62.3448 92.5908 62.5204 91.4019 62.5852 90.2325C62.6102 89.7584 62.1822 90.14 62.1837 89.4499C62.2486 86.8413 61.3968 82.9445 61.7163 81.9195C61.8744 81.432 62.1552 81.3148 62.4223 81.2441C62.6872 81.1818 62.939 81.187 62.8799 80.8044C62.8493 80.6245 62.5039 80.6853 62.2168 80.8622C61.9245 81.033 61.689 81.3012 61.677 81.3185C61.6309 81.3792 61.6298 81.4355 61.6477 81.4728C61.5486 81.5198 60.8104 80.809 59.9019 80.7713C59.6655 80.7578 59.7675 81.3498 59.571 81.3343C58.911 81.2903 58.2125 80.9365 57.5262 80.9179C57.2174 80.9118 57.2413 81.3399 56.9667 81.2873C56.3082 81.17 55.7265 80.9796 55.0486 80.5986C54.9841 80.5641 55.3928 80.0246 54.8717 80.0197C54.0525 80.0153 52.9718 79.7354 52.1084 80.2643C52.1042 80.272 52.1013 80.2799 52.0997 80.2878C52.0976 80.3487 52.1632 80.6221 52.416 80.7271C52.485 80.7507 52.5718 80.7622 52.715 80.7337C52.8696 80.6956 53.0513 80.6534 53.4979 80.377C53.6177 80.3004 53.7458 80.2121 53.9054 80.0845C54.0843 79.9411 54.2882 79.7593 54.5115 79.5108C54.9844 78.9754 55.8256 77.8672 55.8698 76.037C55.8903 74.2548 55.0348 73.0613 54.6209 72.6111C54.1442 72.0933 53.8323 71.9267 53.5923 71.8033C53.2396 71.6518 53.1224 71.9722 52.8835 72.0483C52.6652 72.1371 52.4975 72.1256 52.793 71.6923C52.8328 71.623 53.0647 71.3442 53.3944 71.1613C53.9085 70.9801 54.445 70.912 54.683 71.4309C54.7978 71.6863 55.0549 72.6988 55.4336 72.6017C55.4835 72.5847 55.3726 72.0426 55.6632 72.0325C56.5668 72.0059 57.4332 72.0921 58.126 71.9543C58.2397 71.9364 58.3524 71.9158 58.464 71.8918C58.7361 71.831 58.2992 71.3176 58.698 71.243C59.7914 71.0383 61.1691 70.9749 62.3314 70.8947C62.7594 70.8666 62.569 71.365 62.6088 71.4062C63.279 72.0685 63.3381 70.9535 63.4831 70.8536C64.4128 70.2367 65.3466 70.4862 66.3051 70.0509C66.5689 69.9317 66.2225 69.5067 66.2635 69.4463C66.6962 68.8452 66.5508 69.8495 66.9411 69.8311C68.0437 69.7785 69.1981 69.3449 70.2542 68.9162C70.6416 68.7581 70.0075 68.3508 70.3562 68.2158C72.4279 67.4 74.7224 66.6801 76.9877 66.3152C77.4097 66.249 77.2908 66.762 77.4056 66.8349C78.2028 67.3468 78.7669 66.1427 78.9458 65.9916C79.723 65.312 80.1899 65.596 80.9755 65.2967C81.0049 65.2855 81.0344 65.2743 81.0639 65.2632C84.7278 63.9007 88.8909 62.85 92.1167 61.6652C96.3088 60.1428 99.6581 58.8989 103.383 56.6033C103.617 56.4581 103.071 56.0775 103.269 55.9458C105.097 54.7495 106.984 53.6672 108.812 52.4509C109.631 51.9058 110.442 51.364 111.237 50.8005C111.463 50.6422 110.821 50.37 111.173 50.0994C111.896 49.5402 112.88 48.9673 113.74 48.6537C114.158 48.4999 113.917 49.2256 114.332 49.0626C115.3 48.6846 116.245 48.155 117.071 47.5385C117.421 47.2754 116.554 47.1213 117.032 46.8186C120.286 44.7439 123.219 42.7285 126.552 41.0942C126.78 40.9821 127.692 41.7818 127.971 41.2651C127.796 40.9821 127.55 40.6806 127.342 40.3945C130.248 37.8764 133.058 35.3791 135.631 32.5049C136.64 31.3717 137.623 30.2574 138.611 29.0987C138.766 28.9159 138.016 28.8303 138.315 28.4749C140.042 26.416 141.6 24.2707 143.839 22.5581C144.061 22.3877 144.829 23.2002 145.216 22.472C145.279 22.348 145.95 21.3081 145.961 20.9181C145.96 20.8625 145.421 20.6995 145.656 20.3929C147.058 18.5814 148.67 16.8242 150.365 15.2755C150.636 15.0307 150.812 15.6829 151.013 15.5056C152.433 14.2526 153.382 12.4497 154.913 11.3931C155.941 10.6846 156.381 11.6471 157.516 11.754C157.672 11.7727 158.17 11.2137 158.614 11.5359C159.723 12.3526 160.645 13.5917 161.853 14.4312C161.976 14.5292 162.142 14.3243 162.26 14.2651C162.287 14.2527 162.313 14.2483 162.311 14.2846C162.312 14.2985 162.313 14.3231 162.189 14.4622C162.052 14.5643 161.854 14.9825 160.631 15.3452C160.353 15.416 160.07 15.4411 159.936 15.4488C159.797 15.4557 159.82 15.4633 160 15.4631C160.374 15.4814 161.177 15.2827 161.537 15.0768C162.293 14.661 162.338 14.5417 162.455 14.4918C162.575 14.459 162.613 14.5308 162.659 14.624C162.697 14.6543 162.445 15.3438 162.54 15.6343C162.597 15.844 163.168 16.028 163.178 16.3722C163.206 16.6949 162.674 16.6048 162.611 17.1012C162.569 17.5763 163.152 17.8642 162.694 18.5315ZM126.703 71.3631C125.902 71.1268 126.582 72.9508 127.034 72.2524C127.055 72.2165 126.743 71.3741 126.703 71.3631ZM188.573 25.3199C187.436 25.7543 188.334 26.8151 189.192 26.5332C190.046 26.2563 188.919 25.1831 188.573 25.3199ZM181.14 18.5434C181.899 19.4794 182.877 16.8966 181.663 17.1099C181.592 17.1215 181.094 18.4887 181.14 18.5434ZM155.845 14.1792C155.866 14.1943 156.231 13.7943 156.218 13.7702C155.924 13.1576 155.205 13.945 155.845 14.1792ZM172.525 16.6997C172.705 17.1488 173.692 17.0041 173.46 16.4466C173.274 15.9992 172.3 16.1417 172.525 16.6997ZM94.0799 81.6444C94.0626 81.619 93.692 81.6878 93.7387 81.8449C93.8984 82.3484 94.3665 82.0736 94.0799 81.6444ZM160.124 15.6635C160.004 14.586 160.54 13.4246 161.157 13.4011C161.302 13.3974 161.418 13.477 161.529 13.5268C161.64 13.5809 161.762 13.578 161.854 13.5752C162.037 13.5585 162.096 13.7418 162.089 14.2888C162.075 14.6841 161.305 13.5215 161.132 14.0194C160.836 15.0297 162.379 15.4983 161.764 16.6372C161.652 16.839 160.132 15.7936 160.121 15.66C160.122 15.6612 160.123 15.6623 160.124 15.6635ZM125.446 69.3603C125.426 69.3406 124.93 69.5266 124.929 69.5549C124.911 70.2339 125.903 69.8628 125.446 69.3603ZM72.3891 86.7211C72.3428 86.6641 71.1478 87.2995 71.1489 87.3883C71.1811 88.5391 73.331 87.3845 72.3891 86.7211ZM157.803 55.5202C158.031 54.7181 158.596 54.3528 159.352 54.8416C158.835 55.0596 158.319 55.3107 157.803 55.5202Z" fill="#812424" fill-opacity="0.75"/>
<path d="M24.6648 53.9887C25.3829 53.7848 26.4133 53.8477 27.2928 53.9561C27.5693 53.9894 27.4914 54.3512 27.6912 54.3876C28.0574 54.4616 28.3911 54.2289 28.772 54.3175C28.9038 54.3474 28.8563 54.9127 28.9938 54.9314C29.755 55.0273 30.3859 54.748 31.1612 54.6865C34.89 54.3977 38.5979 53.4958 42.4227 52.5219C43.65 52.2106 45.311 52.1797 46.5286 51.5355C46.665 51.4618 46.4241 51.0378 46.4389 50.991C46.6767 50.2711 46.8454 51.2354 47.1735 51.2588C48.5054 51.3382 49.7574 50.9474 50.8308 50.3705C51.2618 50.1326 50.4833 49.3994 51.1249 49.7381C51.1693 49.7606 51.2227 50.2815 51.3676 50.2876C51.695 50.3006 52.2179 50.017 52.4609 49.9725C52.9254 49.8909 53.0159 49.8528 53.4161 49.7144C53.9697 49.5275 54.7232 49.5226 55.2988 49.1891C55.4211 49.1165 55.0679 48.6905 55.2469 48.5304C55.4365 48.3666 55.9726 48.2167 56.1986 48.2643C56.422 48.313 56.487 48.7259 56.5515 48.8023C57.0893 49.4492 57.3394 48.1854 57.412 48.1294C58.7479 47.1398 60.2036 47.261 61.5909 46.7331C62.6071 46.3449 63.7251 45.6962 64.6874 45.3561C65.4983 45.0702 66.2816 44.9174 67.0733 44.6854C67.4152 44.5874 67.7555 44.4705 68.096 44.3141C68.2099 44.2623 67.8415 43.7509 67.9788 43.6869C69.437 43.0064 70.9075 42.398 72.5412 42.0315C72.7055 41.9949 72.7623 42.5703 72.942 42.5619C74.031 42.5079 75.9841 42.6492 75.3435 40.3135C75.9776 40.0595 76.7333 39.7255 77.5008 39.814C77.9958 39.87 77.9713 40.5709 78.2584 40.1033C78.3232 39.9984 77.9337 39.6346 78.0504 39.5107C78.5403 38.9904 79.2688 38.7291 79.6995 38.1355C79.7864 38.0138 79.5047 37.6478 79.4926 37.557C79.4033 36.816 80.4663 37.4451 80.6127 37.4446C81.7093 37.4398 82.1365 36.8634 82.8486 36.3885C83.0143 36.278 82.4689 35.9041 82.615 35.7799C83.3759 35.1433 84.2397 34.5919 85.1877 34.2398C85.3994 34.1626 85.5491 34.7053 85.6664 34.69C86.1808 34.616 85.6741 33.754 86.153 33.6669C86.2535 33.6473 86.4801 34.0404 86.5232 34.0701C87.1994 34.5362 86.7271 33.5146 86.7666 33.4548C87.2549 32.6748 88.3882 33.2581 88.9539 32.6199C89.0206 32.5427 88.4949 32.2271 88.7033 32.038C90.0883 30.7762 91.7345 29.6737 93.4704 28.8631C93.7398 28.7365 93.8475 29.1997 93.8947 29.2295C94.6439 29.686 94.1002 28.7038 94.1474 28.6123C94.5375 27.9123 95.6638 28.1922 95.2251 26.8511C96.4743 26.1036 97.5627 25.1581 98.6799 24.2492C99.4384 23.6543 100.105 23.0932 101.38 22.6109C101.745 22.5088 102.066 22.3201 103.013 22.406C103.469 22.4403 104.323 22.8255 104.681 23.4726C105.039 24.0922 105.012 24.5321 104.996 24.8342C104.83 25.9432 104.437 26.2584 104.075 26.6887C104.042 26.7251 103.592 26.4066 103.529 26.4766C103.374 26.6433 103.283 26.7739 103.239 26.899C103.085 27.3526 103.702 27.6967 104.114 28.5971C104.239 28.8879 102.91 28.6424 102.811 28.6261C102.439 28.5765 101.854 27.9912 101.77 28.0003C101.102 28.0784 103.369 29.5121 103.015 30.0276C103 30.0408 102.641 29.693 102.571 29.7074C102.354 29.7503 102.423 29.9929 102.194 30.0224C101.663 30.0888 100.547 29.4116 100.839 30.2891C100.877 30.4017 102.157 31.2308 101.768 31.6246C101.614 31.7796 101.035 32.5588 100.789 32.7017C100.544 32.8482 100.28 32.396 100.251 32.3977C99.2978 32.5411 99.2598 32.1625 98.3012 31.8161C97.3482 31.4663 99.1529 32.8594 99.2533 33.1348C99.3532 33.4101 98.6049 33.4618 98.3835 33.4327C98.1604 33.4062 98.0285 33.0835 97.8759 33.0988C96.8724 33.2027 98.5114 34.0898 98.6185 34.5156C98.8643 35.5299 97.303 34.7368 96.823 35.0143C96.6932 35.0893 97.0554 35.2641 96.9952 35.3824C96.7516 35.8481 96.1572 35.7117 96.112 36.4611C96.1054 36.5826 96.5135 37.626 95.765 37.3272C95.658 37.2832 95.4394 36.9036 95.2219 36.9926C94.897 37.1249 94.426 37.4742 94.2827 37.8188C94.1772 38.0731 94.8761 38.3537 94.4962 38.4305C94.3271 38.4641 94.2259 37.9903 93.9327 38.0767C93.6409 38.1621 93.171 38.6552 92.9967 38.8466C92.823 39.0383 93.2932 39.3136 93.3032 39.3535C93.356 39.5871 93.1777 40.1178 93.1457 40.1481C91.6004 41.7504 89.5099 42.5062 88.1546 44.1946C88.0476 44.3267 88.5107 44.6524 88.4983 44.6767C88.2399 45.2418 87.5548 43.8582 86.9232 43.7763C87.7396 44.5543 87.4289 44.5677 87.2183 44.9377C87.1178 45.1163 87.4954 45.3592 87.5131 45.4039C87.7588 46.0838 87.0242 45.6018 86.866 45.5107C86.2839 45.1759 86.6573 45.8706 86.2656 45.6495C85.8762 45.4305 85.6576 44.7642 85.3807 45.0394C85.58 45.4064 86.5158 45.9696 86.4204 46.2967C86.062 47.5283 84.0061 48.3692 83.3178 48.9372C82.6249 49.5064 82.4836 49.7577 82.0158 50.0275C81.1812 50.5093 81.9765 50.8123 81.8414 51.4719C81.7106 52.1308 80.5002 50.6121 80.1422 50.389C79.7852 50.1655 80.0324 50.5238 79.7955 50.4448C79.5583 50.3662 79.5067 50.0091 79.2768 50.131C79.0438 50.2551 79.1419 51.239 79.4053 51.5937C79.9668 52.3397 80.874 52.7652 80.212 53.0018C80.1734 53.0152 79.8711 52.5936 79.7423 52.6622C79.0837 53.0274 78.5331 53.5249 77.9842 54.0024C77.7657 54.1629 77.5878 54.3816 77.4699 54.6903C77.4262 54.8159 76.8589 54.7237 76.8302 54.8202C76.6776 55.9626 77.6423 55.3993 78.5749 54.9607C77.5157 55.6751 76.8633 56.4296 77.6184 57.0526C77.6717 57.0925 77.7335 57.1293 77.7961 57.1589C78.3493 57.393 78.4416 56.7497 78.7958 56.3945C78.888 56.2841 79.1269 56.7406 79.2114 56.4565C79.4534 55.5265 79.2857 54.4789 79.7723 54.8983C79.7977 54.9175 79.7322 55.4351 79.8214 55.4635C80.4333 55.6296 80.3852 54.6378 80.8937 54.3946C81.104 54.2907 81.4506 54.3242 81.8303 54.3328L81.3089 54.6681C81.703 54.5066 82.1189 54.3413 82.3832 54.1514C83.4664 55.2982 83.6886 54.5763 83.0944 53.6302C83.4326 53.3533 83.7128 52.9743 84.1105 52.7699C84.2473 52.6989 84.5153 53.0804 84.5638 53.1007C85.3249 53.4196 84.6783 52.5595 84.7103 52.4631C85.0957 51.4421 86.2521 51.3243 86.2626 50.0706C86.2631 50.0251 85.4454 49.2956 86.2301 49.5952C86.284 49.616 86.4712 50.1798 86.7879 49.8452C87.1017 49.5151 88.1043 49.1761 88.0761 48.3554C88.0705 48.1571 87.5771 47.3246 88.3227 47.474C88.4237 47.4948 88.6533 47.7139 88.8308 47.7658C89.3994 47.9266 88.5544 47.204 89.4582 47.5516C90.3626 47.8978 91.2295 47.8829 91.0579 46.9649C91.054 46.9364 90.4066 46.3248 90.5298 46.1608C90.7282 45.8982 91.134 45.6013 91.3108 45.3062C91.3954 45.1645 90.8769 44.9666 90.8835 44.9371C91.2 43.8449 92.0118 43.4242 92.7738 42.4905C92.9162 42.3168 92.5594 41.4211 93.2733 41.3271C94.0577 41.2164 96.2042 42.8908 96.1433 41.6187C96.1252 41.0932 93.3253 39.1106 95.2403 39.1851C95.4949 37.6485 96.8841 36.7375 96.8886 35.0997C96.8895 35.0256 96.0937 34.4708 96.1646 34.3308C96.2717 34.123 96.7303 34.1687 96.82 34.0228C97.2047 33.4192 97.0847 32.6772 97.3742 32.0696C97.4838 31.8363 97.8817 32.08 98.0125 31.7985C98.1436 31.5137 97.6445 31.1228 98.0584 30.8283C98.3723 30.6073 99.6406 30.7135 99.9138 30.3599C98.7697 29.95 98.8875 29.6865 98.7458 29.0985C98.7175 28.9866 98.2834 28.9516 98.2493 28.8919C98.1013 28.6466 98.4883 28.5923 98.3182 28.3492C98.2775 28.2904 97.8837 28.1595 97.8281 28.1044C97.3399 27.6318 98.3785 27.4474 98.5589 27.4153C99.2455 27.2909 98.7763 26.9826 99.0826 26.8146C99.3892 26.6453 99.5682 27.0959 99.7962 26.8566C99.8286 26.8224 99.8595 26.7869 99.8891 26.7502C100.288 26.2569 100.446 25.5668 100.651 25.0431C100.737 24.8177 100.161 24.7849 100.161 24.7483C100.204 24.2117 100.938 23.9775 100.045 23.2706C102.793 24.1174 99.9129 22.8698 100.769 22.4371C100.838 22.4043 102.066 22.9651 102.149 23.2382C102.233 23.5083 101.716 23.6078 101.882 23.9949C101.916 24.0921 102.935 24.9245 102.992 24.9911C103.41 25.5518 101.51 24.8886 101.397 24.8726C100.186 24.6939 101.304 25.6246 101.357 25.7669C101.547 26.3513 101.277 26.7192 101.281 27.1714C101.28 27.2586 101.288 27.3439 101.309 27.4328C101.398 27.8175 102.649 28.2433 102.529 28.4899C102.129 29.3108 100.283 29.0282 101.53 30.3337C101.795 30.6145 103.22 30.9094 101.933 31.1632C101.852 31.1805 100.714 31.2933 101.239 31.7768C101.306 31.8377 101.703 31.977 101.72 32.0329C101.831 32.4053 101.445 32.4876 101.48 32.8614C101.513 33.239 101.594 33.71 101.322 34.0235C101.159 34.2133 100.318 34.2171 100.1 34.2509C99.4708 34.3448 100.192 34.9863 99.4968 34.9232C98.7995 34.8559 97.9907 34.1271 97.3995 34.4347C98.4066 34.8594 99.4309 35.3185 100.439 35.7583C99.9757 36.8034 99.2079 37.7049 98.7818 38.767C98.7294 38.9002 99.3251 39.0087 99.2823 39.1585C99.0988 39.7885 98.4788 40.1266 98.3386 40.8014C98.2302 41.3286 98.5343 42.1165 98.4208 42.684C97.1543 42.4171 97.1604 43.3262 96.7774 43.7926C96.6445 43.9552 96.3583 43.7823 96.1922 43.8592C95.5732 44.1495 96.6652 44.456 96.7434 44.6743C97.0702 45.6116 94.8641 44.4333 94.5415 45.1124C94.5255 45.1456 95.4227 46.2492 95.4567 46.3535C95.6957 47.0086 95.0211 46.1781 94.7964 46.3608C94.3866 46.6909 93.9349 46.8179 93.9558 47.5155C93.9645 47.7183 94.4383 48.5198 93.7178 48.4464C93.6235 48.4367 93.268 48.1751 93.2274 48.1901C92.5229 48.4777 93.6633 49.2601 93.8444 49.8295C94.025 50.3992 92.9081 50.3289 92.6191 50.2598C91.8648 50.0924 92.5019 49.8977 92.4538 49.8436C91.8795 49.2121 91.7651 49.6273 91.5295 49.8362C90.3976 49.0857 90.2174 49.4755 91.2875 50.058C91.4051 50.1209 91.443 49.8509 91.5295 49.8362C92.457 50.8302 92.3013 51.3381 90.9865 51.0179C90.3711 50.8652 89.9683 50.274 89.7212 51.0077C89.6055 51.3418 90.4241 51.8115 90.439 52.2067C90.47 53.112 89.2191 53.2655 88.865 53.89C88.7352 54.1184 89.2876 54.2602 89.2112 54.4286C89.0048 54.8813 88.4428 54.938 88.2686 55.4235C88.2531 55.4681 88.7217 55.7488 88.626 55.8645C87.9057 56.7473 86.9709 57.2219 86.1163 58.0371C85.8813 58.2612 85.5998 58.6605 85.3113 59.0221C85.0788 59.2063 84.4137 59.685 84.1328 59.7802C83.718 60.0139 83.2935 60.203 82.9485 60.2811C81.5066 60.6139 79.77 60.0691 78.2458 59.983C77.1789 59.8794 77.2249 60.4146 76.4948 60.532C76.2666 60.5521 76.0154 60.5038 75.7534 60.3885C74.1679 59.7269 73.8694 57.4909 73.9741 57.2402C73.9544 57.2568 74.7883 58.2695 74.6273 57.5448C74.9082 56.9306 73.9918 57.2638 73.9741 57.2402C73.9825 57.1211 73.7078 56.457 73.6005 55.6937C73.4735 54.9335 73.556 54.0934 73.5595 53.8095C73.5585 53.4984 73.0298 53.5684 73.0461 53.3939C73.1457 52.4726 73.5049 51.5613 74.0028 50.8331C74.4711 49.8553 75.1345 49.026 75.9638 48.3842C75.9871 48.3737 76.385 48.7803 76.4343 48.7511C77.1254 48.3643 76.948 47.538 77.0756 46.8046C77.2103 46.0653 77.6499 45.8126 78.6011 46.2349C78.8378 45.818 79.6056 45.6583 80.0572 45.5787C80.5055 45.5021 79.7666 44.679 79.7748 44.6401C80.0233 43.4134 80.8922 43.4525 81.7215 42.7917C82.1187 42.4773 82.7275 41.6751 83.0336 41.218C83.2754 40.8541 83.6416 40.8638 83.8104 40.4757C83.8335 40.4233 83.4563 40.1028 83.4549 40.0779C83.3666 39.3505 84.0419 40.368 84.255 40.4621C85.0294 40.8048 85.4626 40.9678 85.6131 40.3189C85.6483 40.1695 84.7281 38.655 84.8272 38.4213C84.9578 38.1201 85.3026 38.6489 85.4285 38.3219C85.4396 38.2944 85.1717 38.0206 85.3247 37.8984C86.0315 37.3276 86.8946 36.8109 87.5358 36.137C87.6243 36.046 87.085 35.7225 87.2056 35.5842C87.7716 34.9356 88.4517 34.2998 89.2358 33.9183C89.4303 33.8256 89.6411 34.2164 89.7617 34.2744C90.4954 34.6217 89.9785 33.5656 90.0068 33.5068C90.6784 32.0659 92.1951 31.9352 92.8504 30.5017C92.887 30.4203 92.4091 29.1703 93.3553 29.6393C93.4178 29.6711 94.3869 30.1507 94.005 29.5002C93.9808 29.4598 93.4639 29.2358 93.6977 29.0487C93.934 28.8583 93.9586 28.2739 94.6687 28.341C94.8915 28.3633 95.8966 28.7818 95.484 27.9669C95.4586 27.9069 94.333 26.3013 95.4778 26.9364C95.6664 27.0403 96.7353 27.903 96.4466 27.1184C96.3886 26.9685 96.0523 26.9076 96.0322 26.6154C95.997 26.1704 96.5564 26.0248 96.2859 25.3432C96.2396 25.2205 95.6312 24.4635 96.3472 24.6625C96.4597 24.6932 96.8017 25.0058 96.9138 24.9295C97.3597 24.6281 97.4804 24.0969 97.8273 23.7394C97.8718 23.7099 97.9224 23.6914 97.9845 23.6857C98.113 23.6792 98.7608 24.0394 98.9721 24.056C99.0752 24.0706 99.1784 24.0653 99.1868 24.1373C99.2019 24.2119 99.0861 24.3803 98.9251 24.9162C98.8487 25.1879 98.7506 25.419 98.6168 25.5663C98.484 25.7143 98.3108 25.7686 98.1511 25.8518C97.9969 25.9449 97.8333 26.0305 97.8362 26.4456C97.8742 26.8189 97.9208 27.7373 99.3799 29.0159C101.645 30.6748 103.07 30.2117 103.602 30.2089C104.206 30.1156 104.384 30.0331 104.533 29.985C104.783 29.8912 104.731 29.8965 104.654 29.9266C104.479 29.9925 104.091 30.1618 103.697 30.3604C103.118 30.6909 102.536 31.0186 102.001 31.4093C101.783 31.5679 102.223 31.7533 101.921 32.0105C100.813 32.9598 99.0872 34.8713 97.5235 34.9722C96.2733 35.0522 96.9396 33.8194 96.146 34.0794C95.765 34.2052 96.2983 35.5329 96.2528 35.624C95.8239 36.5239 94.9573 36.4325 94.4354 37.0755C94.3273 37.2088 94.7982 37.5466 94.7021 37.6553C94.3763 38.0308 93.82 38.1471 93.477 38.4674C93.324 38.6119 93.6127 38.9255 93.4394 39.0168C93.0282 39.2384 92.593 39.3446 91.9942 39.2975C91.9398 39.2931 91.8423 38.7055 91.5585 38.8945C91.0991 39.2023 90.3173 39.2953 90.0445 39.9986C89.9646 40.2084 90.5312 40.9965 89.8066 40.6956C89.6547 40.633 89.0588 39.6264 89.2664 40.7193C89.3019 40.9006 89.4421 42.4732 88.6113 41.989C88.3926 41.8619 87.6265 41.2364 87.5268 41.4897C87.5152 41.5271 87.9169 41.8817 87.7909 42.0324C87.3413 42.5564 86.731 42.9109 86.2498 43.4346C86.1215 43.5754 86.6529 43.8668 86.4512 44.0629C85.8971 44.6028 85.0227 45.016 84.3013 45.2796C84.0349 45.3758 83.9538 44.8967 83.9105 44.8668C83.2138 44.3747 83.6291 45.3752 83.5713 45.4856C83.2055 46.1588 82.5082 46.0019 82.051 46.4363C81.9239 46.555 82.2916 46.9269 82.2861 46.9834C82.2135 47.5461 81.9648 46.6281 81.722 46.6572C81.0408 46.7356 80.4646 47.1229 79.9473 47.495C79.7576 47.6322 80.2786 48.0137 80.1039 48.1314C79.0748 48.8375 77.8972 49.4127 76.6602 49.6801C76.4268 49.7294 76.3493 49.2587 76.2595 49.1881C75.6399 48.6895 75.6565 49.7878 75.5959 49.9226C75.3308 50.5336 74.976 50.2586 74.6037 50.5191C73.3509 51.4002 71.7031 52.07 70.1338 52.5628C69.4637 52.771 68.8232 52.9532 68.2476 53.1201C65.8584 53.8142 63.8702 54.108 61.6745 55.0501C61.5367 55.1086 61.8897 55.6219 61.7737 55.6797C60.2287 56.4129 58.6073 56.7597 57.0502 57.5112C56.9246 57.571 57.3078 58.0415 57.1128 58.1554C56.7163 58.3921 56.1673 58.5573 55.6538 58.5473C55.4078 58.542 55.5314 57.9751 55.2875 57.9791C54.7199 57.9869 54.1744 58.1383 53.7043 58.4024C53.5032 58.5165 54.0272 58.9526 53.7426 59.0606C51.7835 59.8157 49.9569 60.5546 47.6974 60.5103C47.5465 60.5057 47.0543 59.4144 46.8442 59.7249C46.926 60.046 47.0498 60.4147 47.1513 60.7533C44.3385 61.8868 41.3474 62.3989 38.3833 63.1726C38.2547 63.2063 38.6474 63.7512 38.3992 63.8194C37.0188 64.1985 35.6355 64.7484 34.0117 64.4934C33.8519 64.4684 33.6648 63.3723 33.2872 63.6336C33.2132 63.683 32.5856 63.9786 32.4753 64.249C32.4605 64.2895 32.6901 64.7696 32.4857 64.8301C31.2504 65.1823 29.8967 65.3252 28.516 65.208C28.2902 65.1883 28.4423 64.6085 28.2829 64.5892C27.1819 64.4529 26.0276 64.9918 24.9134 64.5362C24.1963 64.2253 24.4252 63.2611 24.0583 62.3302C24.0014 62.1993 23.6103 62.1819 23.5846 61.6353C23.5288 60.2617 23.7035 58.7564 23.6203 57.2924C23.6023 56.9776 23.1291 57.3177 23.4088 56.5552C23.4293 56.5045 23.7673 56.2499 23.8377 55.9899C23.8897 55.8105 23.7856 55.2562 23.8913 55.0259C23.9999 54.7955 24.1148 55.2593 24.2846 54.9849C24.4452 54.7067 24.3436 54.0795 24.6648 53.9887ZM82.0715 45.2382C82.6869 45.3803 81.3704 43.9488 81.4266 44.5427C81.431 44.573 82.0406 45.2319 82.0715 45.2382ZM97.8592 37.1089C96.8929 37.1812 97.9202 37.9723 98.6561 37.9461C99.3932 37.914 98.1534 37.0837 97.8592 37.1089ZM99.0229 32.5326C98.2073 32.785 100.757 33.8379 100.435 33.1059C100.417 33.0635 99.0705 32.5174 99.0229 32.5326ZM25.6578 61.9909C25.6557 61.9656 25.3566 61.9609 25.3524 61.9864C25.2319 62.6134 25.8339 62.6226 25.6578 61.9909ZM99.8755 27.9568C99.4723 27.9951 99.7369 28.5769 100.241 28.5255C100.647 28.4817 100.379 27.9044 99.8755 27.9568ZM96.1151 34.3822C96.14 34.398 96.2921 34.2708 96.1686 34.1631C95.7708 33.8168 95.6969 34.117 96.1151 34.3822ZM102.771 20.9901C102.114 21.8914 99.7754 21.4159 100.639 20.4228C100.795 20.2472 101.018 21.2172 101.343 21.0659C101.93 20.7989 100.883 19.7647 101.82 19.6951C101.989 19.6867 102.811 20.9428 102.773 20.9935C102.772 20.9924 102.772 20.9912 102.771 20.9901ZM83.8396 46.7761C83.8623 46.7898 84.0751 46.6175 84.0622 46.5946C83.7393 46.048 83.309 46.3961 83.8396 46.7761ZM103.934 25.65C103.962 25.6491 104.055 25.4657 104.112 25.2187C104.177 24.9854 104.159 24.6083 104.123 24.585C103.838 24.4132 103.664 24.5462 103.545 24.6675C103.425 24.7922 103.345 24.9245 103.313 25.0548C103.252 25.3032 103.376 25.6398 103.934 25.65ZM82.42 54.1743C82.1943 53.5287 82.3791 53.2429 83.0929 53.6305C82.863 53.8031 82.6523 54.0025 82.42 54.1743Z" fill="#812424" fill-opacity="0.75"/>
<path d="M173.167 34.0231C172.372 34.4842 171.17 34.7674 170.193 34.9177C169.891 34.9635 169.892 34.5878 169.674 34.6074C169.239 34.6508 168.97 34.9557 168.524 34.983C168.378 34.9897 168.304 34.4233 168.158 34.4412C167.349 34.5456 166.716 34.9999 165.952 35.2452C162.126 36.4859 158.52 38.276 154.833 40.1878C153.624 40.8142 151.929 41.2699 150.845 42.2012C150.717 42.3116 151.055 42.6653 151.049 42.7156C150.945 43.4928 150.578 42.582 150.237 42.6441C148.879 42.8963 147.646 43.6303 146.713 44.4526C146.312 44.8074 147.276 45.3174 146.536 45.1597C146.485 45.1497 146.322 44.6492 146.17 44.6832C145.833 44.756 145.364 45.1699 145.128 45.2763C144.671 45.4788 144.605 45.5287 144.219 45.7752C143.689 46.1089 142.908 46.322 142.415 46.7891C142.309 46.891 142.757 47.219 142.614 47.4207C142.472 47.6215 141.932 47.9297 141.694 47.9412C141.456 47.9526 141.3 47.5638 141.217 47.5059C140.529 47.0128 140.552 48.3208 140.491 48.3949C140.367 48.541 140.236 48.6748 140.101 48.7987C139.059 49.7651 137.744 50.0849 136.627 50.8907C135.673 51.5804 134.787 52.4905 133.872 53.1402C132.782 53.913 131.711 54.3745 130.709 55.2097C130.603 55.2972 131.105 55.684 130.977 55.7918C129.613 56.9369 128.183 57.979 126.533 58.7653C126.368 58.8438 126.212 58.2795 126.026 58.3328C124.896 58.6674 122.875 58.9311 123.845 61.1624C123.211 61.557 122.452 62.0521 121.641 62.1035C121.115 62.1392 121.068 61.4212 120.818 61.9482C120.761 62.0664 121.205 62.367 121.096 62.514C120.636 63.132 119.898 63.5195 119.488 64.1978C119.407 64.3361 119.73 64.666 119.75 64.7572C119.899 65.5022 118.731 65.0253 118.579 65.0455C117.433 65.2079 117.018 65.8536 116.292 66.4303C116.124 66.563 116.711 66.8809 116.564 67.0257C115.785 67.7788 114.896 68.4373 113.901 68.8941C113.681 68.9922 113.514 68.4491 113.393 68.4749C112.854 68.5988 113.393 69.4421 112.893 69.5704C112.788 69.5985 112.548 69.2133 112.503 69.1862C111.788 68.7648 112.288 69.7765 112.246 69.8416C111.731 70.6838 110.542 70.1637 109.942 70.8463C109.869 70.9304 110.417 71.2246 110.189 71.4336C110.043 71.5692 109.895 71.7011 109.747 71.8291C108.348 73.0355 106.729 74.0789 105.008 74.825C104.714 74.9527 104.643 74.4742 104.597 74.4426C103.845 73.969 104.336 74.9764 104.268 75.0762C103.768 75.801 102.63 75.4513 102.85 76.8703C101.349 77.6096 99.285 78.6152 97.4667 78.7755C96.5204 78.9019 95.6046 78.9601 94.6562 78.9055C94.1801 78.8761 93.7087 78.8222 93.1669 78.7033C93.0282 78.6725 92.8915 78.6386 92.7118 78.5893C92.6317 78.5656 92.5249 78.5361 92.4058 78.4955C92.2597 78.4387 92.1557 78.4383 91.7454 78.1923C91.6214 78.1063 91.5243 78.051 91.3173 77.8113C91.1158 77.5752 90.9111 77.152 90.9243 76.6913C90.9306 76.2347 91.1315 75.8927 91.2204 75.7681C91.329 75.6106 91.4502 75.496 91.5207 75.4377C91.798 75.2201 91.9161 75.1972 92.0467 75.1455C92.259 75.0795 92.4157 75.0621 92.5628 75.0504C92.6156 75.0465 92.7111 75.5897 92.8109 75.5817C92.851 75.5787 92.8902 75.5751 92.9286 75.5707C93.8644 75.5019 93.4565 74.7671 93.7521 73.6162C93.8284 73.3174 94.7005 74.3442 94.7768 74.4152C95.0419 74.6824 95.1352 75.5056 95.2089 75.5499C95.812 75.889 94.887 73.3736 95.4657 73.1761C95.4853 73.1741 95.5681 73.6669 95.6326 73.6968C95.8337 73.7909 95.9199 73.5543 96.1222 73.6644C96.5828 73.9214 97.1416 75.1062 97.4136 74.2088C97.4467 74.0929 96.8469 72.6931 97.385 72.5799C97.5965 72.5378 98.5041 72.1864 98.7915 72.1865C99.0792 72.187 99.0715 72.7107 99.0968 72.7241C100.004 73.0837 99.8344 73.4307 100.51 74.2046C101.191 74.9718 100.305 72.8699 100.359 72.5792C100.412 72.2892 101.102 72.6025 101.29 72.73C101.479 72.8577 101.434 73.2069 101.581 73.2641C102.55 73.6334 101.5 72.086 101.612 71.657C101.875 70.6412 102.914 72.0517 103.49 72.0047C103.648 71.9912 103.393 71.6778 103.505 71.5952C103.95 71.2732 104.441 71.646 104.814 70.976C104.877 70.8658 104.949 69.7415 105.519 70.3142C105.601 70.3969 105.643 70.8346 105.886 70.8369C106.249 70.842 106.847 70.6948 107.129 70.4242C107.335 70.2249 106.785 69.7031 107.177 69.7723C107.352 69.8034 107.255 70.2846 107.57 70.3115C107.88 70.3407 108.537 70.0416 108.781 69.9209C109.025 69.8003 108.68 69.3759 108.686 69.3347C108.728 69.0956 109.097 68.6587 109.14 68.6404C111.227 67.6582 113.541 67.5641 115.44 66.3058C115.589 66.2081 115.239 65.7618 115.259 65.7418C115.694 65.2681 115.919 66.8022 116.521 67.0557C115.964 66.0745 116.283 66.1444 116.61 65.8427C116.766 65.6965 116.47 65.3571 116.467 65.3088C116.44 64.5812 117.008 65.2518 117.139 65.3817C117.613 65.863 117.465 65.0847 117.783 65.4051C118.101 65.7221 118.107 66.4308 118.469 66.2353C118.387 65.8245 117.636 65.0261 117.832 64.733C118.575 63.6282 120.879 63.3282 121.744 62.9414C122.607 62.559 122.836 62.3419 123.382 62.1981C124.372 61.9335 123.671 61.4342 124.015 60.8205C124.364 60.2018 125.081 62.0101 125.367 62.3218C125.653 62.6332 125.52 62.2177 125.729 62.3579C125.938 62.4981 125.878 62.8601 126.142 62.8031C126.403 62.7485 126.637 61.7518 126.488 61.3366C126.179 60.4534 125.413 59.7934 126.161 59.7354C126.205 59.7323 126.359 60.2303 126.513 60.1966C127.719 59.9201 128.77 59.2929 129.949 58.9494C130.114 58.9014 130.292 59.4549 130.392 59.4323C131.42 59.2013 130.606 58.5957 130.49 57.4168C131.152 58.6586 131.858 59.2249 132.5 58.8171C132.643 58.7264 132.674 58.6037 132.658 58.4577C132.633 58.2161 132.48 57.9112 132.486 57.587C132.488 57.4301 132.984 57.6109 132.877 57.3376C132.529 56.4426 131.705 55.717 132.59 55.6508C132.63 55.6493 132.814 56.1427 132.93 56.1058C133.684 55.8712 133.237 54.9888 133.882 54.4502C134.387 54.028 135.686 53.945 136.369 53.6563C137.158 55.0206 137.566 54.3618 137.263 53.2808C137.697 53.0792 138.114 52.7686 138.588 52.671C138.751 52.6371 138.887 53.0853 138.929 53.1183C139.576 53.6399 139.234 52.6188 139.303 52.5319C140.077 51.6326 141.257 51.8969 141.815 50.7023C141.835 50.6597 141.367 49.6672 141.998 50.2351C142.041 50.275 141.969 50.8799 142.427 50.6766C142.886 50.4727 143.99 50.5491 144.366 49.7782C144.457 49.5922 144.421 48.6071 145.045 49.0652C145.129 49.1279 145.23 49.4293 145.369 49.5541C145.813 49.9508 145.405 48.9151 146.058 49.6359C146.711 50.3567 147.488 50.748 147.81 49.855C147.821 49.8282 147.569 48.9718 147.77 48.8848C148.092 48.7468 148.617 48.6856 148.94 48.5166C149.095 48.4354 148.75 47.999 148.773 47.9765C149.687 47.1749 150.653 47.237 151.875 46.8703C152.099 46.8045 152.369 45.8446 153.028 46.1767C153.751 46.5396 154.47 49.1634 155.2 48.1004C155.494 47.6739 154.535 44.3681 156.035 45.597C157.271 44.5173 158.982 44.6966 160.146 43.4501C160.198 43.3944 159.993 42.4427 160.15 42.3821C160.383 42.2938 160.699 42.6333 160.872 42.5829C161.401 42.437 161.787 42.0601 162.212 41.7675C162.22 41.7631 162.245 41.7549 162.253 41.7519C162.434 41.669 162.613 41.6003 162.808 41.5611C163.075 41.5069 163.111 41.9726 163.43 41.9077C163.751 41.842 163.792 41.2033 164.297 41.3608C164.677 41.4819 165.341 42.5721 165.81 42.5839C165.483 41.4134 165.784 41.3521 166.209 40.8892C166.29 40.7997 166.061 40.427 166.094 40.3637C166.219 40.0982 166.498 40.3795 166.608 40.097C166.635 40.029 166.514 39.6321 166.529 39.5542C166.647 38.8784 167.419 39.6099 167.557 39.7351C168.078 40.2131 168.058 39.6498 168.386 39.7927C168.716 39.9345 168.442 40.3532 168.786 40.3879C169.503 40.4584 170.276 40.0843 170.896 39.8115C171.144 39.6994 170.737 39.2795 170.767 39.2518C170.907 39.1341 171.08 39.0832 171.241 39.0269C171.565 38.8873 171.851 38.7141 171.563 38.0042C173.581 40.0517 171.658 37.6006 172.563 37.566C172.635 37.5626 173.608 38.5034 173.548 38.8216C173.483 39.1439 172.919 39.0676 172.818 39.529C172.805 39.633 173.108 40.9681 173.076 41.0784C173.017 41.3877 172.81 41.3495 172.584 41.1708C172.55 41.1886 172.455 41.2496 172.42 41.2649C172.064 40.9392 171.665 40.227 171.618 40.1734C170.817 39.2432 170.903 40.7001 170.784 40.8526C170.306 41.5287 169.65 41.4697 169.217 41.9491C168.932 42.2593 169.319 43.5217 169.022 43.5786C168.032 43.7639 167.187 42.0935 166.792 43.8803C166.706 44.2613 167.297 45.5922 166.318 44.6974C166.254 44.6418 165.482 43.7854 165.385 44.497C165.373 44.5865 165.491 44.9903 165.455 45.0375C165.209 45.3465 164.909 45.084 164.62 45.3339C164.33 45.5841 163.992 45.9295 163.575 45.9007C163.532 45.898 163.482 45.8765 163.427 45.842L164.054 45.6036C163.761 45.4814 163.31 45.0683 163.156 44.9658C162.625 44.6074 162.704 45.5744 162.234 45.057C161.762 44.5374 161.677 43.4456 161.012 43.2821C161.466 44.2763 161.909 45.3075 162.355 46.3125C161.293 46.7783 160.113 46.9506 159.088 47.4957C158.962 47.5641 159.348 48.0304 159.219 48.1174C158.673 48.4828 157.982 48.3505 157.448 48.7931C157.037 49.1373 156.794 49.9455 156.375 50.3233C155.53 49.3431 154.99 50.0779 154.416 50.2318C154.215 50.2864 154.08 49.9805 153.901 49.9469C153.229 49.8279 153.949 50.7058 153.89 50.9283C153.641 51.8784 152.483 49.6602 151.827 50.0547C151.792 50.0749 151.943 51.4886 151.921 51.5928C151.778 52.2692 151.65 51.2093 151.365 51.2417C150.844 51.301 150.394 51.1704 150.055 51.7795C149.956 51.959 149.974 52.8817 149.391 52.457C149.315 52.4015 149.136 51.9982 149.093 51.9909C148.339 51.8932 148.956 53.1332 148.854 53.7128C148.753 54.2922 147.827 53.6956 147.6 53.5033C147.01 53.0065 147.659 53.1293 147.641 53.06C147.424 52.2351 147.132 52.5477 146.826 52.628C146.158 51.4446 145.812 51.7178 146.511 52.7162C146.588 52.8249 146.742 52.6016 146.826 52.628C147.201 53.9346 146.867 54.3015 145.824 53.4449C145.335 53.0436 145.221 52.3335 144.679 52.9036C144.434 53.1621 144.989 53.9251 144.848 54.2898C144.527 55.1215 143.34 54.7743 142.793 55.2328C142.596 55.3989 143.059 55.7277 142.933 55.8564C142.6 56.1992 142.06 56.0606 141.756 56.4574C141.729 56.4939 142.08 56.9109 141.96 56.9867C141.051 57.5705 140.068 57.7408 139.094 58.3048C138.623 58.5771 137.945 59.3292 137.438 59.5711C136.56 59.9907 135.132 59.97 134.535 60.5825C134.369 60.7518 134.346 60.9191 134.375 61.0887C134.411 61.3173 134.54 61.5491 134.539 61.7994C134.53 62.6501 133.146 62.0356 132.941 61.9335C132.936 61.9293 133.28 61.5567 132.911 61.4677C132.473 61.0686 132.945 61.9283 132.941 61.9335C132.816 61.8639 131.92 62.2934 131.816 62.4796C131.757 62.5832 132.079 62.9803 132.043 63.0263C131.178 64.113 130.115 64.9232 128.843 65.4108C128.817 65.4142 128.555 64.9092 128.499 64.9231C127.699 65.1086 127.636 65.952 127.286 66.6338C126.942 67.3117 126.422 67.4505 125.613 66.789C125.249 67.1382 124.443 67.0963 123.964 67.0625C123.486 67.0283 123.977 68.0192 123.956 68.0561C123.33 69.1974 122.463 68.9457 121.418 69.3839C120.913 69.5951 120.043 70.2244 119.569 70.5985C119.204 70.8922 118.838 70.7854 118.527 71.1252C118.484 71.1709 118.756 71.5856 118.748 71.6105C118.582 72.3495 118.255 71.169 118.072 71.0196C117.41 70.4747 117.036 70.1955 116.646 70.7923C116.561 70.9274 116.946 72.6644 116.755 72.8674C116.507 73.1277 116.356 72.5124 116.102 72.7992C116.08 72.8229 116.247 73.1681 116.047 73.2435C115.113 73.6022 114.027 73.8551 113.09 74.3153C112.963 74.3762 113.376 74.8573 113.196 74.9546C112.342 75.4137 111.365 75.8135 110.382 75.9211C110.144 75.9441 110.11 75.4964 110.015 75.3994C109.439 74.8135 109.468 76.0049 109.409 76.0526C108.025 77.2066 106.432 76.7628 104.982 77.8363C104.906 77.896 104.642 79.2719 103.97 78.434C103.925 78.3785 103.26 77.5133 103.245 78.2814C103.244 78.3295 103.621 78.7628 103.273 78.8342C102.929 78.9045 102.506 79.4437 101.86 79.0503C101.653 78.9277 100.964 78.0697 100.816 79.0053C100.81 79.0694 100.77 81.078 100.105 79.9382C99.9953 79.7506 99.5808 78.4433 99.3044 79.2853C99.2516 79.4482 99.5305 79.6747 99.3352 79.9453C99.0343 80.3621 98.389 80.1965 98.1025 80.9392C98.0533 81.0703 97.9881 82.0754 97.4688 81.5046C97.3876 81.4152 97.3289 80.952 97.1581 80.9553C96.3462 80.9685 95.6895 81.507 94.8381 81.4489C94.8336 81.4486 94.8292 81.4482 94.8248 81.4475C94.779 81.3952 94.724 81.19 94.6495 80.9822C94.5888 80.7684 94.4683 80.5728 94.5532 80.43C94.5846 80.3882 94.6163 80.3491 94.7407 80.2545C94.8085 80.2024 94.8456 80.1712 95.0001 80.0543C95.071 79.9992 95.1534 79.9329 95.2505 79.8468C95.3504 79.7557 95.4439 79.677 95.6566 79.4403C95.8489 79.219 96.0797 78.9236 96.2999 78.456C96.6051 77.8391 96.8227 76.7846 96.579 75.8023C96.3623 74.8404 95.7865 74.1174 95.4156 73.7805C95.0995 73.4875 94.8294 73.321 94.6132 73.2033C93.8928 72.8491 93.7724 72.8995 93.62 72.8588C93.3933 72.829 93.4 72.8379 93.4032 72.8094C93.4141 72.7837 93.4552 72.7345 93.4905 72.651C93.6516 72.3163 93.4995 71.1351 93.728 71.0417C94.4295 70.7923 95.4893 70.8546 96.3452 70.915C96.9536 70.948 97.0699 71.0516 97.3489 70.9901C97.4536 70.9629 97.2044 70.6116 97.3496 70.5376C97.8866 70.3049 99.705 68.5724 101.233 68.5385C102.483 68.5023 101.774 69.7137 102.579 69.4776C102.969 69.3595 102.469 68.0173 102.516 67.927C102.963 67.0356 103.838 67.1267 104.372 66.4748C104.484 66.338 104.011 66.002 104.107 65.8935C104.272 65.7014 104.504 65.5732 104.742 65.4455C104.951 65.3366 105.164 65.2279 105.33 65.0688C105.484 64.9194 105.188 64.6123 105.357 64.5197C105.761 64.2928 106.195 64.1744 106.797 64.2011C106.852 64.2032 106.963 64.7912 107.247 64.5887C107.701 64.2626 108.492 64.1279 108.737 63.4063C108.809 63.1905 108.208 62.4289 108.947 62.6918C109.102 62.7456 109.751 63.7199 109.49 62.634C109.451 62.45 109.212 60.8921 110.079 61.3136C110.309 61.4232 111.116 61.9945 111.201 61.7311C111.211 61.6926 110.783 61.3694 110.9 61.2081C111.322 60.6424 111.905 60.2364 112.341 59.6672C112.457 59.5145 111.901 59.2737 112.084 59.0592C112.594 58.4647 113.421 57.9647 114.107 57.6209C114.362 57.4941 114.496 57.9613 114.543 57.9861C115.295 58.3922 114.769 57.4436 114.812 57.3282C115.092 56.6175 115.808 56.6801 116.202 56.1878C116.312 56.0525 115.896 55.7346 115.894 55.6779C115.888 55.1109 116.261 55.9858 116.498 55.9224C117.162 55.75 117.68 55.2758 118.129 54.8285C118.294 54.663 117.72 54.3691 117.872 54.2257C118.77 53.3677 119.81 52.6032 120.96 52.1013C121.177 52.0078 121.348 52.4524 121.45 52.5039C122.158 52.8676 121.917 51.794 121.945 51.6513C122.071 51.0014 122.474 51.1946 122.776 50.8602C124.249 49.2193 126.543 47.7784 128.298 46.6656C130.582 45.214 132.534 44.3256 134.609 42.754C134.742 42.6537 134.261 42.2517 134.372 42.1587C134.64 41.9413 134.915 41.7372 135.192 41.5424C136.4 40.6944 137.668 40.0032 138.821 39.071C138.938 38.9778 138.442 38.6181 138.62 38.4524C138.984 38.1077 139.505 37.8026 140.029 37.6789C140.28 37.6199 140.277 38.2095 140.524 38.142C141.101 37.9851 141.617 37.6983 142.064 37.3006C142.251 37.1322 141.618 36.8428 141.886 36.6622C143.694 35.427 145.469 34.1867 147.761 33.6712C147.919 33.6358 148.654 34.5818 148.808 34.2204C148.657 33.9256 148.453 33.5943 148.278 33.2872C150.921 31.4535 153.872 30.2062 156.762 28.7072C156.883 28.6445 156.375 28.2022 156.607 28.0779C157.968 27.351 159.231 26.4927 160.94 26.344C161.108 26.3295 161.526 27.3604 161.872 27.0036C161.935 26.938 162.486 26.5053 162.554 26.2062C162.561 26.1627 162.22 25.7512 162.421 25.6387C163.581 24.9974 164.912 24.5242 166.277 24.2964C166.497 24.2612 166.497 24.8589 166.655 24.8388C167.767 24.6918 168.736 23.8665 169.911 23.987C170.693 24.0735 170.757 25.0614 171.395 25.8381C171.479 25.9491 171.897 25.8362 172.079 26.3521C172.543 27.6463 172.819 29.1373 173.337 30.5092C173.449 30.8036 173.806 30.3371 173.762 31.149C173.759 31.2029 173.502 31.5496 173.499 31.8232C173.498 32.0117 173.77 32.507 173.73 32.7613C173.691 33.0145 173.421 32.6134 173.317 32.9332C173.213 33.257 173.51 33.8221 173.167 34.0231ZM121.843 66.89C121.273 66.5939 122.143 68.3334 122.271 67.7362C122.276 67.7053 121.872 66.9041 121.843 66.89ZM159.486 45.6256C158.694 45.0539 158.949 46.3298 159.533 46.7843C160.117 47.2384 159.726 45.7987 159.486 45.6256ZM163.42 43.1611C162.707 42.6621 163.384 45.336 163.795 44.6386C163.819 44.5989 163.462 43.1901 163.42 43.1611ZM169.912 26.6418C169.926 26.6638 170.212 26.5856 170.209 26.5595C170.148 25.9244 169.569 26.0835 169.912 26.6418ZM167.879 41.1224C167.599 40.822 167.257 41.3816 167.601 41.7591C167.882 42.0622 168.23 41.4958 167.879 41.1224ZM103.849 72.8832C103.832 72.8587 103.63 72.9095 103.694 73.0605C103.897 73.5474 104.115 73.3027 103.849 72.8832ZM174.975 36.5785C174.048 37.4582 171.948 36.3233 172.985 35.6119C173.176 35.4754 173.178 36.4692 173.528 36.3956C174.182 36.2442 173.348 35.0284 174.288 35.111C174.463 35.123 175.035 36.53 174.976 36.5822C174.976 36.581 174.975 36.5798 174.975 36.5785ZM120.555 64.9315C120.536 64.9122 120.271 65.0266 120.276 65.0524C120.429 65.6708 120.967 65.4392 120.555 64.9315ZM92.4863 77.7092C92.5984 77.8217 93.3922 77.9227 93.4014 77.8644C93.7616 76.8834 92.4889 76.6752 92.4863 77.7092ZM136.4 53.6867C136.357 52.9909 136.651 52.7338 137.261 53.2808C136.969 53.4033 136.692 53.5586 136.4 53.6867Z" fill="#812424" fill-opacity="0.75"/>
</svg>
