<svg width="373" height="324" viewBox="0 0 373 324" fill="none" xmlns="http://www.w3.org/2000/svg">
<path d="M12.9339 0.00121461C13.1032 0.00192919 12.9222 0.00286588 12.6736 0.00357775C12.5966 0.00380085 12.252 0.00368788 12.1833 0.00384189C12.0493 0.0041431 12.2183 0.00442372 12.0587 0.00472138C12.0041 0.00482002 11.4584 0.00469723 11.4136 0.00480067C11.1724 0.00536749 11.3115 0.00590372 11.1954 0.00647792C10.623 0.00930623 10.4182 0.0120864 10.1695 0.0149493C10.088 0.0158933 9.59266 0.0170408 9.80927 0.0180158C9.83505 0.0181297 10.3141 0.0180618 10.3536 0.0180835C10.958 0.0184231 9.99093 0.0183102 9.86243 0.018532C9.3551 0.0194122 9.31098 0.020391 9.49586 0.021238C9.57592 0.0215984 10.5274 0.0212371 9.99335 0.0216C9.95727 0.0216251 9.44855 0.0215337 9.3943 0.0216325C9.27226 0.0218567 9.36319 0.0222819 9.32288 0.0224556C9.24263 0.0227904 9.24775 0.0228458 9.24195 0.0231624C9.2296 0.0235953 8.97672 0.0241101 9.09199 0.0245745C9.11811 0.0246737 9.6396 0.0245424 9.72834 0.0247005C9.81694 0.0248588 9.77272 0.0252774 9.64979 0.0254185C9.52679 0.0255597 9.11691 0.0254996 9.02296 0.0255246C8.22998 0.0257301 9.32826 0.0262143 9.35542 0.0262766C9.81821 0.0274126 9.19256 0.0283868 9.19435 0.0294531C9.19703 0.0302626 9.40358 0.0311282 9.37525 0.0318984C9.33949 0.0328161 9.0569 0.0335938 9.10548 0.0344853C9.11 0.0345794 9.72316 0.0344692 9.72993 0.0345841C9.80128 0.0358049 9.73444 0.0370173 9.3205 0.0382329C9.27845 0.0383548 8.74011 0.0381977 8.6659 0.0383195C8.22348 0.0390652 7.16068 0.0402451 9.50459 0.040688C9.41306 0.0411931 9.3185 0.0418063 8.84602 0.0422582C8.54192 0.0425496 7.95545 0.0422666 8.2057 0.0426245C8.26146 0.0427052 8.77506 0.0426002 8.81983 0.0427213C9.00786 0.043231 8.8409 0.0437878 9.10627 0.044292C9.16146 0.0443946 9.62166 0.0443666 9.70454 0.0443956C10.3757 0.0446398 9.26623 0.0450464 9.18562 0.045135C8.58445 0.0458099 8.82102 0.0463027 8.80635 0.0469314C8.80268 0.0470773 9.42084 0.0469049 9.43952 0.0470453C9.52812 0.0477734 9.47499 0.0485276 9.20069 0.0492406C9.13819 0.0493992 8.61163 0.0492533 8.55482 0.0493291C8.31074 0.0496633 9.30529 0.0497373 9.0904 0.0500578C9.04638 0.0501254 8.5956 0.0500873 8.54609 0.0500996C7.76894 0.0502925 8.87011 0.0504601 8.89442 0.0505097C9.2266 0.0511373 8.07704 0.0515384 8.23982 0.0521446C8.26045 0.0522172 8.83082 0.0520536 8.85395 0.0522575C9.01141 0.0536157 8.85472 0.0550522 8.39851 0.0563966C8.32835 0.0566057 7.89988 0.0564565 7.84706 0.0564696C7.02177 0.056684 8.12756 0.0568227 8.1692 0.0568909C8.46897 0.0574286 7.54164 0.0579309 8.85871 0.0582962C8.40164 0.0605734 9.14125 0.0628402 7.96132 0.0650986C7.94765 0.0651273 7.40305 0.0650759 7.37813 0.0651331C7.07234 0.0658229 7.91875 0.0656905 8.95393 0.0661469C9.21387 0.0662619 7.96406 0.0666116 7.87245 0.0666426C7.53486 0.0667553 6.72464 0.0666384 6.65926 0.0666761C6.14587 0.0669886 8.82532 0.0669376 8.82618 0.0673591C8.82171 0.0673723 8.32853 0.0673169 8.27949 0.0673523C8.12554 0.0674622 8.32151 0.0675712 8.15175 0.0676787C7.75891 0.0679248 6.45693 0.0680125 7.21468 0.0683884C7.31302 0.068436 8.83292 0.0683633 8.76112 0.0687396C8.73121 0.0688897 8.75726 0.0695537 8.65876 0.0697398C8.56039 0.0699256 8.0706 0.069798 8.04939 0.0698113C7.40173 0.0703121 7.13331 0.0701222 6.17446 0.0703731C5.21922 0.070624 7.49755 0.0705544 7.75184 0.0706567C8.00542 0.0707592 7.47106 0.0711264 7.28529 0.0712166C7.09945 0.0713068 6.78823 0.0711943 6.68306 0.0712745C5.99596 0.0718062 7.81394 0.0715079 8.17555 0.0716831C9.03177 0.0720962 7.34215 0.0724179 7.17659 0.0727961C7.13188 0.0728984 7.5167 0.0728149 7.55269 0.072906C7.69012 0.0732669 7.16292 0.0734839 7.64632 0.0738945C7.72509 0.0739616 8.74093 0.0742935 7.99544 0.0745084C7.88794 0.0745388 7.46689 0.0744523 7.37257 0.0746061C7.23103 0.0748359 7.139 0.0752498 7.27974 0.0754968C7.38387 0.0756791 8.07766 0.0754702 7.86213 0.0756996C7.7659 0.0758017 7.36003 0.0756126 7.21309 0.0758042C7.06619 0.0759948 7.08402 0.0764822 7.09804 0.0766677C7.11236 0.0768528 7.63863 0.0767515 7.67409 0.0767664C7.87718 0.076857 8.13095 0.0772122 8.13032 0.0772436C8.19457 0.0788272 7.30748 0.0802875 7.60109 0.0818293C7.62337 0.0819503 8.17833 0.0818697 8.18745 0.0818882C8.41997 0.0823024 6.94446 0.0819758 6.45058 0.0822652C7.57676 0.0822233 7.37284 0.0823942 7.49635 0.0826859C7.55678 0.0828265 7.99285 0.08275 8.03749 0.0827628C8.69982 0.0829713 7.84433 0.0831165 7.66933 0.0831539C7.02556 0.083292 7.78621 0.0834423 7.35591 0.0835362C6.92883 0.0836301 6.29568 0.083414 6.30379 0.0836939C6.70692 0.0837723 7.76042 0.0835646 7.93117 0.083777C8.577 0.0845786 7.75043 0.086075 7.66456 0.0867195C7.57878 0.0873628 7.65315 0.0875705 7.50746 0.0879453C7.24403 0.0886224 8.02566 0.0883743 8.38343 0.0887947C8.74117 0.0892163 6.81799 0.0890113 6.40456 0.089072C5.99131 0.0891315 6.41671 0.0891964 6.18953 0.0892704C5.96241 0.0893442 5.68131 0.0891845 5.59603 0.089358C5.51083 0.0895316 6.24601 0.0900062 6.6783 0.0900677C7.59413 0.0901978 8.55534 0.0899839 8.2176 0.0904432C8.19756 0.0904697 7.69187 0.0903839 7.64076 0.0904851C7.25146 0.0912885 7.22733 0.0921231 6.88301 0.0929256C6.83488 0.0930359 6.27231 0.0929372 6.23793 0.0930014C5.87811 0.0936703 6.82666 0.0934312 7.88038 0.0937977C6.4781 0.0937155 5.62018 0.0939181 5.6119 0.0944257C5.60643 0.0947309 6.21888 0.0946783 6.65053 0.0948757C6.78065 0.0949349 6.36012 0.0951508 6.64815 0.0951899C7.58966 0.095319 8.64363 0.0951156 8.22395 0.0956389C8.20401 0.0956619 7.68864 0.0955888 7.65742 0.0956681C7.45313 0.0961809 8.43794 0.0962423 8.5572 0.0967967C8.65078 0.0972312 8.05026 0.098004 7.95259 0.0984987C6.37602 0.0984883 6.73703 0.0989556 7.82405 0.0991452C7.77955 0.0994663 7.841 0.0998131 7.69075 0.100123C7.63952 0.10023 7.18306 0.10016 7.13374 0.100174C6.36005 0.10038 7.4176 0.10052 7.45906 0.100589C7.86209 0.10134 7.06055 0.101952 7.84389 0.102669C7.8721 0.102694 8.96723 0.102736 8.16761 0.102927C8.1125 0.10294 7.61423 0.102703 7.5757 0.10304C7.53708 0.103377 6.95001 0.104013 7.45747 0.104481C7.57964 0.104595 8.46867 0.104881 7.77406 0.105111C7.67974 0.105142 7.36565 0.105109 7.19087 0.105153C6.63396 0.105296 7.74087 0.105374 6.80049 0.105542C5.86016 0.10571 5.15592 0.10606 5.80471 0.106532C5.82357 0.106547 6.7009 0.106659 6.68703 0.106807C6.66413 0.107044 6.48136 0.107381 6.48708 0.107628C6.49013 0.107747 7.03491 0.107671 7.04488 0.107692C7.35015 0.108488 6.86448 0.109056 6.6537 0.109909C6.61399 0.110066 7.35688 0.110515 6.76955 0.110818C6.12661 0.111151 3.45207 0.110809 4.08926 0.111574C4.34412 0.111882 7.73726 0.112273 5.97927 0.112827C6.41489 0.113902 5.51515 0.114896 6.13716 0.115974C6.16472 0.116022 7.11172 0.116175 7.09883 0.116289C7.07786 0.116459 6.63525 0.116551 6.6061 0.116672C6.47277 0.117178 6.85146 0.117642 6.79256 0.11813C6.77116 0.118315 6.3135 0.11825 6.28792 0.118471C6.26277 0.118692 6.86542 0.118839 6.57436 0.119138C6.3525 0.119364 5.12071 0.119591 4.97713 0.119891C6.19216 0.119902 6.16713 0.120108 6.48787 0.120474C6.5501 0.120545 6.973 0.120469 7.02425 0.120502C7.24221 0.120638 6.89172 0.120763 7.12898 0.120892C7.18597 0.120923 7.60091 0.120925 7.67091 0.12095C8.28199 0.121168 7.34862 0.121527 7.18611 0.121588C6.56892 0.121824 7.1086 0.121934 6.86556 0.122116C6.62254 0.122296 6.31875 0.122026 6.17128 0.122237C5.86626 0.122675 5.93327 0.123237 5.9142 0.123681C5.90916 0.123859 6.46304 0.123738 6.47518 0.123763C6.61566 0.12413 6.02649 0.124501 7.12978 0.124704C4.27708 0.124958 7.40647 0.124925 6.8354 0.125449C6.78922 0.12549 5.4402 0.125543 5.24215 0.125384C5.04429 0.125226 5.46597 0.124986 5.15725 0.124766C5.0848 0.124714 3.82068 0.124415 3.74411 0.124375C3.14565 0.124056 5.16158 0.124011 5.2723 0.123994C6.4672 0.123802 5.10535 0.123438 5.01125 0.123342C4.58007 0.122903 4.86358 0.12253 4.55581 0.122162C4.3569 0.121922 3.03639 0.121898 3.07681 0.12171C3.21041 0.121083 5.05252 0.120864 3.45529 0.120273C3.11463 0.120146 1.67136 0.120272 2.80624 0.119818C2.87779 0.11979 3.916 0.119452 3.25931 0.119258C3.17651 0.119233 2.75588 0.119234 2.72055 0.119202C2.49199 0.118986 2.82708 0.118841 2.66659 0.118606C2.50611 0.11837 2.26685 0.118087 2.40952 0.117818C2.49482 0.117656 3.2785 0.117448 3.47036 0.117371C4.02307 0.117152 3.11686 0.116917 3.78616 0.116781C4.45882 0.116644 5.48037 0.116912 5.915 0.116553C4.82219 0.11654 3.70054 0.116509 2.60153 0.116488C2.64001 0.115702 2.99338 0.114928 2.9451 0.114139C2.93802 0.114041 2.35052 0.114141 2.32779 0.114036C2.23446 0.113594 2.65326 0.113207 2.48648 0.112749C2.35513 0.112393 1.7331 0.112004 1.57639 0.111633C2.82687 0.111406 2.40236 0.110855 2.51663 0.110454C2.55612 0.110314 2.8901 0.110324 2.99905 0.110224C3.40202 0.109848 2.29698 0.110024 2.12308 0.109921C1.38089 0.109478 3.88208 0.10944 3.82028 0.108919C3.81785 0.108891 2.48461 0.108553 2.40158 0.108507C1.86019 0.108211 2.86563 0.108458 2.96414 0.108273C3.14416 0.107935 3.46256 0.1077 3.07205 0.107304C2.95638 0.107188 2.12539 0.106911 2.76816 0.106687C2.85232 0.106657 3.29301 0.106673 3.31881 0.10665C3.74901 0.106219 2.36432 0.106208 1.89536 0.105962C1.4265 0.105716 2.38237 0.105337 2.65787 0.105259C3.37055 0.105057 2.96244 0.105414 3.03238 0.105425C3.86468 0.105554 3.72139 0.105277 3.79171 0.105065C5.14942 0.105035 5.06792 0.104739 3.85916 0.104846C3.72713 0.104858 3.85374 0.105023 3.79171 0.105065C2.45962 0.104879 2.28902 0.104554 3.53384 0.104195C4.11727 0.104027 4.79752 0.104186 4.54867 0.103675C4.43633 0.103443 3.50148 0.103533 3.24661 0.103328C2.66509 0.102861 3.53715 0.102253 3.39975 0.101772C3.34986 0.101597 2.83813 0.101767 2.78641 0.101647C2.64753 0.10133 3.0315 0.101051 2.83481 0.100732C2.81634 0.100703 2.28066 0.100774 2.27383 0.100675C2.21162 0.0999236 2.55473 0.0992697 2.56424 0.0984856C2.56859 0.0981067 2.27315 0.0974294 2.33255 0.097037C2.43234 0.0963568 3.21129 0.09552 3.02206 0.0949389C2.90093 0.09456 2.36515 0.0946431 2.00009 0.0944807C1.29247 0.0941673 2.55999 0.0936127 2.75626 0.093538C2.76275 0.0935357 2.88906 0.0938618 3.16409 0.0936878C3.73717 0.0935866 2.75874 0.0935417 2.75626 0.093538C2.88305 0.0934889 3.00467 0.0928375 2.90225 0.0927081C2.84628 0.0926378 2.33865 0.0926771 2.31906 0.0926405C1.86478 0.0917694 1.73576 0.0908967 1.97312 0.0900132C1.98337 0.0899977 2.55118 0.0900211 2.56821 0.0899845C2.82067 0.089473 2.12606 0.0891455 1.71366 0.0887237C1.30144 0.0883019 1.4395 0.0879674 2.41428 0.0877177C2.29154 0.0873994 2.72249 0.0869429 2.98398 0.0866801C3.24546 0.0864174 2.14017 0.0863807 2.11832 0.0863576C1.41895 0.0856366 2.0516 0.0852197 2.15006 0.0844717C2.19876 0.084116 2.03844 0.0834106 1.91757 0.0830255C1.8202 0.0827212 2.07923 0.0825378 1.91361 0.0822574C1.89149 0.0822195 1.39935 0.0822578 1.38041 0.0822462C0.791597 0.0819332 1.99469 0.0820836 2.20957 0.082019C2.99094 0.0817848 3.4071 0.08164 3.03952 0.0812393C2.95534 0.0811468 1.22305 0.0808775 1.12174 0.080709C0.993201 0.08049 1.61412 0.0805726 1.46372 0.0803432C1.45142 0.0803236 1.06835 0.0803277 1.08524 0.0801861C1.1586 0.0795289 1.3815 0.0788124 1.34311 0.0781294C1.33934 0.0780361 0.731739 0.0781558 0.716284 0.078021C0.644261 0.0773885 0.666747 0.0766952 0.951146 0.0760791C1.02306 0.0759274 1.44848 0.0760225 1.5748 0.0759896C2.3391 0.0757874 1.22859 0.0755008 1.20743 0.0754535C0.673773 0.0743254 1.67877 0.0734619 1.20029 0.0723121C1.1722 0.0722495 -0.01829 0.0717677 1.00272 0.0715527C1.07065 0.071538 2.11525 0.0713253 1.40103 0.0711373C1.35635 0.0711256 0.818577 0.0712581 0.873388 0.0710269C0.928079 0.0707956 0.568956 0.0704235 1.15982 0.0701056C1.34596 0.0700049 2.38798 0.0697671 1.55735 0.0694669C1.49936 0.0694473 -0.378822 0.0689839 0.917028 0.0688184C1.13034 0.0687916 2.50164 0.0688197 1.79856 0.0684614C1.66225 0.0683929 1.35638 0.0685172 1.16538 0.0683369C0.87101 0.0680605 1.23829 0.0676944 0.627417 0.0673547C0.51927 0.0672955 -0.411488 0.0670433 0.294959 0.066841C0.405601 0.0668094 0.863413 0.0668696 0.914647 0.0667627C1.16041 0.0662548 0.854178 0.0657229 1.17093 0.0652071C1.28224 0.0650244 2.02234 0.0651178 2.22067 0.0649274C2.41894 0.0647369 2.60966 0.0643532 2.27145 0.0641539C1.9331 0.0639546 0.753544 0.0641723 0.659155 0.0638738C0.249216 0.0625756 0.941174 0.0612896 1.04239 0.0599934C1.05751 0.0598011 0.63543 0.0599605 0.627417 0.0596772C0.596016 0.0586327 0.20027 0.0568292 1.09714 0.0559228C1.81549 0.0551966 2.36237 0.0561105 2.65469 0.0555556C2.79414 0.0552878 1.42279 0.0549981 1.37961 0.0549334C0.941056 0.0543019 1.54854 0.053863 1.36216 0.0532946C1.32348 0.0531772 0.767657 0.0532923 0.740881 0.0531924C0.644489 0.0528512 0.892583 0.0524926 0.847204 0.0521665C0.825567 0.0520203 0.401049 0.0520472 0.433814 0.0519126C0.507322 0.0515905 0.685769 0.0513058 1.08365 0.0509918C1.11991 0.0509632 1.64799 0.0511561 1.66764 0.0509178C1.69792 0.0505322 2.09043 0.0500535 1.68509 0.0496098C1.56316 0.0494781 0.59293 0.049473 1.26297 0.04919C1.40292 0.0491306 2.56795 0.0492064 1.56131 0.0488767C1.39403 0.0488213 0.0362664 0.0482675 0.911473 0.0479958C1.14182 0.0479241 2.09517 0.0477411 1.94534 0.0475828C1.92144 0.0475613 1.40029 0.0476473 1.34946 0.0475161C1.17938 0.0470538 1.23498 0.0465693 1.07175 0.0460943C1.02713 0.0459674 0.487853 0.0461563 0.438575 0.0459673C0.302267 0.0454475 0.439577 0.0447984 0.608374 0.0442901C0.67163 0.0441026 1.11835 0.0442322 1.16697 0.0442186C1.95769 0.0439992 0.890394 0.0438696 0.828161 0.0437968C0.455513 0.0433441 0.956866 0.0429994 0.824193 0.0425822C0.788933 0.042467 0.280034 0.0425487 0.234657 0.0425257C-0.208712 0.042288 0.705204 0.0424651 0.805944 0.0423146C1.09119 0.0418931 1.05029 0.0414232 0.985265 0.0409968C0.960631 0.0408403 0.370551 0.0410163 0.355262 0.0408757C0.253581 0.040044 0.310045 0.0391793 0.635351 0.0383676C0.697674 0.0382148 1.15205 0.0383109 1.25583 0.0382791C1.98191 0.0380595 0.991532 0.0377378 0.897191 0.0376637C0.466432 0.0373271 0.868248 0.0371963 0.793249 0.0368991C0.419836 0.0354468 0.685964 0.0336536 0.850377 0.0322827C1.06198 0.0304963 1.49424 0.0291101 1.38199 0.0274066C1.37543 0.0272983 0.770963 0.0274075 0.757543 0.0273142C0.611826 0.0261092 0.848026 0.0249229 0.673437 0.0237155C0.660182 0.0236164 0.0871456 0.0237592 0.046608 0.0236002C-0.0405582 0.023274 -0.00941159 0.0228608 0.173561 0.022531C0.261721 0.0223701 0.753437 0.0225859 0.832128 0.022424C1.01648 0.022047 1.05729 0.0216428 0.965428 0.0212556C0.925086 0.0210908 0.339016 0.0213394 0.332252 0.0211252C0.274109 0.019666 0.173172 0.018233 0.932103 0.0167584C0.984226 0.0166573 2.17535 0.0165686 1.94693 0.0163537C1.61636 0.0163375 1.22751 0.0163384 0.874181 0.0163313C0.683849 0.0142071 1.09677 0.0121046 1.16062 0.00997447C1.16317 0.00988466 0.532056 0.0100399 0.533789 0.00986599C0.54312 0.00885962 0.368281 0.00788237 0.99558 0.00685297C1.05693 0.00675083 2.16722 0.00680323 1.9993 0.00650224C1.96866 0.00644916 1.82058 0.00599583 1.57956 0.00587862C1.54321 0.0058627 1.02497 0.00594541 1.00986 0.00579933C0.931165 0.00495043 1.04948 0.00406083 1.36612 0.0032134C1.41822 0.00307664 1.9701 0.00322229 2.01199 0.00312487C2.30496 0.00243387 1.88543 0.00168226 2.38651 0.00102198C2.7239 0.000580012 3.67787 0.000743642 4.61691 0.000508785C4.74939 0.000475567 4.77038 0.000201886 5.31673 0.000187733C6.69058 0.000151398 8.19493 0.000283961 9.65931 0.000229567C9.97473 0.000218075 9.635 -0.000148454 10.3972 6.85547e-05C10.4482 8.3715e-05 10.7012 0.000349451 10.9598 0.000414902C11.1386 0.000460471 11.6942 0.000378354 11.923 0.000471329C12.1517 0.000564297 11.6859 0.000666456 11.9548 0.000820595C12.227 0.000974665 12.8591 0.000906919 12.9339 0.00121461ZM4.15274 0.0854971C4.68354 0.0852538 2.73942 0.0852179 3.20456 0.085481C3.22935 0.0854938 4.1267 0.0855096 4.15274 0.0854971ZM4.4598 0.114932C5.31729 0.114614 4.05644 0.114397 3.39419 0.114621C2.73266 0.114845 4.19986 0.115029 4.4598 0.114932ZM5.08584 0.11823C5.76193 0.117859 3.0051 0.1178 3.5624 0.118198C3.5939 0.118221 5.04658 0.118252 5.08584 0.11823ZM4.8843 0.00159793C4.91012 0.00159457 4.93528 0.00139784 4.90969 0.00139314C4.29224 0.00128838 4.24236 0.00168177 4.8843 0.00159793ZM5.76742 0.121503C6.14034 0.121387 5.70984 0.121053 5.24612 0.121197C4.87306 0.121313 5.30352 0.121648 5.76742 0.121503ZM6.22762 0.0728063C6.25659 0.0728025 6.28268 0.0726614 6.11892 0.0726643C5.59148 0.0726738 5.74034 0.0728701 6.22762 0.0728063ZM5.79915 0.127066C5.90292 0.126244 8.1802 0.125745 7.92323 0.12664C7.87674 0.126802 7.19703 0.126291 6.99172 0.126497C6.61767 0.126875 8.04753 0.127125 7.28133 0.127511C7.14109 0.12758 5.78817 0.127112 5.79598 0.127064C5.79704 0.127065 5.7981 0.127065 5.79915 0.127066ZM6.48787 0.085357C6.51358 0.0853521 6.53796 0.0851569 6.51247 0.0851522C5.89527 0.0850465 5.8458 0.0854398 6.48787 0.085357ZM7.4297 0.0645762C7.48448 0.0645654 7.53572 0.0641123 7.48524 0.0640975C6.47595 0.0638611 6.36938 0.0647772 7.4297 0.0645762ZM7.91054 0.0985065C8.53144 0.0987195 8.60455 0.0989744 7.82484 0.0991442C7.86623 0.0989325 7.87233 0.0987194 7.91054 0.0985065Z" fill="#171717" fill-opacity="0.75"/>
<path d="M136.146 236.837C139.298 236.692 143.508 236.774 146.652 236.913C147.647 236.955 147.156 237.199 147.844 237.239C149.165 237.318 150.404 237.188 151.766 237.283C152.192 237.316 151.665 237.7 152.113 237.726C154.677 237.865 156.994 237.743 159.581 237.795C164.623 237.898 169.691 237.958 174.725 237.996C182.154 238.053 189.724 238.058 197.323 238.072C201.555 238.079 206.635 238.362 210.993 238.16C211.497 238.136 211.192 237.808 211.288 237.779C212.793 237.343 212.299 238.019 213.291 238.096C217.219 238.4 221.569 238.379 225.356 238.205C226.954 238.13 225.342 237.491 226.959 237.841C227.071 237.865 226.669 238.222 227.109 238.254C228.104 238.326 230.013 238.24 230.781 238.259C232.268 238.296 232.515 238.29 233.927 238.277C235.868 238.261 238.145 238.409 240.222 238.303C240.664 238.28 240.074 237.926 240.779 237.856C241.482 237.786 243.345 237.794 243.976 237.871C244.606 237.948 244.341 238.235 244.454 238.299C245.377 238.837 247.525 238.05 247.802 238.027C252.859 237.644 257.207 238.023 261.954 237.961C265.564 237.914 269.424 237.721 272.845 237.696C276.945 237.668 280.408 237.818 284.375 237.732C284.796 237.723 284.297 237.306 284.811 237.294C290.233 237.173 295.656 237.146 301.075 237.357C301.617 237.379 300.924 237.761 301.466 237.805C304.775 238.065 310.079 238.726 312 237.075C314.277 237.105 316.961 237.131 319.014 237.428C320.31 237.619 319.067 238.044 320.639 237.847C320.992 237.803 320.528 237.454 321.056 237.415C323.37 237.25 325.822 237.327 328.066 237.108C328.515 237.063 328.386 236.746 328.512 236.687C328.646 236.626 328.791 236.585 328.942 236.559C330.057 236.38 331.482 236.949 331.818 236.992C334.844 237.359 337.036 237.158 339.822 237.119C340.481 237.11 339.696 236.696 340.327 236.672C343.56 236.554 346.905 236.529 350.088 236.659C350.814 236.688 350.155 237.065 350.501 237.098C351.999 237.239 352.312 236.544 353.739 236.666C354.034 236.691 353.874 237.006 353.928 237.039C354.79 237.561 355.546 236.784 355.752 236.764C358.538 236.482 360.331 237.243 363.05 237.089C363.367 237.071 362.651 236.686 363.534 236.657C364.776 236.619 366.011 236.591 367.282 236.592C367.921 236.594 368.565 236.6 369.24 236.636C369.567 236.654 369.93 236.677 370.345 236.742C370.552 236.778 370.782 236.814 371.128 236.941C371.299 237.007 371.502 237.098 371.735 237.269C371.958 237.429 372.172 237.674 372.28 237.84C373.015 239.028 372.696 239.94 372.597 240.484C372.447 241.083 372.264 241.55 372.069 242.022C371.673 242.959 371.248 243.789 370.799 244.628C369.907 246.282 368.967 247.837 368.003 249.37C367.509 250.151 367.573 249.43 367.513 249.463C366.54 250.029 366.906 250.93 366.776 251.215C366.258 252.337 365.575 253.286 365.005 254.228C364.474 255.104 364.056 255.96 364.029 256.885C358.579 265.469 353.737 274.349 347.749 282.488C347.674 282.592 347.474 282.198 347.325 282.406C345.527 284.909 346.334 284.718 345.873 286.82C345.752 287.357 344.199 288.215 344.069 288.304C343.604 288.608 343.404 287.868 343.277 287.987C342.241 288.977 343.931 289.773 342.94 291.362C342.906 291.411 342.748 291.019 342.635 291.136C342.283 291.499 342.141 291.982 341.789 292.323C340.972 293.115 340.005 292.963 339.559 294.66C339.506 294.871 340.564 295.166 339.632 296.555C339.255 297.117 337.691 299.628 337.19 300.288C337.164 300.322 337.14 300.353 337.117 300.38C336.684 300.894 336.705 300.292 336.662 300.333C335.08 301.978 335.375 301.169 334.213 301.743C333.055 302.31 334.536 302.925 334.434 303.401C334.336 303.874 333.116 305.032 332.774 305.303C332.441 305.565 332.546 305.028 332.284 305.282C330.551 306.965 332.336 306.587 332.099 307.369C331.511 309.237 329.702 309.726 328.573 310.986C328.266 311.328 328.706 311.2 328.474 311.533C327.532 312.861 326.63 313.382 325.61 314.963C325.449 315.221 324.87 316.82 323.77 317.101C323.616 317.137 323.717 316.661 323.149 317.074C322.302 317.7 320.77 318.772 319.86 319.44C319.192 319.936 320.259 319.852 319.276 320.265C318.838 320.441 319.444 319.769 318.639 320.112C318.258 320.272 317.622 320.59 316.972 320.903C316.249 321.258 315.48 321.565 315.062 321.715C314.263 321.995 314.814 322.192 314.757 322.238C314.406 322.52 312.828 323.09 312.685 323.106C305.418 324.449 298.94 323.361 292.038 323.279C291.498 323.266 291.837 323.669 291.754 323.671C290.016 323.726 291.251 322.898 290.336 322.454C290.281 322.426 290.217 322.399 290.143 322.375C290.282 323.164 289.537 322.98 288.227 322.979C287.602 322.979 287.92 323.303 287.861 323.33C286.895 323.724 286.291 323.086 286.136 322.953C285.557 322.464 284.835 322.937 284.449 322.608C284.056 322.281 285.05 321.919 283.806 321.827C283.433 322.077 284.306 322.878 283.343 322.92C279.744 323.09 273.13 321.871 270.286 321.498C267.437 321.132 266.509 321.075 264.866 320.784C261.885 320.252 262.925 320.918 261.029 320.939C259.134 320.957 260.203 319.746 259.97 319.429C259.742 319.113 259.416 319.369 259.109 319.172C258.804 318.976 259.531 318.87 258.775 318.716C258.018 318.563 255.855 318.798 255.545 319.059C254.888 319.612 255.747 320.397 253.745 319.897C253.63 319.868 254.055 319.571 253.613 319.477C250.097 318.738 246.414 318.201 242.911 317.437C242.43 317.331 242.922 317.011 242.643 316.945C239.734 316.253 240.69 317.061 238.962 317.532C239.473 316.629 238.672 315.907 236.442 315.544C235.102 315.324 235.267 315.78 234.349 315.933C234.074 315.979 233.172 315.535 232.968 315.703C232.294 316.251 233.069 317.123 230.812 316.446C230.713 316.416 231.094 316.119 230.749 316.038C228.518 315.512 228.134 316.138 225.678 315.781C223.753 315.502 220.439 314.457 218.286 313.958C218.336 313.756 218.299 313.586 218.202 313.448C217.778 312.862 216.27 312.843 215.472 313.3C214.072 312.98 212.546 312.7 211.219 312.305C210.758 312.168 211.134 311.926 211.082 311.88C210.292 311.159 209.536 311.741 209.226 311.701C205.888 311.239 203.36 310.07 200.124 309.823C200.009 309.814 199.646 310.506 198.954 309.76C198.911 309.71 200.022 309.635 198.563 309.238C197.118 308.845 194.469 307.732 192.363 307.518C191.862 307.469 190.452 307.719 189.595 306.977C189.481 306.877 189.684 306.709 189.526 306.539C189.014 305.993 188.483 306.639 187.932 305.803C187.39 304.97 186.042 304.074 183.901 303.898C183.837 303.892 183.174 304.327 182.547 304.126C181.544 303.804 180.141 303.235 179.098 302.909C178.589 302.749 178.8 303.212 178.71 303.191C175.268 302.316 172.955 301.193 169.415 299.809C168.827 299.578 167.082 299.41 165.913 298.751C165.791 298.683 165.675 298.609 165.569 298.53C164.331 297.593 166.384 296.416 163.113 295.604C161.828 295.272 159.256 296.75 157.555 294.553C153.141 292.685 149.772 289.754 146.143 286.702C145.979 286.565 145.031 286.53 144.688 286.141C144.184 285.567 144.145 285.051 143.813 284.626C142.438 282.84 141.034 281.298 139.875 279.45C139.437 278.748 139.859 278.82 139.346 277.981C139.24 277.805 139.124 277.651 139.003 277.506L139.014 277.527C138.683 276.884 138.263 276.384 138.064 275.324C137.88 274.324 138.364 273.1 138.046 271.805C137.231 272.019 136.957 271.14 136.263 269.656C136.128 269.366 135.949 269.778 135.871 269.645C135.545 269.101 135.62 268.513 135.295 267.999C135.217 267.876 134.94 267.951 134.861 267.855C134.178 267.048 134.362 265.318 134.398 265.02C134.533 263.899 134.043 263.509 134.004 262.691C133.965 261.862 134.47 262.983 134.334 262.043C134.056 260.11 133.451 257.684 133.084 255.75C132.935 254.977 132.663 255.577 132.633 255.469C132.221 253.877 132.358 252.189 131.472 251.404C133.272 250.01 131.12 250.455 131.259 248.07C131.273 247.881 132.178 247.562 132.386 248.245C132.594 248.92 132.432 250.004 132.783 250.935C132.863 251.159 133.93 252.319 134.013 252.479C134.653 253.782 133.323 254.216 133.26 254.309C132.596 255.287 133.847 256.709 133.999 257.094C134.695 258.926 134.891 260.571 135.5 262.088C135.9 263.081 136.811 262.947 136.999 263.749C137.639 266.413 136.7 267.719 138.532 269.875C138.927 270.337 139.705 269.508 139.574 271.642C139.566 271.782 139.351 273.415 140.061 274.077C140.15 274.16 140.425 274.062 140.494 274.188C140.956 275.041 140.942 275.7 141.402 276.65C141.404 276.655 141.406 276.66 141.409 276.664L141.16 276.153C141.801 276.967 142.596 277.905 143.156 278.904C143.493 279.51 143.562 280.544 143.652 280.891C143.898 281.881 145.009 282.281 145.014 283.015C145.032 283.765 143.731 283.319 144.521 284.719C145.132 284.27 145.804 283.86 146.435 283.425C148.55 285.89 150.835 288.153 153.651 289.935C154.002 290.156 153.868 289.587 154.242 289.807C155.83 290.732 157.123 291.774 158.932 292.536C160.33 293.12 162.022 293.4 163.531 293.896C163.992 294.819 165.505 295.376 166.943 295.881C167.332 296.018 167.735 296.161 168.084 296.304C168.654 296.535 168.547 296.742 168.936 296.959C170.414 297.775 169.933 296.794 170.399 296.83C172.413 296.985 172.008 298.679 174.217 299.377C174.333 299.415 176.049 299.012 176.255 299.019C177.612 299.069 176.357 299.391 177.12 299.712C178.493 300.289 179.428 300.82 181.18 301.085C181.689 301.16 183.034 300.974 183.849 301.686C183.957 301.78 183.8 302.051 183.896 302.098C185.63 302.933 185.961 302.028 187.088 302.022C188.224 302.018 189.652 303.115 189.925 303.39C190.65 304.108 189.21 303.406 189.153 303.44C188.447 303.837 189.644 304.077 190.542 304.38C190.422 305.323 191.694 305.619 191.463 304.686C191.433 304.583 190.717 304.474 190.542 304.38C191.582 303.714 192.988 303.983 194.308 305.231C194.918 305.813 194.113 306.089 196.352 306.502C197.365 306.687 197.145 305.961 198.07 306.018C200.17 306.146 202.63 307.379 204.731 307.78C205.493 307.925 204.84 307.406 205.364 307.494C206.751 307.723 207.901 308.261 209.303 308.437C209.431 308.453 209.207 308.022 209.637 308.114C212.812 308.782 215.537 309.59 218.834 310.263C218.912 310.279 218.99 310.295 219.068 310.31C220.708 310.641 223.695 311 225.397 311.35C228.346 311.961 231.913 313.121 234.479 313.409C236.154 313.598 235.847 313.171 236.598 313.037C238.047 312.775 240.338 314.02 240.647 314.204C240.656 314.21 239.212 314.075 239.946 314.381C240.33 314.842 240.63 314.203 240.647 314.204C240.848 314.325 243.695 314.841 244.273 314.853C244.587 314.86 244.466 314.487 244.629 314.497C248.496 314.75 252.341 315.192 256.205 315.86C256.273 315.876 256.119 316.252 256.278 316.285C258.506 316.749 260.014 316.452 261.898 316.393C263.795 316.336 265.253 316.601 266.273 317.397C267.688 317.474 269.67 317.992 270.804 318.295C271.949 318.599 272.189 317.853 272.293 317.849C275.52 317.696 277.313 318.311 280.606 318.673C282.171 318.847 285.286 318.988 286.986 319.022C288.341 319.05 289.134 319.282 290.364 319.241C290.529 319.236 290.384 318.886 290.435 318.876C290.475 318.866 290.513 318.858 290.549 318.85C291.808 318.595 291.137 319.347 291.407 319.507C292.391 320.103 293.026 320.428 294.809 320.251C295.22 320.211 296.436 319.059 297.187 319.011C298.134 318.95 297.775 319.371 298.774 319.291C298.863 319.284 298.834 319.019 299.463 319.042C302.309 319.142 305.418 319.276 308.232 318.999C308.611 318.961 308.086 318.588 308.631 318.525C311.031 318.241 313.28 317.804 315.05 317.063C315.221 316.991 315.388 316.921 315.553 316.852C316.116 316.614 315.915 317.051 316.073 317.067C317.059 317.15 317.632 315.899 317.763 315.792C321.07 313.205 323.856 310.935 326.56 306.798C326.715 306.564 327.246 304.424 328.351 304.061C328.427 304.036 329.545 303.691 329.6 302.725C329.601 302.668 328.974 302.933 329.564 302.124C330.163 301.302 330.837 299.828 331.942 298.862C332.159 298.675 332.709 298.414 333.148 297.862C333.392 297.559 333.6 297.161 333.688 296.63C333.698 296.54 333.695 294.11 334.85 293.958C335.041 293.931 335.77 294.557 336.212 292.939C336.295 292.63 335.823 292.983 336.133 292.24C336.617 291.086 337.692 289.849 338.136 288.339C338.212 288.076 338.259 286.784 339.149 286.28C339.288 286.202 339.416 286.596 339.697 286.212C341.036 284.384 342.104 282.262 343.497 280.426C343.99 279.775 344.207 280.398 344.77 279.748C345.332 279.101 346.342 277.716 346.607 276.838C346.873 275.96 345.67 276.357 346.31 275.191C349.092 270.127 352.484 265.49 355.511 260.598C355.962 259.868 355.349 260.321 355.988 259.247C357.216 257.179 358.847 254.293 360.452 251.57C361.956 249.02 363.429 246.608 364.594 245.087C366.513 242.566 364.988 246.22 366.297 244.193C366.929 243.207 366.614 241.686 366.69 241.448C366.937 240.713 367.176 240.088 367.338 239.628C367.417 239.411 367.467 239.222 367.472 239.263C367.477 239.289 367.462 239.384 367.497 239.655C367.524 239.91 367.685 240.438 367.952 240.795C368.093 241.038 368.671 241.57 368.999 241.706C369.344 241.875 369.471 241.882 369.522 241.894C369.621 241.905 369.487 241.872 369.338 241.857C369.025 241.822 368.58 241.81 368.119 241.828C367.624 241.846 368.094 242.238 367.685 242.252C366.244 242.305 364.661 242.154 363.219 242.205C362.585 242.23 362.664 242.522 362.098 242.509C360.634 242.481 359.435 242.379 357.987 242.13C357.86 242.108 358.712 241.726 357.662 241.732C355.912 241.743 353.839 241.511 351.839 241.83C351.263 241.925 351.263 242.597 349.963 242.158C349.7 242.066 350.035 241.253 348.582 241.977C348.313 242.098 345.899 243.083 344.655 242.499C344.341 242.345 343.526 241.7 342.806 241.817C342.708 241.835 343.108 242.189 342.509 242.235C340.476 242.389 338.328 242.388 336.171 242.538C335.608 242.578 336.443 242.937 335.621 242.986C333.625 243.102 331.196 243.08 329.046 243.02C328.741 243.011 328.441 243.001 328.151 242.991C327.324 242.96 327.89 242.642 327.829 242.609C326.852 242.077 326.275 242.825 325.947 242.873C323.931 243.163 322.391 242.839 320.531 242.959C320.025 242.991 320.389 243.338 320.289 243.371C319.244 243.694 320.017 243.049 319.349 242.989C317.447 242.82 315.387 242.879 313.466 242.952C312.76 242.98 313.561 243.376 312.926 243.396C309.253 243.52 305.364 243.536 301.757 243.361C301.078 243.327 301.5 243.007 301.358 242.937C300.376 242.448 298.939 243.153 298.605 243.223C297.124 243.542 296.538 243.272 295.21 243.342C288.742 243.689 280.746 243.61 274.638 243.575C266.674 243.532 260.496 243.311 252.906 243.484C252.423 243.495 252.915 243.907 252.499 243.922C247.129 244.09 241.846 243.991 236.466 244.178C236.026 244.193 236.665 244.582 235.959 244.618C234.505 244.696 232.657 244.697 231.192 244.588C230.477 244.536 231.431 244.184 230.712 244.138C229.029 244.031 227.219 244.025 225.505 244.109C224.774 244.146 225.883 244.538 224.931 244.554C218.432 244.673 212.042 244.819 205.468 244.371C205.025 244.341 204.614 243.521 203.651 243.69C203.581 243.92 203.588 244.189 203.559 244.434C194.093 244.677 184.749 244.5 175.24 244.565C174.855 244.567 175.51 244.985 174.805 245.004C174.795 245.004 174.784 245.004 174.772 245.004C170.274 245.049 165.955 245.219 161.334 244.837C160.873 244.8 161.087 244.028 159.759 244.16C159.553 244.183 157.481 244.309 156.987 244.481C156.918 244.507 157.281 244.862 156.647 244.879C152.855 244.976 148.914 244.937 145.112 244.758C144.509 244.728 145.145 244.339 144.718 244.315C141.631 244.144 138.287 244.468 135.346 244.146C133.378 243.927 134.096 243.261 133.045 242.618C132.907 242.527 131.674 242.518 131.612 242.139C131.449 241.188 132.034 240.145 131.793 239.132C131.743 238.915 130.119 239.15 131.08 238.622C131.149 238.587 132.316 238.41 132.605 238.229C132.809 238.104 132.442 237.721 132.853 237.561C133.274 237.4 133.708 237.72 134.396 237.529C135.096 237.335 134.775 236.9 136.146 236.837ZM275.95 319.633C276.991 320.103 277.276 318.778 276.085 318.987C276.027 318.999 275.896 319.61 275.95 319.633ZM150.3 288.84C151.027 290.156 152.313 289.969 151.802 289.046C151.313 288.128 150.09 288.444 150.3 288.84ZM140.622 278.432C141.13 280.066 142.854 279.208 141.584 277.977C141.511 277.905 140.593 278.337 140.622 278.432ZM137.9 242.394C137.87 242.376 137.021 242.367 136.988 242.385C136.526 242.816 138.272 242.835 137.9 242.394ZM135.447 265.125C135.333 265.687 136.035 267.04 136.164 266.331C136.267 265.762 135.584 264.421 135.447 265.125ZM328.028 310.618C328.053 310.618 328.458 310.126 328.357 310.071C328.048 309.876 327.586 310.635 328.028 310.618ZM132.149 241.05C131.871 241.869 131.662 242.66 131.446 243.302L131.447 243.289C131.012 245.097 130.256 245.728 130.254 243.267C130.254 243.254 130.256 243.214 130.257 243.2C130.273 243.027 130.296 242.842 130.328 242.639C130.401 242.207 130.479 242.815 130.606 243.23C130.606 243.239 130.604 243.265 130.604 243.274C130.722 243.574 130.845 243.784 130.911 243.382C130.917 243.347 130.922 243.313 130.927 243.28C130.927 243.275 130.928 243.262 130.928 243.258C131.268 241.714 130.647 240.14 132.072 238.83C132.202 238.718 132.161 239.248 132.148 239.813C132.129 240.381 132.18 240.961 132.149 241.056C132.149 241.054 132.149 241.052 132.149 241.05ZM276.415 321.302C276.437 321.323 277.289 321.421 277.318 321.405C277.824 321.024 276.092 320.825 276.415 321.302ZM348.66 280.313C348.719 280.291 349.807 278.592 349.813 278.517C349.77 277.254 347.566 280.69 348.66 280.313ZM218.258 313.923C218.206 313.935 218.154 313.947 218.101 313.957C217.117 314.139 216.083 313.949 215.477 313.301C216.352 313.509 217.225 313.691 218.114 313.891C218.162 313.901 218.21 313.912 218.258 313.923Z" fill="#121212" fill-opacity="0.75"/>
<path d="M197.151 286.97V263.698H205.288C206.909 263.698 208.246 263.978 209.299 264.539C210.352 265.092 211.136 265.838 211.651 266.777C212.167 267.709 212.424 268.743 212.424 269.879C212.424 270.879 212.246 271.705 211.89 272.357C211.542 273.008 211.08 273.523 210.504 273.902C209.936 274.281 209.318 274.561 208.651 274.743V274.97C209.364 275.016 210.08 275.266 210.799 275.72C211.519 276.175 212.121 276.826 212.606 277.675C213.091 278.523 213.333 279.561 213.333 280.789C213.333 281.955 213.068 283.004 212.538 283.936C212.008 284.868 211.17 285.607 210.026 286.152C208.883 286.698 207.394 286.97 205.561 286.97H197.151ZM199.97 284.47H205.561C207.401 284.47 208.708 284.114 209.481 283.402C210.261 282.683 210.651 281.811 210.651 280.789C210.651 280.001 210.451 279.273 210.049 278.607C209.648 277.933 209.076 277.395 208.333 276.993C207.591 276.584 206.712 276.379 205.697 276.379H199.97V284.47ZM199.97 273.925H205.197C206.045 273.925 206.811 273.758 207.492 273.425C208.182 273.092 208.727 272.622 209.129 272.016C209.538 271.41 209.742 270.698 209.742 269.879C209.742 268.857 209.386 267.989 208.674 267.277C207.962 266.558 206.833 266.198 205.288 266.198H199.97V273.925ZM228.6 279.834V269.516H231.282V286.97H228.6V284.016H228.419C228.009 284.902 227.373 285.656 226.509 286.277C225.646 286.891 224.555 287.198 223.237 287.198C222.146 287.198 221.176 286.959 220.328 286.482C219.479 285.997 218.812 285.27 218.328 284.3C217.843 283.323 217.6 282.092 217.6 280.607V269.516H220.282V280.425C220.282 281.698 220.638 282.713 221.35 283.47C222.07 284.228 222.987 284.607 224.1 284.607C224.767 284.607 225.445 284.436 226.134 284.095C226.831 283.754 227.415 283.232 227.884 282.527C228.362 281.823 228.6 280.925 228.6 279.834ZM238.876 276.47V286.97H236.194V269.516H238.785V272.243H239.012C239.421 271.357 240.043 270.645 240.876 270.107C241.709 269.561 242.785 269.289 244.103 269.289C245.285 269.289 246.319 269.531 247.205 270.016C248.092 270.493 248.781 271.22 249.274 272.198C249.766 273.167 250.012 274.395 250.012 275.879V286.97H247.33V276.061C247.33 274.69 246.974 273.622 246.262 272.857C245.55 272.084 244.573 271.698 243.33 271.698C242.474 271.698 241.709 271.883 241.035 272.254C240.368 272.626 239.842 273.167 239.455 273.879C239.069 274.592 238.876 275.455 238.876 276.47ZM263.322 282.198V279.879L273.549 263.698H275.231V267.289H274.095L266.367 279.516V279.698H280.14V282.198H263.322ZM274.276 286.97V281.493V280.414V263.698H276.958V286.97H274.276ZM287.35 283.789L287.169 285.016C287.04 285.879 286.843 286.804 286.578 287.789C286.32 288.773 286.051 289.701 285.771 290.573C285.491 291.444 285.259 292.137 285.078 292.652H283.032C283.131 292.167 283.259 291.527 283.419 290.732C283.578 289.936 283.737 289.046 283.896 288.061C284.062 287.084 284.199 286.084 284.305 285.061L284.441 283.789H287.35ZM299.078 287.289C297.744 287.289 296.544 287.023 295.475 286.493C294.407 285.963 293.551 285.236 292.907 284.311C292.263 283.387 291.911 282.334 291.85 281.152H294.578C294.684 282.205 295.161 283.076 296.009 283.766C296.866 284.448 297.888 284.789 299.078 284.789C300.032 284.789 300.881 284.565 301.623 284.118C302.373 283.671 302.96 283.058 303.384 282.277C303.816 281.489 304.032 280.599 304.032 279.607C304.032 278.592 303.809 277.686 303.362 276.891C302.922 276.088 302.316 275.455 301.544 274.993C300.771 274.531 299.888 274.296 298.896 274.289C298.184 274.281 297.453 274.391 296.703 274.618C295.953 274.838 295.335 275.122 294.85 275.47L292.214 275.152L293.623 263.698H305.714V266.198H295.987L295.169 273.061H295.305C295.782 272.683 296.381 272.368 297.1 272.118C297.82 271.868 298.57 271.743 299.35 271.743C300.775 271.743 302.044 272.084 303.157 272.766C304.278 273.44 305.157 274.364 305.794 275.539C306.437 276.713 306.759 278.054 306.759 279.561C306.759 281.046 306.426 282.372 305.759 283.539C305.1 284.698 304.191 285.614 303.032 286.289C301.873 286.955 300.555 287.289 299.078 287.289Z" fill="black"/>
</svg>
