<svg width="323" height="300" viewBox="0 0 323 300" fill="none" xmlns="http://www.w3.org/2000/svg">
<path d="M12.9339 0.00121461C13.1032 0.00192919 12.9222 0.00286588 12.6736 0.00357775C12.5966 0.00380085 12.252 0.00368788 12.1833 0.00384189C12.0493 0.0041431 12.2183 0.00442372 12.0587 0.00472138C12.0041 0.00482002 11.4584 0.00469723 11.4136 0.00480067C11.1724 0.00536749 11.3115 0.00590372 11.1954 0.00647792C10.623 0.00930623 10.4182 0.0120864 10.1695 0.0149493C10.088 0.0158933 9.59266 0.0170408 9.80927 0.0180158C9.83505 0.0181297 10.3141 0.0180618 10.3536 0.0180835C10.958 0.0184231 9.99093 0.0183102 9.86243 0.018532C9.3551 0.0194122 9.31098 0.020391 9.49586 0.021238C9.57592 0.0215984 10.5274 0.0212371 9.99335 0.0216C9.95727 0.0216251 9.44855 0.0215337 9.3943 0.0216325C9.27226 0.0218567 9.36319 0.0222819 9.32288 0.0224556C9.24263 0.0227904 9.24775 0.0228458 9.24195 0.0231624C9.2296 0.0235953 8.97672 0.0241101 9.09199 0.0245745C9.11811 0.0246737 9.6396 0.0245424 9.72834 0.0247005C9.81694 0.0248588 9.77272 0.0252774 9.64979 0.0254185C9.52679 0.0255597 9.11691 0.0254996 9.02296 0.0255246C8.22998 0.0257301 9.32826 0.0262143 9.35542 0.0262766C9.81821 0.0274126 9.19256 0.0283868 9.19435 0.0294531C9.19703 0.0302626 9.40358 0.0311282 9.37525 0.0318984C9.33949 0.0328161 9.0569 0.0335938 9.10548 0.0344853C9.11 0.0345794 9.72316 0.0344692 9.72993 0.0345841C9.80128 0.0358049 9.73444 0.0370173 9.3205 0.0382329C9.27845 0.0383548 8.74011 0.0381977 8.6659 0.0383195C8.22348 0.0390652 7.16068 0.0402451 9.50459 0.040688C9.41306 0.0411931 9.3185 0.0418063 8.84602 0.0422582C8.54192 0.0425496 7.95545 0.0422666 8.2057 0.0426245C8.26146 0.0427052 8.77506 0.0426002 8.81983 0.0427213C9.00786 0.043231 8.8409 0.0437878 9.10627 0.044292C9.16146 0.0443946 9.62166 0.0443666 9.70454 0.0443956C10.3757 0.0446398 9.26623 0.0450464 9.18562 0.045135C8.58445 0.0458099 8.82102 0.0463027 8.80635 0.0469314C8.80268 0.0470773 9.42084 0.0469049 9.43952 0.0470453C9.52812 0.0477734 9.47499 0.0485276 9.20069 0.0492406C9.13819 0.0493992 8.61163 0.0492533 8.55482 0.0493291C8.31074 0.0496633 9.30529 0.0497373 9.0904 0.0500578C9.04638 0.0501254 8.5956 0.0500873 8.54609 0.0500996C7.76894 0.0502925 8.87011 0.0504601 8.89442 0.0505097C9.2266 0.0511373 8.07704 0.0515384 8.23982 0.0521446C8.26045 0.0522172 8.83082 0.0520536 8.85395 0.0522575C9.01141 0.0536157 8.85472 0.0550522 8.39851 0.0563966C8.32835 0.0566057 7.89988 0.0564565 7.84706 0.0564696C7.02177 0.056684 8.12756 0.0568227 8.1692 0.0568909C8.46897 0.0574286 7.54164 0.0579309 8.85871 0.0582962C8.40164 0.0605734 9.14125 0.0628402 7.96132 0.0650986C7.94765 0.0651273 7.40305 0.0650759 7.37813 0.0651331C7.07234 0.0658229 7.91875 0.0656905 8.95393 0.0661469C9.21387 0.0662619 7.96406 0.0666116 7.87245 0.0666426C7.53486 0.0667553 6.72464 0.0666384 6.65926 0.0666761C6.14587 0.0669886 8.82532 0.0669376 8.82618 0.0673591C8.82171 0.0673723 8.32853 0.0673169 8.27949 0.0673523C8.12554 0.0674622 8.32151 0.0675712 8.15175 0.0676787C7.75891 0.0679248 6.45693 0.0680125 7.21468 0.0683884C7.31302 0.068436 8.83292 0.0683633 8.76112 0.0687396C8.73121 0.0688897 8.75726 0.0695537 8.65876 0.0697398C8.56039 0.0699256 8.0706 0.069798 8.04939 0.0698113C7.40173 0.0703121 7.13331 0.0701222 6.17446 0.0703731C5.21922 0.070624 7.49755 0.0705544 7.75184 0.0706567C8.00542 0.0707592 7.47106 0.0711264 7.28529 0.0712166C7.09945 0.0713068 6.78823 0.0711943 6.68306 0.0712745C5.99596 0.0718062 7.81394 0.0715079 8.17555 0.0716831C9.03177 0.0720962 7.34215 0.0724179 7.17659 0.0727961C7.13188 0.0728984 7.5167 0.0728149 7.55269 0.072906C7.69012 0.0732669 7.16292 0.0734839 7.64632 0.0738945C7.72509 0.0739616 8.74093 0.0742935 7.99544 0.0745084C7.88794 0.0745388 7.46689 0.0744523 7.37257 0.0746061C7.23103 0.0748359 7.139 0.0752498 7.27974 0.0754968C7.38387 0.0756791 8.07766 0.0754702 7.86213 0.0756996C7.7659 0.0758017 7.36003 0.0756126 7.21309 0.0758042C7.06619 0.0759948 7.08402 0.0764822 7.09804 0.0766677C7.11236 0.0768528 7.63863 0.0767515 7.67409 0.0767664C7.87718 0.076857 8.13095 0.0772122 8.13032 0.0772436C8.19457 0.0788272 7.30748 0.0802875 7.60109 0.0818293C7.62337 0.0819503 8.17833 0.0818697 8.18745 0.0818882C8.41997 0.0823024 6.94446 0.0819758 6.45058 0.0822652C7.57676 0.0822233 7.37284 0.0823942 7.49635 0.0826859C7.55678 0.0828265 7.99285 0.08275 8.03749 0.0827628C8.69982 0.0829713 7.84433 0.0831165 7.66933 0.0831539C7.02556 0.083292 7.78621 0.0834423 7.35591 0.0835362C6.92883 0.0836301 6.29568 0.083414 6.30379 0.0836939C6.70692 0.0837723 7.76042 0.0835646 7.93117 0.083777C8.577 0.0845786 7.75043 0.086075 7.66456 0.0867195C7.57878 0.0873628 7.65315 0.0875705 7.50746 0.0879453C7.24403 0.0886224 8.02566 0.0883743 8.38343 0.0887947C8.74117 0.0892163 6.81799 0.0890113 6.40456 0.089072C5.99131 0.0891315 6.41671 0.0891964 6.18953 0.0892704C5.96241 0.0893442 5.68131 0.0891845 5.59603 0.089358C5.51083 0.0895316 6.24601 0.0900062 6.6783 0.0900677C7.59413 0.0901978 8.55534 0.0899839 8.2176 0.0904432C8.19756 0.0904697 7.69187 0.0903839 7.64076 0.0904851C7.25146 0.0912885 7.22733 0.0921231 6.88301 0.0929256C6.83488 0.0930359 6.27231 0.0929372 6.23793 0.0930014C5.87811 0.0936703 6.82666 0.0934312 7.88038 0.0937977C6.4781 0.0937155 5.62018 0.0939181 5.6119 0.0944257C5.60643 0.0947309 6.21888 0.0946783 6.65053 0.0948757C6.78065 0.0949349 6.36012 0.0951508 6.64815 0.0951899C7.58966 0.095319 8.64363 0.0951156 8.22395 0.0956389C8.20401 0.0956619 7.68864 0.0955888 7.65742 0.0956681C7.45313 0.0961809 8.43794 0.0962423 8.5572 0.0967967C8.65078 0.0972312 8.05026 0.098004 7.95259 0.0984987C6.37602 0.0984883 6.73703 0.0989556 7.82405 0.0991452C7.77955 0.0994663 7.841 0.0998131 7.69075 0.100123C7.63952 0.10023 7.18306 0.10016 7.13374 0.100174C6.36005 0.10038 7.4176 0.10052 7.45906 0.100589C7.86209 0.10134 7.06055 0.101952 7.84389 0.102669C7.8721 0.102694 8.96723 0.102736 8.16761 0.102927C8.1125 0.10294 7.61423 0.102703 7.5757 0.10304C7.53708 0.103377 6.95001 0.104013 7.45747 0.104481C7.57964 0.104595 8.46867 0.104881 7.77406 0.105111C7.67974 0.105142 7.36565 0.105109 7.19087 0.105153C6.63396 0.105296 7.74087 0.105374 6.80049 0.105542C5.86016 0.10571 5.15592 0.10606 5.80471 0.106532C5.82357 0.106547 6.7009 0.106659 6.68703 0.106807C6.66413 0.107044 6.48136 0.107381 6.48708 0.107628C6.49013 0.107747 7.03491 0.107671 7.04488 0.107692C7.35015 0.108488 6.86448 0.109056 6.6537 0.109909C6.61399 0.110066 7.35688 0.110515 6.76955 0.110818C6.12661 0.111151 3.45207 0.110809 4.08926 0.111574C4.34412 0.111882 7.73726 0.112273 5.97927 0.112827C6.41489 0.113902 5.51515 0.114896 6.13716 0.115974C6.16472 0.116022 7.11172 0.116175 7.09883 0.116289C7.07786 0.116459 6.63525 0.116551 6.6061 0.116672C6.47277 0.117178 6.85146 0.117642 6.79256 0.11813C6.77116 0.118315 6.3135 0.11825 6.28792 0.118471C6.26277 0.118692 6.86542 0.118839 6.57436 0.119138C6.3525 0.119364 5.12071 0.119591 4.97713 0.119891C6.19216 0.119902 6.16713 0.120108 6.48787 0.120474C6.5501 0.120545 6.973 0.120469 7.02425 0.120502C7.24221 0.120638 6.89172 0.120763 7.12898 0.120892C7.18597 0.120923 7.60091 0.120925 7.67091 0.12095C8.28199 0.121168 7.34862 0.121527 7.18611 0.121588C6.56892 0.121824 7.1086 0.121934 6.86556 0.122116C6.62254 0.122296 6.31875 0.122026 6.17128 0.122237C5.86626 0.122675 5.93327 0.123237 5.9142 0.123681C5.90916 0.123859 6.46304 0.123738 6.47518 0.123763C6.61566 0.12413 6.02649 0.124501 7.12978 0.124704C4.27708 0.124958 7.40647 0.124925 6.8354 0.125449C6.78922 0.12549 5.4402 0.125543 5.24215 0.125384C5.04429 0.125226 5.46597 0.124986 5.15725 0.124766C5.0848 0.124714 3.82068 0.124415 3.74411 0.124375C3.14565 0.124056 5.16158 0.124011 5.2723 0.123994C6.4672 0.123802 5.10535 0.123438 5.01125 0.123342C4.58007 0.122903 4.86358 0.12253 4.55581 0.122162C4.3569 0.121922 3.03639 0.121898 3.07681 0.12171C3.21041 0.121083 5.05252 0.120864 3.45529 0.120273C3.11463 0.120146 1.67136 0.120272 2.80624 0.119818C2.87779 0.11979 3.916 0.119452 3.25931 0.119258C3.17651 0.119233 2.75588 0.119234 2.72055 0.119202C2.49199 0.118986 2.82708 0.118841 2.66659 0.118606C2.50611 0.11837 2.26685 0.118087 2.40952 0.117818C2.49482 0.117656 3.2785 0.117448 3.47036 0.117371C4.02307 0.117152 3.11686 0.116917 3.78616 0.116781C4.45882 0.116644 5.48037 0.116912 5.915 0.116553C4.82219 0.11654 3.70054 0.116509 2.60153 0.116488C2.64001 0.115702 2.99338 0.114928 2.9451 0.114139C2.93802 0.114041 2.35052 0.114141 2.32779 0.114036C2.23446 0.113594 2.65326 0.113207 2.48648 0.112749C2.35513 0.112393 1.7331 0.112004 1.57639 0.111633C2.82687 0.111406 2.40236 0.110855 2.51663 0.110454C2.55612 0.110314 2.8901 0.110324 2.99905 0.110224C3.40202 0.109848 2.29698 0.110024 2.12308 0.109921C1.38089 0.109478 3.88208 0.10944 3.82028 0.108919C3.81785 0.108891 2.48461 0.108553 2.40158 0.108507C1.86019 0.108211 2.86563 0.108458 2.96414 0.108273C3.14416 0.107935 3.46256 0.1077 3.07205 0.107304C2.95638 0.107188 2.12539 0.106911 2.76816 0.106687C2.85232 0.106657 3.29301 0.106673 3.31881 0.10665C3.74901 0.106219 2.36432 0.106208 1.89536 0.105962C1.4265 0.105716 2.38237 0.105337 2.65787 0.105259C3.37055 0.105057 2.96244 0.105414 3.03238 0.105425C3.86468 0.105554 3.72139 0.105277 3.79171 0.105065C5.14942 0.105035 5.06792 0.104739 3.85916 0.104846C3.72713 0.104858 3.85374 0.105023 3.79171 0.105065C2.45962 0.104879 2.28902 0.104554 3.53384 0.104195C4.11727 0.104027 4.79752 0.104186 4.54867 0.103675C4.43633 0.103443 3.50148 0.103533 3.24661 0.103328C2.66509 0.102861 3.53715 0.102253 3.39975 0.101772C3.34986 0.101597 2.83813 0.101767 2.78641 0.101647C2.64753 0.10133 3.0315 0.101051 2.83481 0.100732C2.81634 0.100703 2.28066 0.100774 2.27383 0.100675C2.21162 0.0999236 2.55473 0.0992697 2.56424 0.0984856C2.56859 0.0981067 2.27315 0.0974294 2.33255 0.097037C2.43234 0.0963568 3.21129 0.09552 3.02206 0.0949389C2.90093 0.09456 2.36515 0.0946431 2.00009 0.0944807C1.29247 0.0941673 2.55999 0.0936127 2.75626 0.093538C2.76275 0.0935357 2.88906 0.0938618 3.16409 0.0936878C3.73717 0.0935866 2.75874 0.0935417 2.75626 0.093538C2.88305 0.0934889 3.00467 0.0928375 2.90225 0.0927081C2.84628 0.0926378 2.33865 0.0926771 2.31906 0.0926405C1.86478 0.0917694 1.73576 0.0908967 1.97312 0.0900132C1.98337 0.0899977 2.55118 0.0900211 2.56821 0.0899845C2.82067 0.089473 2.12606 0.0891455 1.71366 0.0887237C1.30144 0.0883019 1.4395 0.0879674 2.41428 0.0877177C2.29154 0.0873994 2.72249 0.0869429 2.98398 0.0866801C3.24546 0.0864174 2.14017 0.0863807 2.11832 0.0863576C1.41895 0.0856366 2.0516 0.0852197 2.15006 0.0844717C2.19876 0.084116 2.03844 0.0834106 1.91757 0.0830255C1.8202 0.0827212 2.07923 0.0825378 1.91361 0.0822574C1.89149 0.0822195 1.39935 0.0822578 1.38041 0.0822462C0.791597 0.0819332 1.99469 0.0820836 2.20957 0.082019C2.99094 0.0817848 3.4071 0.08164 3.03952 0.0812393C2.95534 0.0811468 1.22305 0.0808775 1.12174 0.080709C0.993201 0.08049 1.61412 0.0805726 1.46372 0.0803432C1.45142 0.0803236 1.06835 0.0803277 1.08524 0.0801861C1.1586 0.0795289 1.3815 0.0788124 1.34311 0.0781294C1.33934 0.0780361 0.731739 0.0781558 0.716284 0.078021C0.644261 0.0773885 0.666747 0.0766952 0.951146 0.0760791C1.02306 0.0759274 1.44848 0.0760225 1.5748 0.0759896C2.3391 0.0757874 1.22859 0.0755008 1.20743 0.0754535C0.673773 0.0743254 1.67877 0.0734619 1.20029 0.0723121C1.1722 0.0722495 -0.01829 0.0717677 1.00272 0.0715527C1.07065 0.071538 2.11525 0.0713253 1.40103 0.0711373C1.35635 0.0711256 0.818577 0.0712581 0.873388 0.0710269C0.928079 0.0707956 0.568956 0.0704235 1.15982 0.0701056C1.34596 0.0700049 2.38798 0.0697671 1.55735 0.0694669C1.49936 0.0694473 -0.378822 0.0689839 0.917028 0.0688184C1.13034 0.0687916 2.50164 0.0688197 1.79856 0.0684614C1.66225 0.0683929 1.35638 0.0685172 1.16538 0.0683369C0.87101 0.0680605 1.23829 0.0676944 0.627417 0.0673547C0.51927 0.0672955 -0.411488 0.0670433 0.294959 0.066841C0.405601 0.0668094 0.863413 0.0668696 0.914647 0.0667627C1.16041 0.0662548 0.854178 0.0657229 1.17093 0.0652071C1.28224 0.0650244 2.02234 0.0651178 2.22067 0.0649274C2.41894 0.0647369 2.60966 0.0643532 2.27145 0.0641539C1.9331 0.0639546 0.753544 0.0641723 0.659155 0.0638738C0.249216 0.0625756 0.941174 0.0612896 1.04239 0.0599934C1.05751 0.0598011 0.63543 0.0599605 0.627417 0.0596772C0.596016 0.0586327 0.20027 0.0568292 1.09714 0.0559228C1.81549 0.0551966 2.36237 0.0561105 2.65469 0.0555556C2.79414 0.0552878 1.42279 0.0549981 1.37961 0.0549334C0.941056 0.0543019 1.54854 0.053863 1.36216 0.0532946C1.32348 0.0531772 0.767657 0.0532923 0.740881 0.0531924C0.644489 0.0528512 0.892583 0.0524926 0.847204 0.0521665C0.825567 0.0520203 0.401049 0.0520472 0.433814 0.0519126C0.507322 0.0515905 0.685769 0.0513058 1.08365 0.0509918C1.11991 0.0509632 1.64799 0.0511561 1.66764 0.0509178C1.69792 0.0505322 2.09043 0.0500535 1.68509 0.0496098C1.56316 0.0494781 0.59293 0.049473 1.26297 0.04919C1.40292 0.0491306 2.56795 0.0492064 1.56131 0.0488767C1.39403 0.0488213 0.0362664 0.0482675 0.911473 0.0479958C1.14182 0.0479241 2.09517 0.0477411 1.94534 0.0475828C1.92144 0.0475613 1.40029 0.0476473 1.34946 0.0475161C1.17938 0.0470538 1.23498 0.0465693 1.07175 0.0460943C1.02713 0.0459674 0.487853 0.0461563 0.438575 0.0459673C0.302267 0.0454475 0.439577 0.0447984 0.608374 0.0442901C0.67163 0.0441026 1.11835 0.0442322 1.16697 0.0442186C1.95769 0.0439992 0.890394 0.0438696 0.828161 0.0437968C0.455513 0.0433441 0.956866 0.0429994 0.824193 0.0425822C0.788933 0.042467 0.280034 0.0425487 0.234657 0.0425257C-0.208712 0.042288 0.705204 0.0424651 0.805944 0.0423146C1.09119 0.0418931 1.05029 0.0414232 0.985265 0.0409968C0.960631 0.0408403 0.370551 0.0410163 0.355262 0.0408757C0.253581 0.040044 0.310045 0.0391793 0.635351 0.0383676C0.697674 0.0382148 1.15205 0.0383109 1.25583 0.0382791C1.98191 0.0380595 0.991532 0.0377378 0.897191 0.0376637C0.466432 0.0373271 0.868248 0.0371963 0.793249 0.0368991C0.419836 0.0354468 0.685964 0.0336536 0.850377 0.0322827C1.06198 0.0304963 1.49424 0.0291101 1.38199 0.0274066C1.37543 0.0272983 0.770963 0.0274075 0.757543 0.0273142C0.611826 0.0261092 0.848026 0.0249229 0.673437 0.0237155C0.660182 0.0236164 0.0871456 0.0237592 0.046608 0.0236002C-0.0405582 0.023274 -0.00941159 0.0228608 0.173561 0.022531C0.261721 0.0223701 0.753437 0.0225859 0.832128 0.022424C1.01648 0.022047 1.05729 0.0216428 0.965428 0.0212556C0.925086 0.0210908 0.339016 0.0213394 0.332252 0.0211252C0.274109 0.019666 0.173172 0.018233 0.932103 0.0167584C0.984226 0.0166573 2.17535 0.0165686 1.94693 0.0163537C1.61636 0.0163375 1.22751 0.0163384 0.874181 0.0163313C0.683849 0.0142071 1.09677 0.0121046 1.16062 0.00997447C1.16317 0.00988466 0.532056 0.0100399 0.533789 0.00986599C0.54312 0.00885962 0.368281 0.00788237 0.99558 0.00685297C1.05693 0.00675083 2.16722 0.00680323 1.9993 0.00650224C1.96866 0.00644916 1.82058 0.00599583 1.57956 0.00587862C1.54321 0.0058627 1.02497 0.00594541 1.00986 0.00579933C0.931165 0.00495043 1.04948 0.00406083 1.36612 0.0032134C1.41822 0.00307664 1.9701 0.00322229 2.01199 0.00312487C2.30496 0.00243387 1.88543 0.00168226 2.38651 0.00102198C2.7239 0.000580012 3.67787 0.000743642 4.61691 0.000508785C4.74939 0.000475567 4.77038 0.000201886 5.31673 0.000187733C6.69058 0.000151398 8.19493 0.000283961 9.65931 0.000229567C9.97473 0.000218075 9.635 -0.000148454 10.3972 6.85547e-05C10.4482 8.3715e-05 10.7012 0.000349451 10.9598 0.000414902C11.1386 0.000460471 11.6942 0.000378354 11.923 0.000471329C12.1517 0.000564297 11.6859 0.000666456 11.9548 0.000820595C12.227 0.000974665 12.8591 0.000906919 12.9339 0.00121461ZM4.15274 0.0854971C4.68354 0.0852538 2.73942 0.0852179 3.20456 0.085481C3.22935 0.0854938 4.1267 0.0855096 4.15274 0.0854971ZM4.4598 0.114932C5.31729 0.114614 4.05644 0.114397 3.39419 0.114621C2.73266 0.114845 4.19986 0.115029 4.4598 0.114932ZM5.08584 0.11823C5.76193 0.117859 3.0051 0.1178 3.5624 0.118198C3.5939 0.118221 5.04658 0.118252 5.08584 0.11823ZM4.8843 0.00159793C4.91012 0.00159457 4.93528 0.00139784 4.90969 0.00139314C4.29224 0.00128838 4.24236 0.00168177 4.8843 0.00159793ZM5.76742 0.121503C6.14034 0.121387 5.70984 0.121053 5.24612 0.121197C4.87306 0.121313 5.30352 0.121648 5.76742 0.121503ZM6.22762 0.0728063C6.25659 0.0728025 6.28268 0.0726614 6.11892 0.0726643C5.59148 0.0726738 5.74034 0.0728701 6.22762 0.0728063ZM5.79915 0.127066C5.90292 0.126244 8.1802 0.125745 7.92323 0.12664C7.87674 0.126802 7.19703 0.126291 6.99172 0.126497C6.61767 0.126875 8.04753 0.127125 7.28133 0.127511C7.14109 0.12758 5.78817 0.127112 5.79598 0.127064C5.79704 0.127065 5.7981 0.127065 5.79915 0.127066ZM6.48787 0.085357C6.51358 0.0853521 6.53796 0.0851569 6.51247 0.0851522C5.89527 0.0850465 5.8458 0.0854398 6.48787 0.085357ZM7.4297 0.0645762C7.48448 0.0645654 7.53572 0.0641123 7.48524 0.0640975C6.47595 0.0638611 6.36938 0.0647772 7.4297 0.0645762ZM7.91054 0.0985065C8.53144 0.0987195 8.60455 0.0989744 7.82484 0.0991442C7.86623 0.0989325 7.87233 0.0987194 7.91054 0.0985065Z" fill="#171717" fill-opacity="0.75"/>
<path d="M99.0147 290.649C99.4277 287.585 100.386 283.694 101.291 280.8C101.573 279.896 101.543 280.385 101.747 279.76C102.147 278.544 102.454 277.394 102.901 276.204C103.048 275.815 103.044 276.359 103.195 275.95C104.032 273.699 104.788 271.549 105.746 269.315C106.85 266.745 108.04 264.236 109.33 261.771C113.681 253.606 119.55 246.578 126.037 239.99C127.465 238.551 129.105 237.013 130.786 235.5C132.408 234.038 134.078 232.616 135.616 231.31C135.982 230.999 135.668 231.066 135.731 230.999C136.727 229.949 136.544 230.482 137.3 229.93C140.304 227.745 143.663 225.364 146.62 223.371C147.881 222.524 146.442 223.103 147.819 222.416C147.914 222.368 147.673 222.707 148.034 222.498C148.848 222.021 150.357 221.061 150.993 220.698C152.215 219.998 152.416 219.879 153.573 219.22C155.159 218.321 157.098 217.359 158.825 216.442C159.192 216.247 158.627 216.353 159.208 216.028C159.584 215.819 160.374 215.426 161.037 215.12C161.412 214.946 161.744 214.799 161.942 214.721C162.494 214.502 162.319 214.724 162.426 214.706C163.309 214.556 165.024 213.415 165.266 213.303C169.593 211.256 173.525 210 177.815 208.696C181.082 207.704 184.619 206.777 187.816 206.195C191.638 205.5 194.902 205.203 198.645 204.914C199.042 204.884 198.565 204.728 199.046 204.692C199.374 204.668 199.726 204.644 200.053 204.622C204.899 204.319 209.686 204.655 214.422 205.214C214.929 205.275 214.259 205.377 214.763 205.449C217.869 205.874 222.719 206.832 224.655 206.384C226.749 206.705 229.287 207.12 231.132 207.561C232.319 207.846 231.122 207.836 232.614 207.999C232.949 208.036 232.542 207.81 233.044 207.877C235.159 208.164 237.448 208.606 239.54 208.89C239.967 208.948 239.876 208.788 240 208.784C240.488 208.772 241.099 208.904 241.652 209.059C242.284 209.234 242.841 209.451 243.031 209.502C245.791 210.257 247.807 210.718 250.349 211.471C250.936 211.648 250.297 211.257 250.863 211.422C253.81 212.284 256.803 213.345 259.574 214.478C260.191 214.731 259.56 214.666 259.852 214.795C261.135 215.363 261.533 215.189 262.764 215.745C263.022 215.862 262.822 215.932 262.865 215.965C263.523 216.483 264.306 216.434 264.499 216.504C266.976 217.4 268.387 218.379 270.739 219.337C271.02 219.451 270.463 219.019 271.247 219.35C274.949 220.916 278.755 222.649 282.448 224.412C284 225.153 285.494 225.971 286.917 226.834C287.669 227.295 287.058 227.093 287.098 227.135C287.749 227.807 288.418 227.821 288.671 227.962C290.651 229.075 292.217 230.519 293.696 231.097C300.803 236.454 307.248 242.475 313.578 248.503C314.084 248.985 314.577 249.475 315.056 249.976C315.141 250.064 314.867 250.032 315.036 250.207C317.01 252.332 316.796 251.755 318.298 253.05C318.684 253.381 319.247 254.837 319.281 254.964C319.454 255.423 318.976 255.142 319.046 255.287C319.586 256.483 320.238 255.86 320.998 257.559C321.019 257.613 320.786 257.447 320.831 257.596C320.97 258.054 321.187 258.48 321.273 258.941C321.383 259.547 321.314 259.956 321.34 260.473C321.357 260.859 321.428 261.3 321.634 261.952C321.689 262.148 322.13 261.762 322.308 263.361C322.402 263.996 322.576 266.822 322.514 267.614C322.478 268.403 322.331 267.859 322.325 267.916C322.077 270.027 322.007 269.223 321.654 270.25C321.282 271.27 321.999 271.038 322.037 271.477C322.079 271.918 321.72 273.432 321.6 273.797C321.485 274.163 321.463 273.682 321.379 274.009C320.799 276.165 321.557 275.031 321.533 275.78C321.454 277.549 320.62 278.754 320.146 280.261C320.016 280.67 320.226 280.366 320.131 280.737C319.747 282.206 319.317 283.023 318.897 284.699C318.831 284.969 318.656 286.395 318.123 287.158C318.047 287.266 318.053 286.882 317.799 287.474C317.42 288.361 316.763 289.959 316.42 290.936C316.171 291.65 316.675 290.946 316.29 291.757C316.284 291.768 316.279 291.78 316.273 291.792C316.065 292.198 316.298 291.382 315.894 292.138C315.5 293.148 313.279 293.52 312.535 293.595C311.771 293.684 312.201 293.798 312.143 293.816C311.769 293.927 310.277 294.092 310.136 294.092C305.029 294.272 300.291 293.896 295.43 293.682C293.974 293.612 292.449 293.545 290.949 293.497C290.445 293.481 290.773 293.667 290.696 293.666C288.952 293.656 290.327 293.266 289.143 293.058C289.3 293.413 288.599 293.317 287.365 293.295C286.786 293.286 287.094 293.435 287.041 293.446C286.169 293.608 285.563 293.315 285.407 293.254C284.846 293.028 284.213 293.231 283.823 293.079C283.434 292.929 284.356 292.779 283.174 292.723C282.837 292.831 283.692 293.198 282.804 293.207C279.462 293.24 273.203 292.68 270.521 292.53C267.849 292.379 266.975 292.364 265.408 292.249C262.59 292.044 263.611 292.33 261.849 292.365C260.091 292.401 260.967 291.846 260.72 291.708C260.477 291.571 260.2 291.691 259.892 291.608C259.585 291.525 260.259 291.466 259.532 291.41C258.809 291.354 256.82 291.502 256.554 291.625C255.997 291.886 256.881 292.215 254.971 292.039C254.861 292.029 255.224 291.887 254.803 291.855C251.452 291.61 247.961 291.485 244.613 291.283C244.151 291.255 244.569 291.094 244.301 291.075C241.515 290.887 242.5 291.207 240.962 291.491C241.315 291.069 240.48 290.782 238.354 290.731C237.079 290.701 237.295 290.895 236.467 291.01C236.219 291.045 235.318 290.898 235.153 290.984C234.608 291.264 235.453 291.602 233.269 291.436C233.174 291.428 233.482 291.274 233.15 291.259C231.007 291.163 230.748 291.462 228.432 291.472C226.617 291.481 223.391 291.276 221.323 291.247C221.366 290.761 219.415 290.874 218.622 291.213C217.28 291.204 215.832 291.234 214.535 291.202C214.089 291.192 214.38 291.048 214.324 291.033C213.46 290.805 212.88 291.139 212.59 291.156C210.667 291.26 208.955 291.232 207.239 291.271C206.147 291.296 205.061 291.348 203.907 291.479C203.801 291.491 203.639 291.833 202.83 291.615C202.778 291.6 203.761 291.412 202.353 291.45C200.952 291.487 198.285 291.417 196.337 291.671C195.869 291.731 194.683 292.065 193.713 291.905C193.584 291.883 193.719 291.778 193.531 291.735C192.926 291.597 192.625 291.955 191.902 291.707C191.18 291.46 189.713 291.329 187.752 291.66C187.688 291.67 187.247 291.97 186.624 292.009C185.626 292.071 184.236 292.115 183.194 292.196C182.699 292.235 183.029 292.378 182.943 292.388C179.629 292.737 177.265 292.788 173.702 293.054C173.042 293.103 171.21 293.509 169.92 293.457C168.514 293.402 169.866 292.432 166.693 292.961C165.422 293.174 163.907 294.387 161.549 294.111C157.095 294.754 152.941 294.99 148.495 295.762C148.3 295.796 147.698 296.168 147.223 296.226C146.518 296.312 146.131 296.226 145.619 296.285C143.528 296.52 141.606 296.897 139.587 297.15C138.816 297.247 139.074 297.07 138.154 297.186C137.231 297.303 136.653 297.567 135.399 297.644C134.454 297.701 133.475 297.448 132.218 297.567C132.219 297.739 132.041 297.854 131.709 297.955C131.296 298.078 130.682 298.179 129.859 298.336C129.566 298.391 129.899 298.481 129.761 298.514C129.202 298.651 128.683 298.606 128.147 298.744C128.019 298.777 128.028 298.905 127.925 298.939C127.051 299.234 125.52 299.119 125.257 299.097C124.269 299.015 123.816 299.229 123.056 299.232C122.294 299.233 123.41 299.027 122.528 299.07C120.708 299.158 118.362 299.376 116.513 299.468C115.772 299.506 116.286 299.649 116.18 299.659C114.651 299.783 113.106 299.631 112.253 299.969C111.191 299.082 111.329 300.074 109.134 299.802C108.962 299.778 108.769 299.353 109.427 299.325C110.085 299.297 111.084 299.456 111.995 299.362C112.214 299.344 113.443 298.942 113.61 298.912C114.919 298.697 115.132 299.3 115.203 299.333C116.02 299.671 117.511 299.162 117.908 299.104C119.718 298.847 121.276 298.791 122.789 298.544C123.791 298.381 123.827 297.968 124.619 297.895C127.208 297.65 128.194 298.099 130.575 297.305C130.986 297.168 130.688 296.901 131.567 296.854C131.776 296.843 132.053 296.846 132.432 296.866C132.558 296.872 133.982 297.008 134.775 296.698C134.876 296.659 134.853 296.532 134.984 296.503C135.857 296.316 136.486 296.336 137.444 296.157C138.426 295.976 139.58 295.746 140.697 295.64C141.369 295.576 142.273 295.698 142.595 295.714C143.525 295.761 144.463 295.355 145.051 295.485C145.648 295.615 144.574 296.074 146.088 296.008C146.099 295.668 146.179 295.309 146.222 294.962C149.481 294.544 152.709 294.24 155.987 293.827C156.396 293.775 155.955 293.646 156.394 293.586C158.219 293.336 159.849 293.274 161.751 293.007C163.225 292.799 164.823 292.43 166.368 292.218C167.35 292.5 169.632 292.132 171.308 292.005C171.891 291.96 171.862 292.066 172.281 292.06C173.866 292.033 173.1 291.765 173.524 291.671C175.338 291.273 175.581 292.023 177.747 291.815C177.863 291.804 179.24 291.275 179.43 291.234C180.649 290.967 179.645 291.36 180.421 291.327C181.846 291.267 182.819 291.289 184.472 291.047C184.948 290.976 186.092 290.638 187.046 290.771C187.17 290.789 187.111 290.929 187.211 290.93C189.009 290.942 189.042 290.515 190.056 290.306C191.069 290.098 192.69 290.299 193.01 290.367C193.865 290.539 192.372 290.497 192.325 290.521C191.801 290.808 192.955 290.697 193.84 290.671C193.989 291.08 195.228 290.99 194.76 290.642C194.706 290.604 194.018 290.68 193.84 290.671C194.596 290.219 195.953 290.095 197.476 290.407C198.189 290.555 197.538 290.791 199.664 290.623C200.633 290.548 200.246 290.276 201.103 290.164C202.915 289.926 205.257 290.071 207.207 290.019C207.347 290.015 207.485 290.01 207.62 290.004C208.351 289.971 207.635 289.831 208.134 289.803C209.461 289.729 210.638 289.824 211.969 289.742C212.09 289.735 211.792 289.575 212.207 289.566C215.354 289.5 218.096 289.586 221.378 289.589C222.967 289.59 225.802 289.513 227.446 289.547C230.294 289.603 233.792 289.897 236.225 289.889C237.812 289.884 237.467 289.713 238.148 289.615C239.47 289.426 241.775 289.874 242.089 289.943C242.098 289.945 240.731 289.949 241.458 290.052C241.877 290.24 242.074 289.944 242.089 289.943C242.296 289.987 245.014 290.1 245.56 290.085C245.855 290.077 245.695 289.916 245.848 289.914C249.497 289.883 253.148 289.971 256.839 290.188C256.904 290.193 256.799 290.364 256.952 290.375C259.088 290.536 260.473 290.38 262.23 290.327C264.013 290.276 265.393 290.379 266.432 290.726C267.752 290.747 269.67 290.968 270.754 291.099C271.857 291.231 272.021 290.899 272.119 290.897C275.144 290.825 276.866 291.104 279.995 291.287C281.476 291.375 284.431 291.472 286.037 291.512C287.309 291.544 288.074 291.661 289.241 291.665C289.398 291.666 289.247 291.507 289.295 291.504C290.6 291.384 289.966 291.725 290.232 291.803C291.202 292.089 291.804 292.246 293.469 292.206C293.814 292.197 294.834 291.793 295.51 291.72C295.578 291.713 295.642 291.71 295.704 291.71C296.63 291.707 296.28 291.885 297.218 291.874C297.301 291.874 297.294 291.756 297.889 291.783C300.622 291.904 303.588 292.063 306.418 292.062C306.802 292.061 306.306 291.874 306.871 291.87C309.363 291.832 312.695 291.827 314.088 291.308C314.249 291.237 314.23 291.4 314.284 291.412C314.412 291.441 314.441 291.419 314.535 291.058C314.659 290.596 314.715 290.177 314.75 290.079C316.321 285.657 317.879 282.443 318.878 277.86C318.938 277.608 319.011 275.636 319.464 274.842C319.496 274.789 319.967 273.994 319.857 273.207C319.85 273.159 319.613 273.661 319.758 272.744C319.903 271.823 319.944 270.334 320.175 269.072C320.248 268.677 320.605 267.716 320.314 266.516C320.304 266.427 319.632 264.636 319.945 263.949C319.994 263.838 320.449 263.898 320.033 262.504C319.95 262.24 319.935 262.744 319.763 262.043C319.672 261.681 319.591 261.28 319.499 260.852C319.331 260.059 319.092 259.218 318.661 258.508C318.549 258.313 317.921 257.617 317.723 256.871C317.692 256.752 317.93 256.872 317.735 256.522C316.788 254.841 315.32 253.309 313.915 251.783C313.41 251.241 313.846 251.345 313.322 250.763C313.1 250.517 312.766 250.172 312.394 249.821C311.895 249.351 311.352 248.868 310.96 248.593C310.271 248.109 310.702 248.991 309.757 248.171C305.648 244.604 301.875 240.801 297.778 237.348C297.169 236.838 297.595 237.356 296.69 236.617C293.38 233.838 287.275 229.729 284.114 227.853C281.592 226.307 284.981 227.848 283.001 226.745C282.556 226.502 282.047 226.348 281.605 226.248C281.078 226.124 280.649 226.065 280.514 226.011C278.064 225.038 276.473 224.114 274.286 223.203C273.835 223.015 274.204 223.366 273.819 223.205C272.51 222.656 271.169 221.985 269.922 221.462C269.359 221.226 269.409 221.39 268.9 221.161C267.678 220.613 266.608 220.102 265.45 219.491C265.344 219.435 266.15 219.592 265.235 219.207C263.757 218.587 261.955 217.732 260.192 217.187C259.667 217.026 259.545 217.297 258.519 216.69C258.304 216.565 258.726 216.336 257.334 216.154C257.103 216.121 254.807 215.739 253.832 215.13C253.577 214.969 252.949 214.449 252.314 214.293C252.228 214.272 252.516 214.534 251.996 214.383C250.163 213.848 248.256 213.267 246.359 212.831C245.85 212.715 246.56 213.067 245.806 212.891C244.378 212.562 242.711 212.179 241.149 211.875C240.423 211.733 239.728 211.594 239.081 211.464C238.314 211.31 238.87 211.268 238.816 211.244C237.96 210.847 237.367 211.078 237.067 211.046C235.188 210.839 233.797 210.45 232.077 210.213C231.6 210.146 231.912 210.356 231.815 210.354C230.815 210.331 231.588 210.171 230.975 210.041C229.255 209.678 227.319 209.394 225.562 209.161C224.917 209.076 225.614 209.359 225.037 209.281C221.61 208.822 218.054 208.355 214.722 207.927C214.097 207.847 214.505 207.746 214.377 207.702C213.489 207.391 212.135 207.582 211.833 207.588C210.431 207.612 209.913 207.454 208.683 207.407C206.026 207.314 203.092 207.254 200.231 207.426C196.562 207.639 192.928 208.004 189.851 208.499C182.624 209.683 177.092 211.197 170.555 213.761C170.138 213.927 170.627 213.934 170.269 214.08C167.552 215.185 164.883 216.349 162.242 217.617C160.434 218.486 158.64 219.411 156.868 220.402C156.511 220.602 157.111 220.474 156.544 220.799C155.38 221.469 153.901 222.305 152.706 222.954C152.123 223.27 152.809 222.684 152.223 223.006C150.861 223.758 149.439 224.632 148.116 225.529C147.554 225.911 148.51 225.501 147.774 225.986C142.764 229.311 138.082 232.904 133.437 236.8C133.203 236.996 132.862 237.035 132.459 237.303C132.313 237.4 132.159 237.527 131.999 237.702C132.02 237.822 132.104 237.906 132.158 238.006C125.822 244.05 119.875 250.462 115.099 257.758C114.9 258.067 115.405 257.639 115.022 258.236C113.98 259.868 113.029 261.526 112.16 263.213C111.172 265.131 110.221 267.08 109.246 269.09C109.064 269.47 108.832 269.129 108.4 270.301C108.322 270.504 107.669 272.253 107.568 272.737C107.555 272.802 107.825 272.542 107.615 273.104C106.393 276.376 105.231 279.843 104.245 283.189C104.085 283.732 104.074 283.106 103.96 283.492C103.151 286.23 102.635 289.271 102.106 291.927C101.766 293.698 101.564 293.002 101.176 293.934C101.118 294.066 101.031 295.18 100.866 295.237C100.435 295.373 100.003 294.779 99.5406 294.989C99.429 295.035 99.5008 296.636 99.2847 295.687C99.2646 295.6 99.2459 294.459 99.1974 294.154C99.1589 293.957 98.9585 294.293 98.9227 293.888C98.8896 293.471 99.0764 293.043 99.0756 292.377C99.0805 291.697 98.8389 291.97 99.0147 290.649ZM275.676 291.694C276.692 291.906 276.874 291.316 275.757 291.405C275.704 291.411 275.625 291.683 275.676 291.694ZM152.749 294.697C154.097 294.793 154.967 294.296 154.003 294.21C153.038 294.124 152.34 294.668 152.749 294.697ZM139.099 296.686C140.673 296.684 140.808 295.81 139.17 296.203C139.075 296.226 139.008 296.686 139.099 296.686ZM101.727 289.462C101.716 289.47 101.567 290.279 101.573 290.298C101.686 290.757 101.98 289.154 101.727 289.462ZM125.564 298.623C126.065 298.683 127.429 298.391 126.814 298.319C126.32 298.262 124.947 298.549 125.564 298.623ZM319.854 280.223C319.867 280.211 320.032 279.646 319.98 279.644C319.813 279.641 319.638 280.438 319.854 280.223ZM102.471 298.708C105.828 299.308 107.859 300.181 104.124 299.637C103.453 299.528 105.609 299.619 104.759 299.438C103.212 299.106 102.102 299.358 100.558 298.812C100.284 298.717 102.279 298.678 102.478 298.709C102.476 298.709 102.473 298.708 102.471 298.708ZM276.231 292.44C276.252 292.449 277.07 292.496 277.089 292.489C277.541 292.321 275.894 292.226 276.231 292.44ZM313.334 248.599C313.312 248.557 311.918 247.277 311.862 247.246C311.034 246.865 313.114 248.826 313.353 248.753C313.364 248.75 313.371 248.742 313.374 248.73C313.379 248.706 313.367 248.663 313.334 248.599ZM221.29 291.234C220.4 291.425 219.338 291.45 218.626 291.213C219.513 291.222 220.401 291.222 221.29 291.234Z" fill="#121212" fill-opacity="0.75"/>
<path d="M157.151 277.97V254.698H159.833V263.289H160.061C160.258 262.986 160.53 262.599 160.879 262.129C161.235 261.652 161.742 261.228 162.401 260.857C163.068 260.478 163.97 260.289 165.106 260.289C166.576 260.289 167.871 260.656 168.992 261.391C170.114 262.126 170.989 263.167 171.617 264.516C172.246 265.864 172.561 267.455 172.561 269.289C172.561 271.137 172.246 272.739 171.617 274.095C170.989 275.444 170.117 276.489 169.004 277.232C167.89 277.967 166.606 278.334 165.151 278.334C164.03 278.334 163.133 278.148 162.458 277.777C161.784 277.398 161.265 276.97 160.901 276.493C160.538 276.008 160.258 275.607 160.061 275.289H159.742V277.97H157.151ZM159.788 269.243C159.788 270.561 159.981 271.724 160.367 272.732C160.754 273.732 161.318 274.516 162.061 275.084C162.803 275.645 163.712 275.925 164.788 275.925C165.909 275.925 166.845 275.629 167.595 275.039C168.352 274.44 168.92 273.637 169.299 272.629C169.686 271.614 169.879 270.486 169.879 269.243C169.879 268.016 169.689 266.91 169.311 265.925C168.939 264.933 168.375 264.148 167.617 263.573C166.867 262.989 165.924 262.698 164.788 262.698C163.697 262.698 162.78 262.974 162.038 263.527C161.295 264.073 160.735 264.838 160.356 265.823C159.977 266.8 159.788 267.94 159.788 269.243ZM187.663 270.834V260.516H190.345V277.97H187.663V275.016H187.481C187.072 275.902 186.436 276.656 185.572 277.277C184.708 277.891 183.617 278.198 182.299 278.198C181.208 278.198 180.239 277.959 179.39 277.482C178.542 276.997 177.875 276.27 177.39 275.3C176.905 274.323 176.663 273.092 176.663 271.607V260.516H179.345V271.425C179.345 272.698 179.701 273.713 180.413 274.47C181.133 275.228 182.049 275.607 183.163 275.607C183.83 275.607 184.508 275.436 185.197 275.095C185.894 274.754 186.477 274.232 186.947 273.527C187.424 272.823 187.663 271.925 187.663 270.834ZM197.938 267.47V277.97H195.257V260.516H197.848V263.243H198.075C198.484 262.357 199.105 261.645 199.938 261.107C200.772 260.561 201.848 260.289 203.166 260.289C204.348 260.289 205.382 260.531 206.268 261.016C207.154 261.493 207.844 262.22 208.336 263.198C208.829 264.167 209.075 265.395 209.075 266.879V277.97H206.393V267.061C206.393 265.69 206.037 264.622 205.325 263.857C204.613 263.084 203.635 262.698 202.393 262.698C201.537 262.698 200.772 262.883 200.098 263.254C199.431 263.626 198.904 264.167 198.518 264.879C198.132 265.592 197.938 266.455 197.938 267.47ZM222.384 273.198V270.879L232.612 254.698H234.294V258.289H233.157L225.43 270.516V270.698H239.203V273.198H222.384ZM233.339 277.97V272.493V271.414V254.698H236.021V277.97H233.339ZM246.413 274.789L246.231 276.016C246.102 276.879 245.905 277.804 245.64 278.789C245.383 279.773 245.114 280.701 244.833 281.573C244.553 282.444 244.322 283.137 244.14 283.652H242.095C242.193 283.167 242.322 282.527 242.481 281.732C242.64 280.936 242.799 280.046 242.958 279.061C243.125 278.084 243.261 277.084 243.367 276.061L243.504 274.789H246.413ZM258.14 278.289C256.807 278.289 255.606 278.023 254.538 277.493C253.47 276.963 252.614 276.236 251.97 275.311C251.326 274.387 250.973 273.334 250.913 272.152H253.64C253.746 273.205 254.223 274.076 255.072 274.766C255.928 275.448 256.951 275.789 258.14 275.789C259.095 275.789 259.943 275.565 260.686 275.118C261.436 274.671 262.023 274.058 262.447 273.277C262.879 272.489 263.095 271.599 263.095 270.607C263.095 269.592 262.871 268.686 262.424 267.891C261.985 267.088 261.379 266.455 260.606 265.993C259.833 265.531 258.951 265.296 257.958 265.289C257.246 265.281 256.515 265.391 255.765 265.618C255.015 265.838 254.398 266.122 253.913 266.47L251.276 266.152L252.686 254.698H264.776V257.198H255.049L254.231 264.061H254.367C254.845 263.683 255.443 263.368 256.163 263.118C256.883 262.868 257.633 262.743 258.413 262.743C259.837 262.743 261.106 263.084 262.22 263.766C263.341 264.44 264.22 265.364 264.856 266.539C265.5 267.713 265.822 269.054 265.822 270.561C265.822 272.046 265.489 273.372 264.822 274.539C264.163 275.698 263.254 276.614 262.095 277.289C260.936 277.955 259.617 278.289 258.14 278.289Z" fill="black"/>
</svg>
