<svg width="329" height="300" viewBox="0 0 329 300" fill="none" xmlns="http://www.w3.org/2000/svg">
<path d="M12.9339 0.00121461C13.1032 0.00192919 12.9222 0.00286588 12.6736 0.00357775C12.5966 0.00380085 12.252 0.00368788 12.1833 0.00384189C12.0493 0.0041431 12.2183 0.00442372 12.0587 0.00472138C12.0041 0.00482002 11.4584 0.00469723 11.4136 0.00480067C11.1724 0.00536749 11.3115 0.00590372 11.1954 0.00647792C10.623 0.00930623 10.4182 0.0120864 10.1695 0.0149493C10.088 0.0158933 9.59266 0.0170408 9.80927 0.0180158C9.83505 0.0181297 10.3141 0.0180618 10.3536 0.0180835C10.958 0.0184231 9.99093 0.0183102 9.86243 0.018532C9.3551 0.0194122 9.31098 0.020391 9.49586 0.021238C9.57592 0.0215984 10.5274 0.0212371 9.99335 0.0216C9.95727 0.0216251 9.44855 0.0215337 9.3943 0.0216325C9.27226 0.0218567 9.36319 0.0222819 9.32288 0.0224556C9.24263 0.0227904 9.24775 0.0228458 9.24195 0.0231624C9.2296 0.0235953 8.97672 0.0241101 9.09199 0.0245745C9.11811 0.0246737 9.6396 0.0245424 9.72834 0.0247005C9.81694 0.0248588 9.77272 0.0252774 9.64979 0.0254185C9.52679 0.0255597 9.11691 0.0254996 9.02296 0.0255246C8.22998 0.0257301 9.32826 0.0262143 9.35542 0.0262766C9.81821 0.0274126 9.19256 0.0283868 9.19435 0.0294531C9.19703 0.0302626 9.40358 0.0311282 9.37525 0.0318984C9.33949 0.0328161 9.0569 0.0335938 9.10548 0.0344853C9.11 0.0345794 9.72316 0.0344692 9.72993 0.0345841C9.80128 0.0358049 9.73444 0.0370173 9.3205 0.0382329C9.27845 0.0383548 8.74011 0.0381977 8.6659 0.0383195C8.22348 0.0390652 7.16068 0.0402451 9.50459 0.040688C9.41306 0.0411931 9.3185 0.0418063 8.84602 0.0422582C8.54192 0.0425496 7.95545 0.0422666 8.2057 0.0426245C8.26146 0.0427052 8.77506 0.0426002 8.81983 0.0427213C9.00786 0.043231 8.8409 0.0437878 9.10627 0.044292C9.16146 0.0443946 9.62166 0.0443666 9.70454 0.0443956C10.3757 0.0446398 9.26623 0.0450464 9.18562 0.045135C8.58445 0.0458099 8.82102 0.0463027 8.80635 0.0469314C8.80268 0.0470773 9.42084 0.0469049 9.43952 0.0470453C9.52812 0.0477734 9.47499 0.0485276 9.20069 0.0492406C9.13819 0.0493992 8.61163 0.0492533 8.55482 0.0493291C8.31074 0.0496633 9.30529 0.0497373 9.0904 0.0500578C9.04638 0.0501254 8.5956 0.0500873 8.54609 0.0500996C7.76894 0.0502925 8.87011 0.0504601 8.89442 0.0505097C9.2266 0.0511373 8.07704 0.0515384 8.23982 0.0521446C8.26045 0.0522172 8.83082 0.0520536 8.85395 0.0522575C9.01141 0.0536157 8.85472 0.0550522 8.39851 0.0563966C8.32835 0.0566057 7.89988 0.0564565 7.84706 0.0564696C7.02177 0.056684 8.12756 0.0568227 8.1692 0.0568909C8.46897 0.0574286 7.54164 0.0579309 8.85871 0.0582962C8.40164 0.0605734 9.14125 0.0628402 7.96132 0.0650986C7.94765 0.0651273 7.40305 0.0650759 7.37813 0.0651331C7.07234 0.0658229 7.91875 0.0656905 8.95393 0.0661469C9.21387 0.0662619 7.96406 0.0666116 7.87245 0.0666426C7.53486 0.0667553 6.72464 0.0666384 6.65926 0.0666761C6.14587 0.0669886 8.82532 0.0669376 8.82618 0.0673591C8.82171 0.0673723 8.32853 0.0673169 8.27949 0.0673523C8.12554 0.0674622 8.32151 0.0675712 8.15175 0.0676787C7.75891 0.0679248 6.45693 0.0680125 7.21468 0.0683884C7.31302 0.068436 8.83292 0.0683633 8.76112 0.0687396C8.73121 0.0688897 8.75726 0.0695537 8.65876 0.0697398C8.56039 0.0699256 8.0706 0.069798 8.04939 0.0698113C7.40173 0.0703121 7.13331 0.0701222 6.17446 0.0703731C5.21922 0.070624 7.49755 0.0705544 7.75184 0.0706567C8.00542 0.0707592 7.47106 0.0711264 7.28529 0.0712166C7.09945 0.0713068 6.78823 0.0711943 6.68306 0.0712745C5.99596 0.0718062 7.81394 0.0715079 8.17555 0.0716831C9.03177 0.0720962 7.34215 0.0724179 7.17659 0.0727961C7.13188 0.0728984 7.5167 0.0728149 7.55269 0.072906C7.69012 0.0732669 7.16292 0.0734839 7.64632 0.0738945C7.72509 0.0739616 8.74093 0.0742935 7.99544 0.0745084C7.88794 0.0745388 7.46689 0.0744523 7.37257 0.0746061C7.23103 0.0748359 7.139 0.0752498 7.27974 0.0754968C7.38387 0.0756791 8.07766 0.0754702 7.86213 0.0756996C7.7659 0.0758017 7.36003 0.0756126 7.21309 0.0758042C7.06619 0.0759948 7.08402 0.0764822 7.09804 0.0766677C7.11236 0.0768528 7.63863 0.0767515 7.67409 0.0767664C7.87718 0.076857 8.13095 0.0772122 8.13032 0.0772436C8.19457 0.0788272 7.30748 0.0802875 7.60109 0.0818293C7.62337 0.0819503 8.17833 0.0818697 8.18745 0.0818882C8.41997 0.0823024 6.94446 0.0819758 6.45058 0.0822652C7.57676 0.0822233 7.37284 0.0823942 7.49635 0.0826859C7.55678 0.0828265 7.99285 0.08275 8.03749 0.0827628C8.69982 0.0829713 7.84433 0.0831165 7.66933 0.0831539C7.02556 0.083292 7.78621 0.0834423 7.35591 0.0835362C6.92883 0.0836301 6.29568 0.083414 6.30379 0.0836939C6.70692 0.0837723 7.76042 0.0835646 7.93117 0.083777C8.577 0.0845786 7.75043 0.086075 7.66456 0.0867195C7.57878 0.0873628 7.65315 0.0875705 7.50746 0.0879453C7.24403 0.0886224 8.02566 0.0883743 8.38343 0.0887947C8.74117 0.0892163 6.81799 0.0890113 6.40456 0.089072C5.99131 0.0891315 6.41671 0.0891964 6.18953 0.0892704C5.96241 0.0893442 5.68131 0.0891845 5.59603 0.089358C5.51083 0.0895316 6.24601 0.0900062 6.6783 0.0900677C7.59413 0.0901978 8.55534 0.0899839 8.2176 0.0904432C8.19756 0.0904697 7.69187 0.0903839 7.64076 0.0904851C7.25146 0.0912885 7.22733 0.0921231 6.88301 0.0929256C6.83488 0.0930359 6.27231 0.0929372 6.23793 0.0930014C5.87811 0.0936703 6.82666 0.0934312 7.88038 0.0937977C6.4781 0.0937155 5.62018 0.0939181 5.6119 0.0944257C5.60643 0.0947309 6.21888 0.0946783 6.65053 0.0948757C6.78065 0.0949349 6.36012 0.0951508 6.64815 0.0951899C7.58966 0.095319 8.64363 0.0951156 8.22395 0.0956389C8.20401 0.0956619 7.68864 0.0955888 7.65742 0.0956681C7.45313 0.0961809 8.43794 0.0962423 8.5572 0.0967967C8.65078 0.0972312 8.05026 0.098004 7.95259 0.0984987C6.37602 0.0984883 6.73703 0.0989556 7.82405 0.0991452C7.77955 0.0994663 7.841 0.0998131 7.69075 0.100123C7.63952 0.10023 7.18306 0.10016 7.13374 0.100174C6.36005 0.10038 7.4176 0.10052 7.45906 0.100589C7.86209 0.10134 7.06055 0.101952 7.84389 0.102669C7.8721 0.102694 8.96723 0.102736 8.16761 0.102927C8.1125 0.10294 7.61423 0.102703 7.5757 0.10304C7.53708 0.103377 6.95001 0.104013 7.45747 0.104481C7.57964 0.104595 8.46867 0.104881 7.77406 0.105111C7.67974 0.105142 7.36565 0.105109 7.19087 0.105153C6.63396 0.105296 7.74087 0.105374 6.80049 0.105542C5.86016 0.10571 5.15592 0.10606 5.80471 0.106532C5.82357 0.106547 6.7009 0.106659 6.68703 0.106807C6.66413 0.107044 6.48136 0.107381 6.48708 0.107628C6.49013 0.107747 7.03491 0.107671 7.04488 0.107692C7.35015 0.108488 6.86448 0.109056 6.6537 0.109909C6.61399 0.110066 7.35688 0.110515 6.76955 0.110818C6.12661 0.111151 3.45207 0.110809 4.08926 0.111574C4.34412 0.111882 7.73726 0.112273 5.97927 0.112827C6.41489 0.113902 5.51515 0.114896 6.13716 0.115974C6.16472 0.116022 7.11172 0.116175 7.09883 0.116289C7.07786 0.116459 6.63525 0.116551 6.6061 0.116672C6.47277 0.117178 6.85146 0.117642 6.79256 0.11813C6.77116 0.118315 6.3135 0.11825 6.28792 0.118471C6.26277 0.118692 6.86542 0.118839 6.57436 0.119138C6.3525 0.119364 5.12071 0.119591 4.97713 0.119891C6.19216 0.119902 6.16713 0.120108 6.48787 0.120474C6.5501 0.120545 6.973 0.120469 7.02425 0.120502C7.24221 0.120638 6.89172 0.120763 7.12898 0.120892C7.18597 0.120923 7.60091 0.120925 7.67091 0.12095C8.28199 0.121168 7.34862 0.121527 7.18611 0.121588C6.56892 0.121824 7.1086 0.121934 6.86556 0.122116C6.62254 0.122296 6.31875 0.122026 6.17128 0.122237C5.86626 0.122675 5.93327 0.123237 5.9142 0.123681C5.90916 0.123859 6.46304 0.123738 6.47518 0.123763C6.61566 0.12413 6.02649 0.124501 7.12978 0.124704C4.27708 0.124958 7.40647 0.124925 6.8354 0.125449C6.78922 0.12549 5.4402 0.125543 5.24215 0.125384C5.04429 0.125226 5.46597 0.124986 5.15725 0.124766C5.0848 0.124714 3.82068 0.124415 3.74411 0.124375C3.14565 0.124056 5.16158 0.124011 5.2723 0.123994C6.4672 0.123802 5.10535 0.123438 5.01125 0.123342C4.58007 0.122903 4.86358 0.12253 4.55581 0.122162C4.3569 0.121922 3.03639 0.121898 3.07681 0.12171C3.21041 0.121083 5.05252 0.120864 3.45529 0.120273C3.11463 0.120146 1.67136 0.120272 2.80624 0.119818C2.87779 0.11979 3.916 0.119452 3.25931 0.119258C3.17651 0.119233 2.75588 0.119234 2.72055 0.119202C2.49199 0.118986 2.82708 0.118841 2.66659 0.118606C2.50611 0.11837 2.26685 0.118087 2.40952 0.117818C2.49482 0.117656 3.2785 0.117448 3.47036 0.117371C4.02307 0.117152 3.11686 0.116917 3.78616 0.116781C4.45882 0.116644 5.48037 0.116912 5.915 0.116553C4.82219 0.11654 3.70054 0.116509 2.60153 0.116488C2.64001 0.115702 2.99338 0.114928 2.9451 0.114139C2.93802 0.114041 2.35052 0.114141 2.32779 0.114036C2.23446 0.113594 2.65326 0.113207 2.48648 0.112749C2.35513 0.112393 1.7331 0.112004 1.57639 0.111633C2.82687 0.111406 2.40236 0.110855 2.51663 0.110454C2.55612 0.110314 2.8901 0.110324 2.99905 0.110224C3.40202 0.109848 2.29698 0.110024 2.12308 0.109921C1.38089 0.109478 3.88208 0.10944 3.82028 0.108919C3.81785 0.108891 2.48461 0.108553 2.40158 0.108507C1.86019 0.108211 2.86563 0.108458 2.96414 0.108273C3.14416 0.107935 3.46256 0.1077 3.07205 0.107304C2.95638 0.107188 2.12539 0.106911 2.76816 0.106687C2.85232 0.106657 3.29301 0.106673 3.31881 0.10665C3.74901 0.106219 2.36432 0.106208 1.89536 0.105962C1.4265 0.105716 2.38237 0.105337 2.65787 0.105259C3.37055 0.105057 2.96244 0.105414 3.03238 0.105425C3.86468 0.105554 3.72139 0.105277 3.79171 0.105065C5.14942 0.105035 5.06792 0.104739 3.85916 0.104846C3.72713 0.104858 3.85374 0.105023 3.79171 0.105065C2.45962 0.104879 2.28902 0.104554 3.53384 0.104195C4.11727 0.104027 4.79752 0.104186 4.54867 0.103675C4.43633 0.103443 3.50148 0.103533 3.24661 0.103328C2.66509 0.102861 3.53715 0.102253 3.39975 0.101772C3.34986 0.101597 2.83813 0.101767 2.78641 0.101647C2.64753 0.10133 3.0315 0.101051 2.83481 0.100732C2.81634 0.100703 2.28066 0.100774 2.27383 0.100675C2.21162 0.0999236 2.55473 0.0992697 2.56424 0.0984856C2.56859 0.0981067 2.27315 0.0974294 2.33255 0.097037C2.43234 0.0963568 3.21129 0.09552 3.02206 0.0949389C2.90093 0.09456 2.36515 0.0946431 2.00009 0.0944807C1.29247 0.0941673 2.55999 0.0936127 2.75626 0.093538C2.76275 0.0935357 2.88906 0.0938618 3.16409 0.0936878C3.73717 0.0935866 2.75874 0.0935417 2.75626 0.093538C2.88305 0.0934889 3.00467 0.0928375 2.90225 0.0927081C2.84628 0.0926378 2.33865 0.0926771 2.31906 0.0926405C1.86478 0.0917694 1.73576 0.0908967 1.97312 0.0900132C1.98337 0.0899977 2.55118 0.0900211 2.56821 0.0899845C2.82067 0.089473 2.12606 0.0891455 1.71366 0.0887237C1.30144 0.0883019 1.4395 0.0879674 2.41428 0.0877177C2.29154 0.0873994 2.72249 0.0869429 2.98398 0.0866801C3.24546 0.0864174 2.14017 0.0863807 2.11832 0.0863576C1.41895 0.0856366 2.0516 0.0852197 2.15006 0.0844717C2.19876 0.084116 2.03844 0.0834106 1.91757 0.0830255C1.8202 0.0827212 2.07923 0.0825378 1.91361 0.0822574C1.89149 0.0822195 1.39935 0.0822578 1.38041 0.0822462C0.791597 0.0819332 1.99469 0.0820836 2.20957 0.082019C2.99094 0.0817848 3.4071 0.08164 3.03952 0.0812393C2.95534 0.0811468 1.22305 0.0808775 1.12174 0.080709C0.993201 0.08049 1.61412 0.0805726 1.46372 0.0803432C1.45142 0.0803236 1.06835 0.0803277 1.08524 0.0801861C1.1586 0.0795289 1.3815 0.0788124 1.34311 0.0781294C1.33934 0.0780361 0.731739 0.0781558 0.716284 0.078021C0.644261 0.0773885 0.666747 0.0766952 0.951146 0.0760791C1.02306 0.0759274 1.44848 0.0760225 1.5748 0.0759896C2.3391 0.0757874 1.22859 0.0755008 1.20743 0.0754535C0.673773 0.0743254 1.67877 0.0734619 1.20029 0.0723121C1.1722 0.0722495 -0.01829 0.0717677 1.00272 0.0715527C1.07065 0.071538 2.11525 0.0713253 1.40103 0.0711373C1.35635 0.0711256 0.818577 0.0712581 0.873388 0.0710269C0.928079 0.0707956 0.568956 0.0704235 1.15982 0.0701056C1.34596 0.0700049 2.38798 0.0697671 1.55735 0.0694669C1.49936 0.0694473 -0.378822 0.0689839 0.917028 0.0688184C1.13034 0.0687916 2.50164 0.0688197 1.79856 0.0684614C1.66225 0.0683929 1.35638 0.0685172 1.16538 0.0683369C0.87101 0.0680605 1.23829 0.0676944 0.627417 0.0673547C0.51927 0.0672955 -0.411488 0.0670433 0.294959 0.066841C0.405601 0.0668094 0.863413 0.0668696 0.914647 0.0667627C1.16041 0.0662548 0.854178 0.0657229 1.17093 0.0652071C1.28224 0.0650244 2.02234 0.0651178 2.22067 0.0649274C2.41894 0.0647369 2.60966 0.0643532 2.27145 0.0641539C1.9331 0.0639546 0.753544 0.0641723 0.659155 0.0638738C0.249216 0.0625756 0.941174 0.0612896 1.04239 0.0599934C1.05751 0.0598011 0.63543 0.0599605 0.627417 0.0596772C0.596016 0.0586327 0.20027 0.0568292 1.09714 0.0559228C1.81549 0.0551966 2.36237 0.0561105 2.65469 0.0555556C2.79414 0.0552878 1.42279 0.0549981 1.37961 0.0549334C0.941056 0.0543019 1.54854 0.053863 1.36216 0.0532946C1.32348 0.0531772 0.767657 0.0532923 0.740881 0.0531924C0.644489 0.0528512 0.892583 0.0524926 0.847204 0.0521665C0.825567 0.0520203 0.401049 0.0520472 0.433814 0.0519126C0.507322 0.0515905 0.685769 0.0513058 1.08365 0.0509918C1.11991 0.0509632 1.64799 0.0511561 1.66764 0.0509178C1.69792 0.0505322 2.09043 0.0500535 1.68509 0.0496098C1.56316 0.0494781 0.59293 0.049473 1.26297 0.04919C1.40292 0.0491306 2.56795 0.0492064 1.56131 0.0488767C1.39403 0.0488213 0.0362664 0.0482675 0.911473 0.0479958C1.14182 0.0479241 2.09517 0.0477411 1.94534 0.0475828C1.92144 0.0475613 1.40029 0.0476473 1.34946 0.0475161C1.17938 0.0470538 1.23498 0.0465693 1.07175 0.0460943C1.02713 0.0459674 0.487853 0.0461563 0.438575 0.0459673C0.302267 0.0454475 0.439577 0.0447984 0.608374 0.0442901C0.67163 0.0441026 1.11835 0.0442322 1.16697 0.0442186C1.95769 0.0439992 0.890394 0.0438696 0.828161 0.0437968C0.455513 0.0433441 0.956866 0.0429994 0.824193 0.0425822C0.788933 0.042467 0.280034 0.0425487 0.234657 0.0425257C-0.208712 0.042288 0.705204 0.0424651 0.805944 0.0423146C1.09119 0.0418931 1.05029 0.0414232 0.985265 0.0409968C0.960631 0.0408403 0.370551 0.0410163 0.355262 0.0408757C0.253581 0.040044 0.310045 0.0391793 0.635351 0.0383676C0.697674 0.0382148 1.15205 0.0383109 1.25583 0.0382791C1.98191 0.0380595 0.991532 0.0377378 0.897191 0.0376637C0.466432 0.0373271 0.868248 0.0371963 0.793249 0.0368991C0.419836 0.0354468 0.685964 0.0336536 0.850377 0.0322827C1.06198 0.0304963 1.49424 0.0291101 1.38199 0.0274066C1.37543 0.0272983 0.770963 0.0274075 0.757543 0.0273142C0.611826 0.0261092 0.848026 0.0249229 0.673437 0.0237155C0.660182 0.0236164 0.0871456 0.0237592 0.046608 0.0236002C-0.0405582 0.023274 -0.00941159 0.0228608 0.173561 0.022531C0.261721 0.0223701 0.753437 0.0225859 0.832128 0.022424C1.01648 0.022047 1.05729 0.0216428 0.965428 0.0212556C0.925086 0.0210908 0.339016 0.0213394 0.332252 0.0211252C0.274109 0.019666 0.173172 0.018233 0.932103 0.0167584C0.984226 0.0166573 2.17535 0.0165686 1.94693 0.0163537C1.61636 0.0163375 1.22751 0.0163384 0.874181 0.0163313C0.683849 0.0142071 1.09677 0.0121046 1.16062 0.00997447C1.16317 0.00988466 0.532056 0.0100399 0.533789 0.00986599C0.54312 0.00885962 0.368281 0.00788237 0.99558 0.00685297C1.05693 0.00675083 2.16722 0.00680323 1.9993 0.00650224C1.96866 0.00644916 1.82058 0.00599583 1.57956 0.00587862C1.54321 0.0058627 1.02497 0.00594541 1.00986 0.00579933C0.931165 0.00495043 1.04948 0.00406083 1.36612 0.0032134C1.41822 0.00307664 1.9701 0.00322229 2.01199 0.00312487C2.30496 0.00243387 1.88543 0.00168226 2.38651 0.00102198C2.7239 0.000580012 3.67787 0.000743642 4.61691 0.000508785C4.74939 0.000475567 4.77038 0.000201886 5.31673 0.000187733C6.69058 0.000151398 8.19493 0.000283961 9.65931 0.000229567C9.97473 0.000218075 9.635 -0.000148454 10.3972 6.85547e-05C10.4482 8.3715e-05 10.7012 0.000349451 10.9598 0.000414902C11.1386 0.000460471 11.6942 0.000378354 11.923 0.000471329C12.1517 0.000564297 11.6859 0.000666456 11.9548 0.000820595C12.227 0.000974665 12.8591 0.000906919 12.9339 0.00121461ZM4.15274 0.0854971C4.68354 0.0852538 2.73942 0.0852179 3.20456 0.085481C3.22935 0.0854938 4.1267 0.0855096 4.15274 0.0854971ZM4.4598 0.114932C5.31729 0.114614 4.05644 0.114397 3.39419 0.114621C2.73266 0.114845 4.19986 0.115029 4.4598 0.114932ZM5.08584 0.11823C5.76193 0.117859 3.0051 0.1178 3.5624 0.118198C3.5939 0.118221 5.04658 0.118252 5.08584 0.11823ZM4.8843 0.00159793C4.91012 0.00159457 4.93528 0.00139784 4.90969 0.00139314C4.29224 0.00128838 4.24236 0.00168177 4.8843 0.00159793ZM5.76742 0.121503C6.14034 0.121387 5.70984 0.121053 5.24612 0.121197C4.87306 0.121313 5.30352 0.121648 5.76742 0.121503ZM6.22762 0.0728063C6.25659 0.0728025 6.28268 0.0726614 6.11892 0.0726643C5.59148 0.0726738 5.74034 0.0728701 6.22762 0.0728063ZM5.79915 0.127066C5.90292 0.126244 8.1802 0.125745 7.92323 0.12664C7.87674 0.126802 7.19703 0.126291 6.99172 0.126497C6.61767 0.126875 8.04753 0.127125 7.28133 0.127511C7.14109 0.12758 5.78817 0.127112 5.79598 0.127064C5.79704 0.127065 5.7981 0.127065 5.79915 0.127066ZM6.48787 0.085357C6.51358 0.0853521 6.53796 0.0851569 6.51247 0.0851522C5.89527 0.0850465 5.8458 0.0854398 6.48787 0.085357ZM7.4297 0.0645762C7.48448 0.0645654 7.53572 0.0641123 7.48524 0.0640975C6.47595 0.0638611 6.36938 0.0647772 7.4297 0.0645762ZM7.91054 0.0985065C8.53144 0.0987195 8.60455 0.0989744 7.82484 0.0991442C7.86623 0.0989325 7.87233 0.0987194 7.91054 0.0985065Z" fill="#171717" fill-opacity="0.75"/>
<path d="M149.856 215.039L146.845 215.891C146.655 215.389 146.376 214.901 146.007 214.428C145.647 213.945 145.154 213.547 144.529 213.235C143.904 212.922 143.104 212.766 142.129 212.766C140.794 212.766 139.681 213.074 138.791 213.689C137.91 214.295 137.47 215.067 137.47 216.004C137.47 216.838 137.773 217.496 138.379 217.979C138.985 218.462 139.932 218.864 141.22 219.186L144.458 219.982C146.409 220.455 147.863 221.18 148.819 222.155C149.776 223.121 150.254 224.366 150.254 225.891C150.254 227.141 149.894 228.258 149.174 229.243C148.464 230.228 147.47 231.004 146.191 231.573C144.913 232.141 143.426 232.425 141.731 232.425C139.506 232.425 137.664 231.942 136.205 230.976C134.747 230.01 133.824 228.599 133.436 226.743L136.617 225.948C136.92 227.122 137.493 228.003 138.336 228.59C139.188 229.177 140.301 229.47 141.674 229.47C143.237 229.47 144.477 229.139 145.396 228.476C146.324 227.804 146.788 226.999 146.788 226.061C146.788 225.304 146.523 224.669 145.992 224.158C145.462 223.637 144.648 223.249 143.549 222.993L139.913 222.141C137.915 221.667 136.447 220.933 135.509 219.939C134.581 218.935 134.117 217.681 134.117 216.175C134.117 214.944 134.463 213.855 135.154 212.908C135.855 211.961 136.807 211.218 138.009 210.678C139.222 210.138 140.595 209.868 142.129 209.868C144.288 209.868 145.983 210.342 147.214 211.289C148.455 212.236 149.335 213.486 149.856 215.039ZM158.652 218.845V231.97H155.3V202.879H158.652V213.561H158.936C159.448 212.434 160.215 211.54 161.237 210.877C162.27 210.204 163.643 209.868 165.357 209.868C166.843 209.868 168.146 210.166 169.263 210.763C170.38 211.35 171.247 212.254 171.862 213.476C172.487 214.688 172.8 216.232 172.8 218.107V231.97H169.448V218.334C169.448 216.601 168.998 215.261 168.098 214.314C167.208 213.358 165.972 212.879 164.391 212.879C163.292 212.879 162.308 213.111 161.436 213.576C160.575 214.04 159.893 214.717 159.391 215.607C158.898 216.497 158.652 217.576 158.652 218.845ZM178.933 231.97V210.152H182.285V231.97H178.933ZM180.637 206.516C179.984 206.516 179.42 206.293 178.947 205.848C178.483 205.403 178.251 204.868 178.251 204.243C178.251 203.618 178.483 203.083 178.947 202.638C179.42 202.193 179.984 201.97 180.637 201.97C181.291 201.97 181.849 202.193 182.313 202.638C182.787 203.083 183.024 203.618 183.024 204.243C183.024 204.868 182.787 205.403 182.313 205.848C181.849 206.293 181.291 206.516 180.637 206.516ZM191.777 218.845V231.97H188.425V210.152H191.664V213.561H191.948C192.459 212.453 193.236 211.563 194.277 210.891C195.319 210.209 196.664 209.868 198.311 209.868C199.789 209.868 201.081 210.171 202.189 210.777C203.297 211.374 204.159 212.283 204.774 213.504C205.39 214.717 205.698 216.251 205.698 218.107V231.97H202.345V218.334C202.345 216.62 201.9 215.285 201.01 214.328C200.12 213.362 198.898 212.879 197.345 212.879C196.275 212.879 195.319 213.111 194.476 213.576C193.643 214.04 192.985 214.717 192.502 215.607C192.019 216.497 191.777 217.576 191.777 218.845ZM213.201 240.152C212.633 240.152 212.126 240.105 211.681 240.01C211.236 239.925 210.928 239.84 210.758 239.754L211.61 236.8C212.425 237.008 213.144 237.084 213.769 237.027C214.394 236.97 214.948 236.691 215.431 236.189C215.924 235.697 216.374 234.897 216.781 233.789L217.406 232.084L209.338 210.152H212.974L218.997 227.539H219.224L225.247 210.152H228.883L219.622 235.152C219.205 236.279 218.689 237.212 218.073 237.951C217.458 238.699 216.743 239.253 215.928 239.612C215.124 239.972 214.214 240.152 213.201 240.152Z" fill="black"/>
<path d="M92.8181 199.181C95.9422 198.959 100.037 198.948 103.204 199.015C104.166 199.036 103.683 199.291 104.357 199.316C105.731 199.363 106.905 199.207 108.232 199.273C108.657 199.297 108.141 199.692 108.589 199.708C111.139 199.79 113.391 199.619 115.985 199.613C120.653 199.607 125.31 199.564 129.984 199.501C137.617 199.399 145.408 199.237 153.23 199.108C157.361 199.039 162.459 199.235 166.716 198.971C167.219 198.939 166.91 198.616 167.005 198.586C168.497 198.128 168.025 198.81 168.993 198.873C172.857 199.123 177.177 199.048 180.899 198.837C182.479 198.747 180.877 198.123 182.481 198.458C182.592 198.48 182.197 198.841 182.633 198.869C183.62 198.932 185.505 198.829 186.259 198.842C187.729 198.868 187.973 198.859 189.368 198.836C191.288 198.808 193.533 198.942 195.584 198.828C196.021 198.802 195.436 198.451 196.133 198.378C196.834 198.305 198.667 198.307 199.291 198.382C199.913 198.458 199.653 198.746 199.764 198.809C200.675 199.344 202.801 198.554 203.073 198.532C208.065 198.145 212.36 198.536 217.054 198.505C220.614 198.481 224.425 198.326 227.82 198.348C231.858 198.376 235.284 198.587 239.21 198.588C239.626 198.589 239.143 198.16 239.651 198.16C245.004 198.161 250.389 198.294 255.719 198.716C256.259 198.759 255.553 199.114 256.091 199.179C259.37 199.566 264.517 200.478 266.545 198.94C268.78 199.092 271.466 199.281 273.448 199.713C274.711 199.991 273.457 200.33 275.021 200.241C275.374 200.222 274.932 199.842 275.469 199.841C277.774 199.84 280.147 200.106 282.423 200.087C282.877 200.082 282.777 199.755 282.909 199.708C284.005 199.321 285.748 200.232 286.141 200.322C289.058 200.985 291.266 201.034 294.025 201.357C294.677 201.434 293.956 200.92 294.584 200.98C295.412 201.061 296.23 201.153 297.032 201.255C299.519 201.572 301.939 202 304.211 202.559C304.921 202.733 304.196 202.97 304.529 203.072C306 203.523 306.37 202.895 307.796 203.354C308.09 203.45 307.853 203.718 307.9 203.763C308.635 204.477 309.509 203.904 309.724 203.94C312.575 204.414 314.02 205.659 316.636 206.512C316.944 206.616 316.387 205.976 317.27 206.302C320.185 207.418 323.14 208.844 325.581 211.397C328.077 213.854 329.069 217.97 328.163 221.109C327.91 222.086 327.768 221.315 327.72 221.373C326.948 222.218 327.471 223.011 327.392 223.338C326.735 225.813 325.013 227.454 324.938 229.331C324.155 230.52 323.352 231.67 322.56 232.805C317.601 239.906 312.696 247.087 306.403 253.077C306.311 253.166 306.182 252.745 306 252.922C303.799 255.033 304.621 254.99 303.735 256.957C303.503 257.459 301.793 257.955 301.651 258.002C301.133 258.186 301.105 257.425 300.955 257.51C299.725 258.219 301.185 259.396 299.813 260.69C299.768 260.728 299.715 260.309 299.577 260.392C299.146 260.649 298.884 261.075 298.449 261.312C297.455 261.843 296.575 261.427 295.662 262.903C295.544 263.091 296.48 263.688 295.157 264.727C294.686 265.102 292.77 266.658 291.876 267.275C291.78 267.343 291.695 267.4 291.626 267.444C290.92 267.894 291.173 267.277 291.116 267.301C289.06 268.276 289.628 267.616 288.348 267.725C287.065 267.828 288.232 268.932 287.96 269.339C287.69 269.746 286.142 270.362 285.74 270.477C285.34 270.593 285.628 270.137 285.296 270.275C283.09 271.183 284.875 271.499 284.371 272.136C283.173 273.64 281.339 273.43 279.873 274.223C279.475 274.438 279.929 274.467 279.602 274.702C278.306 275.631 277.303 275.825 275.935 277.055C275.712 277.256 274.825 278.619 273.745 278.663C273.592 278.669 273.769 278.223 273.154 278.515C272.236 278.952 270.635 279.824 269.745 280.456C269.087 280.923 270.125 280.875 269.175 281.254C268.754 281.422 269.332 280.761 268.552 281.096C267.775 281.43 265.92 282.505 265.211 282.914C264.509 283.322 265.075 283.421 265.03 283.474C264.749 283.795 263.466 284.712 263.346 284.776C263.028 284.955 262.709 285.132 262.396 285.303C256.567 288.476 250.675 290.401 244.588 292.569C244.082 292.747 244.539 293.004 244.463 293.035C242.758 293.74 243.833 292.335 242.516 292.381C242.918 293.073 242.156 293.163 240.939 293.598C240.352 293.807 240.759 294.005 240.713 294.051C239.942 294.743 239.164 294.335 238.973 294.261C238.27 293.986 237.759 294.659 237.282 294.471C236.809 294.283 237.625 293.631 236.434 293.93C236.163 294.282 237.229 294.775 236.342 295.111C232.989 296.417 226.349 297.048 223.535 297.394C220.722 297.762 219.821 297.931 218.171 298.054C217.894 298.074 217.652 298.095 217.441 298.118C215.368 298.329 216.167 298.701 214.501 299.104C212.653 299.53 213.444 298.115 213.151 297.855C212.866 297.593 212.608 297.91 212.271 297.779C211.936 297.647 212.618 297.4 211.857 297.398C211.101 297.402 209.055 298.021 208.794 298.327C208.246 298.981 209.22 299.62 207.169 299.448C207.051 299.437 207.422 299.077 206.973 299.053C203.412 298.869 199.724 298.737 196.215 298.23C195.733 298.16 196.196 297.805 195.917 297.759C193.013 297.264 194.004 298.003 192.316 298.568C192.778 297.637 191.952 296.969 189.751 296.689C188.426 296.517 188.6 296.965 187.699 297.144C187.428 297.198 186.529 296.775 186.331 296.947C185.674 297.507 186.453 298.369 184.208 297.727C184.11 297.698 184.485 297.396 184.142 297.32C182.232 296.89 181.69 297.294 180.012 297.192C179.742 297.174 179.443 297.143 179.108 297.09C177.173 296.805 173.902 295.584 171.822 294.865C172.174 293.836 170.156 293.467 169.11 293.894C167.77 293.401 166.311 292.897 165.074 292.281C164.646 292.068 165.056 291.894 165.013 291.84C164.375 291 163.526 291.429 163.232 291.333C160.061 290.252 157.893 288.537 154.85 287.501C154.74 287.463 154.221 288.045 153.74 287.145C153.711 287.086 154.79 287.291 153.505 286.545C152.21 285.796 149.996 284.033 148.042 283.313C147.968 283.286 147.871 283.261 147.758 283.235C147.151 283.094 146.073 282.906 145.535 282.133C145.451 282.009 145.686 281.893 145.577 281.692C145.22 281.044 144.542 281.54 144.225 280.611C143.906 279.681 142.802 278.492 140.772 277.872C140.706 277.85 139.984 278.142 139.415 277.815C138.513 277.295 137.277 276.471 136.32 275.955C135.861 275.708 135.974 276.199 135.891 276.162C132.715 274.682 130.672 273.223 127.387 271.402C126.785 271.067 124.79 270.651 123.769 269.708C122.731 268.755 124.486 267.811 122.225 266.848C122.067 266.782 121.882 266.713 121.665 266.633C120.667 266.303 117.693 267.037 116.877 264.376C113.484 261.102 111.729 256.99 109.014 253.123C108.894 252.951 107.987 252.677 107.754 252.238C107.404 251.575 107.479 251.073 107.243 250.596C106.263 248.595 105.089 246.905 104.149 244.977C103.794 244.248 104.205 244.358 103.78 243.48C103.361 242.611 102.696 242.218 102.287 240.947C101.983 239.992 102.306 238.724 101.81 237.495C101.67 237.554 101.544 237.576 101.424 237.564L101.43 237.576C100.883 237.508 100.506 236.756 99.792 235.628C99.6253 235.365 99.4954 235.787 99.4028 235.669C99.0177 235.186 99.0142 234.585 98.6339 234.132C98.5421 234.022 98.2767 234.132 98.1871 234.049C97.4082 233.337 97.3832 231.623 97.3839 231.328C97.3794 230.206 96.8523 229.897 96.714 229.092C96.5789 228.289 97.2088 229.318 96.966 228.418C96.4614 226.555 95.595 224.255 95.0115 222.395C94.7764 221.655 94.5739 222.276 94.5318 222.173C94.4908 222.068 94.4522 221.961 94.4156 221.854C93.9299 220.435 93.8046 218.945 92.8902 218.345C94.4773 216.722 92.4312 217.465 92.1907 215.133C92.1731 214.95 93.0112 214.478 93.3296 215.112C93.6477 215.744 93.6523 216.838 94.1259 217.703C94.2368 217.91 95.4444 218.911 95.5466 219.062C96.3423 220.265 95.0726 220.864 95.0207 220.958C94.897 221.198 94.8743 221.448 94.9156 221.695C95.0542 222.53 95.9199 223.32 96.0708 223.607C96.9654 225.32 97.3445 226.906 98.1264 228.315C98.6389 229.236 99.5252 228.985 99.8079 229.747C100.761 232.273 99.993 233.675 102.068 235.555C102.479 235.927 103.081 235.177 103.271 236.712L103.247 236.664C103.268 236.797 103.285 236.948 103.299 237.117C103.311 237.252 103.321 238.896 104.109 239.457C104.208 239.527 104.467 239.394 104.551 239.509C105.118 240.291 105.188 240.95 105.754 241.825C106.314 242.69 107.024 243.722 107.472 244.806C107.744 245.463 107.678 246.51 107.72 246.875C107.825 247.901 108.863 248.512 108.731 249.245C108.608 249.995 107.425 249.299 107.913 250.826C108.605 250.515 109.349 250.258 110.061 249.973C111.676 252.968 113.139 255.972 115.064 258.701C115.304 259.036 115.397 258.46 115.66 258.808C116.772 260.266 117.524 261.713 118.86 262.955C119.891 263.907 121.286 264.538 122.346 265.02C122.388 265.291 122.539 265.537 122.746 265.739C123.709 266.512 125.326 267.119 126.503 267.765C127.051 268.065 126.911 268.254 127.274 268.518C128.644 269.512 128.284 268.479 128.749 268.577C130.74 269.006 130.101 270.623 132.168 271.649C132.277 271.703 134.03 271.581 134.241 271.629C135.575 271.913 134.281 272.013 134.974 272.459C136.235 273.274 137.043 273.961 138.71 274.567C139.195 274.741 140.549 274.831 141.2 275.704C141.286 275.818 141.074 276.049 141.157 276.116C142.667 277.3 143.183 276.493 144.287 276.743C145.394 276.995 146.525 278.4 146.724 278.733C147.254 279.604 146.029 278.58 145.96 278.596C145.183 278.818 146.293 279.335 147.077 279.838C146.731 280.723 147.887 281.319 147.893 280.358C147.889 280.251 147.222 279.97 147.077 279.838C147.849 279.58 148.671 279.752 149.414 280.337C149.802 280.643 150.17 281.063 150.495 281.592C150.928 282.31 150.091 282.371 152.118 283.344C153.031 283.78 153.024 283.03 153.878 283.314C155.839 283.971 157.853 285.756 159.753 286.598C160.444 286.905 159.944 286.26 160.421 286.457C161.681 286.973 162.648 287.723 163.949 288.151C164.067 288.189 163.941 287.728 164.33 287.895C167.269 289.133 169.777 290.337 172.956 291.31C174.492 291.79 177.31 292.299 178.922 292.66C179.51 292.796 180.11 292.947 180.737 293.104C183.171 293.712 185.782 294.446 187.772 294.618C189.409 294.759 189.101 294.339 189.827 294.179C191.223 293.869 193.491 294.991 193.804 295.153C193.813 295.16 192.405 295.104 193.132 295.37C193.528 295.809 193.788 295.153 193.804 295.153C194.005 295.269 196.796 295.591 197.357 295.549C197.661 295.531 197.516 295.169 197.674 295.165C201.422 295.095 205.126 295.065 208.889 295.062C208.956 295.066 208.873 295.463 209.03 295.468C211.224 295.538 212.59 294.944 214.339 294.479C215.292 294.224 216.141 294.078 216.906 294.08C217.561 294.08 218.153 294.189 218.685 294.426C220.048 294.154 222.054 294.163 223.21 294.165C224.368 294.168 224.402 293.384 224.499 293.354C227.496 292.37 229.335 292.483 232.499 291.881C234.003 291.6 236.923 290.787 238.486 290.269C239.722 289.864 240.526 289.82 241.639 289.365C241.789 289.304 241.534 289.025 241.577 288.998C242.73 288.218 242.364 289.2 242.672 289.261C243.787 289.476 244.48 289.561 246.022 288.756C246.383 288.57 247.054 287.055 247.695 286.737C248.528 286.326 248.356 286.853 249.226 286.401C249.3 286.362 249.187 286.123 249.746 285.911C252.346 284.922 255.174 283.804 257.736 282.456C258.086 282.273 257.444 282.131 257.945 281.86C258.592 281.508 259.243 281.151 259.912 280.781C261.714 279.788 263.586 278.787 265.344 277.942C265.942 277.655 265.729 278.117 265.897 278.121C266.924 278.141 267.62 276.846 267.788 276.73C271.832 273.93 275.409 272.573 279.428 269.598C279.648 269.435 280.94 267.611 282.098 267.685C282.176 267.69 283.346 267.778 283.735 266.914C283.758 266.861 283.079 266.874 283.922 266.344C284.764 265.814 285.922 264.701 287.244 264.237C287.561 264.126 288.361 264.083 289.003 263.533C289.211 263.355 289.404 263.125 289.562 262.827C289.612 262.742 290.333 260.511 291.435 260.758C291.614 260.799 292.136 261.611 292.989 260.254C293.15 259.994 292.612 260.175 293.107 259.577C293.862 258.662 295.191 257.821 295.951 256.53C296.087 256.302 296.412 255.109 297.358 254.867C297.508 254.828 297.547 255.234 297.896 254.941C299.551 253.554 300.958 251.772 302.591 250.286C303.167 249.76 303.283 250.4 303.931 249.876C304.572 249.363 305.759 248.186 306.127 247.381C306.497 246.573 305.275 246.766 306.04 245.742C309.355 241.281 313.031 237.104 316.295 232.529C316.778 231.85 316.144 232.256 316.841 231.233C317.167 230.755 317.522 230.222 317.903 229.646C320.56 225.826 323.088 220.774 323.332 218.809C323.543 217.851 323.716 217.921 323.936 218.091C324.133 218.259 324.333 218.526 324.305 217.681C324.246 216.815 322.994 216.465 322.894 216.36C321.812 215.103 320.886 213.829 319.005 212.855C318.612 212.66 318.794 213.207 318.462 213.041C317.334 212.489 316.154 211.774 314.895 211.326C314.36 211.14 314.358 211.452 313.86 211.25C312.62 210.758 311.581 210.312 310.403 209.701C310.296 209.645 311.156 209.502 310.217 209.231C308.649 208.783 306.714 208.058 304.842 207.975C304.274 207.95 304.143 208.605 303.004 207.925C302.777 207.787 303.241 207.045 301.751 207.496C301.503 207.567 298.999 208.117 297.957 207.365C297.69 207.174 297.044 206.474 296.361 206.417C296.329 206.414 296.296 206.413 296.263 206.414C296.172 206.419 296.483 206.823 295.934 206.787C293.988 206.657 291.867 206.383 289.82 206.295C289.263 206.272 290.052 206.724 289.222 206.678C286.99 206.556 284.147 206.227 281.989 205.954C281.177 205.852 281.762 205.584 281.706 205.546C280.788 204.932 280.16 205.63 279.836 205.652C277.887 205.781 276.385 205.343 274.557 205.334C274.061 205.331 274.393 205.702 274.293 205.728C273.253 205.979 274.05 205.389 273.403 205.284C271.585 204.991 269.507 204.921 267.662 204.889C266.977 204.877 267.73 205.317 267.115 205.302C263.462 205.221 259.7 205.06 256.159 204.742C255.488 204.682 255.919 204.378 255.781 204.303C254.818 203.775 253.406 204.428 253.082 204.486C251.608 204.752 251.04 204.462 249.728 204.489C243.372 204.623 235.516 204.373 229.503 204.252C221.669 204.095 215.581 203.833 208.106 203.991C207.63 204.001 208.115 204.414 207.705 204.428C202.42 204.588 197.208 204.504 191.913 204.721C191.48 204.739 192.112 205.124 191.417 205.165C189.985 205.251 188.163 205.265 186.719 205.168C186.014 205.121 186.951 204.762 186.241 204.722C184.594 204.628 182.796 204.638 181.108 204.74C180.388 204.784 181.484 205.165 180.548 205.191C174.137 205.376 167.846 205.609 161.359 205.267C160.912 205.243 160.497 204.43 159.562 204.615C159.498 204.846 159.51 205.115 159.486 205.361C150.175 205.761 140.966 205.774 131.553 206.045C131.162 206.056 131.85 206.47 131.097 206.494C130.801 206.503 130.509 206.513 130.219 206.524C126.075 206.669 122.069 206.88 117.84 206.616C117.394 206.589 117.584 205.813 116.3 205.972C116.063 206.002 114.041 206.172 113.563 206.354C113.496 206.382 113.863 206.729 113.236 206.76C109.514 206.939 105.554 206.989 101.857 206.892C101.274 206.876 101.889 206.473 101.459 206.458C98.3862 206.358 95.1126 206.757 92.2106 206.507C90.2557 206.338 90.9491 205.654 89.9057 205.038C89.7378 204.952 88.5575 204.977 88.4737 204.601C88.2832 203.656 88.8294 202.596 88.5633 201.59C88.5319 201.482 88.1171 201.5 87.8297 201.475C87.7072 201.462 87.5185 201.44 87.6141 201.382C87.5394 201.328 87.5994 201.243 87.8433 201.103C87.8996 201.066 89.0553 200.852 89.346 200.663C89.5338 200.533 89.1689 200.161 89.5659 199.989C89.9826 199.817 90.4111 200.125 91.1095 199.916C91.7525 199.706 91.4571 199.278 92.8181 199.181ZM228.418 294.107C229.528 294.275 229.429 292.923 228.368 293.449C228.317 293.476 228.361 294.099 228.418 294.107ZM112.328 256.438C112.554 257.922 113.811 258.227 113.668 257.173C113.534 256.122 112.261 255.988 112.328 256.438ZM105.002 244.048C105.327 245.713 107.142 245.069 106.006 243.694C105.94 243.615 104.983 243.951 105.002 244.048ZM94.6714 204.695C94.651 204.678 93.8113 204.688 93.7753 204.707C93.3314 205.149 95.0523 205.127 94.6714 204.695ZM98.4347 231.294C98.3922 231.864 99.2475 233.09 99.2916 232.383C99.3256 231.816 98.4854 230.587 98.4347 231.294ZM279.484 273.692C279.509 273.7 280.042 273.383 279.97 273.295C279.739 273.009 279.067 273.557 279.484 273.692ZM91.0123 208.088C91.8907 211.594 90.9425 214.121 90.0834 210.277C89.928 209.582 90.9707 211.627 90.8703 210.715C90.6858 209.046 89.4422 208.242 89.5063 206.471C89.5195 206.151 90.9658 207.887 91.0161 208.094C91.0148 208.092 91.0136 208.09 91.0123 208.088ZM229.316 295.584C229.341 295.598 230.186 295.454 230.203 295.433C230.577 294.926 228.878 295.216 229.316 295.584ZM307.653 251.096C307.713 251.091 309.039 249.586 309.05 249.513C309.187 248.273 306.526 251.292 307.653 251.096ZM171.797 294.827C170.764 294.964 169.657 294.655 169.114 293.896C169.999 294.231 170.898 294.526 171.797 294.827Z" fill="#0F0F0F" fill-opacity="0.75"/>
<path d="M130.265 264.425C128.22 264.425 126.458 263.942 124.981 262.976C123.504 262.01 122.367 260.68 121.572 258.985C120.776 257.29 120.379 255.353 120.379 253.175C120.379 250.959 120.786 249.004 121.6 247.308C122.424 245.604 123.57 244.273 125.038 243.317C126.515 242.351 128.239 241.868 130.208 241.868C131.742 241.868 133.125 242.152 134.356 242.72C135.587 243.289 136.596 244.084 137.382 245.107C138.168 246.129 138.655 247.323 138.845 248.686H135.492C135.237 247.692 134.669 246.811 133.788 246.044C132.917 245.268 131.742 244.879 130.265 244.879C128.958 244.879 127.812 245.22 126.828 245.902C125.852 246.575 125.09 247.526 124.541 248.757C124.001 249.979 123.731 251.414 123.731 253.061C123.731 254.747 123.996 256.215 124.526 257.465C125.066 258.715 125.824 259.685 126.799 260.377C127.784 261.068 128.939 261.414 130.265 261.414C131.136 261.414 131.927 261.262 132.637 260.959C133.348 260.656 133.949 260.22 134.441 259.652C134.934 259.084 135.284 258.402 135.492 257.607H138.845C138.655 258.895 138.187 260.055 137.438 261.087C136.7 262.11 135.72 262.924 134.498 263.53C133.286 264.127 131.875 264.425 130.265 264.425ZM152.609 264.425C150.639 264.425 148.911 263.956 147.424 263.019C145.947 262.081 144.792 260.77 143.958 259.084C143.134 257.398 142.723 255.429 142.723 253.175C142.723 250.902 143.134 248.918 143.958 247.223C144.792 245.528 145.947 244.212 147.424 243.274C148.911 242.337 150.639 241.868 152.609 241.868C154.579 241.868 156.302 242.337 157.779 243.274C159.266 244.212 160.421 245.528 161.245 247.223C162.079 248.918 162.495 250.902 162.495 253.175C162.495 255.429 162.079 257.398 161.245 259.084C160.421 260.77 159.266 262.081 157.779 263.019C156.302 263.956 154.579 264.425 152.609 264.425ZM152.609 261.414C154.105 261.414 155.336 261.03 156.302 260.263C157.268 259.496 157.983 258.487 158.447 257.237C158.911 255.987 159.143 254.633 159.143 253.175C159.143 251.717 158.911 250.358 158.447 249.098C157.983 247.839 157.268 246.821 156.302 246.044C155.336 245.268 154.105 244.879 152.609 244.879C151.113 244.879 149.882 245.268 148.916 246.044C147.95 246.821 147.235 247.839 146.771 249.098C146.307 250.358 146.075 251.717 146.075 253.175C146.075 254.633 146.307 255.987 146.771 257.237C147.235 258.487 147.95 259.496 148.916 260.263C149.882 261.03 151.113 261.414 152.609 261.414ZM181.362 255.05V242.152H184.715V263.97H181.362V260.277H181.135C180.624 261.385 179.828 262.327 178.749 263.104C177.669 263.871 176.306 264.254 174.658 264.254C173.294 264.254 172.082 263.956 171.022 263.36C169.961 262.754 169.128 261.844 168.522 260.632C167.915 259.411 167.612 257.872 167.612 256.016V242.152H170.965V255.789C170.965 257.379 171.41 258.648 172.3 259.595C173.2 260.542 174.345 261.016 175.737 261.016C176.571 261.016 177.418 260.803 178.28 260.377C179.151 259.951 179.88 259.297 180.468 258.416C181.064 257.536 181.362 256.414 181.362 255.05ZM190.855 263.97V242.152H194.093V245.448H194.321C194.718 244.368 195.438 243.492 196.48 242.82C197.521 242.147 198.696 241.811 200.002 241.811C200.249 241.811 200.556 241.816 200.926 241.826C201.295 241.835 201.574 241.849 201.764 241.868V245.277C201.65 245.249 201.39 245.206 200.982 245.149C200.585 245.083 200.163 245.05 199.718 245.05C198.658 245.05 197.711 245.272 196.877 245.718C196.053 246.153 195.4 246.759 194.917 247.536C194.444 248.303 194.207 249.179 194.207 250.164V263.97H190.855ZM213.937 264.425C211.967 264.425 210.239 263.956 208.752 263.019C207.275 262.081 206.12 260.77 205.286 259.084C204.463 257.398 204.051 255.429 204.051 253.175C204.051 250.902 204.463 248.918 205.286 247.223C206.12 245.528 207.275 244.212 208.752 243.274C210.239 242.337 211.967 241.868 213.937 241.868C215.907 241.868 217.63 242.337 219.107 243.274C220.594 244.212 221.75 245.528 222.573 247.223C223.407 248.918 223.823 250.902 223.823 253.175C223.823 255.429 223.407 257.398 222.573 259.084C221.75 260.77 220.594 262.081 219.107 263.019C217.63 263.956 215.907 264.425 213.937 264.425ZM213.937 261.414C215.433 261.414 216.664 261.03 217.63 260.263C218.596 259.496 219.311 258.487 219.775 257.237C220.239 255.987 220.471 254.633 220.471 253.175C220.471 251.717 220.239 250.358 219.775 249.098C219.311 247.839 218.596 246.821 217.63 246.044C216.664 245.268 215.433 244.879 213.937 244.879C212.441 244.879 211.21 245.268 210.244 246.044C209.278 246.821 208.563 247.839 208.099 249.098C207.635 250.358 207.403 251.717 207.403 253.175C207.403 254.633 207.635 255.987 208.099 257.237C208.563 258.487 209.278 259.496 210.244 260.263C211.21 261.03 212.441 261.414 213.937 261.414ZM232.293 250.845V263.97H228.941V242.152H232.179V245.561H232.463C232.975 244.453 233.751 243.563 234.793 242.891C235.834 242.209 237.179 241.868 238.827 241.868C240.304 241.868 241.597 242.171 242.705 242.777C243.813 243.374 244.674 244.283 245.29 245.504C245.906 246.717 246.213 248.251 246.213 250.107V263.97H242.861V250.334C242.861 248.62 242.416 247.285 241.526 246.328C240.636 245.362 239.414 244.879 237.861 244.879C236.791 244.879 235.834 245.111 234.992 245.576C234.158 246.04 233.5 246.717 233.017 247.607C232.534 248.497 232.293 249.576 232.293 250.845ZM255.691 250.845V263.97H252.339V242.152H255.578V245.561H255.862C256.373 244.453 257.15 243.563 258.191 242.891C259.233 242.209 260.578 241.868 262.225 241.868C263.703 241.868 264.995 242.171 266.103 242.777C267.211 243.374 268.073 244.283 268.688 245.504C269.304 246.717 269.612 248.251 269.612 250.107V263.97H266.259V250.334C266.259 248.62 265.814 247.285 264.924 246.328C264.034 245.362 262.812 244.879 261.259 244.879C260.189 244.879 259.233 245.111 258.39 245.576C257.557 246.04 256.899 246.717 256.416 247.607C255.933 248.497 255.691 249.576 255.691 250.845ZM284.885 264.425C282.783 264.425 280.969 263.961 279.445 263.033C277.93 262.095 276.76 260.789 275.936 259.112C275.122 257.427 274.715 255.467 274.715 253.232C274.715 250.997 275.122 249.027 275.936 247.323C276.76 245.609 277.906 244.273 279.374 243.317C280.851 242.351 282.575 241.868 284.544 241.868C285.681 241.868 286.803 242.058 287.911 242.436C289.019 242.815 290.027 243.431 290.936 244.283C291.845 245.126 292.57 246.243 293.11 247.635C293.649 249.027 293.919 250.741 293.919 252.777V254.198H277.101V251.3H290.51C290.51 250.069 290.264 248.97 289.772 248.004C289.289 247.039 288.597 246.276 287.698 245.718C286.808 245.159 285.756 244.879 284.544 244.879C283.209 244.879 282.054 245.211 281.078 245.874C280.112 246.527 279.369 247.379 278.848 248.431C278.327 249.482 278.067 250.609 278.067 251.811V253.743C278.067 255.391 278.351 256.788 278.919 257.933C279.497 259.07 280.297 259.936 281.32 260.533C282.343 261.12 283.531 261.414 284.885 261.414C285.766 261.414 286.561 261.29 287.272 261.044C287.991 260.789 288.611 260.41 289.132 259.908C289.653 259.397 290.056 258.762 290.34 258.004L293.578 258.914C293.237 260.012 292.665 260.978 291.86 261.811C291.055 262.635 290.06 263.279 288.877 263.743C287.693 264.198 286.362 264.425 284.885 264.425Z" fill="black"/>
</svg>
