<svg width="379" height="284" viewBox="0 0 379 284" fill="none" xmlns="http://www.w3.org/2000/svg">
<path d="M12.9339 0.00121461C13.1032 0.00192919 12.9222 0.00286588 12.6736 0.00357775C12.5966 0.00380085 12.252 0.00368788 12.1833 0.00384189C12.0493 0.0041431 12.2183 0.00442372 12.0587 0.00472138C12.0041 0.00482002 11.4584 0.00469723 11.4136 0.00480067C11.1724 0.00536749 11.3115 0.00590372 11.1954 0.00647792C10.623 0.00930623 10.4182 0.0120864 10.1695 0.0149493C10.088 0.0158933 9.59266 0.0170408 9.80927 0.0180158C9.83505 0.0181297 10.3141 0.0180618 10.3536 0.0180835C10.958 0.0184231 9.99093 0.0183102 9.86243 0.018532C9.3551 0.0194122 9.31098 0.020391 9.49586 0.021238C9.57592 0.0215984 10.5274 0.0212371 9.99335 0.0216C9.95727 0.0216251 9.44855 0.0215337 9.3943 0.0216325C9.27226 0.0218567 9.36319 0.0222819 9.32288 0.0224556C9.24263 0.0227904 9.24775 0.0228458 9.24195 0.0231624C9.2296 0.0235953 8.97672 0.0241101 9.09199 0.0245745C9.11811 0.0246737 9.6396 0.0245424 9.72834 0.0247005C9.81694 0.0248588 9.77272 0.0252774 9.64979 0.0254185C9.52679 0.0255597 9.11691 0.0254996 9.02296 0.0255246C8.22998 0.0257301 9.32826 0.0262143 9.35542 0.0262766C9.81821 0.0274126 9.19256 0.0283868 9.19435 0.0294531C9.19703 0.0302626 9.40358 0.0311282 9.37525 0.0318984C9.33949 0.0328161 9.0569 0.0335938 9.10548 0.0344853C9.11 0.0345794 9.72316 0.0344692 9.72993 0.0345841C9.80128 0.0358049 9.73444 0.0370173 9.3205 0.0382329C9.27845 0.0383548 8.74011 0.0381977 8.6659 0.0383195C8.22348 0.0390652 7.16068 0.0402451 9.50459 0.040688C9.41306 0.0411931 9.3185 0.0418063 8.84602 0.0422582C8.54192 0.0425496 7.95545 0.0422666 8.2057 0.0426245C8.26146 0.0427052 8.77506 0.0426002 8.81983 0.0427213C9.00786 0.043231 8.8409 0.0437878 9.10627 0.044292C9.16146 0.0443946 9.62166 0.0443666 9.70454 0.0443956C10.3757 0.0446398 9.26623 0.0450464 9.18562 0.045135C8.58445 0.0458099 8.82102 0.0463027 8.80635 0.0469314C8.80268 0.0470773 9.42084 0.0469049 9.43952 0.0470453C9.52812 0.0477734 9.47499 0.0485276 9.20069 0.0492406C9.13819 0.0493992 8.61163 0.0492533 8.55482 0.0493291C8.31074 0.0496633 9.30529 0.0497373 9.0904 0.0500578C9.04638 0.0501254 8.5956 0.0500873 8.54609 0.0500996C7.76894 0.0502925 8.87011 0.0504601 8.89442 0.0505097C9.2266 0.0511373 8.07704 0.0515384 8.23982 0.0521446C8.26045 0.0522172 8.83082 0.0520536 8.85395 0.0522575C9.01141 0.0536157 8.85472 0.0550522 8.39851 0.0563966C8.32835 0.0566057 7.89988 0.0564565 7.84706 0.0564696C7.02177 0.056684 8.12756 0.0568227 8.1692 0.0568909C8.46897 0.0574286 7.54164 0.0579309 8.85871 0.0582962C8.40164 0.0605734 9.14125 0.0628402 7.96132 0.0650986C7.94765 0.0651273 7.40305 0.0650759 7.37813 0.0651331C7.07234 0.0658229 7.91875 0.0656905 8.95393 0.0661469C9.21387 0.0662619 7.96406 0.0666116 7.87245 0.0666426C7.53486 0.0667553 6.72464 0.0666384 6.65926 0.0666761C6.14587 0.0669886 8.82532 0.0669376 8.82618 0.0673591C8.82171 0.0673723 8.32853 0.0673169 8.27949 0.0673523C8.12554 0.0674622 8.32151 0.0675712 8.15175 0.0676787C7.75891 0.0679248 6.45693 0.0680125 7.21468 0.0683884C7.31302 0.068436 8.83292 0.0683633 8.76112 0.0687396C8.73121 0.0688897 8.75726 0.0695537 8.65876 0.0697398C8.56039 0.0699256 8.0706 0.069798 8.04939 0.0698113C7.40173 0.0703121 7.13331 0.0701222 6.17446 0.0703731C5.21922 0.070624 7.49755 0.0705544 7.75184 0.0706567C8.00542 0.0707592 7.47106 0.0711264 7.28529 0.0712166C7.09945 0.0713068 6.78823 0.0711943 6.68306 0.0712745C5.99596 0.0718062 7.81394 0.0715079 8.17555 0.0716831C9.03177 0.0720962 7.34215 0.0724179 7.17659 0.0727961C7.13188 0.0728984 7.5167 0.0728149 7.55269 0.072906C7.69012 0.0732669 7.16292 0.0734839 7.64632 0.0738945C7.72509 0.0739616 8.74093 0.0742935 7.99544 0.0745084C7.88794 0.0745388 7.46689 0.0744523 7.37257 0.0746061C7.23103 0.0748359 7.139 0.0752498 7.27974 0.0754968C7.38387 0.0756791 8.07766 0.0754702 7.86213 0.0756996C7.7659 0.0758017 7.36003 0.0756126 7.21309 0.0758042C7.06619 0.0759948 7.08402 0.0764822 7.09804 0.0766677C7.11236 0.0768528 7.63863 0.0767515 7.67409 0.0767664C7.87718 0.076857 8.13095 0.0772122 8.13032 0.0772436C8.19457 0.0788272 7.30748 0.0802875 7.60109 0.0818293C7.62337 0.0819503 8.17833 0.0818697 8.18745 0.0818882C8.41997 0.0823024 6.94446 0.0819758 6.45058 0.0822652C7.57676 0.0822233 7.37284 0.0823942 7.49635 0.0826859C7.55678 0.0828265 7.99285 0.08275 8.03749 0.0827628C8.69982 0.0829713 7.84433 0.0831165 7.66933 0.0831539C7.02556 0.083292 7.78621 0.0834423 7.35591 0.0835362C6.92883 0.0836301 6.29568 0.083414 6.30379 0.0836939C6.70692 0.0837723 7.76042 0.0835646 7.93117 0.083777C8.577 0.0845786 7.75043 0.086075 7.66456 0.0867195C7.57878 0.0873628 7.65315 0.0875705 7.50746 0.0879453C7.24403 0.0886224 8.02566 0.0883743 8.38343 0.0887947C8.74117 0.0892163 6.81799 0.0890113 6.40456 0.089072C5.99131 0.0891315 6.41671 0.0891964 6.18953 0.0892704C5.96241 0.0893442 5.68131 0.0891845 5.59603 0.089358C5.51083 0.0895316 6.24601 0.0900062 6.6783 0.0900677C7.59413 0.0901978 8.55534 0.0899839 8.2176 0.0904432C8.19756 0.0904697 7.69187 0.0903839 7.64076 0.0904851C7.25146 0.0912885 7.22733 0.0921231 6.88301 0.0929256C6.83488 0.0930359 6.27231 0.0929372 6.23793 0.0930014C5.87811 0.0936703 6.82666 0.0934312 7.88038 0.0937977C6.4781 0.0937155 5.62018 0.0939181 5.6119 0.0944257C5.60643 0.0947309 6.21888 0.0946783 6.65053 0.0948757C6.78065 0.0949349 6.36012 0.0951508 6.64815 0.0951899C7.58966 0.095319 8.64363 0.0951156 8.22395 0.0956389C8.20401 0.0956619 7.68864 0.0955888 7.65742 0.0956681C7.45313 0.0961809 8.43794 0.0962423 8.5572 0.0967967C8.65078 0.0972312 8.05026 0.098004 7.95259 0.0984987C6.37602 0.0984883 6.73703 0.0989556 7.82405 0.0991452C7.77955 0.0994663 7.841 0.0998131 7.69075 0.100123C7.63952 0.10023 7.18306 0.10016 7.13374 0.100174C6.36005 0.10038 7.4176 0.10052 7.45906 0.100589C7.86209 0.10134 7.06055 0.101952 7.84389 0.102669C7.8721 0.102694 8.96723 0.102736 8.16761 0.102927C8.1125 0.10294 7.61423 0.102703 7.5757 0.10304C7.53708 0.103377 6.95001 0.104013 7.45747 0.104481C7.57964 0.104595 8.46867 0.104881 7.77406 0.105111C7.67974 0.105142 7.36565 0.105109 7.19087 0.105153C6.63396 0.105296 7.74087 0.105374 6.80049 0.105542C5.86016 0.10571 5.15592 0.10606 5.80471 0.106532C5.82357 0.106547 6.7009 0.106659 6.68703 0.106807C6.66413 0.107044 6.48136 0.107381 6.48708 0.107628C6.49013 0.107747 7.03491 0.107671 7.04488 0.107692C7.35015 0.108488 6.86448 0.109056 6.6537 0.109909C6.61399 0.110066 7.35688 0.110515 6.76955 0.110818C6.12661 0.111151 3.45207 0.110809 4.08926 0.111574C4.34412 0.111882 7.73726 0.112273 5.97927 0.112827C6.41489 0.113902 5.51515 0.114896 6.13716 0.115974C6.16472 0.116022 7.11172 0.116175 7.09883 0.116289C7.07786 0.116459 6.63525 0.116551 6.6061 0.116672C6.47277 0.117178 6.85146 0.117642 6.79256 0.11813C6.77116 0.118315 6.3135 0.11825 6.28792 0.118471C6.26277 0.118692 6.86542 0.118839 6.57436 0.119138C6.3525 0.119364 5.12071 0.119591 4.97713 0.119891C6.19216 0.119902 6.16713 0.120108 6.48787 0.120474C6.5501 0.120545 6.973 0.120469 7.02425 0.120502C7.24221 0.120638 6.89172 0.120763 7.12898 0.120892C7.18597 0.120923 7.60091 0.120925 7.67091 0.12095C8.28199 0.121168 7.34862 0.121527 7.18611 0.121588C6.56892 0.121824 7.1086 0.121934 6.86556 0.122116C6.62254 0.122296 6.31875 0.122026 6.17128 0.122237C5.86626 0.122675 5.93327 0.123237 5.9142 0.123681C5.90916 0.123859 6.46304 0.123738 6.47518 0.123763C6.61566 0.12413 6.02649 0.124501 7.12978 0.124704C4.27708 0.124958 7.40647 0.124925 6.8354 0.125449C6.78922 0.12549 5.4402 0.125543 5.24215 0.125384C5.04429 0.125226 5.46597 0.124986 5.15725 0.124766C5.0848 0.124714 3.82068 0.124415 3.74411 0.124375C3.14565 0.124056 5.16158 0.124011 5.2723 0.123994C6.4672 0.123802 5.10535 0.123438 5.01125 0.123342C4.58007 0.122903 4.86358 0.12253 4.55581 0.122162C4.3569 0.121922 3.03639 0.121898 3.07681 0.12171C3.21041 0.121083 5.05252 0.120864 3.45529 0.120273C3.11463 0.120146 1.67136 0.120272 2.80624 0.119818C2.87779 0.11979 3.916 0.119452 3.25931 0.119258C3.17651 0.119233 2.75588 0.119234 2.72055 0.119202C2.49199 0.118986 2.82708 0.118841 2.66659 0.118606C2.50611 0.11837 2.26685 0.118087 2.40952 0.117818C2.49482 0.117656 3.2785 0.117448 3.47036 0.117371C4.02307 0.117152 3.11686 0.116917 3.78616 0.116781C4.45882 0.116644 5.48037 0.116912 5.915 0.116553C4.82219 0.11654 3.70054 0.116509 2.60153 0.116488C2.64001 0.115702 2.99338 0.114928 2.9451 0.114139C2.93802 0.114041 2.35052 0.114141 2.32779 0.114036C2.23446 0.113594 2.65326 0.113207 2.48648 0.112749C2.35513 0.112393 1.7331 0.112004 1.57639 0.111633C2.82687 0.111406 2.40236 0.110855 2.51663 0.110454C2.55612 0.110314 2.8901 0.110324 2.99905 0.110224C3.40202 0.109848 2.29698 0.110024 2.12308 0.109921C1.38089 0.109478 3.88208 0.10944 3.82028 0.108919C3.81785 0.108891 2.48461 0.108553 2.40158 0.108507C1.86019 0.108211 2.86563 0.108458 2.96414 0.108273C3.14416 0.107935 3.46256 0.1077 3.07205 0.107304C2.95638 0.107188 2.12539 0.106911 2.76816 0.106687C2.85232 0.106657 3.29301 0.106673 3.31881 0.10665C3.74901 0.106219 2.36432 0.106208 1.89536 0.105962C1.4265 0.105716 2.38237 0.105337 2.65787 0.105259C3.37055 0.105057 2.96244 0.105414 3.03238 0.105425C3.86468 0.105554 3.72139 0.105277 3.79171 0.105065C5.14942 0.105035 5.06792 0.104739 3.85916 0.104846C3.72713 0.104858 3.85374 0.105023 3.79171 0.105065C2.45962 0.104879 2.28902 0.104554 3.53384 0.104195C4.11727 0.104027 4.79752 0.104186 4.54867 0.103675C4.43633 0.103443 3.50148 0.103533 3.24661 0.103328C2.66509 0.102861 3.53715 0.102253 3.39975 0.101772C3.34986 0.101597 2.83813 0.101767 2.78641 0.101647C2.64753 0.10133 3.0315 0.101051 2.83481 0.100732C2.81634 0.100703 2.28066 0.100774 2.27383 0.100675C2.21162 0.0999236 2.55473 0.0992697 2.56424 0.0984856C2.56859 0.0981067 2.27315 0.0974294 2.33255 0.097037C2.43234 0.0963568 3.21129 0.09552 3.02206 0.0949389C2.90093 0.09456 2.36515 0.0946431 2.00009 0.0944807C1.29247 0.0941673 2.55999 0.0936127 2.75626 0.093538C2.76275 0.0935357 2.88906 0.0938618 3.16409 0.0936878C3.73717 0.0935866 2.75874 0.0935417 2.75626 0.093538C2.88305 0.0934889 3.00467 0.0928375 2.90225 0.0927081C2.84628 0.0926378 2.33865 0.0926771 2.31906 0.0926405C1.86478 0.0917694 1.73576 0.0908967 1.97312 0.0900132C1.98337 0.0899977 2.55118 0.0900211 2.56821 0.0899845C2.82067 0.089473 2.12606 0.0891455 1.71366 0.0887237C1.30144 0.0883019 1.4395 0.0879674 2.41428 0.0877177C2.29154 0.0873994 2.72249 0.0869429 2.98398 0.0866801C3.24546 0.0864174 2.14017 0.0863807 2.11832 0.0863576C1.41895 0.0856366 2.0516 0.0852197 2.15006 0.0844717C2.19876 0.084116 2.03844 0.0834106 1.91757 0.0830255C1.8202 0.0827212 2.07923 0.0825378 1.91361 0.0822574C1.89149 0.0822195 1.39935 0.0822578 1.38041 0.0822462C0.791597 0.0819332 1.99469 0.0820836 2.20957 0.082019C2.99094 0.0817848 3.4071 0.08164 3.03952 0.0812393C2.95534 0.0811468 1.22305 0.0808775 1.12174 0.080709C0.993201 0.08049 1.61412 0.0805726 1.46372 0.0803432C1.45142 0.0803236 1.06835 0.0803277 1.08524 0.0801861C1.1586 0.0795289 1.3815 0.0788124 1.34311 0.0781294C1.33934 0.0780361 0.731739 0.0781558 0.716284 0.078021C0.644261 0.0773885 0.666747 0.0766952 0.951146 0.0760791C1.02306 0.0759274 1.44848 0.0760225 1.5748 0.0759896C2.3391 0.0757874 1.22859 0.0755008 1.20743 0.0754535C0.673773 0.0743254 1.67877 0.0734619 1.20029 0.0723121C1.1722 0.0722495 -0.01829 0.0717677 1.00272 0.0715527C1.07065 0.071538 2.11525 0.0713253 1.40103 0.0711373C1.35635 0.0711256 0.818577 0.0712581 0.873388 0.0710269C0.928079 0.0707956 0.568956 0.0704235 1.15982 0.0701056C1.34596 0.0700049 2.38798 0.0697671 1.55735 0.0694669C1.49936 0.0694473 -0.378822 0.0689839 0.917028 0.0688184C1.13034 0.0687916 2.50164 0.0688197 1.79856 0.0684614C1.66225 0.0683929 1.35638 0.0685172 1.16538 0.0683369C0.87101 0.0680605 1.23829 0.0676944 0.627417 0.0673547C0.51927 0.0672955 -0.411488 0.0670433 0.294959 0.066841C0.405601 0.0668094 0.863413 0.0668696 0.914647 0.0667627C1.16041 0.0662548 0.854178 0.0657229 1.17093 0.0652071C1.28224 0.0650244 2.02234 0.0651178 2.22067 0.0649274C2.41894 0.0647369 2.60966 0.0643532 2.27145 0.0641539C1.9331 0.0639546 0.753544 0.0641723 0.659155 0.0638738C0.249216 0.0625756 0.941174 0.0612896 1.04239 0.0599934C1.05751 0.0598011 0.63543 0.0599605 0.627417 0.0596772C0.596016 0.0586327 0.20027 0.0568292 1.09714 0.0559228C1.81549 0.0551966 2.36237 0.0561105 2.65469 0.0555556C2.79414 0.0552878 1.42279 0.0549981 1.37961 0.0549334C0.941056 0.0543019 1.54854 0.053863 1.36216 0.0532946C1.32348 0.0531772 0.767657 0.0532923 0.740881 0.0531924C0.644489 0.0528512 0.892583 0.0524926 0.847204 0.0521665C0.825567 0.0520203 0.401049 0.0520472 0.433814 0.0519126C0.507322 0.0515905 0.685769 0.0513058 1.08365 0.0509918C1.11991 0.0509632 1.64799 0.0511561 1.66764 0.0509178C1.69792 0.0505322 2.09043 0.0500535 1.68509 0.0496098C1.56316 0.0494781 0.59293 0.049473 1.26297 0.04919C1.40292 0.0491306 2.56795 0.0492064 1.56131 0.0488767C1.39403 0.0488213 0.0362664 0.0482675 0.911473 0.0479958C1.14182 0.0479241 2.09517 0.0477411 1.94534 0.0475828C1.92144 0.0475613 1.40029 0.0476473 1.34946 0.0475161C1.17938 0.0470538 1.23498 0.0465693 1.07175 0.0460943C1.02713 0.0459674 0.487853 0.0461563 0.438575 0.0459673C0.302267 0.0454475 0.439577 0.0447984 0.608374 0.0442901C0.67163 0.0441026 1.11835 0.0442322 1.16697 0.0442186C1.95769 0.0439992 0.890394 0.0438696 0.828161 0.0437968C0.455513 0.0433441 0.956866 0.0429994 0.824193 0.0425822C0.788933 0.042467 0.280034 0.0425487 0.234657 0.0425257C-0.208712 0.042288 0.705204 0.0424651 0.805944 0.0423146C1.09119 0.0418931 1.05029 0.0414232 0.985265 0.0409968C0.960631 0.0408403 0.370551 0.0410163 0.355262 0.0408757C0.253581 0.040044 0.310045 0.0391793 0.635351 0.0383676C0.697674 0.0382148 1.15205 0.0383109 1.25583 0.0382791C1.98191 0.0380595 0.991532 0.0377378 0.897191 0.0376637C0.466432 0.0373271 0.868248 0.0371963 0.793249 0.0368991C0.419836 0.0354468 0.685964 0.0336536 0.850377 0.0322827C1.06198 0.0304963 1.49424 0.0291101 1.38199 0.0274066C1.37543 0.0272983 0.770963 0.0274075 0.757543 0.0273142C0.611826 0.0261092 0.848026 0.0249229 0.673437 0.0237155C0.660182 0.0236164 0.0871456 0.0237592 0.046608 0.0236002C-0.0405582 0.023274 -0.00941159 0.0228608 0.173561 0.022531C0.261721 0.0223701 0.753437 0.0225859 0.832128 0.022424C1.01648 0.022047 1.05729 0.0216428 0.965428 0.0212556C0.925086 0.0210908 0.339016 0.0213394 0.332252 0.0211252C0.274109 0.019666 0.173172 0.018233 0.932103 0.0167584C0.984226 0.0166573 2.17535 0.0165686 1.94693 0.0163537C1.61636 0.0163375 1.22751 0.0163384 0.874181 0.0163313C0.683849 0.0142071 1.09677 0.0121046 1.16062 0.00997447C1.16317 0.00988466 0.532056 0.0100399 0.533789 0.00986599C0.54312 0.00885962 0.368281 0.00788237 0.99558 0.00685297C1.05693 0.00675083 2.16722 0.00680323 1.9993 0.00650224C1.96866 0.00644916 1.82058 0.00599583 1.57956 0.00587862C1.54321 0.0058627 1.02497 0.00594541 1.00986 0.00579933C0.931165 0.00495043 1.04948 0.00406083 1.36612 0.0032134C1.41822 0.00307664 1.9701 0.00322229 2.01199 0.00312487C2.30496 0.00243387 1.88543 0.00168226 2.38651 0.00102198C2.7239 0.000580012 3.67787 0.000743642 4.61691 0.000508785C4.74939 0.000475567 4.77038 0.000201886 5.31673 0.000187733C6.69058 0.000151398 8.19493 0.000283961 9.65931 0.000229567C9.97473 0.000218075 9.635 -0.000148454 10.3972 6.85547e-05C10.4482 8.3715e-05 10.7012 0.000349451 10.9598 0.000414902C11.1386 0.000460471 11.6942 0.000378354 11.923 0.000471329C12.1517 0.000564297 11.6859 0.000666456 11.9548 0.000820595C12.227 0.000974665 12.8591 0.000906919 12.9339 0.00121461ZM4.15274 0.0854971C4.68354 0.0852538 2.73942 0.0852179 3.20456 0.085481C3.22935 0.0854938 4.1267 0.0855096 4.15274 0.0854971ZM4.4598 0.114932C5.31729 0.114614 4.05644 0.114397 3.39419 0.114621C2.73266 0.114845 4.19986 0.115029 4.4598 0.114932ZM5.08584 0.11823C5.76193 0.117859 3.0051 0.1178 3.5624 0.118198C3.5939 0.118221 5.04658 0.118252 5.08584 0.11823ZM4.8843 0.00159793C4.91012 0.00159457 4.93528 0.00139784 4.90969 0.00139314C4.29224 0.00128838 4.24236 0.00168177 4.8843 0.00159793ZM5.76742 0.121503C6.14034 0.121387 5.70984 0.121053 5.24612 0.121197C4.87306 0.121313 5.30352 0.121648 5.76742 0.121503ZM6.22762 0.0728063C6.25659 0.0728025 6.28268 0.0726614 6.11892 0.0726643C5.59148 0.0726738 5.74034 0.0728701 6.22762 0.0728063ZM5.79915 0.127066C5.90292 0.126244 8.1802 0.125745 7.92323 0.12664C7.87674 0.126802 7.19703 0.126291 6.99172 0.126497C6.61767 0.126875 8.04753 0.127125 7.28133 0.127511C7.14109 0.12758 5.78817 0.127112 5.79598 0.127064C5.79704 0.127065 5.7981 0.127065 5.79915 0.127066ZM6.48787 0.085357C6.51358 0.0853521 6.53796 0.0851569 6.51247 0.0851522C5.89527 0.0850465 5.8458 0.0854398 6.48787 0.085357ZM7.4297 0.0645762C7.48448 0.0645654 7.53572 0.0641123 7.48524 0.0640975C6.47595 0.0638611 6.36938 0.0647772 7.4297 0.0645762ZM7.91054 0.0985065C8.53144 0.0987195 8.60455 0.0989744 7.82484 0.0991442C7.86623 0.0989325 7.87233 0.0987194 7.91054 0.0985065Z" fill="#171717" fill-opacity="0.75"/>
<path d="M81.3031 263.196C81.4272 258.984 81.9889 253.529 82.5461 249.415C82.7207 248.116 82.8967 248.796 83.0284 247.911C83.2359 246.514 83.3055 245.215 83.4738 243.852C83.5196 243.478 83.5762 243.1 83.647 242.723C83.7652 242.113 84.0381 242.926 84.1553 242.289C84.81 238.813 85.5319 235.591 86.6857 232.307C89.0867 225.556 92.2137 219.378 95.3746 213.292C99.847 204.756 104.903 196.542 110.805 188.685C112.824 186.005 115.286 183.107 117.822 180.338C119.496 178.508 121.197 176.742 122.79 175.089C123.26 174.603 122.741 174.648 122.814 174.539C123.977 172.83 123.958 173.782 124.978 172.948C129.038 169.646 133.617 166.116 137.754 163.271C139.517 162.067 137.357 162.664 139.379 161.825C139.519 161.767 139.244 162.352 139.762 162.075C140.929 161.44 143.072 160.124 143.99 159.659C144.107 159.599 144.218 159.542 144.323 159.489C145.804 158.74 146.156 158.551 147.73 157.776C150.041 156.649 152.921 155.609 155.477 154.602C156.024 154.386 155.168 154.309 156.032 153.935C156.897 153.555 159.27 152.815 160.094 152.661C160.917 152.501 160.659 152.876 160.819 152.896C162.127 153.069 164.659 151.594 165.012 151.488C167.807 150.613 170.468 150 173.087 149.469C176.429 148.794 179.704 148.257 183.119 147.59C187.736 146.687 192.668 145.66 197.093 144.951C202.365 144.109 206.868 143.634 212.008 142.927C212.551 142.853 211.859 142.515 212.523 142.424C214.104 142.21 215.685 142.01 217.266 141.829C222.74 141.202 228.252 140.789 233.799 140.849C234.515 140.858 233.604 141.256 234.319 141.288C238.715 141.429 245.51 142.473 248.259 141.157C251.225 141.495 254.81 142.083 257.363 142.904C258.516 143.273 258.017 143.428 258.341 143.565C258.478 143.624 258.762 143.679 259.387 143.757C259.859 143.817 259.33 143.341 260.031 143.459C262.998 143.96 266.135 144.907 269.027 145.618C269.613 145.761 269.552 145.409 269.733 145.405C271.257 145.394 273.289 146.917 273.749 147.148C277.336 148.897 280.055 149.862 283.405 151.402C284.18 151.763 283.44 150.949 284.196 151.285C288.102 153.032 292.011 155.114 295.554 157.329C296.337 157.82 295.418 157.72 295.783 157.971C297.396 159.084 298.117 158.708 299.648 159.786C299.973 160.015 299.621 160.169 299.666 160.235C300.357 161.272 301.58 161.124 301.842 161.264C303.207 161.983 304.273 162.75 305.284 163.535C306.644 164.595 307.902 165.691 309.631 166.753C309.992 166.974 309.413 166.118 310.415 166.761C317.066 171.037 323.81 175.978 329.902 180.865C330.848 181.624 329.976 181.348 330.015 181.423C330.674 182.62 331.778 182.487 332.112 182.7C334.74 184.396 336.678 186.665 338.917 187.222C345.606 192.566 352.399 197.712 358.981 203.09C362.583 206.043 366.099 208.987 369.456 212.25C369.574 212.365 369.103 212.456 369.342 212.686C372.199 215.583 372.041 214.425 374.409 216.472C374.447 216.508 374.483 216.552 374.518 216.602C375.075 217.317 375.159 219.5 375.116 219.657C375.109 220.386 374.354 219.88 374.381 220.112C374.543 221.933 376.289 221.225 376.743 223.737C376.752 223.813 376.362 223.549 376.363 223.759C376.364 224.422 376.591 225.036 376.558 225.678C376.474 227.161 375.639 227.741 376.372 229.87C376.457 230.115 377.34 229.691 377.577 231.387C377.595 231.518 377.609 231.661 377.619 231.818C377.676 232.697 377.991 236.524 377.995 237.624C378.001 238.703 377.612 237.988 377.603 238.066C377.35 241.002 377.089 239.908 376.517 241.399C375.943 242.895 377.493 242.397 377.702 242.978C377.912 243.568 377.649 245.702 377.543 246.244C377.438 246.774 377.193 246.13 377.141 246.599C376.794 249.69 377.979 247.922 378.269 248.927C378.947 251.317 377.821 253.203 377.73 255.407C377.704 255.993 377.966 255.511 377.995 256.044C378.1 258.131 377.732 259.409 378.008 261.799C378.054 262.187 378.694 264.143 378.103 265.388C378.019 265.56 377.758 265.042 377.639 265.929C377.466 267.26 377.195 269.65 377.088 271.097C377.006 272.182 377.663 271.032 377.311 272.34C377.144 272.935 377.056 271.778 376.763 272.879C376.495 273.962 375.823 276.764 375.159 277.753C374.853 278.262 374.818 278.401 374.893 278.47C374.968 278.53 375.142 278.469 375.118 278.518C375.012 278.718 374.787 279.091 374.301 279.428C373.573 279.962 372.588 280.375 372.462 280.416C366.782 282.061 361.518 281.899 356.216 282.225C352.752 282.384 349.28 282.486 345.741 282.649C345.035 282.68 345.514 283.054 345.407 283.062C343.008 283.271 344.871 282.214 343.199 281.9C343.453 282.675 342.463 282.552 340.764 282.649C339.955 282.696 340.397 282.995 340.324 283.027C339.096 283.492 338.275 282.898 338.047 282.777C337.26 282.331 336.361 282.853 335.833 282.552C335.291 282.252 336.55 281.823 334.923 281.816C334.461 282.091 335.667 282.831 334.43 282.938C329.779 283.358 321.094 282.53 317.373 282.314C313.649 282.107 312.436 282.099 310.278 281.899C306.376 281.528 307.767 282.137 305.331 282.261C302.861 282.379 304.135 281.112 303.796 280.808C303.47 280.504 303.08 280.778 302.659 280.598C302.238 280.417 303.178 280.274 302.171 280.159C302.039 280.144 301.876 280.138 301.692 280.137C300.507 280.139 298.335 280.434 298.027 280.676C297.237 281.265 298.448 282.003 295.785 281.612C295.634 281.589 296.145 281.269 295.569 281.199C290.944 280.654 286.118 280.333 281.493 279.798C280.855 279.724 281.452 279.372 281.081 279.325C277.234 278.828 278.568 279.572 276.402 280.164C276.938 279.225 275.813 278.558 272.874 278.363C271.115 278.246 271.389 278.688 270.223 278.913C269.876 278.981 268.652 278.61 268.412 278.795C267.625 279.398 268.75 280.2 265.745 279.717C265.614 279.695 266.057 279.366 265.602 279.315C262.642 278.985 262.253 279.643 259.037 279.524C256.526 279.432 252.079 278.742 249.225 278.504C249.346 277.418 246.637 277.507 245.493 278.195C243.64 278.056 241.626 277.983 239.843 277.779C239.228 277.709 239.651 277.416 239.575 277.378C238.411 276.776 237.559 277.463 237.158 277.47C232.801 277.511 229.291 276.774 225.117 277.116C224.969 277.129 224.695 277.875 223.613 277.269C223.543 277.228 224.929 276.948 222.979 276.829C221.03 276.711 217.368 276.141 214.645 276.383C213.986 276.441 212.304 276.99 210.993 276.459C210.818 276.387 211.02 276.177 210.769 276.047C209.954 275.63 209.474 276.379 208.525 275.694C207.578 275.009 205.564 274.45 202.816 274.815C202.729 274.826 202.062 275.413 201.203 275.379C199.834 275.323 197.883 275.144 196.452 275.115C195.767 275.1 196.197 275.488 196.078 275.492C193.215 275.556 190.868 275.433 188.329 275.282C186.753 275.189 185.131 275.087 183.238 275.016C182.332 274.981 179.723 275.48 177.974 275.073C176.051 274.629 178.022 272.77 173.592 273.225C171.794 273.41 169.556 275.773 166.335 274.6C160.108 274.988 154.342 274.51 148.108 275.16C147.827 275.189 146.964 275.876 146.307 275.892C145.325 275.914 144.776 275.629 144.076 275.637C141.144 275.661 138.473 276.042 135.65 276.138C134.576 276.176 134.936 275.841 133.657 275.887C132.381 275.934 131.545 276.394 129.807 276.286C128.489 276.203 127.138 275.424 125.393 275.425C125.375 276.269 124.184 276.319 122.078 276.668C121.673 276.736 122.128 277.001 121.937 277.048C121.163 277.247 120.424 277.049 119.69 277.259C119.512 277.31 119.521 277.597 119.376 277.654C118.144 278.155 116.034 277.643 115.669 277.554C114.277 277.217 113.666 277.632 112.608 277.534C111.552 277.436 113.1 277.121 111.873 277.101C109.33 277.061 106.082 277.334 103.514 277.505C102.488 277.575 103.215 277.907 103.069 277.926C100.958 278.176 98.7854 277.926 97.6674 278.775C96.0529 276.914 96.4042 279.06 93.3479 278.893C93.1071 278.879 92.7336 277.97 93.6389 277.765C94.5443 277.559 95.9549 277.747 97.2097 277.44C97.5068 277.367 99.1666 276.367 99.3982 276.297C101.212 275.749 101.574 277.123 101.677 277.192C102.842 277.937 104.881 276.846 105.431 276.742C107.95 276.264 110.121 276.312 112.231 275.956C113.612 275.726 113.687 274.805 114.781 274.761C118.42 274.617 119.761 275.811 123.119 274.502C123.838 274.224 123.049 273.268 125.727 273.9C125.898 273.94 127.886 274.547 128.993 274.032C129.131 273.967 129.111 273.676 129.297 273.642C130.541 273.416 131.388 273.603 132.751 273.422C134.106 273.242 135.749 272.995 137.309 273.021C138.25 273.036 139.487 273.524 139.939 273.637C141.222 273.964 142.565 273.28 143.367 273.711C144.178 274.145 142.658 274.913 144.747 275.131C144.794 274.372 144.941 273.59 145.036 272.824C149.603 272.675 154.103 272.779 158.684 272.64C159.253 272.622 158.661 272.229 159.272 272.199C161.84 272.078 164.087 272.327 166.759 272.176C168.814 272.058 171.078 271.606 173.24 271.487C174.563 272.345 177.764 272.044 180.091 272.134C180.908 272.164 180.855 272.395 181.431 272.474C183.61 272.766 182.594 271.995 183.194 271.879C185.588 271.425 185.922 272.869 188.361 273.092C188.561 273.111 188.775 273.121 189.006 273.121C189.164 273.121 191.142 272.231 191.415 272.179C193.144 271.837 191.695 272.505 192.768 272.594C194.725 272.758 196.085 273.009 198.392 272.798C199.067 272.735 200.691 272.204 201.981 272.687C202.151 272.751 202.047 273.053 202.185 273.075C204.675 273.448 204.766 272.493 206.206 272.216C207.648 271.939 209.825 272.68 210.268 272.888C211.423 273.424 209.361 273.065 209.295 273.111C208.528 273.66 210.139 273.619 211.364 273.714C211.506 274.66 213.222 274.67 212.634 273.81C212.567 273.716 211.609 273.766 211.364 273.714C212.475 272.833 214.371 272.789 216.416 273.738C217.374 274.183 216.433 274.612 219.4 274.569C220.746 274.551 220.256 273.881 221.45 273.759C224.178 273.479 227.67 274.253 230.464 274.301C231.48 274.319 230.51 273.914 231.205 273.914C233.047 273.913 234.655 274.264 236.506 274.228C236.674 274.224 236.286 273.832 236.859 273.858C241.213 274.053 244.987 274.508 249.523 274.785C251.72 274.919 255.641 274.953 257.918 275.137C261.85 275.45 266.652 276.297 270.019 276.382C272.222 276.44 271.764 276.039 272.718 275.847C274.559 275.475 277.702 276.556 278.135 276.72C278.147 276.726 276.25 276.691 277.246 276.946C277.809 277.38 278.113 276.721 278.135 276.72C278.414 276.826 282.176 277.152 282.924 277.128C283.33 277.115 283.126 276.75 283.338 276.75C288.383 276.756 293.451 276.984 298.527 277.442C298.616 277.454 298.459 277.839 298.667 277.863C299.85 278.001 300.876 278.023 301.81 277.989C303.256 277.94 304.496 277.765 305.981 277.67C308.417 277.51 310.354 277.698 311.756 278.437C313.604 278.438 316.213 278.846 317.728 279.085C319.238 279.324 319.468 278.565 319.607 278.555C323.795 278.218 326.146 278.727 330.476 278.88C332.523 278.955 336.581 278.886 338.793 278.795C340.54 278.724 341.588 278.895 343.198 278.758C343.414 278.74 343.191 278.402 343.257 278.388C345.04 277.952 344.196 278.798 344.568 278.94C345.924 279.453 346.751 279.727 349.051 279.391C349.579 279.314 351.071 278.052 352.016 277.933C353.262 277.779 352.815 278.234 354.109 278.054C354.219 278.038 354.188 277.776 354.983 277.736C355.291 277.72 355.596 277.704 355.899 277.689C359.408 277.498 363.198 277.355 366.599 276.865C367.1 276.791 366.405 276.467 367.117 276.352C368.96 276.056 371 275.586 371.847 275.118C371.347 275.431 371.334 275.585 371.36 275.542C371.396 275.507 371.501 275.34 371.603 275.127C371.81 274.699 372.031 274.074 372.218 273.464C372.433 272.747 372.616 273.267 372.737 273.127C373.481 272.225 372.938 270.552 372.952 270.307C373.301 264.203 373.99 259.223 373.548 252.692C373.524 252.32 372.624 249.615 373.278 248.36C373.322 248.267 373.998 247.037 373.452 245.971C373.418 245.908 373.082 246.679 373.057 245.358C373.032 244.042 372.665 241.912 372.956 240.08C373.048 239.49 373.679 238.088 372.978 236.399C372.932 236.295 371.432 233.74 372.245 232.725C372.346 232.6 372.909 232.617 372.909 231.783C372.909 231.496 372.847 231.14 372.677 230.632C372.547 230.254 372.402 230.972 372.175 229.972C371.823 228.445 371.852 226.359 371.138 224.637C371.013 224.327 370.159 223.162 370.393 222.163C370.429 222.004 370.81 222.188 370.711 221.706C370.515 220.815 370.287 220.238 369.833 219.512C369.267 218.53 368.082 217.489 366.829 216.197C366.117 215.473 366.844 215.425 366.121 214.625C365.393 213.821 363.776 212.313 362.743 211.773C361.715 211.237 362.152 212.645 360.791 211.624C358.992 210.275 357.238 208.89 355.488 207.466C351.451 204.181 347.502 200.745 343.403 197.498C342.532 196.808 343.085 197.607 341.786 196.608C337.014 192.922 328.557 186.884 324.701 183.317C321.613 180.45 326.093 183.245 323.625 181.199C322.431 180.212 320.521 180.01 320.201 179.817C317.069 177.95 315.246 176.157 312.481 174.413C311.91 174.054 312.238 174.744 311.755 174.436C310.102 173.385 308.495 172.097 306.918 171.094C306.21 170.645 306.181 170.978 305.549 170.537C304.401 169.741 303.375 168.986 302.358 168.158C302.026 167.888 301.695 167.611 301.362 167.324C301.237 167.216 302.363 167.489 301.22 166.758C299.36 165.573 297.159 163.924 294.827 162.903C294.142 162.607 293.771 163.164 292.609 161.977C292.362 161.729 293.124 161.224 291.152 160.933C290.809 160.87 287.62 160.22 286.527 158.992C286.237 158.664 285.613 157.609 284.755 157.303C284.638 157.265 284.917 157.803 284.234 157.508C281.837 156.468 279.362 155.298 276.855 154.379C276.187 154.137 277.023 154.885 276.03 154.514C273.306 153.494 269.937 152.175 267.269 151.232C266.283 150.882 267.064 150.799 267.001 150.745C265.988 149.862 265.076 150.374 264.679 150.307C262.182 149.879 260.409 149.097 258.11 148.711C257.477 148.606 257.852 149.043 257.721 149.048C257.514 149.054 257.364 149.05 257.257 149.037C256.656 148.965 257.332 148.625 256.646 148.433C254.377 147.797 251.775 147.428 249.409 147.207C248.541 147.128 249.469 147.641 248.692 147.567C244.096 147.143 239.295 146.953 234.731 146.839C233.872 146.818 234.403 146.49 234.222 146.423C232.967 145.951 231.174 146.72 230.763 146.809C228.881 147.209 228.127 146.983 226.449 147.163C223.79 147.454 220.927 147.775 217.988 148.121C211.877 148.838 205.5 149.651 200.234 150.419C190.67 151.83 183.092 152.972 174.298 154.934C173.749 155.058 173.215 155.181 172.658 155.312C172.057 155.454 172.755 155.724 172.242 155.851C165.559 157.492 159.096 159.055 153.089 161.83C152.596 162.057 153.469 162.104 152.689 162.482C151.09 163.26 149.067 164.245 147.41 165.008C147.389 165.018 147.368 165.027 147.349 165.035C146.649 165.335 147.463 164.519 146.672 164.893C144.78 165.793 142.835 166.929 141.07 168.158C140.323 168.683 141.694 168.266 140.709 168.922C134.068 173.392 128.214 178.645 122.449 184.413C122.399 184.462 122.35 184.512 122.3 184.561C121.903 184.961 120.95 184.796 120.289 185.827C120.405 186.043 120.615 186.213 120.777 186.4C113.312 195.574 106.712 205.567 101.236 216.246C101.206 216.305 101.176 216.364 101.147 216.422C100.913 216.882 101.703 216.283 101.255 217.173C98.674 222.327 96.405 227.354 94.0674 232.55C93.841 233.067 93.1996 232.535 92.7788 234.158C92.6957 234.441 92.0612 236.867 92.0725 237.527C92.0751 237.616 92.5351 237.277 92.3438 238.044C91.807 240.212 91.3729 242.425 91.1085 244.635C90.8057 247.192 90.4845 249.742 90.1528 252.218C90.0472 253.007 89.7406 252.132 89.6624 252.691C89.114 256.631 89.0811 260.973 88.5306 264.722C88.1655 267.243 87.5559 266.266 86.8463 267.593C86.7452 267.77 86.675 269.35 86.2969 269.421C85.3399 269.605 84.3219 268.804 83.2992 269.084C83.073 269.11 83.2689 271.417 82.7636 270.032C82.7274 269.922 82.5984 268.361 82.4368 267.965C82.3237 267.689 81.9202 268.162 81.7835 267.604C81.648 267.036 81.9952 266.466 81.8543 265.547C81.7131 264.629 81.2517 265.006 81.3031 263.196ZM324.53 280.125C325.916 280.532 326.154 279.192 324.641 279.472C324.568 279.487 324.458 280.105 324.53 280.125ZM154.106 273.807C155.965 274.348 157.211 273.445 155.894 273.02C154.575 272.596 153.54 273.643 154.106 273.807ZM135.009 274.986C137.187 275.349 137.435 273.427 135.144 273.924C135.01 273.952 134.882 274.965 135.009 274.986ZM87.004 261.307C86.9837 261.336 86.895 262.452 86.9109 262.491C87.2991 263.121 87.4778 260.855 87.004 261.307ZM116.098 276.542C116.787 276.756 118.698 276.336 117.844 276.069C117.157 275.853 115.241 276.276 116.098 276.542ZM377.073 255.472C377.093 255.451 377.102 254.638 376.989 254.655C376.625 254.718 376.74 255.84 377.073 255.472ZM83.9569 278.887C88.7096 278.596 91.7065 279.949 86.5247 280.166C85.5865 280.205 88.5032 279.51 87.3014 279.46C85.1017 279.368 83.7307 280.466 81.4641 280.107C81.054 280.041 83.6862 278.9 83.9652 278.884C83.9624 278.885 83.9597 278.886 83.9569 278.887ZM325.289 281.764C325.306 281.782 326.457 281.83 326.48 281.812C327.107 281.402 324.816 281.307 325.289 281.764ZM366.896 210.567C366.864 210.487 364.855 208.79 364.775 208.773C363.277 208.446 367.327 211.869 366.896 210.567ZM249.181 278.472C247.921 278.828 246.453 278.792 245.498 278.195C246.725 278.296 247.949 278.372 249.181 278.472Z" fill="#171717" fill-opacity="0.75"/>
<path d="M189.151 234.97V211.698H197.288C198.909 211.698 200.246 211.978 201.299 212.539C202.352 213.092 203.136 213.838 203.651 214.777C204.167 215.709 204.424 216.743 204.424 217.879C204.424 218.879 204.246 219.705 203.89 220.357C203.542 221.008 203.08 221.523 202.504 221.902C201.936 222.281 201.318 222.561 200.651 222.743V222.97C201.364 223.016 202.08 223.266 202.799 223.72C203.519 224.175 204.121 224.826 204.606 225.675C205.091 226.523 205.333 227.561 205.333 228.789C205.333 229.955 205.068 231.004 204.538 231.936C204.008 232.868 203.17 233.607 202.026 234.152C200.883 234.698 199.394 234.97 197.561 234.97H189.151ZM191.97 232.47H197.561C199.401 232.47 200.708 232.114 201.481 231.402C202.261 230.683 202.651 229.811 202.651 228.789C202.651 228.001 202.451 227.273 202.049 226.607C201.648 225.933 201.076 225.395 200.333 224.993C199.591 224.584 198.712 224.379 197.697 224.379H191.97V232.47ZM191.97 221.925H197.197C198.045 221.925 198.811 221.758 199.492 221.425C200.182 221.092 200.727 220.622 201.129 220.016C201.538 219.41 201.742 218.698 201.742 217.879C201.742 216.857 201.386 215.989 200.674 215.277C199.962 214.558 198.833 214.198 197.288 214.198H191.97V221.925ZM220.6 227.834V217.516H223.282V234.97H220.6V232.016H220.419C220.009 232.902 219.373 233.656 218.509 234.277C217.646 234.891 216.555 235.198 215.237 235.198C214.146 235.198 213.176 234.959 212.328 234.482C211.479 233.997 210.812 233.27 210.328 232.3C209.843 231.323 209.6 230.092 209.6 228.607V217.516H212.282V228.425C212.282 229.698 212.638 230.713 213.35 231.47C214.07 232.228 214.987 232.607 216.1 232.607C216.767 232.607 217.445 232.436 218.134 232.095C218.831 231.754 219.415 231.232 219.884 230.527C220.362 229.823 220.6 228.925 220.6 227.834ZM230.876 224.47V234.97H228.194V217.516H230.785V220.243H231.012C231.421 219.357 232.043 218.645 232.876 218.107C233.709 217.561 234.785 217.289 236.103 217.289C237.285 217.289 238.319 217.531 239.205 218.016C240.092 218.493 240.781 219.22 241.274 220.198C241.766 221.167 242.012 222.395 242.012 223.879V234.97H239.33V224.061C239.33 222.69 238.974 221.622 238.262 220.857C237.55 220.084 236.573 219.698 235.33 219.698C234.474 219.698 233.709 219.883 233.035 220.254C232.368 220.626 231.842 221.167 231.455 221.879C231.069 222.592 230.876 223.455 230.876 224.47ZM263.14 235.289C261.807 235.289 260.606 235.023 259.538 234.493C258.47 233.963 257.614 233.236 256.97 232.311C256.326 231.387 255.973 230.334 255.913 229.152H258.64C258.746 230.205 259.223 231.076 260.072 231.766C260.928 232.448 261.951 232.789 263.14 232.789C264.095 232.789 264.943 232.565 265.686 232.118C266.436 231.671 267.023 231.058 267.447 230.277C267.879 229.489 268.095 228.599 268.095 227.607C268.095 226.592 267.871 225.686 267.424 224.891C266.985 224.088 266.379 223.455 265.606 222.993C264.833 222.531 263.951 222.296 262.958 222.289C262.246 222.281 261.515 222.391 260.765 222.618C260.015 222.838 259.398 223.122 258.913 223.47L256.276 223.152L257.686 211.698H269.776V214.198H260.049L259.231 221.061H259.367C259.845 220.683 260.443 220.368 261.163 220.118C261.883 219.868 262.633 219.743 263.413 219.743C264.837 219.743 266.106 220.084 267.22 220.766C268.341 221.44 269.22 222.364 269.856 223.539C270.5 224.713 270.822 226.054 270.822 227.561C270.822 229.046 270.489 230.372 269.822 231.539C269.163 232.698 268.254 233.614 267.095 234.289C265.936 234.955 264.617 235.289 263.14 235.289Z" fill="black"/>
</svg>
