<svg width="340" height="286" viewBox="0 0 340 286" fill="none" xmlns="http://www.w3.org/2000/svg">
<path d="M12.9339 0.00121461C13.1032 0.00192919 12.9222 0.00286588 12.6736 0.00357775C12.5966 0.00380085 12.252 0.00368788 12.1833 0.00384189C12.0493 0.0041431 12.2183 0.00442372 12.0587 0.00472138C12.0041 0.00482002 11.4584 0.00469723 11.4136 0.00480067C11.1724 0.00536749 11.3115 0.00590372 11.1954 0.00647792C10.623 0.00930623 10.4182 0.0120864 10.1695 0.0149493C10.088 0.0158933 9.59266 0.0170408 9.80927 0.0180158C9.83505 0.0181297 10.3141 0.0180618 10.3536 0.0180835C10.958 0.0184231 9.99093 0.0183102 9.86243 0.018532C9.3551 0.0194122 9.31098 0.020391 9.49586 0.021238C9.57592 0.0215984 10.5274 0.0212371 9.99335 0.0216C9.95727 0.0216251 9.44855 0.0215337 9.3943 0.0216325C9.27226 0.0218567 9.36319 0.0222819 9.32288 0.0224556C9.24263 0.0227904 9.24775 0.0228458 9.24195 0.0231624C9.2296 0.0235953 8.97672 0.0241101 9.09199 0.0245745C9.11811 0.0246737 9.6396 0.0245424 9.72834 0.0247005C9.81694 0.0248588 9.77272 0.0252774 9.64979 0.0254185C9.52679 0.0255597 9.11691 0.0254996 9.02296 0.0255246C8.22998 0.0257301 9.32826 0.0262143 9.35542 0.0262766C9.81821 0.0274126 9.19256 0.0283868 9.19435 0.0294531C9.19703 0.0302626 9.40358 0.0311282 9.37525 0.0318984C9.33949 0.0328161 9.0569 0.0335938 9.10548 0.0344853C9.11 0.0345794 9.72316 0.0344692 9.72993 0.0345841C9.80128 0.0358049 9.73444 0.0370173 9.3205 0.0382329C9.27845 0.0383548 8.74011 0.0381977 8.6659 0.0383195C8.22348 0.0390652 7.16068 0.0402451 9.50459 0.040688C9.41306 0.0411931 9.3185 0.0418063 8.84602 0.0422582C8.54192 0.0425496 7.95545 0.0422666 8.2057 0.0426245C8.26146 0.0427052 8.77506 0.0426002 8.81983 0.0427213C9.00786 0.043231 8.8409 0.0437878 9.10627 0.044292C9.16146 0.0443946 9.62166 0.0443666 9.70454 0.0443956C10.3757 0.0446398 9.26623 0.0450464 9.18562 0.045135C8.58445 0.0458099 8.82102 0.0463027 8.80635 0.0469314C8.80268 0.0470773 9.42084 0.0469049 9.43952 0.0470453C9.52812 0.0477734 9.47499 0.0485276 9.20069 0.0492406C9.13819 0.0493992 8.61163 0.0492533 8.55482 0.0493291C8.31074 0.0496633 9.30529 0.0497373 9.0904 0.0500578C9.04638 0.0501254 8.5956 0.0500873 8.54609 0.0500996C7.76894 0.0502925 8.87011 0.0504601 8.89442 0.0505097C9.2266 0.0511373 8.07704 0.0515384 8.23982 0.0521446C8.26045 0.0522172 8.83082 0.0520536 8.85395 0.0522575C9.01141 0.0536157 8.85472 0.0550522 8.39851 0.0563966C8.32835 0.0566057 7.89988 0.0564565 7.84706 0.0564696C7.02177 0.056684 8.12756 0.0568227 8.1692 0.0568909C8.46897 0.0574286 7.54164 0.0579309 8.85871 0.0582962C8.40164 0.0605734 9.14125 0.0628402 7.96132 0.0650986C7.94765 0.0651273 7.40305 0.0650759 7.37813 0.0651331C7.07234 0.0658229 7.91875 0.0656905 8.95393 0.0661469C9.21387 0.0662619 7.96406 0.0666116 7.87245 0.0666426C7.53486 0.0667553 6.72464 0.0666384 6.65926 0.0666761C6.14587 0.0669886 8.82532 0.0669376 8.82618 0.0673591C8.82171 0.0673723 8.32853 0.0673169 8.27949 0.0673523C8.12554 0.0674622 8.32151 0.0675712 8.15175 0.0676787C7.75891 0.0679248 6.45693 0.0680125 7.21468 0.0683884C7.31302 0.068436 8.83292 0.0683633 8.76112 0.0687396C8.73121 0.0688897 8.75726 0.0695537 8.65876 0.0697398C8.56039 0.0699256 8.0706 0.069798 8.04939 0.0698113C7.40173 0.0703121 7.13331 0.0701222 6.17446 0.0703731C5.21922 0.070624 7.49755 0.0705544 7.75184 0.0706567C8.00542 0.0707592 7.47106 0.0711264 7.28529 0.0712166C7.09945 0.0713068 6.78823 0.0711943 6.68306 0.0712745C5.99596 0.0718062 7.81394 0.0715079 8.17555 0.0716831C9.03177 0.0720962 7.34215 0.0724179 7.17659 0.0727961C7.13188 0.0728984 7.5167 0.0728149 7.55269 0.072906C7.69012 0.0732669 7.16292 0.0734839 7.64632 0.0738945C7.72509 0.0739616 8.74093 0.0742935 7.99544 0.0745084C7.88794 0.0745388 7.46689 0.0744523 7.37257 0.0746061C7.23103 0.0748359 7.139 0.0752498 7.27974 0.0754968C7.38387 0.0756791 8.07766 0.0754702 7.86213 0.0756996C7.7659 0.0758017 7.36003 0.0756126 7.21309 0.0758042C7.06619 0.0759948 7.08402 0.0764822 7.09804 0.0766677C7.11236 0.0768528 7.63863 0.0767515 7.67409 0.0767664C7.87718 0.076857 8.13095 0.0772122 8.13032 0.0772436C8.19457 0.0788272 7.30748 0.0802875 7.60109 0.0818293C7.62337 0.0819503 8.17833 0.0818697 8.18745 0.0818882C8.41997 0.0823024 6.94446 0.0819758 6.45058 0.0822652C7.57676 0.0822233 7.37284 0.0823942 7.49635 0.0826859C7.55678 0.0828265 7.99285 0.08275 8.03749 0.0827628C8.69982 0.0829713 7.84433 0.0831165 7.66933 0.0831539C7.02556 0.083292 7.78621 0.0834423 7.35591 0.0835362C6.92883 0.0836301 6.29568 0.083414 6.30379 0.0836939C6.70692 0.0837723 7.76042 0.0835646 7.93117 0.083777C8.577 0.0845786 7.75043 0.086075 7.66456 0.0867195C7.57878 0.0873628 7.65315 0.0875705 7.50746 0.0879453C7.24403 0.0886224 8.02566 0.0883743 8.38343 0.0887947C8.74117 0.0892163 6.81799 0.0890113 6.40456 0.089072C5.99131 0.0891315 6.41671 0.0891964 6.18953 0.0892704C5.96241 0.0893442 5.68131 0.0891845 5.59603 0.089358C5.51083 0.0895316 6.24601 0.0900062 6.6783 0.0900677C7.59413 0.0901978 8.55534 0.0899839 8.2176 0.0904432C8.19756 0.0904697 7.69187 0.0903839 7.64076 0.0904851C7.25146 0.0912885 7.22733 0.0921231 6.88301 0.0929256C6.83488 0.0930359 6.27231 0.0929372 6.23793 0.0930014C5.87811 0.0936703 6.82666 0.0934312 7.88038 0.0937977C6.4781 0.0937155 5.62018 0.0939181 5.6119 0.0944257C5.60643 0.0947309 6.21888 0.0946783 6.65053 0.0948757C6.78065 0.0949349 6.36012 0.0951508 6.64815 0.0951899C7.58966 0.095319 8.64363 0.0951156 8.22395 0.0956389C8.20401 0.0956619 7.68864 0.0955888 7.65742 0.0956681C7.45313 0.0961809 8.43794 0.0962423 8.5572 0.0967967C8.65078 0.0972312 8.05026 0.098004 7.95259 0.0984987C6.37602 0.0984883 6.73703 0.0989556 7.82405 0.0991452C7.77955 0.0994663 7.841 0.0998131 7.69075 0.100123C7.63952 0.10023 7.18306 0.10016 7.13374 0.100174C6.36005 0.10038 7.4176 0.10052 7.45906 0.100589C7.86209 0.10134 7.06055 0.101952 7.84389 0.102669C7.8721 0.102694 8.96723 0.102736 8.16761 0.102927C8.1125 0.10294 7.61423 0.102703 7.5757 0.10304C7.53708 0.103377 6.95001 0.104013 7.45747 0.104481C7.57964 0.104595 8.46867 0.104881 7.77406 0.105111C7.67974 0.105142 7.36565 0.105109 7.19087 0.105153C6.63396 0.105296 7.74087 0.105374 6.80049 0.105542C5.86016 0.10571 5.15592 0.10606 5.80471 0.106532C5.82357 0.106547 6.7009 0.106659 6.68703 0.106807C6.66413 0.107044 6.48136 0.107381 6.48708 0.107628C6.49013 0.107747 7.03491 0.107671 7.04488 0.107692C7.35015 0.108488 6.86448 0.109056 6.6537 0.109909C6.61399 0.110066 7.35688 0.110515 6.76955 0.110818C6.12661 0.111151 3.45207 0.110809 4.08926 0.111574C4.34412 0.111882 7.73726 0.112273 5.97927 0.112827C6.41489 0.113902 5.51515 0.114896 6.13716 0.115974C6.16472 0.116022 7.11172 0.116175 7.09883 0.116289C7.07786 0.116459 6.63525 0.116551 6.6061 0.116672C6.47277 0.117178 6.85146 0.117642 6.79256 0.11813C6.77116 0.118315 6.3135 0.11825 6.28792 0.118471C6.26277 0.118692 6.86542 0.118839 6.57436 0.119138C6.3525 0.119364 5.12071 0.119591 4.97713 0.119891C6.19216 0.119902 6.16713 0.120108 6.48787 0.120474C6.5501 0.120545 6.973 0.120469 7.02425 0.120502C7.24221 0.120638 6.89172 0.120763 7.12898 0.120892C7.18597 0.120923 7.60091 0.120925 7.67091 0.12095C8.28199 0.121168 7.34862 0.121527 7.18611 0.121588C6.56892 0.121824 7.1086 0.121934 6.86556 0.122116C6.62254 0.122296 6.31875 0.122026 6.17128 0.122237C5.86626 0.122675 5.93327 0.123237 5.9142 0.123681C5.90916 0.123859 6.46304 0.123738 6.47518 0.123763C6.61566 0.12413 6.02649 0.124501 7.12978 0.124704C4.27708 0.124958 7.40647 0.124925 6.8354 0.125449C6.78922 0.12549 5.4402 0.125543 5.24215 0.125384C5.04429 0.125226 5.46597 0.124986 5.15725 0.124766C5.0848 0.124714 3.82068 0.124415 3.74411 0.124375C3.14565 0.124056 5.16158 0.124011 5.2723 0.123994C6.4672 0.123802 5.10535 0.123438 5.01125 0.123342C4.58007 0.122903 4.86358 0.12253 4.55581 0.122162C4.3569 0.121922 3.03639 0.121898 3.07681 0.12171C3.21041 0.121083 5.05252 0.120864 3.45529 0.120273C3.11463 0.120146 1.67136 0.120272 2.80624 0.119818C2.87779 0.11979 3.916 0.119452 3.25931 0.119258C3.17651 0.119233 2.75588 0.119234 2.72055 0.119202C2.49199 0.118986 2.82708 0.118841 2.66659 0.118606C2.50611 0.11837 2.26685 0.118087 2.40952 0.117818C2.49482 0.117656 3.2785 0.117448 3.47036 0.117371C4.02307 0.117152 3.11686 0.116917 3.78616 0.116781C4.45882 0.116644 5.48037 0.116912 5.915 0.116553C4.82219 0.11654 3.70054 0.116509 2.60153 0.116488C2.64001 0.115702 2.99338 0.114928 2.9451 0.114139C2.93802 0.114041 2.35052 0.114141 2.32779 0.114036C2.23446 0.113594 2.65326 0.113207 2.48648 0.112749C2.35513 0.112393 1.7331 0.112004 1.57639 0.111633C2.82687 0.111406 2.40236 0.110855 2.51663 0.110454C2.55612 0.110314 2.8901 0.110324 2.99905 0.110224C3.40202 0.109848 2.29698 0.110024 2.12308 0.109921C1.38089 0.109478 3.88208 0.10944 3.82028 0.108919C3.81785 0.108891 2.48461 0.108553 2.40158 0.108507C1.86019 0.108211 2.86563 0.108458 2.96414 0.108273C3.14416 0.107935 3.46256 0.1077 3.07205 0.107304C2.95638 0.107188 2.12539 0.106911 2.76816 0.106687C2.85232 0.106657 3.29301 0.106673 3.31881 0.10665C3.74901 0.106219 2.36432 0.106208 1.89536 0.105962C1.4265 0.105716 2.38237 0.105337 2.65787 0.105259C3.37055 0.105057 2.96244 0.105414 3.03238 0.105425C3.86468 0.105554 3.72139 0.105277 3.79171 0.105065C5.14942 0.105035 5.06792 0.104739 3.85916 0.104846C3.72713 0.104858 3.85374 0.105023 3.79171 0.105065C2.45962 0.104879 2.28902 0.104554 3.53384 0.104195C4.11727 0.104027 4.79752 0.104186 4.54867 0.103675C4.43633 0.103443 3.50148 0.103533 3.24661 0.103328C2.66509 0.102861 3.53715 0.102253 3.39975 0.101772C3.34986 0.101597 2.83813 0.101767 2.78641 0.101647C2.64753 0.10133 3.0315 0.101051 2.83481 0.100732C2.81634 0.100703 2.28066 0.100774 2.27383 0.100675C2.21162 0.0999236 2.55473 0.0992697 2.56424 0.0984856C2.56859 0.0981067 2.27315 0.0974294 2.33255 0.097037C2.43234 0.0963568 3.21129 0.09552 3.02206 0.0949389C2.90093 0.09456 2.36515 0.0946431 2.00009 0.0944807C1.29247 0.0941673 2.55999 0.0936127 2.75626 0.093538C2.76275 0.0935357 2.88906 0.0938618 3.16409 0.0936878C3.73717 0.0935866 2.75874 0.0935417 2.75626 0.093538C2.88305 0.0934889 3.00467 0.0928375 2.90225 0.0927081C2.84628 0.0926378 2.33865 0.0926771 2.31906 0.0926405C1.86478 0.0917694 1.73576 0.0908967 1.97312 0.0900132C1.98337 0.0899977 2.55118 0.0900211 2.56821 0.0899845C2.82067 0.089473 2.12606 0.0891455 1.71366 0.0887237C1.30144 0.0883019 1.4395 0.0879674 2.41428 0.0877177C2.29154 0.0873994 2.72249 0.0869429 2.98398 0.0866801C3.24546 0.0864174 2.14017 0.0863807 2.11832 0.0863576C1.41895 0.0856366 2.0516 0.0852197 2.15006 0.0844717C2.19876 0.084116 2.03844 0.0834106 1.91757 0.0830255C1.8202 0.0827212 2.07923 0.0825378 1.91361 0.0822574C1.89149 0.0822195 1.39935 0.0822578 1.38041 0.0822462C0.791597 0.0819332 1.99469 0.0820836 2.20957 0.082019C2.99094 0.0817848 3.4071 0.08164 3.03952 0.0812393C2.95534 0.0811468 1.22305 0.0808775 1.12174 0.080709C0.993201 0.08049 1.61412 0.0805726 1.46372 0.0803432C1.45142 0.0803236 1.06835 0.0803277 1.08524 0.0801861C1.1586 0.0795289 1.3815 0.0788124 1.34311 0.0781294C1.33934 0.0780361 0.731739 0.0781558 0.716284 0.078021C0.644261 0.0773885 0.666747 0.0766952 0.951146 0.0760791C1.02306 0.0759274 1.44848 0.0760225 1.5748 0.0759896C2.3391 0.0757874 1.22859 0.0755008 1.20743 0.0754535C0.673773 0.0743254 1.67877 0.0734619 1.20029 0.0723121C1.1722 0.0722495 -0.01829 0.0717677 1.00272 0.0715527C1.07065 0.071538 2.11525 0.0713253 1.40103 0.0711373C1.35635 0.0711256 0.818577 0.0712581 0.873388 0.0710269C0.928079 0.0707956 0.568956 0.0704235 1.15982 0.0701056C1.34596 0.0700049 2.38798 0.0697671 1.55735 0.0694669C1.49936 0.0694473 -0.378822 0.0689839 0.917028 0.0688184C1.13034 0.0687916 2.50164 0.0688197 1.79856 0.0684614C1.66225 0.0683929 1.35638 0.0685172 1.16538 0.0683369C0.87101 0.0680605 1.23829 0.0676944 0.627417 0.0673547C0.51927 0.0672955 -0.411488 0.0670433 0.294959 0.066841C0.405601 0.0668094 0.863413 0.0668696 0.914647 0.0667627C1.16041 0.0662548 0.854178 0.0657229 1.17093 0.0652071C1.28224 0.0650244 2.02234 0.0651178 2.22067 0.0649274C2.41894 0.0647369 2.60966 0.0643532 2.27145 0.0641539C1.9331 0.0639546 0.753544 0.0641723 0.659155 0.0638738C0.249216 0.0625756 0.941174 0.0612896 1.04239 0.0599934C1.05751 0.0598011 0.63543 0.0599605 0.627417 0.0596772C0.596016 0.0586327 0.20027 0.0568292 1.09714 0.0559228C1.81549 0.0551966 2.36237 0.0561105 2.65469 0.0555556C2.79414 0.0552878 1.42279 0.0549981 1.37961 0.0549334C0.941056 0.0543019 1.54854 0.053863 1.36216 0.0532946C1.32348 0.0531772 0.767657 0.0532923 0.740881 0.0531924C0.644489 0.0528512 0.892583 0.0524926 0.847204 0.0521665C0.825567 0.0520203 0.401049 0.0520472 0.433814 0.0519126C0.507322 0.0515905 0.685769 0.0513058 1.08365 0.0509918C1.11991 0.0509632 1.64799 0.0511561 1.66764 0.0509178C1.69792 0.0505322 2.09043 0.0500535 1.68509 0.0496098C1.56316 0.0494781 0.59293 0.049473 1.26297 0.04919C1.40292 0.0491306 2.56795 0.0492064 1.56131 0.0488767C1.39403 0.0488213 0.0362664 0.0482675 0.911473 0.0479958C1.14182 0.0479241 2.09517 0.0477411 1.94534 0.0475828C1.92144 0.0475613 1.40029 0.0476473 1.34946 0.0475161C1.17938 0.0470538 1.23498 0.0465693 1.07175 0.0460943C1.02713 0.0459674 0.487853 0.0461563 0.438575 0.0459673C0.302267 0.0454475 0.439577 0.0447984 0.608374 0.0442901C0.67163 0.0441026 1.11835 0.0442322 1.16697 0.0442186C1.95769 0.0439992 0.890394 0.0438696 0.828161 0.0437968C0.455513 0.0433441 0.956866 0.0429994 0.824193 0.0425822C0.788933 0.042467 0.280034 0.0425487 0.234657 0.0425257C-0.208712 0.042288 0.705204 0.0424651 0.805944 0.0423146C1.09119 0.0418931 1.05029 0.0414232 0.985265 0.0409968C0.960631 0.0408403 0.370551 0.0410163 0.355262 0.0408757C0.253581 0.040044 0.310045 0.0391793 0.635351 0.0383676C0.697674 0.0382148 1.15205 0.0383109 1.25583 0.0382791C1.98191 0.0380595 0.991532 0.0377378 0.897191 0.0376637C0.466432 0.0373271 0.868248 0.0371963 0.793249 0.0368991C0.419836 0.0354468 0.685964 0.0336536 0.850377 0.0322827C1.06198 0.0304963 1.49424 0.0291101 1.38199 0.0274066C1.37543 0.0272983 0.770963 0.0274075 0.757543 0.0273142C0.611826 0.0261092 0.848026 0.0249229 0.673437 0.0237155C0.660182 0.0236164 0.0871456 0.0237592 0.046608 0.0236002C-0.0405582 0.023274 -0.00941159 0.0228608 0.173561 0.022531C0.261721 0.0223701 0.753437 0.0225859 0.832128 0.022424C1.01648 0.022047 1.05729 0.0216428 0.965428 0.0212556C0.925086 0.0210908 0.339016 0.0213394 0.332252 0.0211252C0.274109 0.019666 0.173172 0.018233 0.932103 0.0167584C0.984226 0.0166573 2.17535 0.0165686 1.94693 0.0163537C1.61636 0.0163375 1.22751 0.0163384 0.874181 0.0163313C0.683849 0.0142071 1.09677 0.0121046 1.16062 0.00997447C1.16317 0.00988466 0.532056 0.0100399 0.533789 0.00986599C0.54312 0.00885962 0.368281 0.00788237 0.99558 0.00685297C1.05693 0.00675083 2.16722 0.00680323 1.9993 0.00650224C1.96866 0.00644916 1.82058 0.00599583 1.57956 0.00587862C1.54321 0.0058627 1.02497 0.00594541 1.00986 0.00579933C0.931165 0.00495043 1.04948 0.00406083 1.36612 0.0032134C1.41822 0.00307664 1.9701 0.00322229 2.01199 0.00312487C2.30496 0.00243387 1.88543 0.00168226 2.38651 0.00102198C2.7239 0.000580012 3.67787 0.000743642 4.61691 0.000508785C4.74939 0.000475567 4.77038 0.000201886 5.31673 0.000187733C6.69058 0.000151398 8.19493 0.000283961 9.65931 0.000229567C9.97473 0.000218075 9.635 -0.000148454 10.3972 6.85547e-05C10.4482 8.3715e-05 10.7012 0.000349451 10.9598 0.000414902C11.1386 0.000460471 11.6942 0.000378354 11.923 0.000471329C12.1517 0.000564297 11.6859 0.000666456 11.9548 0.000820595C12.227 0.000974665 12.8591 0.000906919 12.9339 0.00121461ZM4.15274 0.0854971C4.68354 0.0852538 2.73942 0.0852179 3.20456 0.085481C3.22935 0.0854938 4.1267 0.0855096 4.15274 0.0854971ZM4.4598 0.114932C5.31729 0.114614 4.05644 0.114397 3.39419 0.114621C2.73266 0.114845 4.19986 0.115029 4.4598 0.114932ZM5.08584 0.11823C5.76193 0.117859 3.0051 0.1178 3.5624 0.118198C3.5939 0.118221 5.04658 0.118252 5.08584 0.11823ZM4.8843 0.00159793C4.91012 0.00159457 4.93528 0.00139784 4.90969 0.00139314C4.29224 0.00128838 4.24236 0.00168177 4.8843 0.00159793ZM5.76742 0.121503C6.14034 0.121387 5.70984 0.121053 5.24612 0.121197C4.87306 0.121313 5.30352 0.121648 5.76742 0.121503ZM6.22762 0.0728063C6.25659 0.0728025 6.28268 0.0726614 6.11892 0.0726643C5.59148 0.0726738 5.74034 0.0728701 6.22762 0.0728063ZM5.79915 0.127066C5.90292 0.126244 8.1802 0.125745 7.92323 0.12664C7.87674 0.126802 7.19703 0.126291 6.99172 0.126497C6.61767 0.126875 8.04753 0.127125 7.28133 0.127511C7.14109 0.12758 5.78817 0.127112 5.79598 0.127064C5.79704 0.127065 5.7981 0.127065 5.79915 0.127066ZM6.48787 0.085357C6.51358 0.0853521 6.53796 0.0851569 6.51247 0.0851522C5.89527 0.0850465 5.8458 0.0854398 6.48787 0.085357ZM7.4297 0.0645762C7.48448 0.0645654 7.53572 0.0641123 7.48524 0.0640975C6.47595 0.0638611 6.36938 0.0647772 7.4297 0.0645762ZM7.91054 0.0985065C8.53144 0.0987195 8.60455 0.0989744 7.82484 0.0991442C7.86623 0.0989325 7.87233 0.0987194 7.91054 0.0985065Z" fill="#171717" fill-opacity="0.75"/>
<path d="M56.5495 280.986C56.559 280.566 56.8374 280.099 57.1223 279.768C57.2111 279.663 57.4194 279.796 57.4909 279.727C57.6305 279.593 57.5665 279.407 57.7224 279.279C57.7752 279.238 58.1147 279.417 58.1618 279.371C58.4173 279.116 58.4165 278.798 58.5905 278.513C59.4483 277.108 60.0553 275.654 60.7052 274.163C60.9192 273.672 61.441 273.157 61.4634 272.586C61.4657 272.52 61.1378 272.457 61.1154 272.437C60.7739 272.128 61.3934 272.39 61.5158 272.297C62.0002 271.929 62.1954 271.411 62.217 270.916C62.2253 270.705 61.5357 270.702 61.9499 270.618C61.978 270.612 62.2984 270.767 62.351 270.725C62.4696 270.629 62.4817 270.381 62.5378 270.296C62.6476 270.133 62.6536 270.102 62.7112 269.932C62.7928 269.702 63.0471 269.477 63.0498 269.203C63.0494 269.144 62.6828 269.106 62.651 269.003C62.6193 268.899 62.7196 268.683 62.8247 268.632C62.9298 268.582 63.1903 268.699 63.2566 268.705C63.8151 268.76 63.172 268.27 63.1646 268.231C63.0518 267.523 63.6302 267.129 63.8099 266.554C63.9455 266.117 63.956 265.608 64.1054 265.199C64.2847 264.712 64.6032 264.352 64.7224 263.862C64.7354 263.81 64.3118 263.742 64.3268 263.679C64.4868 263.006 64.7367 262.367 65.2163 261.798C65.2647 261.741 65.5935 261.938 65.6632 261.888C66.0819 261.578 66.9838 261.164 65.5112 260.438C65.6574 260.185 65.8239 259.874 66.2125 259.729C66.4628 259.635 66.802 259.91 66.6975 259.665C66.6744 259.61 66.3174 259.559 66.3084 259.485C66.2707 259.171 66.4754 258.906 66.3857 258.579C66.3667 258.513 66.0581 258.432 66.0083 258.399C65.6065 258.128 66.4081 258.14 66.4764 258.109C66.9878 257.87 66.9152 257.556 67.0316 257.22C67.0588 257.142 66.6213 257.106 66.6328 257.027C66.6978 256.616 66.8609 256.221 67.163 255.894C67.2312 255.822 67.5541 256.01 67.6045 255.981C67.8224 255.852 67.1782 255.605 67.3745 255.477C67.415 255.45 67.7062 255.564 67.741 255.568C68.2869 255.625 67.5882 255.306 67.5806 255.274C67.4677 254.867 68.2948 254.89 68.2902 254.53C68.2889 254.486 67.8845 254.456 67.9038 254.341C68.0303 253.577 68.3775 252.836 68.9068 252.206C68.9886 252.108 69.2462 252.278 69.2833 252.282C69.8647 252.338 69.158 252.033 69.1421 251.988C69.0354 251.636 69.7329 251.558 68.9252 251.088C69.6134 249.956 69.5096 248.581 70.6719 247.61C70.6858 247.598 71.0367 247.739 71.0629 247.713C71.3818 247.405 70.8005 247.3 70.1943 246.839C70.0422 246.723 70.9268 246.795 70.9926 246.797C71.2346 246.807 71.7498 247.038 71.7994 247.031C72.1914 246.97 70.4134 246.44 70.4844 246.213C70.4896 246.207 70.8058 246.339 70.8442 246.33C70.9645 246.303 70.8536 246.203 70.9839 246.181C71.2851 246.13 72.1597 246.354 71.7231 245.993C71.6663 245.947 70.6503 245.67 70.7616 245.483C70.8068 245.408 70.9022 245.045 70.9988 244.965C71.0953 244.886 71.3971 245.056 71.4133 245.053C71.926 244.918 72.071 245.077 72.7467 245.141C73.4201 245.204 71.9038 244.768 71.7533 244.66C71.6032 244.552 72.0184 244.465 72.1563 244.455C72.2943 244.446 72.4808 244.571 72.5638 244.55C73.1078 244.406 71.8567 244.189 71.6476 244.019C71.1523 243.618 72.3226 243.797 72.4961 243.627C72.543 243.581 72.2747 243.546 72.2664 243.49C72.2369 243.267 72.6218 243.26 72.3723 242.938C72.3317 242.885 71.7172 242.495 72.2459 242.535C72.322 242.541 72.5854 242.675 72.6738 242.612C72.8062 242.517 72.9372 242.313 72.8862 242.151C72.8484 242.031 72.3548 242 72.536 241.921C72.6169 241.886 72.8528 242.072 72.9824 241.999C73.1117 241.927 73.1826 241.661 73.2048 241.558C73.2268 241.456 72.8621 241.401 72.8412 241.385C72.7225 241.294 72.6152 241.05 72.6209 241.033C72.8472 240.167 73.6807 239.565 73.7484 238.673C73.7542 238.604 73.3741 238.532 73.3712 238.52C73.2879 238.248 74.2069 238.731 74.5821 238.678C73.8313 238.466 73.995 238.417 73.9629 238.234C73.9469 238.145 73.6459 238.096 73.6186 238.08C73.2166 237.83 73.8062 237.929 73.9281 237.946C74.3766 238.005 73.8998 237.766 74.1999 237.805C74.4979 237.843 74.8793 238.091 74.9214 237.939C74.6685 237.813 73.9376 237.706 73.8609 237.556C73.5705 236.989 74.3701 236.355 74.5362 236.026C74.702 235.697 74.6881 235.57 74.8479 235.398C75.1367 235.089 74.5785 235.06 74.4136 234.759C74.2489 234.457 75.484 234.968 75.7673 235.021C76.0503 235.075 75.7804 234.951 75.943 234.959C76.1055 234.966 76.264 235.111 76.3498 235.035C76.4355 234.959 76.0305 234.551 75.7555 234.428C75.1728 234.167 74.5018 234.082 74.8028 233.905C74.8205 233.895 75.1399 234.047 75.1908 234.003C75.5842 233.651 75.7417 233.206 76.1052 232.846C76.1557 232.796 76.5105 232.967 76.5441 232.939C76.8951 232.654 76.2282 232.585 75.5946 232.169C76.5066 232.505 77.1075 232.574 77.1991 232.302C77.2545 232.139 76.8411 232.04 76.5896 231.844C76.5137 231.785 76.828 231.756 76.6445 231.675C76.0447 231.41 75.3142 231.3 75.6801 231.105C75.6972 231.097 76.0251 231.244 76.0592 231.208C76.2811 230.974 75.6412 230.736 75.6565 230.413C75.6684 230.159 76.1961 229.868 76.3445 229.621C77.3838 229.955 77.2247 229.628 76.5391 229.3C76.6229 229.136 76.6412 228.937 76.7931 228.801C76.845 228.754 77.1345 228.887 77.1694 228.89C77.7153 228.939 77.0407 228.644 77.0251 228.598C76.8864 228.11 77.5195 227.947 77.1238 227.398C77.1095 227.378 76.3934 227.128 76.9539 227.191C76.9924 227.196 77.2813 227.427 77.3639 227.254C77.4466 227.08 77.9422 226.86 77.6865 226.502C77.6251 226.415 77.0867 226.076 77.5843 226.097C77.6518 226.1 77.8535 226.183 77.9765 226.196C78.3685 226.235 77.6508 225.962 78.3003 226.067C78.9497 226.172 79.474 226.131 79.1258 225.741C79.1159 225.729 78.5555 225.487 78.5898 225.409C78.6452 225.287 78.823 225.143 78.8612 225.009C78.8793 224.944 78.5067 224.872 78.5036 224.859C78.4372 224.366 78.8541 224.161 79.1382 223.746C79.1909 223.669 78.7767 223.273 79.2159 223.232C79.6969 223.186 81.405 223.927 81.114 223.382C80.998 223.163 78.8237 222.247 80.0785 222.314C79.9733 221.645 80.736 221.296 80.5082 220.586C80.4982 220.555 79.8989 220.275 79.9267 220.216C79.9693 220.13 80.2773 220.172 80.317 220.113C80.491 219.868 80.3195 219.539 80.4412 219.289C80.4868 219.193 80.778 219.324 80.8323 219.21C80.8864 219.096 80.5135 218.891 80.7564 218.791C80.9413 218.715 81.793 218.85 81.9387 218.718C81.1383 218.459 81.1898 218.353 81.0402 218.089C81.011 218.038 80.719 217.991 80.6908 217.963C80.5699 217.844 80.8226 217.85 80.6877 217.731C80.6554 217.702 80.3817 217.615 80.3398 217.587C79.9732 217.342 80.6504 217.343 80.7681 217.344C81.2157 217.345 80.8781 217.174 81.0693 217.127C81.2604 217.08 81.4151 217.289 81.5483 217.206C81.824 217.033 81.8751 216.717 81.9631 216.481C81.9965 216.387 81.6103 216.337 81.6066 216.32C81.576 216.094 82.028 216.017 81.3339 215.678C83.2608 216.134 81.1887 215.501 81.6548 215.337C81.6923 215.325 82.592 215.577 82.6958 215.704C82.7996 215.83 82.4804 215.872 82.6469 216.055C82.6859 216.098 83.47 216.521 83.5137 216.559C83.8548 216.855 82.516 216.46 82.44 216.446C81.6185 216.301 82.4559 216.781 82.5018 216.852C82.712 217.178 82.4615 217.32 82.6024 217.582C82.6929 217.753 83.5609 218.04 83.5022 218.133C83.3076 218.443 82.0541 218.178 83.0085 218.829C83.2119 218.968 84.1863 219.2 83.3599 219.208C83.3078 219.209 82.5651 219.175 82.9657 219.416C83.0162 219.446 83.2941 219.534 83.3119 219.558C83.4262 219.722 83.1804 219.73 83.2465 219.89C83.3125 220.051 83.4224 220.253 83.2826 220.368C83.1988 220.438 82.646 220.387 82.5062 220.389C82.104 220.392 82.6626 220.707 82.1976 220.64C81.7302 220.574 81.101 220.218 80.7532 220.321C81.4725 220.555 82.208 220.805 82.9301 221.045C82.7713 221.46 82.4066 221.804 82.3047 222.239C82.2927 222.293 82.6977 222.361 82.6949 222.422C82.6814 222.68 82.3393 222.801 82.3716 223.083C82.3981 223.301 82.7428 223.641 82.7833 223.873C81.919 223.735 82.1059 224.12 81.9625 224.312C81.9126 224.38 81.6937 224.305 81.6048 224.336C81.2749 224.455 82.0345 224.59 82.1318 224.682C82.5468 225.074 80.8888 224.574 80.8411 224.868C80.838 224.884 81.6611 225.343 81.708 225.385C82.0153 225.657 81.3933 225.315 81.2968 225.394C81.1206 225.539 80.8706 225.599 81.0612 225.894C81.1179 225.98 81.6196 226.302 81.1571 226.29C81.0965 226.288 80.8083 226.187 80.7872 226.195C80.4302 226.337 81.3426 226.631 81.6105 226.861C81.8784 227.091 81.1828 227.097 80.9878 227.081C80.4829 227.042 80.813 226.934 80.7686 226.914C80.2409 226.672 80.2885 226.851 80.2061 226.95C79.3044 226.684 79.308 226.86 80.1244 227.054C80.2136 227.075 80.158 226.96 80.2061 226.95C81.0542 227.327 81.1117 227.538 80.2288 227.472C79.815 227.442 79.3928 227.214 79.4704 227.541C79.5053 227.69 80.1378 227.836 80.2714 227.999C80.5761 228.372 79.8972 228.517 79.9061 228.806C79.9094 228.91 80.2762 228.925 80.2901 229C80.328 229.2 80.027 229.271 80.1028 229.483C80.1101 229.502 80.4758 229.576 80.4635 229.631C80.3772 230.048 80.0397 230.329 79.9003 230.749C79.8332 230.952 79.9134 231.379 79.8076 231.578C79.6263 231.923 78.9699 232.212 78.9963 232.564C79.012 232.794 79.3799 232.86 79.5934 233.024C80.0075 233.34 79.0764 233.375 78.9341 233.374C78.9294 233.374 78.9014 233.172 78.6902 233.209C78.2947 233.144 78.9331 233.372 78.9341 233.374C78.8421 233.374 78.6512 233.7 78.6969 233.791C78.7219 233.84 79.0638 233.925 79.0705 233.949C79.2227 234.512 79.1598 235.009 78.8532 235.436C78.8438 235.442 78.4728 235.311 78.4554 235.327C78.2019 235.55 78.605 235.871 78.8058 236.184C79.0064 236.497 78.8585 236.649 78.1724 236.58C78.1995 236.777 77.8375 236.934 77.6202 237.021C77.403 237.108 78.1266 237.358 78.1371 237.375C78.4766 237.908 77.9881 238.001 77.7962 238.384C77.7037 238.565 77.6898 238.979 77.7043 239.211C77.717 239.395 77.5148 239.44 77.5766 239.626C77.5848 239.651 77.9163 239.732 77.9268 239.743C78.2625 240.034 77.4936 239.702 77.3408 239.693C76.785 239.656 76.4857 239.648 76.6604 239.94C76.7003 240.007 77.7985 240.513 77.8368 240.624C77.8845 240.769 77.4885 240.595 77.5489 240.75C77.5537 240.763 77.8074 240.841 77.7722 240.914C77.6122 241.252 77.3435 241.592 77.253 241.968C77.2396 242.019 77.6611 242.081 77.6485 242.157C77.5887 242.512 77.4563 242.881 77.1639 243.154C77.0907 243.221 76.8259 243.081 76.7369 243.072C76.1979 243.022 76.8826 243.408 76.8885 243.437C77.0495 244.156 76.2394 244.412 76.3603 245.131C76.3682 245.171 77.0726 245.678 76.3619 245.581C76.3145 245.575 75.5887 245.472 76.0284 245.722C76.0559 245.738 76.4335 245.778 76.3581 245.891C76.2827 246.004 76.4567 246.28 76.0126 246.328C75.8726 246.343 75.1442 246.255 75.6418 246.589C75.6767 246.612 76.8383 247.252 75.9546 247.072C75.8092 247.042 74.9084 246.741 75.3119 247.081C75.3903 247.146 75.6133 247.143 75.7089 247.279C75.8564 247.49 75.5517 247.61 75.8975 247.92C75.9588 247.975 76.5306 248.304 76.0298 248.266C75.9514 248.26 75.6593 248.133 75.6074 248.18C75.3589 248.402 75.4709 248.752 75.1742 248.964C75.0697 249.039 74.5968 248.835 74.4336 248.896C74.2703 248.958 74.0793 249.125 74.2688 249.303C74.4584 249.48 75.2742 249.608 75.2859 249.789C75.3364 250.573 74.6612 251.122 74.3745 251.799C74.3319 251.9 74.6376 251.902 74.5949 252.056C74.4384 252.625 74.3937 253.679 73.6477 253.98C73.0501 254.222 72.8441 253.616 72.5569 253.854C72.4194 253.969 73.2758 254.411 73.2933 254.455C73.4758 254.886 73.0002 254.996 73.0268 255.341C73.0324 255.412 73.419 255.466 73.4197 255.525C73.4255 255.729 73.2008 255.871 73.1754 256.056C73.1649 256.139 73.4498 256.213 73.4053 256.278C73.3021 256.437 73.136 256.553 72.82 256.639C72.7912 256.647 72.4752 256.433 72.4218 256.558C72.3364 256.759 71.996 256.935 72.1884 257.258C72.2465 257.355 72.8863 257.559 72.3959 257.572C72.2934 257.575 71.5369 257.292 72.1457 257.679C72.2468 257.744 73.0494 258.324 72.4254 258.289C72.2611 258.279 71.6005 258.18 71.6726 258.296C71.6847 258.313 72.0435 258.375 72.0548 258.456C72.0886 258.74 71.9697 258.99 71.9969 259.28C72.0048 259.357 72.393 259.368 72.3935 259.48C72.3953 259.788 72.1945 260.109 71.9968 260.348C71.9232 260.436 71.6502 260.273 71.6158 260.27C71.0564 260.224 71.7392 260.516 71.768 260.568C71.9372 260.889 71.5477 260.971 71.5645 261.223C71.5682 261.292 71.9181 261.354 71.9442 261.376C72.1966 261.596 71.6232 261.311 71.5311 261.371C71.2713 261.539 71.2185 261.8 71.1892 262.043C71.1789 262.133 71.5984 262.161 71.5846 262.24C71.5106 262.709 71.3267 263.163 70.9741 263.532C70.907 263.602 70.6233 263.455 70.5494 263.451C70.0327 263.418 70.6321 263.797 70.6818 263.857C70.9091 264.128 70.6216 264.115 70.6207 264.29C70.6209 265.15 70.1409 266.061 69.7997 266.765C69.3569 267.683 68.8363 268.34 68.6214 269.281C68.6074 269.341 69.025 269.408 69.0181 269.461C68.9098 270.14 68.5526 270.73 68.463 271.417C68.455 271.473 68.8576 271.515 68.8574 271.609C68.8596 271.803 68.7689 272.019 68.5921 272.159C68.5066 272.227 68.2186 272.008 68.1391 272.079C67.9534 272.244 67.8579 272.453 67.8529 272.681C67.8515 272.778 68.2807 272.766 68.2488 272.883C68.0397 273.681 67.8632 274.474 67.1118 275.11C67.0603 275.154 66.2587 274.954 66.3731 275.117C66.5886 275.195 66.8455 275.275 67.0776 275.352C66.8429 276.536 66.2135 277.583 65.81 278.717C65.793 278.765 66.2361 278.812 66.2055 278.905C66.0286 279.446 65.9782 280.008 65.3893 280.432C65.3315 280.475 64.6072 280.215 64.667 280.412C64.6783 280.447 64.6991 280.722 64.8384 280.836C64.8597 280.852 65.2159 280.915 65.2011 280.997C65.1091 281.471 64.88 281.925 64.5271 282.316C64.4695 282.379 64.1298 282.185 64.0856 282.229C63.775 282.54 63.9245 283.032 63.4816 283.284C63.1838 283.452 62.5816 283.165 61.9217 283.096C61.8286 283.087 61.7683 283.23 61.4051 283.124C60.4918 282.858 59.5209 282.473 58.5447 282.198C58.3345 282.139 58.4966 282.407 58.0301 282.131C57.999 282.112 57.877 281.917 57.7174 281.828C57.6071 281.766 57.2263 281.695 57.0909 281.597C56.9557 281.499 57.2806 281.541 57.1292 281.402C56.9756 281.263 56.5467 281.168 56.5495 280.986ZM76.6477 237.415C76.256 237.436 77.5336 237.859 77.2711 237.621C77.2569 237.609 76.6671 237.414 76.6477 237.415ZM81.4391 221.496C80.8189 221.489 81.6145 221.869 82.0899 221.886C82.5648 221.902 81.6272 221.498 81.4391 221.496ZM81.5853 219.59C81.0758 219.649 82.8862 220.254 82.5858 219.924C82.5689 219.905 81.6149 219.586 81.5853 219.59ZM61.9299 282.454C61.9123 282.451 61.8623 282.551 61.8784 282.559C62.2683 282.744 62.368 282.542 61.9299 282.454ZM81.6905 217.685C81.4245 217.67 81.6521 217.939 81.9828 217.958C82.2488 217.973 82.0213 217.704 81.6905 217.685ZM73.1245 243.819C73.1047 243.815 73.0635 243.886 73.1721 243.918C73.522 244.023 73.457 243.886 73.1245 243.819ZM82.6133 214.682C82.4053 215.103 80.817 214.898 81.1386 214.469C81.1968 214.392 81.5588 214.809 81.7294 214.74C82.0404 214.615 81.1388 214.182 81.7101 214.134C81.8145 214.126 82.6285 214.659 82.6151 214.684C82.6145 214.683 82.6139 214.683 82.6133 214.682ZM75.082 237.005C75.0642 237.002 75.015 237.102 75.031 237.11C75.4206 237.295 75.52 237.094 75.082 237.005ZM70.9343 248.002C70.8963 247.997 70.7856 248.23 70.8164 248.248C71.4428 248.586 71.6686 248.114 70.9343 248.002ZM76.3736 229.626C75.9998 229.382 75.9947 229.23 76.5384 229.3C76.4751 229.406 76.435 229.519 76.3736 229.626Z" fill="#0F0F0F" fill-opacity="0.75"/>
<path d="M60.0229 267.858C60.7969 264.655 62.0558 260.782 63.2466 257.464C63.5101 256.727 63.7797 256.015 64.0453 255.34C64.5062 254.181 64.526 254.847 64.8587 254.054C65.5167 252.499 65.9612 250.998 66.6652 249.501C66.8983 249.01 67.0033 249.777 67.2403 249.258C68.545 246.403 69.5845 243.654 70.8973 240.786C74.3009 233.367 77.7855 226.105 81.2878 218.837C84.474 212.148 88.5472 205.56 93.8074 199.993C97.2362 196.282 101.88 192.534 105.68 189.085C105.891 188.893 106.104 188.701 106.317 188.508C106.789 188.082 106.286 188.075 106.361 187.976C107.555 186.43 107.5 187.35 108.513 186.644C112.552 183.854 116.958 180.805 120.751 178.117C122.369 176.973 120.349 177.523 122.215 176.732C122.345 176.676 122.118 177.248 122.593 176.98C123.662 176.375 125.583 175.059 126.4 174.573C127.976 173.634 128.226 173.473 129.698 172.555C131.705 171.309 134.197 169.985 136.324 168.608C136.777 168.313 135.977 168.374 136.685 167.875C137.288 167.45 138.803 166.56 139.682 166.104C139.838 166.024 139.973 165.957 140.079 165.909C140.788 165.588 140.649 166 140.8 165.987C142.044 165.886 143.951 163.901 144.239 163.716C149.476 160.342 154.383 158.185 159.59 155.55C163.545 153.549 167.771 151.384 171.648 149.696C176.084 147.768 179.981 146.38 184.355 144.78C184.539 144.712 184.724 144.645 184.91 144.577C185.397 144.401 184.683 144.204 185.278 143.988C191.616 141.701 198.108 139.917 204.748 138.868C205.411 138.764 204.636 139.3 205.305 139.218C209.401 138.676 215.863 138.567 218.156 136.765C219.696 136.659 221.42 136.571 223.076 136.57C224.425 136.569 225.733 136.625 226.86 136.762C228.479 136.968 226.907 137.366 228.888 137.213C229.335 137.183 228.758 136.815 229.435 136.799C232.281 136.735 235.391 137.129 238.229 137.497C238.807 137.571 238.716 137.23 238.89 137.207C240.374 137.02 242.447 138.406 242.894 138.622C246.421 140.207 248.992 141.291 252.011 143.184C252.018 143.188 252.025 143.193 252.032 143.197C252.691 143.612 252.12 142.745 252.791 143.164C256.303 145.389 259.5 148.219 262.178 151.154C262.772 151.809 261.94 151.492 262.209 151.818C263.382 153.252 264.163 153.079 265.254 154.494C265.483 154.793 265.11 154.845 265.13 154.919C265.441 156.067 266.615 156.261 266.809 156.46C269.244 158.956 269.987 161.195 272.047 163.805C272.293 164.119 272.082 163.157 272.756 164.059C273.46 165.003 274.151 165.97 274.827 166.955C278.442 172.208 281.754 177.889 284.663 183.334C285.2 184.334 284.532 183.788 284.536 183.868C284.642 185.168 285.684 185.423 285.898 185.726C287.566 188.131 288.433 190.797 290.263 191.965C292.155 195.1 294.22 198.098 296.642 200.697C302.494 207.007 308.857 212.89 314.146 219.834C314.242 219.96 313.772 219.993 313.964 220.242C316.242 223.261 316.21 222.328 318.333 223.896C318.873 224.299 319.307 226.385 319.344 226.561C319.505 227.205 318.678 226.995 318.758 227.191C318.807 227.305 318.858 227.405 318.913 227.493C319.621 228.633 320.902 227.662 322.086 229.454C322.123 229.516 321.672 229.451 321.749 229.631C321.992 230.195 322.431 230.62 322.65 231.177C323.151 232.464 322.645 233.339 324.168 234.808C324.361 234.996 325.052 234.095 326.081 235.894C326.494 236.605 328.344 239.748 328.774 240.675C329.213 241.6 328.575 241.153 328.598 241.224C329.532 243.84 328.861 243.015 328.929 244.535C328.983 246.043 330.202 244.979 330.617 245.39C331.034 245.8 331.625 247.766 331.725 248.258C331.83 248.756 331.361 248.301 331.493 248.728C332.347 251.534 332.76 249.528 333.403 250.278C334.92 252.066 334.596 254.175 335.303 256.104C335.496 256.631 335.561 256.106 335.78 256.557C336.636 258.341 336.745 259.572 337.841 261.564C337.99 261.835 338.894 262.894 339.123 264C339.172 264.233 339.192 264.47 339.167 264.698C339.143 264.884 338.733 264.5 338.905 265.349C339.194 266.602 339.419 269.026 338.918 270.457C338.561 271.498 339.556 270.534 338.748 271.759C338.352 272.256 338.743 271.155 338.019 272.041C337.341 272.986 335.039 274.52 334.063 274.898C333.134 275.318 333.78 275.429 333.717 275.485C333.309 275.837 331.44 276.642 331.267 276.674C330.478 276.906 329.708 277.095 328.907 277.262C321.13 278.739 313.821 278.429 306.188 278.808C305.532 278.835 305.976 279.212 305.876 279.22C303.618 279.416 305.378 278.369 303.804 278.047C304.043 278.823 303.102 278.696 301.518 278.789C300.751 278.834 301.17 279.134 301.1 279.165C299.962 279.628 299.17 279.034 298.965 278.912C298.214 278.465 297.394 278.987 296.882 278.686C296.373 278.386 297.551 277.957 296.031 277.951C295.601 278.226 296.727 278.966 295.567 279.073C291.187 279.493 283.038 278.687 279.538 278.473C276.665 278.307 275.379 278.27 273.894 278.152C273.567 278.126 273.231 278.096 272.868 278.059C269.196 277.683 270.514 278.294 268.215 278.411C265.903 278.521 267.103 277.258 266.79 276.953C266.483 276.648 266.111 276.92 265.719 276.738C265.33 276.556 266.206 276.416 265.271 276.298C264.33 276.181 261.725 276.517 261.37 276.791C260.618 277.375 261.735 278.121 259.254 277.712C259.112 277.688 259.603 277.372 259.055 277.297C254.711 276.717 250.184 276.341 245.852 275.754C245.257 275.673 245.823 275.328 245.476 275.276C241.867 274.737 243.112 275.496 241.067 276.065C241.59 275.133 240.538 274.451 237.783 274.232C236.127 274.101 236.38 274.546 235.287 274.764C234.959 274.829 233.809 274.453 233.582 274.636C232.835 275.237 233.885 276.041 231.07 275.552C230.947 275.529 231.368 275.201 230.939 275.149C228.167 274.82 227.791 275.477 224.784 275.381C224.218 275.364 223.555 275.315 222.828 275.248C220.522 275.033 217.62 274.652 215.579 274.528C215.674 273.438 213.124 273.601 212.074 274.328C210.333 274.249 208.451 274.252 206.765 274.124C206.188 274.08 206.572 273.77 206.499 273.735C205.383 273.184 204.617 273.909 204.24 273.935C200.16 274.182 196.833 273.646 192.943 274.253C192.805 274.275 192.599 275.036 191.545 274.503C191.477 274.466 192.757 274.095 190.924 274.106C189.09 274.116 185.626 273.804 183.094 274.25C182.48 274.357 180.954 275.031 179.68 274.604C179.512 274.546 179.684 274.321 179.44 274.21C178.651 273.858 178.251 274.643 177.314 274.035C176.376 273.427 174.436 273.03 171.898 273.618C171.815 273.636 171.243 274.276 170.438 274.312C169.142 274.369 167.307 274.353 165.97 274.442C165.326 274.485 165.762 274.835 165.651 274.849C165.407 274.876 165.167 274.902 164.93 274.926C160.988 275.326 157.979 275.234 153.595 275.431C152.744 275.469 150.347 276.173 148.669 275.901C146.83 275.605 148.533 273.605 144.418 274.39C142.757 274.707 140.842 277.227 137.732 276.278C131.931 277.092 126.487 276.97 120.685 277.953C120.426 277.996 119.659 278.728 119.038 278.778C118.119 278.851 117.593 278.594 116.932 278.637C114.181 278.808 111.702 279.311 109.054 279.527C108.043 279.611 108.36 279.261 107.168 279.36C105.963 279.459 105.219 279.951 103.57 279.909C102.337 279.874 101.022 279.145 99.3926 279.203C99.4192 280.046 98.2972 280.137 96.3277 280.549C95.9539 280.628 96.3868 280.88 96.2116 280.933C95.5337 281.143 94.828 280.991 94.1921 281.181C94.1556 281.188 94.1287 281.196 94.1019 281.204C93.931 281.256 93.9435 281.543 93.8056 281.602C92.6456 282.109 90.6564 281.606 90.319 281.519C89.0183 281.186 88.4323 281.605 87.4466 281.51C86.44 281.417 87.9068 281.096 86.7434 281.081C84.352 281.051 81.3083 281.337 78.9037 281.526C77.924 281.605 78.6246 281.931 78.485 281.951C76.5062 282.215 74.4559 281.992 73.431 282.857C71.8854 281.024 72.242 283.154 69.3816 283.064C69.1577 283.057 68.757 282.161 69.6183 281.929C70.4596 281.699 71.7914 281.856 72.9652 281.529C73.2455 281.451 74.793 280.429 75.0033 280.357C76.7201 279.787 77.0573 281.161 77.1656 281.228C78.2676 281.962 80.1702 280.858 80.6915 280.751C83.0432 280.26 85.1106 280.297 87.0685 279.935C88.3774 279.698 88.4045 278.78 89.4576 278.73C91.4225 278.638 92.6805 279.001 94.0306 279.058L93.9919 279.062C94.9291 279.084 95.9152 278.945 97.2248 278.354C97.8821 278.053 97.1022 277.125 99.637 277.67C99.7974 277.704 101.683 278.243 102.708 277.687C102.835 277.617 102.801 277.328 102.972 277.286C104.12 277.016 104.928 277.17 106.194 276.935C107.459 276.701 108.975 276.387 110.445 276.344C111.33 276.317 112.502 276.749 112.943 276.84C114.155 277.107 115.383 276.359 116.154 276.75C116.941 277.142 115.554 277.986 117.535 278.098C117.536 277.338 117.625 276.55 117.668 275.781C121.928 275.401 126.153 275.249 130.428 274.825C130.958 274.771 130.378 274.416 130.946 274.348C133.339 274.065 135.466 274.166 137.945 273.832C139.865 273.572 141.943 272.961 143.953 272.683C145.258 273.442 148.227 272.901 150.41 272.808C151.173 272.775 151.142 273.009 151.69 273.042C153.756 273.16 152.737 272.473 153.29 272.309C155.662 271.612 155.996 273.323 158.83 273.074C158.981 273.061 160.75 272.011 161.004 271.937C162.588 271.452 161.293 272.238 162.302 272.238C163.2 272.238 163.969 272.27 164.757 272.258C165.612 272.244 166.476 272.18 167.588 271.973C168.214 271.854 169.693 271.19 170.94 271.566C171.103 271.615 171.032 271.925 171.161 271.936C173.529 272.104 173.533 271.146 174.862 270.753C176.187 270.361 178.294 270.927 178.725 271.1C179.849 271.545 177.89 271.348 177.829 271.4C177.148 272.008 178.667 271.838 179.815 271.839C180.026 272.771 181.633 272.65 181.016 271.837C180.947 271.748 180.051 271.872 179.815 271.839C180.796 270.875 182.566 270.686 184.56 271.481C185.49 271.856 184.637 272.35 187.416 272.096C188.681 271.984 188.177 271.35 189.286 271.145C191.829 270.679 195.168 271.229 197.798 271.119C198.751 271.078 197.82 270.729 198.471 270.69C200.212 270.586 201.738 270.853 203.483 270.728C203.641 270.716 203.257 270.342 203.8 270.341C207.916 270.331 211.495 270.643 215.786 270.803C217.659 270.871 220.873 270.846 223.057 270.964C223.291 270.976 223.512 270.99 223.719 271.005C227.436 271.276 231.96 272.127 235.13 272.233C237.198 272.304 236.773 271.901 237.676 271.716C239.419 271.358 242.362 272.472 242.758 272.641C242.769 272.646 240.992 272.592 241.921 272.857C242.439 273.296 242.738 272.641 242.758 272.641C243.016 272.749 246.544 273.116 247.251 273.102C247.636 273.094 247.45 272.726 247.65 272.729C252.395 272.793 257.122 273.072 261.888 273.562C261.971 273.574 261.819 273.958 262.015 273.983C264.768 274.345 266.573 273.975 268.869 273.824C271.05 273.679 272.77 273.84 274.075 274.489C274.145 274.525 274.214 274.562 274.282 274.6C276.008 274.601 278.462 275.007 279.881 275.244C281.294 275.481 281.526 274.722 281.65 274.712C285.565 274.368 287.805 274.872 291.851 275.018C293.774 275.09 297.59 275.018 299.668 274.931C301.307 274.863 302.299 275.037 303.811 274.906C304.014 274.888 303.805 274.55 303.867 274.536C305.544 274.107 304.748 274.949 305.099 275.093C306.367 275.613 307.156 275.89 309.314 275.573C309.81 275.501 311.21 274.253 312.114 274.144C313.276 274.003 312.856 274.454 314.078 274.288C314.183 274.274 314.144 274.012 314.899 273.981C318.392 273.833 322.221 273.677 325.67 273.092C326.135 273.012 325.467 272.698 326.145 272.572C326.701 272.467 327.282 272.349 327.821 272.228C330.354 271.681 332.904 270.794 334.083 269.939C334.423 269.695 334.435 270.082 334.563 270.082C334.963 270.063 335.13 269.745 335.121 269.49C335.118 269.229 334.972 269.027 334.978 268.983C335.076 268.351 334.903 267.108 334.411 265.544C333.396 262.245 332.336 258.999 330.468 255.398C330.314 255.094 328.496 253.139 328.628 251.81C328.636 251.718 328.787 250.38 327.894 249.708C327.838 249.666 327.825 250.464 327.302 249.348C326.78 248.236 325.644 246.6 325.19 244.92C325.047 244.39 325.062 242.916 323.768 241.812C323.68 241.731 321.327 240.263 321.64 239.049C321.692 238.852 322.591 238.489 321.177 237.104C320.906 236.842 321.073 237.517 320.456 236.766C319.511 235.621 318.679 233.833 317.33 232.551C317.096 232.331 315.819 231.569 315.621 230.409C315.59 230.226 316.033 230.314 315.741 229.822C315.718 229.784 315.695 229.746 315.672 229.708C314.358 227.507 312.527 225.502 310.962 223.342C310.394 222.564 311.106 222.602 310.544 221.751C309.984 220.901 308.7 219.294 307.799 218.675C306.899 218.057 307.101 219.463 305.959 218.348C301.423 213.943 297.108 209.171 292.757 204.33C292.295 203.819 291.847 203.3 291.408 202.775C290.691 201.901 291.053 202.812 290.005 201.516C286.088 196.701 280.992 188.192 279.003 183.704C277.415 180.082 280.275 184.119 278.908 181.446C278.244 180.153 276.619 179.317 276.409 179.033C274.374 176.307 273.464 174.098 271.675 171.629C271.302 171.118 271.324 171.845 271.013 171.411C270.716 171.001 270.428 170.571 270.141 170.133C269.423 169.033 268.727 167.902 267.981 166.916C267.516 166.305 267.361 166.591 266.959 166.013C265.988 164.628 265.167 163.377 264.337 161.926C264.261 161.793 265.188 162.348 264.403 161.369C263.13 159.788 261.668 157.702 259.856 156.218C259.316 155.78 258.825 156.226 258.113 154.862C257.962 154.581 258.811 154.265 257.089 153.583C256.798 153.452 254.081 152.244 253.397 150.931C253.218 150.577 252.896 149.474 252.182 149.072C252.085 149.02 252.218 149.568 251.664 149.201C250.861 148.669 250.048 148.135 249.221 147.631C248.035 146.907 246.809 146.238 245.548 145.705C244.975 145.467 245.645 146.195 244.803 145.839C242.493 144.86 239.546 143.841 237.105 143.271C236.206 143.059 236.888 142.872 236.829 142.826C235.845 142.091 235.077 142.738 234.718 142.733C232.451 142.704 230.733 142.263 228.583 142.319C227.99 142.336 228.407 142.693 228.289 142.723C227.07 143.024 227.982 142.394 227.203 142.326C225.982 142.222 224.669 142.22 223.356 142.279C222.324 142.325 221.296 142.407 220.311 142.503C219.494 142.584 220.446 142.918 219.713 142.988C215.372 143.414 210.876 144.018 206.636 144.623C205.835 144.737 206.271 144.33 206.092 144.292C204.852 144.025 203.327 145.062 202.964 145.214C201.298 145.901 200.564 145.796 199.052 146.237C195.091 147.402 190.647 148.78 186.345 150.296C182.649 151.594 179.045 152.982 175.917 154.273C167.101 157.942 160.298 161.048 152.292 165.518C151.784 165.803 152.5 165.886 152.066 166.136C148.977 167.907 145.902 169.645 142.856 171.441C140.344 172.922 137.846 174.427 135.377 176.012C134.927 176.3 135.792 176.233 135.075 176.708C133.611 177.683 131.715 178.846 130.151 179.693C129.389 180.106 130.183 179.196 129.421 179.618C127.645 180.602 125.802 181.768 124.11 182.975C123.393 183.488 124.723 183.085 123.775 183.727C118.945 187.019 114.264 190.394 109.907 193.916C108.374 195.169 106.831 196.408 105.285 197.639C104.868 197.971 103.954 197.687 103.226 198.585C103.319 198.811 103.507 199.004 103.647 199.208C96.6401 205.749 91.2367 212.882 87.2038 221.589C86.4689 223.133 85.7358 224.684 85.0104 226.241C84.8047 226.683 85.5549 226.099 85.1575 226.958C82.8675 231.915 80.7986 236.777 78.1898 241.704C77.9325 242.193 77.3366 241.629 76.8025 243.169C76.7067 243.442 75.846 245.734 75.7584 246.382C75.7487 246.471 76.2509 246.199 75.958 246.928C74.2592 251.162 72.4084 255.579 70.8377 259.71C70.8122 259.777 70.788 259.828 70.765 259.867C70.5527 260.238 70.4383 259.575 70.2674 260.025C68.9395 263.524 68.0309 267.481 66.7995 270.776C65.9905 272.975 65.5655 271.983 64.6483 273.041C64.5118 273.197 64.2126 274.599 63.8388 274.604C62.8653 274.649 61.9684 273.736 60.9171 273.857C60.8037 273.873 60.7069 274.418 60.6223 274.89C60.5792 275.116 60.5403 275.392 60.4864 275.472C60.4307 275.54 60.3427 275.211 60.2571 274.813C60.2213 274.631 60.3337 273.005 60.2468 272.61C60.183 272.319 59.7043 272.71 59.6656 272.145C59.6298 271.576 60.0774 271.077 60.1105 270.184C60.145 269.293 59.6192 269.55 60.0229 267.858ZM286.264 276.273C287.574 276.678 287.804 275.337 286.37 275.62C286.3 275.635 286.197 276.253 286.264 276.273ZM126.222 276.266C128 276.696 129.101 275.719 127.841 275.375C126.586 275.031 125.678 276.136 126.222 276.266ZM108.391 278.405C110.449 278.675 110.578 276.745 108.464 277.338C108.339 277.372 108.27 278.389 108.391 278.405ZM65.9578 267.335C65.9333 267.352 65.6273 268.366 65.6378 268.397C65.8951 269.057 66.5075 267.024 65.9578 267.335ZM90.7059 280.505C91.3649 280.716 93.1437 280.288 92.3444 280.024C91.7175 279.81 89.8902 280.243 90.7059 280.505ZM334.722 256.414C334.733 256.389 334.446 255.68 334.347 255.738C334.036 255.936 334.547 256.861 334.722 256.414ZM60.6149 283.783C61.0382 283.722 61.4439 283.665 61.8306 283.611L61.811 283.616C65.5495 283.053 67.3677 284.17 63.1615 284.733C62.3127 284.874 64.8715 283.881 63.7776 283.949C63.1051 283.991 62.5418 284.168 62.0285 284.399C62.0249 284.4 62.0141 284.403 62.0105 284.404C60.8762 284.842 59.7888 285.312 58.3443 285.098C57.9604 285.045 60.3915 283.838 60.6222 283.78C60.6198 283.781 60.6173 283.782 60.6149 283.783ZM286.98 277.911C287.006 277.929 288.068 277.974 288.094 277.957C288.679 277.545 286.542 277.455 286.98 277.911ZM311.972 217.937C311.964 217.864 310.312 216.02 310.228 215.988C308.846 215.52 312.171 219.232 311.972 217.937ZM215.538 274.498C214.366 274.885 212.988 274.893 212.079 274.328C213.229 274.389 214.383 274.43 215.538 274.498Z" fill="#0F0F0F" fill-opacity="0.75"/>
<path d="M160.856 234.039L157.845 234.891C157.655 234.389 157.376 233.901 157.007 233.428C156.647 232.945 156.154 232.547 155.529 232.235C154.904 231.922 154.104 231.766 153.129 231.766C151.794 231.766 150.681 232.074 149.791 232.689C148.91 233.295 148.47 234.067 148.47 235.004C148.47 235.838 148.773 236.496 149.379 236.979C149.985 237.462 150.932 237.864 152.22 238.186L155.458 238.982C157.409 239.455 158.863 240.18 159.819 241.155C160.776 242.121 161.254 243.366 161.254 244.891C161.254 246.141 160.894 247.258 160.174 248.243C159.464 249.228 158.47 250.004 157.191 250.573C155.913 251.141 154.426 251.425 152.731 251.425C150.506 251.425 148.664 250.942 147.205 249.976C145.747 249.01 144.824 247.599 144.436 245.743L147.617 244.948C147.92 246.122 148.493 247.003 149.336 247.59C150.188 248.177 151.301 248.47 152.674 248.47C154.237 248.47 155.477 248.139 156.396 247.476C157.324 246.804 157.788 245.999 157.788 245.061C157.788 244.304 157.523 243.669 156.992 243.158C156.462 242.637 155.648 242.249 154.549 241.993L150.913 241.141C148.915 240.667 147.447 239.933 146.509 238.939C145.581 237.935 145.117 236.681 145.117 235.175C145.117 233.944 145.463 232.855 146.154 231.908C146.855 230.961 147.807 230.218 149.009 229.678C150.222 229.138 151.595 228.868 153.129 228.868C155.288 228.868 156.983 229.342 158.214 230.289C159.455 231.236 160.335 232.486 160.856 234.039ZM169.652 237.845V250.97H166.3V221.879H169.652V232.561H169.936C170.448 231.434 171.215 230.54 172.237 229.877C173.27 229.204 174.643 228.868 176.357 228.868C177.843 228.868 179.146 229.166 180.263 229.763C181.38 230.35 182.247 231.254 182.862 232.476C183.487 233.688 183.8 235.232 183.8 237.107V250.97H180.448V237.334C180.448 235.601 179.998 234.261 179.098 233.314C178.208 232.358 176.972 231.879 175.391 231.879C174.292 231.879 173.308 232.111 172.436 232.576C171.575 233.04 170.893 233.717 170.391 234.607C169.898 235.497 169.652 236.576 169.652 237.845ZM189.933 250.97V229.152H193.285V250.97H189.933ZM191.637 225.516C190.984 225.516 190.42 225.293 189.947 224.848C189.483 224.403 189.251 223.868 189.251 223.243C189.251 222.618 189.483 222.083 189.947 221.638C190.42 221.193 190.984 220.97 191.637 220.97C192.291 220.97 192.849 221.193 193.313 221.638C193.787 222.083 194.024 222.618 194.024 223.243C194.024 223.868 193.787 224.403 193.313 224.848C192.849 225.293 192.291 225.516 191.637 225.516ZM202.777 237.845V250.97H199.425V229.152H202.664V232.561H202.948C203.459 231.453 204.236 230.563 205.277 229.891C206.319 229.209 207.664 228.868 209.311 228.868C210.789 228.868 212.081 229.171 213.189 229.777C214.297 230.374 215.159 231.283 215.774 232.504C216.39 233.717 216.698 235.251 216.698 237.107V250.97H213.345V237.334C213.345 235.62 212.9 234.285 212.01 233.328C211.12 232.362 209.898 231.879 208.345 231.879C207.275 231.879 206.319 232.111 205.476 232.576C204.643 233.04 203.985 233.717 203.502 234.607C203.019 235.497 202.777 236.576 202.777 237.845ZM224.201 259.152C223.633 259.152 223.126 259.105 222.681 259.01C222.236 258.925 221.928 258.84 221.758 258.754L222.61 255.8C223.425 256.008 224.144 256.084 224.769 256.027C225.394 255.97 225.948 255.691 226.431 255.189C226.924 254.697 227.374 253.897 227.781 252.789L228.406 251.084L220.338 229.152H223.974L229.997 246.539H230.224L236.247 229.152H239.883L230.622 254.152C230.205 255.279 229.689 256.212 229.073 256.951C228.458 257.699 227.743 258.253 226.928 258.612C226.124 258.972 225.214 259.152 224.201 259.152Z" fill="black"/>
</svg>
