<svg width="481" height="167" viewBox="0 0 481 167" fill="none" xmlns="http://www.w3.org/2000/svg">
<path d="M279.47 128.47V138.97H276.788V115.698H279.47V124.243H279.697C280.106 123.342 280.72 122.626 281.538 122.095C282.364 121.558 283.462 121.289 284.833 121.289C286.023 121.289 287.064 121.527 287.958 122.004C288.852 122.474 289.545 123.198 290.038 124.175C290.538 125.145 290.788 126.379 290.788 127.879V138.97H288.106V128.061C288.106 126.675 287.746 125.603 287.026 124.845C286.314 124.08 285.326 123.698 284.061 123.698C283.182 123.698 282.394 123.883 281.697 124.254C281.008 124.626 280.462 125.167 280.061 125.879C279.667 126.592 279.47 127.455 279.47 128.47ZM300.83 139.379C299.724 139.379 298.721 139.171 297.819 138.754C296.918 138.33 296.202 137.72 295.671 136.925C295.141 136.122 294.876 135.152 294.876 134.016C294.876 133.016 295.073 132.205 295.467 131.584C295.861 130.955 296.387 130.463 297.046 130.107C297.705 129.751 298.433 129.486 299.228 129.311C300.031 129.129 300.838 128.986 301.649 128.879C302.709 128.743 303.569 128.641 304.228 128.573C304.895 128.497 305.38 128.372 305.683 128.198C305.993 128.023 306.149 127.72 306.149 127.289V127.198C306.149 126.076 305.842 125.205 305.228 124.584C304.622 123.963 303.702 123.652 302.467 123.652C301.187 123.652 300.183 123.933 299.455 124.493C298.728 125.054 298.217 125.652 297.921 126.289L295.376 125.379C295.83 124.319 296.437 123.493 297.194 122.902C297.959 122.304 298.793 121.887 299.694 121.652C300.603 121.41 301.497 121.289 302.376 121.289C302.937 121.289 303.58 121.357 304.308 121.493C305.043 121.622 305.751 121.891 306.433 122.3C307.122 122.709 307.694 123.326 308.149 124.152C308.603 124.978 308.83 126.084 308.83 127.47V138.97H306.149V136.607H306.012C305.83 136.986 305.527 137.391 305.103 137.823C304.679 138.254 304.115 138.622 303.41 138.925C302.705 139.228 301.846 139.379 300.83 139.379ZM301.24 136.97C302.3 136.97 303.194 136.762 303.921 136.345C304.656 135.929 305.209 135.391 305.58 134.732C305.959 134.073 306.149 133.379 306.149 132.652V130.198C306.035 130.334 305.785 130.459 305.399 130.573C305.02 130.679 304.58 130.773 304.08 130.857C303.588 130.933 303.107 131.001 302.637 131.061C302.175 131.114 301.8 131.16 301.512 131.198C300.815 131.289 300.164 131.436 299.558 131.641C298.959 131.838 298.474 132.137 298.103 132.539C297.74 132.933 297.558 133.47 297.558 134.152C297.558 135.084 297.902 135.789 298.592 136.266C299.289 136.736 300.171 136.97 301.24 136.97ZM313.725 138.97V121.516H316.316V124.243H316.544C316.907 123.311 317.494 122.588 318.305 122.073C319.116 121.55 320.089 121.289 321.225 121.289C322.377 121.289 323.335 121.55 324.1 122.073C324.873 122.588 325.475 123.311 325.907 124.243H326.089C326.536 123.342 327.206 122.626 328.1 122.095C328.994 121.558 330.066 121.289 331.316 121.289C332.877 121.289 334.153 121.777 335.146 122.754C336.138 123.724 336.634 125.236 336.634 127.289V138.97H333.953V127.289C333.953 126.001 333.6 125.08 332.896 124.527C332.191 123.974 331.362 123.698 330.407 123.698C329.18 123.698 328.229 124.069 327.555 124.811C326.881 125.546 326.544 126.478 326.544 127.607V138.97H323.816V127.016C323.816 126.023 323.494 125.224 322.85 124.618C322.206 124.004 321.377 123.698 320.362 123.698C319.665 123.698 319.013 123.883 318.407 124.254C317.809 124.626 317.324 125.141 316.953 125.8C316.589 126.451 316.407 127.205 316.407 128.061V138.97H313.725ZM341.901 138.97V115.698H344.583V124.289H344.811C345.008 123.986 345.28 123.599 345.629 123.129C345.985 122.652 346.492 122.228 347.151 121.857C347.818 121.478 348.72 121.289 349.856 121.289C351.326 121.289 352.621 121.656 353.742 122.391C354.864 123.126 355.739 124.167 356.367 125.516C356.996 126.864 357.311 128.455 357.311 130.289C357.311 132.137 356.996 133.739 356.367 135.095C355.739 136.444 354.867 137.489 353.754 138.232C352.64 138.967 351.356 139.334 349.901 139.334C348.78 139.334 347.883 139.148 347.208 138.777C346.534 138.398 346.015 137.97 345.651 137.493C345.288 137.008 345.008 136.607 344.811 136.289H344.492V138.97H341.901ZM344.538 130.243C344.538 131.561 344.731 132.724 345.117 133.732C345.504 134.732 346.068 135.516 346.811 136.084C347.553 136.645 348.462 136.925 349.538 136.925C350.659 136.925 351.595 136.629 352.345 136.039C353.102 135.44 353.67 134.637 354.049 133.629C354.436 132.614 354.629 131.486 354.629 130.243C354.629 129.016 354.439 127.91 354.061 126.925C353.689 125.933 353.125 125.148 352.367 124.573C351.617 123.989 350.674 123.698 349.538 123.698C348.447 123.698 347.53 123.974 346.788 124.527C346.045 125.073 345.485 125.838 345.106 126.823C344.727 127.8 344.538 128.94 344.538 130.243ZM372.413 131.834V121.516H375.095V138.97H372.413V136.016H372.231C371.822 136.902 371.186 137.656 370.322 138.277C369.458 138.891 368.367 139.198 367.049 139.198C365.958 139.198 364.989 138.959 364.14 138.482C363.292 137.997 362.625 137.27 362.14 136.3C361.655 135.323 361.413 134.092 361.413 132.607V121.516H364.095V132.425C364.095 133.698 364.451 134.713 365.163 135.47C365.883 136.228 366.799 136.607 367.913 136.607C368.58 136.607 369.258 136.436 369.947 136.095C370.644 135.754 371.227 135.232 371.697 134.527C372.174 133.823 372.413 132.925 372.413 131.834ZM380.007 138.97V121.516H382.598V124.152H382.779C383.098 123.289 383.673 122.588 384.507 122.05C385.34 121.512 386.279 121.243 387.325 121.243C387.522 121.243 387.768 121.247 388.063 121.254C388.359 121.262 388.582 121.273 388.734 121.289V124.016C388.643 123.993 388.435 123.959 388.109 123.914C387.791 123.861 387.454 123.834 387.098 123.834C386.249 123.834 385.491 124.012 384.825 124.368C384.166 124.717 383.643 125.201 383.257 125.823C382.878 126.436 382.688 127.137 382.688 127.925V138.97H380.007ZM398.427 145.879C397.132 145.879 396.018 145.713 395.086 145.379C394.154 145.054 393.378 144.622 392.757 144.084C392.143 143.554 391.654 142.986 391.291 142.379L393.427 140.879C393.669 141.198 393.976 141.561 394.348 141.97C394.719 142.387 395.226 142.747 395.87 143.05C396.522 143.361 397.374 143.516 398.427 143.516C399.836 143.516 400.999 143.175 401.916 142.493C402.832 141.811 403.291 140.743 403.291 139.289V135.743H403.063C402.866 136.061 402.586 136.455 402.223 136.925C401.866 137.387 401.351 137.8 400.677 138.164C400.01 138.52 399.109 138.698 397.973 138.698C396.563 138.698 395.298 138.364 394.177 137.698C393.063 137.031 392.181 136.061 391.529 134.789C390.885 133.516 390.563 131.97 390.563 130.152C390.563 128.364 390.878 126.808 391.507 125.482C392.135 124.148 393.01 123.118 394.132 122.391C395.253 121.656 396.548 121.289 398.018 121.289C399.154 121.289 400.056 121.478 400.723 121.857C401.397 122.228 401.912 122.652 402.268 123.129C402.632 123.599 402.912 123.986 403.109 124.289H403.382V121.516H405.973V139.47C405.973 140.97 405.632 142.19 404.95 143.129C404.276 144.076 403.366 144.77 402.223 145.209C401.086 145.656 399.821 145.879 398.427 145.879ZM398.336 136.289C399.412 136.289 400.321 136.042 401.063 135.55C401.806 135.058 402.37 134.349 402.757 133.425C403.143 132.501 403.336 131.395 403.336 130.107C403.336 128.849 403.147 127.739 402.768 126.777C402.389 125.815 401.829 125.061 401.086 124.516C400.344 123.97 399.427 123.698 398.336 123.698C397.2 123.698 396.253 123.986 395.495 124.561C394.745 125.137 394.181 125.91 393.802 126.879C393.431 127.849 393.245 128.925 393.245 130.107C393.245 131.319 393.435 132.391 393.813 133.323C394.2 134.247 394.768 134.974 395.518 135.504C396.276 136.027 397.215 136.289 398.336 136.289ZM418.2 139.334C416.518 139.334 415.067 138.963 413.848 138.22C412.635 137.47 411.7 136.425 411.041 135.084C410.389 133.736 410.063 132.167 410.063 130.379C410.063 128.592 410.389 127.016 411.041 125.652C411.7 124.281 412.616 123.213 413.791 122.448C414.973 121.675 416.351 121.289 417.927 121.289C418.836 121.289 419.734 121.44 420.62 121.743C421.507 122.046 422.313 122.539 423.041 123.22C423.768 123.895 424.348 124.789 424.779 125.902C425.211 127.016 425.427 128.387 425.427 130.016V131.152H411.973V128.834H422.7C422.7 127.849 422.503 126.97 422.109 126.198C421.723 125.425 421.169 124.815 420.45 124.368C419.738 123.921 418.897 123.698 417.927 123.698C416.859 123.698 415.935 123.963 415.154 124.493C414.382 125.016 413.787 125.698 413.37 126.539C412.954 127.379 412.745 128.281 412.745 129.243V130.789C412.745 132.107 412.973 133.224 413.427 134.141C413.889 135.05 414.529 135.743 415.348 136.22C416.166 136.69 417.116 136.925 418.2 136.925C418.904 136.925 419.541 136.826 420.109 136.629C420.685 136.425 421.181 136.122 421.598 135.72C422.014 135.311 422.336 134.804 422.563 134.198L425.154 134.925C424.882 135.804 424.423 136.576 423.779 137.243C423.135 137.902 422.34 138.417 421.393 138.789C420.446 139.152 419.382 139.334 418.2 139.334ZM429.507 138.97V121.516H432.098V124.152H432.279C432.598 123.289 433.173 122.588 434.007 122.05C434.84 121.512 435.779 121.243 436.825 121.243C437.022 121.243 437.268 121.247 437.563 121.254C437.859 121.262 438.082 121.273 438.234 121.289V124.016C438.143 123.993 437.935 123.959 437.609 123.914C437.291 123.861 436.954 123.834 436.598 123.834C435.749 123.834 434.991 124.012 434.325 124.368C433.666 124.717 433.143 125.201 432.757 125.823C432.378 126.436 432.188 127.137 432.188 127.925V138.97H429.507Z" fill="black"/>
<path d="M259.363 100.128C262.299 99.9423 266.156 100.101 269.126 100.333C270.029 100.405 269.57 100.752 270.205 100.817C271.466 100.944 272.644 100.768 273.837 100.921C274.245 100.973 273.74 101.522 274.169 101.564C276.502 101.792 278.752 101.64 281.096 101.742C283.415 101.841 285.64 101.927 287.975 102C297.29 102.303 306.629 102.421 316.109 102.573C319.998 102.635 324.776 103.108 328.782 102.874C329.254 102.846 328.97 102.368 329.06 102.328C330.468 101.717 330.008 102.687 330.918 102.811C334.549 103.303 338.615 103.331 342.099 103.134C343.591 103.048 342.091 102.102 343.597 102.631C343.702 102.667 343.324 103.177 343.735 103.229C344.659 103.348 346.412 103.251 347.132 103.289C348.52 103.365 348.747 103.359 350.054 103.361C351.841 103.368 353.973 103.615 355.89 103.495C356.299 103.467 355.755 102.947 356.409 102.857C357.063 102.767 358.794 102.807 359.377 102.928C359.96 103.05 359.713 103.46 359.816 103.554C360.667 104.345 362.667 103.243 362.924 103.215C367.617 102.743 371.645 103.363 376.051 103.358C379.398 103.353 382.982 103.146 386.155 103.177C389.961 103.215 393.161 103.501 396.853 103.461C397.243 103.457 396.787 102.843 397.263 102.837C402.313 102.777 407.308 102.862 412.339 103.303C412.837 103.348 412.19 103.882 412.69 103.959C415.808 104.418 420.611 105.516 422.503 103.189C423.173 103.224 423.883 103.259 424.594 103.308C426.171 103.413 427.697 103.575 428.985 103.911C430.197 104.229 429.016 104.802 430.499 104.569C430.831 104.518 430.407 103.999 430.904 103.96C433.011 103.799 435.303 103.999 437.412 103.772C437.834 103.724 437.727 103.262 437.848 103.181C438.84 102.528 440.557 103.673 440.903 103.762C443.69 104.426 445.738 104.245 448.342 104.349C448.953 104.375 448.253 103.731 448.841 103.733C451.867 103.754 455.003 103.952 457.963 104.428C458.634 104.537 457.978 105.019 458.295 105.098C459.672 105.441 460.053 104.473 461.382 104.803C461.657 104.872 461.46 105.307 461.506 105.361C462.216 106.204 463.058 105.183 463.259 105.18C465.939 105.133 467.479 106.486 470.039 106.825C470.345 106.868 469.776 106.166 470.635 106.323C472.641 106.722 474.705 107.199 476.867 108.475C477.918 109.121 479.107 110.082 479.794 111.612C480.496 113.145 480.348 114.863 479.951 116.075C479.182 118.366 477.901 119.887 476.645 121.295C476.008 121.983 476.091 121.192 476.013 121.206C474.808 121.387 475.25 122.552 475.091 122.796C473.768 124.739 471.596 125.534 471.364 127.547C463.947 133.713 456.672 139.779 448.183 143.995C448.076 144.049 447.955 143.477 447.743 143.586C445.182 144.895 446.105 145.3 445.056 147.198C444.79 147.677 442.889 147.394 442.733 147.382C442.159 147.342 442.141 146.398 441.974 146.425C441.762 146.463 441.622 146.547 441.531 146.666C441.02 147.318 441.97 148.979 440.687 149.757C440.638 149.782 440.581 149.24 440.429 149.275C439.957 149.38 439.673 149.778 439.195 149.864C438.111 150.049 437.148 149.109 436.168 150.536C436.041 150.718 437.063 151.896 435.636 152.602C435.079 152.885 432.595 154.214 431.837 154.463C431.086 154.72 431.358 154.042 431.298 154.048C429.119 154.373 429.727 153.781 428.386 153.341C427.06 152.886 428.236 154.854 427.941 155.259C427.645 155.668 426.01 155.759 425.593 155.717C425.175 155.68 425.499 155.221 425.151 155.243C422.852 155.375 424.637 156.643 424.067 157.238C422.69 158.636 420.856 157.44 419.308 157.709C418.888 157.781 419.326 158.058 418.969 158.195C417.538 158.729 416.545 158.436 414.977 159.285C414.726 159.424 413.569 160.712 412.529 160.152C412.384 160.071 412.652 159.591 412.012 159.618C411.051 159.661 409.325 159.867 408.349 160.162C407.613 160.383 408.585 160.934 407.599 160.868C407.17 160.836 407.877 160.319 407.076 160.291C406.274 160.266 404.264 160.56 403.514 160.666C402.757 160.776 403.237 161.246 403.181 161.289C402.824 161.54 401.399 161.965 401.264 161.979C399.688 162.176 398.161 162.296 396.61 162.382C391.782 162.644 387.09 162.536 382.274 163.073C381.776 163.128 382.144 163.66 382.069 163.674C380.369 164.016 381.625 162.457 380.399 162.039C380.64 163.153 379.93 162.993 378.728 163.189C378.148 163.284 378.492 163.7 378.441 163.748C377.618 164.46 376.972 163.64 376.807 163.474C376.2 162.864 375.616 163.658 375.208 163.25C374.798 162.845 375.653 162.164 374.502 162.235C374.2 162.655 375.115 163.66 374.246 163.878C370.965 164.707 364.738 164.167 362.073 164.187C359.411 164.21 358.556 164.316 357.001 164.228C354.194 164.067 355.247 164.811 353.521 165.229C351.791 165.645 352.574 163.694 352.31 163.289C352.05 162.884 351.795 163.318 351.482 163.101C351.17 162.884 351.82 162.582 351.101 162.52C350.384 162.458 348.445 163.254 348.205 163.693C347.694 164.624 348.61 165.559 346.698 165.277C346.588 165.26 346.929 164.745 346.509 164.706C343.177 164.412 339.726 164.474 336.403 164.2C335.946 164.161 336.341 163.59 336.076 163.562C333.315 163.258 334.305 164.186 332.822 165.268C333.141 163.859 332.269 163.019 330.187 163.045C328.918 163.059 329.148 163.668 328.346 164.112C328.106 164.245 327.196 163.837 327.041 164.127C326.518 165.076 327.389 166.12 325.204 165.726C325.109 165.707 325.406 165.189 325.077 165.161C322.964 164.98 322.714 165.968 320.419 166.103C320.329 166.108 320.236 166.111 320.14 166.113C318.276 166.152 315.293 165.597 313.349 165.471C313.407 163.896 311.486 164.223 310.666 165.287C309.34 165.208 307.879 165.217 306.614 165.008C306.164 164.935 306.483 164.493 306.428 164.441C305.602 163.628 304.99 164.651 304.687 164.676C301.548 164.892 299.079 163.881 296.006 164.249C295.893 164.261 295.577 165.327 294.88 164.41C294.84 164.348 295.895 164.01 294.507 163.751C293.093 163.491 290.625 162.399 288.597 162.286C288.118 162.271 286.626 162.708 285.964 161.701C285.878 161.566 286.122 161.324 286.014 161.095C285.895 160.844 285.729 160.783 285.56 160.77C285.227 160.742 284.809 160.852 284.659 160.092C284.423 158.934 283.61 157.695 281.656 157.169C281.597 157.152 280.725 157.626 280.222 157.26C279.425 156.68 278.413 155.713 277.594 155.099C277.207 154.809 277.124 155.43 277.051 155.387C274.234 153.616 272.714 151.742 270.153 149.315C269.686 148.871 267.787 148.231 267.219 146.965C266.603 145.581 269.413 144.483 266.628 142.901C265.78 142.412 263.642 143.138 262.376 142.317C261.953 142.042 261.634 141.599 261.512 140.893C257.934 138.221 255.701 134.698 252.312 131.785C252.157 131.651 251.035 131.804 250.731 131.428C250.286 130.874 250.386 130.303 250.085 129.895C248.856 128.198 247.387 126.922 246.246 125.237C245.824 124.609 246.34 124.548 245.847 123.796C245.348 123.026 244.51 122.867 244.085 121.658C243.769 120.742 244.34 119.315 243.894 118.213C242.813 118.756 242.402 118.028 241.482 116.791C241.305 116.546 241.047 117.008 240.943 116.899C240.706 116.666 240.628 116.325 240.557 116.028C240.495 115.775 240.437 115.533 240.285 115.297C240.202 115.165 239.792 115.228 239.703 115.107C239.311 114.594 239.395 113.775 239.671 113.199C239.942 112.612 240.353 112.238 240.47 112.132C241.38 111.355 241.097 110.755 241.669 110.173C242.241 109.626 241.974 110.751 242.519 110.064C242.674 109.871 242.831 109.669 242.989 109.458C242.993 109.453 243.001 109.437 243.004 109.431C243.816 108.256 245.533 107.303 246.926 106.688C247.579 106.408 246.917 106.093 247.005 106.041C248.36 105.307 249.981 105.423 250.486 104.129C252.273 106.593 251.289 103.591 253.569 103.643C253.751 103.65 254.245 104.921 253.665 105.256C253.088 105.591 252.04 105.415 251.273 105.955C251.079 106.081 250.334 107.63 250.22 107.753C249.283 108.697 248.429 106.887 248.318 106.806C247.156 105.958 246.363 107.832 246.141 108.079C245.225 108.938 244.357 109.585 244.234 110.044C244.222 110.066 244.186 110.134 244.173 110.156C244.017 110.468 243.883 110.781 243.792 111.101C243.545 111.994 244.719 112.621 244.49 113.08C244.241 113.613 243.945 113.86 243.686 114.143C243.432 114.416 243.236 114.733 243.347 115.054C243.467 115.397 243.842 115.834 244.556 116.2C245.084 116.48 246.114 115.383 245.925 117.4C245.913 117.531 245.666 119.18 246.636 119.487C246.757 119.525 247.112 119.299 247.21 119.388C247.844 119.967 247.878 120.63 248.524 121.298C249.175 121.97 250.014 122.738 250.526 123.664C250.837 124.228 250.719 125.361 250.755 125.719C250.858 126.754 252.156 126.92 251.981 127.76C251.813 128.614 250.323 128.417 250.933 129.834C251.809 129.177 252.745 128.548 253.64 127.905C255.621 130.32 257.458 132.823 259.739 135.024C260.024 135.297 260.154 134.598 260.465 134.875C261.786 136.045 262.615 137.405 264.092 138.518C264.413 138.758 264.771 138.977 265.15 139.187C266.132 139.738 267.205 140.215 268.101 140.85C267.969 142.398 269.957 143.565 271.123 144.711C271.537 145.117 271.29 145.345 271.529 145.691C272.442 146.994 272.606 145.684 273.038 145.821C274.892 146.409 273.404 148.43 275.095 149.734C275.184 149.804 277.09 149.631 277.284 149.678C278.556 149.999 277.151 150.166 277.672 150.705C278.63 151.688 279.19 152.526 280.694 153.152C281.131 153.331 282.497 153.294 282.845 154.308C282.891 154.441 282.591 154.77 282.652 154.843C283.813 156.138 284.602 154.98 285.585 155.022C286.486 155.059 287.053 156.193 287.209 156.611C287.234 156.652 287.254 156.688 287.269 156.717C287.536 157.245 287.301 157.209 287.024 157.077C286.868 156.998 286.675 156.841 286.65 156.864C286.169 157.249 286.4 157.501 286.779 157.696C287.025 157.816 287.316 157.929 287.569 158.052C287.192 159.366 288.333 159.691 288.341 158.409C288.339 158.27 287.701 158.17 287.569 158.052C288.734 157.071 289.817 157.285 290.793 158.838C291.263 159.559 290.485 160.094 292.514 160.298C293.426 160.374 293.276 159.389 294.097 159.286C295.965 159.046 298.217 160.216 300.177 160.263C300.867 160.278 300.246 159.706 300.721 159.698C302.001 159.675 303.079 160.141 304.38 160.025C304.496 160.013 304.249 159.462 304.643 159.479C307.674 159.596 310.282 160.023 313.487 160.084C315.012 160.115 317.815 159.833 319.391 159.883C319.622 159.891 319.86 159.902 320.103 159.918C322.749 160.087 325.839 160.693 328.033 160.487C329.582 160.344 329.235 159.812 329.901 159.437C331.175 158.71 333.484 159.935 333.793 160.125C333.8 160.131 332.468 160.283 333.185 160.544C333.61 161.109 333.778 160.128 333.793 160.125C334.002 160.248 336.678 160.316 337.219 160.201C337.508 160.138 337.334 159.634 337.484 159.612C341.057 159.078 344.644 158.856 348.287 158.983C348.352 158.992 348.272 159.562 348.424 159.574C350.541 159.763 351.867 159.024 353.585 158.553C355.31 158.081 356.684 158.168 357.75 159.104C359.054 158.932 360.95 159.288 362.041 159.504C363.133 159.72 363.238 158.609 363.332 158.583C366.263 157.757 368.006 158.31 371.083 158.254C372.546 158.23 375.429 157.915 377.005 157.702C378.236 157.533 379.022 157.745 380.15 157.509C380.302 157.478 380.116 156.996 380.162 156.974C381.411 156.306 380.869 157.545 381.148 157.743C382.158 158.461 382.777 158.839 384.397 158.36C384.765 158.25 385.753 156.444 386.43 156.293C387.312 156.099 387.011 156.744 387.946 156.523C388.025 156.505 387.981 156.124 388.559 156.097C390.933 155.978 393.497 155.944 395.961 155.718C396.287 155.689 396.608 155.656 396.925 155.62C397.3 155.578 396.759 155.022 397.297 154.952C399.836 154.621 402.595 154.32 405.063 154.256C405.679 154.241 405.36 154.716 405.51 154.822C406.425 155.464 407.387 154.189 407.566 154.138C411.868 152.892 415.368 153.191 419.452 151.43C419.683 151.334 421.016 149.64 422.119 150.315C422.189 150.362 423.327 151.056 423.737 150.125C423.76 150.067 423.098 149.753 423.931 149.479C424.768 149.202 425.912 148.321 427.263 148.34C427.687 148.347 428.984 148.888 429.656 147.614C429.708 147.527 430.422 145.04 431.596 145.87C431.788 146.007 432.356 147.267 433.253 145.962C433.422 145.71 432.843 145.685 433.372 145.168C434.17 144.378 435.621 143.954 436.464 142.73C436.616 142.513 436.981 141.202 438.049 141.371C438.193 141.393 438.237 141.778 438.497 141.77C438.54 141.769 438.588 141.757 438.644 141.731C440.517 140.859 442.168 139.441 444.084 138.563C444.762 138.251 444.852 139.078 445.607 138.817C446.366 138.554 447.769 137.842 448.246 137.107C448.724 136.372 447.332 135.895 448.275 135.135C452.353 131.835 456.94 129.342 461.008 126.168C461.61 125.696 460.858 125.769 461.711 125.054C464.914 122.427 469.72 117.321 471.783 115.572C473.459 114.184 472.604 116.719 473.667 115.449C473.969 115.065 473.671 114.466 473.315 114.246C473.101 114.084 472.887 114.044 472.872 114.041C472.761 114.008 472.692 114.299 472.786 114.606C472.872 114.914 473.073 115.131 473.147 115.152C473.318 115.199 472.979 114.772 472.257 114.584C471.956 114.503 472.03 115.132 471.777 115.06C470.909 114.825 469.797 114.275 468.638 114.084C468.126 114.003 468.14 114.439 467.655 114.315C466.539 114.038 465.479 113.704 464.326 113.16C464.22 113.111 465.023 112.677 464.113 112.546C462.6 112.332 460.769 111.765 458.94 112.033C458.408 112.116 458.333 113.081 457.218 112.333C456.99 112.179 457.38 111.034 455.992 111.957C455.74 112.107 453.468 113.339 452.383 112.415C452.112 112.171 451.421 111.185 450.76 111.308C450.67 111.328 451.004 111.863 450.46 111.892C448.58 111.985 446.617 111.864 444.642 111.972C444.121 112.002 444.871 112.562 444.11 112.59C442.002 112.669 439.314 112.474 437.251 112.268C436.485 112.191 437.023 111.754 436.968 111.705C436.082 110.898 435.519 111.957 435.213 112.014C433.391 112.358 431.916 111.836 430.234 111.948C429.76 111.978 430.09 112.491 429.995 112.535C429.009 112.966 429.752 112.061 429.129 111.953C427.633 111.695 426.084 111.671 424.516 111.699C424.241 111.704 423.968 111.711 423.699 111.719C423.059 111.738 423.773 112.334 423.198 112.344C419.731 112.415 416.223 112.335 412.847 111.991C412.212 111.925 412.615 111.473 412.484 111.368C411.594 110.637 410.261 111.621 409.954 111.714C408.552 112.138 408.018 111.734 406.797 111.804C400.805 112.152 393.401 111.871 387.742 111.703C380.364 111.486 374.641 111.057 367.606 111.18C367.158 111.187 367.61 111.791 367.225 111.805C362.251 111.959 357.348 111.734 352.364 111.923C351.955 111.937 352.547 112.509 351.89 112.551C350.538 112.642 348.845 112.616 347.474 112.438C346.808 112.352 347.699 111.857 347.029 111.78C345.468 111.601 343.81 111.566 342.202 111.664C341.521 111.707 342.551 112.289 341.666 112.299C335.639 112.379 329.721 112.505 323.626 111.774C323.209 111.724 322.836 110.535 321.957 110.767C321.892 111.098 321.898 111.487 321.87 111.841C313.073 112.073 304.42 111.707 295.6 111.694C295.233 111.693 295.871 112.321 295.16 112.323C292.761 112.331 290.371 112.401 288.035 112.342C286.242 112.3 284.502 112.188 282.714 111.933C282.305 111.874 282.508 110.763 281.25 110.938C281.024 110.97 279.178 111.129 278.676 111.372C278.611 111.409 278.955 111.925 278.352 111.944C274.86 112.043 271.157 111.946 267.684 111.649C267.113 111.6 267.723 111.045 267.309 111.005C264.446 110.729 261.337 111.166 258.627 110.679C256.781 110.352 257.466 109.394 256.489 108.46C256.348 108.328 255.229 108.313 255.164 107.767C255.008 106.393 255.553 104.887 255.316 103.423C255.254 103.109 253.793 103.451 254.657 102.688C254.71 102.637 255.801 102.379 256.07 102.119C256.257 101.94 255.908 101.386 256.303 101.155C256.666 100.924 257.121 101.388 257.739 101.116C258.368 100.84 258.09 100.209 259.363 100.128ZM366.963 160.458C367.988 160.942 368.044 158.993 366.985 159.508C366.934 159.535 366.91 160.435 366.963 160.458ZM256.419 133.796C256.692 135.326 258.221 135.076 258.058 133.963C257.913 132.865 256.338 133.331 256.419 133.796ZM247.396 123.911C247.733 125.538 250.09 124.088 248.711 123.131C248.633 123.076 247.378 123.818 247.396 123.911ZM260.988 108.168C260.962 108.143 260.166 108.122 260.146 108.148C259.72 108.768 261.331 108.809 260.988 108.168ZM241.733 112.866C241.495 113.025 241.419 113.46 241.513 113.761C241.604 114.066 241.831 114.212 242.07 113.994C242.424 113.689 242.311 112.514 241.733 112.866ZM419.009 156.808C419.031 156.832 419.6 156.696 419.542 156.541C419.357 156.047 418.625 156.41 419.009 156.808ZM260.279 103.656C258.446 103.714 256.877 103.246 256.49 102.698C256.487 102.698 256.477 102.7 256.474 102.7C256.381 102.576 256.354 102.447 256.407 102.323C256.412 102.322 256.427 102.32 256.432 102.319C256.564 102.029 257.133 101.765 258.322 101.702C259.005 101.663 256.951 102.609 257.838 102.701C259.41 102.873 260.434 101.357 262.075 102.132C262.358 102.267 260.439 103.637 260.273 103.659C260.275 103.658 260.277 103.657 260.279 103.656ZM367.648 162.764C367.668 162.789 368.476 162.775 368.494 162.749C368.902 162.112 367.276 162.139 367.648 162.764ZM449.695 142.353C449.763 142.375 451.35 141.365 451.371 141.288C451.612 139.907 448.417 141.938 449.695 142.353ZM313.317 165.429C312.419 166.036 311.354 166.086 310.67 165.288C311.549 165.352 312.429 165.376 313.317 165.429Z" fill="#171717" fill-opacity="0.75"/>
<path d="M12.9339 0.00121461C13.1032 0.00192919 12.9222 0.00286588 12.6736 0.00357775C12.5966 0.00380085 12.252 0.00368788 12.1833 0.00384189C12.0493 0.0041431 12.2183 0.00442372 12.0587 0.00472138C12.0041 0.00482002 11.4584 0.00469723 11.4136 0.00480067C11.1724 0.00536749 11.3115 0.00590372 11.1954 0.00647792C10.623 0.00930623 10.4182 0.0120864 10.1695 0.0149493C10.088 0.0158933 9.59266 0.0170408 9.80927 0.0180158C9.83505 0.0181297 10.3141 0.0180618 10.3536 0.0180835C10.958 0.0184231 9.99093 0.0183102 9.86243 0.018532C9.3551 0.0194122 9.31098 0.020391 9.49586 0.021238C9.57592 0.0215984 10.5274 0.0212371 9.99335 0.0216C9.95727 0.0216251 9.44855 0.0215337 9.3943 0.0216325C9.27226 0.0218567 9.36319 0.0222819 9.32288 0.0224556C9.24263 0.0227904 9.24775 0.0228458 9.24195 0.0231624C9.2296 0.0235953 8.97672 0.0241101 9.09199 0.0245745C9.11811 0.0246737 9.6396 0.0245424 9.72834 0.0247005C9.81694 0.0248588 9.77272 0.0252774 9.64979 0.0254185C9.52679 0.0255597 9.11691 0.0254996 9.02296 0.0255246C8.22998 0.0257301 9.32826 0.0262143 9.35542 0.0262766C9.81821 0.0274126 9.19256 0.0283868 9.19435 0.0294531C9.19703 0.0302626 9.40358 0.0311282 9.37525 0.0318984C9.33949 0.0328161 9.0569 0.0335938 9.10548 0.0344853C9.11 0.0345794 9.72316 0.0344692 9.72993 0.0345841C9.80128 0.0358049 9.73444 0.0370173 9.3205 0.0382329C9.27845 0.0383548 8.74011 0.0381977 8.6659 0.0383195C8.22348 0.0390652 7.16068 0.0402451 9.50459 0.040688C9.41306 0.0411931 9.3185 0.0418063 8.84602 0.0422582C8.54192 0.0425496 7.95545 0.0422666 8.2057 0.0426245C8.26146 0.0427052 8.77506 0.0426002 8.81983 0.0427213C9.00786 0.043231 8.8409 0.0437878 9.10627 0.044292C9.16146 0.0443946 9.62166 0.0443666 9.70454 0.0443956C10.3757 0.0446398 9.26623 0.0450464 9.18562 0.045135C8.58445 0.0458099 8.82102 0.0463027 8.80635 0.0469314C8.80268 0.0470773 9.42084 0.0469049 9.43952 0.0470453C9.52812 0.0477734 9.47499 0.0485276 9.20069 0.0492406C9.13819 0.0493992 8.61163 0.0492533 8.55482 0.0493291C8.31074 0.0496633 9.30529 0.0497373 9.0904 0.0500578C9.04638 0.0501254 8.5956 0.0500873 8.54609 0.0500996C7.76894 0.0502925 8.87011 0.0504601 8.89442 0.0505097C9.2266 0.0511373 8.07704 0.0515384 8.23982 0.0521446C8.26045 0.0522172 8.83082 0.0520536 8.85395 0.0522575C9.01141 0.0536157 8.85472 0.0550522 8.39851 0.0563966C8.32835 0.0566057 7.89988 0.0564565 7.84706 0.0564696C7.02177 0.056684 8.12756 0.0568227 8.1692 0.0568909C8.46897 0.0574286 7.54164 0.0579309 8.85871 0.0582962C8.40164 0.0605734 9.14125 0.0628402 7.96132 0.0650986C7.94765 0.0651273 7.40305 0.0650759 7.37813 0.0651331C7.07234 0.0658229 7.91875 0.0656905 8.95393 0.0661469C9.21387 0.0662619 7.96406 0.0666116 7.87245 0.0666426C7.53486 0.0667553 6.72464 0.0666384 6.65926 0.0666761C6.14587 0.0669886 8.82532 0.0669376 8.82618 0.0673591C8.82171 0.0673723 8.32853 0.0673169 8.27949 0.0673523C8.12554 0.0674622 8.32151 0.0675712 8.15175 0.0676787C7.75891 0.0679248 6.45693 0.0680125 7.21468 0.0683884C7.31302 0.068436 8.83292 0.0683633 8.76112 0.0687396C8.73121 0.0688897 8.75726 0.0695537 8.65876 0.0697398C8.56039 0.0699256 8.0706 0.069798 8.04939 0.0698113C7.40173 0.0703121 7.13331 0.0701222 6.17446 0.0703731C5.21922 0.070624 7.49755 0.0705544 7.75184 0.0706567C8.00542 0.0707592 7.47106 0.0711264 7.28529 0.0712166C7.09945 0.0713068 6.78823 0.0711943 6.68306 0.0712745C5.99596 0.0718062 7.81394 0.0715079 8.17555 0.0716831C9.03177 0.0720962 7.34215 0.0724179 7.17659 0.0727961C7.13188 0.0728984 7.5167 0.0728149 7.55269 0.072906C7.69012 0.0732669 7.16292 0.0734839 7.64632 0.0738945C7.72509 0.0739616 8.74093 0.0742935 7.99544 0.0745084C7.88794 0.0745388 7.46689 0.0744523 7.37257 0.0746061C7.23103 0.0748359 7.139 0.0752498 7.27974 0.0754968C7.38387 0.0756791 8.07766 0.0754702 7.86213 0.0756996C7.7659 0.0758017 7.36003 0.0756126 7.21309 0.0758042C7.06619 0.0759948 7.08402 0.0764822 7.09804 0.0766677C7.11236 0.0768528 7.63863 0.0767515 7.67409 0.0767664C7.87718 0.076857 8.13095 0.0772122 8.13032 0.0772436C8.19457 0.0788272 7.30748 0.0802875 7.60109 0.0818293C7.62337 0.0819503 8.17833 0.0818697 8.18745 0.0818882C8.41997 0.0823024 6.94446 0.0819758 6.45058 0.0822652C7.57676 0.0822233 7.37284 0.0823942 7.49635 0.0826859C7.55678 0.0828265 7.99285 0.08275 8.03749 0.0827628C8.69982 0.0829713 7.84433 0.0831165 7.66933 0.0831539C7.02556 0.083292 7.78621 0.0834423 7.35591 0.0835362C6.92883 0.0836301 6.29568 0.083414 6.30379 0.0836939C6.70692 0.0837723 7.76042 0.0835646 7.93117 0.083777C8.577 0.0845786 7.75043 0.086075 7.66456 0.0867195C7.57878 0.0873628 7.65315 0.0875705 7.50746 0.0879453C7.24403 0.0886224 8.02566 0.0883743 8.38343 0.0887947C8.74117 0.0892163 6.81799 0.0890113 6.40456 0.089072C5.99131 0.0891315 6.41671 0.0891964 6.18953 0.0892704C5.96241 0.0893442 5.68131 0.0891845 5.59603 0.089358C5.51083 0.0895316 6.24601 0.0900062 6.6783 0.0900677C7.59413 0.0901978 8.55534 0.0899839 8.2176 0.0904432C8.19756 0.0904697 7.69187 0.0903839 7.64076 0.0904851C7.25146 0.0912885 7.22733 0.0921231 6.88301 0.0929256C6.83488 0.0930359 6.27231 0.0929372 6.23793 0.0930014C5.87811 0.0936703 6.82666 0.0934312 7.88038 0.0937977C6.4781 0.0937155 5.62018 0.0939181 5.6119 0.0944257C5.60643 0.0947309 6.21888 0.0946783 6.65053 0.0948757C6.78065 0.0949349 6.36012 0.0951508 6.64815 0.0951899C7.58966 0.095319 8.64363 0.0951156 8.22395 0.0956389C8.20401 0.0956619 7.68864 0.0955888 7.65742 0.0956681C7.45313 0.0961809 8.43794 0.0962423 8.5572 0.0967967C8.65078 0.0972312 8.05026 0.098004 7.95259 0.0984987C6.37602 0.0984883 6.73703 0.0989556 7.82405 0.0991452C7.77955 0.0994663 7.841 0.0998131 7.69075 0.100123C7.63952 0.10023 7.18306 0.10016 7.13374 0.100174C6.36005 0.10038 7.4176 0.10052 7.45906 0.100589C7.86209 0.10134 7.06055 0.101952 7.84389 0.102669C7.8721 0.102694 8.96723 0.102736 8.16761 0.102927C8.1125 0.10294 7.61423 0.102703 7.5757 0.10304C7.53708 0.103377 6.95001 0.104013 7.45747 0.104481C7.57964 0.104595 8.46867 0.104881 7.77406 0.105111C7.67974 0.105142 7.36565 0.105109 7.19087 0.105153C6.63396 0.105296 7.74087 0.105374 6.80049 0.105542C5.86016 0.10571 5.15592 0.10606 5.80471 0.106532C5.82357 0.106547 6.7009 0.106659 6.68703 0.106807C6.66413 0.107044 6.48136 0.107381 6.48708 0.107628C6.49013 0.107747 7.03491 0.107671 7.04488 0.107692C7.35015 0.108488 6.86448 0.109056 6.6537 0.109909C6.61399 0.110066 7.35688 0.110515 6.76955 0.110818C6.12661 0.111151 3.45207 0.110809 4.08926 0.111574C4.34412 0.111882 7.73726 0.112273 5.97927 0.112827C6.41489 0.113902 5.51515 0.114896 6.13716 0.115974C6.16472 0.116022 7.11172 0.116175 7.09883 0.116289C7.07786 0.116459 6.63525 0.116551 6.6061 0.116672C6.47277 0.117178 6.85146 0.117642 6.79256 0.11813C6.77116 0.118315 6.3135 0.11825 6.28792 0.118471C6.26277 0.118692 6.86542 0.118839 6.57436 0.119138C6.3525 0.119364 5.12071 0.119591 4.97713 0.119891C6.19216 0.119902 6.16713 0.120108 6.48787 0.120474C6.5501 0.120545 6.973 0.120469 7.02425 0.120502C7.24221 0.120638 6.89172 0.120763 7.12898 0.120892C7.18597 0.120923 7.60091 0.120925 7.67091 0.12095C8.28199 0.121168 7.34862 0.121527 7.18611 0.121588C6.56892 0.121824 7.1086 0.121934 6.86556 0.122116C6.62254 0.122296 6.31875 0.122026 6.17128 0.122237C5.86626 0.122675 5.93327 0.123237 5.9142 0.123681C5.90916 0.123859 6.46304 0.123738 6.47518 0.123763C6.61566 0.12413 6.02649 0.124501 7.12978 0.124704C4.27708 0.124958 7.40647 0.124925 6.8354 0.125449C6.78922 0.12549 5.4402 0.125543 5.24215 0.125384C5.04429 0.125226 5.46597 0.124986 5.15725 0.124766C5.0848 0.124714 3.82068 0.124415 3.74411 0.124375C3.14565 0.124056 5.16158 0.124011 5.2723 0.123994C6.4672 0.123802 5.10535 0.123438 5.01125 0.123342C4.58007 0.122903 4.86358 0.12253 4.55581 0.122162C4.3569 0.121922 3.03639 0.121898 3.07681 0.12171C3.21041 0.121083 5.05252 0.120864 3.45529 0.120273C3.11463 0.120146 1.67136 0.120272 2.80624 0.119818C2.87779 0.11979 3.916 0.119452 3.25931 0.119258C3.17651 0.119233 2.75588 0.119234 2.72055 0.119202C2.49199 0.118986 2.82708 0.118841 2.66659 0.118606C2.50611 0.11837 2.26685 0.118087 2.40952 0.117818C2.49482 0.117656 3.2785 0.117448 3.47036 0.117371C4.02307 0.117152 3.11686 0.116917 3.78616 0.116781C4.45882 0.116644 5.48037 0.116912 5.915 0.116553C4.82219 0.11654 3.70054 0.116509 2.60153 0.116488C2.64001 0.115702 2.99338 0.114928 2.9451 0.114139C2.93802 0.114041 2.35052 0.114141 2.32779 0.114036C2.23446 0.113594 2.65326 0.113207 2.48648 0.112749C2.35513 0.112393 1.7331 0.112004 1.57639 0.111633C2.82687 0.111406 2.40236 0.110855 2.51663 0.110454C2.55612 0.110314 2.8901 0.110324 2.99905 0.110224C3.40202 0.109848 2.29698 0.110024 2.12308 0.109921C1.38089 0.109478 3.88208 0.10944 3.82028 0.108919C3.81785 0.108891 2.48461 0.108553 2.40158 0.108507C1.86019 0.108211 2.86563 0.108458 2.96414 0.108273C3.14416 0.107935 3.46256 0.1077 3.07205 0.107304C2.95638 0.107188 2.12539 0.106911 2.76816 0.106687C2.85232 0.106657 3.29301 0.106673 3.31881 0.10665C3.74901 0.106219 2.36432 0.106208 1.89536 0.105962C1.4265 0.105716 2.38237 0.105337 2.65787 0.105259C3.37055 0.105057 2.96244 0.105414 3.03238 0.105425C3.86468 0.105554 3.72139 0.105277 3.79171 0.105065C5.14942 0.105035 5.06792 0.104739 3.85916 0.104846C3.72713 0.104858 3.85374 0.105023 3.79171 0.105065C2.45962 0.104879 2.28902 0.104554 3.53384 0.104195C4.11727 0.104027 4.79752 0.104186 4.54867 0.103675C4.43633 0.103443 3.50148 0.103533 3.24661 0.103328C2.66509 0.102861 3.53715 0.102253 3.39975 0.101772C3.34986 0.101597 2.83813 0.101767 2.78641 0.101647C2.64753 0.10133 3.0315 0.101051 2.83481 0.100732C2.81634 0.100703 2.28066 0.100774 2.27383 0.100675C2.21162 0.0999236 2.55473 0.0992697 2.56424 0.0984856C2.56859 0.0981067 2.27315 0.0974294 2.33255 0.097037C2.43234 0.0963568 3.21129 0.09552 3.02206 0.0949389C2.90093 0.09456 2.36515 0.0946431 2.00009 0.0944807C1.29247 0.0941673 2.55999 0.0936127 2.75626 0.093538C2.76275 0.0935357 2.88906 0.0938618 3.16409 0.0936878C3.73717 0.0935866 2.75874 0.0935417 2.75626 0.093538C2.88305 0.0934889 3.00467 0.0928375 2.90225 0.0927081C2.84628 0.0926378 2.33865 0.0926771 2.31906 0.0926405C1.86478 0.0917694 1.73576 0.0908967 1.97312 0.0900132C1.98337 0.0899977 2.55118 0.0900211 2.56821 0.0899845C2.82067 0.089473 2.12606 0.0891455 1.71366 0.0887237C1.30144 0.0883019 1.4395 0.0879674 2.41428 0.0877177C2.29154 0.0873994 2.72249 0.0869429 2.98398 0.0866801C3.24546 0.0864174 2.14017 0.0863807 2.11832 0.0863576C1.41895 0.0856366 2.0516 0.0852197 2.15006 0.0844717C2.19876 0.084116 2.03844 0.0834106 1.91757 0.0830255C1.8202 0.0827212 2.07923 0.0825378 1.91361 0.0822574C1.89149 0.0822195 1.39935 0.0822578 1.38041 0.0822462C0.791597 0.0819332 1.99469 0.0820836 2.20957 0.082019C2.99094 0.0817848 3.4071 0.08164 3.03952 0.0812393C2.95534 0.0811468 1.22305 0.0808775 1.12174 0.080709C0.993201 0.08049 1.61412 0.0805726 1.46372 0.0803432C1.45142 0.0803236 1.06835 0.0803277 1.08524 0.0801861C1.1586 0.0795289 1.3815 0.0788124 1.34311 0.0781294C1.33934 0.0780361 0.731739 0.0781558 0.716284 0.078021C0.644261 0.0773885 0.666747 0.0766952 0.951146 0.0760791C1.02306 0.0759274 1.44848 0.0760225 1.5748 0.0759896C2.3391 0.0757874 1.22859 0.0755008 1.20743 0.0754535C0.673773 0.0743254 1.67877 0.0734619 1.20029 0.0723121C1.1722 0.0722495 -0.01829 0.0717677 1.00272 0.0715527C1.07065 0.071538 2.11525 0.0713253 1.40103 0.0711373C1.35635 0.0711256 0.818577 0.0712581 0.873388 0.0710269C0.928079 0.0707956 0.568956 0.0704235 1.15982 0.0701056C1.34596 0.0700049 2.38798 0.0697671 1.55735 0.0694669C1.49936 0.0694473 -0.378822 0.0689839 0.917028 0.0688184C1.13034 0.0687916 2.50164 0.0688197 1.79856 0.0684614C1.66225 0.0683929 1.35638 0.0685172 1.16538 0.0683369C0.87101 0.0680605 1.23829 0.0676944 0.627417 0.0673547C0.51927 0.0672955 -0.411488 0.0670433 0.294959 0.066841C0.405601 0.0668094 0.863413 0.0668696 0.914647 0.0667627C1.16041 0.0662548 0.854178 0.0657229 1.17093 0.0652071C1.28224 0.0650244 2.02234 0.0651178 2.22067 0.0649274C2.41894 0.0647369 2.60966 0.0643532 2.27145 0.0641539C1.9331 0.0639546 0.753544 0.0641723 0.659155 0.0638738C0.249216 0.0625756 0.941174 0.0612896 1.04239 0.0599934C1.05751 0.0598011 0.63543 0.0599605 0.627417 0.0596772C0.596016 0.0586327 0.20027 0.0568292 1.09714 0.0559228C1.81549 0.0551966 2.36237 0.0561105 2.65469 0.0555556C2.79414 0.0552878 1.42279 0.0549981 1.37961 0.0549334C0.941056 0.0543019 1.54854 0.053863 1.36216 0.0532946C1.32348 0.0531772 0.767657 0.0532923 0.740881 0.0531924C0.644489 0.0528512 0.892583 0.0524926 0.847204 0.0521665C0.825567 0.0520203 0.401049 0.0520472 0.433814 0.0519126C0.507322 0.0515905 0.685769 0.0513058 1.08365 0.0509918C1.11991 0.0509632 1.64799 0.0511561 1.66764 0.0509178C1.69792 0.0505322 2.09043 0.0500535 1.68509 0.0496098C1.56316 0.0494781 0.59293 0.049473 1.26297 0.04919C1.40292 0.0491306 2.56795 0.0492064 1.56131 0.0488767C1.39403 0.0488213 0.0362664 0.0482675 0.911473 0.0479958C1.14182 0.0479241 2.09517 0.0477411 1.94534 0.0475828C1.92144 0.0475613 1.40029 0.0476473 1.34946 0.0475161C1.17938 0.0470538 1.23498 0.0465693 1.07175 0.0460943C1.02713 0.0459674 0.487853 0.0461563 0.438575 0.0459673C0.302267 0.0454475 0.439577 0.0447984 0.608374 0.0442901C0.67163 0.0441026 1.11835 0.0442322 1.16697 0.0442186C1.95769 0.0439992 0.890394 0.0438696 0.828161 0.0437968C0.455513 0.0433441 0.956866 0.0429994 0.824193 0.0425822C0.788933 0.042467 0.280034 0.0425487 0.234657 0.0425257C-0.208712 0.042288 0.705204 0.0424651 0.805944 0.0423146C1.09119 0.0418931 1.05029 0.0414232 0.985265 0.0409968C0.960631 0.0408403 0.370551 0.0410163 0.355262 0.0408757C0.253581 0.040044 0.310045 0.0391793 0.635351 0.0383676C0.697674 0.0382148 1.15205 0.0383109 1.25583 0.0382791C1.98191 0.0380595 0.991532 0.0377378 0.897191 0.0376637C0.466432 0.0373271 0.868248 0.0371963 0.793249 0.0368991C0.419836 0.0354468 0.685964 0.0336536 0.850377 0.0322827C1.06198 0.0304963 1.49424 0.0291101 1.38199 0.0274066C1.37543 0.0272983 0.770963 0.0274075 0.757543 0.0273142C0.611826 0.0261092 0.848026 0.0249229 0.673437 0.0237155C0.660182 0.0236164 0.0871456 0.0237592 0.046608 0.0236002C-0.0405582 0.023274 -0.00941159 0.0228608 0.173561 0.022531C0.261721 0.0223701 0.753437 0.0225859 0.832128 0.022424C1.01648 0.022047 1.05729 0.0216428 0.965428 0.0212556C0.925086 0.0210908 0.339016 0.0213394 0.332252 0.0211252C0.274109 0.019666 0.173172 0.018233 0.932103 0.0167584C0.984226 0.0166573 2.17535 0.0165686 1.94693 0.0163537C1.61636 0.0163375 1.22751 0.0163384 0.874181 0.0163313C0.683849 0.0142071 1.09677 0.0121046 1.16062 0.00997447C1.16317 0.00988466 0.532056 0.0100399 0.533789 0.00986599C0.54312 0.00885962 0.368281 0.00788237 0.99558 0.00685297C1.05693 0.00675083 2.16722 0.00680323 1.9993 0.00650224C1.96866 0.00644916 1.82058 0.00599583 1.57956 0.00587862C1.54321 0.0058627 1.02497 0.00594541 1.00986 0.00579933C0.931165 0.00495043 1.04948 0.00406083 1.36612 0.0032134C1.41822 0.00307664 1.9701 0.00322229 2.01199 0.00312487C2.30496 0.00243387 1.88543 0.00168226 2.38651 0.00102198C2.7239 0.000580012 3.67787 0.000743642 4.61691 0.000508785C4.74939 0.000475567 4.77038 0.000201886 5.31673 0.000187733C6.69058 0.000151398 8.19493 0.000283961 9.65931 0.000229567C9.97473 0.000218075 9.635 -0.000148454 10.3972 6.85547e-05C10.4482 8.3715e-05 10.7012 0.000349451 10.9598 0.000414902C11.1386 0.000460471 11.6942 0.000378354 11.923 0.000471329C12.1517 0.000564297 11.6859 0.000666456 11.9548 0.000820595C12.227 0.000974665 12.8591 0.000906919 12.9339 0.00121461ZM4.15274 0.0854971C4.68354 0.0852538 2.73942 0.0852179 3.20456 0.085481C3.22935 0.0854938 4.1267 0.0855096 4.15274 0.0854971ZM4.4598 0.114932C5.31729 0.114614 4.05644 0.114397 3.39419 0.114621C2.73266 0.114845 4.19986 0.115029 4.4598 0.114932ZM5.08584 0.11823C5.76193 0.117859 3.0051 0.1178 3.5624 0.118198C3.5939 0.118221 5.04658 0.118252 5.08584 0.11823ZM4.8843 0.00159793C4.91012 0.00159457 4.93528 0.00139784 4.90969 0.00139314C4.29224 0.00128838 4.24236 0.00168177 4.8843 0.00159793ZM5.76742 0.121503C6.14034 0.121387 5.70984 0.121053 5.24612 0.121197C4.87306 0.121313 5.30352 0.121648 5.76742 0.121503ZM6.22762 0.0728063C6.25659 0.0728025 6.28268 0.0726614 6.11892 0.0726643C5.59148 0.0726738 5.74034 0.0728701 6.22762 0.0728063ZM5.79915 0.127066C5.90292 0.126244 8.1802 0.125745 7.92323 0.12664C7.87674 0.126802 7.19703 0.126291 6.99172 0.126497C6.61767 0.126875 8.04753 0.127125 7.28133 0.127511C7.14109 0.12758 5.78817 0.127112 5.79598 0.127064C5.79704 0.127065 5.7981 0.127065 5.79915 0.127066ZM6.48787 0.085357C6.51358 0.0853521 6.53796 0.0851569 6.51247 0.0851522C5.89527 0.0850465 5.8458 0.0854398 6.48787 0.085357ZM7.4297 0.0645762C7.48448 0.0645654 7.53572 0.0641123 7.48524 0.0640975C6.47595 0.0638611 6.36938 0.0647772 7.4297 0.0645762ZM7.91054 0.0985065C8.53144 0.0987195 8.60455 0.0989744 7.82484 0.0991442C7.86623 0.0989325 7.87233 0.0987194 7.91054 0.0985065Z" fill="#171717" fill-opacity="0.75"/>
</svg>
