<svg width="344" height="294" viewBox="0 0 344 294" fill="none" xmlns="http://www.w3.org/2000/svg">
<path d="M12.9339 0.00121461C13.1032 0.00192919 12.9222 0.00286588 12.6736 0.00357775C12.5966 0.00380085 12.252 0.00368788 12.1833 0.00384189C12.0493 0.0041431 12.2183 0.00442372 12.0587 0.00472138C12.0041 0.00482002 11.4584 0.00469723 11.4136 0.00480067C11.1724 0.00536749 11.3115 0.00590372 11.1954 0.00647792C10.623 0.00930623 10.4182 0.0120864 10.1695 0.0149493C10.088 0.0158933 9.59266 0.0170408 9.80927 0.0180158C9.83505 0.0181297 10.3141 0.0180618 10.3536 0.0180835C10.958 0.0184231 9.99093 0.0183102 9.86243 0.018532C9.3551 0.0194122 9.31098 0.020391 9.49586 0.021238C9.57592 0.0215984 10.5274 0.0212371 9.99335 0.0216C9.95727 0.0216251 9.44855 0.0215337 9.3943 0.0216325C9.27226 0.0218567 9.36319 0.0222819 9.32288 0.0224556C9.24263 0.0227904 9.24775 0.0228458 9.24195 0.0231624C9.2296 0.0235953 8.97672 0.0241101 9.09199 0.0245745C9.11811 0.0246737 9.6396 0.0245424 9.72834 0.0247005C9.81694 0.0248588 9.77272 0.0252774 9.64979 0.0254185C9.52679 0.0255597 9.11691 0.0254996 9.02296 0.0255246C8.22998 0.0257301 9.32826 0.0262143 9.35542 0.0262766C9.81821 0.0274126 9.19256 0.0283868 9.19435 0.0294531C9.19703 0.0302626 9.40358 0.0311282 9.37525 0.0318984C9.33949 0.0328161 9.0569 0.0335938 9.10548 0.0344853C9.11 0.0345794 9.72316 0.0344692 9.72993 0.0345841C9.80128 0.0358049 9.73444 0.0370173 9.3205 0.0382329C9.27845 0.0383548 8.74011 0.0381977 8.6659 0.0383195C8.22348 0.0390652 7.16068 0.0402451 9.50459 0.040688C9.41306 0.0411931 9.3185 0.0418063 8.84602 0.0422582C8.54192 0.0425496 7.95545 0.0422666 8.2057 0.0426245C8.26146 0.0427052 8.77506 0.0426002 8.81983 0.0427213C9.00786 0.043231 8.8409 0.0437878 9.10627 0.044292C9.16146 0.0443946 9.62166 0.0443666 9.70454 0.0443956C10.3757 0.0446398 9.26623 0.0450464 9.18562 0.045135C8.58445 0.0458099 8.82102 0.0463027 8.80635 0.0469314C8.80268 0.0470773 9.42084 0.0469049 9.43952 0.0470453C9.52812 0.0477734 9.47499 0.0485276 9.20069 0.0492406C9.13819 0.0493992 8.61163 0.0492533 8.55482 0.0493291C8.31074 0.0496633 9.30529 0.0497373 9.0904 0.0500578C9.04638 0.0501254 8.5956 0.0500873 8.54609 0.0500996C7.76894 0.0502925 8.87011 0.0504601 8.89442 0.0505097C9.2266 0.0511373 8.07704 0.0515384 8.23982 0.0521446C8.26045 0.0522172 8.83082 0.0520536 8.85395 0.0522575C9.01141 0.0536157 8.85472 0.0550522 8.39851 0.0563966C8.32835 0.0566057 7.89988 0.0564565 7.84706 0.0564696C7.02177 0.056684 8.12756 0.0568227 8.1692 0.0568909C8.46897 0.0574286 7.54164 0.0579309 8.85871 0.0582962C8.40164 0.0605734 9.14125 0.0628402 7.96132 0.0650986C7.94765 0.0651273 7.40305 0.0650759 7.37813 0.0651331C7.07234 0.0658229 7.91875 0.0656905 8.95393 0.0661469C9.21387 0.0662619 7.96406 0.0666116 7.87245 0.0666426C7.53486 0.0667553 6.72464 0.0666384 6.65926 0.0666761C6.14587 0.0669886 8.82532 0.0669376 8.82618 0.0673591C8.82171 0.0673723 8.32853 0.0673169 8.27949 0.0673523C8.12554 0.0674622 8.32151 0.0675712 8.15175 0.0676787C7.75891 0.0679248 6.45693 0.0680125 7.21468 0.0683884C7.31302 0.068436 8.83292 0.0683633 8.76112 0.0687396C8.73121 0.0688897 8.75726 0.0695537 8.65876 0.0697398C8.56039 0.0699256 8.0706 0.069798 8.04939 0.0698113C7.40173 0.0703121 7.13331 0.0701222 6.17446 0.0703731C5.21922 0.070624 7.49755 0.0705544 7.75184 0.0706567C8.00542 0.0707592 7.47106 0.0711264 7.28529 0.0712166C7.09945 0.0713068 6.78823 0.0711943 6.68306 0.0712745C5.99596 0.0718062 7.81394 0.0715079 8.17555 0.0716831C9.03177 0.0720962 7.34215 0.0724179 7.17659 0.0727961C7.13188 0.0728984 7.5167 0.0728149 7.55269 0.072906C7.69012 0.0732669 7.16292 0.0734839 7.64632 0.0738945C7.72509 0.0739616 8.74093 0.0742935 7.99544 0.0745084C7.88794 0.0745388 7.46689 0.0744523 7.37257 0.0746061C7.23103 0.0748359 7.139 0.0752498 7.27974 0.0754968C7.38387 0.0756791 8.07766 0.0754702 7.86213 0.0756996C7.7659 0.0758017 7.36003 0.0756126 7.21309 0.0758042C7.06619 0.0759948 7.08402 0.0764822 7.09804 0.0766677C7.11236 0.0768528 7.63863 0.0767515 7.67409 0.0767664C7.87718 0.076857 8.13095 0.0772122 8.13032 0.0772436C8.19457 0.0788272 7.30748 0.0802875 7.60109 0.0818293C7.62337 0.0819503 8.17833 0.0818697 8.18745 0.0818882C8.41997 0.0823024 6.94446 0.0819758 6.45058 0.0822652C7.57676 0.0822233 7.37284 0.0823942 7.49635 0.0826859C7.55678 0.0828265 7.99285 0.08275 8.03749 0.0827628C8.69982 0.0829713 7.84433 0.0831165 7.66933 0.0831539C7.02556 0.083292 7.78621 0.0834423 7.35591 0.0835362C6.92883 0.0836301 6.29568 0.083414 6.30379 0.0836939C6.70692 0.0837723 7.76042 0.0835646 7.93117 0.083777C8.577 0.0845786 7.75043 0.086075 7.66456 0.0867195C7.57878 0.0873628 7.65315 0.0875705 7.50746 0.0879453C7.24403 0.0886224 8.02566 0.0883743 8.38343 0.0887947C8.74117 0.0892163 6.81799 0.0890113 6.40456 0.089072C5.99131 0.0891315 6.41671 0.0891964 6.18953 0.0892704C5.96241 0.0893442 5.68131 0.0891845 5.59603 0.089358C5.51083 0.0895316 6.24601 0.0900062 6.6783 0.0900677C7.59413 0.0901978 8.55534 0.0899839 8.2176 0.0904432C8.19756 0.0904697 7.69187 0.0903839 7.64076 0.0904851C7.25146 0.0912885 7.22733 0.0921231 6.88301 0.0929256C6.83488 0.0930359 6.27231 0.0929372 6.23793 0.0930014C5.87811 0.0936703 6.82666 0.0934312 7.88038 0.0937977C6.4781 0.0937155 5.62018 0.0939181 5.6119 0.0944257C5.60643 0.0947309 6.21888 0.0946783 6.65053 0.0948757C6.78065 0.0949349 6.36012 0.0951508 6.64815 0.0951899C7.58966 0.095319 8.64363 0.0951156 8.22395 0.0956389C8.20401 0.0956619 7.68864 0.0955888 7.65742 0.0956681C7.45313 0.0961809 8.43794 0.0962423 8.5572 0.0967967C8.65078 0.0972312 8.05026 0.098004 7.95259 0.0984987C6.37602 0.0984883 6.73703 0.0989556 7.82405 0.0991452C7.77955 0.0994663 7.841 0.0998131 7.69075 0.100123C7.63952 0.10023 7.18306 0.10016 7.13374 0.100174C6.36005 0.10038 7.4176 0.10052 7.45906 0.100589C7.86209 0.10134 7.06055 0.101952 7.84389 0.102669C7.8721 0.102694 8.96723 0.102736 8.16761 0.102927C8.1125 0.10294 7.61423 0.102703 7.5757 0.10304C7.53708 0.103377 6.95001 0.104013 7.45747 0.104481C7.57964 0.104595 8.46867 0.104881 7.77406 0.105111C7.67974 0.105142 7.36565 0.105109 7.19087 0.105153C6.63396 0.105296 7.74087 0.105374 6.80049 0.105542C5.86016 0.10571 5.15592 0.10606 5.80471 0.106532C5.82357 0.106547 6.7009 0.106659 6.68703 0.106807C6.66413 0.107044 6.48136 0.107381 6.48708 0.107628C6.49013 0.107747 7.03491 0.107671 7.04488 0.107692C7.35015 0.108488 6.86448 0.109056 6.6537 0.109909C6.61399 0.110066 7.35688 0.110515 6.76955 0.110818C6.12661 0.111151 3.45207 0.110809 4.08926 0.111574C4.34412 0.111882 7.73726 0.112273 5.97927 0.112827C6.41489 0.113902 5.51515 0.114896 6.13716 0.115974C6.16472 0.116022 7.11172 0.116175 7.09883 0.116289C7.07786 0.116459 6.63525 0.116551 6.6061 0.116672C6.47277 0.117178 6.85146 0.117642 6.79256 0.11813C6.77116 0.118315 6.3135 0.11825 6.28792 0.118471C6.26277 0.118692 6.86542 0.118839 6.57436 0.119138C6.3525 0.119364 5.12071 0.119591 4.97713 0.119891C6.19216 0.119902 6.16713 0.120108 6.48787 0.120474C6.5501 0.120545 6.973 0.120469 7.02425 0.120502C7.24221 0.120638 6.89172 0.120763 7.12898 0.120892C7.18597 0.120923 7.60091 0.120925 7.67091 0.12095C8.28199 0.121168 7.34862 0.121527 7.18611 0.121588C6.56892 0.121824 7.1086 0.121934 6.86556 0.122116C6.62254 0.122296 6.31875 0.122026 6.17128 0.122237C5.86626 0.122675 5.93327 0.123237 5.9142 0.123681C5.90916 0.123859 6.46304 0.123738 6.47518 0.123763C6.61566 0.12413 6.02649 0.124501 7.12978 0.124704C4.27708 0.124958 7.40647 0.124925 6.8354 0.125449C6.78922 0.12549 5.4402 0.125543 5.24215 0.125384C5.04429 0.125226 5.46597 0.124986 5.15725 0.124766C5.0848 0.124714 3.82068 0.124415 3.74411 0.124375C3.14565 0.124056 5.16158 0.124011 5.2723 0.123994C6.4672 0.123802 5.10535 0.123438 5.01125 0.123342C4.58007 0.122903 4.86358 0.12253 4.55581 0.122162C4.3569 0.121922 3.03639 0.121898 3.07681 0.12171C3.21041 0.121083 5.05252 0.120864 3.45529 0.120273C3.11463 0.120146 1.67136 0.120272 2.80624 0.119818C2.87779 0.11979 3.916 0.119452 3.25931 0.119258C3.17651 0.119233 2.75588 0.119234 2.72055 0.119202C2.49199 0.118986 2.82708 0.118841 2.66659 0.118606C2.50611 0.11837 2.26685 0.118087 2.40952 0.117818C2.49482 0.117656 3.2785 0.117448 3.47036 0.117371C4.02307 0.117152 3.11686 0.116917 3.78616 0.116781C4.45882 0.116644 5.48037 0.116912 5.915 0.116553C4.82219 0.11654 3.70054 0.116509 2.60153 0.116488C2.64001 0.115702 2.99338 0.114928 2.9451 0.114139C2.93802 0.114041 2.35052 0.114141 2.32779 0.114036C2.23446 0.113594 2.65326 0.113207 2.48648 0.112749C2.35513 0.112393 1.7331 0.112004 1.57639 0.111633C2.82687 0.111406 2.40236 0.110855 2.51663 0.110454C2.55612 0.110314 2.8901 0.110324 2.99905 0.110224C3.40202 0.109848 2.29698 0.110024 2.12308 0.109921C1.38089 0.109478 3.88208 0.10944 3.82028 0.108919C3.81785 0.108891 2.48461 0.108553 2.40158 0.108507C1.86019 0.108211 2.86563 0.108458 2.96414 0.108273C3.14416 0.107935 3.46256 0.1077 3.07205 0.107304C2.95638 0.107188 2.12539 0.106911 2.76816 0.106687C2.85232 0.106657 3.29301 0.106673 3.31881 0.10665C3.74901 0.106219 2.36432 0.106208 1.89536 0.105962C1.4265 0.105716 2.38237 0.105337 2.65787 0.105259C3.37055 0.105057 2.96244 0.105414 3.03238 0.105425C3.86468 0.105554 3.72139 0.105277 3.79171 0.105065C5.14942 0.105035 5.06792 0.104739 3.85916 0.104846C3.72713 0.104858 3.85374 0.105023 3.79171 0.105065C2.45962 0.104879 2.28902 0.104554 3.53384 0.104195C4.11727 0.104027 4.79752 0.104186 4.54867 0.103675C4.43633 0.103443 3.50148 0.103533 3.24661 0.103328C2.66509 0.102861 3.53715 0.102253 3.39975 0.101772C3.34986 0.101597 2.83813 0.101767 2.78641 0.101647C2.64753 0.10133 3.0315 0.101051 2.83481 0.100732C2.81634 0.100703 2.28066 0.100774 2.27383 0.100675C2.21162 0.0999236 2.55473 0.0992697 2.56424 0.0984856C2.56859 0.0981067 2.27315 0.0974294 2.33255 0.097037C2.43234 0.0963568 3.21129 0.09552 3.02206 0.0949389C2.90093 0.09456 2.36515 0.0946431 2.00009 0.0944807C1.29247 0.0941673 2.55999 0.0936127 2.75626 0.093538C2.76275 0.0935357 2.88906 0.0938618 3.16409 0.0936878C3.73717 0.0935866 2.75874 0.0935417 2.75626 0.093538C2.88305 0.0934889 3.00467 0.0928375 2.90225 0.0927081C2.84628 0.0926378 2.33865 0.0926771 2.31906 0.0926405C1.86478 0.0917694 1.73576 0.0908967 1.97312 0.0900132C1.98337 0.0899977 2.55118 0.0900211 2.56821 0.0899845C2.82067 0.089473 2.12606 0.0891455 1.71366 0.0887237C1.30144 0.0883019 1.4395 0.0879674 2.41428 0.0877177C2.29154 0.0873994 2.72249 0.0869429 2.98398 0.0866801C3.24546 0.0864174 2.14017 0.0863807 2.11832 0.0863576C1.41895 0.0856366 2.0516 0.0852197 2.15006 0.0844717C2.19876 0.084116 2.03844 0.0834106 1.91757 0.0830255C1.8202 0.0827212 2.07923 0.0825378 1.91361 0.0822574C1.89149 0.0822195 1.39935 0.0822578 1.38041 0.0822462C0.791597 0.0819332 1.99469 0.0820836 2.20957 0.082019C2.99094 0.0817848 3.4071 0.08164 3.03952 0.0812393C2.95534 0.0811468 1.22305 0.0808775 1.12174 0.080709C0.993201 0.08049 1.61412 0.0805726 1.46372 0.0803432C1.45142 0.0803236 1.06835 0.0803277 1.08524 0.0801861C1.1586 0.0795289 1.3815 0.0788124 1.34311 0.0781294C1.33934 0.0780361 0.731739 0.0781558 0.716284 0.078021C0.644261 0.0773885 0.666747 0.0766952 0.951146 0.0760791C1.02306 0.0759274 1.44848 0.0760225 1.5748 0.0759896C2.3391 0.0757874 1.22859 0.0755008 1.20743 0.0754535C0.673773 0.0743254 1.67877 0.0734619 1.20029 0.0723121C1.1722 0.0722495 -0.01829 0.0717677 1.00272 0.0715527C1.07065 0.071538 2.11525 0.0713253 1.40103 0.0711373C1.35635 0.0711256 0.818577 0.0712581 0.873388 0.0710269C0.928079 0.0707956 0.568956 0.0704235 1.15982 0.0701056C1.34596 0.0700049 2.38798 0.0697671 1.55735 0.0694669C1.49936 0.0694473 -0.378822 0.0689839 0.917028 0.0688184C1.13034 0.0687916 2.50164 0.0688197 1.79856 0.0684614C1.66225 0.0683929 1.35638 0.0685172 1.16538 0.0683369C0.87101 0.0680605 1.23829 0.0676944 0.627417 0.0673547C0.51927 0.0672955 -0.411488 0.0670433 0.294959 0.066841C0.405601 0.0668094 0.863413 0.0668696 0.914647 0.0667627C1.16041 0.0662548 0.854178 0.0657229 1.17093 0.0652071C1.28224 0.0650244 2.02234 0.0651178 2.22067 0.0649274C2.41894 0.0647369 2.60966 0.0643532 2.27145 0.0641539C1.9331 0.0639546 0.753544 0.0641723 0.659155 0.0638738C0.249216 0.0625756 0.941174 0.0612896 1.04239 0.0599934C1.05751 0.0598011 0.63543 0.0599605 0.627417 0.0596772C0.596016 0.0586327 0.20027 0.0568292 1.09714 0.0559228C1.81549 0.0551966 2.36237 0.0561105 2.65469 0.0555556C2.79414 0.0552878 1.42279 0.0549981 1.37961 0.0549334C0.941056 0.0543019 1.54854 0.053863 1.36216 0.0532946C1.32348 0.0531772 0.767657 0.0532923 0.740881 0.0531924C0.644489 0.0528512 0.892583 0.0524926 0.847204 0.0521665C0.825567 0.0520203 0.401049 0.0520472 0.433814 0.0519126C0.507322 0.0515905 0.685769 0.0513058 1.08365 0.0509918C1.11991 0.0509632 1.64799 0.0511561 1.66764 0.0509178C1.69792 0.0505322 2.09043 0.0500535 1.68509 0.0496098C1.56316 0.0494781 0.59293 0.049473 1.26297 0.04919C1.40292 0.0491306 2.56795 0.0492064 1.56131 0.0488767C1.39403 0.0488213 0.0362664 0.0482675 0.911473 0.0479958C1.14182 0.0479241 2.09517 0.0477411 1.94534 0.0475828C1.92144 0.0475613 1.40029 0.0476473 1.34946 0.0475161C1.17938 0.0470538 1.23498 0.0465693 1.07175 0.0460943C1.02713 0.0459674 0.487853 0.0461563 0.438575 0.0459673C0.302267 0.0454475 0.439577 0.0447984 0.608374 0.0442901C0.67163 0.0441026 1.11835 0.0442322 1.16697 0.0442186C1.95769 0.0439992 0.890394 0.0438696 0.828161 0.0437968C0.455513 0.0433441 0.956866 0.0429994 0.824193 0.0425822C0.788933 0.042467 0.280034 0.0425487 0.234657 0.0425257C-0.208712 0.042288 0.705204 0.0424651 0.805944 0.0423146C1.09119 0.0418931 1.05029 0.0414232 0.985265 0.0409968C0.960631 0.0408403 0.370551 0.0410163 0.355262 0.0408757C0.253581 0.040044 0.310045 0.0391793 0.635351 0.0383676C0.697674 0.0382148 1.15205 0.0383109 1.25583 0.0382791C1.98191 0.0380595 0.991532 0.0377378 0.897191 0.0376637C0.466432 0.0373271 0.868248 0.0371963 0.793249 0.0368991C0.419836 0.0354468 0.685964 0.0336536 0.850377 0.0322827C1.06198 0.0304963 1.49424 0.0291101 1.38199 0.0274066C1.37543 0.0272983 0.770963 0.0274075 0.757543 0.0273142C0.611826 0.0261092 0.848026 0.0249229 0.673437 0.0237155C0.660182 0.0236164 0.0871456 0.0237592 0.046608 0.0236002C-0.0405582 0.023274 -0.00941159 0.0228608 0.173561 0.022531C0.261721 0.0223701 0.753437 0.0225859 0.832128 0.022424C1.01648 0.022047 1.05729 0.0216428 0.965428 0.0212556C0.925086 0.0210908 0.339016 0.0213394 0.332252 0.0211252C0.274109 0.019666 0.173172 0.018233 0.932103 0.0167584C0.984226 0.0166573 2.17535 0.0165686 1.94693 0.0163537C1.61636 0.0163375 1.22751 0.0163384 0.874181 0.0163313C0.683849 0.0142071 1.09677 0.0121046 1.16062 0.00997447C1.16317 0.00988466 0.532056 0.0100399 0.533789 0.00986599C0.54312 0.00885962 0.368281 0.00788237 0.99558 0.00685297C1.05693 0.00675083 2.16722 0.00680323 1.9993 0.00650224C1.96866 0.00644916 1.82058 0.00599583 1.57956 0.00587862C1.54321 0.0058627 1.02497 0.00594541 1.00986 0.00579933C0.931165 0.00495043 1.04948 0.00406083 1.36612 0.0032134C1.41822 0.00307664 1.9701 0.00322229 2.01199 0.00312487C2.30496 0.00243387 1.88543 0.00168226 2.38651 0.00102198C2.7239 0.000580012 3.67787 0.000743642 4.61691 0.000508785C4.74939 0.000475567 4.77038 0.000201886 5.31673 0.000187733C6.69058 0.000151398 8.19493 0.000283961 9.65931 0.000229567C9.97473 0.000218075 9.635 -0.000148454 10.3972 6.85547e-05C10.4482 8.3715e-05 10.7012 0.000349451 10.9598 0.000414902C11.1386 0.000460471 11.6942 0.000378354 11.923 0.000471329C12.1517 0.000564297 11.6859 0.000666456 11.9548 0.000820595C12.227 0.000974665 12.8591 0.000906919 12.9339 0.00121461ZM4.15274 0.0854971C4.68354 0.0852538 2.73942 0.0852179 3.20456 0.085481C3.22935 0.0854938 4.1267 0.0855096 4.15274 0.0854971ZM4.4598 0.114932C5.31729 0.114614 4.05644 0.114397 3.39419 0.114621C2.73266 0.114845 4.19986 0.115029 4.4598 0.114932ZM5.08584 0.11823C5.76193 0.117859 3.0051 0.1178 3.5624 0.118198C3.5939 0.118221 5.04658 0.118252 5.08584 0.11823ZM4.8843 0.00159793C4.91012 0.00159457 4.93528 0.00139784 4.90969 0.00139314C4.29224 0.00128838 4.24236 0.00168177 4.8843 0.00159793ZM5.76742 0.121503C6.14034 0.121387 5.70984 0.121053 5.24612 0.121197C4.87306 0.121313 5.30352 0.121648 5.76742 0.121503ZM6.22762 0.0728063C6.25659 0.0728025 6.28268 0.0726614 6.11892 0.0726643C5.59148 0.0726738 5.74034 0.0728701 6.22762 0.0728063ZM5.79915 0.127066C5.90292 0.126244 8.1802 0.125745 7.92323 0.12664C7.87674 0.126802 7.19703 0.126291 6.99172 0.126497C6.61767 0.126875 8.04753 0.127125 7.28133 0.127511C7.14109 0.12758 5.78817 0.127112 5.79598 0.127064C5.79704 0.127065 5.7981 0.127065 5.79915 0.127066ZM6.48787 0.085357C6.51358 0.0853521 6.53796 0.0851569 6.51247 0.0851522C5.89527 0.0850465 5.8458 0.0854398 6.48787 0.085357ZM7.4297 0.0645762C7.48448 0.0645654 7.53572 0.0641123 7.48524 0.0640975C6.47595 0.0638611 6.36938 0.0647772 7.4297 0.0645762ZM7.91054 0.0985065C8.53144 0.0987195 8.60455 0.0989744 7.82484 0.0991442C7.86623 0.0989325 7.87233 0.0987194 7.91054 0.0985065Z" fill="#171717" fill-opacity="0.75"/>
<path d="M149.856 215.039L146.845 215.891C146.655 215.389 146.376 214.901 146.007 214.428C145.647 213.945 145.154 213.547 144.529 213.235C143.904 212.922 143.104 212.766 142.129 212.766C140.794 212.766 139.681 213.074 138.791 213.689C137.91 214.295 137.47 215.067 137.47 216.004C137.47 216.838 137.773 217.496 138.379 217.979C138.985 218.462 139.932 218.864 141.22 219.186L144.458 219.982C146.409 220.455 147.863 221.18 148.819 222.155C149.776 223.121 150.254 224.366 150.254 225.891C150.254 227.141 149.894 228.258 149.174 229.243C148.464 230.228 147.47 231.004 146.191 231.573C144.913 232.141 143.426 232.425 141.731 232.425C139.506 232.425 137.664 231.942 136.205 230.976C134.747 230.01 133.824 228.599 133.436 226.743L136.617 225.948C136.92 227.122 137.493 228.003 138.336 228.59C139.188 229.177 140.301 229.47 141.674 229.47C143.237 229.47 144.477 229.139 145.396 228.476C146.324 227.804 146.788 226.999 146.788 226.061C146.788 225.304 146.523 224.669 145.992 224.158C145.462 223.637 144.648 223.249 143.549 222.993L139.913 222.141C137.915 221.667 136.447 220.933 135.509 219.939C134.581 218.935 134.117 217.681 134.117 216.175C134.117 214.944 134.463 213.855 135.154 212.908C135.855 211.961 136.807 211.218 138.009 210.678C139.222 210.138 140.595 209.868 142.129 209.868C144.288 209.868 145.983 210.342 147.214 211.289C148.455 212.236 149.335 213.486 149.856 215.039ZM158.652 218.845V231.97H155.3V202.879H158.652V213.561H158.936C159.448 212.434 160.215 211.54 161.237 210.877C162.27 210.204 163.643 209.868 165.357 209.868C166.843 209.868 168.146 210.166 169.263 210.763C170.38 211.35 171.247 212.254 171.862 213.476C172.487 214.688 172.8 216.232 172.8 218.107V231.97H169.448V218.334C169.448 216.601 168.998 215.261 168.098 214.314C167.208 213.358 165.972 212.879 164.391 212.879C163.292 212.879 162.308 213.111 161.436 213.576C160.575 214.04 159.893 214.717 159.391 215.607C158.898 216.497 158.652 217.576 158.652 218.845ZM178.933 231.97V210.152H182.285V231.97H178.933ZM180.637 206.516C179.984 206.516 179.42 206.293 178.947 205.848C178.483 205.403 178.251 204.868 178.251 204.243C178.251 203.618 178.483 203.083 178.947 202.638C179.42 202.193 179.984 201.97 180.637 201.97C181.291 201.97 181.849 202.193 182.313 202.638C182.787 203.083 183.024 203.618 183.024 204.243C183.024 204.868 182.787 205.403 182.313 205.848C181.849 206.293 181.291 206.516 180.637 206.516ZM191.777 218.845V231.97H188.425V210.152H191.664V213.561H191.948C192.459 212.453 193.236 211.563 194.277 210.891C195.319 210.209 196.664 209.868 198.311 209.868C199.789 209.868 201.081 210.171 202.189 210.777C203.297 211.374 204.159 212.283 204.774 213.504C205.39 214.717 205.698 216.251 205.698 218.107V231.97H202.345V218.334C202.345 216.62 201.9 215.285 201.01 214.328C200.12 213.362 198.898 212.879 197.345 212.879C196.275 212.879 195.319 213.111 194.476 213.576C193.643 214.04 192.985 214.717 192.502 215.607C192.019 216.497 191.777 217.576 191.777 218.845ZM213.201 240.152C212.633 240.152 212.126 240.105 211.681 240.01C211.236 239.925 210.928 239.84 210.758 239.754L211.61 236.8C212.425 237.008 213.144 237.084 213.769 237.027C214.394 236.97 214.948 236.691 215.431 236.189C215.924 235.697 216.374 234.897 216.781 233.789L217.406 232.084L209.338 210.152H212.974L218.997 227.539H219.224L225.247 210.152H228.883L219.622 235.152C219.205 236.279 218.689 237.212 218.073 237.951C217.458 238.699 216.743 239.253 215.928 239.612C215.124 239.972 214.214 240.152 213.201 240.152Z" fill="black"/>
<path d="M130.265 264.425C128.22 264.425 126.458 263.942 124.981 262.976C123.504 262.01 122.367 260.68 121.572 258.985C120.776 257.29 120.379 255.353 120.379 253.175C120.379 250.959 120.786 249.004 121.6 247.308C122.424 245.604 123.57 244.273 125.038 243.317C126.515 242.351 128.239 241.868 130.208 241.868C131.742 241.868 133.125 242.152 134.356 242.72C135.587 243.289 136.596 244.084 137.382 245.107C138.168 246.129 138.655 247.323 138.845 248.686H135.492C135.237 247.692 134.669 246.811 133.788 246.044C132.917 245.268 131.742 244.879 130.265 244.879C128.958 244.879 127.812 245.22 126.828 245.902C125.852 246.575 125.09 247.526 124.541 248.757C124.001 249.979 123.731 251.414 123.731 253.061C123.731 254.747 123.996 256.215 124.526 257.465C125.066 258.715 125.824 259.685 126.799 260.377C127.784 261.068 128.939 261.414 130.265 261.414C131.136 261.414 131.927 261.262 132.637 260.959C133.348 260.656 133.949 260.22 134.441 259.652C134.934 259.084 135.284 258.402 135.492 257.607H138.845C138.655 258.895 138.187 260.055 137.438 261.087C136.7 262.11 135.72 262.924 134.498 263.53C133.286 264.127 131.875 264.425 130.265 264.425ZM152.609 264.425C150.639 264.425 148.911 263.956 147.424 263.019C145.947 262.081 144.792 260.77 143.958 259.084C143.134 257.398 142.723 255.429 142.723 253.175C142.723 250.902 143.134 248.918 143.958 247.223C144.792 245.528 145.947 244.212 147.424 243.274C148.911 242.337 150.639 241.868 152.609 241.868C154.579 241.868 156.302 242.337 157.779 243.274C159.266 244.212 160.421 245.528 161.245 247.223C162.079 248.918 162.495 250.902 162.495 253.175C162.495 255.429 162.079 257.398 161.245 259.084C160.421 260.77 159.266 262.081 157.779 263.019C156.302 263.956 154.579 264.425 152.609 264.425ZM152.609 261.414C154.105 261.414 155.336 261.03 156.302 260.263C157.268 259.496 157.983 258.487 158.447 257.237C158.911 255.987 159.143 254.633 159.143 253.175C159.143 251.717 158.911 250.358 158.447 249.098C157.983 247.839 157.268 246.821 156.302 246.044C155.336 245.268 154.105 244.879 152.609 244.879C151.113 244.879 149.882 245.268 148.916 246.044C147.95 246.821 147.235 247.839 146.771 249.098C146.307 250.358 146.075 251.717 146.075 253.175C146.075 254.633 146.307 255.987 146.771 257.237C147.235 258.487 147.95 259.496 148.916 260.263C149.882 261.03 151.113 261.414 152.609 261.414ZM181.362 255.05V242.152H184.715V263.97H181.362V260.277H181.135C180.624 261.385 179.828 262.327 178.749 263.104C177.669 263.871 176.306 264.254 174.658 264.254C173.294 264.254 172.082 263.956 171.022 263.36C169.961 262.754 169.128 261.844 168.522 260.632C167.915 259.411 167.612 257.872 167.612 256.016V242.152H170.965V255.789C170.965 257.379 171.41 258.648 172.3 259.595C173.2 260.542 174.345 261.016 175.737 261.016C176.571 261.016 177.418 260.803 178.28 260.377C179.151 259.951 179.88 259.297 180.468 258.416C181.064 257.536 181.362 256.414 181.362 255.05ZM190.855 263.97V242.152H194.093V245.448H194.321C194.718 244.368 195.438 243.492 196.48 242.82C197.521 242.147 198.696 241.811 200.002 241.811C200.249 241.811 200.556 241.816 200.926 241.826C201.295 241.835 201.574 241.849 201.764 241.868V245.277C201.65 245.249 201.39 245.206 200.982 245.149C200.585 245.083 200.163 245.05 199.718 245.05C198.658 245.05 197.711 245.272 196.877 245.718C196.053 246.153 195.4 246.759 194.917 247.536C194.444 248.303 194.207 249.179 194.207 250.164V263.97H190.855ZM213.937 264.425C211.967 264.425 210.239 263.956 208.752 263.019C207.275 262.081 206.12 260.77 205.286 259.084C204.463 257.398 204.051 255.429 204.051 253.175C204.051 250.902 204.463 248.918 205.286 247.223C206.12 245.528 207.275 244.212 208.752 243.274C210.239 242.337 211.967 241.868 213.937 241.868C215.907 241.868 217.63 242.337 219.107 243.274C220.594 244.212 221.75 245.528 222.573 247.223C223.407 248.918 223.823 250.902 223.823 253.175C223.823 255.429 223.407 257.398 222.573 259.084C221.75 260.77 220.594 262.081 219.107 263.019C217.63 263.956 215.907 264.425 213.937 264.425ZM213.937 261.414C215.433 261.414 216.664 261.03 217.63 260.263C218.596 259.496 219.311 258.487 219.775 257.237C220.239 255.987 220.471 254.633 220.471 253.175C220.471 251.717 220.239 250.358 219.775 249.098C219.311 247.839 218.596 246.821 217.63 246.044C216.664 245.268 215.433 244.879 213.937 244.879C212.441 244.879 211.21 245.268 210.244 246.044C209.278 246.821 208.563 247.839 208.099 249.098C207.635 250.358 207.403 251.717 207.403 253.175C207.403 254.633 207.635 255.987 208.099 257.237C208.563 258.487 209.278 259.496 210.244 260.263C211.21 261.03 212.441 261.414 213.937 261.414ZM232.293 250.845V263.97H228.941V242.152H232.179V245.561H232.463C232.975 244.453 233.751 243.563 234.793 242.891C235.834 242.209 237.179 241.868 238.827 241.868C240.304 241.868 241.597 242.171 242.705 242.777C243.813 243.374 244.674 244.283 245.29 245.504C245.906 246.717 246.213 248.251 246.213 250.107V263.97H242.861V250.334C242.861 248.62 242.416 247.285 241.526 246.328C240.636 245.362 239.414 244.879 237.861 244.879C236.791 244.879 235.834 245.111 234.992 245.576C234.158 246.04 233.5 246.717 233.017 247.607C232.534 248.497 232.293 249.576 232.293 250.845ZM255.691 250.845V263.97H252.339V242.152H255.578V245.561H255.862C256.373 244.453 257.15 243.563 258.191 242.891C259.233 242.209 260.578 241.868 262.225 241.868C263.703 241.868 264.995 242.171 266.103 242.777C267.211 243.374 268.073 244.283 268.688 245.504C269.304 246.717 269.612 248.251 269.612 250.107V263.97H266.259V250.334C266.259 248.62 265.814 247.285 264.924 246.328C264.034 245.362 262.812 244.879 261.259 244.879C260.189 244.879 259.233 245.111 258.39 245.576C257.557 246.04 256.899 246.717 256.416 247.607C255.933 248.497 255.691 249.576 255.691 250.845ZM284.885 264.425C282.783 264.425 280.969 263.961 279.445 263.033C277.93 262.095 276.76 260.789 275.936 259.112C275.122 257.427 274.715 255.467 274.715 253.232C274.715 250.997 275.122 249.027 275.936 247.323C276.76 245.609 277.906 244.273 279.374 243.317C280.851 242.351 282.575 241.868 284.544 241.868C285.681 241.868 286.803 242.058 287.911 242.436C289.019 242.815 290.027 243.431 290.936 244.283C291.845 245.126 292.57 246.243 293.11 247.635C293.649 249.027 293.919 250.741 293.919 252.777V254.198H277.101V251.3H290.51C290.51 250.069 290.264 248.97 289.772 248.004C289.289 247.039 288.597 246.276 287.698 245.718C286.808 245.159 285.756 244.879 284.544 244.879C283.209 244.879 282.054 245.211 281.078 245.874C280.112 246.527 279.369 247.379 278.848 248.431C278.327 249.482 278.067 250.609 278.067 251.811V253.743C278.067 255.391 278.351 256.788 278.919 257.933C279.497 259.07 280.297 259.936 281.32 260.533C282.343 261.12 283.531 261.414 284.885 261.414C285.766 261.414 286.561 261.29 287.272 261.044C287.991 260.789 288.611 260.41 289.132 259.908C289.653 259.397 290.056 258.762 290.34 258.004L293.578 258.914C293.237 260.012 292.665 260.978 291.86 261.811C291.055 262.635 290.06 263.279 288.877 263.743C287.693 264.198 286.362 264.425 284.885 264.425Z" fill="black"/>
<path d="M58.6464 258.392C60.7958 255.148 63.846 251.061 66.239 248.001C66.9875 247.042 66.8244 247.682 67.3509 247.026C68.3813 245.742 69.1727 244.435 70.2105 243.178C70.5548 242.763 70.4714 243.527 70.8254 243.087C72.7603 240.678 74.395 238.249 76.3028 235.764C85.7062 223.533 94.9576 211.483 105.211 199.626C108.591 195.716 113.01 191.235 116.574 187.244C116.99 186.777 116.493 186.82 116.555 186.715C117.535 185.073 117.588 185.991 118.5 185.169C122.103 181.928 125.967 178.202 129.353 174.995C130.789 173.638 128.865 174.466 130.616 173.413C130.737 173.34 130.59 173.937 131.025 173.606C131.437 173.292 131.978 172.835 132.522 172.372C133.294 171.714 134.072 171.047 134.51 170.708C135.972 169.581 136.212 169.385 137.583 168.314C139.477 166.845 141.848 165.309 143.917 163.784C144.355 163.46 143.556 163.571 144.238 163.029C144.933 162.473 146.87 161.23 147.586 160.88C148.292 160.532 148.162 160.951 148.314 160.932C149.546 160.792 151.446 158.762 151.738 158.578C157.016 155.13 162.091 153.152 167.568 150.985C171.737 149.338 176.267 147.746 180.422 146.73C185.364 145.527 189.654 144.968 194.54 144.38C195.06 144.32 194.404 143.964 195.039 143.891C198.348 143.515 201.662 143.316 204.968 143.297C208.404 143.277 211.829 143.456 215.235 143.856C215.908 143.937 215.011 144.242 215.679 144.345C219.781 144.927 226.004 146.647 228.722 145.583C231.456 146.192 234.744 147.076 237.052 148.088C238.536 148.741 236.922 148.683 238.86 149.088C239.295 149.183 238.849 148.672 239.494 148.84C242.224 149.557 245.077 150.703 247.731 151.581C248.272 151.759 248.248 151.406 248.419 151.414C249.859 151.496 251.619 153.115 252.037 153.372C254.283 154.716 256.155 155.666 258.114 156.692C258.982 157.147 259.826 157.595 260.75 158.118C261.452 158.517 260.832 157.675 261.514 158.046C265.029 159.97 268.565 162.233 271.674 164.625C272.375 165.166 271.5 165.001 271.823 165.274C273.221 166.465 273.959 166.15 275.293 167.325C275.574 167.574 275.218 167.697 275.252 167.765C275.765 168.822 276.968 168.791 277.191 168.943C280.054 170.892 281.246 172.934 283.8 175.044C284.108 175.3 283.7 174.405 284.546 175.14C288.601 178.567 292.406 182.871 296.342 185.832C298.1 187.041 299.845 188.243 301.545 189.452C302.474 190.114 301.63 189.919 301.671 189.989C302.338 191.105 303.388 190.881 303.717 191.064C306.294 192.519 308.16 194.632 310.313 195.166C312.392 196.877 314.408 198.711 316.213 200.771C322.682 208.182 328.654 216.118 332.626 225.137C332.691 225.284 332.225 225.201 332.354 225.492C332.403 225.604 332.45 225.71 332.495 225.811C333.806 228.968 334.032 228.203 335.544 230.279C335.939 230.839 335.706 232.942 335.69 233.122C335.65 233.788 334.924 233.332 334.942 233.546C335.087 235.269 336.8 234.487 337.411 236.734C337.427 236.806 337.018 236.597 337.036 236.795C337.089 237.408 337.37 237.949 337.401 238.552C337.464 239.926 336.705 240.603 337.673 242.477C337.797 242.72 338.74 242.086 339.135 244.118C339.297 244.925 340.046 248.486 340.165 249.493C340.292 250.508 339.826 249.885 339.826 249.959C339.897 252.726 339.518 251.738 339.115 253.205C338.708 254.662 340.192 254.009 340.464 254.529C340.737 255.049 340.716 257.084 340.671 257.589C340.627 258.095 340.311 257.527 340.313 257.97C340.324 260.899 341.296 259.094 341.7 259.995C342.652 262.125 341.77 264.038 341.971 266.089C342.025 266.645 342.219 266.154 342.319 266.642C342.619 268.12 342.578 269.183 342.839 270.576C342.919 271.006 343.025 271.46 343.171 271.967C343.274 272.316 344.217 274.083 343.722 275.373C343.649 275.548 343.358 275.061 343.294 275.936C343.262 277.217 342.64 279.693 341.521 280.759C340.763 281.547 342.053 281.101 340.835 281.859C340.284 282.147 341.064 281.305 340.068 281.818C339.092 282.361 336.523 283.193 335.518 283.409C334.537 283.647 335.15 283.877 335.079 283.92C335.024 283.948 334.95 283.982 334.86 284.019C334.204 284.3 332.689 284.708 332.539 284.729C323.897 286.101 315.925 285.834 307.571 286.632C306.915 286.691 307.378 287.045 307.279 287.058C305.042 287.369 306.746 286.231 305.153 285.995C305.432 286.758 304.495 286.679 302.92 286.874C302.159 286.969 302.596 287.241 302.529 287.277C301.431 287.813 300.602 287.279 300.391 287.173C299.61 286.782 298.837 287.368 298.303 287.11C297.772 286.854 298.91 286.327 297.394 286.449C296.991 286.761 298.171 287.4 297.031 287.608C296.314 287.739 295.49 287.852 294.606 287.952C290.157 288.443 284.03 288.71 281.128 289.019C277.654 289.382 276.541 289.585 274.509 289.748C270.835 290.05 272.246 290.41 270.013 290.958C267.771 291.508 268.7 290.04 268.336 289.8C267.978 289.559 267.666 289.898 267.246 289.795C266.829 289.691 267.662 289.385 266.721 289.45C265.78 289.516 263.285 290.35 262.991 290.687C262.366 291.403 263.605 291.924 261.09 291.994C260.944 291.998 261.368 291.594 260.815 291.625C260.266 291.656 259.713 291.69 259.162 291.726C255.301 291.975 251.349 292.283 247.521 292.294C246.919 292.295 247.433 291.876 247.083 291.872C243.442 291.809 244.774 292.395 242.8 293.202C243.214 292.213 242.092 291.674 239.342 291.723C237.687 291.748 237.98 292.166 236.907 292.476C236.587 292.569 235.411 292.284 235.198 292.483C234.494 293.134 235.608 293.871 232.748 293.568C232.623 293.553 233.023 293.199 232.592 293.175C230.71 293.064 229.941 293.328 228.71 293.523C228.118 293.617 227.415 293.693 226.424 293.695C224.047 293.705 219.844 293.121 217.158 292.896C217.272 291.811 214.727 291.912 213.646 292.592C211.902 292.446 210.013 292.349 208.331 292.11C207.76 292.028 208.162 291.743 208.093 291.704C207.021 291.08 206.2 291.744 205.823 291.741C201.719 291.668 198.46 290.791 194.522 290.925C194.384 290.93 194.069 291.66 193.101 291C193.038 290.955 194.355 290.749 192.533 290.527C190.713 290.306 187.32 289.519 184.746 289.572C184.132 289.586 182.498 290.014 181.318 289.388C181.159 289.303 181.367 289.109 181.141 288.96C180.399 288.483 179.907 289.195 179.074 288.438C178.422 287.856 177.228 287.303 175.489 287.13C174.98 287.08 174.422 287.065 173.816 287.093C173.737 287.097 173.037 287.621 172.25 287.511C170.982 287.335 169.177 286.976 167.84 286.807C167.195 286.725 167.559 287.153 167.446 287.145C163.116 286.795 160.109 286.056 155.525 285.288C154.684 285.146 152.183 285.324 150.617 284.698C148.892 284.01 150.964 282.429 146.803 282.297C145.106 282.238 142.679 284.271 139.874 282.645C134.04 282.124 128.777 280.736 122.919 280.315C122.656 280.296 121.737 280.824 121.123 280.725C120.208 280.576 119.759 280.2 119.113 280.084C116.4 279.592 113.868 279.481 111.254 279.05C110.259 278.887 110.655 278.626 109.466 278.43C108.277 278.234 107.433 278.53 105.848 278.088C104.648 277.752 103.573 276.728 101.968 276.384C101.778 277.206 100.678 277.023 98.6745 276.943C98.2889 276.928 98.6514 277.279 98.4668 277.287C97.7142 277.325 97.0733 276.982 96.3598 277.039C96.1859 277.053 96.1347 277.336 95.9899 277.363C94.7594 277.603 92.9194 276.668 92.6105 276.506C91.4091 275.89 90.7588 276.168 89.8092 275.852C88.8608 275.536 90.3485 275.552 89.2275 275.276C86.9127 274.706 83.8831 274.284 81.4931 273.899C80.5413 273.747 81.1321 274.227 80.9945 274.214C79.0143 274.005 77.0767 273.289 75.8705 273.873C74.812 271.708 74.6498 273.876 71.8977 273.043C71.6809 272.976 71.5445 272.01 72.4164 272.008C73.2858 272.006 74.5369 272.498 75.7501 272.472C76.0383 272.466 77.7719 271.852 78.0012 271.834C79.7802 271.693 79.8063 273.109 79.8854 273.199C80.783 274.176 82.8906 273.55 83.4159 273.565C85.8157 273.635 87.7996 274.14 89.8007 274.233C91.1158 274.296 91.3805 273.411 92.3892 273.594C95.7449 274.202 96.7249 275.642 100.072 275.031C100.79 274.902 100.256 273.811 102.584 274.957C102.731 275.03 104.435 276.014 105.546 275.722C105.687 275.685 105.726 275.396 105.903 275.398C107.093 275.417 107.834 275.763 109.111 275.842C110.397 275.922 111.945 275.986 113.371 276.298C114.238 276.486 115.276 277.189 115.673 277.382C116.787 277.934 118.152 277.501 118.812 278.067C119.479 278.636 117.941 279.124 119.822 279.705C120.003 278.967 120.28 278.223 120.505 277.487C124.733 278.135 128.861 278.983 133.11 279.559C133.637 279.63 133.156 279.15 133.722 279.216C136.103 279.492 138.138 280.075 140.635 280.311C142.544 280.489 144.709 280.358 146.726 280.529C147.827 281.557 150.833 281.677 152.976 282.05C153.73 282.181 153.648 282.403 154.173 282.55C156.147 283.101 155.312 282.215 155.883 282.171C158.34 281.985 158.314 283.729 161.121 284.061C161.26 284.078 163.223 283.408 163.474 283.383C165.106 283.22 163.691 283.735 164.676 283.934C166.494 284.298 167.725 284.681 169.888 284.687C170.514 284.687 172.099 284.31 173.238 284.902C173.392 284.98 173.264 285.271 173.392 285.305C174.601 285.616 175.209 285.5 175.717 285.298C176.189 285.117 176.574 284.866 177.221 284.79C178.561 284.629 180.557 285.537 180.934 285.774C181.974 286.396 180.075 285.884 180.017 285.925C179.261 286.414 180.743 286.494 181.895 286.68C181.953 287.634 183.537 287.765 183.064 286.866C183.012 286.768 182.121 286.751 181.895 286.68C182.999 285.883 184.761 285.973 186.607 287.052C187.473 287.558 186.538 287.927 189.331 288.068C190.571 288.128 190.184 287.434 191.302 287.379C193.865 287.256 197.075 288.198 199.682 288.356C200.619 288.412 199.738 287.971 200.391 287.998C202.107 288.066 203.599 288.471 205.319 288.484C205.475 288.485 205.124 288.082 205.665 288.124C209.705 288.428 213.213 288.931 217.437 289.176C219.481 289.298 223.127 289.251 225.242 289.351C226.366 289.406 227.566 289.501 228.784 289.601C231.54 289.828 234.375 290.074 236.546 289.966C238.585 289.864 238.133 289.494 239 289.228C240.669 288.715 243.661 289.489 244.072 289.604C244.085 289.61 242.338 289.762 243.279 289.918C243.838 290.294 244.053 289.607 244.072 289.604C244.339 289.689 247.839 289.596 248.527 289.472C248.901 289.409 248.668 289.072 248.863 289.046C252.14 288.608 255.411 288.199 258.723 287.837C260.097 287.687 261.481 287.546 262.876 287.419C262.96 287.415 262.884 287.821 263.082 287.808C265.848 287.632 267.548 286.917 269.782 286.33C272.019 285.743 273.841 285.598 275.28 286.091C276.991 285.782 279.505 285.766 280.953 285.776C282.402 285.784 282.51 285.003 282.635 284.973C286.505 284.04 288.83 284.236 292.923 283.934C293.301 283.907 293.753 283.869 294.255 283.823C296.305 283.634 299.121 283.338 300.803 283.151C302.456 282.966 303.467 283.076 304.983 282.859C305.188 282.83 304.957 282.504 305.019 282.486C306.693 281.965 305.931 282.851 306.292 282.976C307.601 283.431 308.406 283.666 310.562 283.267C311.058 283.175 312.437 281.88 313.343 281.747C314.519 281.576 314.106 282.036 315.336 281.844C315.441 281.828 315.402 281.565 316.165 281.522C319.71 281.314 323.575 281.161 327.173 280.723C327.661 280.664 326.983 280.32 327.691 280.225C329.738 279.949 331.89 279.642 333.832 279.272C335.033 279.042 336.136 278.785 337.009 278.504C337.554 278.324 337.346 278.733 337.497 278.763C337.961 278.843 338.324 278.565 338.464 278.297C338.615 278.024 338.555 277.788 338.575 277.758C338.988 277.473 339.003 274.251 338.588 271.202C338.324 268.955 338.017 266.659 337.478 264.136C337.406 263.799 336.181 261.368 336.685 260.109C336.719 260.022 337.243 258.772 336.583 257.854C336.542 257.797 336.296 258.561 336.122 257.331C335.946 256.091 335.351 254.168 335.438 252.416C335.464 251.857 335.936 250.461 335.056 248.993C334.996 248.889 333.23 246.735 333.917 245.681C334.029 245.509 334.996 245.458 334.103 243.688C333.93 243.353 333.872 244.05 333.528 243.136C333.003 241.75 332.793 239.795 331.921 238.175C331.767 237.886 330.804 236.794 330.974 235.652C331.001 235.472 331.394 235.681 331.269 235.14C330.67 232.56 329.571 230.027 328.692 227.774C328.687 227.759 328.681 227.745 328.676 227.731C328.364 226.915 329.011 227.086 328.677 226.158C328.339 225.211 327.46 223.373 326.72 222.59C325.979 221.802 325.87 223.206 325.005 221.9C321.225 216.256 317.561 210.52 313.121 205.286C312.519 204.58 312.747 205.208 312.034 204.47C311.972 204.407 311.902 204.332 311.822 204.245C308.625 200.442 300.491 195.493 296.639 192.301C293.585 189.742 297.974 192.12 295.542 190.311C295.061 189.954 294.466 189.732 293.908 189.58C292.986 189.282 292.203 189.091 292.01 188.964C288.809 186.766 287.51 184.78 285.156 182.764C284.683 182.354 284.867 183.056 284.464 182.702C283.083 181.492 281.798 180.071 280.486 178.946C279.886 178.433 279.813 178.76 279.29 178.272C278.047 177.118 276.965 176.044 275.863 174.794C275.759 174.678 276.791 175.044 275.809 174.231C274.237 172.934 272.381 171.168 270.306 170.028C269.689 169.692 269.293 170.227 268.323 168.989C268.119 168.733 268.919 168.294 267.069 167.885C266.765 167.813 263.818 167.002 262.914 165.741C262.685 165.411 262.184 164.33 261.417 163.993C261.311 163.95 261.516 164.491 260.904 164.168C259.166 163.246 257.437 162.265 255.62 161.35C255.164 161.121 254.699 160.895 254.234 160.681C253.631 160.406 254.339 161.188 253.444 160.769C250.982 159.615 247.942 158.13 245.516 157.031C244.62 156.624 245.365 156.59 245.311 156.532C244.446 155.597 243.534 156.045 243.166 155.952C240.859 155.366 239.263 154.463 237.144 153.907C236.559 153.755 236.867 154.217 236.743 154.212C235.465 154.15 236.533 153.808 235.798 153.519C233.733 152.711 231.331 152.128 229.139 151.697C228.331 151.54 229.148 152.134 228.425 151.99C224.164 151.155 219.709 150.473 215.493 149.907C214.698 149.801 215.224 149.527 215.063 149.443C213.947 148.849 212.209 149.442 211.824 149.492C210.046 149.714 209.37 149.421 207.813 149.456C206.918 149.479 206.015 149.507 205.077 149.543C198.032 149.771 190.004 150.628 183.814 151.984C174.696 153.984 167.703 156.331 159.748 160.466C159.243 160.733 159.946 160.839 159.514 161.074C153.964 164.086 148.593 167.315 143.553 171.221C143.138 171.543 143.977 171.41 143.326 171.933C141.996 173.006 140.277 174.33 138.844 175.344C138.155 175.832 138.812 174.85 138.121 175.349C137.511 175.791 136.892 176.266 136.276 176.766C135.286 177.567 134.285 178.451 133.369 179.326C132.738 179.931 133.988 179.351 133.149 180.114C127.437 185.345 122.159 190.893 116.482 196.425C116.094 196.803 115.152 196.617 114.507 197.584C114.621 197.8 114.826 197.975 114.984 198.166C107.528 206.801 100.224 215.503 93.211 224.646C92.9156 225.032 93.7715 224.628 93.2015 225.376C89.9056 229.708 86.852 234.027 83.2099 238.277C82.8492 238.699 82.3935 238.018 81.528 239.404C81.3763 239.647 80.0119 241.701 79.7755 242.313C79.7454 242.397 80.2986 242.245 79.8433 242.892C77.188 246.655 74.3129 250.532 71.4664 254.155C71.0062 254.74 71.1537 253.874 70.8232 254.288C68.4829 257.229 66.3586 260.733 64.0041 263.463C62.4262 265.291 62.4005 264.183 61.1326 264.851C60.9535 264.945 60.0829 266.153 59.7295 265.997C58.8386 265.61 58.4039 264.42 57.4052 264.077C57.1907 264.002 56.2327 265.766 56.4826 264.498C56.5014 264.41 57.1922 263.128 57.2514 262.734C57.2933 262.46 56.7214 262.603 56.8838 262.099C57.0464 261.594 57.6302 261.327 57.9623 260.534C58.2923 259.741 57.7221 259.789 58.6464 258.392ZM287.468 285.855C288.827 286.084 288.886 284.725 287.487 285.193C287.419 285.218 287.397 285.845 287.468 285.855ZM128.69 279.981C130.322 280.818 131.607 280.121 130.471 279.494C129.333 278.867 128.191 279.727 128.69 279.981ZM110.886 277.801C112.815 278.561 113.408 276.72 111.215 276.783C111.087 276.786 110.774 277.756 110.886 277.801ZM64.4002 259.908C64.375 259.913 63.7429 260.776 63.7427 260.807C63.7628 261.519 65.0262 259.792 64.4002 259.908ZM93.2156 275.605C93.8011 275.956 95.6454 275.937 94.9177 275.501C94.3315 275.15 92.488 275.169 93.2156 275.605ZM341.33 266.244C341.347 266.22 341.247 265.461 341.138 265.494C340.785 265.6 341.049 266.638 341.33 266.244ZM63.3268 270.96C67.7286 271.733 70.1609 273.712 65.3791 272.775C64.5128 272.605 67.3357 272.576 66.2491 272.26C64.2583 271.682 62.7626 272.447 60.7735 271.592C60.4143 271.436 63.0769 270.913 63.335 270.959C63.3323 270.959 63.3296 270.96 63.3268 270.96ZM288.394 287.385C288.42 287.4 289.484 287.309 289.504 287.29C290.035 286.807 287.899 286.988 288.394 287.385ZM330.947 222.782C330.957 222.707 329.749 220.538 329.672 220.491C328.429 219.734 330.855 224.086 330.947 222.782ZM217.116 292.865C215.94 293.23 214.532 293.193 213.652 292.593C214.796 292.697 215.966 292.774 217.116 292.865Z" fill="#0F0F0F" fill-opacity="0.75"/>
</svg>
