<svg width="221" height="86" viewBox="0 0 221 86" fill="none" xmlns="http://www.w3.org/2000/svg">
<path d="M10.5319 69.2292C10.9108 66.1061 12.091 62.2886 13.2274 59.5131C13.5819 58.6427 13.7666 59.2019 14.0305 58.6054C14.5459 57.4515 14.7672 56.2923 15.3409 55.1829C15.5337 54.8146 15.8704 55.4822 16.0602 55.0949C16.3577 54.488 16.6281 53.8817 16.8895 53.2705C17.5328 51.7679 18.0833 50.2974 18.8301 48.785C23.6513 38.3878 31.5784 28.2338 41.0184 21.7776C42.4249 20.7114 44.0097 19.6347 45.5649 18.5072C47.5251 17.0671 49.5771 15.843 51.3881 14.6717C51.7889 14.413 51.3056 14.1375 51.3649 14.0582C52.3224 12.8298 52.3729 13.9108 53.2453 13.5891C56.7056 12.3313 60.3318 10.83 63.4188 9.40641C64.7337 8.80155 63.0371 8.4455 64.5862 8.41359C64.6934 8.41068 64.5361 9.01746 64.9248 8.92477C65.8016 8.71404 67.3506 8.03078 68.013 7.82769C69.2843 7.43992 69.491 7.35891 70.6679 6.93383C71.7543 6.54536 73.0156 6.21346 74.2367 5.81563C74.8529 5.61392 75.4624 5.40669 76.0426 5.17782C76.4224 5.02738 75.7453 4.6972 76.3427 4.41275C76.94 4.12369 78.6193 3.68114 79.213 3.65469C79.8065 3.6235 79.671 4.08436 79.794 4.14885C80.7978 4.69723 82.4471 3.18582 82.6986 3.10779C87.1387 1.66866 91.1347 1.75115 95.3449 1.25143C95.4028 1.24466 95.4608 1.23782 95.5189 1.23092C98.6884 0.851596 102.083 0.381852 105.135 0.29132C108.838 0.18471 111.973 0.485585 115.556 0.604112C115.936 0.618225 115.52 -0.0164118 115.986 0.000325414C120.499 0.167122 124.963 0.701331 129.333 1.72281C129.739 1.81806 130.147 1.91795 130.556 2.02252C131.031 2.14522 130.322 2.57142 130.789 2.72566C133.671 3.64982 137.993 5.64355 140.23 3.7554C142.176 4.28632 144.531 4.95253 146.156 5.85198C147.202 6.43168 145.969 6.72155 147.405 6.83223C147.728 6.85839 147.454 6.25675 147.93 6.33401C149.936 6.66071 152.026 7.4018 154.023 7.69033C154.43 7.74798 154.449 7.275 154.582 7.22673C155.701 6.84526 156.949 8.36334 157.26 8.53933C159.662 9.87207 161.586 10.2132 163.966 10.9788C164.516 11.1566 164.052 10.3612 164.587 10.5112C166.458 11.0423 168.372 11.6726 170.194 12.3865C171.095 12.7381 171.969 13.1137 172.813 13.5145C173.39 13.791 172.659 14.085 172.926 14.2429C174.096 14.934 174.727 14.1102 175.85 14.7785C176.088 14.9195 175.779 15.2825 175.807 15.3468C176.239 16.3522 177.266 15.5828 177.464 15.6377C179.929 16.297 180.932 18.0007 183.187 18.8891C183.458 18.9961 183.112 18.1975 183.86 18.5309C188.85 20.7473 193.798 23.7893 198.039 27.0728C198.698 27.5813 197.968 27.6202 197.983 27.693C198.249 28.8468 199.308 28.2199 199.559 28.335C201.508 29.2571 202.632 31.1402 204.564 30.8615C204.673 30.9443 204.782 31.0268 204.892 31.1089C210.96 35.7676 214.675 41.8453 217.916 47.809C219.084 50.078 219.279 52.233 219.347 54.3289C219.35 54.4471 218.781 54.3188 218.79 54.5523C218.836 57.3371 219.588 56.7071 220.762 58.4917C221.056 58.9547 219.873 60.4219 219.784 60.5416C219.464 61.0047 218.637 60.5696 218.577 60.7223C218.106 61.9681 220.782 61.6874 220.814 63.3814C220.811 63.4337 220.314 63.2218 220.267 63.3627C220.12 63.8 220.321 64.2377 220.154 64.6629C219.766 65.652 218.467 65.9847 219.215 67.4765C219.312 67.6652 220.837 67.3835 220.748 68.8802C220.714 69.4765 220.692 72.1061 220.575 72.8367C220.46 73.5705 219.982 73.0538 219.959 73.1058C219.265 75.0638 219.014 74.3131 218.03 75.2726C217.049 76.2379 219.334 76.0215 219.577 76.4311C219.8 76.809 219.335 78.041 219.106 78.5169C219.085 78.5617 219.066 78.5998 219.05 78.63C218.851 78.9901 218.557 78.5257 218.439 78.8406C217.576 80.8634 219.483 79.9097 219.665 80.8686C219.817 82.1403 218.598 83.3223 217.607 83.4931C216.587 83.7386 215.733 83.5121 214.952 83.6348C214.533 83.6918 214.963 83.9848 214.587 84.1078C213.118 84.5521 212.191 84.1142 210.589 84.728C210.346 84.828 209.064 85.9249 208.146 85.2104C208.025 85.1072 208.344 84.6746 207.745 84.6016C206.82 84.4942 205.173 84.4316 204.219 84.5776C203.489 84.6863 204.33 85.3757 203.407 85.1643C203.014 85.0691 203.741 84.6615 203.002 84.5162C202.246 84.3723 200.339 84.3786 199.586 84.3825C198.874 84.3885 199.256 84.9192 199.199 84.954C198.861 85.1538 197.397 85.3851 197.302 85.3823C192.97 85.3516 188.831 84.8106 184.69 84.5196C182.937 84.3941 181.088 84.3116 179.253 84.336C178.77 84.3412 179.072 84.9071 178.998 84.9137C177.332 85.0872 178.688 83.659 177.576 83.125C177.697 84.2562 177.048 84.029 175.885 84.1101C175.323 84.1501 175.611 84.597 175.559 84.6397C174.689 85.2706 174.178 84.3955 174.034 84.2151C173.52 83.5518 172.9 84.2898 172.544 83.8458C172.187 83.405 173.07 82.8046 171.957 82.7708C171.629 83.1618 172.419 84.2459 171.564 84.3845C168.403 84.9121 162.54 83.8542 159.994 83.6656C157.486 83.4791 156.644 83.5192 155.179 83.3139C152.54 82.9427 153.478 83.7632 151.801 84.0526C150.128 84.342 151.015 82.4536 150.794 82.0307C150.578 81.6082 150.306 82.0228 150.025 81.7839C149.745 81.545 150.384 81.29 149.706 81.1767C149.032 81.0637 147.113 81.7202 146.863 82.1425C146.316 83.0364 147.116 84.0316 145.328 83.6195C145.225 83.5951 145.582 83.1039 145.187 83.0363C142.026 82.5155 138.755 82.3547 135.616 81.8786C135.183 81.8123 135.595 81.2665 135.344 81.2215C132.718 80.7514 133.629 81.7389 132.142 82.7312C132.524 81.3437 131.766 80.4533 129.763 80.3609C128.565 80.3052 128.746 80.9258 127.952 81.3245C127.714 81.4447 126.883 80.9889 126.716 81.2702C126.169 82.1896 126.926 83.2763 124.882 82.7705C124.792 82.7467 125.101 82.2439 124.791 82.1996C122.785 81.911 122.501 82.8848 120.314 82.9126C118.602 82.9345 115.586 82.2074 113.644 82.0289C113.75 80.4553 111.898 80.7396 111.107 81.7947C109.844 81.6978 108.477 81.7027 107.265 81.5022C106.847 81.4337 107.142 80.989 107.091 80.9376C106.31 80.131 105.715 81.165 105.441 81.1952C102.473 81.4764 100.091 80.5769 97.2446 81.2456C97.143 81.2698 96.9355 82.3574 96.2126 81.5279C96.1661 81.4709 97.1187 81.0107 95.7921 80.9186C94.4712 80.8266 91.9855 80.1395 90.1281 80.5738C89.6805 80.6783 88.5196 81.5222 87.6363 80.7923C87.5191 80.6933 87.6637 80.3847 87.4961 80.2032C86.9541 79.6246 86.6036 80.7186 85.9812 79.7532C85.3647 78.7881 84.005 78.0303 82.1231 78.6074C82.0634 78.624 81.5907 79.4838 81.0113 79.4478C80.0901 79.3897 78.7489 79.156 77.7827 79.1255C77.3181 79.1112 77.595 79.6667 77.514 79.6736C74.3714 79.8617 72.1467 79.2941 68.8075 78.9652C68.2107 78.9043 66.3744 79.5836 65.2232 78.9569C63.9542 78.2708 65.372 75.6417 62.3328 76.1784C61.1377 76.3941 59.4363 79.7336 57.3534 77.911C56.1452 77.9961 54.9791 77.9789 53.8594 77.9223C50.8618 77.7735 48.0324 77.3596 44.9555 77.7417C44.779 77.7655 44.133 78.6991 43.6831 78.6772C43.0131 78.6428 42.6616 78.1934 42.1964 78.1556C40.1847 77.9851 38.3635 78.3361 36.4555 78.2557C35.717 78.2263 35.9754 77.7711 35.1143 77.7374C34.2789 77.7048 33.6301 78.3022 32.4953 78.0058C31.5705 77.78 30.7466 76.5459 29.5186 76.4043C29.471 77.6197 28.6768 77.5942 27.2269 77.9258C26.9552 77.9903 27.2503 78.4108 27.1221 78.4631C26.6203 78.6851 26.0771 78.3403 25.5901 78.5839C25.4697 78.6424 25.4697 79.0574 25.3726 79.1287C24.5189 79.7505 23.1145 78.8457 22.8571 78.69C21.9431 78.0945 21.4788 78.6484 20.7905 78.4281C20.0527 78.2106 21.1295 77.8688 20.2771 77.7515C18.5423 77.5083 16.3162 77.692 14.5681 77.8374C13.8577 77.8999 14.3961 78.4051 14.2954 78.4268C12.8992 78.6984 11.3162 78.3429 10.7572 79.5798C9.69019 77.7518 9.69532 78.7141 9.11802 79.4063C8.86339 79.7044 8.49479 79.9558 7.85839 79.937C7.68937 79.9315 7.15997 78.6721 7.72561 78.329C8.00098 78.1622 8.38944 78.1211 8.80494 78.0668C9.2398 78.0097 9.71174 77.9376 10.1325 77.6923C10.317 77.5747 11.3338 76.1151 11.4988 76.0184C12.7715 75.2285 13.1857 77.2278 13.2592 77.327C14.1482 78.4229 15.469 76.9452 15.8389 76.8261C17.5694 76.2675 19.0821 76.4855 20.5208 76.1263C21.4601 75.8955 21.5283 74.5733 22.2805 74.5936C24.784 74.668 25.6843 76.5018 28.0026 74.888C28.5129 74.5452 28.0039 73.1018 29.8046 74.2329C29.936 74.304 31.2382 75.3422 32.0296 74.6888C32.1288 74.6064 32.1271 74.1858 32.2585 74.151C33.113 73.926 33.6619 74.2644 34.626 74.1117C35.5143 73.9584 36.716 73.7318 37.7315 73.8878C38.361 73.9811 39.2012 74.7772 39.499 74.9737C40.3314 75.5391 41.283 74.6492 41.8225 75.3284C42.352 76.0109 41.2903 77.0128 42.6704 77.4733C42.7428 76.3817 42.8834 75.2625 42.9885 74.1653C46.1062 74.2641 49.1481 74.6909 52.2524 74.7274C52.6388 74.7309 52.2593 74.1328 52.6753 74.1215C53.1132 74.1104 53.541 74.1309 53.9666 74.1664C55.182 74.2714 56.4006 74.5126 57.7634 74.4292C59.1325 74.3398 60.7546 73.7691 62.1845 73.6593C63.0306 74.938 65.2343 74.5869 66.796 74.7554C67.349 74.8141 67.3007 75.1466 67.6932 75.2693C69.1827 75.7245 68.5075 74.5953 68.9216 74.4358C70.6736 73.7551 70.7488 76.2604 72.8079 76.2731C72.9142 76.2745 74.2862 74.9905 74.4742 74.9144C75.661 74.4163 74.6496 75.3851 75.3778 75.5106C76.7248 75.7406 77.6032 76.092 79.1884 75.761C79.6478 75.6626 80.7856 74.8741 81.6328 75.5498C81.7452 75.6384 81.6645 76.0763 81.7566 76.1056C83.4287 76.6002 83.5303 75.2186 84.5221 74.7876C85.5116 74.3567 86.9572 75.3698 87.2538 75.6572C88.0227 76.4006 86.6315 75.9376 86.5865 76.0059C86.0489 76.8178 87.1412 76.7171 87.9751 76.8202C88.0422 78.1816 89.2174 78.1464 88.8405 76.9218C88.7972 76.7879 88.1403 76.8888 87.9751 76.8202C88.7662 75.5182 90.0455 75.3979 91.4093 76.698C92.0492 77.3073 91.3919 77.9618 93.422 77.7939C94.3359 77.7181 94.0211 76.7699 94.8342 76.5474C96.6948 76.0402 99.0534 77.0085 100.954 76.9485C101.645 76.9268 100.995 76.3881 101.468 76.3557C102.729 76.2682 103.804 76.6965 105.068 76.5517C105.182 76.5379 104.927 75.9912 105.317 76.0004C108.279 76.0601 110.837 76.5095 113.92 76.6473C115.41 76.7137 118.089 76.5299 119.629 76.6538C122.303 76.8655 125.56 77.7818 127.856 77.6888C129.351 77.6303 129.046 77.0812 129.698 76.7432C130.966 76.0882 133.094 77.446 133.377 77.6544C133.386 77.6613 132.1 77.7337 132.772 78.0372C133.145 78.6264 133.363 77.6563 133.377 77.6544C133.559 77.7889 136.127 78.0183 136.638 77.9371C136.917 77.8928 136.783 77.3791 136.928 77.3656C140.366 77.0548 143.822 77.0699 147.27 77.4501C147.33 77.4629 147.216 78.0264 147.358 78.0493C149.378 78.3856 150.673 77.7437 152.356 77.4C154.047 77.0567 155.332 77.2472 156.281 78.2613C157.556 78.1902 159.31 78.6922 160.338 78.9951C161.371 79.2981 161.557 78.1993 161.649 78.1811C164.491 77.5943 166.12 78.2916 169.062 78.5037C170.451 78.6061 173.255 78.5518 174.745 78.4857C175.943 78.4325 176.679 78.7185 177.769 78.592C177.917 78.5752 177.786 78.0781 177.832 78.0607C179.059 77.5155 178.44 78.6972 178.686 78.9209C179.595 79.735 180.163 80.1717 181.716 79.8572C182.091 79.7859 183.226 78.0909 183.88 78.0111C184.572 77.9296 184.477 78.3155 184.889 78.3992C184.99 78.4189 185.12 78.4222 185.295 78.3994C185.373 78.3896 185.372 78.0064 185.933 78.0412C188.457 78.1949 191.326 78.5021 193.973 78.5256C194.34 78.5303 193.886 77.9121 194.413 77.9088C196.88 77.8931 199.561 77.9612 201.93 78.2531C202.528 78.3267 202.152 78.7511 202.281 78.8777C203.064 79.6443 204.158 78.5274 204.339 78.5041C206.485 78.2178 208.361 78.2849 210.126 78.2814C211.028 78.2768 211.875 78.2541 212.639 78.1458C213.368 78.0627 214.154 77.7532 213.931 77.7045C213.916 77.7059 213.848 77.6491 213.688 77.6417C213.528 77.6355 213.25 77.7048 212.968 77.9241C212.683 78.1395 212.452 78.4795 212.411 78.6973C212.366 78.9226 212.477 79.0187 212.73 79.0454C212.761 79.0482 212.994 79.0804 213.182 78.9773C213.37 78.8818 213.506 78.6538 213.324 78.3546C213.288 78.2852 213.24 78.2157 213.177 78.1468C213.134 78.0998 212.581 78.6061 212.662 77.6973C212.742 76.7941 212.423 75.3212 213.044 74.0961C213.24 73.708 214.305 72.8014 213.498 71.6138C213.442 71.5317 211.598 69.7106 212.901 69.0869C213.115 68.9854 214.487 69.1152 213.797 67.7177C213.663 67.4532 213.354 67.9303 213.168 67.2333C212.88 66.1739 213.247 64.7633 212.616 63.4901C212.505 63.2692 211.558 62.3455 212.239 61.5766C212.346 61.4562 212.811 61.6639 212.849 61.2671C213.027 59.3593 212.6 57.4523 212.68 55.6825C212.703 55.0514 213.485 55.264 213.576 54.5868C213.674 53.9155 213.58 52.6246 213.077 52.21C212.588 51.8249 211.642 52.6679 211.342 52.1566C211.246 52.0089 211.162 51.9029 211.112 51.8587C208.549 48.0196 206.718 43.9006 204.146 40.8458C203.733 40.3658 203.772 41.0268 203.146 40.3734C202.351 39.5576 201.314 38.6819 200.216 37.9732C197.275 36.0308 194.17 33.9399 192.562 32.242C190.593 30.1685 193.845 31.5465 192.194 30.1783C191.388 29.5168 189.734 30.1278 189.504 30.0418C187.224 29.2045 186.081 27.8731 184.094 27.0352C183.686 26.865 183.811 27.5575 183.467 27.4082C182.291 26.9034 181.199 26.0815 180.079 25.5972C179.572 25.3799 179.485 25.8083 179.045 25.5658C177.985 24.9901 177.094 24.3959 176.167 23.564C176.082 23.4882 176.957 23.2889 176.141 22.918C174.818 22.3192 173.279 21.2749 171.562 21.0639C171.055 21.0048 170.701 21.9049 169.93 20.9129C169.768 20.7068 170.431 19.7021 168.914 20.2357C168.792 20.2789 168.165 20.4411 167.466 20.47C166.718 20.4989 165.884 20.3717 165.506 19.7717C165.322 19.4683 164.932 18.3369 164.309 18.2923C164.222 18.2894 164.379 18.8879 163.879 18.7795C162.12 18.3892 160.344 17.7723 158.537 17.3912C158.055 17.2909 158.597 18.0196 157.883 17.8538C155.917 17.3976 153.554 16.5619 151.708 15.8667C151.026 15.609 151.63 15.315 151.593 15.2539C150.989 14.2629 150.217 15.1573 149.93 15.1428C148.146 15.0384 146.992 14.2125 145.4 13.9381C144.961 13.8615 145.139 14.4329 145.042 14.4548C144.046 14.6575 144.933 13.9408 144.396 13.7002C142.891 13.0239 141.121 12.635 139.512 12.3301C138.92 12.219 139.446 12.9455 138.918 12.8398C135.791 12.2275 132.585 11.5111 129.619 10.6728C129.063 10.5147 129.496 10.1276 129.395 10.0051C129.048 9.58202 128.534 9.55939 128.077 9.65401C127.603 9.74924 127.188 9.96591 127.042 9.99217C125.724 10.2316 125.295 9.7679 124.176 9.69961C118.72 9.35588 112.055 8.75907 106.914 8.76136C103.116 8.7458 99.7845 8.8268 96.4265 9.08938C93.832 9.29647 91.2632 9.58046 88.5423 10.0931C88.1415 10.1687 88.6482 10.6946 88.3069 10.7674C84.3883 11.5819 80.625 12.3039 77.076 13.6774C76.5937 13.8625 76.1196 14.0489 75.6406 14.2426C75.2807 14.3872 76.0006 14.7357 75.4307 14.9855C74.261 15.5024 72.7427 16.0243 71.485 16.2978C70.8733 16.4317 71.4814 15.6801 70.8677 15.8251C69.437 16.1629 67.9678 16.68 66.6291 17.31C66.062 17.579 67.155 17.7745 66.4038 18.0813C61.2888 20.205 56.5712 22.4371 52.1941 24.7091C51.9099 24.8587 51.0097 24.1585 50.5599 24.6642C50.5362 24.6896 50.5134 24.7171 50.4913 24.7471C50.6482 25.0454 50.8957 25.3454 51.0956 25.6381C44.3824 31.2334 38.2562 35.2329 34.0476 41.5471C33.8693 41.8066 34.6951 41.7098 34.3553 42.2125C32.3868 45.1524 30.8979 48.3489 28.749 51.5767C28.5333 51.9086 27.6044 51.256 27.3009 52.3662C27.2412 52.5716 26.7163 54.1862 26.7686 54.7029C26.7794 54.7726 27.3777 54.6784 27.1813 55.1988C26.9593 55.785 26.7269 56.3892 26.4846 57.0106C25.5519 59.401 24.5809 61.837 23.6304 64.1721C23.4376 64.6456 23.0602 63.9692 22.9178 64.3083C21.9143 66.7101 21.6728 69.5235 20.793 71.789C20.2151 73.3058 19.3638 72.583 18.3228 73.3309C18.1713 73.4453 18.0619 74.4306 17.5198 74.449C16.1382 74.5198 14.674 73.8682 13.1977 73.9931C13.0387 74.001 13.0145 74.4495 12.9575 74.7773C12.9013 75.1256 12.7933 75.3359 12.4219 74.7374C12.3633 74.6345 12.1944 73.3504 11.9751 73.0362C11.8187 72.8109 11.226 73.1334 11.0444 72.6762C10.8641 72.2242 11.3836 71.8104 11.2159 71.1033C11.05 70.3949 10.3711 70.5832 10.5319 69.2292ZM164.951 80.3479C165.891 80.916 166.108 78.9789 165.052 79.4029C165 79.4257 164.902 80.3199 164.951 80.3479ZM49.0844 76.1597C50.318 77.0483 51.2414 75.8119 50.352 75.126C49.4645 74.4412 48.7106 75.8904 49.0844 76.1597ZM36.0717 76.5447C37.5588 77.2375 37.8124 74.4837 36.2161 75.0227C36.123 75.0532 35.9856 76.5045 36.0717 76.5447ZM18.7328 69.2162C18.7045 69.2202 18.5308 69.961 18.5545 69.9793C19.0834 70.4852 19.423 69.0344 18.7328 69.2162ZM23.1629 77.264C23.6492 77.6254 24.9285 77.1734 24.3583 76.7193C23.9015 76.353 22.5749 76.813 23.1629 77.264ZM214.68 82.7248C214.695 82.7543 215.236 82.63 215.173 82.4744C214.983 81.9879 214.337 82.3105 214.68 82.7248ZM1.45505 80.4635C4.5795 79.8645 7.09964 81.5142 3.57045 82.1556C2.93359 82.2648 4.74722 81.1155 3.90034 81.1147C2.37362 81.1095 1.6955 82.7239 0.0358954 82.2676C-0.251963 82.1841 1.28134 80.4964 1.45997 80.4592C1.45833 80.4606 1.45669 80.462 1.45505 80.4635ZM165.413 82.7029C165.432 82.7294 166.198 82.7838 166.217 82.759C166.656 82.1585 165.113 82.0487 165.413 82.7029ZM218.44 52.317C218.505 52.2648 218.06 50.4289 217.966 50.3876C216.762 49.8186 217.625 53.3049 218.44 52.317ZM113.615 81.9856C112.751 82.571 111.747 82.6025 111.111 81.7957C111.942 81.8716 112.779 81.9125 113.615 81.9856Z" fill="#171717" fill-opacity="0.75"/>
<path d="M43.5999 48.6711V59.1711H40.9181V35.8984H43.5999V44.4438H43.8272C44.2363 43.5423 44.8499 42.8264 45.6681 42.2961C46.4939 41.7582 47.5924 41.4893 48.9636 41.4893C50.153 41.4893 51.1946 41.7279 52.0886 42.2052C52.9825 42.6749 53.6757 43.3984 54.1681 44.3756C54.6681 45.3453 54.9181 46.5802 54.9181 48.0802V59.1711H52.2363V48.262C52.2363 46.8756 51.8764 45.8037 51.1567 45.0461C50.4446 44.2809 49.456 43.8984 48.1908 43.8984C47.312 43.8984 46.5242 44.084 45.8272 44.4552C45.1378 44.8264 44.5924 45.3681 44.1908 46.0802C43.7969 46.7923 43.5999 47.6559 43.5999 48.6711ZM64.9607 59.5802C63.8547 59.5802 62.8509 59.3719 61.9494 58.9552C61.0478 58.5309 60.3319 57.9211 59.8016 57.1256C59.2713 56.3226 59.0062 55.3529 59.0062 54.2166C59.0062 53.2166 59.2031 52.4059 59.5971 51.7847C59.991 51.1559 60.5175 50.6635 61.1766 50.3075C61.8357 49.9514 62.563 49.6862 63.3584 49.512C64.1615 49.3302 64.9683 49.1862 65.7789 49.0802C66.8395 48.9438 67.6994 48.8416 68.3584 48.7734C69.0251 48.6976 69.51 48.5726 69.813 48.3984C70.1236 48.2241 70.2789 47.9211 70.2789 47.4893V47.3984C70.2789 46.2772 69.9721 45.4059 69.3584 44.7847C68.7524 44.1635 67.8319 43.8529 66.5971 43.8529C65.3168 43.8529 64.313 44.1332 63.5857 44.6938C62.8584 45.2544 62.3471 45.8529 62.0516 46.4893L59.5062 45.5802C59.9607 44.5196 60.5668 43.6938 61.3244 43.1029C62.0895 42.5044 62.9228 42.0878 63.8244 41.8529C64.7334 41.6105 65.6274 41.4893 66.5062 41.4893C67.0668 41.4893 67.7107 41.5575 68.438 41.6938C69.1728 41.8226 69.8812 42.0916 70.563 42.5006C71.2524 42.9097 71.8244 43.5272 72.2789 44.3529C72.7334 45.1787 72.9607 46.2847 72.9607 47.6711V59.1711H70.2789V56.8075H70.1425C69.9607 57.1862 69.6577 57.5916 69.2334 58.0234C68.8092 58.4552 68.2448 58.8226 67.5403 59.1256C66.8357 59.4287 65.9759 59.5802 64.9607 59.5802ZM65.3698 57.1711C66.4304 57.1711 67.3244 56.9628 68.0516 56.5461C68.7865 56.1294 69.3395 55.5916 69.7107 54.9325C70.0895 54.2734 70.2789 53.5802 70.2789 52.8529V50.3984C70.1653 50.5347 69.9153 50.6597 69.5289 50.7734C69.1501 50.8794 68.7107 50.9741 68.2107 51.0575C67.7183 51.1332 67.2372 51.2014 66.7675 51.262C66.3054 51.315 65.9304 51.3605 65.6425 51.3984C64.9456 51.4893 64.2941 51.637 63.688 51.8416C63.0895 52.0385 62.6047 52.3378 62.2334 52.7393C61.8698 53.1332 61.688 53.6711 61.688 54.3529C61.688 55.2847 62.0327 55.9893 62.7221 56.4666C63.4191 56.9362 64.3016 57.1711 65.3698 57.1711ZM77.8556 59.1711V41.7166H80.4465V44.4438H80.6738C81.0374 43.512 81.6245 42.7885 82.4352 42.2734C83.2458 41.7506 84.2192 41.4893 85.3556 41.4893C86.5071 41.4893 87.4655 41.7506 88.2306 42.2734C89.0033 42.7885 89.6056 43.512 90.0374 44.4438H90.2192C90.6662 43.5423 91.3367 42.8264 92.2306 42.2961C93.1245 41.7582 94.1965 41.4893 95.4465 41.4893C97.0071 41.4893 98.2836 41.9779 99.2761 42.9552C100.268 43.9249 100.765 45.4362 100.765 47.4893V59.1711H98.0829V47.4893C98.0829 46.2014 97.7306 45.2809 97.0261 44.7279C96.3215 44.1749 95.492 43.8984 94.5374 43.8984C93.3102 43.8984 92.3594 44.2696 91.6852 45.012C91.0109 45.7469 90.6738 46.6787 90.6738 47.8075V59.1711H87.9465V47.2166C87.9465 46.2241 87.6245 45.4249 86.9806 44.8188C86.3367 44.2052 85.5071 43.8984 84.492 43.8984C83.795 43.8984 83.1435 44.084 82.5374 44.4552C81.9389 44.8264 81.4541 45.3416 81.0829 46.0006C80.7192 46.6522 80.5374 47.4059 80.5374 48.262V59.1711H77.8556ZM106.032 59.1711V35.8984H108.714V44.4893H108.941C109.138 44.1862 109.411 43.7999 109.759 43.3302C110.115 42.8529 110.623 42.4287 111.282 42.0575C111.948 41.6787 112.85 41.4893 113.986 41.4893C115.456 41.4893 116.751 41.8567 117.873 42.5916C118.994 43.3264 119.869 44.3681 120.498 45.7166C121.126 47.065 121.441 48.6559 121.441 50.4893C121.441 52.3378 121.126 53.94 120.498 55.2961C119.869 56.6446 118.998 57.69 117.884 58.4325C116.77 59.1673 115.486 59.5347 114.032 59.5347C112.911 59.5347 112.013 59.3491 111.339 58.9779C110.664 58.5991 110.145 58.1711 109.782 57.6938C109.418 57.209 109.138 56.8075 108.941 56.4893H108.623V59.1711H106.032ZM108.668 50.4438C108.668 51.762 108.861 52.9249 109.248 53.9325C109.634 54.9325 110.198 55.7166 110.941 56.2847C111.683 56.8453 112.592 57.1256 113.668 57.1256C114.789 57.1256 115.725 56.8302 116.475 56.2393C117.233 55.6408 117.801 54.8378 118.179 53.8302C118.566 52.815 118.759 51.6862 118.759 50.4438C118.759 49.2166 118.57 48.1105 118.191 47.1256C117.82 46.1332 117.255 45.3491 116.498 44.7734C115.748 44.19 114.804 43.8984 113.668 43.8984C112.577 43.8984 111.661 44.1749 110.918 44.7279C110.176 45.2734 109.615 46.0385 109.236 47.0234C108.858 48.0006 108.668 49.1408 108.668 50.4438ZM136.543 52.0347V41.7166H139.225V59.1711H136.543V56.2166H136.361C135.952 57.1029 135.316 57.8567 134.452 58.4779C133.589 59.0916 132.498 59.3984 131.179 59.3984C130.089 59.3984 129.119 59.1597 128.27 58.6825C127.422 58.1976 126.755 57.4703 126.27 56.5006C125.786 55.5234 125.543 54.2923 125.543 52.8075V41.7166H128.225V52.6256C128.225 53.8984 128.581 54.9135 129.293 55.6711C130.013 56.4287 130.929 56.8075 132.043 56.8075C132.71 56.8075 133.388 56.637 134.077 56.2961C134.774 55.9552 135.358 55.4325 135.827 54.7279C136.304 54.0234 136.543 53.1256 136.543 52.0347ZM144.137 59.1711V41.7166H146.728V44.3529H146.91C147.228 43.4893 147.804 42.7885 148.637 42.2506C149.47 41.7128 150.41 41.4438 151.455 41.4438C151.652 41.4438 151.898 41.4476 152.194 41.4552C152.489 41.4628 152.713 41.4741 152.864 41.4893V44.2166C152.773 44.1938 152.565 44.1597 152.239 44.1143C151.921 44.0612 151.584 44.0347 151.228 44.0347C150.379 44.0347 149.622 44.2128 148.955 44.5688C148.296 44.9173 147.773 45.4022 147.387 46.0234C147.008 46.637 146.819 47.3378 146.819 48.1256V59.1711H144.137ZM162.557 66.0802C161.262 66.0802 160.148 65.9135 159.216 65.5802C158.285 65.2544 157.508 64.8226 156.887 64.2847C156.273 63.7544 155.785 63.1862 155.421 62.5802L157.557 61.0802C157.8 61.3984 158.107 61.762 158.478 62.1711C158.849 62.5878 159.357 62.9476 160 63.2506C160.652 63.5612 161.504 63.7166 162.557 63.7166C163.966 63.7166 165.129 63.3756 166.046 62.6938C166.963 62.012 167.421 60.9438 167.421 59.4893V55.9438H167.194C166.997 56.262 166.716 56.6559 166.353 57.1256C165.997 57.5878 165.482 58.0006 164.807 58.3643C164.141 58.7203 163.239 58.8984 162.103 58.8984C160.694 58.8984 159.429 58.565 158.307 57.8984C157.194 57.2317 156.311 56.262 155.66 54.9893C155.016 53.7166 154.694 52.1711 154.694 50.3529C154.694 48.565 155.008 47.0082 155.637 45.6825C156.266 44.3491 157.141 43.3188 158.262 42.5916C159.383 41.8567 160.679 41.4893 162.148 41.4893C163.285 41.4893 164.186 41.6787 164.853 42.0575C165.527 42.4287 166.042 42.8529 166.398 43.3302C166.762 43.7999 167.042 44.1862 167.239 44.4893H167.512V41.7166H170.103V59.6711C170.103 61.1711 169.762 62.3908 169.08 63.3302C168.406 64.2772 167.497 64.9703 166.353 65.4097C165.216 65.8567 163.951 66.0802 162.557 66.0802ZM162.466 56.4893C163.542 56.4893 164.451 56.2431 165.194 55.7506C165.936 55.2582 166.5 54.5499 166.887 53.6256C167.273 52.7014 167.466 51.5953 167.466 50.3075C167.466 49.0499 167.277 47.94 166.898 46.9779C166.519 46.0158 165.959 45.262 165.216 44.7166C164.474 44.1711 163.557 43.8984 162.466 43.8984C161.33 43.8984 160.383 44.1862 159.625 44.762C158.875 45.3378 158.311 46.1105 157.932 47.0802C157.561 48.0499 157.375 49.1256 157.375 50.3075C157.375 51.5196 157.565 52.5916 157.944 53.5234C158.33 54.4476 158.898 55.1749 159.648 55.7052C160.406 56.2279 161.345 56.4893 162.466 56.4893ZM182.33 59.5347C180.648 59.5347 179.197 59.1635 177.978 58.4211C176.766 57.6711 175.83 56.6256 175.171 55.2847C174.519 53.9362 174.194 52.3681 174.194 50.5802C174.194 48.7923 174.519 47.2166 175.171 45.8529C175.83 44.4817 176.747 43.4135 177.921 42.6484C179.103 41.8756 180.482 41.4893 182.057 41.4893C182.966 41.4893 183.864 41.6408 184.75 41.9438C185.637 42.2469 186.444 42.7393 187.171 43.4211C187.898 44.0953 188.478 44.9893 188.91 46.1029C189.341 47.2166 189.557 48.5878 189.557 50.2166V51.3529H176.103V49.0347H186.83C186.83 48.0499 186.633 47.1711 186.239 46.3984C185.853 45.6256 185.3 45.0158 184.58 44.5688C183.868 44.1219 183.027 43.8984 182.057 43.8984C180.989 43.8984 180.065 44.1635 179.285 44.6938C178.512 45.2166 177.917 45.8984 177.5 46.7393C177.084 47.5802 176.875 48.4817 176.875 49.4438V50.9893C176.875 52.3075 177.103 53.4249 177.557 54.3416C178.019 55.2506 178.66 55.9438 179.478 56.4211C180.296 56.8908 181.247 57.1256 182.33 57.1256C183.035 57.1256 183.671 57.0272 184.239 56.8302C184.815 56.6256 185.311 56.3226 185.728 55.9211C186.144 55.512 186.466 55.0044 186.694 54.3984L189.285 55.1256C189.012 56.0044 188.554 56.7772 187.91 57.4438C187.266 58.1029 186.47 58.6181 185.523 58.9893C184.576 59.3529 183.512 59.5347 182.33 59.5347ZM193.637 59.1711V41.7166H196.228V44.3529H196.41C196.728 43.4893 197.304 42.7885 198.137 42.2506C198.97 41.7128 199.91 41.4438 200.955 41.4438C201.152 41.4438 201.398 41.4476 201.694 41.4552C201.989 41.4628 202.213 41.4741 202.364 41.4893V44.2166C202.273 44.1938 202.065 44.1597 201.739 44.1143C201.421 44.0612 201.084 44.0347 200.728 44.0347C199.879 44.0347 199.122 44.2128 198.455 44.5688C197.796 44.9173 197.273 45.4022 196.887 46.0234C196.508 46.637 196.319 47.3378 196.319 48.1256V59.1711H193.637Z" fill="black"/>
</svg>
