<svg width="388" height="275" viewBox="0 0 388 275" fill="none" xmlns="http://www.w3.org/2000/svg">
<path d="M12.9339 0.00121461C13.1032 0.00192919 12.9222 0.00286588 12.6736 0.00357775C12.5966 0.00380085 12.252 0.00368788 12.1833 0.00384189C12.0493 0.0041431 12.2183 0.00442372 12.0587 0.00472138C12.0041 0.00482002 11.4584 0.00469723 11.4136 0.00480067C11.1724 0.00536749 11.3115 0.00590372 11.1954 0.00647792C10.623 0.00930623 10.4182 0.0120864 10.1695 0.0149493C10.088 0.0158933 9.59266 0.0170408 9.80927 0.0180158C9.83505 0.0181297 10.3141 0.0180618 10.3536 0.0180835C10.958 0.0184231 9.99093 0.0183102 9.86243 0.018532C9.3551 0.0194122 9.31098 0.020391 9.49586 0.021238C9.57592 0.0215984 10.5274 0.0212371 9.99335 0.0216C9.95727 0.0216251 9.44855 0.0215337 9.3943 0.0216325C9.27226 0.0218567 9.36319 0.0222819 9.32288 0.0224556C9.24263 0.0227904 9.24775 0.0228458 9.24195 0.0231624C9.2296 0.0235953 8.97672 0.0241101 9.09199 0.0245745C9.11811 0.0246737 9.6396 0.0245424 9.72834 0.0247005C9.81694 0.0248588 9.77272 0.0252774 9.64979 0.0254185C9.52679 0.0255597 9.11691 0.0254996 9.02296 0.0255246C8.22998 0.0257301 9.32826 0.0262143 9.35542 0.0262766C9.81821 0.0274126 9.19256 0.0283868 9.19435 0.0294531C9.19703 0.0302626 9.40358 0.0311282 9.37525 0.0318984C9.33949 0.0328161 9.0569 0.0335938 9.10548 0.0344853C9.11 0.0345794 9.72316 0.0344692 9.72993 0.0345841C9.80128 0.0358049 9.73444 0.0370173 9.3205 0.0382329C9.27845 0.0383548 8.74011 0.0381977 8.6659 0.0383195C8.22348 0.0390652 7.16068 0.0402451 9.50459 0.040688C9.41306 0.0411931 9.3185 0.0418063 8.84602 0.0422582C8.54192 0.0425496 7.95545 0.0422666 8.2057 0.0426245C8.26146 0.0427052 8.77506 0.0426002 8.81983 0.0427213C9.00786 0.043231 8.8409 0.0437878 9.10627 0.044292C9.16146 0.0443946 9.62166 0.0443666 9.70454 0.0443956C10.3757 0.0446398 9.26623 0.0450464 9.18562 0.045135C8.58445 0.0458099 8.82102 0.0463027 8.80635 0.0469314C8.80268 0.0470773 9.42084 0.0469049 9.43952 0.0470453C9.52812 0.0477734 9.47499 0.0485276 9.20069 0.0492406C9.13819 0.0493992 8.61163 0.0492533 8.55482 0.0493291C8.31074 0.0496633 9.30529 0.0497373 9.0904 0.0500578C9.04638 0.0501254 8.5956 0.0500873 8.54609 0.0500996C7.76894 0.0502925 8.87011 0.0504601 8.89442 0.0505097C9.2266 0.0511373 8.07704 0.0515384 8.23982 0.0521446C8.26045 0.0522172 8.83082 0.0520536 8.85395 0.0522575C9.01141 0.0536157 8.85472 0.0550522 8.39851 0.0563966C8.32835 0.0566057 7.89988 0.0564565 7.84706 0.0564696C7.02177 0.056684 8.12756 0.0568227 8.1692 0.0568909C8.46897 0.0574286 7.54164 0.0579309 8.85871 0.0582962C8.40164 0.0605734 9.14125 0.0628402 7.96132 0.0650986C7.94765 0.0651273 7.40305 0.0650759 7.37813 0.0651331C7.07234 0.0658229 7.91875 0.0656905 8.95393 0.0661469C9.21387 0.0662619 7.96406 0.0666116 7.87245 0.0666426C7.53486 0.0667553 6.72464 0.0666384 6.65926 0.0666761C6.14587 0.0669886 8.82532 0.0669376 8.82618 0.0673591C8.82171 0.0673723 8.32853 0.0673169 8.27949 0.0673523C8.12554 0.0674622 8.32151 0.0675712 8.15175 0.0676787C7.75891 0.0679248 6.45693 0.0680125 7.21468 0.0683884C7.31302 0.068436 8.83292 0.0683633 8.76112 0.0687396C8.73121 0.0688897 8.75726 0.0695537 8.65876 0.0697398C8.56039 0.0699256 8.0706 0.069798 8.04939 0.0698113C7.40173 0.0703121 7.13331 0.0701222 6.17446 0.0703731C5.21922 0.070624 7.49755 0.0705544 7.75184 0.0706567C8.00542 0.0707592 7.47106 0.0711264 7.28529 0.0712166C7.09945 0.0713068 6.78823 0.0711943 6.68306 0.0712745C5.99596 0.0718062 7.81394 0.0715079 8.17555 0.0716831C9.03177 0.0720962 7.34215 0.0724179 7.17659 0.0727961C7.13188 0.0728984 7.5167 0.0728149 7.55269 0.072906C7.69012 0.0732669 7.16292 0.0734839 7.64632 0.0738945C7.72509 0.0739616 8.74093 0.0742935 7.99544 0.0745084C7.88794 0.0745388 7.46689 0.0744523 7.37257 0.0746061C7.23103 0.0748359 7.139 0.0752498 7.27974 0.0754968C7.38387 0.0756791 8.07766 0.0754702 7.86213 0.0756996C7.7659 0.0758017 7.36003 0.0756126 7.21309 0.0758042C7.06619 0.0759948 7.08402 0.0764822 7.09804 0.0766677C7.11236 0.0768528 7.63863 0.0767515 7.67409 0.0767664C7.87718 0.076857 8.13095 0.0772122 8.13032 0.0772436C8.19457 0.0788272 7.30748 0.0802875 7.60109 0.0818293C7.62337 0.0819503 8.17833 0.0818697 8.18745 0.0818882C8.41997 0.0823024 6.94446 0.0819758 6.45058 0.0822652C7.57676 0.0822233 7.37284 0.0823942 7.49635 0.0826859C7.55678 0.0828265 7.99285 0.08275 8.03749 0.0827628C8.69982 0.0829713 7.84433 0.0831165 7.66933 0.0831539C7.02556 0.083292 7.78621 0.0834423 7.35591 0.0835362C6.92883 0.0836301 6.29568 0.083414 6.30379 0.0836939C6.70692 0.0837723 7.76042 0.0835646 7.93117 0.083777C8.577 0.0845786 7.75043 0.086075 7.66456 0.0867195C7.57878 0.0873628 7.65315 0.0875705 7.50746 0.0879453C7.24403 0.0886224 8.02566 0.0883743 8.38343 0.0887947C8.74117 0.0892163 6.81799 0.0890113 6.40456 0.089072C5.99131 0.0891315 6.41671 0.0891964 6.18953 0.0892704C5.96241 0.0893442 5.68131 0.0891845 5.59603 0.089358C5.51083 0.0895316 6.24601 0.0900062 6.6783 0.0900677C7.59413 0.0901978 8.55534 0.0899839 8.2176 0.0904432C8.19756 0.0904697 7.69187 0.0903839 7.64076 0.0904851C7.25146 0.0912885 7.22733 0.0921231 6.88301 0.0929256C6.83488 0.0930359 6.27231 0.0929372 6.23793 0.0930014C5.87811 0.0936703 6.82666 0.0934312 7.88038 0.0937977C6.4781 0.0937155 5.62018 0.0939181 5.6119 0.0944257C5.60643 0.0947309 6.21888 0.0946783 6.65053 0.0948757C6.78065 0.0949349 6.36012 0.0951508 6.64815 0.0951899C7.58966 0.095319 8.64363 0.0951156 8.22395 0.0956389C8.20401 0.0956619 7.68864 0.0955888 7.65742 0.0956681C7.45313 0.0961809 8.43794 0.0962423 8.5572 0.0967967C8.65078 0.0972312 8.05026 0.098004 7.95259 0.0984987C6.37602 0.0984883 6.73703 0.0989556 7.82405 0.0991452C7.77955 0.0994663 7.841 0.0998131 7.69075 0.100123C7.63952 0.10023 7.18306 0.10016 7.13374 0.100174C6.36005 0.10038 7.4176 0.10052 7.45906 0.100589C7.86209 0.10134 7.06055 0.101952 7.84389 0.102669C7.8721 0.102694 8.96723 0.102736 8.16761 0.102927C8.1125 0.10294 7.61423 0.102703 7.5757 0.10304C7.53708 0.103377 6.95001 0.104013 7.45747 0.104481C7.57964 0.104595 8.46867 0.104881 7.77406 0.105111C7.67974 0.105142 7.36565 0.105109 7.19087 0.105153C6.63396 0.105296 7.74087 0.105374 6.80049 0.105542C5.86016 0.10571 5.15592 0.10606 5.80471 0.106532C5.82357 0.106547 6.7009 0.106659 6.68703 0.106807C6.66413 0.107044 6.48136 0.107381 6.48708 0.107628C6.49013 0.107747 7.03491 0.107671 7.04488 0.107692C7.35015 0.108488 6.86448 0.109056 6.6537 0.109909C6.61399 0.110066 7.35688 0.110515 6.76955 0.110818C6.12661 0.111151 3.45207 0.110809 4.08926 0.111574C4.34412 0.111882 7.73726 0.112273 5.97927 0.112827C6.41489 0.113902 5.51515 0.114896 6.13716 0.115974C6.16472 0.116022 7.11172 0.116175 7.09883 0.116289C7.07786 0.116459 6.63525 0.116551 6.6061 0.116672C6.47277 0.117178 6.85146 0.117642 6.79256 0.11813C6.77116 0.118315 6.3135 0.11825 6.28792 0.118471C6.26277 0.118692 6.86542 0.118839 6.57436 0.119138C6.3525 0.119364 5.12071 0.119591 4.97713 0.119891C6.19216 0.119902 6.16713 0.120108 6.48787 0.120474C6.5501 0.120545 6.973 0.120469 7.02425 0.120502C7.24221 0.120638 6.89172 0.120763 7.12898 0.120892C7.18597 0.120923 7.60091 0.120925 7.67091 0.12095C8.28199 0.121168 7.34862 0.121527 7.18611 0.121588C6.56892 0.121824 7.1086 0.121934 6.86556 0.122116C6.62254 0.122296 6.31875 0.122026 6.17128 0.122237C5.86626 0.122675 5.93327 0.123237 5.9142 0.123681C5.90916 0.123859 6.46304 0.123738 6.47518 0.123763C6.61566 0.12413 6.02649 0.124501 7.12978 0.124704C4.27708 0.124958 7.40647 0.124925 6.8354 0.125449C6.78922 0.12549 5.4402 0.125543 5.24215 0.125384C5.04429 0.125226 5.46597 0.124986 5.15725 0.124766C5.0848 0.124714 3.82068 0.124415 3.74411 0.124375C3.14565 0.124056 5.16158 0.124011 5.2723 0.123994C6.4672 0.123802 5.10535 0.123438 5.01125 0.123342C4.58007 0.122903 4.86358 0.12253 4.55581 0.122162C4.3569 0.121922 3.03639 0.121898 3.07681 0.12171C3.21041 0.121083 5.05252 0.120864 3.45529 0.120273C3.11463 0.120146 1.67136 0.120272 2.80624 0.119818C2.87779 0.11979 3.916 0.119452 3.25931 0.119258C3.17651 0.119233 2.75588 0.119234 2.72055 0.119202C2.49199 0.118986 2.82708 0.118841 2.66659 0.118606C2.50611 0.11837 2.26685 0.118087 2.40952 0.117818C2.49482 0.117656 3.2785 0.117448 3.47036 0.117371C4.02307 0.117152 3.11686 0.116917 3.78616 0.116781C4.45882 0.116644 5.48037 0.116912 5.915 0.116553C4.82219 0.11654 3.70054 0.116509 2.60153 0.116488C2.64001 0.115702 2.99338 0.114928 2.9451 0.114139C2.93802 0.114041 2.35052 0.114141 2.32779 0.114036C2.23446 0.113594 2.65326 0.113207 2.48648 0.112749C2.35513 0.112393 1.7331 0.112004 1.57639 0.111633C2.82687 0.111406 2.40236 0.110855 2.51663 0.110454C2.55612 0.110314 2.8901 0.110324 2.99905 0.110224C3.40202 0.109848 2.29698 0.110024 2.12308 0.109921C1.38089 0.109478 3.88208 0.10944 3.82028 0.108919C3.81785 0.108891 2.48461 0.108553 2.40158 0.108507C1.86019 0.108211 2.86563 0.108458 2.96414 0.108273C3.14416 0.107935 3.46256 0.1077 3.07205 0.107304C2.95638 0.107188 2.12539 0.106911 2.76816 0.106687C2.85232 0.106657 3.29301 0.106673 3.31881 0.10665C3.74901 0.106219 2.36432 0.106208 1.89536 0.105962C1.4265 0.105716 2.38237 0.105337 2.65787 0.105259C3.37055 0.105057 2.96244 0.105414 3.03238 0.105425C3.86468 0.105554 3.72139 0.105277 3.79171 0.105065C5.14942 0.105035 5.06792 0.104739 3.85916 0.104846C3.72713 0.104858 3.85374 0.105023 3.79171 0.105065C2.45962 0.104879 2.28902 0.104554 3.53384 0.104195C4.11727 0.104027 4.79752 0.104186 4.54867 0.103675C4.43633 0.103443 3.50148 0.103533 3.24661 0.103328C2.66509 0.102861 3.53715 0.102253 3.39975 0.101772C3.34986 0.101597 2.83813 0.101767 2.78641 0.101647C2.64753 0.10133 3.0315 0.101051 2.83481 0.100732C2.81634 0.100703 2.28066 0.100774 2.27383 0.100675C2.21162 0.0999236 2.55473 0.0992697 2.56424 0.0984856C2.56859 0.0981067 2.27315 0.0974294 2.33255 0.097037C2.43234 0.0963568 3.21129 0.09552 3.02206 0.0949389C2.90093 0.09456 2.36515 0.0946431 2.00009 0.0944807C1.29247 0.0941673 2.55999 0.0936127 2.75626 0.093538C2.76275 0.0935357 2.88906 0.0938618 3.16409 0.0936878C3.73717 0.0935866 2.75874 0.0935417 2.75626 0.093538C2.88305 0.0934889 3.00467 0.0928375 2.90225 0.0927081C2.84628 0.0926378 2.33865 0.0926771 2.31906 0.0926405C1.86478 0.0917694 1.73576 0.0908967 1.97312 0.0900132C1.98337 0.0899977 2.55118 0.0900211 2.56821 0.0899845C2.82067 0.089473 2.12606 0.0891455 1.71366 0.0887237C1.30144 0.0883019 1.4395 0.0879674 2.41428 0.0877177C2.29154 0.0873994 2.72249 0.0869429 2.98398 0.0866801C3.24546 0.0864174 2.14017 0.0863807 2.11832 0.0863576C1.41895 0.0856366 2.0516 0.0852197 2.15006 0.0844717C2.19876 0.084116 2.03844 0.0834106 1.91757 0.0830255C1.8202 0.0827212 2.07923 0.0825378 1.91361 0.0822574C1.89149 0.0822195 1.39935 0.0822578 1.38041 0.0822462C0.791597 0.0819332 1.99469 0.0820836 2.20957 0.082019C2.99094 0.0817848 3.4071 0.08164 3.03952 0.0812393C2.95534 0.0811468 1.22305 0.0808775 1.12174 0.080709C0.993201 0.08049 1.61412 0.0805726 1.46372 0.0803432C1.45142 0.0803236 1.06835 0.0803277 1.08524 0.0801861C1.1586 0.0795289 1.3815 0.0788124 1.34311 0.0781294C1.33934 0.0780361 0.731739 0.0781558 0.716284 0.078021C0.644261 0.0773885 0.666747 0.0766952 0.951146 0.0760791C1.02306 0.0759274 1.44848 0.0760225 1.5748 0.0759896C2.3391 0.0757874 1.22859 0.0755008 1.20743 0.0754535C0.673773 0.0743254 1.67877 0.0734619 1.20029 0.0723121C1.1722 0.0722495 -0.01829 0.0717677 1.00272 0.0715527C1.07065 0.071538 2.11525 0.0713253 1.40103 0.0711373C1.35635 0.0711256 0.818577 0.0712581 0.873388 0.0710269C0.928079 0.0707956 0.568956 0.0704235 1.15982 0.0701056C1.34596 0.0700049 2.38798 0.0697671 1.55735 0.0694669C1.49936 0.0694473 -0.378822 0.0689839 0.917028 0.0688184C1.13034 0.0687916 2.50164 0.0688197 1.79856 0.0684614C1.66225 0.0683929 1.35638 0.0685172 1.16538 0.0683369C0.87101 0.0680605 1.23829 0.0676944 0.627417 0.0673547C0.51927 0.0672955 -0.411488 0.0670433 0.294959 0.066841C0.405601 0.0668094 0.863413 0.0668696 0.914647 0.0667627C1.16041 0.0662548 0.854178 0.0657229 1.17093 0.0652071C1.28224 0.0650244 2.02234 0.0651178 2.22067 0.0649274C2.41894 0.0647369 2.60966 0.0643532 2.27145 0.0641539C1.9331 0.0639546 0.753544 0.0641723 0.659155 0.0638738C0.249216 0.0625756 0.941174 0.0612896 1.04239 0.0599934C1.05751 0.0598011 0.63543 0.0599605 0.627417 0.0596772C0.596016 0.0586327 0.20027 0.0568292 1.09714 0.0559228C1.81549 0.0551966 2.36237 0.0561105 2.65469 0.0555556C2.79414 0.0552878 1.42279 0.0549981 1.37961 0.0549334C0.941056 0.0543019 1.54854 0.053863 1.36216 0.0532946C1.32348 0.0531772 0.767657 0.0532923 0.740881 0.0531924C0.644489 0.0528512 0.892583 0.0524926 0.847204 0.0521665C0.825567 0.0520203 0.401049 0.0520472 0.433814 0.0519126C0.507322 0.0515905 0.685769 0.0513058 1.08365 0.0509918C1.11991 0.0509632 1.64799 0.0511561 1.66764 0.0509178C1.69792 0.0505322 2.09043 0.0500535 1.68509 0.0496098C1.56316 0.0494781 0.59293 0.049473 1.26297 0.04919C1.40292 0.0491306 2.56795 0.0492064 1.56131 0.0488767C1.39403 0.0488213 0.0362664 0.0482675 0.911473 0.0479958C1.14182 0.0479241 2.09517 0.0477411 1.94534 0.0475828C1.92144 0.0475613 1.40029 0.0476473 1.34946 0.0475161C1.17938 0.0470538 1.23498 0.0465693 1.07175 0.0460943C1.02713 0.0459674 0.487853 0.0461563 0.438575 0.0459673C0.302267 0.0454475 0.439577 0.0447984 0.608374 0.0442901C0.67163 0.0441026 1.11835 0.0442322 1.16697 0.0442186C1.95769 0.0439992 0.890394 0.0438696 0.828161 0.0437968C0.455513 0.0433441 0.956866 0.0429994 0.824193 0.0425822C0.788933 0.042467 0.280034 0.0425487 0.234657 0.0425257C-0.208712 0.042288 0.705204 0.0424651 0.805944 0.0423146C1.09119 0.0418931 1.05029 0.0414232 0.985265 0.0409968C0.960631 0.0408403 0.370551 0.0410163 0.355262 0.0408757C0.253581 0.040044 0.310045 0.0391793 0.635351 0.0383676C0.697674 0.0382148 1.15205 0.0383109 1.25583 0.0382791C1.98191 0.0380595 0.991532 0.0377378 0.897191 0.0376637C0.466432 0.0373271 0.868248 0.0371963 0.793249 0.0368991C0.419836 0.0354468 0.685964 0.0336536 0.850377 0.0322827C1.06198 0.0304963 1.49424 0.0291101 1.38199 0.0274066C1.37543 0.0272983 0.770963 0.0274075 0.757543 0.0273142C0.611826 0.0261092 0.848026 0.0249229 0.673437 0.0237155C0.660182 0.0236164 0.0871456 0.0237592 0.046608 0.0236002C-0.0405582 0.023274 -0.00941159 0.0228608 0.173561 0.022531C0.261721 0.0223701 0.753437 0.0225859 0.832128 0.022424C1.01648 0.022047 1.05729 0.0216428 0.965428 0.0212556C0.925086 0.0210908 0.339016 0.0213394 0.332252 0.0211252C0.274109 0.019666 0.173172 0.018233 0.932103 0.0167584C0.984226 0.0166573 2.17535 0.0165686 1.94693 0.0163537C1.61636 0.0163375 1.22751 0.0163384 0.874181 0.0163313C0.683849 0.0142071 1.09677 0.0121046 1.16062 0.00997447C1.16317 0.00988466 0.532056 0.0100399 0.533789 0.00986599C0.54312 0.00885962 0.368281 0.00788237 0.99558 0.00685297C1.05693 0.00675083 2.16722 0.00680323 1.9993 0.00650224C1.96866 0.00644916 1.82058 0.00599583 1.57956 0.00587862C1.54321 0.0058627 1.02497 0.00594541 1.00986 0.00579933C0.931165 0.00495043 1.04948 0.00406083 1.36612 0.0032134C1.41822 0.00307664 1.9701 0.00322229 2.01199 0.00312487C2.30496 0.00243387 1.88543 0.00168226 2.38651 0.00102198C2.7239 0.000580012 3.67787 0.000743642 4.61691 0.000508785C4.74939 0.000475567 4.77038 0.000201886 5.31673 0.000187733C6.69058 0.000151398 8.19493 0.000283961 9.65931 0.000229567C9.97473 0.000218075 9.635 -0.000148454 10.3972 6.85547e-05C10.4482 8.3715e-05 10.7012 0.000349451 10.9598 0.000414902C11.1386 0.000460471 11.6942 0.000378354 11.923 0.000471329C12.1517 0.000564297 11.6859 0.000666456 11.9548 0.000820595C12.227 0.000974665 12.8591 0.000906919 12.9339 0.00121461ZM4.15274 0.0854971C4.68354 0.0852538 2.73942 0.0852179 3.20456 0.085481C3.22935 0.0854938 4.1267 0.0855096 4.15274 0.0854971ZM4.4598 0.114932C5.31729 0.114614 4.05644 0.114397 3.39419 0.114621C2.73266 0.114845 4.19986 0.115029 4.4598 0.114932ZM5.08584 0.11823C5.76193 0.117859 3.0051 0.1178 3.5624 0.118198C3.5939 0.118221 5.04658 0.118252 5.08584 0.11823ZM4.8843 0.00159793C4.91012 0.00159457 4.93528 0.00139784 4.90969 0.00139314C4.29224 0.00128838 4.24236 0.00168177 4.8843 0.00159793ZM5.76742 0.121503C6.14034 0.121387 5.70984 0.121053 5.24612 0.121197C4.87306 0.121313 5.30352 0.121648 5.76742 0.121503ZM6.22762 0.0728063C6.25659 0.0728025 6.28268 0.0726614 6.11892 0.0726643C5.59148 0.0726738 5.74034 0.0728701 6.22762 0.0728063ZM5.79915 0.127066C5.90292 0.126244 8.1802 0.125745 7.92323 0.12664C7.87674 0.126802 7.19703 0.126291 6.99172 0.126497C6.61767 0.126875 8.04753 0.127125 7.28133 0.127511C7.14109 0.12758 5.78817 0.127112 5.79598 0.127064C5.79704 0.127065 5.7981 0.127065 5.79915 0.127066ZM6.48787 0.085357C6.51358 0.0853521 6.53796 0.0851569 6.51247 0.0851522C5.89527 0.0850465 5.8458 0.0854398 6.48787 0.085357ZM7.4297 0.0645762C7.48448 0.0645654 7.53572 0.0641123 7.48524 0.0640975C6.47595 0.0638611 6.36938 0.0647772 7.4297 0.0645762ZM7.91054 0.0985065C8.53144 0.0987195 8.60455 0.0989744 7.82484 0.0991442C7.86623 0.0989325 7.87233 0.0987194 7.91054 0.0985065Z" fill="#171717" fill-opacity="0.75"/>
<path d="M189.151 234.97V211.698H197.288C198.909 211.698 200.246 211.978 201.299 212.539C202.352 213.092 203.136 213.838 203.651 214.777C204.167 215.709 204.424 216.743 204.424 217.879C204.424 218.879 204.246 219.705 203.89 220.357C203.542 221.008 203.08 221.523 202.504 221.902C201.936 222.281 201.318 222.561 200.651 222.743V222.97C201.364 223.016 202.08 223.266 202.799 223.72C203.519 224.175 204.121 224.826 204.606 225.675C205.091 226.523 205.333 227.561 205.333 228.789C205.333 229.955 205.068 231.004 204.538 231.936C204.008 232.868 203.17 233.607 202.026 234.152C200.883 234.698 199.394 234.97 197.561 234.97H189.151ZM191.97 232.47H197.561C199.401 232.47 200.708 232.114 201.481 231.402C202.261 230.683 202.651 229.811 202.651 228.789C202.651 228.001 202.451 227.273 202.049 226.607C201.648 225.933 201.076 225.395 200.333 224.993C199.591 224.584 198.712 224.379 197.697 224.379H191.97V232.47ZM191.97 221.925H197.197C198.045 221.925 198.811 221.758 199.492 221.425C200.182 221.092 200.727 220.622 201.129 220.016C201.538 219.41 201.742 218.698 201.742 217.879C201.742 216.857 201.386 215.989 200.674 215.277C199.962 214.558 198.833 214.198 197.288 214.198H191.97V221.925ZM220.6 227.834V217.516H223.282V234.97H220.6V232.016H220.419C220.009 232.902 219.373 233.656 218.509 234.277C217.646 234.891 216.555 235.198 215.237 235.198C214.146 235.198 213.176 234.959 212.328 234.482C211.479 233.997 210.812 233.27 210.328 232.3C209.843 231.323 209.6 230.092 209.6 228.607V217.516H212.282V228.425C212.282 229.698 212.638 230.713 213.35 231.47C214.07 232.228 214.987 232.607 216.1 232.607C216.767 232.607 217.445 232.436 218.134 232.095C218.831 231.754 219.415 231.232 219.884 230.527C220.362 229.823 220.6 228.925 220.6 227.834ZM230.876 224.47V234.97H228.194V217.516H230.785V220.243H231.012C231.421 219.357 232.043 218.645 232.876 218.107C233.709 217.561 234.785 217.289 236.103 217.289C237.285 217.289 238.319 217.531 239.205 218.016C240.092 218.493 240.781 219.22 241.274 220.198C241.766 221.167 242.012 222.395 242.012 223.879V234.97H239.33V224.061C239.33 222.69 238.974 221.622 238.262 220.857C237.55 220.084 236.573 219.698 235.33 219.698C234.474 219.698 233.709 219.883 233.035 220.254C232.368 220.626 231.842 221.167 231.455 221.879C231.069 222.592 230.876 223.455 230.876 224.47ZM263.14 235.289C261.807 235.289 260.606 235.023 259.538 234.493C258.47 233.963 257.614 233.236 256.97 232.311C256.326 231.387 255.973 230.334 255.913 229.152H258.64C258.746 230.205 259.223 231.076 260.072 231.766C260.928 232.448 261.951 232.789 263.14 232.789C264.095 232.789 264.943 232.565 265.686 232.118C266.436 231.671 267.023 231.058 267.447 230.277C267.879 229.489 268.095 228.599 268.095 227.607C268.095 226.592 267.871 225.686 267.424 224.891C266.985 224.088 266.379 223.455 265.606 222.993C264.833 222.531 263.951 222.296 262.958 222.289C262.246 222.281 261.515 222.391 260.765 222.618C260.015 222.838 259.398 223.122 258.913 223.47L256.276 223.152L257.686 211.698H269.776V214.198H260.049L259.231 221.061H259.367C259.845 220.683 260.443 220.368 261.163 220.118C261.883 219.868 262.633 219.743 263.413 219.743C264.837 219.743 266.106 220.084 267.22 220.766C268.341 221.44 269.22 222.364 269.856 223.539C270.5 224.713 270.822 226.054 270.822 227.561C270.822 229.046 270.489 230.372 269.822 231.539C269.163 232.698 268.254 233.614 267.095 234.289C265.936 234.955 264.617 235.289 263.14 235.289Z" fill="black"/>
<path d="M110.807 176.097C115.002 175.977 120.538 176.098 124.715 176.267C126.012 176.32 125.349 176.559 126.262 176.606C126.415 176.613 126.568 176.62 126.721 176.625C128.295 176.679 129.837 176.588 131.434 176.687C132.009 176.724 131.292 177.103 131.898 177.133C135.231 177.295 138.382 177.189 141.755 177.25C158.393 177.551 174.692 177.383 191.506 176.855C197.041 176.683 203.79 176.691 209.497 176.199C210.164 176.141 209.745 175.834 209.871 175.799C211.831 175.262 211.212 175.97 212.517 175.978C217.695 176.006 223.432 175.625 228.376 175.091C228.575 175.069 228.736 175.045 228.866 175.02C230.108 174.776 228.516 174.399 230.464 174.572C230.613 174.584 230.108 174.98 230.69 174.969C232.007 174.943 234.489 174.66 235.506 174.595C237.466 174.471 237.793 174.437 239.642 174.264C242.173 174.03 245.201 173.901 247.902 173.536C248.48 173.457 247.674 173.179 248.592 173.02C249.512 172.862 251.952 172.628 252.789 172.62C253.623 172.614 253.303 172.934 253.456 172.983C254.716 173.396 257.46 172.318 257.82 172.257C264.404 171.173 270.143 170.894 276.355 170.083C281.072 169.465 286.093 168.639 290.58 168.033C295.924 167.313 300.475 166.858 305.666 166.072C306.215 165.989 305.51 165.663 306.18 165.561C313.269 164.483 320.344 163.482 327.471 162.75C328.183 162.677 327.325 163.177 328.038 163.126C330.475 162.949 333.691 162.799 336.482 162.379C338.763 162.036 340.716 161.525 341.795 160.657C344.76 160.339 348.37 159.973 351.06 160.016C352.781 160.046 351.181 160.62 353.255 160.233C353.722 160.148 353.065 159.856 353.783 159.754C356.781 159.328 360.08 159.173 363.066 158.848C363.68 158.782 363.5 158.471 363.672 158.406C365.117 157.871 367.594 158.609 368.123 158.676C372.19 159.17 375.208 159.105 379.093 160.473C379.989 160.831 379.085 160.002 379.961 160.352C380.197 160.452 380.435 160.56 380.664 160.671C385.56 162.977 386.966 168.659 387.063 172.69C387.092 173.675 386.664 172.8 386.656 173.267C386.593 175.315 387.267 175.764 387.057 177.716C387.009 178.126 386.707 177.88 386.67 177.953C386.08 179.084 386.758 180.138 386.75 180.434C386.645 184.233 385.499 186.474 385.045 190.029C384.99 190.455 385.537 189.563 385.356 190.757C384.613 195.638 383.634 200.621 382.684 205.529C382.073 208.682 381.294 211.759 380.438 214.721C380.091 215.912 380.017 214.981 379.963 215.048C379.102 216.137 379.635 217.118 379.56 217.517C378.95 220.652 377.508 223.322 377.764 225.649C376.227 230.389 374.687 235.109 373.098 239.794C370.242 247.629 367.453 256.24 360.039 261.596C359.991 261.626 359.942 261.657 359.892 261.688C359.734 261.784 359.791 261.29 359.482 261.477C355.49 263.177 356.379 263.055 353.807 264.415C353.149 264.727 350.963 264.199 350.757 264.162C350.077 264.027 350.663 263.372 350.441 263.36C348.567 263.272 349.133 265.07 346.65 265.389C346.573 265.395 346.854 265.016 346.643 265.008C345.972 264.985 345.372 265.195 344.714 265.154C343.246 265.053 342.633 264.217 340.487 264.977C340.222 265.073 340.743 266.079 338.542 266.258C337.62 266.336 333.781 266.733 332.663 266.768C331.577 266.803 332.286 266.395 332.208 266.388C329.194 266.22 330.345 265.925 328.792 265.401C328.545 265.318 328.349 265.287 328.194 265.294C327.414 265.33 327.719 266.446 327.232 266.638C326.641 266.868 324.461 266.689 323.918 266.606C323.373 266.524 324.021 266.252 323.539 266.221C320.384 266.015 322.243 267.118 321.234 267.455C318.848 268.252 316.874 267.241 314.642 267.308C314.032 267.326 314.55 267.551 314.009 267.62C311.926 267.883 310.603 267.622 308.222 268.144C307.815 268.231 305.953 269.081 304.636 268.664C304.45 268.603 304.939 268.274 304.025 268.278C302.689 268.282 300.23 268.403 298.8 268.607C297.733 268.759 299 269.146 297.636 269.098C297.028 269.076 298.123 268.713 296.985 268.695C295.875 268.675 292.994 268.897 291.917 268.984C290.831 269.072 291.452 269.393 291.366 269.424C290.842 269.602 288.768 269.926 288.586 269.938C279.285 270.64 270.672 270.596 261.624 271.358C260.914 271.417 261.412 271.772 261.303 271.785C258.881 272.094 260.738 270.957 259.016 270.72C259.31 271.483 258.294 271.404 256.588 271.591C255.766 271.682 256.233 271.957 256.159 271.992C254.96 272.523 254.069 271.982 253.843 271.874C253.004 271.477 252.162 272.053 251.586 271.788C251.016 271.525 252.263 271.014 250.616 271.114C250.17 271.419 251.434 272.077 250.191 272.267C245.504 272.988 236.676 272.881 232.881 273C229.108 273.121 227.896 273.225 225.664 273.221C221.695 273.206 223.139 273.687 220.701 274.031C218.203 274.374 219.377 272.996 219.006 272.724C218.647 272.451 218.279 272.759 217.846 272.617C217.494 272.501 218.036 272.329 217.707 272.257C217.629 272.24 217.504 272.229 217.312 272.225C216.271 272.203 213.516 272.8 213.156 273.109C212.407 273.764 213.708 274.395 210.976 274.236C210.819 274.226 211.317 273.863 210.718 273.843C205.993 273.696 201.08 273.755 196.342 273.494C195.697 273.457 196.275 273.071 195.902 273.045C191.978 272.76 193.364 273.428 191.195 274.117C191.702 273.153 190.522 272.551 187.545 272.437C185.778 272.362 186.032 272.795 184.88 273.037C184.508 273.109 183.286 272.747 183.028 272.93C182.218 273.526 183.389 274.353 180.306 273.829C180.169 273.804 180.636 273.484 180.163 273.424C177.149 273.016 176.733 273.668 173.434 273.316C171.314 273.087 167.92 272.219 165.223 271.506C164.63 271.352 164.075 271.211 163.573 271.092C163.858 270.038 161.114 269.703 159.866 270.192C158.027 269.751 156.019 269.33 154.263 268.803C153.662 268.623 154.136 268.411 154.067 268.36C153.006 267.555 152.045 268.072 151.634 268.001C147.262 267.209 143.933 265.755 139.706 265.157C139.558 265.136 139.12 265.803 138.182 264.969C138.12 264.912 139.556 264.952 137.649 264.395C135.745 263.843 132.255 262.426 129.505 262.068C129.053 262.01 128.084 262.073 127.146 261.889C126.69 261.799 126.239 261.643 125.854 261.383C125.694 261.273 125.943 261.114 125.721 260.929C125.008 260.335 124.341 260.939 123.586 260.015C122.833 259.084 121.108 257.998 118.43 257.26C118.347 257.236 117.493 257.514 116.71 257.113C115.462 256.479 113.791 255.405 112.553 254.641C111.959 254.276 112.139 254.831 112.032 254.773C109.089 253.102 107.003 251.374 104.717 249.287C103.801 248.446 102.867 247.559 101.843 246.567C101.176 245.929 98.8949 244.469 97.948 242.883C96.9466 241.158 99.5911 241.374 96.3629 238.381C95.0967 237.17 91.7648 236.825 90.8856 233.431C87.0463 228.401 84.9677 222.881 82.4418 217.104C82.3292 216.848 81.4088 216.204 81.2068 215.566C80.9036 214.606 81.0335 213.994 80.8436 213.309C80.2693 211.204 79.6141 209.251 79.0487 207.263C78.8416 206.534 78.662 205.8 78.52 205.042C78.327 203.964 78.7016 204.283 78.5135 203.003C78.3442 201.724 77.8171 200.9 77.9163 199.122C78.0033 197.776 78.8402 196.461 79.05 194.768C78.2231 194.65 78.2766 193.448 78.4005 191.288C78.4267 190.872 78.064 191.263 78.0619 191.062C78.0489 190.24 78.437 189.557 78.4538 188.776C78.4588 188.586 78.182 188.509 78.1719 188.348C78.0631 186.955 79.3733 185.083 79.6127 184.794C80.2755 183.922 80.4011 183.303 80.6706 182.655C80.6821 182.628 80.7279 182.568 80.7498 182.549C80.9304 182.389 81.1354 182.238 81.3858 182.112C82.3718 181.647 81.1655 182.7 82.2482 182.117C84.5025 180.963 87.6635 180.087 90.2165 179.619C91.2352 179.434 90.4726 179.185 90.6167 179.15C92.7295 178.668 94.9385 178.829 96.052 177.946C96.3536 178.269 96.5873 178.467 96.7844 178.576C97.6955 179.082 97.8871 177.632 100.451 177.786C100.698 177.803 101.058 178.715 100.144 178.912C99.3015 179.094 98.0274 178.953 96.8447 179.199C96.746 179.219 96.6479 179.242 96.5506 179.269C96.2481 179.345 94.6259 180.406 94.4065 180.491C92.6519 181.133 92.1958 179.812 92.0827 179.748C90.8437 179.091 88.9259 180.44 88.4257 180.64C86.0749 181.512 83.9882 182.044 82.5093 183.279C82.2147 183.529 82.0777 183.792 82.0138 184.034L82.4521 183.448C82.5174 184.075 82.7975 184.498 82.5197 185.15C81.2577 188.297 79.7072 189.302 80.3092 192.732C80.4693 193.465 81.485 192.861 80.5253 195.264C80.4588 195.403 79.6739 197.268 80.1799 198.343C80.2419 198.476 80.5326 198.461 80.5643 198.637C80.7774 199.81 80.6117 200.617 80.8875 201.891C81.1656 203.161 81.6096 204.655 81.8686 206.114C81.8918 206.245 81.9066 206.385 81.9154 206.529C81.9733 207.386 81.8156 208.391 81.8071 208.792C81.7668 210.12 82.7465 211.256 82.5274 212.134C82.3135 213.031 81.1769 211.744 81.5082 213.836C82.2532 213.683 83.048 213.621 83.8092 213.504C85.1446 217.785 86.5791 221.956 88.7306 225.894C88.9963 226.376 89.0858 225.688 89.3814 226.198C90.6361 228.344 91.5459 230.36 93.1261 232.417C94.3546 234.01 96.0403 235.486 97.4693 236.998C97.6216 238.535 99.952 240.675 101.523 242.313C102.075 242.893 101.881 243.026 102.235 243.47C103.608 245.149 103.407 243.902 103.912 244.208C105.548 245.18 105.424 246.204 106.235 247.476C106.509 247.906 106.892 248.36 107.498 248.828C107.624 248.934 109.709 249.373 109.952 249.472C111.516 250.146 109.983 249.896 110.794 250.56C112.285 251.754 113.291 252.678 115.365 253.558C115.974 253.817 117.596 254.045 118.527 254.982C118.651 255.106 118.437 255.342 118.55 255.416C120.628 256.71 121.083 255.825 122.452 256.017C123.817 256.204 125.596 257.446 125.969 257.742C126.921 258.522 125.079 257.709 125.01 257.728C124.15 258.063 125.665 258.444 126.812 258.784C126.774 259.316 127.276 259.664 127.661 259.693C127.97 259.719 128.208 259.553 128.016 259.126C128.003 259.098 127.925 259.068 127.814 259.037C127.519 258.955 126.976 258.86 126.812 258.784C127.156 258.611 127.536 258.507 127.947 258.471C129.115 258.396 130.523 258.875 131.839 259.88C132.702 260.535 131.666 260.734 134.615 261.374C135.947 261.665 135.614 260.9 136.824 261.055C139.579 261.407 142.852 262.935 145.6 263.56C146.604 263.789 145.729 263.192 146.41 263.334C148.228 263.711 149.749 264.374 151.591 264.692C151.756 264.72 151.449 264.262 152.008 264.395C156.273 265.404 159.942 266.496 164.424 267.459C164.878 267.556 165.413 267.66 166.002 267.769C168.162 268.174 170.916 268.557 172.669 268.85C176.487 269.52 181.26 270.469 184.638 270.509C186.83 270.537 186.383 270.138 187.322 269.926C189.146 269.514 192.356 270.46 192.784 270.6C192.79 270.606 190.915 270.656 191.911 270.866C192.485 271.274 192.763 270.601 192.784 270.6C193.096 270.698 196.849 270.818 197.635 270.742C198.038 270.703 197.812 270.352 198.023 270.338C203.124 270.023 208.215 269.833 213.379 269.843C213.47 269.847 213.344 270.244 213.56 270.25C215.174 270.292 216.379 270.163 217.626 269.973C218.701 269.802 219.762 269.583 220.937 269.401C223.385 269.019 225.346 269.031 226.857 269.64C228.702 269.474 231.406 269.646 232.957 269.752C234.525 269.857 234.681 269.082 234.82 269.06C239.036 268.365 241.488 268.674 245.887 268.501C247.982 268.419 252.112 268.072 254.364 267.854C256.154 267.681 257.228 267.796 258.872 267.582C259.094 267.553 258.848 267.227 258.915 267.209C260.726 266.691 259.894 267.576 260.282 267.701C261.687 268.157 262.56 268.392 264.893 267.99C265.432 267.898 266.937 266.601 267.92 266.468C269.199 266.297 268.742 266.757 270.081 266.566C270.195 266.55 270.154 266.287 270.985 266.245C274.842 266.045 279.058 265.917 283.059 265.614C283.607 265.574 282.876 265.203 283.666 265.137C287.368 264.831 291.433 264.558 295.063 264.489C295.954 264.474 295.419 264.809 295.618 264.882C296.828 265.324 298.472 264.431 298.742 264.396C305.307 263.535 310.453 263.835 317.138 262.952C317.519 262.902 320.25 261.847 321.576 262.442C321.663 262.482 322.963 263.097 324.031 262.507C324.095 262.471 323.294 262.167 324.64 262.087C325.457 262.04 326.697 261.84 327.874 261.766C328.612 261.718 329.349 261.712 330.034 261.801C330.636 261.874 332.071 262.466 333.795 261.721C333.903 261.671 336.461 260.113 337.524 260.904C337.701 261.034 337.618 262 339.664 261.294C340.05 261.158 339.315 261.024 340.333 260.781C341.927 260.405 344.069 260.419 345.969 259.754C346.285 259.639 347.661 258.814 348.858 259.137C349.046 259.188 348.749 259.551 349.371 259.497C352.135 259.266 355.661 258.469 356.955 257.989C357.155 257.917 357.331 257.962 357.503 258.028C357.675 258.097 357.859 258.178 358.252 257.952C359.03 257.541 360.472 256.176 360.906 255.179C361.339 254.197 360.022 254.642 360.847 253.345C363.602 248.808 365.977 243.519 368.003 238.067C368.555 236.565 369.097 235.051 369.613 233.528C369.971 232.471 369.408 233.255 369.912 231.687C371.807 225.891 374.455 215.788 376.163 210.858C377.556 206.892 376.791 212.11 377.673 209.028C378.094 207.533 377.467 205.722 377.501 205.358C377.525 205.112 377.55 204.872 377.576 204.639C377.961 201.302 378.763 198.946 379.197 195.87C379.292 195.19 378.794 195.785 378.88 195.204C379.168 193.23 379.7 191.198 379.974 189.33C380.094 188.498 379.78 188.6 379.923 187.838C380.259 186.012 380.609 184.43 381.09 182.688C381.133 182.529 381.371 183.658 381.539 182.318C381.805 180.143 382.292 177.468 381.969 175.062C381.864 174.359 381.217 174.351 381.563 172.872C381.621 172.569 382.504 172.835 381.568 171.283C381.431 170.936 379.95 168.785 379.954 167.803C379.975 167.513 380.118 166.544 379.607 166.208C379.543 166.171 379.505 166.624 379.158 166.356C378.843 166.122 378.51 165.922 378.125 165.746C376.836 165.142 375.106 164.732 373.275 164.589C372.61 164.541 373.539 165.023 372.57 164.95C369.864 164.753 366.241 164.699 363.334 164.725C362.277 164.734 362.99 164.389 362.912 164.359C361.611 163.878 360.933 164.666 360.509 164.737C357.944 165.174 355.925 165.009 353.524 165.342C352.865 165.434 353.37 165.737 353.241 165.781C351.895 166.229 352.848 165.494 351.976 165.516C349.52 165.578 346.788 165.928 344.331 166.281C343.424 166.412 344.49 166.689 343.686 166.801C341.538 167.104 339.4 167.396 337.202 167.676C334.482 168.022 331.757 168.338 329.102 168.59C328.215 168.674 328.725 168.283 328.531 168.238C327.182 167.923 325.411 168.872 324.989 168.999C323.057 169.58 322.277 169.412 320.547 169.717C312.142 171.206 301.655 172.558 293.639 173.565C283.186 174.88 275.046 175.664 265.076 176.957C264.442 177.038 265.133 177.376 264.586 177.451C257.534 178.405 250.55 179.021 243.464 179.85C242.882 179.918 243.761 180.229 242.828 180.35C240.913 180.601 238.48 180.811 236.524 180.862C235.571 180.888 236.811 180.433 235.853 180.466C233.749 180.536 231.511 180.698 229.353 180.926C229.221 180.94 229.091 180.954 228.96 180.969C227.991 181.076 229.49 181.361 228.227 181.468C219.63 182.203 211.165 182.82 202.445 182.746C201.845 182.741 201.278 181.945 200.021 182.166C199.937 182.399 199.955 182.667 199.926 182.914C187.4 183.663 174.98 183.767 162.416 183.955C161.886 183.963 162.809 184.383 161.784 184.4C155.857 184.5 150.099 184.69 144.008 184.297C143.403 184.259 143.731 183.488 141.935 183.615C141.626 183.639 138.943 183.755 138.266 183.924C138.173 183.949 138.657 184.306 137.806 184.32C134.17 184.374 130.39 184.346 126.726 184.243C125.302 184.205 123.94 184.156 122.569 184.097C121.759 184.061 122.619 183.679 122.046 183.65C117.981 183.45 113.559 183.744 109.681 183.399C107.08 183.168 108.045 182.506 106.66 181.857C106.468 181.766 104.858 181.752 104.773 181.374C104.558 180.423 105.339 179.381 105.019 178.367C104.947 178.149 102.801 178.384 104.072 177.857C104.157 177.821 105.729 177.646 106.105 177.466C106.373 177.342 105.888 176.958 106.437 176.799C106.984 176.641 107.588 176.963 108.492 176.776C109.398 176.587 109.01 176.15 110.807 176.097ZM239.943 270.209C241.399 270.501 241.541 269.146 240.003 269.549C239.929 269.57 239.868 270.195 239.943 270.209ZM85.7828 222.289C86.0056 224.215 87.3647 224.943 87.2079 223.593C87.0644 222.247 85.7209 221.708 85.7828 222.289ZM79.5678 204.24C79.5349 206.448 81.4685 206.315 80.638 204.223C80.5923 204.101 79.5717 204.113 79.5678 204.24ZM113.064 181.668C113.04 181.65 111.89 181.633 111.858 181.651C111.243 182.079 113.556 182.112 113.064 181.668ZM80.3681 185.597C79.885 186.147 79.6281 188.1 80.171 187.387C80.5899 186.822 80.9462 184.922 80.3681 185.597ZM314.528 266.658C314.554 266.676 315.387 266.626 315.36 266.515C315.276 266.155 314.124 266.352 314.528 266.658ZM109.973 178.233C105.159 178.183 102.155 176.723 107.457 176.782C108.415 176.799 105.402 177.317 106.623 177.439C108.848 177.662 110.322 176.674 112.59 177.204C113 177.3 110.247 178.238 109.964 178.235C109.967 178.234 109.97 178.234 109.973 178.233ZM240.856 271.78C240.889 271.796 242.027 271.753 242.055 271.734C242.651 271.274 240.35 271.362 240.856 271.78ZM362.098 259.29C362.202 259.296 363.989 257.203 363.984 257.091C364.115 256.315 363.383 257.027 362.713 257.814C362.054 258.599 361.409 259.47 362.098 259.29ZM163.534 271.054C162.208 271.211 160.726 270.938 159.871 270.194C161.078 270.493 162.304 270.765 163.534 271.054Z" fill="#171717" fill-opacity="0.75"/>
</svg>
