<svg width="298" height="71" viewBox="0 0 298 71" fill="none" xmlns="http://www.w3.org/2000/svg">
<path d="M52.0871 1.86212C55.8923 1.59642 60.8905 1.57912 64.6391 1.66071C65.8303 1.685 65.2533 1.99657 66.0727 2.02652C67.6507 2.08554 69.1287 1.89131 70.7535 1.97002C71.2779 1.99802 70.6514 2.48186 71.1879 2.5011C74.2286 2.59968 77.0095 2.38487 80.1117 2.37443C83.677 2.36412 87.1646 2.33869 90.7633 2.29625C102.197 2.16472 113.533 1.90783 125.189 1.70526C130.248 1.61605 136.316 1.85568 141.521 1.5297C142.123 1.49133 141.753 1.09601 141.866 1.05947C143.657 0.498974 143.079 1.33336 144.265 1.41024C148.963 1.71358 154.169 1.62188 158.68 1.36396C160.595 1.25336 158.655 0.491178 160.596 0.900287C160.731 0.927872 160.253 1.36889 160.781 1.40326C161.976 1.48016 164.242 1.35552 165.165 1.37104C166.948 1.40288 167.243 1.39278 168.931 1.36533C171.235 1.33183 173.979 1.49721 176.452 1.36002C176.979 1.32947 176.273 0.899406 177.114 0.810936C177.956 0.72236 180.186 0.726404 180.938 0.820061C181.691 0.913519 181.376 1.26484 181.51 1.34246C182.616 1.99765 185.182 1.03566 185.513 1.00903C191.568 0.544982 196.743 1.0337 202.439 1.01497C206.744 0.999866 211.383 0.83179 215.463 0.88271C220.389 0.946111 224.482 1.23506 229.268 1.28758C229.769 1.29378 229.193 0.763235 229.804 0.769904C236.322 0.844038 242.802 1.1022 249.276 1.78892C249.918 1.85827 249.065 2.2695 249.704 2.36611C252.347 2.7542 256.041 3.473 258.858 3.40648C260.344 3.37807 261.577 3.14854 262.407 2.56457C265.156 2.8996 268.375 3.35394 270.76 4.10241C272.274 4.58415 270.706 4.84969 272.609 4.92771C273.059 4.95149 272.553 4.43029 273.221 4.49934C275.927 4.77461 278.929 5.50654 281.654 5.9978C282.208 6.09706 282.161 5.68228 282.333 5.65611C283.812 5.45691 285.732 7.08594 286.149 7.32726C289.486 9.19112 292.288 10.1557 294.846 13.4404C295.399 14.2591 295.183 12.9818 295.725 13.7982C298.741 18.6273 296.347 23.9538 294.623 27.1771C294.206 27.9453 294.142 27.0308 293.923 27.3851C293.73 27.6959 293.599 27.9712 293.505 28.2258C293.126 29.2521 293.364 29.9272 292.615 31.1112C292.42 31.4189 292.17 31.0661 292.103 31.1066C291.062 31.7217 291.477 32.9623 291.378 33.2018C290.095 36.3236 288.211 37.7843 286.744 40.6698C286.568 41.0156 287.424 40.4864 286.895 41.4554C283.247 47.7299 279.838 54.257 273.192 59.2511C273.087 59.3035 272.982 59.3552 272.877 59.4063C271.808 59.9114 272.383 59.1925 272.296 59.1895C270.934 59.1179 270.641 60.2557 270.296 60.4442C267.609 61.8609 264.759 61.8053 263.133 63.3805C259.858 64.1076 256.63 64.7461 253.39 65.3829C244.621 67.1004 235.831 68.1261 226.995 68.0813C226.844 68.0812 227.078 67.6013 226.777 67.603C223.097 67.6145 223.837 68.275 221.48 69.3078C220.858 69.5688 218.964 68.6236 218.781 68.556C218.155 68.3064 218.747 67.5851 218.54 67.5418C216.871 67.2022 217.243 69.4537 215.013 69.5723C214.943 69.5722 215.215 69.1402 215.025 69.1085C214.439 69.0086 213.851 69.2044 213.274 69.089C211.974 68.8195 211.409 67.7444 209.469 68.4718C209.222 68.5654 209.656 69.8358 207.65 69.8586C206.857 69.868 203.324 70.0238 202.313 69.9732C201.333 69.9234 201.99 69.4862 201.919 69.4707C199.252 69.0112 200.219 68.7513 198.879 67.9817C197.532 67.2139 197.954 69.1296 197.415 69.3607C197.208 69.4487 196.79 69.4455 196.321 69.3995C195.589 69.3245 194.725 69.1374 194.424 69.048C193.938 68.9032 194.533 68.6245 194.102 68.5465C191.244 68.0359 192.883 69.5338 191.958 69.8621C189.761 70.6378 188.039 69.2426 186.008 69.1396C185.467 69.1115 185.914 69.4291 185.433 69.4682C183.518 69.6179 182.352 69.1904 180.172 69.6301C179.807 69.702 178.063 70.5848 176.909 69.9673C176.745 69.8782 177.203 69.5166 176.38 69.4463C175.143 69.341 172.961 69.2849 171.635 69.4152C170.67 69.5114 171.783 70.0893 170.564 69.9169C170.021 69.8397 171.023 69.4884 170.004 69.3721C168.985 69.2561 166.396 69.2879 165.407 69.3046C164.419 69.3218 164.962 69.7643 164.882 69.7947C164.394 69.9693 162.515 70.1921 162.345 70.192C153.906 70.2774 146.142 69.5105 137.934 69.7053C137.29 69.7198 137.716 70.1923 137.617 70.1994C135.413 70.3807 137.159 69.1446 135.621 68.7153C135.837 69.6698 134.927 69.4908 133.376 69.5823C132.628 69.627 133.032 69.9995 132.963 70.0366C131.849 70.5875 131.08 69.8563 130.883 69.7063C130.153 69.1547 129.348 69.7903 128.853 69.4211C128.357 69.0546 129.515 68.5309 128.022 68.5222C127.6 68.8588 128.699 69.762 127.564 69.8944C123.292 70.3982 115.331 69.5851 111.904 69.4497C108.498 69.3173 107.37 69.3571 105.387 69.1938C101.775 68.8955 103.109 69.5848 100.845 69.8372C98.5963 70.0881 99.7265 68.4862 99.4126 68.1291C99.1073 67.7721 98.7579 68.1238 98.3622 67.922C97.9712 67.7202 98.833 67.5033 97.9051 67.4085C96.9764 67.3142 94.4528 67.8711 94.1053 68.2272C93.3949 68.9831 94.4961 69.8275 92.0834 69.4747C91.9423 69.4537 92.4144 69.039 91.8713 68.9804C87.9777 68.5688 83.9189 68.3952 80.007 68.0147C79.6316 67.9788 79.2613 67.9413 78.8964 67.9017C78.3101 67.8372 78.8545 67.3828 78.5147 67.3399C74.981 66.8868 76.2175 67.7414 74.2259 68.5432C74.717 67.3771 73.687 66.6082 70.9788 66.4596C69.4015 66.3705 69.5958 66.8993 68.5439 67.2053C68.2379 67.2983 67.0933 66.8733 66.873 67.1035C66.1303 67.854 67.1936 68.8205 64.401 68.2793C64.2816 68.2542 64.6951 67.8453 64.2806 67.7905C61.5565 67.4235 61.1845 68.2359 58.2023 68.0722C55.8737 67.9447 51.7993 66.9867 49.1704 66.4171C49.4413 65.1188 46.9847 64.9628 45.7368 65.552C44.5003 65.1943 43.1469 64.7175 41.9972 64.1309C41.5353 63.9022 41.0973 63.6298 40.7127 63.3506C40.2264 62.9917 40.7708 62.8789 40.7288 62.8031C40.1551 61.6498 39.051 61.9041 38.7259 61.6968C35.3099 59.3735 33.5285 56.5182 30.4123 54.1928C30.307 54.1146 29.4583 54.567 29.2695 53.3658C29.2586 53.2848 30.4261 53.9296 29.2273 52.5801C28.0245 51.2273 26.1491 48.3765 24.1914 46.7706C23.7122 46.3771 22.1426 45.7105 21.7967 44.4003C21.7515 44.2246 22.0695 44.1876 22.029 43.9125C21.89 43.0237 20.9095 43.3168 20.9383 42.1201C20.9556 40.9095 20.2302 39.1283 18.1957 37.5449C18.1327 37.4941 17.1856 37.5175 16.684 36.8952C15.8974 35.9182 14.8765 34.44 14.0316 33.4204C13.6257 32.9311 13.5286 33.5386 13.452 33.4588C12.3311 32.2541 11.4033 31.119 10.5196 29.9584C9.14698 28.1496 7.9284 26.2946 6.39497 23.9796C5.93727 23.295 4.03692 21.6579 3.61258 20.0088C3.18235 18.2062 5.93842 18.6083 3.66327 15.4771C2.85609 14.2912 -0.863107 13.2913 0.184522 10.0422C-0.138292 8.33337 0.190348 6.5212 1.31096 5.28692C3.85936 2.69655 7.80785 2.33218 11.5268 1.42796C11.7811 1.37102 12.4954 0.480348 13.1088 0.433563C14.0178 0.365103 14.5357 0.703162 15.1833 0.683503C17.8732 0.61965 20.3376 0.256212 22.9381 0.314332C23.9267 0.338407 23.5767 0.721738 24.7516 0.758728C25.923 0.798614 26.7207 0.305091 28.306 0.600513C29.5042 0.826637 30.6617 1.91335 32.244 2.10643C32.3241 1.33411 32.9672 1.18353 34.1165 1.08322C34.4931 1.05064 34.9228 1.02345 35.403 0.981986C35.7807 0.949274 35.3975 0.570614 35.5773 0.536728C36.3096 0.390978 36.9588 0.724113 37.6545 0.563208C37.8234 0.524689 37.8516 0.174641 37.9909 0.123439C39.1821 -0.325976 41.0403 0.584414 41.3579 0.74387C42.5768 1.34794 43.1939 0.933506 44.1398 1.20712C45.085 1.48146 43.6311 1.63406 44.7432 1.83976C47.0432 2.2652 50.0264 2.4486 52.3785 2.67025C53.3167 2.75639 52.7173 2.23364 52.8525 2.23512C54.8072 2.28666 56.7237 2.96571 57.8885 2.13836C59.0057 4.66972 59.0822 2.0146 61.8121 2.76851C62.0269 2.82906 62.192 3.99232 61.3373 4.07634C60.4828 4.16029 59.2461 3.68131 58.0581 3.83098C57.7762 3.86536 56.0999 4.78269 55.8796 4.82785C54.1501 5.17728 54.0652 3.45877 53.9836 3.35705C53.0612 2.25858 51.0295 3.24044 50.5164 3.27802C48.1631 3.4469 46.2101 3.0551 44.2471 3.17429C42.9651 3.2512 42.7636 4.35776 41.7706 4.25612C38.4747 3.92558 37.3991 2.30167 34.2046 3.48961C34.1132 3.5235 34.0447 3.57518 33.9891 3.63672C33.6296 4.03777 33.813 4.84981 31.779 3.92434C31.6322 3.85649 29.8893 2.90306 28.8442 3.42483C28.7131 3.49047 28.7051 3.84629 28.5347 3.87055C27.3939 4.02706 26.6474 3.72254 25.4103 3.83439C24.1744 3.94682 22.702 4.13553 21.3069 4.0254C20.4655 3.95816 19.3762 3.31715 18.969 3.16655C17.8094 2.72845 16.6363 3.55126 15.9024 3.02888C15.1552 2.50663 16.5075 1.54773 14.5917 1.31183C14.5908 2.23916 14.5062 3.19761 14.4739 4.13318C10.5988 4.42118 6.33757 4.76411 3.99144 6.41602C3.74316 6.60786 4.28326 6.82013 4.0658 7.01719C3.93299 7.14341 3.82636 7.25329 3.74286 7.34395C3.30971 7.80218 2.83363 8.52359 3.15936 10.0067C3.46376 11.333 4.5729 12.8063 5.44329 14.2793C4.9371 15.7049 6.6072 17.9274 7.66138 19.6565C8.02443 20.2615 7.76796 20.3841 7.97915 20.8562C8.80321 22.6363 9.05107 21.3509 9.47448 21.6956C11.3067 23.1482 9.72753 24.5746 11.4587 26.6938C11.5352 26.7895 12.9441 27.2772 13.5196 27.5097C13.6318 27.5572 13.7127 27.5951 13.7468 27.619C15.1 28.5514 13.6094 28.0717 14.1668 28.8851C15.1797 30.3633 15.7687 31.5063 17.3576 32.9125C17.8275 33.3281 19.2944 33.9984 19.6464 35.2717C19.6919 35.4378 19.3499 35.6097 19.4137 35.7206C20.59 37.701 21.5294 36.995 22.6717 37.7386C23.8099 38.4774 24.4878 40.5262 24.5787 40.9912C24.8185 42.2022 23.846 40.5288 23.7698 40.5293C22.7938 40.4674 23.8327 41.506 24.5165 42.396C23.7419 43.2588 24.828 44.417 25.23 43.3155C25.2726 43.194 24.6184 42.5962 24.5165 42.396C26.0108 42.4088 27.2383 43.6168 27.6925 45.7344C27.91 46.7285 26.9139 46.4782 28.8638 48.3577C29.7616 49.2195 30.026 48.3295 30.908 48.9854C32.9208 50.481 34.5501 53.3056 36.4094 54.9789C37.0853 55.5863 36.7623 54.6608 37.2292 55.0576C38.4702 56.1028 39.2978 57.3169 40.6114 58.1902C40.7282 58.2658 40.7579 57.7046 41.1239 57.9963C42.165 58.8184 43.1838 59.5637 43.9306 59.9556C45.7425 60.9081 47.562 61.4896 50.039 61.9407C51.8999 62.2904 55.3982 62.4654 57.4392 62.7086C60.9421 63.1441 65.3282 64.1044 68.3926 64.1211C70.3774 64.1326 70.0063 63.6556 70.853 63.3925C72.5431 62.8853 75.4302 64.0934 75.7976 64.2749C75.8103 64.2815 74.0945 64.3094 75.0024 64.5843C75.503 65.0927 75.7788 64.2762 75.7976 64.2749C76.0494 64.3926 79.297 64.6304 80.1405 64.5864C80.1619 64.5852 80.1815 64.5839 80.1993 64.5823C80.5657 64.5491 80.3783 64.1119 80.5695 64.1027C85.1834 63.8951 89.8192 63.9293 94.5023 64.2551C94.5851 64.266 94.4472 64.7429 94.6422 64.7625C97.3493 65.0476 99.1089 64.5016 101.352 64.2036C103.604 63.9055 105.377 64.0585 106.682 64.9094C108.367 64.8393 110.791 65.2484 112.183 65.4934C113.584 65.7388 113.787 64.8064 113.911 64.79C117.748 64.2605 119.959 64.8276 123.927 64.9605C125.817 65.0255 129.565 64.9302 131.611 64.846C133.234 64.7784 134.198 65.0055 135.692 64.8768C135.894 64.8596 135.693 64.4417 135.755 64.4261C137.423 63.9402 136.615 64.9522 136.957 65.1365C138.196 65.8062 138.964 66.1638 141.096 65.8645C141.587 65.796 143.025 64.3374 143.92 64.2554C145.084 64.1514 144.643 64.6751 145.862 64.5522C145.966 64.5422 145.946 64.2181 146.697 64.2347C150.187 64.3078 153.993 64.5001 157.62 64.4616C158.115 64.4576 157.479 63.9446 158.195 63.9303C161.546 63.8633 165.238 63.8666 168.501 64.0844C169.31 64.1395 168.806 64.5031 168.982 64.6087C170.065 65.2478 171.569 64.2955 171.82 64.2753C177.806 63.7693 182.402 64.5599 188.487 64.0342C188.805 64.0046 191.361 62.9424 192.501 63.7783C192.57 63.8341 193.737 64.6902 194.716 64.0597C194.776 64.0202 194.066 63.584 195.285 63.5979C195.547 63.6008 195.842 63.5865 196.158 63.5667C197.365 63.493 198.807 63.3473 200.168 63.6959C200.719 63.8356 201.967 64.6774 203.56 63.9165C203.663 63.8644 206.048 62.1847 206.965 63.2437C207.12 63.4176 206.99 64.5862 208.883 63.9101C209.24 63.7791 208.573 63.5492 209.518 63.3461C210.945 63.0341 212.899 63.2534 214.676 62.6431C214.975 62.5361 216.274 61.6788 217.363 62.2154C217.533 62.2994 217.243 62.7041 217.8 62.7156C220.494 62.7693 223.273 62.3296 225.998 62.3945C226.948 62.4173 226.519 63.0783 227.536 63.1676C228.534 63.2589 230.573 63.2504 231.597 62.8695C232.606 62.4902 231.375 61.6018 232.937 61.376C239.403 60.4268 245.829 60.1593 252.129 59.0245C252.395 58.9766 252.658 58.9285 252.916 58.88C253.909 58.6925 253.018 58.5101 254.47 58.2055C259.104 57.2256 266.445 55.3565 270.019 53.6394C269.861 53.7749 270.067 53.6912 270.237 53.5933C270.417 53.4928 270.632 53.3535 270.841 53.216C273.471 51.275 271.019 54.6499 272.934 52.8881C273.881 51.9749 273.847 50.0961 274.003 49.8262C275.58 47.0887 277.234 45.4909 278.655 42.918C278.942 42.3906 278.233 42.6437 278.481 42.199C279.328 40.6656 280.444 39.1776 281.245 37.6858C281.598 37.0247 281.217 36.9697 281.583 36.3702C282.442 34.9543 283.282 33.7143 284.336 32.4305C284.433 32.3112 284.358 33.418 284.954 32.315C285.908 30.5474 287.333 28.4588 288.035 26.219C288.107 25.9899 288.069 25.7936 288.034 25.5907C287.964 25.2075 287.911 24.803 288.633 24.1269C288.852 23.9215 289.639 24.6273 289.462 22.8592C289.444 22.7148 289.417 21.9361 289.432 21.1905C289.455 20.4325 289.484 19.7764 289.889 19.4372C290.108 19.2731 290.944 18.7337 290.75 18.3219C290.722 18.2785 290.318 18.5264 290.227 18.2538C289.941 17.4339 289.257 16.4517 287.53 15.5338C287.093 15.3126 287.474 16.0717 286.838 15.7447C285.019 14.8106 282.183 13.7098 279.808 12.9473C278.928 12.6632 279.639 12.4575 279.586 12.4009C278.64 11.4687 277.866 12.2243 277.484 12.1916C275.199 12.0095 273.602 11.2942 271.421 11.0637C270.852 11.0059 271.187 11.4934 271.069 11.514C269.837 11.7074 270.832 11.0746 270.086 10.8787C267.935 10.3219 265.535 10.0695 263.344 9.90065C262.521 9.83799 263.394 10.4281 262.654 10.3668C261.207 10.2515 259.838 10.1431 258.327 10.0173C255.446 9.77717 252.451 9.5032 249.592 9.16492C248.804 9.07008 249.322 8.71269 249.161 8.61622C248.056 7.94186 246.295 8.6976 245.891 8.75968C244.131 9.04539 243.459 8.6779 241.869 8.68016C234.192 8.69837 224.739 8.30531 217.464 8.11093C207.987 7.85963 200.633 7.51841 191.594 7.69154C191.02 7.70237 191.604 8.20848 191.109 8.22442C184.71 8.40783 178.416 8.29767 172.005 8.56008C171.479 8.58074 172.246 9.05187 171.402 9.10142C169.674 9.20642 167.476 9.22231 165.723 9.10304C164.868 9.0458 166.004 8.60653 165.144 8.55746C163.145 8.44224 160.985 8.45415 158.936 8.57809C158.063 8.63196 159.392 9.09791 158.257 9.12936C150.51 9.35499 142.901 9.64135 135.054 9.22729C134.517 9.19883 134.006 8.20537 132.867 8.43244C132.789 8.71459 132.804 9.04333 132.775 9.34329C121.528 9.83757 110.291 9.86487 98.9956 10.2067C98.5098 10.2215 99.3667 10.7258 98.4284 10.7572C95.9544 10.8403 93.4643 10.958 91.0709 11.0226C88.1596 11.1023 85.3547 11.1116 82.3917 10.9304C81.8461 10.8976 82.0762 9.94954 80.5101 10.1466C80.2601 10.1813 77.7817 10.3934 77.2097 10.6175C77.126 10.6512 77.5794 11.0741 76.8094 11.1138C72.264 11.3392 67.5817 11.4017 63.0308 11.2894C62.3054 11.2701 63.0582 10.7771 62.5447 10.7592C58.8641 10.6368 54.9067 11.1264 51.3493 10.8149C49.0015 10.6024 49.8278 9.7691 48.5586 9.01131C48.3905 8.90481 46.9213 8.9249 46.8339 8.46247C46.6212 7.30424 47.2911 6.01678 46.9772 4.78418C46.8867 4.52617 45.0863 4.82237 46.1559 4.17313C46.2054 4.13353 47.5703 3.88983 47.9131 3.66011C48.1518 3.50227 47.7015 3.04432 48.1915 2.83709C48.6787 2.62991 49.2114 3.00863 50.0355 2.7557C50.8287 2.50062 50.4608 1.97743 52.0871 1.86212ZM118.454 66.582C119.74 67.0497 119.954 65.4075 118.551 65.781C118.483 65.801 118.388 66.559 118.454 66.582ZM6.56498 3.86436C4.80406 3.64548 4.35184 5.09247 5.49185 5.19501C6.58224 5.35519 7.06971 3.95004 6.56498 3.86436ZM23.4644 1.76153C21.4992 1.18129 21.2055 3.51602 23.2863 3.04939C23.4075 3.0235 23.5792 1.79563 23.4644 1.76153ZM54.3473 8.60337C54.347 8.58157 53.2687 8.59555 53.2558 8.61759C52.7132 9.15807 54.8166 9.13152 54.3473 8.60337ZM40.8277 1.9122C40.2322 1.55636 38.4379 1.81152 39.1776 2.24999C39.7747 2.60192 41.5675 2.35362 40.8277 1.9122ZM185.939 68.3377C185.957 68.3619 186.71 68.3702 186.693 68.2318C186.629 67.7868 185.595 67.9316 185.939 68.3377ZM70.2777 4.51159C65.9399 3.97381 63.4956 1.78996 68.2126 2.49118C69.0664 2.61856 66.3007 2.91235 67.3748 3.19737C69.3398 3.7175 70.7909 2.65207 72.7623 3.50874C73.1188 3.66508 70.5243 4.5464 70.2697 4.51346C70.2723 4.51283 70.275 4.51221 70.2777 4.51159ZM119.17 68.5684C119.195 68.5905 120.236 68.6257 120.262 68.6044C120.833 68.0901 118.736 68.019 119.17 68.5684ZM229.746 67.4108C229.804 67.4544 232.223 67.2877 232.289 67.2367C233.462 66.2772 228.609 66.6102 229.746 67.4108ZM49.1341 66.3745C47.9031 66.6911 46.4806 66.4439 45.742 65.5541C46.8599 65.8943 48.0015 66.1379 49.1341 66.3745Z" fill="#4C2A29" fill-opacity="0.75"/>
</svg>
