<svg width="305" height="110" viewBox="0 0 305 110" fill="none" xmlns="http://www.w3.org/2000/svg">
<path d="M0.865983 96.2086C2.45529 92.2436 5.23171 87.6377 7.5295 84.3348C8.24033 83.3121 8.15349 84.0042 8.66686 83.2953C9.65887 81.9343 10.4087 80.522 11.4405 79.2221C11.7854 78.7903 11.7869 79.6172 12.1406 79.1582C14.0745 76.6493 15.6948 74.1494 17.6506 71.639C19.3532 69.4556 21.0731 67.3017 22.8211 65.1526C31.1673 55.0923 40.2075 46.34 49.527 37.3713C52.8644 34.1824 57.0689 30.6067 60.5704 27.1778C61.0086 26.7487 61.4353 26.3291 61.8479 25.9188C62.3007 25.4696 61.7473 25.4298 61.8138 25.3227C62.8821 23.6513 62.9567 24.693 63.961 23.9436C67.932 20.9925 72.2903 17.7096 76.2018 15.0011C77.8616 13.8576 75.7233 14.26 77.6924 13.5576C77.828 13.5095 77.6212 14.1438 78.1137 13.893C79.2344 13.314 81.2525 12.0532 82.1191 11.6194C83.7936 10.7771 84.0626 10.6323 85.6391 9.83141C87.7986 8.74548 90.4828 7.7351 92.8026 6.6288C93.297 6.39155 92.4535 6.27381 93.2309 5.85848C94.0065 5.44116 96.1622 4.58826 96.921 4.3953C97.6806 4.19952 97.5034 4.64582 97.6606 4.6679C98.8165 4.84368 100.622 3.40353 101.22 2.98363C101.297 2.93051 101.355 2.89346 101.39 2.87702C107.178 -0.059213 113.187 0.44469 118.653 0.274253C118.845 0.270029 119.041 0.265378 119.24 0.260252C123.697 0.144807 128.445 -0.0479737 132.67 0.0109477C137.706 0.0856637 141.965 0.423049 146.855 0.565741C147.371 0.581799 146.787 0.0398938 147.417 0.0587592C151.736 0.190335 156.037 0.431385 160.325 0.8491C162.694 1.08006 165.056 1.36605 167.411 1.71261C168.073 1.811 167.171 2.18309 167.832 2.30889C171.88 3.05699 178.169 4.70761 180.836 3.06598C183.575 3.49883 186.906 4.05333 189.294 4.8225C190.836 5.31907 189.224 5.5719 191.196 5.66447C191.638 5.68628 191.137 5.16735 191.802 5.23395C194.588 5.51327 197.577 6.16211 200.342 6.4341C200.907 6.48899 200.823 6.07824 200.993 6.03778C201.08 6.01808 201.169 6.00461 201.26 5.9967C202.662 5.87801 204.48 7.0732 204.912 7.2254C208.463 8.45091 211.171 8.84531 214.548 9.79596C215.332 10.0207 214.547 9.25388 215.308 9.45465C218.651 10.3452 222.005 11.5712 225.102 12.9615C225.667 13.2146 226.224 13.4723 226.772 13.734C227.564 14.115 226.649 14.2219 227.018 14.425C228.638 15.3172 229.342 14.7018 230.897 15.5721C231.224 15.7551 230.879 16.0209 230.924 16.0864C231.629 17.1111 232.852 16.6388 233.11 16.732C236.384 17.9038 237.965 19.7383 240.998 21.1049C241.362 21.2692 240.773 20.4307 241.788 20.9222C248.528 24.1896 255.347 28.2715 261.309 32.6946C262.242 33.3871 261.351 33.2295 261.388 33.3074C261.972 34.5371 263.13 34.1985 263.458 34.3816C265.311 35.4374 266.743 36.904 268.224 37.784C268.827 38.1435 269.434 38.4126 270.095 38.5404C276.005 43.4907 280.179 49.9516 283.862 56.2195C286.455 60.6622 288.818 65.231 290.772 69.9735C290.832 70.1183 290.295 70.0776 290.417 70.365C291.883 73.8514 292.195 72.8905 294.076 74.7677C294.555 75.2534 294.412 77.4402 294.412 77.6277C294.411 78.3068 293.521 78.0152 293.557 78.2253C293.874 79.9555 295.826 78.7602 296.77 80.8802C296.796 80.9472 296.292 80.8407 296.332 81.0333C296.46 81.6457 296.849 82.1222 296.952 82.7228C297.184 84.1056 296.354 84.9584 297.73 86.6219C297.902 86.8284 298.954 85.9774 299.665 87.9257C299.951 88.6895 301.277 92.1322 301.528 93.1333C301.79 94.1305 301.165 93.6013 301.172 93.6748C301.554 96.4747 300.995 95.5545 300.644 97.1035C300.274 98.6359 302.005 97.722 302.373 98.2052C302.531 98.419 302.646 98.931 302.707 99.471C302.79 100.197 302.797 101.003 302.775 101.298C302.737 101.817 302.338 101.278 302.353 101.726C302.426 104.684 303.568 102.77 304.07 103.664C304.446 104.355 304.577 105.055 304.578 105.74C304.577 106.104 304.564 106.517 304.447 107.041C304.348 107.541 303.991 108.299 303.407 108.629C302.261 109.211 301.558 108.878 300.81 108.878C300.22 108.832 300.696 109.17 300.164 109.179C299.972 109.179 299.8 109.172 299.62 109.159C297.935 109.038 296.805 108.583 294.734 108.727C294.359 108.753 292.458 109.4 291.359 108.633C291.206 108.523 291.715 108.225 290.895 108.047C289.661 107.78 287.426 107.431 286.073 107.39C285.077 107.36 286.139 108.077 284.918 107.748C284.373 107.602 285.441 107.382 284.414 107.136C283.398 106.89 280.756 106.602 279.746 106.505C278.744 106.407 279.243 106.91 279.159 106.931C278.646 107.046 276.702 107.058 276.534 107.041C267.968 106.22 260.081 104.926 251.692 105.2C251.563 105.204 251.476 105.226 251.419 105.258C251.187 105.388 251.456 105.691 251.375 105.698C249.157 105.926 250.894 104.646 249.307 104.269C249.563 105.215 248.638 105.064 247.059 105.252C246.302 105.344 246.736 105.69 246.668 105.732C245.57 106.353 244.743 105.679 244.522 105.543C243.749 105.044 242.956 105.735 242.426 105.401C241.895 105.069 243.046 104.467 241.513 104.561C241.112 104.925 242.277 105.753 241.141 105.96C236.77 106.772 228.577 106.306 225.031 106.274C221.505 106.255 220.414 106.323 218.329 106.215C214.656 106.012 215.992 106.665 213.702 106.973C211.371 107.278 212.519 105.649 212.183 105.3C211.864 104.95 211.512 105.31 211.106 105.117C210.701 104.924 211.58 104.688 210.625 104.614C209.647 104.541 207.106 105.153 206.732 105.516C206.028 106.287 207.195 107.108 204.694 106.806C204.548 106.789 205.024 106.364 204.466 106.317C202.934 106.195 201.527 106.107 199.961 106.028C197.057 105.875 194.027 105.764 191.144 105.532C190.545 105.483 191.088 105.014 190.739 104.98C187.062 104.624 188.384 105.445 186.37 106.307C186.846 105.127 185.716 104.385 182.967 104.335C181.308 104.304 181.583 104.826 180.49 105.174C180.152 105.278 178.997 104.903 178.779 105.143C178.062 105.928 179.167 106.839 176.303 106.435C176.177 106.416 176.587 105.987 176.15 105.953C173.356 105.731 173.006 106.558 169.974 106.604C167.608 106.641 163.396 106.053 160.688 105.917C160.773 104.585 158.223 104.84 157.161 105.739C155.404 105.667 153.525 105.681 151.82 105.519C151.235 105.464 151.628 105.086 151.554 105.043C150.446 104.365 149.666 105.244 149.288 105.272C145.168 105.528 141.85 104.78 137.923 105.36C137.783 105.381 137.538 106.302 136.504 105.604C136.438 105.555 137.739 105.162 135.899 105.09C134.063 105.018 130.597 104.446 128.034 104.82C127.413 104.91 125.831 105.628 124.588 105.013C124.422 104.93 124.611 104.668 124.373 104.515C123.603 104.027 123.156 104.954 122.256 104.138C121.358 103.323 119.457 102.685 116.871 103.177C116.788 103.191 116.165 103.92 115.351 103.891C114.055 103.843 112.221 103.647 110.875 103.623C110.225 103.611 110.631 104.081 110.518 104.087C106.153 104.249 103.08 103.769 98.4132 103.488C97.5599 103.436 95.0968 104.01 93.4471 103.476C91.6403 102.893 93.5748 100.671 89.373 101.118C87.685 101.297 85.4864 104.121 82.4996 102.568C76.6209 102.81 71.2065 101.933 65.3115 102.34C65.0435 102.357 64.2157 103.142 63.5829 103.118C62.6452 103.082 62.1449 102.697 61.4877 102.66C58.7494 102.493 56.2086 102.764 53.5284 102.665C52.7565 102.637 52.7944 102.404 52.3093 102.279C52.158 102.242 51.959 102.215 51.6782 102.205C50.4402 102.161 49.6887 102.658 48.028 102.384C46.771 102.175 45.6108 101.113 43.9373 100.966C43.8482 101.993 42.7714 101.955 40.7322 102.198C40.3495 102.245 40.754 102.608 40.5728 102.649C39.8427 102.824 39.1653 102.518 38.446 102.71C38.2732 102.756 38.2608 103.107 38.1202 103.164C36.957 103.666 34.9651 102.854 34.654 102.714C33.3858 102.178 32.7384 102.629 31.7915 102.416C30.7803 102.202 32.2944 101.957 31.1162 101.823C28.7425 101.547 25.661 101.591 23.2297 101.585C22.2555 101.585 22.9224 102.051 22.7828 102.062C20.7853 102.189 18.7444 101.719 17.6671 102.678C16.2311 100.304 16.452 102.92 13.6057 102.578C13.3783 102.553 13.0124 101.429 13.8885 101.213C14.775 100.997 16.0851 101.307 17.2854 101.018C17.5824 100.947 19.2054 99.8478 19.4174 99.7813C21.1931 99.2513 21.4124 100.96 21.5178 101.052C22.5812 102.053 24.5469 100.896 25.0863 100.817C27.4833 100.453 29.5254 100.704 31.5448 100.46C32.8514 100.302 32.9734 99.1857 34.0325 99.2302C37.4396 99.3785 38.6491 100.954 41.8771 99.6476C42.5917 99.3699 41.9049 98.1377 44.3629 99.1356C44.5276 99.1986 46.3491 100.106 47.4174 99.568C47.5529 99.5002 47.5545 99.1443 47.7328 99.1174C48.9556 98.9444 49.6867 99.2405 50.9875 99.1276C51.4179 99.0902 51.8819 99.0461 52.3683 99.0093C53.2959 98.9344 54.3081 98.8894 55.3031 98.9887C56.225 99.0781 57.2936 99.7618 57.7238 99.9324C58.9065 100.423 60.2376 99.682 60.944 100.262C61.6755 100.846 60.2018 101.681 62.1497 102.088C62.2408 101.165 62.427 100.219 62.563 99.2919C66.8454 99.4099 71.1069 99.7977 75.3872 99.8477C75.9241 99.8531 75.3852 99.3445 75.962 99.3375C78.3815 99.31 80.4957 99.7099 82.9889 99.6228C84.9253 99.5536 87.0735 99.074 89.0975 98.9857C90.3273 100.071 93.3187 99.7774 95.5192 99.9226C96.291 99.9731 96.2254 100.254 96.7671 100.358C98.8068 100.745 97.8688 99.7886 98.4342 99.6539C100.87 99.0796 101.027 101.2 103.874 101.211C104.023 101.212 105.902 100.125 106.155 100.06C107.774 99.638 106.412 100.459 107.418 100.564C109.254 100.757 110.543 101.055 112.706 100.773C113.338 100.689 114.868 100.019 116.084 100.59C116.243 100.665 116.146 101.036 116.275 101.06C118.612 101.476 118.701 100.306 120.052 99.9385C121.406 99.5714 123.458 100.425 123.875 100.668C124.966 101.295 123.024 100.907 122.963 100.965C122.246 101.653 123.76 101.565 124.914 101.65C125.056 102.802 126.673 102.768 126.11 101.733C126.046 101.62 125.145 101.707 124.914 101.65C125.952 100.545 127.732 100.439 129.67 101.535C130.577 102.048 129.694 102.605 132.49 102.455C133.758 102.387 133.286 101.586 134.407 101.394C136.964 100.957 140.267 101.765 142.902 101.704C143.859 101.681 142.936 101.229 143.59 101.199C145.326 101.118 146.837 101.474 148.587 101.344C148.745 101.331 148.369 100.87 148.91 100.875C152.994 100.907 156.58 101.269 160.848 101.36C162.927 101.404 166.607 101.224 168.764 101.314C172.454 101.467 177.051 102.207 180.191 102.098C182.283 102.03 181.827 101.569 182.718 101.274C184.396 100.703 187.465 101.821 187.843 101.993C187.858 101.999 186.087 102.079 187.028 102.326C187.57 102.819 187.823 101.995 187.843 101.993C188.08 102.104 191.693 102.258 192.36 102.179C192.742 102.137 192.536 101.705 192.738 101.691C195.187 101.527 197.623 101.432 200.008 101.407C202.391 101.385 204.722 101.426 207.056 101.536C207.142 101.545 207.01 102.025 207.213 102.041C210.016 102.267 211.764 101.681 214.084 101.329C216.343 100.977 218.173 101.083 219.553 101.896C221.252 101.78 223.788 102.113 225.181 102.311C226.644 102.508 226.793 101.568 226.92 101.547C230.833 100.874 233.081 101.349 237.126 101.261C239.051 101.224 242.833 100.874 244.938 100.643C246.605 100.464 247.638 100.624 249.227 100.43C249.442 100.405 249.211 99.9955 249.276 99.9774C251.062 99.4315 250.221 100.475 250.594 100.648C250.876 100.783 251.137 100.906 251.395 101.013C252.329 101.415 253.195 101.579 254.951 101.357C255.463 101.292 256.991 99.8559 257.939 99.7996C259.163 99.7292 258.688 100.238 259.968 100.159C260.078 100.153 260.066 99.8274 260.857 99.8756C264.517 100.096 268.475 100.558 272.245 100.861C272.758 100.903 272.143 100.332 272.891 100.386C276.389 100.639 280.2 101.069 283.534 101.699C284.357 101.855 283.795 102.153 283.963 102.28C284.99 103.05 286.655 102.302 286.919 102.316C291.811 102.536 295.687 103.504 300.069 103.897C300.517 103.94 300.968 103.933 301.061 103.9C301.093 103.898 301.029 103.84 300.527 104.048C300.282 104.157 299.893 104.379 299.515 104.787C299.134 105.189 298.854 105.745 298.743 106.129C298.684 106.297 298.576 106.686 298.517 106.844C298.454 107.013 298.38 106.959 298.263 106.687C297.947 105.91 297.629 104.927 297.986 104.21C298.029 104.131 298.662 102.876 297.837 102.064C297.785 102.015 297.51 102.789 297.265 101.616C297.221 101.407 297.16 101.181 297.088 100.935C296.79 99.916 296.208 98.4724 296.169 97.0612C296.152 96.5109 296.585 95.0399 295.375 93.7804C295.29 93.6779 292.952 91.9715 293.647 90.7588C293.762 90.5633 294.901 90.2663 293.633 88.7128C293.388 88.4159 293.398 89.1253 292.888 88.3037C292.1 87.0364 291.623 85.1139 290.415 83.6625C290.207 83.4162 288.941 82.5093 289.037 81.2841C289.051 81.0905 289.538 81.223 289.338 80.6829C288.395 78.1343 286.923 75.683 285.914 73.0982C285.556 72.1841 286.343 72.3488 286.024 71.3596C285.706 70.3699 284.891 68.4714 284.126 67.6577C283.366 66.8539 283.045 68.3542 282.212 66.9891C280.74 64.5882 279.365 62.1515 277.995 59.7124C275.976 56.1314 274.033 52.5661 271.707 49.539C271.121 48.7908 271.342 49.6148 270.453 48.5654C268.968 46.8238 266.827 44.8468 264.302 42.9694C261.127 40.5773 257.786 38.2434 255.786 36.4665C252.84 33.8756 257.218 36.1006 254.836 34.3035C253.674 33.4348 251.749 33.6268 251.435 33.4816C248.356 32.0676 246.571 30.4658 243.827 29.1511C243.261 28.8817 243.578 29.5876 243.098 29.3543C241.459 28.5633 239.86 27.4935 238.288 26.7439C237.585 26.4106 237.553 26.7964 236.922 26.452C235.416 25.636 234.111 24.8412 232.738 23.8301C232.612 23.7375 233.738 23.7687 232.587 23.2152C230.729 22.3249 228.518 20.9784 226.196 20.3775C225.506 20.2012 225.171 20.947 223.989 19.8529C223.748 19.633 224.437 18.9085 222.716 18.9858C222.656 18.9885 222.595 18.9922 222.53 18.997C222.196 19.0117 219.075 19.0378 217.996 17.8866C217.711 17.5794 217.067 16.5041 216.237 16.3695C216.125 16.3545 216.414 16.9109 215.752 16.743C213.425 16.1478 211.018 15.4485 208.555 15.02C207.897 14.9071 208.761 15.5732 207.786 15.3934C205.366 14.9491 202.385 14.2811 199.852 13.695C199.582 13.6322 199.316 13.5698 199.053 13.5082C198.071 13.2771 198.823 13.0284 198.758 12.9748C197.706 12.1065 196.861 12.8768 196.469 12.862C194.007 12.7563 192.242 12.0373 190.002 11.7996C189.384 11.7334 189.753 12.2267 189.625 12.2456C188.299 12.4199 189.363 11.8018 188.574 11.5944C186.357 11.0111 183.843 10.6847 181.557 10.433C180.717 10.3415 181.592 10.9622 180.839 10.8748C176.385 10.3688 171.768 9.78923 167.445 9.09801C166.629 8.96708 167.182 8.6337 167.019 8.52995C165.9 7.80551 164.092 8.48853 163.691 8.53544C161.932 8.73763 161.243 8.38692 159.781 8.30897C159.716 8.30557 159.65 8.30273 159.582 8.30051C151.77 8.04009 142.099 7.46812 134.688 7.24572C128.904 7.06901 123.878 6.91766 118.838 6.94962C115.482 6.99022 112.021 7.02253 108.948 7.60402C108.465 7.70117 109.047 8.10991 108.64 8.20168C107.111 8.54426 105.637 9.06555 103.903 9.75141C99.6395 11.4318 95.4804 13.031 91.5094 15.0291C91.046 15.2618 91.9261 15.3792 91.1952 15.7665C89.6945 16.5656 87.7822 17.5138 86.216 18.2009C85.4489 18.5389 86.229 17.6321 85.4599 17.9822C83.6733 18.7972 81.8508 19.8488 80.2067 21.007C79.5082 21.5022 80.8591 21.213 79.9329 21.8255C74.9999 25.119 70.505 28.854 65.9574 32.8058C64.6808 33.9195 63.384 35.0185 62.0572 36.1048C61.6275 36.4571 60.5854 36.0607 59.8729 37.0167C60.0032 37.2797 60.2351 37.5131 60.4148 37.7552C52.2314 45.8922 43.8504 53.6616 36.1704 62.1136C35.8488 62.4698 36.8012 62.2056 36.1782 62.9008C33.9256 65.4227 31.8155 67.9817 29.7454 70.5071C28.4678 72.073 27.1902 73.5846 25.8098 75.1148C25.4402 75.5273 24.8525 74.7368 24.0105 76.1243C23.8518 76.3804 22.5327 78.4165 22.333 79.0546C22.3093 79.1412 22.9203 79.038 22.482 79.6773C19.9003 83.4328 17.1987 87.2993 14.6674 91.0128C14.2573 91.6148 14.2514 90.7116 13.9571 91.1375C11.8708 94.1671 10.3195 97.8161 8.62676 100.743C7.51692 102.703 7.0805 101.646 5.91338 102.523C5.73999 102.654 5.29685 103.991 4.8387 103.945C3.6627 103.825 2.6515 102.747 1.37702 102.689C1.08239 102.675 0.813146 104.933 0.512819 103.472C0.482794 103.37 0.733229 101.736 0.663802 101.289C0.606711 100.983 0.00231743 101.304 -1.68275e-06 100.707C0.00866651 100.087 0.583411 99.6513 0.713369 98.7038C0.849816 97.7572 0.185513 97.9243 0.865983 96.2086ZM231.64 103.155C232.958 103.565 233.091 101.915 231.703 102.351C231.635 102.374 231.571 103.135 231.64 103.155ZM71.0278 101.038C72.7773 101.8 73.9531 100.758 72.758 100.172C71.54 99.5867 70.4992 100.807 71.0278 101.038ZM53.0115 101.211C55.0136 101.82 55.3815 99.494 53.2078 99.9257C53.0825 99.95 52.8954 101.176 53.0115 101.211ZM7.95415 97.1152C7.91984 97.1317 7.45605 98.061 7.46439 98.0991C7.7006 98.8221 8.63119 96.9518 7.95415 97.1152ZM35.1247 101.518C35.7486 101.84 37.5996 101.498 36.8189 101.096C36.1623 100.772 34.3454 101.117 35.1247 101.518ZM300.756 108.075C300.771 108.109 301.53 108.097 301.494 107.95C301.405 107.53 300.44 107.666 300.756 108.075ZM5.07087 104.705C6.03354 103.67 7.25491 103.18 8.14414 103.061C9.12305 102.92 9.7441 103.172 9.85246 103.415C9.96185 103.681 9.56985 103.908 8.68863 104.311C8.45901 104.419 8.1974 104.541 7.91021 104.689C7.40542 104.952 8.26911 104.061 8.44576 103.754C8.47434 103.688 8.4651 103.643 8.39338 103.633C8.34665 103.627 8.27374 103.636 8.1718 103.665C6.13284 104.313 6.27452 106.101 4.57363 107.417C4.25609 107.657 4.79367 104.912 5.07463 104.696C5.07338 104.699 5.07212 104.702 5.07087 104.705ZM232.451 105.108C232.472 105.129 233.562 105.114 233.578 105.092C234.143 104.551 231.973 104.58 232.451 105.108ZM289.056 67.6357C289.07 67.5551 287.945 65.3481 287.865 65.2972C286.507 64.5631 288.778 69.02 289.056 67.6357ZM160.647 105.881C159.48 106.384 158.086 106.418 157.166 105.74C158.328 105.798 159.492 105.826 160.647 105.881Z" fill="#4C2A29" fill-opacity="0.75"/>
</svg>
