<svg width="337" height="264" viewBox="0 0 337 264" fill="none" xmlns="http://www.w3.org/2000/svg">
<path d="M12.9339 0.00121461C13.1032 0.00192919 12.9222 0.00286588 12.6736 0.00357775C12.5966 0.00380085 12.252 0.00368788 12.1833 0.00384189C12.0493 0.0041431 12.2183 0.00442372 12.0587 0.00472138C12.0041 0.00482002 11.4584 0.00469723 11.4136 0.00480067C11.1724 0.00536749 11.3115 0.00590372 11.1954 0.00647792C10.623 0.00930623 10.4182 0.0120864 10.1695 0.0149493C10.088 0.0158933 9.59266 0.0170408 9.80927 0.0180158C9.83505 0.0181297 10.3141 0.0180618 10.3536 0.0180835C10.958 0.0184231 9.99093 0.0183102 9.86243 0.018532C9.3551 0.0194122 9.31098 0.020391 9.49586 0.021238C9.57592 0.0215984 10.5274 0.0212371 9.99335 0.0216C9.95727 0.0216251 9.44855 0.0215337 9.3943 0.0216325C9.27226 0.0218567 9.36319 0.0222819 9.32288 0.0224556C9.24263 0.0227904 9.24775 0.0228458 9.24195 0.0231624C9.2296 0.0235953 8.97672 0.0241101 9.09199 0.0245745C9.11811 0.0246737 9.6396 0.0245424 9.72834 0.0247005C9.81694 0.0248588 9.77272 0.0252774 9.64979 0.0254185C9.52679 0.0255597 9.11691 0.0254996 9.02296 0.0255246C8.22998 0.0257301 9.32826 0.0262143 9.35542 0.0262766C9.81821 0.0274126 9.19256 0.0283868 9.19435 0.0294531C9.19703 0.0302626 9.40358 0.0311282 9.37525 0.0318984C9.33949 0.0328161 9.0569 0.0335938 9.10548 0.0344853C9.11 0.0345794 9.72316 0.0344692 9.72993 0.0345841C9.80128 0.0358049 9.73444 0.0370173 9.3205 0.0382329C9.27845 0.0383548 8.74011 0.0381977 8.6659 0.0383195C8.22348 0.0390652 7.16068 0.0402451 9.50459 0.040688C9.41306 0.0411931 9.3185 0.0418063 8.84602 0.0422582C8.54192 0.0425496 7.95545 0.0422666 8.2057 0.0426245C8.26146 0.0427052 8.77506 0.0426002 8.81983 0.0427213C9.00786 0.043231 8.8409 0.0437878 9.10627 0.044292C9.16146 0.0443946 9.62166 0.0443666 9.70454 0.0443956C10.3757 0.0446398 9.26623 0.0450464 9.18562 0.045135C8.58445 0.0458099 8.82102 0.0463027 8.80635 0.0469314C8.80268 0.0470773 9.42084 0.0469049 9.43952 0.0470453C9.52812 0.0477734 9.47499 0.0485276 9.20069 0.0492406C9.13819 0.0493992 8.61163 0.0492533 8.55482 0.0493291C8.31074 0.0496633 9.30529 0.0497373 9.0904 0.0500578C9.04638 0.0501254 8.5956 0.0500873 8.54609 0.0500996C7.76894 0.0502925 8.87011 0.0504601 8.89442 0.0505097C9.2266 0.0511373 8.07704 0.0515384 8.23982 0.0521446C8.26045 0.0522172 8.83082 0.0520536 8.85395 0.0522575C9.01141 0.0536157 8.85472 0.0550522 8.39851 0.0563966C8.32835 0.0566057 7.89988 0.0564565 7.84706 0.0564696C7.02177 0.056684 8.12756 0.0568227 8.1692 0.0568909C8.46897 0.0574286 7.54164 0.0579309 8.85871 0.0582962C8.40164 0.0605734 9.14125 0.0628402 7.96132 0.0650986C7.94765 0.0651273 7.40305 0.0650759 7.37813 0.0651331C7.07234 0.0658229 7.91875 0.0656905 8.95393 0.0661469C9.21387 0.0662619 7.96406 0.0666116 7.87245 0.0666426C7.53486 0.0667553 6.72464 0.0666384 6.65926 0.0666761C6.14587 0.0669886 8.82532 0.0669376 8.82618 0.0673591C8.82171 0.0673723 8.32853 0.0673169 8.27949 0.0673523C8.12554 0.0674622 8.32151 0.0675712 8.15175 0.0676787C7.75891 0.0679248 6.45693 0.0680125 7.21468 0.0683884C7.31302 0.068436 8.83292 0.0683633 8.76112 0.0687396C8.73121 0.0688897 8.75726 0.0695537 8.65876 0.0697398C8.56039 0.0699256 8.0706 0.069798 8.04939 0.0698113C7.40173 0.0703121 7.13331 0.0701222 6.17446 0.0703731C5.21922 0.070624 7.49755 0.0705544 7.75184 0.0706567C8.00542 0.0707592 7.47106 0.0711264 7.28529 0.0712166C7.09945 0.0713068 6.78823 0.0711943 6.68306 0.0712745C5.99596 0.0718062 7.81394 0.0715079 8.17555 0.0716831C9.03177 0.0720962 7.34215 0.0724179 7.17659 0.0727961C7.13188 0.0728984 7.5167 0.0728149 7.55269 0.072906C7.69012 0.0732669 7.16292 0.0734839 7.64632 0.0738945C7.72509 0.0739616 8.74093 0.0742935 7.99544 0.0745084C7.88794 0.0745388 7.46689 0.0744523 7.37257 0.0746061C7.23103 0.0748359 7.139 0.0752498 7.27974 0.0754968C7.38387 0.0756791 8.07766 0.0754702 7.86213 0.0756996C7.7659 0.0758017 7.36003 0.0756126 7.21309 0.0758042C7.06619 0.0759948 7.08402 0.0764822 7.09804 0.0766677C7.11236 0.0768528 7.63863 0.0767515 7.67409 0.0767664C7.87718 0.076857 8.13095 0.0772122 8.13032 0.0772436C8.19457 0.0788272 7.30748 0.0802875 7.60109 0.0818293C7.62337 0.0819503 8.17833 0.0818697 8.18745 0.0818882C8.41997 0.0823024 6.94446 0.0819758 6.45058 0.0822652C7.57676 0.0822233 7.37284 0.0823942 7.49635 0.0826859C7.55678 0.0828265 7.99285 0.08275 8.03749 0.0827628C8.69982 0.0829713 7.84433 0.0831165 7.66933 0.0831539C7.02556 0.083292 7.78621 0.0834423 7.35591 0.0835362C6.92883 0.0836301 6.29568 0.083414 6.30379 0.0836939C6.70692 0.0837723 7.76042 0.0835646 7.93117 0.083777C8.577 0.0845786 7.75043 0.086075 7.66456 0.0867195C7.57878 0.0873628 7.65315 0.0875705 7.50746 0.0879453C7.24403 0.0886224 8.02566 0.0883743 8.38343 0.0887947C8.74117 0.0892163 6.81799 0.0890113 6.40456 0.089072C5.99131 0.0891315 6.41671 0.0891964 6.18953 0.0892704C5.96241 0.0893442 5.68131 0.0891845 5.59603 0.089358C5.51083 0.0895316 6.24601 0.0900062 6.6783 0.0900677C7.59413 0.0901978 8.55534 0.0899839 8.2176 0.0904432C8.19756 0.0904697 7.69187 0.0903839 7.64076 0.0904851C7.25146 0.0912885 7.22733 0.0921231 6.88301 0.0929256C6.83488 0.0930359 6.27231 0.0929372 6.23793 0.0930014C5.87811 0.0936703 6.82666 0.0934312 7.88038 0.0937977C6.4781 0.0937155 5.62018 0.0939181 5.6119 0.0944257C5.60643 0.0947309 6.21888 0.0946783 6.65053 0.0948757C6.78065 0.0949349 6.36012 0.0951508 6.64815 0.0951899C7.58966 0.095319 8.64363 0.0951156 8.22395 0.0956389C8.20401 0.0956619 7.68864 0.0955888 7.65742 0.0956681C7.45313 0.0961809 8.43794 0.0962423 8.5572 0.0967967C8.65078 0.0972312 8.05026 0.098004 7.95259 0.0984987C6.37602 0.0984883 6.73703 0.0989556 7.82405 0.0991452C7.77955 0.0994663 7.841 0.0998131 7.69075 0.100123C7.63952 0.10023 7.18306 0.10016 7.13374 0.100174C6.36005 0.10038 7.4176 0.10052 7.45906 0.100589C7.86209 0.10134 7.06055 0.101952 7.84389 0.102669C7.8721 0.102694 8.96723 0.102736 8.16761 0.102927C8.1125 0.10294 7.61423 0.102703 7.5757 0.10304C7.53708 0.103377 6.95001 0.104013 7.45747 0.104481C7.57964 0.104595 8.46867 0.104881 7.77406 0.105111C7.67974 0.105142 7.36565 0.105109 7.19087 0.105153C6.63396 0.105296 7.74087 0.105374 6.80049 0.105542C5.86016 0.10571 5.15592 0.10606 5.80471 0.106532C5.82357 0.106547 6.7009 0.106659 6.68703 0.106807C6.66413 0.107044 6.48136 0.107381 6.48708 0.107628C6.49013 0.107747 7.03491 0.107671 7.04488 0.107692C7.35015 0.108488 6.86448 0.109056 6.6537 0.109909C6.61399 0.110066 7.35688 0.110515 6.76955 0.110818C6.12661 0.111151 3.45207 0.110809 4.08926 0.111574C4.34412 0.111882 7.73726 0.112273 5.97927 0.112827C6.41489 0.113902 5.51515 0.114896 6.13716 0.115974C6.16472 0.116022 7.11172 0.116175 7.09883 0.116289C7.07786 0.116459 6.63525 0.116551 6.6061 0.116672C6.47277 0.117178 6.85146 0.117642 6.79256 0.11813C6.77116 0.118315 6.3135 0.11825 6.28792 0.118471C6.26277 0.118692 6.86542 0.118839 6.57436 0.119138C6.3525 0.119364 5.12071 0.119591 4.97713 0.119891C6.19216 0.119902 6.16713 0.120108 6.48787 0.120474C6.5501 0.120545 6.973 0.120469 7.02425 0.120502C7.24221 0.120638 6.89172 0.120763 7.12898 0.120892C7.18597 0.120923 7.60091 0.120925 7.67091 0.12095C8.28199 0.121168 7.34862 0.121527 7.18611 0.121588C6.56892 0.121824 7.1086 0.121934 6.86556 0.122116C6.62254 0.122296 6.31875 0.122026 6.17128 0.122237C5.86626 0.122675 5.93327 0.123237 5.9142 0.123681C5.90916 0.123859 6.46304 0.123738 6.47518 0.123763C6.61566 0.12413 6.02649 0.124501 7.12978 0.124704C4.27708 0.124958 7.40647 0.124925 6.8354 0.125449C6.78922 0.12549 5.4402 0.125543 5.24215 0.125384C5.04429 0.125226 5.46597 0.124986 5.15725 0.124766C5.0848 0.124714 3.82068 0.124415 3.74411 0.124375C3.14565 0.124056 5.16158 0.124011 5.2723 0.123994C6.4672 0.123802 5.10535 0.123438 5.01125 0.123342C4.58007 0.122903 4.86358 0.12253 4.55581 0.122162C4.3569 0.121922 3.03639 0.121898 3.07681 0.12171C3.21041 0.121083 5.05252 0.120864 3.45529 0.120273C3.11463 0.120146 1.67136 0.120272 2.80624 0.119818C2.87779 0.11979 3.916 0.119452 3.25931 0.119258C3.17651 0.119233 2.75588 0.119234 2.72055 0.119202C2.49199 0.118986 2.82708 0.118841 2.66659 0.118606C2.50611 0.11837 2.26685 0.118087 2.40952 0.117818C2.49482 0.117656 3.2785 0.117448 3.47036 0.117371C4.02307 0.117152 3.11686 0.116917 3.78616 0.116781C4.45882 0.116644 5.48037 0.116912 5.915 0.116553C4.82219 0.11654 3.70054 0.116509 2.60153 0.116488C2.64001 0.115702 2.99338 0.114928 2.9451 0.114139C2.93802 0.114041 2.35052 0.114141 2.32779 0.114036C2.23446 0.113594 2.65326 0.113207 2.48648 0.112749C2.35513 0.112393 1.7331 0.112004 1.57639 0.111633C2.82687 0.111406 2.40236 0.110855 2.51663 0.110454C2.55612 0.110314 2.8901 0.110324 2.99905 0.110224C3.40202 0.109848 2.29698 0.110024 2.12308 0.109921C1.38089 0.109478 3.88208 0.10944 3.82028 0.108919C3.81785 0.108891 2.48461 0.108553 2.40158 0.108507C1.86019 0.108211 2.86563 0.108458 2.96414 0.108273C3.14416 0.107935 3.46256 0.1077 3.07205 0.107304C2.95638 0.107188 2.12539 0.106911 2.76816 0.106687C2.85232 0.106657 3.29301 0.106673 3.31881 0.10665C3.74901 0.106219 2.36432 0.106208 1.89536 0.105962C1.4265 0.105716 2.38237 0.105337 2.65787 0.105259C3.37055 0.105057 2.96244 0.105414 3.03238 0.105425C3.86468 0.105554 3.72139 0.105277 3.79171 0.105065C5.14942 0.105035 5.06792 0.104739 3.85916 0.104846C3.72713 0.104858 3.85374 0.105023 3.79171 0.105065C2.45962 0.104879 2.28902 0.104554 3.53384 0.104195C4.11727 0.104027 4.79752 0.104186 4.54867 0.103675C4.43633 0.103443 3.50148 0.103533 3.24661 0.103328C2.66509 0.102861 3.53715 0.102253 3.39975 0.101772C3.34986 0.101597 2.83813 0.101767 2.78641 0.101647C2.64753 0.10133 3.0315 0.101051 2.83481 0.100732C2.81634 0.100703 2.28066 0.100774 2.27383 0.100675C2.21162 0.0999236 2.55473 0.0992697 2.56424 0.0984856C2.56859 0.0981067 2.27315 0.0974294 2.33255 0.097037C2.43234 0.0963568 3.21129 0.09552 3.02206 0.0949389C2.90093 0.09456 2.36515 0.0946431 2.00009 0.0944807C1.29247 0.0941673 2.55999 0.0936127 2.75626 0.093538C2.76275 0.0935357 2.88906 0.0938618 3.16409 0.0936878C3.73717 0.0935866 2.75874 0.0935417 2.75626 0.093538C2.88305 0.0934889 3.00467 0.0928375 2.90225 0.0927081C2.84628 0.0926378 2.33865 0.0926771 2.31906 0.0926405C1.86478 0.0917694 1.73576 0.0908967 1.97312 0.0900132C1.98337 0.0899977 2.55118 0.0900211 2.56821 0.0899845C2.82067 0.089473 2.12606 0.0891455 1.71366 0.0887237C1.30144 0.0883019 1.4395 0.0879674 2.41428 0.0877177C2.29154 0.0873994 2.72249 0.0869429 2.98398 0.0866801C3.24546 0.0864174 2.14017 0.0863807 2.11832 0.0863576C1.41895 0.0856366 2.0516 0.0852197 2.15006 0.0844717C2.19876 0.084116 2.03844 0.0834106 1.91757 0.0830255C1.8202 0.0827212 2.07923 0.0825378 1.91361 0.0822574C1.89149 0.0822195 1.39935 0.0822578 1.38041 0.0822462C0.791597 0.0819332 1.99469 0.0820836 2.20957 0.082019C2.99094 0.0817848 3.4071 0.08164 3.03952 0.0812393C2.95534 0.0811468 1.22305 0.0808775 1.12174 0.080709C0.993201 0.08049 1.61412 0.0805726 1.46372 0.0803432C1.45142 0.0803236 1.06835 0.0803277 1.08524 0.0801861C1.1586 0.0795289 1.3815 0.0788124 1.34311 0.0781294C1.33934 0.0780361 0.731739 0.0781558 0.716284 0.078021C0.644261 0.0773885 0.666747 0.0766952 0.951146 0.0760791C1.02306 0.0759274 1.44848 0.0760225 1.5748 0.0759896C2.3391 0.0757874 1.22859 0.0755008 1.20743 0.0754535C0.673773 0.0743254 1.67877 0.0734619 1.20029 0.0723121C1.1722 0.0722495 -0.01829 0.0717677 1.00272 0.0715527C1.07065 0.071538 2.11525 0.0713253 1.40103 0.0711373C1.35635 0.0711256 0.818577 0.0712581 0.873388 0.0710269C0.928079 0.0707956 0.568956 0.0704235 1.15982 0.0701056C1.34596 0.0700049 2.38798 0.0697671 1.55735 0.0694669C1.49936 0.0694473 -0.378822 0.0689839 0.917028 0.0688184C1.13034 0.0687916 2.50164 0.0688197 1.79856 0.0684614C1.66225 0.0683929 1.35638 0.0685172 1.16538 0.0683369C0.87101 0.0680605 1.23829 0.0676944 0.627417 0.0673547C0.51927 0.0672955 -0.411488 0.0670433 0.294959 0.066841C0.405601 0.0668094 0.863413 0.0668696 0.914647 0.0667627C1.16041 0.0662548 0.854178 0.0657229 1.17093 0.0652071C1.28224 0.0650244 2.02234 0.0651178 2.22067 0.0649274C2.41894 0.0647369 2.60966 0.0643532 2.27145 0.0641539C1.9331 0.0639546 0.753544 0.0641723 0.659155 0.0638738C0.249216 0.0625756 0.941174 0.0612896 1.04239 0.0599934C1.05751 0.0598011 0.63543 0.0599605 0.627417 0.0596772C0.596016 0.0586327 0.20027 0.0568292 1.09714 0.0559228C1.81549 0.0551966 2.36237 0.0561105 2.65469 0.0555556C2.79414 0.0552878 1.42279 0.0549981 1.37961 0.0549334C0.941056 0.0543019 1.54854 0.053863 1.36216 0.0532946C1.32348 0.0531772 0.767657 0.0532923 0.740881 0.0531924C0.644489 0.0528512 0.892583 0.0524926 0.847204 0.0521665C0.825567 0.0520203 0.401049 0.0520472 0.433814 0.0519126C0.507322 0.0515905 0.685769 0.0513058 1.08365 0.0509918C1.11991 0.0509632 1.64799 0.0511561 1.66764 0.0509178C1.69792 0.0505322 2.09043 0.0500535 1.68509 0.0496098C1.56316 0.0494781 0.59293 0.049473 1.26297 0.04919C1.40292 0.0491306 2.56795 0.0492064 1.56131 0.0488767C1.39403 0.0488213 0.0362664 0.0482675 0.911473 0.0479958C1.14182 0.0479241 2.09517 0.0477411 1.94534 0.0475828C1.92144 0.0475613 1.40029 0.0476473 1.34946 0.0475161C1.17938 0.0470538 1.23498 0.0465693 1.07175 0.0460943C1.02713 0.0459674 0.487853 0.0461563 0.438575 0.0459673C0.302267 0.0454475 0.439577 0.0447984 0.608374 0.0442901C0.67163 0.0441026 1.11835 0.0442322 1.16697 0.0442186C1.95769 0.0439992 0.890394 0.0438696 0.828161 0.0437968C0.455513 0.0433441 0.956866 0.0429994 0.824193 0.0425822C0.788933 0.042467 0.280034 0.0425487 0.234657 0.0425257C-0.208712 0.042288 0.705204 0.0424651 0.805944 0.0423146C1.09119 0.0418931 1.05029 0.0414232 0.985265 0.0409968C0.960631 0.0408403 0.370551 0.0410163 0.355262 0.0408757C0.253581 0.040044 0.310045 0.0391793 0.635351 0.0383676C0.697674 0.0382148 1.15205 0.0383109 1.25583 0.0382791C1.98191 0.0380595 0.991532 0.0377378 0.897191 0.0376637C0.466432 0.0373271 0.868248 0.0371963 0.793249 0.0368991C0.419836 0.0354468 0.685964 0.0336536 0.850377 0.0322827C1.06198 0.0304963 1.49424 0.0291101 1.38199 0.0274066C1.37543 0.0272983 0.770963 0.0274075 0.757543 0.0273142C0.611826 0.0261092 0.848026 0.0249229 0.673437 0.0237155C0.660182 0.0236164 0.0871456 0.0237592 0.046608 0.0236002C-0.0405582 0.023274 -0.00941159 0.0228608 0.173561 0.022531C0.261721 0.0223701 0.753437 0.0225859 0.832128 0.022424C1.01648 0.022047 1.05729 0.0216428 0.965428 0.0212556C0.925086 0.0210908 0.339016 0.0213394 0.332252 0.0211252C0.274109 0.019666 0.173172 0.018233 0.932103 0.0167584C0.984226 0.0166573 2.17535 0.0165686 1.94693 0.0163537C1.61636 0.0163375 1.22751 0.0163384 0.874181 0.0163313C0.683849 0.0142071 1.09677 0.0121046 1.16062 0.00997447C1.16317 0.00988466 0.532056 0.0100399 0.533789 0.00986599C0.54312 0.00885962 0.368281 0.00788237 0.99558 0.00685297C1.05693 0.00675083 2.16722 0.00680323 1.9993 0.00650224C1.96866 0.00644916 1.82058 0.00599583 1.57956 0.00587862C1.54321 0.0058627 1.02497 0.00594541 1.00986 0.00579933C0.931165 0.00495043 1.04948 0.00406083 1.36612 0.0032134C1.41822 0.00307664 1.9701 0.00322229 2.01199 0.00312487C2.30496 0.00243387 1.88543 0.00168226 2.38651 0.00102198C2.7239 0.000580012 3.67787 0.000743642 4.61691 0.000508785C4.74939 0.000475567 4.77038 0.000201886 5.31673 0.000187733C6.69058 0.000151398 8.19493 0.000283961 9.65931 0.000229567C9.97473 0.000218075 9.635 -0.000148454 10.3972 6.85547e-05C10.4482 8.3715e-05 10.7012 0.000349451 10.9598 0.000414902C11.1386 0.000460471 11.6942 0.000378354 11.923 0.000471329C12.1517 0.000564297 11.6859 0.000666456 11.9548 0.000820595C12.227 0.000974665 12.8591 0.000906919 12.9339 0.00121461ZM4.15274 0.0854971C4.68354 0.0852538 2.73942 0.0852179 3.20456 0.085481C3.22935 0.0854938 4.1267 0.0855096 4.15274 0.0854971ZM4.4598 0.114932C5.31729 0.114614 4.05644 0.114397 3.39419 0.114621C2.73266 0.114845 4.19986 0.115029 4.4598 0.114932ZM5.08584 0.11823C5.76193 0.117859 3.0051 0.1178 3.5624 0.118198C3.5939 0.118221 5.04658 0.118252 5.08584 0.11823ZM4.8843 0.00159793C4.91012 0.00159457 4.93528 0.00139784 4.90969 0.00139314C4.29224 0.00128838 4.24236 0.00168177 4.8843 0.00159793ZM5.76742 0.121503C6.14034 0.121387 5.70984 0.121053 5.24612 0.121197C4.87306 0.121313 5.30352 0.121648 5.76742 0.121503ZM6.22762 0.0728063C6.25659 0.0728025 6.28268 0.0726614 6.11892 0.0726643C5.59148 0.0726738 5.74034 0.0728701 6.22762 0.0728063ZM5.79915 0.127066C5.90292 0.126244 8.1802 0.125745 7.92323 0.12664C7.87674 0.126802 7.19703 0.126291 6.99172 0.126497C6.61767 0.126875 8.04753 0.127125 7.28133 0.127511C7.14109 0.12758 5.78817 0.127112 5.79598 0.127064C5.79704 0.127065 5.7981 0.127065 5.79915 0.127066ZM6.48787 0.085357C6.51358 0.0853521 6.53796 0.0851569 6.51247 0.0851522C5.89527 0.0850465 5.8458 0.0854398 6.48787 0.085357ZM7.4297 0.0645762C7.48448 0.0645654 7.53572 0.0641123 7.48524 0.0640975C6.47595 0.0638611 6.36938 0.0647772 7.4297 0.0645762ZM7.91054 0.0985065C8.53144 0.0987195 8.60455 0.0989744 7.82484 0.0991442C7.86623 0.0989325 7.87233 0.0987194 7.91054 0.0985065Z" fill="#171717" fill-opacity="0.75"/>
<path d="M213.091 200.3C212.065 201.598 210.578 202.928 209.381 203.885C209.01 204.181 209.035 203.86 208.772 204.057C208.251 204.448 207.895 204.935 207.381 205.29C207.206 205.41 207.163 204.987 206.985 205.118C206.023 205.829 205.256 206.666 204.327 207.432C202.867 208.635 201.436 209.823 200 211.023C196.89 213.617 193.766 216.113 190.579 218.635C189.039 219.853 187.007 221.138 185.533 222.531C185.361 222.694 185.658 222.831 185.639 222.878C185.332 223.615 185.133 223.007 184.729 223.239C183.122 224.164 181.544 225.438 180.27 226.651C179.729 227.168 180.678 227.137 179.892 227.366C179.838 227.383 179.782 227.022 179.604 227.127C179.2 227.367 178.56 227.978 178.271 228.189C177.71 228.597 177.622 228.676 177.121 229.095C176.433 229.668 175.525 230.236 174.838 230.92C174.693 231.066 175.108 231.132 174.896 231.387C174.686 231.639 174.014 232.184 173.744 232.319C173.475 232.453 173.403 232.181 173.326 232.171C172.688 232.079 172.376 233.251 172.293 233.347C170.726 235.108 168.983 236.165 167.404 237.669C166.204 238.815 165.045 240.149 163.993 241.273C163.442 241.86 162.917 242.407 162.449 242.929C161.828 243.629 161.26 244.329 160.833 245.121C160.755 245.266 161.176 245.284 161.089 245.453C160.582 246.381 160.502 247.228 160.568 247.284C160.511 247.433 161.294 248.064 162.321 248.439C162.529 248.521 162.167 248.768 162.372 248.869C163.643 249.498 166.038 250.41 167.099 249.078C167.509 249.146 167.959 249.218 168.41 249.309C169.107 249.448 169.785 249.625 170.321 249.874C170.91 250.143 170.268 250.419 171.036 250.37C171.208 250.359 171.034 250.016 171.29 250.024C172.354 250.058 173.503 250.341 174.577 250.358C174.796 250.361 174.785 250.072 174.854 250.032C175.434 249.711 176.153 250.534 176.33 250.618C177.654 251.239 178.686 251.297 179.984 251.582C180.282 251.648 180.009 251.2 180.299 251.25C181.809 251.519 183.337 251.906 184.752 252.424C185.064 252.539 184.693 252.782 184.837 252.853C185.469 253.163 185.782 252.61 186.393 252.899C186.522 252.959 186.378 253.209 186.395 253.245C186.662 253.805 187.176 253.236 187.278 253.246C188.588 253.368 189.23 254.266 190.467 254.481C190.615 254.506 190.375 254.082 190.787 254.173C193.544 254.781 196.366 255.602 198.999 256.352C199.412 256.467 199.068 256.675 199.088 256.712C199.438 257.288 199.826 256.659 199.965 256.655C201.063 256.639 202.02 257.315 202.813 256.56C205.249 256.899 207.684 256.693 210.021 256.14C211.91 255.695 213.82 254.882 215.793 254.149C215.848 254.128 215.921 254.471 216.031 254.427C217.349 253.882 216.861 253.556 217.3 252.536C217.41 252.28 218.425 252.541 218.509 252.552C218.815 252.6 218.888 253.148 218.975 253.14C219.69 253.047 218.695 251.73 219.4 251.252C219.423 251.239 219.501 251.553 219.578 251.537C219.817 251.489 219.936 251.26 220.175 251.221C220.722 251.135 221.342 251.68 221.7 250.849C221.744 250.742 221.077 250.073 221.729 249.654C221.988 249.49 223.077 248.664 223.416 248.482C223.758 248.3 223.73 248.698 223.759 248.693C224.828 248.383 224.611 248.754 225.384 248.907C226.156 249.056 225.187 248.032 225.26 247.778C225.334 247.525 226.133 247.322 226.352 247.296C226.57 247.271 226.503 247.566 226.675 247.515C227.805 247.17 226.627 246.669 226.776 246.27C227.125 245.327 228.289 245.733 228.968 245.325C229.152 245.215 228.869 245.137 229.003 245.002C229.537 244.471 230.091 244.445 230.574 243.682C230.653 243.557 230.803 242.639 231.439 242.721C231.529 242.733 231.55 243.048 231.836 242.895C232.264 242.666 232.973 242.177 233.322 241.791C233.58 241.506 232.975 241.44 233.432 241.249C233.635 241.164 233.481 241.603 233.85 241.428C234.216 241.255 235.008 240.621 235.307 240.379C235.606 240.135 235.241 240.009 235.252 239.973C235.324 239.758 235.815 239.182 235.867 239.143C238.07 237.408 240.41 236.157 242.653 234.668C243.059 234.399 243.451 234.126 243.845 233.834C244.05 233.683 243.721 233.491 243.75 233.465C244.395 232.871 244.324 234.003 244.991 233.93C244.539 233.398 244.907 233.307 245.376 232.914C245.601 232.724 245.322 232.585 245.329 232.547C245.469 231.972 246.016 232.248 246.138 232.297C246.594 232.476 246.602 231.916 246.911 232.033C247.218 232.15 247.045 232.721 247.536 232.404C247.541 232.107 246.828 231.791 247.147 231.465C248.344 230.233 251.273 229.037 252.45 228.398C253.623 227.757 253.975 227.497 254.692 227.178C255.989 226.602 255.295 226.453 255.942 225.818C256.584 225.188 256.817 226.423 257.053 226.579C257.289 226.736 257.274 226.442 257.476 226.486C257.677 226.53 257.481 226.845 257.815 226.711C258.157 226.572 258.778 225.686 258.754 225.392C258.702 224.77 258.018 224.484 258.949 224.181C259.002 224.164 259.007 224.522 259.202 224.444C260.764 223.807 262.258 222.952 263.768 222.235C263.974 222.137 263.992 222.538 264.114 222.483C265.397 221.9 264.673 221.678 264.88 220.73C265.177 221.345 265.632 221.61 266.237 221.341C266.414 221.257 266.59 221.14 266.772 220.959C267.258 220.44 266.913 220.238 266.842 219.787C266.824 219.724 266.909 219.619 266.943 219.489C266.981 219.363 266.956 219.219 266.86 219.22C266.548 219.226 266.291 219.412 266.108 219.494C265.906 219.576 265.931 219.688 265.715 219.356C265.692 219.324 265.978 219.139 265.879 219.045C265.153 218.44 264.75 218.953 263.718 218.597C262.91 218.329 261.534 217.443 260.583 217.046C260.921 216.136 259.934 216.026 259.346 216.529C258.721 216.281 258.04 216.082 257.451 215.776C257.257 215.674 257.485 215.457 257.469 215.419C257.231 214.83 256.73 215.342 256.588 215.318C256.286 215.263 255.998 215.181 255.717 215.085C254.606 214.704 253.701 214.116 252.444 214.063C252.388 214.061 252.075 214.664 251.87 214.064C251.858 214.023 252.43 213.908 251.775 213.64C251.134 213.377 250.012 212.571 248.998 212.523C248.75 212.51 248.001 212.812 247.705 212.243C247.666 212.167 247.799 212.01 247.751 211.877C247.593 211.451 247.201 212.031 247.081 211.367C246.959 210.702 246.437 210.04 245.375 210.063C245.342 210.063 244.935 210.486 244.65 210.368C244.194 210.179 243.583 209.826 243.101 209.645C242.87 209.559 242.897 209.928 242.855 209.919C241.243 209.503 240.251 208.803 238.642 208.047C238.348 207.908 237.312 208 236.855 207.437C236.352 206.821 237.603 205.538 235.982 205.336C235.327 205.252 233.822 206.911 233.136 205.49C230.954 204.942 229.227 203.689 226.996 203.253C226.895 203.233 226.391 203.665 226.174 203.575C225.854 203.44 225.764 203.115 225.536 203.01C224.589 202.566 223.595 202.442 222.666 202.058C222.307 201.91 222.531 201.693 222.107 201.519C221.691 201.349 221.261 201.585 220.749 201.206C220.489 201.017 220.322 200.583 220.091 200.223C219.959 200.026 219.807 199.85 219.613 199.746C219.339 200.443 218.935 200.279 218.16 200.213C218.012 200.201 218.069 200.497 217.995 200.504C217.68 200.535 217.506 200.244 217.211 200.295C217.139 200.307 217.053 200.547 216.987 200.57C216.43 200.772 215.925 199.989 215.835 199.853C215.504 199.337 215.168 199.574 214.868 199.314C214.555 199.051 215.153 199.055 214.762 198.828C213.96 198.36 212.834 198.037 211.955 197.754C211.598 197.641 211.742 198.042 211.689 198.033C210.939 197.893 210.294 197.329 209.709 197.872C209.664 196.039 209.225 197.908 208.267 197.302C208.193 197.254 208.283 196.421 208.637 196.384C208.99 196.347 209.418 196.728 209.909 196.667C210.029 196.653 210.848 196.077 210.941 196.056C211.701 195.894 211.429 197.11 211.445 197.186C211.612 198.003 212.585 197.428 212.797 197.435C213.751 197.459 214.448 197.873 215.228 197.936C215.745 197.981 216.047 197.226 216.421 197.38C217.641 197.887 217.686 199.106 219.179 198.595C219.495 198.486 219.565 197.567 220.209 198.541C220.23 198.572 220.352 198.8 220.54 198.99C220.716 199.175 220.954 199.323 221.215 199.204C221.281 199.174 221.368 198.931 221.44 198.934C221.916 198.958 222.117 199.252 222.621 199.333C223.106 199.407 223.724 199.479 224.212 199.755C224.511 199.923 224.749 200.527 224.857 200.693C225.162 201.171 225.821 200.823 225.937 201.307C226.057 201.794 225.314 202.186 225.919 202.7C226.182 202.081 226.486 201.457 226.767 200.841C228.29 201.441 229.716 202.216 231.258 202.773C231.45 202.842 231.384 202.429 231.593 202.494C232.47 202.768 233.129 203.296 234.057 203.541C234.773 203.729 235.666 203.662 236.421 203.848C236.585 204.735 237.747 204.901 238.497 205.264C238.76 205.391 238.669 205.576 238.838 205.713C239.478 206.224 239.38 205.458 239.618 205.435C240.639 205.337 240.162 206.803 241.186 207.155C241.24 207.174 242.188 206.659 242.296 206.645C242.987 206.553 242.289 206.948 242.626 207.142C243.241 207.496 243.626 207.853 244.48 207.922C244.727 207.94 245.45 207.669 245.742 208.203C245.781 208.273 245.653 208.515 245.693 208.547C246.432 209.112 246.759 208.325 247.335 208.235C247.917 208.147 248.438 208.974 248.53 209.19C248.769 209.749 248.162 209.25 248.128 209.284C247.698 209.668 248.264 209.789 248.661 209.985C248.426 210.789 249.015 210.958 249.071 210.184C249.076 210.099 248.73 210.052 248.661 209.985C249.309 209.353 249.981 209.495 250.402 210.471C250.601 210.929 250.152 211.208 251.192 211.434C251.665 211.537 251.696 210.935 252.147 210.936C253.175 210.937 254.169 211.877 255.134 212.139C255.483 212.233 255.262 211.817 255.503 211.871C255.937 211.967 256.312 212.202 256.695 212.366C256.877 212.443 257.065 212.507 257.268 212.54C257.328 212.549 257.303 212.19 257.495 212.254C258.954 212.735 260.173 213.381 261.71 213.928C262.453 214.191 263.866 214.501 264.655 214.849C265.346 215.153 266.085 215.587 266.891 216.152C267.295 216.448 267.727 216.744 268.25 217.323C268.503 217.614 268.798 218.014 268.98 218.577C269.168 219.135 269.15 219.798 269.039 220.242C268.889 220.838 268.742 221.093 268.667 221.305C268.583 221.515 268.565 221.626 268.552 221.74C268.527 221.962 268.593 222.103 268.477 222.393C268.341 222.737 268.079 222.999 267.782 223.188C267.157 223.58 266.422 223.608 266.272 223.614C266.27 223.613 266.829 223.112 266.409 223.208C266.018 223.056 266.277 223.608 266.272 223.614C266.138 223.623 264.895 224.356 264.697 224.548C264.587 224.658 264.825 224.877 264.764 224.93C263.312 226.168 261.775 227.149 260.115 227.95C260.084 227.961 259.95 227.634 259.879 227.664C258.884 228.064 258.509 228.777 257.889 229.435C257.262 230.095 256.63 230.369 255.88 230.116C255.353 230.515 254.413 230.767 253.861 230.91C253.317 231.049 253.602 231.672 253.568 231.708C252.523 232.842 251.591 232.955 250.253 233.716C249.617 234.076 248.446 234.932 247.823 235.422C247.329 235.809 246.929 235.878 246.502 236.278C246.444 236.332 246.675 236.543 246.662 236.566C246.326 237.217 246.177 236.431 245.994 236.392C245.327 236.255 244.94 236.202 244.377 236.848C244.342 236.889 244.325 237.005 244.315 237.158C244.295 237.569 244.328 238.247 244.151 238.423C243.834 238.737 243.752 238.329 243.429 238.666C243.401 238.694 243.542 238.883 243.304 239.037C242.2 239.755 240.946 240.503 239.851 241.358C239.701 241.474 240.121 241.626 239.907 241.799C238.91 242.608 237.78 243.465 236.676 244.109C236.403 244.266 236.395 243.94 236.294 243.92C235.677 243.807 235.635 244.71 235.566 244.781C233.944 246.48 232.161 247.116 230.458 248.836C230.368 248.929 230.025 250.131 229.283 249.914C229.232 249.9 228.487 249.667 228.443 250.257C228.441 250.294 228.864 250.384 228.459 250.656C228.056 250.926 227.563 251.585 226.811 251.7C226.571 251.738 225.783 251.532 225.584 252.318C225.574 252.371 225.464 253.892 224.708 253.456C224.584 253.383 224.135 252.668 223.771 253.466C223.701 253.619 224.026 253.617 223.783 253.937C223.405 254.431 222.639 254.694 222.237 255.424C222.168 255.552 222.038 256.332 221.421 256.219C221.325 256.2 221.28 255.893 221.067 255.995C220.064 256.474 219.161 257.261 218.063 257.665C217.672 257.809 217.629 257.31 217.204 257.408C216.776 257.508 215.977 257.797 215.659 258.184C215.344 258.57 216.112 259.006 215.512 259.357C214.234 260.09 212.792 260.625 211.197 260.939C209.61 261.243 207.997 261.347 206.413 261.403C205.959 261.416 206.349 261.661 205.675 261.69C203.179 261.845 199.013 261.539 197.196 260.587C195.735 259.844 197.737 259.904 196.605 259.491C196.06 259.291 195.277 259.981 195.134 259.976C193.748 259.94 192.933 259.354 191.744 259.175C191.5 259.138 191.65 259.529 191.443 259.493C190.726 259.374 190.047 259.042 189.376 258.898C189.08 258.835 189.069 259.102 188.804 259.013C188.162 258.801 187.629 258.55 187.056 258.15C187.004 258.114 187.474 257.899 186.996 257.764C186.237 257.55 185.339 257.074 184.392 257.097C184.107 257.104 183.962 257.683 183.499 257.146C183.401 257.034 183.722 256.373 182.917 256.817C182.777 256.889 181.501 257.446 181.078 256.798C180.969 256.628 180.738 255.974 180.401 255.993C180.355 255.998 180.457 256.349 180.189 256.322C179.248 256.221 178.287 255.983 177.333 255.895C177.076 255.871 177.386 256.271 177.005 256.227C175.957 256.104 174.69 255.785 173.699 255.513C173.33 255.411 173.635 255.184 173.613 255.15C173.248 254.595 172.89 255.203 172.74 255.218C171.806 255.3 171.163 254.892 170.32 254.856C170.086 254.846 170.206 255.179 170.157 255.2C169.643 255.405 170.075 254.896 169.78 254.794C169.169 254.578 168.489 254.473 167.812 254.41C167.592 254.389 167.37 254.373 167.152 254.359C166.832 254.338 167.15 254.739 166.862 254.716C165.148 254.581 163.256 254.379 161.259 253.685C160.885 253.55 161.198 253.341 161.135 253.259C160.714 252.695 159.689 252.979 159.431 252.927C158.352 252.74 158.019 252.316 157.03 251.529C156.007 250.737 155.02 249.01 154.96 247.466C154.86 245.922 155.252 244.774 155.633 243.854C156.435 242.029 157.451 240.773 158.378 239.667C158.766 239.214 159.182 238.757 159.547 238.371C162.322 235.48 164.647 233.725 167.276 231.243C167.442 231.088 167.023 230.965 167.163 230.828C168.995 229.063 170.975 227.541 172.83 225.821C172.983 225.68 172.526 225.605 172.765 225.37C173.253 224.884 173.921 224.344 174.524 223.984C174.815 223.809 174.666 224.33 174.956 224.15C175.629 223.731 176.294 223.207 176.876 222.646C177.124 222.407 176.495 222.463 176.835 222.173C179.148 220.195 181.408 218.248 184.059 216.659C184.24 216.551 184.851 216.997 185.105 216.604C185.001 216.426 184.847 216.243 184.719 216.066C188.03 213.166 191.542 210.583 194.82 207.741C194.956 207.623 194.466 207.538 194.727 207.308C195.086 206.992 195.441 206.667 195.776 206.359C196.946 205.285 198.101 204.238 199.494 203.353C199.673 203.239 200.059 203.813 200.438 203.321C200.514 203.224 201.122 202.533 201.202 202.255C201.211 202.216 200.867 202.101 201.083 201.886C202.321 200.659 203.691 199.454 205.041 198.393C205.266 198.216 205.29 198.67 205.452 198.546C206.571 197.69 207.454 196.421 208.507 195.688C209.197 195.203 209.444 195.817 210.172 195.831C210.289 195.82 210.558 195.461 210.847 195.619C211.624 195.97 212.23 196.747 213.069 197.107C213.166 197.125 213.309 196.943 213.521 196.499C213.569 196.398 213.633 196.228 213.674 196.081C213.726 195.897 213.751 195.7 213.775 195.65C213.835 195.494 213.885 196.249 213.814 196.657C213.797 196.756 213.658 197.151 213.571 197.396C213.48 197.659 213.408 197.888 213.415 198.013C213.43 198.178 213.841 198.199 213.797 198.493C213.748 198.788 213.361 198.814 213.249 199.204C213.132 199.598 213.535 199.733 213.091 200.3ZM251.403 231.558C250.804 231.541 251.367 232.6 251.679 232.073C251.693 232.046 251.433 231.558 251.403 231.558ZM229.384 203.056C229.818 203.786 230.512 203.22 230.224 202.674C229.932 202.127 229.253 202.835 229.384 203.056ZM222.834 201C223.416 201.66 224.12 200.112 223.223 200.144C223.171 200.145 222.8 200.961 222.834 201ZM208.882 197.561C208.899 197.568 209.18 197.286 209.176 197.267C209.039 196.855 208.479 197.416 208.882 197.561ZM216.287 199.085C216.446 199.383 217.18 199.358 216.994 198.991C216.85 198.697 216.092 198.716 216.287 199.085ZM229.348 245.77C229.33 245.761 229.091 245.93 229.158 246.005C229.375 246.247 229.637 245.923 229.348 245.77ZM205.111 195.985C206.808 196.353 207.488 197.95 205.739 197.429C205.42 197.338 206.525 197.128 206.137 196.922C205.411 196.545 204.754 197.327 204.046 196.729C203.918 196.62 205.014 195.96 205.114 195.984C205.113 195.984 205.112 195.985 205.111 195.985ZM250.405 230.484C250.389 230.475 250.034 230.676 250.033 230.695C250.045 231.133 250.759 230.73 250.405 230.484ZM215.017 254.947C214.983 254.931 214.149 255.321 214.133 255.36C213.968 256.14 215.695 255.336 215.017 254.947ZM260.576 217.016C260.038 217.232 259.518 217.098 259.348 216.53C259.749 216.697 260.173 216.849 260.576 217.016Z" fill="#F4E26F" fill-opacity="0.41"/>
<path d="M213.935 205.755C213.042 206.356 211.643 207.135 210.552 207.719C210.203 207.907 210.244 207.617 210.003 207.737C209.525 207.977 209.191 208.35 208.713 208.585C208.555 208.662 208.526 208.264 208.364 208.351C207.471 208.836 206.764 209.496 205.925 210.081C201.76 212.991 197.973 216.335 194.2 219.928C194.2 219.928 194.2 219.928 194.2 219.928C192.919 221.153 191.166 222.42 189.932 223.755C189.788 223.912 190.082 224.04 190.069 224.086C189.861 224.788 189.609 224.21 189.252 224.433C187.84 225.318 186.482 226.511 185.388 227.641C184.923 228.123 185.812 228.114 185.091 228.316C185.042 228.33 184.96 227.984 184.801 228.081C184.442 228.3 183.89 228.864 183.633 229.058C183.137 229.43 183.062 229.5 182.62 229.884C182.014 230.407 181.197 230.913 180.597 231.531C180.469 231.663 180.863 231.746 180.679 231.979C180.495 232.211 179.892 232.698 179.647 232.811C179.4 232.925 179.319 232.661 179.246 232.648C178.64 232.528 178.408 233.623 178.332 233.711C176.936 235.295 175.325 236.175 173.847 237.46C172.778 238.39 171.706 239.481 170.695 240.375C170.647 240.417 170.6 240.459 170.553 240.5C169.295 241.597 168.097 242.419 167.09 243.536C166.987 243.651 167.388 243.773 167.263 243.915C166.607 244.621 166.153 245.506 166.195 245.483C166.181 245.457 166.111 245.482 166.273 245.734C166.425 245.969 166.732 246.28 167.088 246.584C167.233 246.707 166.846 246.854 166.988 246.997C167.643 247.66 168.803 248.662 169.887 248.658C170.232 248.653 170.58 248.547 170.9 248.289C171.707 248.672 172.717 249.104 173.401 249.651C173.833 249.999 173.231 250.173 173.899 250.24C174.05 250.255 173.969 249.894 174.189 249.939C175.092 250.125 176.039 250.539 176.955 250.653C177.144 250.677 177.179 250.391 177.245 250.358C177.797 250.097 178.291 250.96 178.438 251.056C179.505 251.761 180.422 251.872 181.52 252.186C181.776 252.259 181.574 251.809 181.824 251.866C183.116 252.166 184.441 252.548 185.658 253.028C185.931 253.136 185.593 253.385 185.719 253.453C186.275 253.747 186.552 253.185 187.091 253.452C187.204 253.508 187.071 253.761 187.086 253.796C187.315 254.344 187.773 253.756 187.864 253.763C189.026 253.829 189.581 254.682 190.687 254.825C190.82 254.842 190.604 254.435 190.971 254.501C193.415 254.941 195.961 255.545 198.334 256.237C198.703 256.344 198.39 256.558 198.408 256.594C198.709 257.16 199.074 256.531 199.201 256.526C200.197 256.504 201.021 257.206 201.798 256.499C203.674 256.9 205.576 257.1 207.456 257.255C209.664 257.436 211.823 257.554 214.027 257.839C214.079 257.845 214.002 258.184 214.107 258.194C215.369 258.31 215.097 257.801 215.846 257.094C216.025 256.917 216.732 257.61 216.796 257.657C217.023 257.838 216.877 258.359 216.95 258.39C217.559 258.628 217.247 257.01 217.97 256.893C217.994 256.892 217.946 257.208 218.014 257.227C218.224 257.288 218.393 257.136 218.599 257.204C219.073 257.36 219.394 258.116 219.965 257.509C220.035 257.429 219.699 256.553 220.348 256.436C220.609 256.396 221.721 256.059 222.048 256.009C222.376 255.965 222.259 256.321 222.285 256.326C223.261 256.415 222.992 256.68 223.63 257.076C224.276 257.461 223.653 256.196 223.765 255.985C223.879 255.775 224.609 255.828 224.807 255.864C225.003 255.903 224.892 256.161 225.052 256.161C226.118 256.147 225.153 255.353 225.344 255.02C225.775 254.234 226.747 254.903 227.408 254.659C227.584 254.594 227.337 254.459 227.47 254.36C227.997 253.969 228.503 254.05 228.985 253.406C229.065 253.301 229.237 252.456 229.809 252.631C229.891 252.656 229.9 252.96 230.167 252.855C230.565 252.7 231.225 252.324 231.548 251.994C231.785 251.752 231.229 251.619 231.647 251.489C231.833 251.431 231.693 251.834 232.033 251.707C232.1 251.682 232.183 251.64 232.275 251.589C232.64 251.384 233.145 251.009 233.361 250.843C233.63 250.635 233.288 250.484 233.298 250.45C233.358 250.252 233.785 249.742 233.831 249.707C236.114 247.951 238.537 246.685 240.573 244.711C240.732 244.556 240.398 244.393 240.42 244.367C240.902 243.765 241.04 244.843 241.642 244.726C241.13 244.252 241.45 244.142 241.804 243.733C241.974 243.536 241.692 243.426 241.691 243.39C241.71 242.832 242.256 243.053 242.379 243.088C242.831 243.218 242.728 242.684 243.033 242.768C243.336 242.85 243.298 243.405 243.679 243.059C243.622 242.778 242.906 242.548 243.127 242.21C243.96 240.941 246.315 239.459 247.209 238.68C248.102 237.906 248.342 237.609 248.9 237.194C249.905 236.443 249.24 236.419 249.636 235.721C250.028 235.024 250.596 236.126 250.854 236.229C251.111 236.332 251.012 236.062 251.207 236.065C251.401 236.069 251.316 236.398 251.578 236.21C251.844 236.02 252.141 235.08 252.03 234.813C251.856 234.391 251.424 234.207 251.522 233.954C251.556 233.867 251.652 233.772 251.838 233.657C251.881 233.632 251.994 233.961 252.145 233.851C253.345 232.965 254.403 231.877 255.472 230.862C255.618 230.723 255.781 231.077 255.87 230.997C256.791 230.138 256.063 230.13 255.872 229.247C256.512 229.831 257.191 229.83 257.647 228.931C257.902 228.385 257.508 228.33 257.384 227.899C257.345 227.778 257.703 227.467 257.543 227.354C257.015 227.014 256.361 227.188 256.692 226.501C256.706 226.467 257.017 226.594 257.042 226.475C257.158 225.667 256.532 225.667 256.188 225.042C255.928 224.548 255.407 223.375 254.767 222.787C255.42 222.06 254.589 221.682 253.928 222.044C253.501 221.71 252.988 221.425 252.551 221.075C252.537 221.064 252.523 221.053 252.51 221.041C252.364 220.92 252.611 220.738 252.606 220.7C252.523 220.103 251.971 220.543 251.849 220.506C250.547 220.085 249.745 219.168 248.356 219.085C248.307 219.083 247.965 219.668 247.844 219.081C247.836 219.041 248.348 218.926 247.801 218.666C247.248 218.404 246.292 217.625 245.387 217.61C245.168 217.606 244.475 217.926 244.241 217.381C244.209 217.307 244.334 217.148 244.296 217.019C244.171 216.606 243.799 217.194 243.706 216.543C243.621 215.895 243.155 215.263 242.201 215.349C242.171 215.351 241.799 215.792 241.543 215.693C241.13 215.533 240.59 215.228 240.154 215.084C239.946 215.015 239.971 215.377 239.933 215.371C238.489 215.08 237.59 214.47 236.134 213.868C235.869 213.757 234.935 213.941 234.518 213.432C234.052 212.872 235.139 211.485 233.675 211.443C233.085 211.425 231.784 213.21 231.124 211.881C229.154 211.566 227.549 210.517 225.535 210.333C225.442 210.324 225.013 210.806 224.814 210.741C224.519 210.642 224.43 210.333 224.221 210.255C223.341 209.916 222.467 209.909 221.608 209.628C221.285 209.523 221.476 209.284 221.09 209.159C220.703 209.033 220.338 209.316 219.857 208.994C219.496 208.75 219.301 207.908 218.79 207.673C218.568 208.388 218.206 208.27 217.505 208.279C217.37 208.282 217.434 208.57 217.366 208.583C217.09 208.646 216.926 208.376 216.658 208.453C216.593 208.471 216.521 208.716 216.464 208.745C215.975 208.999 215.498 208.27 215.414 208.143C215.098 207.661 214.813 207.927 214.53 207.693C214.249 207.46 214.778 207.413 214.429 207.222C213.706 206.827 212.692 206.589 211.909 206.361C211.595 206.271 211.719 206.659 211.672 206.654C210.998 206.557 210.436 206.026 209.895 206.582C209.91 204.765 209.457 206.638 208.62 206.043C208.554 205.995 208.681 205.169 208.994 205.129C209.308 205.089 209.667 205.457 210.108 205.381C210.212 205.364 210.948 204.76 211.032 204.734C211.696 204.535 211.448 205.753 211.46 205.827C211.604 206.63 212.473 206 212.659 205.991C213.509 205.951 214.127 206.303 214.827 206.3C215.287 206.301 215.547 205.53 215.875 205.647C216.965 206.035 217.053 207.236 218.364 206.582C218.646 206.443 218.657 205.524 219.28 206.423C219.319 206.48 219.746 207.263 220.199 206.971C220.256 206.934 220.325 206.685 220.388 206.68C220.807 206.651 221.012 206.924 221.457 206.947C221.904 206.97 222.439 206.969 222.898 207.191C223.173 207.323 223.409 207.892 223.514 208.045C223.808 208.482 224.377 208.065 224.506 208.531C224.635 208.999 223.987 209.467 224.55 209.906C224.759 209.267 225.004 208.619 225.229 207.98C226.613 208.403 227.935 209.014 229.335 209.398C229.509 209.445 229.434 209.045 229.625 209.087C230.435 209.267 231.033 209.715 231.884 209.865C232.535 209.977 233.34 209.822 234.027 209.933C234.195 210.79 235.262 210.847 235.94 211.135C236.182 211.237 236.104 211.428 236.261 211.548C236.854 211.997 236.747 211.249 236.962 211.206C237.878 211.019 237.486 212.51 238.41 212.772C238.457 212.785 239.31 212.202 239.411 212.182C240.041 212.04 239.408 212.482 239.716 212.648C240.271 212.95 240.631 213.279 241.402 213.289C241.623 213.29 242.288 212.979 242.553 213.491C242.587 213.559 242.469 213.804 242.505 213.834C243.164 214.347 243.479 213.556 244.011 213.441C244.541 213.326 245.012 214.127 245.089 214.337C245.291 214.88 244.751 214.411 244.715 214.444C244.309 214.84 244.832 214.939 245.183 215.117C244.942 215.919 245.468 216.066 245.547 215.3C245.554 215.215 245.244 215.181 245.183 215.117C245.784 214.468 246.423 214.598 246.757 215.553C246.916 216.003 246.494 216.283 247.432 216.496C247.854 216.594 247.917 215.998 248.339 216.003C249.293 216.011 250.138 216.966 251.005 217.284C251.316 217.397 251.161 216.975 251.379 217.043C251.984 217.239 252.352 217.687 252.963 217.874C253.018 217.891 253.052 217.535 253.225 217.623C253.573 217.798 253.924 218.003 254.235 218.204C255.138 218.791 255.953 219.452 256.919 220.264C257.555 220.777 258.824 221.818 259.329 222.8C260.36 224.44 259.972 227.186 259.544 228.478C259.304 229.387 259.665 229.305 259.707 229.774C259.767 230.71 258.403 231.373 258.226 231.404C258.222 231.409 258.543 230.778 258.195 231C257.785 230.982 258.23 231.395 258.226 231.404C258.103 231.466 257.244 232.488 257.122 232.721C257.06 232.851 257.351 232.988 257.313 233.053C256.465 234.485 255.443 235.662 254.292 236.683C254.202 236.763 254.111 236.842 254.018 236.92C253.993 236.937 253.776 236.66 253.72 236.701C252.939 237.269 252.806 238.003 252.423 238.737C252.038 239.472 251.529 239.847 250.775 239.74C250.403 240.206 249.601 240.604 249.136 240.822C248.67 241.041 249.085 241.584 249.063 241.623C248.375 242.858 247.536 243.103 246.461 243.996C245.949 244.421 245.032 245.372 244.538 245.903C244.149 246.324 243.786 246.429 243.455 246.849C243.41 246.906 243.662 247.088 243.653 247.111C243.444 247.769 243.176 247.024 242.998 247.002C242.352 246.923 241.982 246.902 241.557 247.558C241.459 247.708 241.757 248.849 241.551 249.101C241.284 249.425 241.161 249.031 240.887 249.377C240.863 249.407 241.019 249.584 240.806 249.745C239.819 250.496 238.677 251.232 237.667 252.039C237.528 252.149 237.937 252.307 237.739 252.471C236.813 253.238 235.74 254.016 234.677 254.557C234.415 254.688 234.412 254.37 234.316 254.343C234.278 254.332 234.242 254.326 234.208 254.323C233.722 254.293 233.671 255.056 233.604 255.116C231.988 256.62 230.223 257.017 228.313 258.342C228.217 258.415 227.649 259.516 226.978 259.128C226.931 259.104 226.279 258.696 226.104 259.249C226.092 259.283 226.474 259.481 226.022 259.636C225.575 259.789 224.931 260.282 224.19 260.155C223.952 260.118 223.302 259.666 222.87 260.332C222.854 260.378 222.236 261.762 221.698 261.073C221.611 260.959 221.457 260.133 220.859 260.722C220.743 260.836 221.034 260.962 220.701 261.159C220.183 261.464 219.413 261.388 218.789 261.872C218.678 261.958 218.256 262.606 217.777 262.231C217.704 262.173 217.785 261.878 217.568 261.875C216.528 261.86 215.485 262.142 214.444 262.002C214.079 261.952 214.242 261.488 213.861 261.383C213.486 261.277 212.731 261.178 212.355 261.388C211.969 261.599 212.401 262.324 211.808 262.382C210.198 262.537 208.617 262.353 207.068 262.111C206.151 261.967 205.228 261.801 204.311 261.674C203.949 261.623 204.222 261.916 203.682 261.857C201.694 261.651 198.275 261.362 196.693 260.511C195.431 259.834 197.176 259.808 196.186 259.446C195.709 259.271 195.021 260 194.896 260.003C193.678 260.045 192.944 259.516 191.879 259.411C191.659 259.39 191.8 259.769 191.613 259.746C190.973 259.672 190.348 259.381 189.744 259.276C189.473 259.23 189.466 259.496 189.223 259.421C188.644 259.245 188.145 259.018 187.628 258.646C187.581 258.612 188.006 258.377 187.576 258.264C186.876 258.081 186.065 257.638 185.199 257.681C184.942 257.694 184.791 258.272 184.374 257.742C184.287 257.631 184.6 256.971 183.85 257.42C183.728 257.495 182.505 258.043 182.153 257.391C182.061 257.22 181.877 256.564 181.568 256.576C181.526 256.58 181.598 256.932 181.352 256.898C180.491 256.773 179.623 256.496 178.736 256.346C178.5 256.307 178.748 256.724 178.4 256.655C177.429 256.463 176.287 256.032 175.394 255.645C175.068 255.502 175.384 255.312 175.368 255.276C175.122 254.689 174.691 255.241 174.546 255.235C173.659 255.191 173.134 254.693 172.352 254.512C172.136 254.46 172.182 254.807 172.132 254.82C171.613 254.929 172.116 254.508 171.867 254.356C171.158 253.923 170.309 253.641 169.517 253.378C169.226 253.282 169.416 253.745 169.156 253.654C168.781 253.524 168.361 253.366 167.984 253.21C166.812 252.724 165.631 252.132 164.471 251.252C164.172 251.02 164.522 250.909 164.491 250.814C164.313 250.184 163.271 250.155 163.059 250.039C162.122 249.54 161.912 249.023 161.254 247.86C160.327 246.311 160.646 243.834 161.277 242.729C161.88 241.504 162.534 240.778 163.148 240.109C164.378 238.813 165.532 237.895 166.528 237.061C166.77 236.86 166.995 236.677 167.231 236.486C169.497 234.656 171.439 233.267 173.549 231.36C173.697 231.227 173.302 231.076 173.426 230.958C175.048 229.438 176.786 228.126 178.38 226.589C178.51 226.464 178.082 226.37 178.284 226.16C178.697 225.727 179.276 225.243 179.802 224.929C180.058 224.776 179.963 225.263 180.217 225.104C180.808 224.733 181.376 224.262 181.865 223.749C182.073 223.53 181.495 223.563 181.783 223.3C183.739 221.5 185.61 219.705 187.848 218.204C188.002 218.1 188.622 218.521 188.806 218.147C188.686 217.98 188.518 217.81 188.375 217.645C188.95 217.052 189.536 216.461 190.111 215.885C192.318 213.672 194.657 211.649 197.02 209.566C197.146 209.454 196.67 209.36 196.913 209.143C198.328 207.883 199.675 206.58 201.433 205.642C201.609 205.548 201.953 206.147 202.338 205.703C202.407 205.622 203.014 205.021 203.103 204.763C203.113 204.727 202.791 204.574 203.005 204.395C204.243 203.361 205.667 202.389 207.133 201.621C207.373 201.496 207.329 201.938 207.5 201.852C208.701 201.254 209.803 200.242 211.178 199.87C212.113 199.629 212.065 200.312 212.747 200.638C212.833 200.684 213.391 200.485 213.538 200.799C213.845 201.588 213.933 202.533 214.302 203.36C214.342 203.449 214.427 203.418 214.448 203.446C214.461 203.474 214.444 203.544 214.523 203.767C214.566 203.786 214.423 203.994 214.39 204.182C214.387 204.302 214.595 204.586 214.561 204.753C214.523 204.921 214.293 204.709 214.164 204.957C214.049 205.202 214.305 205.504 213.935 205.755ZM247.038 241.799C246.486 241.864 247.246 242.79 247.412 242.248C247.419 242.22 247.066 241.795 247.038 241.799ZM227.667 209.878C228.085 210.551 228.687 209.919 228.405 209.412C228.122 208.904 227.539 209.674 227.667 209.878ZM221.717 208.567C222.259 209.154 222.828 207.552 222.029 207.682C221.983 207.689 221.685 208.533 221.717 208.567ZM210.923 201.768C210.929 201.782 211.275 201.601 211.272 201.586C211.263 201.153 210.579 201.509 210.923 201.768ZM215.799 207.344C215.944 207.622 216.605 207.531 216.427 207.186C216.283 206.907 215.619 206.998 215.799 207.344ZM227.705 255.162C227.69 255.15 227.454 255.26 227.506 255.346C227.675 255.624 227.953 255.368 227.705 255.162ZM205.92 204.639C207.36 205.101 207.875 206.696 206.328 206.107C206.048 206 207.065 205.846 206.733 205.624C206.126 205.218 205.447 205.944 204.887 205.301C204.786 205.183 205.839 204.609 205.923 204.638C205.922 204.638 205.921 204.638 205.92 204.639ZM245.873 240.918C245.856 240.912 245.581 241.145 245.585 241.162C245.699 241.574 246.254 241.105 245.873 240.918ZM213.095 258.201C213.074 258.17 212.25 258.151 212.225 258.181C211.793 258.809 213.482 258.848 213.095 258.201ZM254.774 222.759C254.252 222.819 253.901 222.612 253.929 222.045C254.221 222.283 254.512 222.509 254.774 222.759Z" fill="#726828" fill-opacity="0.41"/>
<path d="M297.392 201.59C296.048 201.753 294.232 201.773 292.85 201.75C292.422 201.742 292.617 201.511 292.316 201.498C291.713 201.474 291.198 201.632 290.606 201.6C290.414 201.588 290.611 201.228 290.41 201.223C289.283 201.202 288.271 201.417 287.142 201.504C281.625 201.933 276.238 202.918 270.855 204.395C269.083 204.88 266.861 205.318 265.143 206.137C264.942 206.232 265.173 206.459 265.143 206.497C264.67 207.084 264.653 206.451 264.224 206.539C263.737 206.641 263.246 206.776 262.76 206.937C261.555 207.335 260.404 207.914 259.429 208.542C258.849 208.92 259.737 209.094 258.976 209.146C258.923 209.15 258.92 208.792 258.739 208.856C258.333 209 257.654 209.473 257.362 209.628C256.796 209.926 256.703 209.99 256.195 210.324C255.505 210.776 254.602 211.231 253.933 211.835C253.791 211.964 254.187 212.064 253.98 212.293C253.773 212.52 253.134 212.998 252.877 213.115C252.62 213.23 252.547 212.962 252.473 212.949C251.851 212.828 251.58 213.96 251.505 214.051C250.064 215.717 248.477 216.784 247.081 218.334C246.025 219.509 245.041 220.892 244.091 222.067C242.956 223.467 241.896 224.595 240.873 226.042C240.765 226.194 241.198 226.241 241.067 226.427C239.673 228.408 238.233 230.37 236.538 232.192C236.368 232.374 236.296 231.919 236.111 232.089C234.981 233.144 232.987 234.55 233.443 236.187C232.755 236.885 231.87 237.725 231.024 238.177C231.168 238.027 231.318 237.744 231.338 237.482C231.339 236.877 231.149 236.916 231.111 236.909C231.048 236.912 230.999 236.944 230.957 236.965C230.881 237.013 230.793 237.009 230.996 237.112C231.101 237.165 231.218 236.842 231.352 236.928C231.962 237.314 232.894 237.992 233.8 238.317C233.992 238.386 234.084 238.113 234.159 238.096C234.754 237.958 235.148 238.942 235.264 239.058C236.278 240.008 237.196 240.301 238.326 240.862C238.58 240.988 238.444 240.499 238.696 240.608C240.031 241.194 241.347 241.846 242.577 242.598C242.844 242.763 242.448 242.938 242.569 243.032C243.104 243.443 243.515 242.957 244.029 243.336C244.138 243.416 243.956 243.637 243.965 243.675C244.114 244.268 244.7 243.789 244.797 243.816C246.02 244.144 246.478 245.122 247.609 245.514C247.747 245.561 247.59 245.108 247.968 245.259C250.486 246.267 253.079 247.496 255.436 248.811C255.805 249.016 255.426 249.141 255.437 249.181C255.633 249.817 256.161 249.303 256.293 249.331C257.339 249.578 258.062 250.506 259.038 250.039C263.123 252.078 267.467 253.401 271.368 255.807C271.418 255.837 271.194 256.106 271.295 256.165C272.491 256.865 272.447 256.283 273.535 256.044C273.694 256.01 273.879 256.322 274.015 256.606C274.116 256.815 274.188 257.008 274.203 257.04C274.332 257.318 273.928 257.691 273.982 257.757C274.433 258.281 274.974 256.724 275.728 257.019C275.751 257.031 275.54 257.275 275.593 257.328C275.765 257.497 276.009 257.461 276.166 257.632C276.533 258.027 276.42 258.843 277.284 258.646C277.392 258.616 277.555 257.692 278.224 257.95C278.492 258.062 279.686 258.366 280.004 258.477C280.325 258.601 280.042 258.853 280.062 258.87C280.917 259.421 280.548 259.523 280.977 260.168C281.447 260.799 281.401 259.384 281.597 259.239C281.79 259.098 282.462 259.419 282.648 259.515C282.829 259.617 282.626 259.824 282.787 259.876C283.888 260.186 283.156 259.136 283.443 258.873C284.059 258.237 284.866 259.088 285.618 258.935C285.817 258.893 285.583 258.726 285.739 258.645C286.36 258.322 286.872 258.456 287.479 257.843C287.579 257.743 287.874 256.904 288.46 257.116C288.543 257.148 288.512 257.456 288.807 257.368C289.244 257.24 290.002 256.893 290.386 256.579C290.669 256.347 290.098 256.178 290.562 256.069C290.77 256.02 290.559 256.425 290.942 256.313C291.309 256.21 292.151 255.713 292.467 255.518C292.788 255.321 292.447 255.145 292.462 255.111C292.553 254.913 293.08 254.423 293.139 254.389C293.509 254.165 293.865 253.961 294.246 253.751C296.585 252.464 298.967 251.483 301.163 249.959C301.36 249.822 301.046 249.614 301.075 249.59C301.701 249.039 301.621 250.153 302.273 250.109C301.838 249.563 302.202 249.487 302.654 249.12C302.873 248.942 302.602 248.793 302.61 248.756C302.749 248.192 303.274 248.486 303.394 248.538C303.841 248.728 303.845 248.175 304.145 248.301C304.442 248.425 304.281 248.984 304.753 248.685C304.756 248.391 304.061 248.06 304.366 247.746C305.516 246.567 308.313 245.404 309.425 244.752C310.537 244.102 310.858 243.839 311.536 243.507C312.758 242.906 312.08 242.773 312.661 242.13C313.243 241.484 313.551 242.697 313.792 242.844C314.032 242.991 313.996 242.7 314.197 242.736C314.397 242.771 314.225 243.091 314.544 242.944C314.863 242.797 315.407 241.892 315.36 241.603C315.263 240.99 314.58 240.736 315.456 240.399C315.507 240.38 315.538 240.734 315.723 240.648C317.186 239.955 318.575 239.024 320.008 238.279C320.206 238.176 320.243 238.573 320.361 238.516C321.579 237.93 320.856 237.724 321.075 236.773C321.444 237.569 322.074 237.772 322.909 237.174C323.408 236.817 323.1 236.574 323.258 236.129C323.307 235.994 323.812 235.944 323.769 235.755C323.63 235.136 322.923 234.856 323.904 234.445C323.948 234.427 324.021 234.769 324.16 234.689C325.057 234.171 324.784 233.618 325.602 232.888C326.248 232.313 327.657 231.652 328.444 231.055C329.056 231.811 329.626 231.025 329.455 230.278C329.941 229.88 330.407 229.393 330.91 229.025C331.078 228.902 331.181 229.196 331.221 229.199C331.389 229.213 331.491 229.176 331.552 229.112C331.729 228.925 331.593 228.558 331.646 228.474C332.426 227.272 333.624 226.56 333.672 225.186C333.673 225.131 333.066 224.862 333.616 224.728C333.655 224.71 333.849 225.181 334.012 224.643C334.084 224.369 334.226 223.987 334.191 223.553C334.163 223.123 333.926 222.669 333.545 222.456C333.357 222.338 332.665 222.409 332.615 221.838C332.606 221.758 332.774 221.643 332.771 221.506C332.754 221.066 332.243 221.54 332.289 220.884C332.32 220.217 331.872 219.453 330.822 219.407C330.786 219.404 330.359 219.8 330.094 219.674C329.664 219.468 329.092 219.112 328.622 218.933C328.403 218.85 328.422 219.217 328.381 219.208C326.838 218.814 325.871 218.163 324.304 217.462C324.279 217.451 324.248 217.441 324.212 217.433C323.849 217.351 322.977 217.41 322.569 216.91C322.082 216.311 323.285 215 321.721 214.842C321.092 214.777 319.63 216.463 318.971 215.061C316.863 214.558 315.203 213.334 313.053 212.919C312.957 212.9 312.462 213.334 312.251 213.245C311.94 213.111 311.866 212.791 311.646 212.687C310.731 212.246 309.783 212.129 308.885 211.742C308.546 211.596 308.768 211.38 308.361 211.205C307.957 211.032 307.544 211.269 307.054 210.886C306.68 210.594 306.534 209.723 306.009 209.424C305.717 210.113 305.337 209.948 304.582 209.865C304.437 209.85 304.483 210.147 304.41 210.152C304.109 210.179 303.954 209.887 303.66 209.929C303.589 209.939 303.493 210.176 303.43 210.197C302.889 210.389 302.431 209.594 302.35 209.455C302.053 208.932 301.718 209.157 301.442 208.889C301.156 208.617 301.733 208.641 301.368 208.402C300.94 208.118 300.389 207.869 299.857 207.653C299.462 207.492 299.077 207.347 298.732 207.209C298.399 207.077 298.505 207.483 298.454 207.472C297.739 207.289 297.176 206.686 296.554 207.176C296.704 205.355 296.081 207.177 295.225 206.481C295.159 206.426 295.347 205.61 295.692 205.609C296.03 205.605 296.39 206.018 296.87 205.997C296.983 205.992 297.818 205.478 297.915 205.465C298.644 205.35 298.281 206.539 298.289 206.616C298.384 207.439 299.363 206.919 299.567 206.936C299.753 206.949 299.93 206.979 300.103 207.02C300.747 207.17 301.271 207.458 301.87 207.531C302.359 207.59 302.703 206.852 303.044 207.011C304.181 207.543 304.18 208.76 305.637 208.274C305.948 208.17 306.036 207.251 306.629 208.232C306.664 208.293 307.062 209.134 307.571 208.898C307.635 208.868 307.727 208.627 307.796 208.63C308.25 208.656 308.443 208.952 308.917 209.031C309.391 209.109 309.971 209.176 310.441 209.452C310.722 209.618 310.938 210.218 311.039 210.384C311.323 210.858 311.963 210.508 312.067 210.989C312.173 211.474 311.447 211.868 312.022 212.376C312.288 211.758 312.593 211.136 312.876 210.52C314.331 211.105 315.696 211.861 317.178 212.39C317.362 212.455 317.303 212.047 317.504 212.108C318.349 212.366 318.978 212.878 319.87 213.103C320.56 213.274 321.422 213.187 322.146 213.351C322.305 214.23 323.421 214.361 324.146 214.699C324.397 214.816 324.312 215.003 324.476 215.134C324.963 215.517 325.004 215.128 325.112 214.93C325.141 214.877 325.175 214.837 325.224 214.83C326.208 214.698 325.76 216.171 326.761 216.49C326.811 216.506 327.736 215.969 327.843 215.954C328.521 215.848 327.836 216.255 328.172 216.444C328.78 216.788 329.16 217.14 330.017 217.227C330.269 217.252 331.016 217.008 331.303 217.572C331.339 217.646 331.196 217.878 331.235 217.914C331.966 218.543 332.36 217.797 333.007 217.811C333.665 217.828 334.181 218.862 334.232 219.118C334.383 219.768 333.811 219.046 333.758 219.072C333.221 219.335 333.818 219.604 334.203 219.969C333.749 220.665 334.28 221.073 334.597 220.358C334.627 220.272 334.261 220.06 334.203 219.969C335.041 219.585 335.977 220.24 335.907 221.634C335.808 222.277 335.359 221.964 335.875 223.308C336.031 223.942 336.587 223.65 336.736 224.314C337.008 225.966 335.686 227.23 335.145 228.143C334.934 228.495 335.424 228.35 335.282 228.602C334.907 229.261 334.322 229.587 333.93 230.196C333.896 230.249 334.243 230.359 334.1 230.521C333.929 230.714 333.75 230.902 333.564 231.085C332.607 232.022 331.624 232.705 330.576 233.595C329.965 234.117 329.013 235.127 328.348 235.602C327.216 236.42 325.566 237.062 324.683 237.853C324.109 238.366 324.439 238.532 324.304 238.908C324.036 239.642 322.673 239.655 322.477 239.646C322.471 239.645 322.966 239.198 322.58 239.265C322.208 239.096 322.482 239.64 322.477 239.646C322.346 239.644 321.235 240.335 321.051 240.538C320.953 240.648 321.198 240.859 321.144 240.911C319.858 242.147 318.441 243.205 316.875 244.073C316.846 244.085 316.691 243.768 316.624 243.8C315.678 244.243 315.365 244.961 314.791 245.641C314.218 246.319 313.605 246.616 312.857 246.386C312.36 246.798 311.442 247.072 310.911 247.221C310.379 247.369 310.684 247.982 310.651 248.018C309.655 249.163 308.739 249.281 307.43 250.029C306.81 250.382 305.658 251.214 305.034 251.686C304.543 252.06 304.152 252.113 303.72 252.498C303.662 252.549 303.886 252.767 303.872 252.789C303.524 253.427 303.396 252.638 303.216 252.593C302.57 252.424 302.178 252.364 301.613 252.972C301.487 253.11 301.569 254.307 301.312 254.535C300.977 254.83 300.924 254.416 300.577 254.734C300.546 254.761 300.675 254.959 300.423 255.098C299.275 255.737 297.958 256.365 296.787 257.086C296.628 257.183 297.024 257.383 296.798 257.528C296.72 257.577 296.643 257.626 296.565 257.675C295.548 258.314 294.426 258.947 293.328 259.389C293.036 259.505 293.076 259.181 292.979 259.147C292.402 258.935 292.202 259.83 292.129 259.885C290.201 261.301 288.353 261.67 285.708 262.762C285.59 262.824 284.486 263.84 283.803 263.282C283.75 263.247 283.142 262.68 282.682 263.14C282.65 263.168 283.027 263.485 282.4 263.476C281.785 263.467 280.745 263.638 279.999 263.157C279.754 263.006 279.313 262.289 278.514 262.625C278.475 262.659 277.1 263.495 276.961 262.612C276.941 262.467 277.252 261.688 276.368 261.854C276.201 261.886 276.398 262.151 275.988 262.137C275.34 262.108 274.701 261.632 273.886 261.717C273.752 261.736 273.039 262.071 272.813 261.509C272.778 261.422 272.998 261.207 272.807 261.096C272.637 260.995 272.457 260.904 272.272 260.817C271.507 260.457 270.675 260.215 269.967 259.75C269.655 259.546 270.002 259.197 269.695 258.937C269.387 258.677 268.723 258.274 268.277 258.314C267.83 258.354 267.953 259.191 267.38 259.015C264.878 258.247 262.662 256.858 260.295 255.793C259.942 255.634 260.136 255.998 259.61 255.781C257.673 254.986 254.257 253.798 252.794 252.567C251.635 251.587 253.454 252.003 252.497 251.396C252.032 251.102 251.167 251.647 251.038 251.62C249.768 251.365 249.117 250.674 248.013 250.316C247.787 250.243 247.862 250.649 247.671 250.584C247.02 250.363 246.424 249.934 245.808 249.692C245.533 249.585 245.477 249.845 245.239 249.718C244.683 249.421 244.173 249.074 243.707 248.597C243.665 248.553 244.148 248.414 243.72 248.209C243.014 247.871 242.253 247.262 241.319 247.109C241.045 247.067 240.784 247.604 240.444 246.993C240.368 246.864 240.824 246.285 239.943 246.56C239.788 246.602 238.447 246.9 238.155 246.165C238.082 245.974 237.998 245.286 237.676 245.234C237.631 245.229 237.647 245.592 237.399 245.508C236.486 245.188 235.617 244.728 234.709 244.385C234.457 244.289 234.665 244.765 234.295 244.613C233.322 244.218 232.122 243.497 231.223 242.867C230.887 242.632 231.269 242.533 231.257 242.492C231.106 241.845 230.51 242.254 230.351 242.202C229.32 241.81 228.949 241.341 227.64 240.175C227.248 239.767 227.277 240.27 227.179 240.202C226.901 239.984 226.666 239.655 226.591 239.489C226.505 239.308 226.522 239.232 226.563 239.187C226.604 239.14 226.666 239.116 226.679 239.01C226.708 238.908 226.612 238.729 226.469 237.972C226.235 237.09 226.715 235.282 227.643 234.563C228.207 234.198 228.71 233.651 229.15 233.119C229.329 232.9 228.847 232.889 229.01 232.696C229.972 231.544 231.011 230.3 232.118 229.175C232.327 228.963 232.438 229.28 232.526 229.269C233.143 229.196 233.027 228.33 233.067 228.179C233.249 227.488 233.595 227.434 233.906 226.931C235.403 224.485 237.66 221.603 239.485 219.438C241.868 216.607 243.962 214.578 246.492 212.012C246.653 211.85 246.228 211.743 246.365 211.6C248.156 209.752 250.208 208.217 252.274 206.623C252.446 206.492 251.987 206.383 252.258 206.163C252.805 205.713 253.577 205.223 254.242 204.939C254.567 204.8 254.331 205.304 254.654 205.16C255.407 204.824 256.167 204.408 256.875 203.955C257.178 203.762 256.529 203.705 256.939 203.477C258.095 202.835 259.27 202.242 260.493 201.728C262.14 201.036 263.836 200.474 265.618 200.133C265.828 200.093 266.243 200.724 266.617 200.447C266.583 200.244 266.504 200.018 266.448 199.807C270.608 198.267 274.899 197.424 279.198 196.598C279.379 196.563 278.99 196.245 279.341 196.176C281.377 195.777 283.349 195.327 285.503 195.399C285.717 195.406 285.712 196.096 286.302 195.907C286.4 195.873 287.319 195.655 287.531 195.479C287.56 195.452 287.353 195.158 287.645 195.11C289.369 194.837 291.205 194.709 292.956 194.754C293.236 194.762 292.97 195.126 293.169 195.135C294.587 195.195 296.124 194.835 297.502 195.089C298.429 195.263 298.102 195.863 298.6 196.428C298.68 196.506 299.22 196.51 299.264 196.847C299.346 197.692 299.085 198.62 299.207 199.52C299.248 199.712 299.905 199.502 299.518 199.972C299.496 200.002 298.986 200.164 298.872 200.326C298.788 200.438 298.95 200.776 298.777 200.921C298.594 201.066 298.413 200.783 298.118 200.959C297.814 201.137 297.985 201.519 297.392 201.59ZM308.52 247.888C307.931 247.873 308.508 248.924 308.804 248.399C308.818 248.372 308.55 247.888 308.52 247.888ZM315.366 212.699C315.772 213.419 316.454 212.847 316.181 212.307C315.907 211.768 315.242 212.481 315.366 212.699ZM309.078 210.69C309.619 211.346 310.342 209.807 309.477 209.839C309.427 209.841 309.047 210.652 309.078 210.69ZM296.396 196.68C296.405 196.695 296.806 196.69 296.812 196.674C297.007 196.284 296.205 196.294 296.396 196.68ZM302.827 208.704C302.961 209.003 303.678 208.998 303.513 208.628C303.381 208.329 302.661 208.333 302.827 208.704ZM285.832 259.479C285.818 259.465 285.543 259.543 285.58 259.636C285.701 259.94 286.059 259.717 285.832 259.479ZM292.388 204.795C293.948 205.384 294.381 207.046 292.772 206.304C292.479 206.171 293.573 206.111 293.228 205.856C292.591 205.389 291.85 206.07 291.263 205.394C291.155 205.269 292.296 204.755 292.392 204.794C292.391 204.794 292.39 204.795 292.388 204.795ZM307.515 246.823C307.498 246.815 307.159 247.011 307.16 247.029C307.183 247.463 307.866 247.069 307.515 246.823ZM270.274 255.707C270.266 255.667 269.444 255.291 269.406 255.309C268.732 255.701 270.393 256.463 270.274 255.707ZM328.473 231.065C328.538 230.507 328.888 230.141 329.453 230.279C329.129 230.535 328.801 230.815 328.473 231.065Z" fill="#726828" fill-opacity="0.41"/>
</svg>
