<svg width="224" height="69" viewBox="0 0 224 69" fill="none" xmlns="http://www.w3.org/2000/svg">
<path d="M33.9109 8.6252C31.7406 9.82944 28.6859 11.428 26.3638 12.6686C25.6406 13.0547 25.8318 12.5853 25.3185 12.8489C24.3251 13.361 23.5298 14.0698 22.5503 14.587C22.2207 14.7605 22.3346 14.1178 21.9936 14.31C20.1409 15.3594 18.5953 16.6539 16.8455 17.9086C14.9629 19.2597 13.1387 20.6771 11.3758 22.162C7.25023 25.3767 7.44851 33.6012 9.09848 40.611C9.24879 41.2826 9.44657 41.9401 9.69323 42.5887C10.6974 45.4139 12.9957 48.7743 15.8869 50.768C16.2205 51.0017 16.2782 50.5318 16.3593 50.5529C17.6151 50.8662 16.8106 51.2811 17.3952 51.8335C19.7396 54.0177 23.0063 55.767 25.9745 56.8878C27.2416 57.3613 26.313 56.0891 27.3856 57.0327C27.4612 57.0973 26.9784 57.3626 27.304 57.5477C28.0422 57.9699 29.5686 58.4812 30.1742 58.7393C31.3404 59.2418 31.5414 59.3074 32.6767 59.7044C33.7913 60.0939 35.0353 60.6152 36.2903 61.0282C36.7315 61.1748 37.1847 61.2895 37.6356 61.36C37.9744 61.4094 37.6282 60.8877 38.1657 60.9198C38.6987 60.9616 40.1137 61.1775 40.6024 61.3055C41.0895 61.4433 40.8585 61.7742 40.9421 61.8594C41.6529 62.5889 43.4457 61.6453 43.6527 61.6044C47.7354 61.0472 51.4127 60.8423 55.3813 59.9181C58.3859 59.2059 61.5594 58.1546 64.4529 57.3915C64.7963 57.3011 65.1352 57.2141 65.4705 57.13C68.2365 56.4303 70.6986 55.5387 73.2321 54.0236C73.5274 53.8453 72.9174 53.6035 73.2734 53.3853C77.049 51.0524 80.5283 48.195 83.9979 45.2003C84.3461 44.8989 84.2533 45.6411 84.6217 45.357C86.8692 43.6465 90.5134 40.761 90.0479 38.2006C90.0453 38.1895 90.0427 38.1784 90.04 38.1674C91.2038 36.8712 92.0893 35.327 92.619 34.0616C92.9501 33.2088 93.4134 34.1127 93.2116 32.9424C93.1533 32.6812 92.7366 33.0344 92.6769 32.659C92.5353 31.8263 92.3319 30.9141 92.0204 29.9732C91.7543 29.1655 91.4093 28.4178 90.9423 27.7899C90.7386 27.5208 90.4443 27.7957 90.339 27.7531C89.5008 27.4072 89.4618 25.8604 89.2827 25.5718C88.1203 23.5346 86.4899 22.5899 84.5543 21.3953C84.1007 21.122 84.37 21.8891 83.928 21.6473C82.3186 20.7697 80.6074 19.9447 78.8814 19.1301C78.1438 18.7812 77.3844 18.4269 76.6492 18.0774C76.1065 17.8196 76.7782 17.5934 76.5247 17.4484C75.3986 16.818 74.8563 17.5216 73.7587 16.9594C73.5285 16.8433 73.7852 16.5269 73.7542 16.4724C73.26 15.6149 72.3583 16.3059 72.1738 16.269C69.8045 15.8174 68.6016 14.4589 66.3081 13.9749C66.034 13.9188 66.5154 14.5487 65.753 14.3632C60.6806 13.1383 55.3193 11.7932 50.3028 10.4356C49.5181 10.225 50.1539 9.97753 50.1123 9.92403C49.4279 9.08256 48.7267 9.90539 48.4629 9.89277C46.3854 9.76925 44.5926 8.67762 43.0342 9.56679C42.4592 9.45225 41.8722 9.34396 41.3045 9.24624C33.3713 7.84766 25.6024 9.07205 18.4736 12.5249C18.375 12.571 18.3035 12.0755 18.1062 12.1704C16.144 13.1356 16.3635 13.5641 15.9584 14.6155C15.9986 14.7516 16.1455 14.8693 16.3802 14.7676C16.4612 14.7362 16.4813 14.5998 16.4185 14.5252C16.358 14.4472 16.2325 14.4542 16.1244 14.5442C15.9004 14.7233 15.7647 15.1433 15.745 15.1878C15.636 15.6291 14.8555 15.5808 14.8594 15.7188C15.0614 17.0114 16.8699 15.6206 17.7379 16.7428C17.7638 16.7808 17.3188 16.8939 17.3635 17.0154C17.5039 17.3967 17.905 17.6103 18.0545 17.9945C18.425 18.9022 17.8531 19.9107 19.3387 20.4983C19.5276 20.5664 20.2278 19.462 21.2111 20.5035C21.6006 20.9259 23.4643 22.6336 23.9498 23.18C24.4187 23.7182 23.78 23.6981 23.805 23.7451C24.8834 25.4574 24.172 25.1197 24.3661 26.3818C24.5579 27.6343 25.6329 26.0098 26.0725 26.112C26.5184 26.2209 27.2752 27.4892 27.4439 27.8456C27.604 28.195 27.1038 28.1067 27.2767 28.3766C28.4416 30.1684 28.5887 28.2529 29.3018 28.4698C30.9764 28.9694 30.9936 30.8785 32.0012 31.9414C32.2767 32.2314 32.2451 31.7722 32.5333 31.9827C33.6661 32.8151 34.0076 33.7042 35.4799 34.4496C35.722 34.5728 37.2558 34.7747 37.4682 35.8033C37.4964 35.9495 37.0096 35.9951 37.4035 36.4491C37.9954 37.1306 39.1447 38.2548 39.9417 38.8086C40.5272 39.2144 40.3144 38.2355 40.8571 38.967C41.0984 39.293 40.3211 39.0566 40.7933 39.6479C40.8818 39.7589 41.0041 39.8938 41.1482 40.0432C41.5157 40.4111 41.9653 40.9896 42.0175 41.7047C42.0735 42.407 41.7655 42.9686 41.6098 43.2389C41.1639 43.9229 41.7633 43.818 41.7543 43.8914C41.6527 44.3866 40.6186 45.6106 40.5148 45.6666C36.4461 48.9346 30.8857 50.197 28.7445 52.9769C28.5712 53.3035 29.2574 54.1107 30.1364 54.5465C30.5117 54.7433 30.4988 54.1923 30.5584 54.2181C31.8868 54.6743 30.3164 55.3018 31.1599 56.1293C31.3782 55.1839 31.8846 55.6074 32.9586 55.819C33.4807 55.9173 33.3013 55.4804 33.3592 55.4582C34.2267 55.1191 34.5703 55.9254 34.6856 56.1021C35.0816 56.7424 35.7582 56.2048 36.0511 56.6162C36.3568 57.0251 35.4489 57.44 36.527 57.5813C36.8675 57.2802 36.2011 56.2989 37.0111 56.2532C39.9945 56.1827 45.5635 56.3678 47.9079 55.6171C48.2222 55.5347 48.5057 55.4519 48.7644 55.3706C50.4057 54.836 51.0622 54.4731 52.1927 54.0167C54.5311 52.9742 53.3841 52.8472 54.5108 51.755C55.5996 50.6197 55.9434 52.3601 56.3362 52.5115C56.7315 52.6544 56.7186 52.2136 57.0639 52.189C57.411 52.1618 57.0593 52.7395 57.6456 52.3709C58.2482 52.0044 59.245 50.2917 59.1526 49.8613C58.9795 48.9517 57.8504 48.9342 59.2632 47.9337C59.3448 47.8747 59.4236 48.4055 59.7217 48.163C62.0847 46.2122 64.0422 43.6615 65.8167 41.1262C66.0606 40.777 66.2892 41.3412 66.4363 41.1383C67.9371 38.9715 66.7841 39.406 66.5489 37.7942C67.4948 38.5559 68.5382 38.1599 69.2087 36.2235C69.4921 35.3627 69.2393 35.155 69.0357 34.7769C68.9661 34.6435 68.9007 34.4878 68.8561 34.2781C68.8063 34.04 69.3234 33.2909 69.105 33.0933C68.3821 32.4809 67.4566 33.0774 67.976 31.2974C67.9976 31.2172 68.4178 31.5037 68.4604 31.2215C68.6621 29.3683 67.8287 29.1485 67.246 27.5204C66.8319 26.2485 65.6804 24.0348 64.097 23.5522C64.5 22.5279 63.2698 22.1933 62.5024 22.7628C62.3284 22.8876 62.1798 23.0494 62.0789 23.233C61.0236 23.2813 59.8893 23.7396 58.844 24.1416C58.4841 24.2818 58.5247 23.8242 58.4626 23.8096C57.4535 23.609 57.4614 24.6812 57.2806 24.8433C55.2061 26.6744 53.0782 27.8936 51.8872 30.4205C51.8454 30.5138 52.4803 31.1941 51.5166 31.351C51.4501 31.3636 51.6454 30.3914 50.8626 31.395C50.5681 31.7799 50.1328 32.2651 49.6893 32.8317C48.9646 33.7503 48.2328 34.904 48.0319 36.0089C47.9421 36.4527 48.251 37.6682 47.456 38.278C47.3472 38.3615 47.1286 38.1656 46.9397 38.281C46.334 38.6801 47.1704 39.1752 46.2693 39.6304C45.3874 40.0641 44.47 41.5978 45.3719 43.5135C45.4025 43.5811 46.2054 43.8655 46.378 44.3798C46.5089 44.7761 46.6843 45.2477 46.9368 45.6989C47.2239 46.2188 47.6184 46.7023 48.0159 47.0306C48.3753 47.3193 48.4301 46.7695 48.4967 46.8126C50.9117 48.2055 53.2631 48.9048 56.2461 47.4978C56.4813 47.3743 56.8281 47.0071 57.176 46.5781C57.6166 46.0436 58.0534 45.4112 58.6393 45.0403C59.7398 44.2278 61.1757 46.6923 62.0751 43.272C62.3701 41.7429 59.9774 39.8556 61.3611 37.7681C61.1032 35.9343 60.553 34.1543 59.3427 32.7615C57.6986 30.9042 55.2552 30.0108 52.8217 29.9243C52.6239 29.9154 51.9324 30.6291 51.5099 30.58C50.8751 30.5033 50.5393 30.1127 50.0722 30.0713C48.107 29.9007 46.3319 30.3638 44.4823 30.6322C43.7784 30.7433 43.9511 30.3108 43.1 30.4739C42.4324 30.6104 42.0297 31.0361 41.3311 31.2696C41.1357 31.3356 40.9243 31.3863 40.6701 31.4197C39.7968 31.5322 38.543 30.9123 37.3633 31.4161C37.8185 32.3493 37.0552 32.6903 36.083 33.775C35.899 33.9862 36.3508 34.0863 36.2772 34.1994C35.9996 34.654 35.4526 34.747 35.2613 35.2326C35.2154 35.3499 35.4677 35.5945 35.4513 35.6992C35.3116 36.5639 34.1026 37.096 33.9057 37.2926C33.3704 37.6797 33.426 38.1323 33.516 38.4307C33.5587 38.5738 33.602 38.6966 33.6437 38.8721C33.7296 39.1517 33.6334 39.192 33.4973 39.2075C33.3795 39.2186 33.219 39.247 33.5461 39.6073C35.1938 40.9768 37.7378 40.1287 39.2952 39.3656C39.9367 39.0331 39.2755 38.8513 39.3626 38.7941C39.5519 38.6693 39.7448 38.5517 39.9369 38.4345C40.9436 37.828 41.9504 37.1615 41.815 36.1544C44.2615 37.0306 42.2486 35.3984 43.7649 34.0924C43.8825 33.9879 44.9573 34.4431 44.7281 35.0698C44.4944 35.6985 43.6264 36.2606 43.2078 37.1059C43.1348 37.2993 42.9604 38.9778 42.8306 39.1589C41.9934 40.5375 40.7829 39.2142 40.6946 39.1773C40.5811 39.1421 40.4738 39.1235 40.3718 39.1189C39.398 39.0709 38.6553 40.4329 38.2689 40.6285C36.5087 41.4539 34.6994 42.03 32.2769 40.2887C31.7219 39.7595 31.3687 39.2815 31.0633 38.8787C30.5926 38.2479 30.1894 37.6717 30.4111 36.8223C32.0757 32.9025 33.9712 33.9867 35.2615 31.199C35.5782 30.6596 34.4352 29.855 36.7722 29.648C36.934 29.6196 38.6441 29.7586 39.2419 28.9557C39.3192 28.8516 39.1898 28.5198 39.3162 28.4414C39.6624 28.2313 39.9834 28.1232 40.3134 28.0385C40.7893 27.9177 41.269 27.8503 41.8466 27.6225C42.8157 27.2391 44.0074 26.8045 45.1865 26.774C45.9021 26.7505 46.8534 27.3343 47.188 27.4762C48.1314 27.8772 49.1103 27.0981 49.6879 27.6754C50.2401 28.2592 49.1493 29.0855 50.5626 29.5066C50.6619 28.5857 50.8415 27.645 50.9939 26.7228C54.3787 27.0519 57.9998 27.7955 61.2489 30.981C61.2915 31.026 61.3337 31.0713 61.3754 31.117C61.7501 31.5407 61.7499 30.7672 62.1648 31.2442C63.8935 33.3684 64.1109 35.6985 64.3284 38.0086C64.4908 39.8214 64.6826 41.8623 64.172 43.7242C62.8232 44.47 62.0309 47.0265 60.4136 48.5705C59.9242 49.0413 59.7279 48.8993 59.373 49.0671C59.3282 49.0877 59.2805 49.1128 59.2289 49.1437C57.4321 50.1148 58.6934 50.2826 58.2865 50.7438C56.215 52.553 55.187 50.694 52.6773 50.9092C52.5834 50.9537 50.672 51.914 50.3516 51.8763C48.5908 51.9041 50.1669 51.4477 49.2166 51.0691C47.5209 50.2587 46.571 49.4433 44.8631 47.905C44.7343 47.7818 44.5353 47.6281 44.3118 47.4256C43.6833 46.8842 42.9028 45.8604 43.0467 44.839C43.0712 44.6596 43.4551 44.6507 43.4436 44.5211C43.3394 42.2673 42.3112 42.3353 41.9262 40.9849C41.5805 39.6129 42.8032 37.9189 43.1274 37.6677C43.9551 36.9318 43.1895 38.4199 43.2491 38.4959C43.8133 39.2227 43.9459 37.9576 44.2951 37.0959C45.4237 37.3055 45.7711 36.1497 44.6604 36.21C44.5349 36.2191 44.3986 36.9315 44.2951 37.0959C43.4596 35.9807 43.8913 34.4308 45.5365 33.5361C46.3145 33.1314 46.4676 33.9684 47.3488 32.052C47.4833 31.7717 47.4862 31.571 47.4358 31.3977C47.3316 31.0443 46.9986 30.8057 47.2009 30.2414C47.8999 28.3022 50.1005 26.7599 51.4529 25.2571C51.9502 24.7046 51.1291 24.9065 51.4664 24.5149C52.3775 23.4732 53.512 22.9251 54.5712 21.9603C54.6691 21.8719 54.1425 21.6882 54.5108 21.4222C56.6794 19.913 59.1112 18.7381 62.4641 18.7186C63.4622 18.7333 64.4998 18.8904 65.5306 19.2237C67.7849 19.7292 71.0136 22.5141 71.7314 24.5865C73.3323 28.1435 72.3478 32.2314 71.9041 34.7296C71.8498 35.0561 71.8185 35.312 71.8088 35.5175C71.7694 36.3299 72.1238 36.3191 72.1866 36.9494C72.3352 38.5282 70.3479 40.3597 70.0587 40.544C70.0564 40.5497 70.5323 39.2409 70.0152 39.8198C69.3987 40.0035 70.064 40.527 70.0587 40.544C69.8923 40.7036 68.5111 43.0882 68.2823 43.5826C68.17 43.8605 68.6229 43.9413 68.5559 44.0834C66.9462 47.451 64.6343 50.4834 61.7021 52.9272C61.6471 52.9662 61.3946 52.5456 61.2704 52.6404C59.5218 53.9414 58.7889 55.2476 57.4386 56.5883C56.0857 57.9165 54.6449 58.5515 53.2966 58.2842C52.4415 58.7803 51.177 59.1362 50.0936 59.3105C49.6329 59.3865 49.2091 59.4332 48.8623 59.4641C47.7102 59.5579 47.7721 60.4846 47.6744 60.5307C44.6579 61.7969 42.6987 61.4456 39.4692 61.3242C37.9168 61.2751 34.8533 61.0728 33.1187 60.7401C31.7499 60.497 31.0048 60.0482 29.68 59.6717C29.5014 59.6185 29.5163 60.075 29.4576 60.0681C27.7569 59.8677 28.9076 59.2493 28.6843 58.9477C28.2863 58.3767 27.9953 57.922 27.5279 57.4354C27.0802 56.8973 26.4249 56.6257 25.3883 55.078C25.1696 54.7066 24.1623 53.6789 24.1256 51.9063C24.1516 50.382 24.591 49.4111 24.9411 48.9265C26.0022 47.6528 25.9408 48.4739 26.847 47.5683C26.9162 47.5051 26.7249 47.2311 27.2994 46.8421C29.9233 45.1274 32.4472 44.105 34.5476 42.7869C34.8275 42.6136 34.2008 42.3932 34.5983 42.1353C35.5047 41.5467 36.4254 40.8982 36.8809 40.5025C37.1053 40.3391 37.141 40.1607 36.901 40.7532C36.7974 41.0355 36.6599 41.6584 36.7799 42.3179C36.8904 42.9741 37.2024 43.4642 37.4086 43.6814C37.5972 43.8705 37.6694 43.7742 37.7519 43.7042C37.8296 43.625 37.8972 43.5269 37.953 43.5077C38.0064 43.4881 38.0472 43.4692 38.0763 43.4514C37.7626 42.6624 36.5275 42.626 36.3931 42.5282C32.8517 39.9718 30.9024 37.1524 27.2634 34.5219C27.0674 34.3829 24.9903 33.9102 24.925 32.7055C24.9157 32.621 24.883 31.4188 23.9258 31.3826C23.8666 31.3809 23.9575 32.0665 23.3051 31.4316C22.6679 30.8101 21.3535 30.0547 20.7564 28.8461C20.5625 28.4601 20.4697 27.1927 19.1033 26.8901C19.0186 26.8817 16.5745 26.7795 16.829 25.4981C16.8698 25.2841 17.7779 24.5609 16.306 23.9461C16.0272 23.8311 16.2048 24.375 15.568 23.966C14.5744 23.3168 13.7405 22.008 12.3343 21.0936C12.0938 20.9396 10.6715 20.4427 10.5208 19.014C10.5039 18.7965 11.0165 18.9218 10.7383 18.3346C10.3831 17.5105 9.92577 16.6751 9.76275 14.9636C9.42854 13.2871 10.8985 10.2007 12.4579 9.40958C13.279 8.85223 14.1519 8.28584 15.1099 7.84637C15.8254 7.5206 15.8049 8.26254 16.5845 7.99794C17.3627 7.72985 18.8716 7.10834 19.5339 6.48963C20.2051 5.86538 18.9047 5.3527 20.1055 4.73638C25.4433 2.03918 31.5516 1.89605 37.0083 2.26392C37.8216 2.32004 37.1663 1.92008 38.3783 1.99473C39.5201 2.07107 40.8489 2.17992 42.2742 2.35706C46.2108 2.83585 50.7983 3.6459 53.3079 4.72964C56.0003 5.89705 52.3758 5.63012 54.4657 6.31033C55.474 6.63869 56.833 5.74519 57.0909 5.76415C59.6123 5.93488 61.1903 6.83064 63.4125 7.21467C63.8723 7.2948 63.542 6.72834 63.9327 6.80205C65.2684 7.05032 66.5975 7.61213 67.8618 7.915C68.4298 8.05036 68.4183 7.67487 68.9315 7.84521C70.1547 8.24876 71.2149 8.71154 72.3203 9.39633C72.421 9.45881 71.5543 9.66381 72.4613 9.95534C73.9308 10.428 75.6514 11.3286 77.4601 11.6062C77.9969 11.6887 78.2986 10.9193 79.1908 11.8572C79.3749 12.0552 78.7374 12.859 80.3021 12.5562C80.4133 12.5336 80.9841 12.4835 81.6346 12.5327C82.4894 12.6032 83.498 12.8553 83.9147 13.5112C84.1119 13.8179 84.4598 14.8784 85.1032 15.067C85.195 15.0916 85.0649 14.5281 85.5898 14.7507C87.4108 15.536 89.232 16.678 91.0522 17.9051C91.5387 18.2365 91.122 17.3281 91.8514 17.8521C93.8524 19.2687 96.1049 21.8611 97.2478 24.3337C97.6676 25.2354 97.0089 24.8024 97.0082 24.887C96.9246 26.1784 97.9717 26.4131 98.1645 26.7592C98.3722 27.1397 98.5379 27.5216 98.6687 27.8858C99.2161 29.432 99.328 31.0063 99.4601 32.992C99.4919 33.6721 99.9213 33.193 99.9597 33.3298C100.282 34.8197 99.5613 33.6903 99.4058 34.5913C98.934 37.147 97.7659 39.6832 96.5764 41.4571C96.1365 42.1147 97.0622 41.6789 96.6517 42.268C96.4615 42.5369 96.2701 42.794 96.0705 43.05C94.1504 45.5321 91.9508 47.9497 89.6052 49.9802C89.1254 50.3934 89.1299 49.8401 88.9754 49.8719C87.9116 50.0792 87.5495 51.5939 87.3769 51.8649C86.6096 53.0899 85.9731 53.2058 85.0805 54.0703C80.7638 58.3275 73.9179 62.4418 67.8541 63.9378C67.6871 63.982 67.5205 64.0245 67.3543 64.0655C60.8259 65.629 55.5485 66.8524 48.6829 67.9275C48.234 67.9925 48.7562 68.4399 48.3651 68.5021C43.9632 69.1492 39.2175 69.2186 34.2174 67.7803C33.6361 67.6111 33.0426 67.4386 32.455 67.2691C32.0705 67.1568 32.4722 67.7965 31.8475 67.6299C30.5672 67.2921 28.9784 66.7169 27.7636 66.1021C27.1723 65.8035 28.1436 65.7202 27.5476 65.4276C26.1608 64.7434 24.6403 64.0978 23.144 63.5281C22.5054 63.2846 23.2504 64.1551 22.4326 63.7998C16.9155 61.3631 11.2516 58.3162 7.07607 52.7968C6.79374 52.4123 7.28889 51.4611 6.53726 50.8222C6.27168 50.9367 6.01448 51.1419 5.75823 51.2994C3.75086 48.8166 2.16621 45.7834 1.39449 42.5195C0.0930484 36.6639 -0.882659 30.3793 1.2418 23.3878C1.38781 22.955 0.624363 23.544 0.91771 22.6915C1.80492 20.1653 3.31773 17.5965 5.51502 15.6745C7.00407 14.3741 8.57743 13.1568 10.3137 12.0814C10.6692 11.8619 11.0941 12.7206 11.9478 11.8612C12.0991 11.7042 13.4595 10.4896 13.7143 10.0463C13.7471 9.98309 13.216 9.83416 13.6785 9.46945C16.3795 7.35325 19.4051 5.39583 22.4692 3.81619C22.9657 3.56167 22.7077 4.26922 23.0615 4.09313C25.5635 2.84831 28.03 1.04915 30.7355 0.252531C32.553 -0.258175 32.2547 0.765715 33.4556 1.13231C33.5987 1.18647 34.7407 0.805085 34.9201 1.24704C35.3689 2.32512 35.3096 3.67565 35.8581 4.80262C35.9102 4.92529 36.1808 4.83789 36.3071 4.85453C36.4285 4.87186 36.4635 4.95618 36.3992 5.29918C36.4344 5.3239 35.8175 5.7351 35.6846 6.02621C35.6039 6.2179 35.9991 6.57141 35.8119 6.84925C35.6243 7.12866 35.165 6.88861 34.7841 7.30523C34.3907 7.73563 34.8385 8.11058 33.9109 8.6252ZM43.7504 59.4551C42.7115 59.1077 42.684 60.76 43.7694 60.26C43.8216 60.2333 43.8046 59.4713 43.7504 59.4551ZM57.3783 29.7832C58.309 31.0173 59.7259 30.8242 59.1234 29.7141C58.403 28.5958 57.0502 29.4017 57.3783 29.7832ZM43.8322 29.2828C45.3903 29.5902 45.3251 27.2446 43.7263 27.9911C43.6323 28.0356 43.7386 29.2668 43.8322 29.2828ZM29.5715 3.18432C29.5901 3.19795 30.2984 2.86001 30.3057 2.8335C30.4452 2.17592 29.021 2.85469 29.5715 3.18432ZM32.9369 36.5116C33.3977 36.1872 33.9326 34.8885 33.2576 35.1357C32.6528 35.3426 32.2875 36.9609 32.9369 36.5116ZM31.5039 32.5731C31.5084 32.5445 31.1108 32.1692 31.0284 32.2812C30.7627 32.6415 31.4201 33.0468 31.5039 32.5731ZM47.5869 29.0306C46.0912 31.9288 43.4573 32.5823 45.2501 29.7119C45.5696 29.1778 45.1823 31.1786 45.7002 30.5591C46.6555 29.4034 45.974 28.0141 47.1723 26.9359C47.3952 26.7371 47.6816 28.8661 47.5868 29.037C47.5868 29.0348 47.5869 29.0327 47.5869 29.0306ZM42.9946 57.5447C42.9729 57.5271 42.219 57.564 42.2004 57.5844C41.817 58.1368 43.3695 58.0625 42.9946 57.5447ZM19.9677 11.1559C20.0206 11.1679 21.5726 10.4406 21.6094 10.3893C22.073 9.20521 18.8424 10.7084 19.9677 11.1559ZM64.0843 23.511C63.4736 23.7443 62.9823 23.8135 62.51 23.5607C62.3682 23.4834 62.2239 23.3761 62.0821 23.2334C62.2246 23.2284 62.3676 23.2275 62.5069 23.2314C63.049 23.2459 63.5846 23.3306 64.0843 23.511Z" fill="#326F14" fill-opacity="0.75"/>
<path d="M169 8.59087C167.543 9.49888 165.759 10.5937 164 11.7043C162.997 12.3244 162.113 12.9911 161.357 13.6631C160.8 14.1708 160.84 13.6942 160.446 14.0623C159.684 14.7956 159.244 15.6947 158.612 16.5569C158.401 16.8468 158.209 16.2329 157.995 16.5509C156.826 18.3258 156.27 20.3622 155.732 22.5851C153.781 31.034 155.385 40.5181 157.954 49.642C158.06 50.0124 158.092 50.0813 158.268 50.299C158.445 50.5095 158.844 50.826 159.356 51.1421C160.19 51.6753 161.466 52.0572 162.853 52.24C166.446 52.749 171.574 52.3569 175.681 51.1198C176.157 50.9766 175.77 50.6565 175.853 50.6009C177.164 49.7301 176.892 50.6461 177.867 50.4885C179.208 50.2642 180.59 49.9444 181.967 49.5539C184.583 48.8115 187.124 47.8485 189.356 46.8173C190.823 46.1312 189.023 46.0167 190.683 45.8005C190.798 45.7843 190.597 46.3402 191.017 46.2086C191.956 45.9197 193.66 45.0515 194.369 44.741C195.742 44.1462 195.951 44.0347 197.2 43.3817C198.905 42.4879 200.961 41.5366 202.633 40.3148C202.98 40.058 202.254 40.0115 202.794 39.5604C203.337 39.1151 204.84 38.0849 205.372 37.8011C205.932 37.5046 205.932 37.9402 206.068 37.9357C207.209 37.9186 208.233 35.829 208.409 35.6252C211.743 32.0865 214.823 29.0956 216.444 25.0471C216.683 24.4244 216.879 23.7811 217.001 23.179C217.431 21.3356 216.076 19.4768 214.181 17.889C211.355 15.5549 208.251 13.8575 204.593 12.3926C204.204 12.2398 204.464 12.9033 203.99 12.7196C201.637 11.8127 199.239 10.9816 196.821 10.1471C194.177 9.23237 191.472 8.51018 188.707 7.9663C188.187 7.86515 188.923 7.49759 188.401 7.37004C185.244 6.52812 179.794 5.78013 178.088 8.02245C175.897 8.1696 173.27 8.57964 171.246 8.68921C170.045 8.75673 170.861 8.08467 169.846 8.46335C169.771 8.49306 169.685 8.53133 169.585 8.58074C169.304 8.72393 169.817 9.00643 169.407 9.19151C167.697 9.98038 165.742 11.2951 164.368 12.9455C164.09 13.2817 164.45 13.476 164.414 13.611C164.102 14.7073 162.284 15.3764 161.983 15.6456C160.993 16.4947 160.235 17.3705 159.58 18.268C158.78 19.3675 158.184 20.5223 157.595 21.858C157.357 22.4133 158.113 21.9628 157.91 22.4951C156.977 24.9579 156.498 27.6421 156.335 30.3481C156.315 30.6671 156.299 30.9808 156.288 31.2888C156.269 31.9351 155.791 31.3675 155.762 31.6822C155.673 33.0932 156.551 33.2478 156.689 34.4403C156.728 34.6937 156.322 34.672 156.296 34.7295C155.907 35.6836 157.068 35.9443 157.161 36.0794C158.477 37.9802 158.971 39.8073 161.177 41.2509C161.439 41.412 161.148 40.6255 161.866 41.0947C162.435 41.4577 163.022 41.8014 163.637 42.1371C168.219 44.5887 173.583 46.426 178.673 47.7933C179.576 48.0283 178.856 48.2585 178.904 48.3135C179.725 49.1811 180.506 48.3572 180.807 48.3695C183.19 48.4943 185.389 49.4527 187.025 48.3724C188.951 48.4924 190.89 48.4292 192.716 48.1075C199.405 47.1069 204.285 41.446 205.051 34.8124C205.174 33.8734 205.22 32.9243 205.182 31.9641C205.175 31.8418 205.664 31.9933 205.648 31.7447C205.298 28.7546 204.629 29.4411 203.122 28.1658C202.758 27.8769 202.909 26.1374 202.864 25.9705C202.814 25.4152 203.662 25.4158 203.611 25.251C203.07 23.8521 201.497 25.4494 200.32 24.3463C200.283 24.308 200.726 24.1434 200.647 24.0175C200.394 23.6201 199.942 23.4733 199.668 23.1033C199.206 22.4864 199.186 21.7046 198.484 21.2566C198.228 21.0967 197.882 20.9883 197.41 20.9885C197.187 21.008 197.011 22.2447 195.624 21.786C195.076 21.5439 192.416 21.2837 191.637 21.2964C190.868 21.2498 191.368 20.8109 191.315 20.795C189.13 20.4283 189.908 20.1474 188.646 19.5237C187.334 18.9595 188.063 20.7886 187.683 21.097C187.305 21.3951 185.646 21.4329 185.209 21.4391C184.777 21.4301 185.16 21.0084 184.789 21.0509C182.316 21.4129 184.179 22.3301 183.599 22.9115C183.437 23.0821 183.272 23.2226 183.1 23.3403C181.883 24.1824 180.238 23.859 178.921 24.6103C178.522 24.8411 179.015 24.894 178.701 25.1526C177.479 26.1804 176.426 26.4519 175.355 27.9959C175.169 28.2538 174.746 29.8654 173.661 30.1364C173.504 30.1761 173.496 29.6487 172.979 30.108C172.202 30.7898 170.988 32.2123 170.486 33.2033C170.232 33.6961 170.614 33.6436 170.663 33.7928C170.688 33.8642 170.637 33.9792 170.419 34.2209C170.118 34.5611 170.254 33.6677 169.712 34.3325C169.145 34.9858 168.254 36.9721 168.124 37.7623C167.961 38.5428 168.498 38.1973 168.511 38.2687C168.559 38.4622 168.587 38.9072 168.662 39.2726C168.733 39.6424 168.845 39.921 168.855 39.9666C169.008 40.6484 169.355 41.126 169.986 41.5329C173.611 43.3996 179.209 42.5461 183.217 40.1324C183.962 39.6781 184.673 39.1516 185.342 38.5656C185.739 38.2142 185.165 38.0779 185.223 38.0206C186.433 36.7043 186.202 38.5846 187.447 37.9944C186.647 37.4351 187.334 37.0521 188.11 36.0153C188.477 35.5129 187.974 35.5294 187.983 35.4619C188.13 34.4243 189.054 34.3726 189.276 34.3208C190.079 34.1425 189.9 33.23 190.415 33.0712C190.937 32.8887 190.916 34.0197 191.538 32.8921C191.397 32.4259 190.197 32.7979 190.482 31.935C190.737 31.1252 191.101 29.9505 191.013 29.3865C190.985 29.2416 190.986 29.2666 190.959 29.2245C190.928 29.1837 190.76 29.0871 190.501 29.04C189.977 28.9368 189.228 29 188.534 29.1525C187.123 29.4604 185.821 30.0977 184.98 30.6969C184.805 30.8207 184.648 30.9434 184.509 31.0617C182.553 32.8731 182.327 33.8389 181.712 35.239C181.302 36.3736 181.415 36.8894 181.543 37.1645C181.687 37.4377 181.89 37.5494 182.121 37.8115C182.2 37.8945 182.284 37.9862 182.378 38.0739C182.541 38.2183 182.566 38.2901 182.544 38.4294C182.522 38.5626 182.447 38.7357 182.34 38.9128C182.138 39.2753 181.727 39.5906 181.738 39.8119C181.796 40.2726 182.258 40.0997 182.546 40.3655C182.89 40.6319 181.957 40.7044 182.925 40.9396C183.707 41.149 185.248 40.332 185.642 39.5603C185.8 39.3092 185.872 39.0946 185.861 38.979C185.706 38.0107 184.626 38.1416 185.846 36.9875C185.916 36.909 186.09 37.4315 186.345 37.1113C187.557 35.5192 188.165 33.3199 188.365 31.1596C188.496 29.7325 188.455 28.2866 188.254 26.8757C188.18 26.3852 188.746 26.7064 188.704 26.4124C188.074 23.3525 187.577 24.6174 186.112 23.7351C187.263 23.4716 187.663 22.1003 185.681 20.3849C185.679 20.3834 185.677 20.3819 185.675 20.3804C184.435 19.4816 184.347 20.1028 183.398 20.0512C183.128 20.0374 182.291 19.4082 182.054 19.6202C181.343 20.3289 182.006 21.1844 180.093 20.766C180.002 20.7525 180.277 20.3055 179.959 20.2918C177.869 20.3703 177.813 21.2854 176.292 22.5033C176.115 22.6639 175.918 22.8399 175.707 23.0414C174.497 24.121 172.961 26.3712 172.365 28.0945C171.098 27.6134 170.788 29.8115 171.577 30.7846C171.285 32.1525 171.207 33.6607 171.146 34.9819C171.129 35.4397 170.726 35.1661 170.688 35.2258C170.44 35.6213 170.475 35.9661 170.605 36.2227C170.788 36.5934 171.154 36.791 171.212 36.9476C171.737 38.4209 172.407 39.5153 173.543 39.9508C174.676 40.3958 176.173 40.1317 177.434 39.2842C177.534 39.2159 177.324 38.3428 178.284 38.5927C178.294 38.5954 178.305 38.5982 178.316 38.601C178.324 38.6036 178.32 38.6197 178.309 38.6444C178.244 38.7799 177.952 39.1735 178.492 39.0268C178.607 38.995 178.762 38.9357 178.971 38.8332C180.281 38.2265 182.963 37.0034 184.315 35.3165C184.652 34.911 185.126 33.5245 186.273 33.263C186.428 33.2286 186.497 33.5265 186.744 33.4995C187.542 33.4001 187.147 32.484 188.246 32.5164C189.339 32.5478 190.952 31.7823 191.93 29.73C191.963 29.6634 191.714 28.8002 192.129 28.2737C192.655 27.6099 193.394 26.7297 193.922 25.8874C194.067 25.6562 194.19 25.442 194.301 25.2249C194.539 24.7436 193.971 24.8484 194.005 24.7614C195.335 21.6398 195.423 18.5181 191.833 16.5815C191.675 16.4938 191.414 16.4105 191.095 16.3324C190.176 16.0972 188.832 15.9927 187.896 15.4806C186.46 14.7901 188.341 12.5057 184.407 13.0194C182.72 13.3315 181.543 16.3132 178.747 15.8092C177.553 16.3842 176.432 17.0151 175.381 17.7435C172.447 19.8033 170.01 22.5591 168.699 26.029C168.616 26.2449 169.04 27.2156 168.833 27.6754C168.52 28.3632 168.023 28.6218 167.815 29.1343C167.124 30.842 166.903 32.5839 166.847 34.2969C166.834 34.7385 166.834 35.1719 166.846 35.6161C166.892 36.441 166.457 36.1916 166.62 37.2127C166.842 38.2382 167.499 38.6947 168.019 39.9343C168.414 40.8374 168.518 42.4628 169.913 43.3605C170.461 42.4724 171.313 43.0377 173.027 43.1055C173.353 43.1133 173.082 42.6985 173.236 42.6831C173.408 42.6628 173.565 42.6732 173.723 42.6965C174.128 42.7565 174.526 42.9023 174.941 42.7684C175.079 42.7236 175.091 42.3724 175.2 42.3142C176.091 41.8271 177.67 42.3978 177.987 42.468C179.123 42.7833 179.509 42.2007 180.337 42.163C181.18 42.1065 180.084 42.7353 181.047 42.5483C183.061 42.1518 185.411 40.8856 187.094 39.6758C187.767 39.1904 187.03 39.1478 187.12 39.0696C187.327 38.8913 187.542 38.7216 187.755 38.5558C188.85 37.7115 189.949 36.888 189.871 35.7959C192.449 36.4874 190.392 34.9161 192.119 33.2996C192.253 33.1704 193.347 33.5957 193.06 34.3102C192.768 35.028 191.805 35.7244 191.314 36.6832C191.217 36.9065 190.987 38.7106 190.862 38.9062C190.02 40.4131 188.706 39.2242 188.598 39.2047C188.484 39.1882 188.375 39.1866 188.272 39.1975C187.178 39.3098 186.519 40.9156 186.173 41.2042C184.541 42.6293 182.762 43.1539 181.14 43.9582C180.069 44.4689 180.225 45.5759 179.242 45.7637C176.641 46.1834 175.321 45.2337 173.376 45.2433C172.824 45.2314 172.205 45.2765 171.408 45.349C170.646 45.3577 170.839 46.9563 168.646 44.7557C168.46 44.6137 167.292 42.7573 166.163 42.1331C166.011 42.0557 165.733 42.2797 165.579 42.1253C164.565 41.0581 164.381 40.0419 163.825 38.6652C163.285 37.3006 162.94 35.5863 163.147 34.0706C163.151 34.039 163.155 34.0075 163.16 33.976C163.289 33.0417 164.129 32.0453 164.368 31.6895C165.035 30.6857 164.632 29.3403 165.388 28.8585C166.145 28.4082 166.54 29.8769 167.453 28.4183C166.609 28.0356 165.776 27.5573 164.95 27.1158C166.481 23.3543 168.815 20.1239 171.825 17.2164C172.205 16.8578 171.47 16.8542 171.883 16.4569C172.403 15.9659 172.96 15.5395 173.544 15.1588C174.949 14.2481 176.429 13.6203 178.067 12.9056C179.853 12.1206 181.89 11.1565 183.989 10.9108C185.312 11.8616 188.259 11.6195 190.432 12.3452C191.185 12.5903 191.049 12.8507 191.546 13.1162C191.846 13.2798 192.084 13.3973 192.268 13.4695C193.234 13.8693 192.939 13.0036 193.464 13.1116C196.22 13.996 195.621 15.7453 197.166 18.7194C197.201 18.8041 197.697 19.2908 198.102 19.9186C198.517 20.5388 198.822 21.2547 198.853 21.4305C199.168 23.5939 198.471 21.7852 198.225 22.9934C197.726 24.8061 197.012 25.7845 196.346 27.2867C196.239 27.5227 196.12 27.7862 196.008 28.0508C195.781 28.6103 195.533 30.2086 194.399 30.7584C194.252 30.8295 194.01 30.5346 193.921 30.6123C192.312 32.0153 193.148 32.7912 192.615 33.9687C192.075 35.1455 190.159 35.8817 189.729 35.9593C188.603 36.1907 190.097 35.2585 190.091 35.1739C190.04 34.2375 189.181 35.2581 188.391 35.8924C187.51 35.1471 186.521 36.1108 187.572 36.5482C187.691 36.5944 188.207 35.9914 188.391 35.8924C188.501 37.3191 187.36 38.5179 185.332 38.7472C184.38 38.8375 184.679 37.9528 182.798 39.5186C181.92 40.2115 182.716 40.6419 181.947 41.3646C181.461 41.8101 180.86 42.1942 180.167 42.52C178.309 43.3745 175.877 43.8769 173.335 43.4856C172.062 43.2193 173.203 43.9701 172.278 43.7411C169.63 42.9724 168.388 40.55 167.655 38.7345C167.583 38.5589 167.29 39.1483 167.09 38.5152C166.909 37.9173 166.793 37.3453 166.715 36.7924C166.276 33.0144 166.982 30.0799 168.046 26.6313C168.612 24.747 169.97 21.2602 171.827 19.4778C171.863 19.4419 171.899 19.4061 171.935 19.3705C175.006 16.0469 180.984 15.7337 184.223 17.0748C186.442 17.9302 186.169 17.4082 187.273 17.7562C187.388 17.8004 187.504 17.8539 187.621 17.916C189.801 19.0119 190.591 22.4294 190.533 22.8023C190.56 22.8051 189.523 21.1673 189.825 22.179C189.678 22.917 190.517 22.7779 190.533 22.8023C190.678 23.1059 191.675 26.6184 191.764 27.3016C191.869 27.6731 192.262 27.3985 192.307 27.5979C192.58 28.8361 192.716 30.0914 192.721 31.3593C192.607 34.918 192.147 38.7953 188.186 42.2271C188.083 42.2985 187.928 41.8097 187.694 41.9736C187.621 42.0238 187.548 42.0728 187.474 42.1206C185.858 43.1512 184.132 43.7525 182.142 43.5769C180.175 43.4527 177.93 41.9766 177.042 39.9408C176.928 39.6993 176.835 39.4657 176.754 39.2293C175.736 35.681 176.843 33.7896 178.041 32.7018C178.658 30.7936 180.688 28.7591 182.04 27.959C182.243 27.8278 182.406 27.7046 182.541 27.5825C183.275 26.931 183.068 26.2959 183.158 26.2122C184.809 24.8321 186.389 24.175 188.28 23.8677C189.245 23.7393 190.273 23.6429 191.777 24.0009C192.519 24.1964 193.471 24.5414 194.402 25.3954C195.348 26.2357 195.968 27.6134 196.074 28.7093C196.1 28.9253 196.114 29.1375 196.118 29.3442C196.039 33.0446 193.964 35.9451 192.808 37.7265C191.867 39.071 191.053 39.638 190.09 40.7794C189.957 40.9335 190.393 41.0913 190.36 41.1459C189.455 42.6744 189.364 41.3566 188.99 41.4533C187.605 41.7639 186.882 41.9568 185.261 43.3478C185.242 43.3636 185.223 43.3836 185.204 43.4073C184.857 43.8549 184.273 45.6844 183.459 46.1296C182.37 46.7187 182.603 46.0608 181.459 46.6201C181.358 46.6641 181.492 46.9713 180.729 47.2008C177.137 48.1641 173.287 48.7628 168.532 47.1642C167.853 46.8849 168.551 47.7556 167.513 47.2967C167.278 47.1849 167.019 47.0495 166.772 46.9048C164.181 45.6814 162.152 41.544 162.514 38.9584C162.673 36.3028 163.547 34.5282 164.391 33.0354C164.844 32.2816 164.913 32.9393 165.094 32.8211C165.788 32.3788 166.031 31.5349 166.174 30.8994C166.252 30.5356 166.295 30.2396 166.34 30.1606C169.466 24.9813 173.298 22.5492 178.191 19.083C178.368 18.9584 179.196 17.9532 180.216 17.4141C180.717 17.1466 181.251 16.9952 181.716 17.1076C181.821 17.1236 183.172 17.5072 183.912 16.6164C183.963 16.5612 183.127 16.3598 184.336 16.0035C185.531 15.6539 187.493 14.8385 189.344 15.123C189.946 15.2101 191.261 15.9341 192.963 15.2896C193.007 15.2022 196.017 13.8781 196.816 15.2452C196.938 15.4814 196.496 16.467 198.666 16.5657C199.092 16.6024 198.474 16.0829 199.562 16.3366C199.934 16.4292 200.32 16.5713 200.714 16.7492C202.085 17.3638 203.446 18.3798 204.925 19.1572C205.249 19.3066 206.995 19.8742 207.333 21.2623C207.383 21.4739 206.856 21.4294 207.222 21.9653C208.934 24.4987 210.492 27.4117 210.765 30.5031C210.845 31.5854 210.152 31.1378 210.103 32.2273C210.065 32.9318 210.003 34.0746 209.958 35.087C209.937 35.6339 209.929 36.1474 209.979 36.5473C210.098 37.69 211.3 36.6106 211.059 38.3533C210.012 46.0524 203.065 52.4437 195.887 54.0262C194.837 54.2815 195.79 54.4346 194.222 54.7777C194.139 54.7943 194.056 54.8108 193.971 54.8272C188.125 56.0939 179.28 55.1633 175.206 53.3653C171.912 51.9303 176.33 52.5527 173.793 51.6583C172.586 51.2245 170.921 51.9323 170.6 51.8698C167.531 51.293 165.691 50.0469 163.038 48.9899C162.482 48.762 162.811 49.4404 162.339 49.2385C161.645 48.941 160.942 48.5562 160.269 48.144C159.38 47.6002 158.519 46.9984 157.673 46.4338C157.011 45.9862 156.908 46.356 156.319 45.869C154.909 44.6838 153.744 43.3567 152.845 41.6072C152.769 41.4529 153.819 42.1143 152.979 40.9528C151.605 39.0425 150.771 36.1185 150.123 33.6413C149.929 32.9186 149.073 32.9164 149.567 31.3107C149.659 31.0399 150.35 31.2498 150.092 30.355C150.04 30.1709 149.95 29.94 149.81 29.64C149.645 29.3888 148.684 26.2431 149.742 24.8593C150.005 24.4965 150.994 23.704 151.1 22.8605C151.113 22.7418 150.559 23.0786 150.715 22.3739C151.284 19.8866 152.473 17.4404 153.771 15.2104C154.123 14.6113 153.165 15.2219 153.714 14.3337C153.732 14.3049 153.75 14.2762 153.768 14.2474C155.162 12.0245 157.328 9.5382 159.372 7.77414C160.137 7.11763 159.892 7.87367 159.974 7.85175C161.269 7.54968 161.215 6.43176 161.504 6.12741C163.303 4.30655 165.284 3.50014 167.963 2.54505C168.045 2.51725 168.111 2.49013 168.163 2.46331C168.46 2.28072 168.068 2.03127 168.157 1.97103C169.213 1.29445 168.557 2.27248 169.303 2.164C171.399 1.86862 173.679 1.38066 175.786 1.04151C176.559 0.918213 175.619 0.537316 176.32 0.434269C180.473 -0.179628 184.921 -0.157282 188.968 0.594876C189.731 0.738652 189.2 1.06289 189.349 1.16923C190.354 1.90594 192.055 1.34556 192.447 1.34153C194.184 1.30288 194.759 1.78737 196.222 2.09872C197.201 2.31255 198.191 2.56919 199.202 2.8744C205.128 4.66945 211.874 7.26247 217.1 11.0472C218.95 12.4173 220.718 13.9771 222.152 16.2601C223.602 18.4702 224.361 21.8612 223.611 24.6473C222.291 29.5176 219.882 33.014 216.92 36.5941C216.553 37.0235 217.31 36.9356 217.004 37.3004C212.932 42.0503 207.968 45.4025 202.962 48.476C202.552 48.7241 203.396 48.8002 202.74 49.214C201.366 50.0826 199.567 50.9947 198.07 51.5503C197.329 51.827 198.097 50.9926 197.356 51.277C195.656 51.9223 193.887 52.6719 192.181 53.4598C191.478 53.7858 192.751 53.8 191.815 54.1886C189.336 55.2151 186.936 56.1147 184.416 56.9384C180.308 58.2728 176.044 59.336 171.452 59.6492C170.94 59.6815 170.367 58.7527 169.334 59.0661C169.285 59.3531 169.325 59.6797 169.322 59.9809C165.132 60.3788 160.613 60.8812 155.293 57.9733C154.457 57.4576 153.5 56.8347 152.496 55.7718C151.481 54.7288 150.649 53.1387 150.323 51.8961C149.113 47.611 148.048 43.0398 147.378 38.4012C147.316 37.9703 146.898 38.7968 146.777 37.9563C146.098 33.0826 145.675 28.0927 146.937 22.8546C147.07 22.3369 147.936 22.7443 148.072 21.2122C148.079 20.9404 148.483 18.6347 148.487 17.9842C148.483 17.8936 147.933 18.194 148.148 17.4418C149.38 13.08 152.13 8.58687 155.862 5.67355C156.458 5.20648 156.163 6.08643 156.587 5.76413C157.338 5.1998 158.066 4.67358 158.862 4.14243C160.986 2.73119 163.163 1.22204 165.476 0.346555C167.553 -0.412002 167.2 0.684404 168.568 0.919128C168.749 0.948016 170.029 0.451099 170.263 0.877828C170.772 1.93125 170.675 3.31441 171.304 4.40591C171.356 4.52644 171.707 4.40584 171.729 4.45009C171.731 4.4603 171.702 4.48084 171.637 4.50764C171.574 4.53511 171.452 4.56449 171.422 4.59787C171.327 4.67369 171.809 4.74796 171.828 4.89315C171.857 4.90894 171.795 4.98532 171.593 5.14881C171.402 5.30752 171.16 5.52488 171.09 5.67393C170.998 5.87816 171.456 6.19202 171.224 6.50407C170.996 6.81614 170.474 6.62276 170.022 7.10641C169.574 7.59773 170.069 7.93076 169 8.59087ZM188.353 25.858C189.762 26.0664 189.9 24.4009 188.281 25.0532C188.205 25.0902 188.279 25.8514 188.353 25.858ZM170.086 21.0767C171.583 20.3013 171.539 18.8201 170.361 19.296C169.17 19.8256 169.622 21.3378 170.086 21.0767ZM165.441 36.1993C165.916 34.3624 163.599 33.8891 164.142 36.1397C164.179 36.2741 165.418 36.3134 165.441 36.1993ZM164.13 3.54134C164.152 3.55131 164.952 3.10559 164.965 3.07504C165.129 2.3729 163.509 3.2748 164.13 3.54134ZM177.806 43.7169C177.228 43.5121 175.686 43.9824 176.396 44.3253C177.001 44.6191 178.562 43.9923 177.806 43.7169ZM178.427 23.9756C178.455 23.9843 179.004 23.64 178.918 23.5327C178.634 23.1818 177.947 23.8049 178.427 23.9756ZM196.492 27.2774C194.732 30.6663 191.929 31.6222 194.02 28.2075C194.393 27.5755 193.837 29.8878 194.422 29.144C195.501 27.7613 194.903 26.2073 196.236 24.9005C196.481 24.663 196.6 27.0846 196.491 27.2846C196.491 27.2822 196.492 27.2798 196.492 27.2774ZM189.399 27.6814C189.426 27.6842 190.311 27.66 190.335 27.6585C190.597 27.4146 190.263 27.2393 189.889 27.249C189.517 27.2562 189.172 27.4394 189.399 27.6814ZM205.778 34.1587C205.759 34.1776 205.741 34.4789 205.707 34.8492C205.66 35.4359 205.552 36.1854 205.57 36.2273C205.972 36.9146 206.408 35.7902 206.375 34.8865C206.358 34.2612 206.145 33.7989 205.778 34.1587ZM172.32 28.1156C172.536 29.1533 172.358 30.1729 171.578 30.7805C171.779 29.8825 172.009 28.9825 172.32 28.1156Z" fill="#326F14" fill-opacity="0.75"/>
<path d="M43.6382 55.6238C43.3174 56.2171 42.663 55.6598 42.0649 54.8815C41.8764 54.6403 41.8254 53.4724 41.6848 53.2545C41.4071 52.8306 41.267 53.4245 40.9703 52.9189C40.8707 52.7458 40.7224 50.902 40.6208 50.7628C40.4645 50.5554 40.323 50.4462 40.1862 50.3905C41.7669 49.99 44.0564 49.4226 45.8039 47.8397C48.4645 45.4311 49.1322 42.9534 49.1518 42.116C49.7881 39.1756 49.0026 37.4926 48.6388 37.2258C48.3142 36.7128 46.4023 33.5912 44.8924 33.1431C44.7885 33.0954 44.6801 33.0645 44.5704 33.0475C44.2155 33.0789 43.8127 33.3657 43.6005 33.5987C43.3808 33.8286 43.3425 33.9908 43.472 33.6835C43.5057 33.6026 43.9708 32.0493 44.01 31.9215C44.5508 29.9481 43.6503 33.0956 43.5736 33.5252C43.2721 35.2274 43.8576 35.4844 44.3519 34.8877C44.5684 34.6313 44.5882 31.405 44.6494 33.2199C44.6568 33.3426 44.5067 35.0587 44.5541 35.2453C44.6659 35.6658 44.9519 35.3673 45.0628 35.5049C45.2829 35.7794 45.3241 35.762 45.5483 35.7793C45.8492 35.8176 46.2834 36.6574 46.6319 36.2435C46.7031 36.1503 46.4888 34.3956 46.5834 34.0882C46.6762 33.7817 46.9907 33.9064 47.138 34.3103C47.284 34.7148 47.3694 36.1001 47.419 36.4148C47.8561 39.0702 47.8932 35.3268 47.918 35.2307C48.6009 33.6531 49.6318 35.3467 50.5748 35.358C50.5771 35.3675 50.5795 35.3722 50.5817 35.3715C50.6321 35.3525 50.6274 34.6288 50.9489 34.5869C51.3411 34.5441 52.2533 35.1407 52.7212 34.655C52.7702 34.6062 51.6038 32.8881 51.6552 32.8287C52.1977 32.201 53.0686 31.8528 54.7813 32.286C54.9547 32.3304 55.9731 33.8479 56.2169 33.9753C57.6682 34.7412 60.9662 36.6704 56.1213 30.3712C56.6861 30.2951 57.3419 30.1455 58.7433 31.0386C59.6475 31.6113 60.7558 33.283 60.4651 32.4065C60.4007 32.2108 59.1605 30.9881 59.1503 30.7936C59.108 29.9763 59.9075 30.0125 59.6826 28.9989C59.6336 28.7902 58.5574 27.6638 58.3891 27.4374C57.7289 26.5427 58.0634 26.6718 58.6129 27.0532C59.0303 27.6058 59.7487 28.3842 59.8406 28.4904C61.1975 30.0244 60.5257 29.5372 60.293 30.125C60.2471 30.2633 58.4021 29.2544 58.2673 29.4131C57.5226 30.2862 57.5616 32.3112 58.8026 33.157C59.0706 33.3353 60.731 32.6522 60.9396 32.684C61.5489 32.7022 60.1847 33.2677 59.6462 33.7541C59.4462 34.0267 59.4074 34.2872 59.7156 34.3867C59.9277 34.455 61.192 33.5939 61.3498 33.5319C63.7007 32.3452 60.7464 34.5898 60.7843 34.7732C60.6873 35.5364 61.444 35.2602 61.9922 34.7186C62.5668 34.1956 62.9812 33.4592 62.7821 33.6645C62.7413 33.7217 61.7995 35.4069 61.7689 35.4794C61.5446 35.9386 60.8415 35.1088 60.0347 33.3818C59.9113 33.1148 60.3158 31.7169 60.3418 31.5397C60.6873 28.7603 59.8417 32.4099 59.7647 32.539C59.1234 33.4516 59.1373 30.2785 58.1601 34.6419C56.2959 32.8181 53.9494 35.1684 51.8008 31.1072C51.7724 31.06 51.8823 29.2193 51.8246 29.1331C51.1231 28.0778 51.1776 30.9459 50.6524 34.4391C50.5252 35.3164 50.2429 31.081 50.2113 30.7706C50.11 29.6263 50.2729 26.8861 50.2362 26.6643C49.9194 24.9222 49.8585 33.9908 49.435 33.9898C49.4217 33.9746 49.4916 32.3058 49.4572 32.1396C49.3494 31.6176 49.2335 32.2801 49.1266 31.7049C48.8834 30.3741 48.7953 25.9668 48.3912 28.5315C48.3411 28.8645 48.4192 34.0083 48.0336 33.7664C47.8746 33.6652 47.2066 33.7582 47.0094 33.4275C46.8144 33.0967 46.9258 31.4376 46.9116 31.366C46.3582 29.1807 46.5445 28.2699 46.2218 25.029C45.891 21.8009 46.0986 29.5098 46.0076 30.3722C45.9173 31.2321 45.4979 29.4315 45.3866 28.8052C45.2767 28.1785 45.3736 27.1227 45.2797 26.7688C44.6505 24.4571 45.1198 30.6011 44.9655 31.8291C44.6115 34.7369 44.1184 29.0302 43.6927 28.4832C43.5789 28.3355 43.71 29.6344 43.6176 29.7593C43.2532 30.2369 42.9555 28.4619 42.5802 30.1138C42.5159 30.3831 42.3136 33.8322 41.9825 31.3209C41.9347 30.9588 41.9657 29.5311 41.7885 29.2192C41.5241 28.751 41.0657 28.4602 40.8241 28.9489C40.6464 29.3104 40.9836 31.6449 40.7046 30.9283C40.5807 30.6083 40.713 29.2263 40.4846 28.7398C40.2569 28.2532 39.7384 28.3408 39.5425 28.3993C39.3469 28.4586 39.554 30.2311 39.5445 30.3518C39.486 31.0434 39.1602 31.9222 39.1273 31.9221C37.4853 32.2352 35.7227 29.349 34.1552 30.4717C34.0329 30.5572 34.2696 32.4225 34.2525 32.4549C33.8801 33.2747 33.8203 28.269 33.3726 26.6285C33.7304 30.4237 33.4916 29.7507 33.2168 30.1934C33.0842 30.4098 33.2906 31.8736 33.2896 32.0253C33.2599 34.2776 32.8605 31.4059 32.7688 30.8193C32.4332 28.6613 32.4971 31.2401 32.2697 29.7981C32.0417 28.3671 32.086 26.2118 31.786 26.266C31.8234 27.6325 32.3602 31.1645 32.1868 31.7601C31.5425 34.011 29.7103 31.3777 28.9869 31.161C28.2739 30.9426 28.0836 31.2166 27.6336 30.769C26.8141 29.9614 27.3664 32.5625 27.0598 33.8149C26.7554 35.0676 26.2375 28.5756 26.0162 27.1924C25.7946 25.8099 25.8873 27.2484 25.7208 26.4935C25.5541 25.7389 25.6186 24.7739 25.3981 24.5086C25.1791 24.2432 24.9441 26.7758 25.052 28.2365C25.2764 31.3314 25.8839 34.5352 25.2675 33.4575C25.2316 33.3934 25.1188 31.6832 24.9914 31.5242C23.9933 30.3166 23.0802 30.3488 22.0838 29.3046C21.9434 29.1587 21.8014 27.2569 21.7165 27.1507C20.8293 26.0399 21.5108 29.1882 21.6041 32.7745C21.0542 28.0675 20.4455 25.2209 19.8954 25.2594C19.894 25.2596 19.8927 25.2597 19.8913 25.2598C19.3992 25.3156 19.823 27.3531 19.9396 28.8208C19.9983 29.2572 19.4139 27.9396 19.6412 28.8902C20.4912 31.9605 21.5734 35.3681 21.2944 33.9543C21.2702 33.8913 20.596 32.2825 20.5518 32.1865C20.1642 31.5969 21.8452 34.535 22.5983 34.4439C22.8669 34.4221 22.7716 33.8815 22.4268 33.4788C22.0947 33.0617 21.5487 32.8029 21.3648 32.8094C18.9621 31.663 17.9848 31.3196 18.0175 31.48C18.0596 31.6182 19.171 32.1635 20.935 32.702C20.7877 32.6716 20.9806 32.7408 20.4683 32.7656C20.2931 32.7802 18.7545 32.6396 18.5879 32.6287C15.9621 32.6269 19.5371 32.9155 19.6786 32.8974C20.3465 33.0414 20.0505 33.1267 19.9004 33.2904C19.7409 33.4227 19.7748 33.6511 20.8414 33.1423L19.4499 31.4833C19.492 31.4459 19.5354 31.4062 19.5803 31.3642C19.659 31.3028 21.8002 28.2782 20.358 30.5709C20.2667 30.7344 19.1486 32.0132 19.3026 32.2759C19.4247 32.5204 18.9357 34.5515 20.1383 33.2447C20.4409 32.9377 21.9754 30.3447 21.096 32.5306C20.9797 32.829 20.4897 33.7729 20.2692 34.3233C19.5885 36.0873 21.2308 32.7198 20.0549 35.6815C18.8751 38.6415 18.4291 41.0511 19.7794 39.2174C19.8236 39.1659 20.999 36.4367 21.1209 36.5313C21.324 36.6891 21.4645 37.3913 21.7305 37.4552C21.8559 37.4841 22.332 35.7007 22.363 35.6752C23.4024 34.9156 23.4762 36.6343 24.2367 37.5244C24.389 37.6938 25.2863 35.3068 25.2511 37.3159C25.2486 39.5193 23.392 48.397 24.7669 46.42C25.3761 45.6334 27.1246 34.2808 27.0801 40.2553C28.3864 38.903 29.3663 41.9987 30.6378 39.9107C30.6959 39.8182 30.8909 36.6148 31.0046 36.6589C31.1778 36.7306 31.2762 38.2285 31.4076 38.3268C31.9594 38.7757 32.4326 37.484 32.9519 37.6657C33.151 37.7311 33.1387 39.2817 33.3847 39.3585C33.6334 39.4333 33.6931 37.389 34.0633 38.3559C34.2466 38.8349 34.5165 40.7556 34.7963 42.1674C34.8323 42.1764 34.9445 42.144 34.9809 42.1512C35.1732 42.902 35.3613 43.5052 35.5088 43.6585C35.0289 39.574 35.271 39.6311 35.52 38.5015C35.5666 38.2825 35.2913 36.8755 35.3025 36.6989C35.3379 35.9493 35.6348 37.1051 35.6496 36.2911C35.6531 36.0956 35.4474 34.7064 35.437 34.4683C35.3302 32.3935 36.1605 35.4589 36.3235 35.9891C36.9125 38.0084 36.7195 36.1876 37.0478 36.9642C37.3846 37.7389 37.2811 38.803 37.5996 39.2522C38.2678 40.1794 38.8577 39.8282 39.3573 39.7832C39.5563 39.7565 39.015 37.9564 39.0341 37.91C39.309 37.3619 40.1766 39.2048 39.5016 35.5256C42.0735 44.8358 39.508 34.5611 40.5045 36.3004C40.5841 36.4413 41.7954 40.8442 41.7848 41.5393C41.7714 42.2344 41.1535 40.9187 41.1557 41.994C41.1617 42.2454 41.8099 46.4903 41.812 46.7558C41.8685 48.8236 40.2835 42.1856 40.1844 41.8241C39.0773 37.929 39.6794 42.5154 39.6187 42.8536C39.398 44.3924 38.7558 43.5404 38.4988 44.6462C38.3274 45.3614 39.0651 49.7695 38.7816 49.6793C37.8148 49.382 36.6853 43.2462 36.6432 48.7069C36.6266 49.8713 37.4077 54.6984 36.2926 50.9649C36.2581 50.8468 36.019 49.9267 35.7952 49.3171C35.6857 49.2954 35.3484 49.393 35.2402 49.3657C35.059 48.7469 34.8768 48.4372 34.8146 49.5518C34.799 49.8333 34.8784 51.2547 34.8426 51.3765C34.599 52.1644 34.352 51.0411 34.066 51.5975C33.7791 52.1538 33.4205 52.9774 33.039 52.505C32.8066 52.2229 32.469 49.5771 32.3592 48.9295C32.048 47.0645 31.7796 50.1346 31.5842 47.8704C31.404 45.5945 31.6952 42.136 31.2822 40.6662C31.2718 44.365 31.2361 48.1614 31.2048 51.881C30.1098 51.7501 29.0697 50.5262 27.9529 50.6234C27.8126 50.639 27.8362 52.6326 27.6775 52.6999C26.9946 52.9732 26.5388 51.515 25.8011 52.0081C25.2298 52.3973 24.3712 54.4165 23.6763 54.8554C23.8921 50.6138 22.8585 51.9093 22.2738 51.407C22.0756 51.2344 22.3002 50.1262 22.218 49.7349C21.9109 48.2844 21.4408 52.0032 21.1545 52.5459C19.8732 54.8427 21.6397 46.5642 20.874 46.5909C20.8485 46.594 19.1871 50.8243 19.0164 51.068C18.0303 52.6969 19.3504 49.5315 19.1438 49.1273C18.7636 48.3843 18.7496 47.2547 17.7029 48.2982C17.4098 48.6134 15.9776 51.0931 16.3492 48.9083C16.4001 48.6231 16.9517 47.237 16.945 47.1412C16.8054 45.5288 15.0638 49.8754 13.9854 51.1459C12.8912 52.4088 13.4994 49.1276 13.7902 48.2314C14.4913 45.8938 14.4849 47.42 14.6047 47.2129C15.9823 44.7455 15.3549 44.9932 15.1436 44.6239C17.1099 40.4712 16.6332 40.5396 14.919 44.2572C14.7356 44.6656 15.1732 44.4052 15.1436 44.6239C12.9036 48.5491 11.9234 48.6988 13.4207 44.7057C14.1386 42.8409 15.5116 40.9834 14.413 41.3076C13.9089 41.4437 12.3584 44.2061 11.5742 44.7293C10.7458 45.2732 10.4106 44.884 10.2373 44.3095C9.48075 43.2918 6.78323 41.2372 6.60721 39.9814C6.4751 38.7129 6.86399 37.5045 6.4098 36.7253C6.1061 36.1845 4.55731 37.1622 4.28733 36.7695C3.56478 35.6552 4.73739 34.5137 4.03598 33.449C3.97057 33.3434 2.16509 33.6704 2.13248 33.2835C1.9295 30.6333 3.11562 28.4786 4.51473 25.6973C4.63409 25.4916 4.75564 25.2629 4.87901 25.0105C5.30692 24.0251 6.03864 20.8825 7.72716 19.5298C10.6233 16.9989 15.4434 17.8413 17.02 16.8913C18.1937 16.211 17.5887 14.504 17.9968 13.1822C18.0443 13.033 18.0996 12.9063 18.1612 12.8002C18.313 11.2144 19.4018 14.94 19.5626 15.5495C19.5676 15.5709 19.2558 16.0445 19.5776 16.9403C19.9512 18.8471 19.5592 15.5584 19.5626 15.5495C19.674 15.9672 20.4763 16.2759 20.5727 15.9141C20.627 15.7159 20.361 14.0179 20.3939 13.9468C21.1827 12.2936 22.1464 11.7343 23.2506 12.4134C23.2725 12.4457 23.4702 14.3576 23.5186 14.4099C24.2045 15.1898 24.2963 12.8132 24.6281 11.3715C24.9567 9.93094 25.406 10.3523 26.0381 13.6027C26.3545 13.1509 27.0265 14.5472 27.4134 15.3973C27.8 16.2474 27.4651 12.5214 27.4844 12.445C28.0742 10.0067 28.7639 12.0911 29.6508 12.3432C30.0711 12.4696 30.8282 11.8571 31.2372 11.4116C31.5602 11.0531 31.8436 11.9091 32.1191 11.3239C32.1565 11.2456 31.9757 9.58922 31.9837 9.52421C32.1839 7.50819 32.341 11.581 32.4743 12.2998C32.9572 14.914 33.2285 16.3051 33.586 15.0293C33.6668 14.7372 33.5282 8.86747 33.7012 8.51067C33.9243 8.0577 33.9838 10.1606 34.2124 9.63334C34.2321 9.59015 34.1324 8.29741 34.302 8.34238C35.0878 8.53418 35.9744 9.23015 36.7636 9.05074C36.872 9.03118 36.6036 6.98741 36.7593 6.92533C37.4877 6.63588 38.3219 6.66472 39.099 7.58857C39.2906 7.82244 39.252 9.26624 39.3126 9.69122C39.6781 12.2627 39.8269 8.49232 39.8818 8.41802C41.141 6.54985 42.3049 9.9078 43.6158 8.24855C43.6823 8.15128 44.1679 4.10695 44.5149 7.55558C44.5401 7.78494 44.8746 11.3135 45.0458 8.89199C45.057 8.7405 44.8574 6.92411 45.1414 7.10371C45.4223 7.28299 45.8586 6.05937 46.2783 8.05366C46.4129 8.68185 46.7368 12.2046 47.0692 9.39005C47.0852 9.19342 47.6127 2.8323 47.8441 7.21765C47.8811 7.93958 47.8624 12.5805 48.2922 10.2001C48.3756 9.7387 48.2213 8.70351 48.4438 8.05696C48.7881 7.06053 49.2327 8.30506 49.6699 6.24113C49.7421 5.87562 50.1069 2.72858 50.3384 5.12295C50.3739 5.49793 50.2773 7.04628 50.4101 7.2215C51.0397 8.06204 51.7203 7.03951 52.3627 8.13089C52.5853 8.51444 52.3907 11.0146 52.6059 11.693C52.8225 12.3712 53.2617 13.0332 53.5561 11.8999C53.8593 10.7665 53.743 6.76538 54.1548 6.46357C55.9418 5.15472 57.59 7.61129 59.376 8.1422C59.6443 8.22203 59.5647 6.7764 59.9919 6.79579C61.4682 6.83533 64.7468 5.97976 65.7881 9.34137C66.5357 12.0076 64.5361 13.4446 65.234 14.6236C65.523 15.1767 67.2112 10.8224 67.4017 10.7232C69.0595 9.64113 69.4311 11.9133 70.9653 11.8409C71.3063 11.8367 71.7117 9.97164 72.0206 9.99924C73.1397 10.1078 73.734 11.3014 74.971 11.8129C75.5071 12.0322 76.139 10.7374 76.582 11.1336C77.5752 12.0274 78.6383 13.5164 79.0132 15.6821C79.0352 15.8692 77.0662 16.4896 77.99 17.429C79.2775 18.7751 80.1927 21.2629 81.8746 23.7536C82.1253 24.0732 82.416 24.3841 82.7616 24.6833C83.3861 25.2088 86.596 24.3052 84.8712 26.6615C84.4913 27.1749 80.5799 27.4612 84.2567 28.7577C84.5594 28.8779 85.986 29.6342 86.8845 30.8521C87.7923 32.041 88.1101 33.6663 86.5224 34.4068C85.688 34.8514 82.3425 35.3718 82.6346 36.2772C82.6814 36.4211 84.5234 36.3369 84.4946 37.1459C84.3285 40.0416 82.8991 42.4178 82.0631 44.5686C81.8306 45.1587 83.8679 45.4479 83.4412 46.3254C82.6182 47.984 81.2483 49.2914 79.9441 50.1037C79.6928 50.1535 79.4201 50.1714 79.1523 50.1694C78.8408 50.1649 77.9331 48.9456 77.8095 48.8357C75.8066 47.0415 78.1331 49.809 78.2087 50.0253C78.6498 51.3306 77.1911 50.3622 77.1025 51.0446C77.0741 51.2302 78.2993 52.4452 78.3802 52.5789C79.1517 53.902 77.2607 51.4435 76.8909 51.3165C75.8503 50.9508 75.4911 51.4513 75.2096 51.9858C75.1078 52.1839 76.5902 53.5425 76.4816 53.7047C75.8576 54.6977 74.7777 55.3509 73.1492 55.2373C72.841 55.2124 71.9984 53.9179 71.7439 53.6714C69.9786 51.9348 71.6746 54.8613 71.7737 55.1876C72.2503 56.6597 71.2638 55.7001 71.04 56.1823C69.9543 58.5664 66.6592 59.6874 63.5766 60.5332C61.1283 61.212 58.5155 61.4329 55.4972 61.5973C54.5935 61.5047 53.6979 61.5247 52.739 61.8138C52.5812 61.8591 53.0375 63.8603 52.9015 63.9258C51.1024 64.6794 49.0979 64.0864 46.9532 64.7533C46.7734 64.8042 47.105 66.734 46.808 66.8808C46.1972 67.1953 45.37 67.0988 44.7102 66.4699C44.3925 66.1669 44.8437 64.5093 44.5332 64.238C43.8158 63.6013 43.0433 63.4307 42.2207 63.6812C41.8642 63.7908 42.2445 65.81 41.7762 65.7961C38.6437 65.7376 34.4365 65.3757 31.1028 61.0646C30.8654 60.7614 32.3624 57.0154 31.4831 57.4357C30.9312 58.4101 30.3312 59.5815 29.7635 60.6342C28.6188 60.1708 27.4655 59.5421 26.352 58.7601C21.3671 55.8331 17.1457 46.8725 17.2428 42.6653C17.1282 41.313 17.0359 39.7368 17.11 37.8229C17.1281 37.4151 14.9723 38.1025 15.0031 37.2601C15.104 34.7669 15.4833 31.6229 16.8965 28.6123C17.8399 26.6997 19.7543 23.7552 23.5464 21.5719C24.3324 21.1514 26.4625 24.169 27.8325 22.4272C28.0288 22.0622 30.7632 19.9431 31.3678 18.9388C31.4527 18.7787 30.1719 17.3728 31.3103 16.9095C32.6786 16.3796 34.0421 16.0454 35.3017 15.87C36.2401 15.7455 37.268 16.0486 38.2938 16.7944C38.5046 16.9495 38.4961 18.8286 38.6449 18.9556C39.6706 19.8453 40.6027 18.3412 41.688 19.9779C42.4109 21.0823 42.3312 24.3207 42.784 27.4819C42.8404 27.9278 43.2286 27.9862 43.2915 29.8352C43.4301 34.4831 43.4515 39.5758 43.6264 44.5293C43.6414 45.0628 43.6862 45.0414 43.6611 45.2103C43.6196 45.3792 43.5452 45.7371 43.6867 47.026C43.7354 47.1978 43.6925 48.0551 43.6882 48.9312C43.6929 49.5365 43.7893 51.4148 43.79 52.1899C43.793 52.9642 43.6818 51.391 43.6477 52.3039C43.6162 53.2282 43.7721 55.3619 43.6382 55.6238ZM29.1326 19.2011C29.5749 20.9632 28.9859 14.4095 28.8402 16.0052C28.8339 16.0901 29.1101 19.1148 29.1326 19.2011ZM29.2628 45.5548C28.9931 42.6401 28.5137 46.8876 28.7027 49.141C28.9182 51.3924 29.3585 46.4387 29.2628 45.5548ZM33.2688 43.4347C32.7672 41.1623 32.96 50.4915 33.4152 48.589C33.442 48.4813 33.2994 43.5665 33.2688 43.4347ZM41.4689 28.4638C41.4805 28.5504 41.7223 28.6189 41.7235 28.5321C41.7155 26.4378 41.2066 26.304 41.4689 28.4638ZM37.0185 40.7412C36.6862 39.5172 36.539 41.0149 36.9447 42.5401C37.2816 43.7659 37.4448 42.2622 37.0185 40.7412ZM43.5779 25.2734C43.5853 25.3712 43.7408 25.4546 43.7203 24.9007C43.6539 23.1167 43.4545 23.6272 43.5779 25.2734ZM43.1262 39.2207C42.1259 39.1387 39.6409 31.8236 40.7401 32.4239C40.9447 32.5304 41.0491 34.8889 41.441 35.5014C42.1742 36.6117 41.1006 31.8857 42.2041 34.2661C42.4117 34.7004 43.1922 39.2408 43.1276 39.2314C43.1271 39.2278 43.1267 39.2242 43.1262 39.2207ZM30.048 27.053C30.0616 27.1391 30.2798 27.201 30.2767 27.1147C30.1927 25.0241 29.7491 24.8985 30.048 27.053ZM52.4012 29.3269C52.4074 29.5124 52.8632 29.7037 52.8903 29.5342C53.2873 26.131 52.315 25.7319 52.4012 29.3269ZM21.2349 32.7513C21.9064 33.095 22.3709 33.3189 22.5721 33.4306C22.9862 33.5058 22.5549 33.2037 20.9376 32.7028C21.0212 32.7288 21.0561 32.7544 21.0923 32.7968C21.1352 32.7726 21.1794 32.7554 21.2349 32.7513Z" fill="#326F14" fill-opacity="0.75"/>
<path d="M199.819 32.5247C200.627 32.2812 200.121 31.8756 199.356 31.5321C199.118 31.4267 198.05 30.9582 197.832 30.875C197.405 30.7213 197.921 30.9699 197.404 30.8091C197.226 30.756 195.516 30.0576 195.367 30.0226C194.557 29.8528 194.946 30.1583 194.522 30.1887C192.407 30.4076 191.468 31.452 190.568 32.5176C190.442 32.6703 190.066 32.8295 189.732 33.0127C189.294 32.2855 188.83 31.7572 189.075 31.0853C189.125 30.9461 190.697 30.5461 190.818 30.4838C192.621 29.402 189.554 30.5663 189.073 30.5158C187.135 30.2971 186.787 30.1481 186.879 29.3202C186.915 28.9737 189.34 26.84 187.875 27.9395C187.781 28.0188 186.644 29.3135 186.48 29.4115C186.118 29.6376 186.171 29.2846 186.024 29.3469C185.75 29.4834 185.75 29.4637 185.641 29.4189C185.469 29.364 184.988 30.0825 185.06 29.6921C185.068 29.6004 185.761 27.9761 185.805 27.6709C185.844 27.3631 185.599 27.4393 185.435 27.8264C185.268 28.2114 184.917 29.554 184.824 29.8581C184.125 32.4487 185.001 28.8372 184.946 28.7315C184.959 27.9352 184.748 28.0525 184.656 28.3845C184.55 28.715 184.55 29.2471 184.549 29.2441C184.548 29.2438 184.548 29.242 184.547 29.2391C184.529 29.1768 184.536 28.5339 184.753 28.5637C185.03 28.6085 185.694 29.3883 186.049 29.0624C186.086 29.0305 185.238 27.1357 185.276 27.095C185.676 26.6645 186.304 26.6131 187.6 27.5071C187.732 27.5977 188.512 29.2473 188.699 29.4318C189.798 30.5439 192.425 33.1786 188.583 26.2297C189.01 26.3345 189.501 26.4065 190.613 27.5941C191.332 28.3559 192.241 30.1314 191.994 29.283C191.939 29.094 190.936 27.6726 190.922 27.5012C190.859 26.7836 191.484 27.0466 191.255 26.1154C191.206 25.9227 190.311 24.6478 190.168 24.4058C189.005 22.4494 191.348 25.3936 191.559 25.5787C193.095 26.9863 192.914 26.1289 193.276 25.9219C193.361 25.874 192.021 24.2636 192.055 24.1594C192.245 23.6428 192.711 23.5089 193.629 23.9601C193.837 24.0642 194.892 25.5031 195.05 25.6224C195.162 25.7046 195.2 25.7036 195.188 25.6465C195.133 25.3471 193.728 23.5746 194.233 23.9454C194.358 24.0347 195.327 25.2138 195.44 25.3372C197.237 27.263 194.891 24.3644 194.853 24.2882C194.346 23.2392 197.115 25.9795 196.96 25.36C196.931 25.2898 195.528 23.9631 195.52 23.8599C195.483 23.5281 195.5 23.45 195.481 23.949C195.477 24.2004 195.455 24.6233 195.53 25.2425C195.601 25.8452 195.83 26.6639 196.272 27.1972C196.543 27.511 197.957 27.092 198.138 27.1101C200.918 26.8518 197.246 27.5274 197.143 27.7097C196.734 28.0975 197.267 28.0703 197.374 28.0247C197.472 27.9455 197.169 28.0033 195.188 29.1285C195.926 28.8645 195.73 28.953 195.693 28.842C195.628 28.7058 195.695 28.274 196.052 26.2324C196.058 26.1841 196.871 24.5292 196.875 24.4381C196.913 23.3168 195.779 25.9531 194.31 29.1368C193.965 29.9461 195.342 25.9438 195.415 25.6401C195.748 24.5452 196.766 21.9977 196.82 21.7817C197.173 20.0609 194.158 28.6144 194.009 28.5671C194.007 28.5507 194.561 26.9755 194.596 26.8125C194.705 26.2995 194.445 26.9126 194.565 26.3477C194.849 25.0432 196.028 20.7948 195.052 23.183C194.932 23.4952 193.563 28.453 193.457 28.1724C193.413 28.0545 193.064 28.0582 193.039 27.7117C193.015 27.3646 193.448 25.763 193.458 25.6917C193.625 23.4832 193.933 22.6211 194.405 19.4039C194.84 16.1928 193.372 23.7637 193.141 24.5952C192.914 25.4248 193.014 23.6034 193.055 22.9723C193.101 22.3416 193.368 21.3193 193.371 20.9581C193.351 18.5944 192.551 24.7008 192.235 25.8887C191.648 28.2138 192.03 24.763 192.026 23.142C192.029 22.7978 192.018 22.5368 191.983 22.433C191.93 22.2734 191.819 23.5724 191.741 23.6851C191.446 24.1163 191.486 22.3245 191.034 23.9233C190.951 24.1828 190.441 27.5881 190.52 25.0632C190.529 24.6989 190.706 23.2834 190.623 22.9565C190.499 22.4657 190.211 22.1342 190.006 22.6005C189.856 22.9455 189.88 25.2981 189.762 24.5617C189.707 24.233 189.909 22.8673 189.793 22.3639C189.677 21.8602 189.31 21.9078 189.171 21.9525C189.032 21.9978 189.07 23.7804 189.056 23.9C188.976 24.5856 188.728 25.441 188.709 25.439C187.708 25.6459 186.521 22.6939 185.463 23.7868C185.383 23.8698 185.614 25.7349 185.603 25.7668C185.395 26.577 185.152 21.5834 184.764 19.9418C185.173 23.7317 184.978 23.057 184.809 23.4956C184.73 23.71 184.946 25.1711 184.953 25.3223C185.058 27.5659 184.637 24.7 184.538 24.1152C184.182 21.963 184.378 24.5326 184.133 23.0955C183.883 21.6699 183.789 19.522 183.569 19.5773C183.683 20.9383 184.282 24.4565 184.204 25.0489C183.946 27.2823 182.519 24.6758 181.977 24.4808C181.461 24.2794 181.359 24.5569 180.992 24.1271C180.32 23.3538 181.031 25.909 180.996 27.1541C180.967 28.3989 179.718 22.0095 179.377 20.6518C179.031 19.2957 179.288 20.7132 179.064 19.9753C178.838 19.238 178.762 18.2804 178.558 18.0301C178.348 17.781 178.519 20.295 178.812 21.7296C179.423 24.7702 180.321 27.9006 179.741 26.8637C179.706 26.8022 179.368 25.1232 179.255 24.9724C178.365 23.8312 177.729 23.9115 176.822 22.9539C176.696 22.8199 176.26 20.9647 176.18 20.8664C175.329 19.8404 176.381 22.8799 177.112 26.3807C175.852 21.8046 174.888 19.0595 174.468 19.1556C174.219 19.211 174.86 21.1831 175.138 22.6258C175.223 23.0602 174.64 21.7507 174.899 22.6911C175.75 25.7636 176.957 29.1234 176.174 27.8808C176.137 27.8216 175.662 26.1425 175.573 26.0596C174.996 25.5181 175.98 28.7032 175.741 29.2079C175.558 29.6023 174.377 27.86 173.919 27.6737C172.129 22.6463 172.18 23.9271 173.324 27.4269C173.218 27.4038 173.128 27.4324 173.035 27.453L174.024 26.9317C173.907 26.9882 173.78 27.0274 173.497 26.8492C173.338 26.7507 172.456 25.4815 172.35 25.3523C170.664 23.3423 172.725 26.2716 172.78 26.4062C173.239 27.7713 171.171 25.9638 172.553 28.2794C172.601 28.3646 175.055 31.1425 173.164 29.2032C173.031 29.0724 172.021 27.7116 171.766 27.7665C171.523 27.8092 169.805 26.6983 170.779 28.1551C171.008 28.5107 173.036 30.7388 171.245 29.2097C171.001 29.0032 170.251 28.2494 169.802 27.8624C168.364 26.6383 171.047 29.254 168.644 27.1628C166.244 25.0701 164.244 23.7196 165.61 25.49C165.648 25.5437 167.815 27.5758 167.707 27.6285C167.529 27.7148 166.885 27.5167 166.773 27.682C166.721 27.7612 168.18 28.8904 168.196 28.9244C168.623 30.0305 167.089 29.3231 166.111 29.4458C165.924 29.4728 167.772 31.2076 166.017 30.2484C164.083 29.2182 156.822 23.7994 158.173 25.6442C158.694 26.4144 168.13 32.9632 162.898 30.1016C163.681 31.6156 160.638 30.7777 162.032 32.5996C162.093 32.6816 164.839 34.34 164.76 34.3923C164.637 34.4699 163.287 33.8166 163.154 33.8541C162.565 33.9947 163.53 34.9148 163.181 35.1585C163.051 35.254 161.694 34.5063 161.536 34.6262C161.419 34.7171 162.383 35.3112 162.461 35.5051L162.47 35.4863C162.499 35.5507 162.427 35.5742 162.177 35.5285C161.421 35.3821 157.51 33.9216 156.935 34.0446C160.743 35.5992 160.592 35.741 161.508 36.3956C161.687 36.5195 163.052 36.9546 163.207 37.0367C163.871 37.3677 162.724 37.0567 163.458 37.3929C163.635 37.4725 164.969 37.9118 165.19 37.9969C167.133 38.7079 164.072 37.9263 163.522 37.8521C161.462 37.47 163.215 37.994 162.389 37.921C161.557 37.8804 160.596 37.4554 160.07 37.5302C158.976 37.7172 159.12 38.3263 159.024 38.7201C158.993 38.8816 160.871 38.9192 160.91 38.9462C161.362 39.2498 159.357 39.5033 163.087 39.7546C153.43 39.74 164.017 39.9431 162.085 40.2845C161.929 40.3119 157.363 40.4007 156.692 40.253C156.022 40.0954 157.451 39.8795 156.411 39.6439C156.166 39.6012 151.901 39.1231 151.646 39.0378C149.643 38.501 156.461 38.8469 156.834 38.8661C160.879 38.9636 156.316 38.2605 156.017 38.0703C154.626 37.3714 155.653 37.0205 154.735 36.3301C154.145 35.8746 149.809 34.7897 150.029 34.4756C150.794 33.3769 156.765 35.2216 151.97 32.5986C150.952 32.0336 146.347 30.385 150.162 31.196C150.408 31.2322 153.806 32.2132 151.849 31.1416C151.603 31.0041 150.298 30.4363 150.204 30.3528C149.93 30.1081 150.004 30.0359 150.132 29.9903C150.212 29.9176 150.279 29.5729 150.361 29.5035C150.513 29.4671 150.743 29.471 150.534 29.2231C150.152 28.7727 149.561 28.1476 150.116 28.1269C150.449 28.1117 152.895 29.1582 153.503 29.3969C155.253 30.0882 152.653 28.4467 154.71 29.4032C156.773 30.3756 159.707 32.2174 161.144 32.6544C157.899 30.8784 154.578 29.0394 151.322 27.2398C151.823 26.5941 153.251 26.5056 153.525 25.7325C153.557 25.6337 151.8 24.6969 151.791 24.5615C151.769 23.988 153.19 24.3866 152.978 23.6708C152.808 23.1124 151.286 21.5929 151.092 20.9333C154.744 23.0858 153.89 21.7924 154.472 21.6454C154.671 21.5961 155.583 22.2648 155.945 22.3937C157.285 22.87 154.154 20.8165 153.748 20.3734C152.043 18.455 158.847 23.4911 158.994 22.9576C158.998 22.9375 155.67 19.8685 155.49 19.6439C154.27 18.2337 156.755 20.5758 157.145 20.6222C157.858 20.7071 158.841 21.2074 158.113 20.0205C157.892 19.6758 155.977 17.5866 157.791 18.8177C158.028 18.9798 159.137 19.9773 159.22 20.0152C160.62 20.6295 157.134 17.4991 156.173 16.1969C155.218 14.8883 157.917 16.7424 158.647 17.3287C160.553 18.8246 159.269 18.1694 159.432 18.3423C161.384 20.3788 161.238 19.8254 161.568 19.8267C164.899 22.9922 164.891 22.6055 161.896 19.8167C161.567 19.5137 161.751 19.94 161.568 19.8267C158.456 16.5584 158.378 15.8125 161.621 18.5347C163.135 19.8167 164.615 21.585 164.403 20.623C164.313 20.1856 162.078 17.9433 161.664 17.1506C160.742 15.3203 163.251 17.0427 163.364 16.3461C163.414 16.0854 162.153 14.8807 162.154 14.6527C162.164 14.0355 163.243 14.8365 163.145 14.0717C163.136 13.9997 161.956 12.6199 162.045 12.5223C162.394 12.1138 162.957 12.0413 163.528 11.991C164.239 11.845 165.913 10.314 166.638 10.3516C167.029 10.4762 167.432 10.6092 167.77 10.5041C168.117 10.3944 168.411 9.23295 168.844 9.29995C169.591 9.40347 171.155 11.671 171.485 10.9003C171.711 10.4027 171.11 8.69041 170.908 7.46075C170.528 5.0735 172.276 9.03349 172.517 9.65571C172.525 9.67634 172.343 10.1737 172.761 11.0219C173.389 12.8594 172.515 9.66503 172.517 9.65571C172.682 10.0543 173.394 10.2816 173.422 9.91538C173.437 9.7148 172.947 8.0676 172.964 7.99412C173.391 6.28349 174.174 5.6337 175.235 6.2112C175.258 6.24143 175.672 8.11832 175.72 8.16621C176.403 8.88492 176.198 6.52261 176.341 5.06458C176.48 3.60838 176.945 3.99159 177.829 7.18015C178.067 6.7095 178.797 8.05689 179.206 8.88307C179.613 9.7092 179.005 6.01825 179.017 5.941C179.364 3.47935 180.168 5.51935 180.984 5.73966C181.376 5.84966 182.046 5.21625 182.418 4.76315C182.711 4.39819 183.002 5.24896 183.249 4.66078C183.283 4.58216 183.076 2.9288 183.083 2.86372C183.244 0.845489 183.464 4.91556 183.604 5.63273C184.105 8.24206 184.357 9.6328 184.667 8.35976C184.731 8.06872 184.587 2.19966 184.771 1.84356C185 1.39224 185.039 3.49563 185.27 2.97125C185.29 2.92836 185.207 1.63431 185.378 1.68168C186.173 1.88462 187.044 2.60784 187.86 2.4689C187.973 2.45491 187.803 0.400021 187.972 0.346082C188.76 0.094633 189.668 0.183864 190.421 1.1773C190.606 1.42827 190.425 2.86209 190.449 3.29094C190.578 5.88497 191.105 2.14899 191.179 2.08157C192.624 0.511208 193.456 3.30286 194.863 2.72594C194.992 2.67168 195.128 2.58819 195.273 2.46937C195.347 2.38304 196.635 -1.49549 196.36 1.96409C196.348 2.19518 196.007 5.72326 196.672 3.38748C196.716 3.24187 196.861 1.41782 197.141 1.65779C197.413 1.89596 198.185 0.80884 198.21 2.86079C198.227 3.50928 197.74 7.01228 198.784 4.37148C198.822 4.17733 201.085 -1.81127 200.233 2.50236C200.091 3.21236 198.843 7.68008 199.958 5.52009C200.18 5.1033 200.28 4.05544 200.72 3.50857C201.416 2.67131 201.588 4.02202 202.775 2.23838C202.973 1.91815 204.447 -0.908959 203.999 1.4715C203.925 1.8431 203.301 3.26489 203.415 3.491C203.933 4.56415 205.225 3.97035 205.671 5.3589C205.822 5.84522 204.6 8.0385 204.6 8.78282C204.605 9.52941 204.855 10.3834 205.713 9.55064C206.589 8.72691 208.146 5.02181 208.869 5.0644C212.112 5.3263 213.541 9.3171 215.532 12.2478C215.839 12.6982 216.651 11.4279 217.2 12.0732C218.257 13.3118 219.916 15.1175 220.804 17.2612C221.927 19.4153 222.874 25.6248 220.859 28.9396C219.27 31.6135 218.214 30.7782 217.452 30.2257C216.66 29.5915 216.07 29.0675 215.254 30.4521C214.5 31.6129 218.226 34.6235 218.182 35.0674C218.047 38.7273 215.405 38.6019 215.018 40.0885C214.929 40.3956 216.549 41.3944 216.448 41.6522C216.106 42.5479 214.95 42.539 214.634 43.0709C214.486 43.3208 215.534 44.3057 215.275 44.4027C214.667 44.6454 213.911 44.5191 212.669 43.824C212.558 43.7586 211.569 42.2459 211.274 42.4202C210.806 42.6996 209.495 42.0714 209.977 43.4514C210.04 43.6372 210.486 44.2432 210.81 44.725C211.219 45.3237 211.437 45.7306 210.501 44.8675C210.149 44.5434 207.744 41.418 209.589 44.3055C209.907 44.777 212.231 48.7974 210.168 46.6468C209.623 46.0826 207.506 43.6405 207.683 44.1428C207.713 44.2214 208.856 45.5685 208.846 45.7919C208.79 46.5572 208.261 46.7146 208.168 47.4641C208.146 47.6665 209.382 49.0254 209.311 49.2824C209.11 49.9965 208.248 50.0326 207.465 49.8746C207.173 49.8143 206.441 48.4835 206.336 48.3563C204.642 46.2719 206.553 49.3394 206.602 49.5606C206.889 50.8865 205.635 49.68 205.499 50.3019C205.457 50.4708 206.464 51.871 206.526 52.0139C207.109 53.4229 205.608 50.7106 205.284 50.5132C204.374 49.9488 204.016 50.3349 203.723 50.7706C203.616 50.933 204.823 52.5372 204.711 52.6652C204.07 53.4556 203.065 53.8139 201.675 53.3146C201.412 53.2171 200.784 51.8083 200.583 51.5173C199.2 49.4719 200.443 52.6054 200.503 52.9341C200.809 54.4186 200.034 53.287 199.818 53.6794C198.74 55.6373 195.989 55.8663 193.57 56.0384C191.815 56.173 190.017 55.9816 187.93 55.8344C186.257 55.7068 184.596 55.5831 182.673 55.6099C182.396 55.6103 182.516 57.6725 182.26 57.6969C178.864 57.8924 175.655 56.25 172.058 55.036C171.756 54.9272 171.27 56.8654 170.729 56.7322C169.6 56.464 168.387 55.5816 167.807 54.3885C167.532 53.817 169.108 52.9105 168.836 52.3785C168.223 51.1414 167.358 50.2105 166.221 49.4912C165.729 49.1788 164.912 51.1909 164.357 50.6438C160.558 47.0545 157.165 40.8534 159.345 34.5772C159.493 34.1348 163.497 33.6394 162.72 32.9542C161.601 32.9017 160.285 32.9038 159.089 32.8754C159.079 32.7431 159.071 32.6107 159.064 32.478C158.545 29.4812 160.245 26.7396 161.038 24.0746C161.073 23.9577 158.939 23.7159 158.997 23.4792C159.326 22.1203 159.128 20.5685 161.584 19.8476C161.825 19.7753 165.383 20.9853 164.96 20.4492C164.88 20.3561 164.593 19.6417 163.877 19.2234C163.768 19.1617 162.075 18.6875 162.094 18.4805C162.238 17.2765 163.096 16.2102 164.601 15.509C164.847 15.3961 166.451 16.3782 166.639 16.3102C167.94 15.8669 167.191 14.1999 169.342 13.9369C170.796 13.7714 173.341 15.7937 176.188 17.2571C176.576 17.4788 176.964 17.077 178.43 18.2108C182.06 21.1162 186.081 24.2402 189.981 27.2983C190.399 27.6307 190.274 27.7602 190.243 28.0532C190.221 28.335 190.352 28.7255 191.633 29.2228C191.862 29.2301 192.959 29.2151 193.702 29.6721C194.242 29.9578 195.675 31.187 196.417 31.4803C197.17 31.7552 195.946 30.7511 196.802 31.1027C197.657 31.4741 199.453 32.6414 199.819 32.5247ZM180.986 12.5935C181.484 14.3335 180.511 7.82567 180.496 9.42171C180.497 9.50659 180.96 12.5083 180.986 12.5935ZM157.544 29.0073C160.193 30.2252 156.622 27.8822 154.582 26.9284C152.535 25.9923 156.736 28.6467 157.544 29.0073ZM157.998 32.607C160.177 33.3711 151.913 29.038 153.417 30.2401C153.502 30.3088 157.871 32.5637 157.998 32.607ZM176.189 18.9684C176.267 19.0064 176.449 18.8585 176.378 18.809C174.635 17.6479 174.241 17.9982 176.189 18.9684ZM158.906 36.5283C160.149 36.7628 158.847 36.0393 157.304 35.7181C156.052 35.4903 157.347 36.2769 158.906 36.5283ZM192.398 19.248C192.388 19.3456 192.49 19.4484 192.563 18.8991C192.798 17.1292 192.559 17.6056 192.398 19.248ZM158.619 41.6927C158.935 40.9315 166.636 40.4234 165.786 41.0399C165.633 41.1625 163.321 40.8878 162.632 41.0606C161.379 41.4135 166.221 41.347 163.648 41.7731C163.177 41.8605 158.584 41.7453 158.609 41.692C158.612 41.6923 158.616 41.6925 158.619 41.6927ZM182.339 20.3812C182.356 20.4665 182.522 20.5243 182.512 20.4386C182.282 18.3603 181.934 18.2448 182.339 20.3812ZM197.099 24.7424C197.023 24.9106 197.167 25.1835 197.255 25.0381C199.077 22.1389 198.593 21.4719 197.099 24.7424ZM173.865 27.5417C174.429 29.5721 174.356 29.8622 173.326 27.4292C173.52 27.5069 173.676 27.4723 173.865 27.5417Z" fill="#326F14" fill-opacity="0.75"/>
</svg>
