<svg width="357" height="266" viewBox="0 0 357 266" fill="none" xmlns="http://www.w3.org/2000/svg">
<path d="M12.9339 0.00121461C13.1032 0.00192919 12.9222 0.00286588 12.6736 0.00357775C12.5966 0.00380085 12.252 0.00368788 12.1833 0.00384189C12.0493 0.0041431 12.2183 0.00442372 12.0587 0.00472138C12.0041 0.00482002 11.4584 0.00469723 11.4136 0.00480067C11.1724 0.00536749 11.3115 0.00590372 11.1954 0.00647792C10.623 0.00930623 10.4182 0.0120864 10.1695 0.0149493C10.088 0.0158933 9.59266 0.0170408 9.80927 0.0180158C9.83505 0.0181297 10.3141 0.0180618 10.3536 0.0180835C10.958 0.0184231 9.99093 0.0183102 9.86243 0.018532C9.3551 0.0194122 9.31098 0.020391 9.49586 0.021238C9.57592 0.0215984 10.5274 0.0212371 9.99335 0.0216C9.95727 0.0216251 9.44855 0.0215337 9.3943 0.0216325C9.27226 0.0218567 9.36319 0.0222819 9.32288 0.0224556C9.24263 0.0227904 9.24775 0.0228458 9.24195 0.0231624C9.2296 0.0235953 8.97672 0.0241101 9.09199 0.0245745C9.11811 0.0246737 9.6396 0.0245424 9.72834 0.0247005C9.81694 0.0248588 9.77272 0.0252774 9.64979 0.0254185C9.52679 0.0255597 9.11691 0.0254996 9.02296 0.0255246C8.22998 0.0257301 9.32826 0.0262143 9.35542 0.0262766C9.81821 0.0274126 9.19256 0.0283868 9.19435 0.0294531C9.19703 0.0302626 9.40358 0.0311282 9.37525 0.0318984C9.33949 0.0328161 9.0569 0.0335938 9.10548 0.0344853C9.11 0.0345794 9.72316 0.0344692 9.72993 0.0345841C9.80128 0.0358049 9.73444 0.0370173 9.3205 0.0382329C9.27845 0.0383548 8.74011 0.0381977 8.6659 0.0383195C8.22348 0.0390652 7.16068 0.0402451 9.50459 0.040688C9.41306 0.0411931 9.3185 0.0418063 8.84602 0.0422582C8.54192 0.0425496 7.95545 0.0422666 8.2057 0.0426245C8.26146 0.0427052 8.77506 0.0426002 8.81983 0.0427213C9.00786 0.043231 8.8409 0.0437878 9.10627 0.044292C9.16146 0.0443946 9.62166 0.0443666 9.70454 0.0443956C10.3757 0.0446398 9.26623 0.0450464 9.18562 0.045135C8.58445 0.0458099 8.82102 0.0463027 8.80635 0.0469314C8.80268 0.0470773 9.42084 0.0469049 9.43952 0.0470453C9.52812 0.0477734 9.47499 0.0485276 9.20069 0.0492406C9.13819 0.0493992 8.61163 0.0492533 8.55482 0.0493291C8.31074 0.0496633 9.30529 0.0497373 9.0904 0.0500578C9.04638 0.0501254 8.5956 0.0500873 8.54609 0.0500996C7.76894 0.0502925 8.87011 0.0504601 8.89442 0.0505097C9.2266 0.0511373 8.07704 0.0515384 8.23982 0.0521446C8.26045 0.0522172 8.83082 0.0520536 8.85395 0.0522575C9.01141 0.0536157 8.85472 0.0550522 8.39851 0.0563966C8.32835 0.0566057 7.89988 0.0564565 7.84706 0.0564696C7.02177 0.056684 8.12756 0.0568227 8.1692 0.0568909C8.46897 0.0574286 7.54164 0.0579309 8.85871 0.0582962C8.40164 0.0605734 9.14125 0.0628402 7.96132 0.0650986C7.94765 0.0651273 7.40305 0.0650759 7.37813 0.0651331C7.07234 0.0658229 7.91875 0.0656905 8.95393 0.0661469C9.21387 0.0662619 7.96406 0.0666116 7.87245 0.0666426C7.53486 0.0667553 6.72464 0.0666384 6.65926 0.0666761C6.14587 0.0669886 8.82532 0.0669376 8.82618 0.0673591C8.82171 0.0673723 8.32853 0.0673169 8.27949 0.0673523C8.12554 0.0674622 8.32151 0.0675712 8.15175 0.0676787C7.75891 0.0679248 6.45693 0.0680125 7.21468 0.0683884C7.31302 0.068436 8.83292 0.0683633 8.76112 0.0687396C8.73121 0.0688897 8.75726 0.0695537 8.65876 0.0697398C8.56039 0.0699256 8.0706 0.069798 8.04939 0.0698113C7.40173 0.0703121 7.13331 0.0701222 6.17446 0.0703731C5.21922 0.070624 7.49755 0.0705544 7.75184 0.0706567C8.00542 0.0707592 7.47106 0.0711264 7.28529 0.0712166C7.09945 0.0713068 6.78823 0.0711943 6.68306 0.0712745C5.99596 0.0718062 7.81394 0.0715079 8.17555 0.0716831C9.03177 0.0720962 7.34215 0.0724179 7.17659 0.0727961C7.13188 0.0728984 7.5167 0.0728149 7.55269 0.072906C7.69012 0.0732669 7.16292 0.0734839 7.64632 0.0738945C7.72509 0.0739616 8.74093 0.0742935 7.99544 0.0745084C7.88794 0.0745388 7.46689 0.0744523 7.37257 0.0746061C7.23103 0.0748359 7.139 0.0752498 7.27974 0.0754968C7.38387 0.0756791 8.07766 0.0754702 7.86213 0.0756996C7.7659 0.0758017 7.36003 0.0756126 7.21309 0.0758042C7.06619 0.0759948 7.08402 0.0764822 7.09804 0.0766677C7.11236 0.0768528 7.63863 0.0767515 7.67409 0.0767664C7.87718 0.076857 8.13095 0.0772122 8.13032 0.0772436C8.19457 0.0788272 7.30748 0.0802875 7.60109 0.0818293C7.62337 0.0819503 8.17833 0.0818697 8.18745 0.0818882C8.41997 0.0823024 6.94446 0.0819758 6.45058 0.0822652C7.57676 0.0822233 7.37284 0.0823942 7.49635 0.0826859C7.55678 0.0828265 7.99285 0.08275 8.03749 0.0827628C8.69982 0.0829713 7.84433 0.0831165 7.66933 0.0831539C7.02556 0.083292 7.78621 0.0834423 7.35591 0.0835362C6.92883 0.0836301 6.29568 0.083414 6.30379 0.0836939C6.70692 0.0837723 7.76042 0.0835646 7.93117 0.083777C8.577 0.0845786 7.75043 0.086075 7.66456 0.0867195C7.57878 0.0873628 7.65315 0.0875705 7.50746 0.0879453C7.24403 0.0886224 8.02566 0.0883743 8.38343 0.0887947C8.74117 0.0892163 6.81799 0.0890113 6.40456 0.089072C5.99131 0.0891315 6.41671 0.0891964 6.18953 0.0892704C5.96241 0.0893442 5.68131 0.0891845 5.59603 0.089358C5.51083 0.0895316 6.24601 0.0900062 6.6783 0.0900677C7.59413 0.0901978 8.55534 0.0899839 8.2176 0.0904432C8.19756 0.0904697 7.69187 0.0903839 7.64076 0.0904851C7.25146 0.0912885 7.22733 0.0921231 6.88301 0.0929256C6.83488 0.0930359 6.27231 0.0929372 6.23793 0.0930014C5.87811 0.0936703 6.82666 0.0934312 7.88038 0.0937977C6.4781 0.0937155 5.62018 0.0939181 5.6119 0.0944257C5.60643 0.0947309 6.21888 0.0946783 6.65053 0.0948757C6.78065 0.0949349 6.36012 0.0951508 6.64815 0.0951899C7.58966 0.095319 8.64363 0.0951156 8.22395 0.0956389C8.20401 0.0956619 7.68864 0.0955888 7.65742 0.0956681C7.45313 0.0961809 8.43794 0.0962423 8.5572 0.0967967C8.65078 0.0972312 8.05026 0.098004 7.95259 0.0984987C6.37602 0.0984883 6.73703 0.0989556 7.82405 0.0991452C7.77955 0.0994663 7.841 0.0998131 7.69075 0.100123C7.63952 0.10023 7.18306 0.10016 7.13374 0.100174C6.36005 0.10038 7.4176 0.10052 7.45906 0.100589C7.86209 0.10134 7.06055 0.101952 7.84389 0.102669C7.8721 0.102694 8.96723 0.102736 8.16761 0.102927C8.1125 0.10294 7.61423 0.102703 7.5757 0.10304C7.53708 0.103377 6.95001 0.104013 7.45747 0.104481C7.57964 0.104595 8.46867 0.104881 7.77406 0.105111C7.67974 0.105142 7.36565 0.105109 7.19087 0.105153C6.63396 0.105296 7.74087 0.105374 6.80049 0.105542C5.86016 0.10571 5.15592 0.10606 5.80471 0.106532C5.82357 0.106547 6.7009 0.106659 6.68703 0.106807C6.66413 0.107044 6.48136 0.107381 6.48708 0.107628C6.49013 0.107747 7.03491 0.107671 7.04488 0.107692C7.35015 0.108488 6.86448 0.109056 6.6537 0.109909C6.61399 0.110066 7.35688 0.110515 6.76955 0.110818C6.12661 0.111151 3.45207 0.110809 4.08926 0.111574C4.34412 0.111882 7.73726 0.112273 5.97927 0.112827C6.41489 0.113902 5.51515 0.114896 6.13716 0.115974C6.16472 0.116022 7.11172 0.116175 7.09883 0.116289C7.07786 0.116459 6.63525 0.116551 6.6061 0.116672C6.47277 0.117178 6.85146 0.117642 6.79256 0.11813C6.77116 0.118315 6.3135 0.11825 6.28792 0.118471C6.26277 0.118692 6.86542 0.118839 6.57436 0.119138C6.3525 0.119364 5.12071 0.119591 4.97713 0.119891C6.19216 0.119902 6.16713 0.120108 6.48787 0.120474C6.5501 0.120545 6.973 0.120469 7.02425 0.120502C7.24221 0.120638 6.89172 0.120763 7.12898 0.120892C7.18597 0.120923 7.60091 0.120925 7.67091 0.12095C8.28199 0.121168 7.34862 0.121527 7.18611 0.121588C6.56892 0.121824 7.1086 0.121934 6.86556 0.122116C6.62254 0.122296 6.31875 0.122026 6.17128 0.122237C5.86626 0.122675 5.93327 0.123237 5.9142 0.123681C5.90916 0.123859 6.46304 0.123738 6.47518 0.123763C6.61566 0.12413 6.02649 0.124501 7.12978 0.124704C4.27708 0.124958 7.40647 0.124925 6.8354 0.125449C6.78922 0.12549 5.4402 0.125543 5.24215 0.125384C5.04429 0.125226 5.46597 0.124986 5.15725 0.124766C5.0848 0.124714 3.82068 0.124415 3.74411 0.124375C3.14565 0.124056 5.16158 0.124011 5.2723 0.123994C6.4672 0.123802 5.10535 0.123438 5.01125 0.123342C4.58007 0.122903 4.86358 0.12253 4.55581 0.122162C4.3569 0.121922 3.03639 0.121898 3.07681 0.12171C3.21041 0.121083 5.05252 0.120864 3.45529 0.120273C3.11463 0.120146 1.67136 0.120272 2.80624 0.119818C2.87779 0.11979 3.916 0.119452 3.25931 0.119258C3.17651 0.119233 2.75588 0.119234 2.72055 0.119202C2.49199 0.118986 2.82708 0.118841 2.66659 0.118606C2.50611 0.11837 2.26685 0.118087 2.40952 0.117818C2.49482 0.117656 3.2785 0.117448 3.47036 0.117371C4.02307 0.117152 3.11686 0.116917 3.78616 0.116781C4.45882 0.116644 5.48037 0.116912 5.915 0.116553C4.82219 0.11654 3.70054 0.116509 2.60153 0.116488C2.64001 0.115702 2.99338 0.114928 2.9451 0.114139C2.93802 0.114041 2.35052 0.114141 2.32779 0.114036C2.23446 0.113594 2.65326 0.113207 2.48648 0.112749C2.35513 0.112393 1.7331 0.112004 1.57639 0.111633C2.82687 0.111406 2.40236 0.110855 2.51663 0.110454C2.55612 0.110314 2.8901 0.110324 2.99905 0.110224C3.40202 0.109848 2.29698 0.110024 2.12308 0.109921C1.38089 0.109478 3.88208 0.10944 3.82028 0.108919C3.81785 0.108891 2.48461 0.108553 2.40158 0.108507C1.86019 0.108211 2.86563 0.108458 2.96414 0.108273C3.14416 0.107935 3.46256 0.1077 3.07205 0.107304C2.95638 0.107188 2.12539 0.106911 2.76816 0.106687C2.85232 0.106657 3.29301 0.106673 3.31881 0.10665C3.74901 0.106219 2.36432 0.106208 1.89536 0.105962C1.4265 0.105716 2.38237 0.105337 2.65787 0.105259C3.37055 0.105057 2.96244 0.105414 3.03238 0.105425C3.86468 0.105554 3.72139 0.105277 3.79171 0.105065C5.14942 0.105035 5.06792 0.104739 3.85916 0.104846C3.72713 0.104858 3.85374 0.105023 3.79171 0.105065C2.45962 0.104879 2.28902 0.104554 3.53384 0.104195C4.11727 0.104027 4.79752 0.104186 4.54867 0.103675C4.43633 0.103443 3.50148 0.103533 3.24661 0.103328C2.66509 0.102861 3.53715 0.102253 3.39975 0.101772C3.34986 0.101597 2.83813 0.101767 2.78641 0.101647C2.64753 0.10133 3.0315 0.101051 2.83481 0.100732C2.81634 0.100703 2.28066 0.100774 2.27383 0.100675C2.21162 0.0999236 2.55473 0.0992697 2.56424 0.0984856C2.56859 0.0981067 2.27315 0.0974294 2.33255 0.097037C2.43234 0.0963568 3.21129 0.09552 3.02206 0.0949389C2.90093 0.09456 2.36515 0.0946431 2.00009 0.0944807C1.29247 0.0941673 2.55999 0.0936127 2.75626 0.093538C2.76275 0.0935357 2.88906 0.0938618 3.16409 0.0936878C3.73717 0.0935866 2.75874 0.0935417 2.75626 0.093538C2.88305 0.0934889 3.00467 0.0928375 2.90225 0.0927081C2.84628 0.0926378 2.33865 0.0926771 2.31906 0.0926405C1.86478 0.0917694 1.73576 0.0908967 1.97312 0.0900132C1.98337 0.0899977 2.55118 0.0900211 2.56821 0.0899845C2.82067 0.089473 2.12606 0.0891455 1.71366 0.0887237C1.30144 0.0883019 1.4395 0.0879674 2.41428 0.0877177C2.29154 0.0873994 2.72249 0.0869429 2.98398 0.0866801C3.24546 0.0864174 2.14017 0.0863807 2.11832 0.0863576C1.41895 0.0856366 2.0516 0.0852197 2.15006 0.0844717C2.19876 0.084116 2.03844 0.0834106 1.91757 0.0830255C1.8202 0.0827212 2.07923 0.0825378 1.91361 0.0822574C1.89149 0.0822195 1.39935 0.0822578 1.38041 0.0822462C0.791597 0.0819332 1.99469 0.0820836 2.20957 0.082019C2.99094 0.0817848 3.4071 0.08164 3.03952 0.0812393C2.95534 0.0811468 1.22305 0.0808775 1.12174 0.080709C0.993201 0.08049 1.61412 0.0805726 1.46372 0.0803432C1.45142 0.0803236 1.06835 0.0803277 1.08524 0.0801861C1.1586 0.0795289 1.3815 0.0788124 1.34311 0.0781294C1.33934 0.0780361 0.731739 0.0781558 0.716284 0.078021C0.644261 0.0773885 0.666747 0.0766952 0.951146 0.0760791C1.02306 0.0759274 1.44848 0.0760225 1.5748 0.0759896C2.3391 0.0757874 1.22859 0.0755008 1.20743 0.0754535C0.673773 0.0743254 1.67877 0.0734619 1.20029 0.0723121C1.1722 0.0722495 -0.01829 0.0717677 1.00272 0.0715527C1.07065 0.071538 2.11525 0.0713253 1.40103 0.0711373C1.35635 0.0711256 0.818577 0.0712581 0.873388 0.0710269C0.928079 0.0707956 0.568956 0.0704235 1.15982 0.0701056C1.34596 0.0700049 2.38798 0.0697671 1.55735 0.0694669C1.49936 0.0694473 -0.378822 0.0689839 0.917028 0.0688184C1.13034 0.0687916 2.50164 0.0688197 1.79856 0.0684614C1.66225 0.0683929 1.35638 0.0685172 1.16538 0.0683369C0.87101 0.0680605 1.23829 0.0676944 0.627417 0.0673547C0.51927 0.0672955 -0.411488 0.0670433 0.294959 0.066841C0.405601 0.0668094 0.863413 0.0668696 0.914647 0.0667627C1.16041 0.0662548 0.854178 0.0657229 1.17093 0.0652071C1.28224 0.0650244 2.02234 0.0651178 2.22067 0.0649274C2.41894 0.0647369 2.60966 0.0643532 2.27145 0.0641539C1.9331 0.0639546 0.753544 0.0641723 0.659155 0.0638738C0.249216 0.0625756 0.941174 0.0612896 1.04239 0.0599934C1.05751 0.0598011 0.63543 0.0599605 0.627417 0.0596772C0.596016 0.0586327 0.20027 0.0568292 1.09714 0.0559228C1.81549 0.0551966 2.36237 0.0561105 2.65469 0.0555556C2.79414 0.0552878 1.42279 0.0549981 1.37961 0.0549334C0.941056 0.0543019 1.54854 0.053863 1.36216 0.0532946C1.32348 0.0531772 0.767657 0.0532923 0.740881 0.0531924C0.644489 0.0528512 0.892583 0.0524926 0.847204 0.0521665C0.825567 0.0520203 0.401049 0.0520472 0.433814 0.0519126C0.507322 0.0515905 0.685769 0.0513058 1.08365 0.0509918C1.11991 0.0509632 1.64799 0.0511561 1.66764 0.0509178C1.69792 0.0505322 2.09043 0.0500535 1.68509 0.0496098C1.56316 0.0494781 0.59293 0.049473 1.26297 0.04919C1.40292 0.0491306 2.56795 0.0492064 1.56131 0.0488767C1.39403 0.0488213 0.0362664 0.0482675 0.911473 0.0479958C1.14182 0.0479241 2.09517 0.0477411 1.94534 0.0475828C1.92144 0.0475613 1.40029 0.0476473 1.34946 0.0475161C1.17938 0.0470538 1.23498 0.0465693 1.07175 0.0460943C1.02713 0.0459674 0.487853 0.0461563 0.438575 0.0459673C0.302267 0.0454475 0.439577 0.0447984 0.608374 0.0442901C0.67163 0.0441026 1.11835 0.0442322 1.16697 0.0442186C1.95769 0.0439992 0.890394 0.0438696 0.828161 0.0437968C0.455513 0.0433441 0.956866 0.0429994 0.824193 0.0425822C0.788933 0.042467 0.280034 0.0425487 0.234657 0.0425257C-0.208712 0.042288 0.705204 0.0424651 0.805944 0.0423146C1.09119 0.0418931 1.05029 0.0414232 0.985265 0.0409968C0.960631 0.0408403 0.370551 0.0410163 0.355262 0.0408757C0.253581 0.040044 0.310045 0.0391793 0.635351 0.0383676C0.697674 0.0382148 1.15205 0.0383109 1.25583 0.0382791C1.98191 0.0380595 0.991532 0.0377378 0.897191 0.0376637C0.466432 0.0373271 0.868248 0.0371963 0.793249 0.0368991C0.419836 0.0354468 0.685964 0.0336536 0.850377 0.0322827C1.06198 0.0304963 1.49424 0.0291101 1.38199 0.0274066C1.37543 0.0272983 0.770963 0.0274075 0.757543 0.0273142C0.611826 0.0261092 0.848026 0.0249229 0.673437 0.0237155C0.660182 0.0236164 0.0871456 0.0237592 0.046608 0.0236002C-0.0405582 0.023274 -0.00941159 0.0228608 0.173561 0.022531C0.261721 0.0223701 0.753437 0.0225859 0.832128 0.022424C1.01648 0.022047 1.05729 0.0216428 0.965428 0.0212556C0.925086 0.0210908 0.339016 0.0213394 0.332252 0.0211252C0.274109 0.019666 0.173172 0.018233 0.932103 0.0167584C0.984226 0.0166573 2.17535 0.0165686 1.94693 0.0163537C1.61636 0.0163375 1.22751 0.0163384 0.874181 0.0163313C0.683849 0.0142071 1.09677 0.0121046 1.16062 0.00997447C1.16317 0.00988466 0.532056 0.0100399 0.533789 0.00986599C0.54312 0.00885962 0.368281 0.00788237 0.99558 0.00685297C1.05693 0.00675083 2.16722 0.00680323 1.9993 0.00650224C1.96866 0.00644916 1.82058 0.00599583 1.57956 0.00587862C1.54321 0.0058627 1.02497 0.00594541 1.00986 0.00579933C0.931165 0.00495043 1.04948 0.00406083 1.36612 0.0032134C1.41822 0.00307664 1.9701 0.00322229 2.01199 0.00312487C2.30496 0.00243387 1.88543 0.00168226 2.38651 0.00102198C2.7239 0.000580012 3.67787 0.000743642 4.61691 0.000508785C4.74939 0.000475567 4.77038 0.000201886 5.31673 0.000187733C6.69058 0.000151398 8.19493 0.000283961 9.65931 0.000229567C9.97473 0.000218075 9.635 -0.000148454 10.3972 6.85547e-05C10.4482 8.3715e-05 10.7012 0.000349451 10.9598 0.000414902C11.1386 0.000460471 11.6942 0.000378354 11.923 0.000471329C12.1517 0.000564297 11.6859 0.000666456 11.9548 0.000820595C12.227 0.000974665 12.8591 0.000906919 12.9339 0.00121461ZM4.15274 0.0854971C4.68354 0.0852538 2.73942 0.0852179 3.20456 0.085481C3.22935 0.0854938 4.1267 0.0855096 4.15274 0.0854971ZM4.4598 0.114932C5.31729 0.114614 4.05644 0.114397 3.39419 0.114621C2.73266 0.114845 4.19986 0.115029 4.4598 0.114932ZM5.08584 0.11823C5.76193 0.117859 3.0051 0.1178 3.5624 0.118198C3.5939 0.118221 5.04658 0.118252 5.08584 0.11823ZM4.8843 0.00159793C4.91012 0.00159457 4.93528 0.00139784 4.90969 0.00139314C4.29224 0.00128838 4.24236 0.00168177 4.8843 0.00159793ZM5.76742 0.121503C6.14034 0.121387 5.70984 0.121053 5.24612 0.121197C4.87306 0.121313 5.30352 0.121648 5.76742 0.121503ZM6.22762 0.0728063C6.25659 0.0728025 6.28268 0.0726614 6.11892 0.0726643C5.59148 0.0726738 5.74034 0.0728701 6.22762 0.0728063ZM5.79915 0.127066C5.90292 0.126244 8.1802 0.125745 7.92323 0.12664C7.87674 0.126802 7.19703 0.126291 6.99172 0.126497C6.61767 0.126875 8.04753 0.127125 7.28133 0.127511C7.14109 0.12758 5.78817 0.127112 5.79598 0.127064C5.79704 0.127065 5.7981 0.127065 5.79915 0.127066ZM6.48787 0.085357C6.51358 0.0853521 6.53796 0.0851569 6.51247 0.0851522C5.89527 0.0850465 5.8458 0.0854398 6.48787 0.085357ZM7.4297 0.0645762C7.48448 0.0645654 7.53572 0.0641123 7.48524 0.0640975C6.47595 0.0638611 6.36938 0.0647772 7.4297 0.0645762ZM7.91054 0.0985065C8.53144 0.0987195 8.60455 0.0989744 7.82484 0.0991442C7.86623 0.0989325 7.87233 0.0987194 7.91054 0.0985065Z" fill="#171717" fill-opacity="0.75"/>
<path d="M292.811 225.488C290.101 225.177 287.045 224.454 284.143 223.427C281.186 222.463 279.613 219.706 279.123 218.021C278.561 216.216 278.494 214.766 278.476 213.472C278.5 211.75 278.749 212.62 278.824 211.481C279.012 209.291 279.174 207.356 279.664 205.367C279.83 204.711 280.038 205.608 280.207 204.922C280.395 204.165 280.586 203.42 280.787 202.681C281.505 199.739 283.48 195.464 287.434 193.979C287.471 193.963 287.509 193.947 287.546 193.931C291.293 192.341 295.084 193.158 297.877 193.899C304.516 195.981 307.375 201.203 310.003 205.551C315.208 216.124 312.339 226.882 306.02 236.125C305.509 236.674 304.938 237.133 304.357 237.511C299.05 240.544 293.552 239.851 288.554 240.134C286.79 240.184 285.026 240.044 283.344 239.688C282.532 239.508 282.93 239.946 282.769 239.934C280.196 239.596 281.211 239.196 279.757 238.461C278.1 237.545 276.56 236.331 275.259 234.927C272.204 231.729 270.205 227.417 269.443 223.475C269.413 223.33 269.384 223.185 269.356 223.04C268.95 220.598 268.599 223.148 268.709 220.598C268.72 220.424 269.119 221.021 269.106 220.343C269.044 218.805 269.119 215.897 269.335 214.73C269.722 212.487 269.81 212.121 270.375 210.062C271.184 207.252 272.731 204.167 274.194 201.476C274.508 200.898 273.754 201.47 274.236 200.531C274.706 199.581 276.276 197.279 276.906 196.587C277.525 195.884 277.519 196.376 277.668 196.282C278.886 195.524 280.319 192.618 280.589 192.307C282.127 190.392 283.737 188.715 285.409 187.176C289.683 183.478 294.638 183.31 299.236 182.95C301.59 182.812 303.984 182.775 306.327 182.736C309.554 182.666 312.851 183.471 315.504 184.966C317.757 186.22 319.567 187.848 321.047 189.632C323.595 192.817 324.016 196.439 324.415 199.931C324.474 200.548 324.833 199.785 324.903 200.543C324.987 201.492 325.047 202.429 325.095 203.36C324.846 212.08 319.078 217.273 314.219 222.103C313.632 222.643 314.097 221.66 313.501 222.176C309.859 225.393 303.541 229.513 302.215 232.495C299.579 234.404 296.307 236.608 293.693 237.933C292.022 238.775 293.311 237.456 291.484 238.839C291.07 239.148 291.831 239.086 291.185 239.533C290.892 239.735 290.597 239.933 290.303 240.128C287.67 241.873 284.492 243 281.581 243.804C280.915 243.989 281.163 244.258 280.981 244.355C279.423 245.17 276.587 244.682 276.015 244.649C274.155 244.605 272.528 244.537 270.989 244.492C268.642 244.417 266.367 244.04 264.004 242.973C263.076 242.531 263.994 243.449 263.085 243.016C261.218 242.088 259.507 240.791 258.093 239.234C255.828 236.771 254.696 233.554 254.35 230.612C254.23 229.518 254.737 230.461 254.704 229.945C254.616 227.699 253.935 227.218 254.136 225.061C254.186 224.609 254.487 224.879 254.525 224.798C255.122 223.563 254.488 222.413 254.51 222.077C254.802 217.924 256.206 215.553 257.134 211.777C257.249 211.324 256.577 212.23 256.926 210.96C257.605 208.519 258.398 206.07 259.243 203.647C261.79 196.6 268.645 193.582 274.128 191.178C275.378 190.666 274.62 191.334 274.712 191.332C276.199 191.291 276.71 190.252 277.113 190.052C277.946 189.646 278.793 189.314 279.635 189.009C281.946 188.177 284.11 187.77 285.632 186.708C297.636 184.211 309.642 183.107 321.662 183.208C324.157 183.262 326.685 183.419 329.197 184.101C329.382 184.153 328.968 184.445 329.329 184.546C331.53 185.199 332.353 185.732 333.116 186.062C333.834 186.423 334.633 186.661 335.715 188.101C335.964 188.435 336.102 189.189 336.132 189.851C336.181 190.642 336.124 191.402 336.121 191.515C336.095 192.281 335.35 191.706 335.372 191.952C335.535 193.959 337.285 193.209 337.812 195.929C337.825 196.014 337.424 195.719 337.432 195.952C337.455 196.673 337.701 197.346 337.687 198.055C337.641 199.673 336.826 200.319 337.575 202.658C337.666 202.957 338.693 202.392 338.82 204.822C338.886 205.787 339.081 210.063 339.013 211.256C338.962 212.451 338.611 211.635 338.598 211.721C338.175 214.93 337.976 213.713 337.304 215.306C336.623 216.886 338.204 216.471 338.368 217.128C338.534 217.788 338.089 220.124 337.932 220.691C337.785 221.239 337.608 220.586 337.511 220.991C337.507 221.006 337.504 221.023 337.5 221.042C336.779 224.379 338.162 222.606 338.289 223.778C338.49 226.601 336.784 228.415 335.87 230.635C335.615 231.242 336.052 230.83 335.867 231.391C335.099 233.61 334.184 234.72 333.203 237.199C333.052 237.599 332.554 239.836 331.341 240.713C331.17 240.835 331.236 240.214 330.631 240.997C329.732 242.173 328.096 244.256 327.16 245.535C326.471 246.482 327.701 245.758 326.635 246.794C326.158 247.25 326.734 246.147 325.857 247.012C324.994 247.88 322.879 250.163 322.036 250.999C321.206 251.839 321.918 251.643 321.869 251.727C321.559 252.243 320.021 253.937 319.862 254.072C318.375 255.448 316.847 256.732 315.29 257.937C309.342 262.633 302.025 264.112 294.932 264.889C294.278 264.967 293.626 265.038 292.978 265.101C292.201 265.173 292.746 265.519 292.628 265.534C289.952 265.852 292.012 264.721 290.149 264.454C290.437 265.221 289.351 265.138 287.464 265.197C286.564 265.222 287.046 265.532 286.964 265.562C285.589 265.987 284.686 265.33 284.451 265.194C283.592 264.691 282.594 265.127 282.018 264.764C281.455 264.403 282.863 264.126 281.106 263.925C280.57 264.138 281.812 265.032 280.43 264.973C275.157 264.912 265.995 261.406 262.336 259.493C258.615 257.699 257.438 257.048 255.408 255.773C251.779 253.378 252.866 254.656 250.456 253.385C248.068 252.069 249.925 251.713 249.762 251.257C249.604 250.8 249.117 250.82 248.811 250.411C248.522 250.015 249.446 250.431 248.608 249.765C248.606 249.763 248.604 249.761 248.601 249.76C247.771 249.28 245.734 247.117 245.326 246.848C244.396 246.369 244.333 247.977 243.34 245.055C243.29 244.889 243.818 245.28 243.612 244.655C242.032 239.653 241.199 234.373 240.712 229.296C240.649 228.594 241.12 229.165 241.088 228.756C240.789 224.506 240.338 226.089 239.347 223.86C240.372 224.274 240.805 222.93 240.504 219.725C240.327 217.796 239.937 218.168 239.53 216.94C239.408 216.582 239.583 215.176 239.365 214.948C238.651 214.187 238.02 215.536 238.056 212.187C238.059 212.04 238.449 212.477 238.434 211.973C238.384 210.362 238.199 209.498 237.978 208.569C237.755 207.542 237.542 206.425 237.856 204.494C238.274 201.482 240.811 196.967 242.547 194.309C243.441 194.912 244.79 192.273 244.88 190.852C246.075 189.167 247.381 187.36 248.7 185.868C249.155 185.355 249.121 185.904 249.202 185.858C250.442 185.165 250.446 184.019 250.707 183.661C253.586 179.797 256.65 177.309 259.436 173.647C259.534 173.518 259.174 172.797 260.427 172.311C260.51 172.282 259.698 173.599 261.224 172.085C262.149 171.171 263.67 169.869 265.152 168.479C266.152 167.537 267.26 166.711 268.216 165.956C268.778 165.492 270.183 164.022 271.758 163.867C271.966 163.847 271.855 164.133 272.164 164.13C273.161 164.122 273.339 163.224 274.582 163.455C275.82 163.692 278.015 163.443 280.783 162.241C280.866 162.205 281.407 161.431 282.321 161.213C283.789 160.861 285.904 160.514 287.445 160.192C288.181 160.037 287.634 159.765 287.76 159.732C292.706 158.514 296.326 158.254 301.709 157.57C302.02 157.532 302.508 157.411 303.1 157.269C304.367 156.956 306.127 156.635 307.462 156.858C309.592 157.263 307.485 159.033 312.183 158.737C314.045 158.66 316.823 156.555 320.116 158.363C323.273 158.77 326.259 159.522 329.242 160.254C332.47 161.191 334.749 164.152 337.062 166.867C337.254 167.097 338.356 167.522 338.753 168.142C339.337 169.05 339.397 169.729 339.775 170.385C341.372 173.19 342.977 175.673 344.316 178.476C344.818 179.535 344.363 179.32 344.946 180.581C345.536 181.866 346.308 182.536 346.902 184.352C347.35 185.73 347.14 187.378 347.79 189.171C348.591 188.907 349.09 190.118 350.175 192.193C350.384 192.593 350.474 192.038 350.587 192.22C351.048 192.954 351.124 193.797 351.577 194.493C351.687 194.663 351.958 194.565 352.063 194.699C352.97 195.838 353.19 198.205 353.222 198.608C353.289 199.37 353.467 199.888 353.662 200.353C353.663 200.357 353.667 200.368 353.668 200.371C353.835 200.872 354.014 201.294 354.093 201.89C354.238 203.037 353.578 201.445 353.836 202.762C354.372 205.495 355.195 208.945 355.532 211.734C355.668 212.845 355.954 212.042 355.982 212.2C356.367 214.512 356.011 216.864 356.741 218.173C354.706 219.725 356.945 219.595 356.2 222.915C356.137 223.176 355.174 223.385 355.15 222.384C355.124 221.386 355.544 219.909 355.367 218.53C355.337 218.194 354.458 216.365 354.387 216.129C353.9 214.231 355.229 213.844 355.304 213.729C356.038 212.45 354.768 210.283 354.594 209.722C353.83 207.082 353.453 204.774 352.632 202.603C352.289 201.701 351.789 201.429 351.391 201.046L351.44 201.191C351.196 200.988 350.983 200.75 350.838 200.34C349.512 196.612 350.185 194.842 347.748 191.805C347.225 191.162 346.611 192.266 346.228 189.336C346.204 189.148 346.027 186.909 345.113 185.976C344.999 185.859 344.736 185.985 344.63 185.807C343.93 184.626 343.767 183.706 343.044 182.424C342.314 181.128 341.399 179.619 340.726 178.086C340.319 177.155 340.195 175.767 340.078 175.276C339.765 173.892 338.486 172.928 338.461 171.985C338.414 171.009 339.898 172.078 338.974 169.999C338.287 170.327 337.527 170.577 336.814 170.874C334.534 167.241 331.629 163.058 328.78 162.32C328.457 162.247 328.127 162.174 327.805 162.104C327.197 161.972 327.727 162.508 327.075 162.378C324.326 161.827 322.034 161.023 319.226 160.664C317.052 160.387 314.65 160.516 312.44 160.494C311.137 159.528 307.795 159.769 305.436 159.955C304.606 160.014 304.633 159.781 304.033 159.783C303.821 159.785 303.638 159.794 303.481 159.808C301.869 159.961 302.822 160.463 302.255 160.66C299.572 161.594 299.069 159.915 295.818 160.503C295.645 160.532 293.699 161.808 293.433 161.917C291.663 162.619 293.066 161.656 291.915 161.798C289.805 162.068 288.307 162.135 285.944 162.932C285.245 163.168 283.706 164.113 282.255 164.028C282.062 164.018 282.084 163.697 281.936 163.717C279.266 164.117 279.477 165.076 278.145 165.826C276.826 166.57 274.496 166.749 273.997 166.762C272.691 166.773 274.773 166.211 274.823 166.152C275.345 165.339 273.802 166.014 272.62 166.502C272.055 165.711 270.443 166.572 271.408 167.027C271.514 167.072 272.36 166.567 272.62 166.502C271.964 167.815 270.41 168.677 268.295 169.186C267.475 169.408 267.58 168.768 266.443 169.799C266.206 170.027 265.917 170.325 265.559 170.718C264.569 171.806 265.428 171.865 264.637 172.903C262.836 175.268 259.743 177.594 257.762 179.895C257.045 180.727 258.028 180.178 257.549 180.755C256.281 182.289 254.921 183.426 253.738 185.031C253.632 185.177 254.198 185.081 253.804 185.555C250.846 189.159 248.166 192.227 245.708 196.291C244.491 198.249 242.926 201.962 242.386 204.034C241.978 205.42 241.651 206.911 241.647 208.322C241.679 211.206 241.726 214.084 241.999 216.33C242.289 218.708 242.615 218.147 242.96 219.141C243.624 221.051 243.131 224.61 243.057 225.094C243.051 225.101 242.737 223.088 242.669 224.19C242.345 224.854 243.053 225.076 243.057 225.094C242.995 225.411 243.432 229.478 243.634 230.264C243.737 230.693 244.048 230.398 244.095 230.621C245.24 235.874 246.307 241.38 248.337 245.569C248.37 245.642 247.966 245.726 248.051 245.9C248.603 247.038 249.295 247.71 249.88 247.974C251.036 248.63 252.161 249.159 253.388 249.789C255.699 250.974 257.394 252.084 258.398 253.422C260.131 254.309 262.495 255.825 263.898 256.643C265.3 257.466 265.815 256.835 265.947 256.877C270.181 258.065 272.414 259.249 276.83 260.296C278.919 260.808 283.171 261.269 285.484 261.266C287.317 261.287 288.42 261.473 290.103 261.313C290.331 261.29 290.089 260.957 290.158 260.942C292.007 260.461 291.149 261.324 291.546 261.455C292.591 261.783 293.346 261.986 294.603 261.872C295.098 261.825 295.667 261.732 296.347 261.573C296.915 261.445 298.36 260.027 299.308 259.774C300.552 259.443 300.167 259.965 301.451 259.566C301.56 259.53 301.479 259.284 302.267 259.091C305.844 258.217 309.463 256.685 312.381 254.3C312.451 254.243 312.521 254.187 312.59 254.13C313.029 253.772 312.2 253.903 312.829 253.377C315.773 250.912 318.841 248.039 321.48 245.414C322.129 244.769 321.965 245.391 322.163 245.301C323.386 244.737 323.91 242.899 324.071 242.671C327.956 237.184 331.316 233.031 332.806 226.596C332.911 226.225 332.669 223.48 333.455 222.396C333.497 222.34 334.016 221.66 334.019 220.84C334.022 220.574 333.984 220.298 333.882 220.028C333.853 219.954 333.451 220.764 333.542 219.327C333.632 217.889 333.436 215.579 333.841 213.608C333.969 212.988 334.688 211.494 334.059 209.645C334.022 209.517 332.613 206.729 333.434 205.672C333.567 205.5 334.544 205.603 333.88 203.441C333.749 203.032 333.607 203.808 333.376 202.721C333.018 201.07 333.001 198.818 332.222 196.915C332.087 196.575 331.182 195.272 331.372 194.048C331.401 193.854 331.795 194.107 331.675 193.509C331.538 192.839 331.363 192.184 331.156 191.554C330.781 190.381 330.494 189.899 330.278 189.695C330.069 189.467 329.526 189.129 328.668 188.812C327.856 188.532 328.416 188.125 327.44 187.812C326.448 187.49 324.189 187.221 322.978 187.457C321.883 187.665 322.868 188.353 321.724 188.537C321.605 188.557 321.461 188.572 321.286 188.581C313.227 189.007 305.128 189.081 297.146 190.089C295.964 190.245 296.981 190.391 295.251 190.653C291.424 191.251 285.846 192.364 281.558 193.962C278.462 195.12 275.671 196.255 273.666 197.012C269.638 198.61 274.234 195.681 271.23 197.103C269.765 197.818 268.934 199.56 268.689 199.787C266.337 201.899 264.927 203.151 264.16 205.352C264.059 205.654 263.96 205.965 263.863 206.286C263.651 206.988 264.247 206.433 264.065 207.027C263.445 209.064 262.61 211.117 262.094 213.046C261.865 213.909 262.192 213.83 261.958 214.612C261.407 216.485 260.902 218.114 260.299 219.9C260.244 220.065 260.087 218.863 259.825 220.264C259.413 222.515 258.844 225.336 259.274 227.788C259.414 228.514 260.045 228.475 259.819 229.994C259.791 230.294 258.871 230.136 259.983 231.598C260.154 231.946 261.926 233.842 262.245 234.983C262.265 235.069 262.282 235.202 262.312 235.359C262.419 235.846 262.665 236.573 263.182 236.899C263.275 236.952 263.175 236.409 263.7 236.787C265.551 238.105 267.769 239.024 270.11 239.101C270.73 239.114 269.846 238.686 270.75 238.701C270.852 238.701 270.955 238.7 271.06 238.698C274.175 238.688 277.657 238.566 280.31 238.06C281.325 237.868 280.704 238.331 280.783 238.347C282.118 238.588 282.601 237.641 282.952 237.479C284.624 236.699 286.001 236.186 287.356 235.404C287.872 235.101 288.423 234.759 288.952 234.392C289.537 233.987 288.922 233.964 289.024 233.861C290.099 232.798 289.521 233.928 290.337 233.478C292.633 232.21 295.03 230.517 297.134 228.92C297.906 228.332 296.786 228.649 297.48 228.124C301.577 225.009 305.725 221.669 309.402 218.407C310.09 217.795 309.897 218.423 310.084 218.34C311.405 217.755 312.232 215.871 312.475 215.497C313.583 213.813 314.284 213.4 315.277 212.002C317.195 209.293 318.926 205.909 318.773 203.669C318.61 199.344 318.052 195.079 316.585 193.451C315.853 192.565 315.057 191.797 314.243 191.163C311.833 189.286 309.149 188.441 306.349 188.388C299.923 188.32 293.1 188.087 289.414 191.15C289.167 191.374 289.468 191.436 289.502 191.566C289.506 191.613 289.477 191.674 289.384 191.764C284.222 196.779 279.583 202.387 277.091 208.786C276.893 209.307 277.554 208.711 277.258 209.546C276.656 211.261 276.043 213.418 275.671 215.151C275.491 216 275.311 214.799 275.141 215.663C274.757 217.688 274.754 219.909 275.163 221.959C275.326 222.75 275.479 221.684 275.659 222.317C275.678 222.381 275.698 222.464 275.719 222.567C276.351 225.689 277.696 228.273 279.818 230.45C281.987 232.699 284.805 233.803 288.342 233.862C289.454 233.871 290.551 233.887 291.636 233.897C292.254 233.901 292.853 234.703 294.136 234.443C294.214 234.207 294.186 233.939 294.207 233.692C297.33 233.456 300.61 232.618 301.251 231.738C305.228 226.117 308.085 215.13 304.337 208.849C304.168 208.555 303.995 208.262 303.822 207.974C303.547 207.524 303.651 208.523 303.119 207.662C301.044 204.29 298.352 201.437 296.141 200.843C294.388 200.351 292.818 200.02 291.642 200.051C291.275 200.085 291.303 199.202 290.183 199.728C290.159 199.741 290.111 199.765 290.045 199.801C289.416 200.073 288.704 200.803 288.609 201.241C288.6 201.301 289.045 201.282 288.775 201.695C288.371 202.338 287.996 203.308 287.719 204.411C286.826 208.005 286.118 212.149 286.485 214.893C286.572 215.429 286.065 214.956 286.134 215.344C286.211 215.751 286.343 216.069 286.431 216.206C286.529 216.349 286.492 216.304 286.524 216.325C289.348 217.28 292.286 217.87 294.944 218.394C297.494 218.849 296.5 219.419 297.898 220.105C298.102 220.214 299.733 220.15 299.847 220.497C300.195 221.418 299.415 222.539 299.866 223.516C299.932 223.618 300.578 223.566 301.218 223.463C301.375 223.436 301.54 223.408 301.751 223.353C301.91 223.322 302.272 223.171 302.387 223.123C302.523 223.065 302.274 223.287 301.977 223.451C301.746 223.593 301.485 223.719 301.243 223.837C300.997 223.969 299.023 224.324 298.574 224.488C298.244 224.619 298.855 224.993 298.173 225.162C297.488 225.325 296.763 224.993 295.658 225.105C294.556 225.202 294.993 225.714 292.811 225.488ZM270.41 260.022C271.75 260.829 272.341 259.6 270.705 259.427C270.626 259.42 270.342 259.981 270.41 260.022ZM331.959 162.903C330.83 161.229 329.384 161.674 330.172 162.555C330.858 163.467 332.251 163.396 331.959 162.903ZM343.535 179.568C342.917 177.254 341.048 177.788 342.499 179.849C342.582 179.969 343.571 179.703 343.535 179.568ZM291.246 219.568C291.265 219.595 292.46 219.835 292.488 219.817C293.189 219.511 290.832 219.042 291.246 219.568ZM352.112 198.456C352.087 197.665 351.043 195.81 351.075 196.775C351.1 197.545 352.142 199.429 352.112 198.456ZM335.23 230.472C335.26 230.458 335.571 229.619 335.456 229.6C335.095 229.543 334.779 230.733 335.23 230.472ZM352.886 232.649C354.6 227.755 356.941 225.061 355.127 230.533C354.786 231.512 355.313 228.249 354.786 229.467C353.824 231.684 354.235 233.503 352.965 235.657C352.732 236.048 352.784 232.929 352.887 232.64C352.887 232.643 352.886 232.646 352.886 232.649ZM270.768 261.829C270.79 261.857 271.973 262.224 272.009 262.213C272.766 261.991 270.397 261.258 270.768 261.829ZM325.738 183.994C325.658 183.925 322.757 183.791 322.647 183.845C321.141 184.494 326.961 184.758 325.738 183.994ZM242.598 194.28C242.929 192.882 243.816 191.439 244.876 190.857C244.085 191.955 243.323 193.12 242.598 194.28Z" fill="#F5BEFF" fill-opacity="0.75"/>
</svg>
