<svg width="338" height="216" viewBox="0 0 338 216" fill="none" xmlns="http://www.w3.org/2000/svg">
<path d="M12.9339 0.00121461C13.1032 0.00192919 12.9222 0.00286588 12.6736 0.00357775C12.5966 0.00380085 12.252 0.00368788 12.1833 0.00384189C12.0493 0.0041431 12.2183 0.00442372 12.0587 0.00472138C12.0041 0.00482002 11.4584 0.00469723 11.4136 0.00480067C11.1724 0.00536749 11.3115 0.00590372 11.1954 0.00647792C10.623 0.00930623 10.4182 0.0120864 10.1695 0.0149493C10.088 0.0158933 9.59266 0.0170408 9.80927 0.0180158C9.83505 0.0181297 10.3141 0.0180618 10.3536 0.0180835C10.958 0.0184231 9.99093 0.0183102 9.86243 0.018532C9.3551 0.0194122 9.31098 0.020391 9.49586 0.021238C9.57592 0.0215984 10.5274 0.0212371 9.99335 0.0216C9.95727 0.0216251 9.44855 0.0215337 9.3943 0.0216325C9.27226 0.0218567 9.36319 0.0222819 9.32288 0.0224556C9.24263 0.0227904 9.24775 0.0228458 9.24195 0.0231624C9.2296 0.0235953 8.97672 0.0241101 9.09199 0.0245745C9.11811 0.0246737 9.6396 0.0245424 9.72834 0.0247005C9.81694 0.0248588 9.77272 0.0252774 9.64979 0.0254185C9.52679 0.0255597 9.11691 0.0254996 9.02296 0.0255246C8.22998 0.0257301 9.32826 0.0262143 9.35542 0.0262766C9.81821 0.0274126 9.19256 0.0283868 9.19435 0.0294531C9.19703 0.0302626 9.40358 0.0311282 9.37525 0.0318984C9.33949 0.0328161 9.0569 0.0335938 9.10548 0.0344853C9.11 0.0345794 9.72316 0.0344692 9.72993 0.0345841C9.80128 0.0358049 9.73444 0.0370173 9.3205 0.0382329C9.27845 0.0383548 8.74011 0.0381977 8.6659 0.0383195C8.22348 0.0390652 7.16068 0.0402451 9.50459 0.040688C9.41306 0.0411931 9.3185 0.0418063 8.84602 0.0422582C8.54192 0.0425496 7.95545 0.0422666 8.2057 0.0426245C8.26146 0.0427052 8.77506 0.0426002 8.81983 0.0427213C9.00786 0.043231 8.8409 0.0437878 9.10627 0.044292C9.16146 0.0443946 9.62166 0.0443666 9.70454 0.0443956C10.3757 0.0446398 9.26623 0.0450464 9.18562 0.045135C8.58445 0.0458099 8.82102 0.0463027 8.80635 0.0469314C8.80268 0.0470773 9.42084 0.0469049 9.43952 0.0470453C9.52812 0.0477734 9.47499 0.0485276 9.20069 0.0492406C9.13819 0.0493992 8.61163 0.0492533 8.55482 0.0493291C8.31074 0.0496633 9.30529 0.0497373 9.0904 0.0500578C9.04638 0.0501254 8.5956 0.0500873 8.54609 0.0500996C7.76894 0.0502925 8.87011 0.0504601 8.89442 0.0505097C9.2266 0.0511373 8.07704 0.0515384 8.23982 0.0521446C8.26045 0.0522172 8.83082 0.0520536 8.85395 0.0522575C9.01141 0.0536157 8.85472 0.0550522 8.39851 0.0563966C8.32835 0.0566057 7.89988 0.0564565 7.84706 0.0564696C7.02177 0.056684 8.12756 0.0568227 8.1692 0.0568909C8.46897 0.0574286 7.54164 0.0579309 8.85871 0.0582962C8.40164 0.0605734 9.14125 0.0628402 7.96132 0.0650986C7.94765 0.0651273 7.40305 0.0650759 7.37813 0.0651331C7.07234 0.0658229 7.91875 0.0656905 8.95393 0.0661469C9.21387 0.0662619 7.96406 0.0666116 7.87245 0.0666426C7.53486 0.0667553 6.72464 0.0666384 6.65926 0.0666761C6.14587 0.0669886 8.82532 0.0669376 8.82618 0.0673591C8.82171 0.0673723 8.32853 0.0673169 8.27949 0.0673523C8.12554 0.0674622 8.32151 0.0675712 8.15175 0.0676787C7.75891 0.0679248 6.45693 0.0680125 7.21468 0.0683884C7.31302 0.068436 8.83292 0.0683633 8.76112 0.0687396C8.73121 0.0688897 8.75726 0.0695537 8.65876 0.0697398C8.56039 0.0699256 8.0706 0.069798 8.04939 0.0698113C7.40173 0.0703121 7.13331 0.0701222 6.17446 0.0703731C5.21922 0.070624 7.49755 0.0705544 7.75184 0.0706567C8.00542 0.0707592 7.47106 0.0711264 7.28529 0.0712166C7.09945 0.0713068 6.78823 0.0711943 6.68306 0.0712745C5.99596 0.0718062 7.81394 0.0715079 8.17555 0.0716831C9.03177 0.0720962 7.34215 0.0724179 7.17659 0.0727961C7.13188 0.0728984 7.5167 0.0728149 7.55269 0.072906C7.69012 0.0732669 7.16292 0.0734839 7.64632 0.0738945C7.72509 0.0739616 8.74093 0.0742935 7.99544 0.0745084C7.88794 0.0745388 7.46689 0.0744523 7.37257 0.0746061C7.23103 0.0748359 7.139 0.0752498 7.27974 0.0754968C7.38387 0.0756791 8.07766 0.0754702 7.86213 0.0756996C7.7659 0.0758017 7.36003 0.0756126 7.21309 0.0758042C7.06619 0.0759948 7.08402 0.0764822 7.09804 0.0766677C7.11236 0.0768528 7.63863 0.0767515 7.67409 0.0767664C7.87718 0.076857 8.13095 0.0772122 8.13032 0.0772436C8.19457 0.0788272 7.30748 0.0802875 7.60109 0.0818293C7.62337 0.0819503 8.17833 0.0818697 8.18745 0.0818882C8.41997 0.0823024 6.94446 0.0819758 6.45058 0.0822652C7.57676 0.0822233 7.37284 0.0823942 7.49635 0.0826859C7.55678 0.0828265 7.99285 0.08275 8.03749 0.0827628C8.69982 0.0829713 7.84433 0.0831165 7.66933 0.0831539C7.02556 0.083292 7.78621 0.0834423 7.35591 0.0835362C6.92883 0.0836301 6.29568 0.083414 6.30379 0.0836939C6.70692 0.0837723 7.76042 0.0835646 7.93117 0.083777C8.577 0.0845786 7.75043 0.086075 7.66456 0.0867195C7.57878 0.0873628 7.65315 0.0875705 7.50746 0.0879453C7.24403 0.0886224 8.02566 0.0883743 8.38343 0.0887947C8.74117 0.0892163 6.81799 0.0890113 6.40456 0.089072C5.99131 0.0891315 6.41671 0.0891964 6.18953 0.0892704C5.96241 0.0893442 5.68131 0.0891845 5.59603 0.089358C5.51083 0.0895316 6.24601 0.0900062 6.6783 0.0900677C7.59413 0.0901978 8.55534 0.0899839 8.2176 0.0904432C8.19756 0.0904697 7.69187 0.0903839 7.64076 0.0904851C7.25146 0.0912885 7.22733 0.0921231 6.88301 0.0929256C6.83488 0.0930359 6.27231 0.0929372 6.23793 0.0930014C5.87811 0.0936703 6.82666 0.0934312 7.88038 0.0937977C6.4781 0.0937155 5.62018 0.0939181 5.6119 0.0944257C5.60643 0.0947309 6.21888 0.0946783 6.65053 0.0948757C6.78065 0.0949349 6.36012 0.0951508 6.64815 0.0951899C7.58966 0.095319 8.64363 0.0951156 8.22395 0.0956389C8.20401 0.0956619 7.68864 0.0955888 7.65742 0.0956681C7.45313 0.0961809 8.43794 0.0962423 8.5572 0.0967967C8.65078 0.0972312 8.05026 0.098004 7.95259 0.0984987C6.37602 0.0984883 6.73703 0.0989556 7.82405 0.0991452C7.77955 0.0994663 7.841 0.0998131 7.69075 0.100123C7.63952 0.10023 7.18306 0.10016 7.13374 0.100174C6.36005 0.10038 7.4176 0.10052 7.45906 0.100589C7.86209 0.10134 7.06055 0.101952 7.84389 0.102669C7.8721 0.102694 8.96723 0.102736 8.16761 0.102927C8.1125 0.10294 7.61423 0.102703 7.5757 0.10304C7.53708 0.103377 6.95001 0.104013 7.45747 0.104481C7.57964 0.104595 8.46867 0.104881 7.77406 0.105111C7.67974 0.105142 7.36565 0.105109 7.19087 0.105153C6.63396 0.105296 7.74087 0.105374 6.80049 0.105542C5.86016 0.10571 5.15592 0.10606 5.80471 0.106532C5.82357 0.106547 6.7009 0.106659 6.68703 0.106807C6.66413 0.107044 6.48136 0.107381 6.48708 0.107628C6.49013 0.107747 7.03491 0.107671 7.04488 0.107692C7.35015 0.108488 6.86448 0.109056 6.6537 0.109909C6.61399 0.110066 7.35688 0.110515 6.76955 0.110818C6.12661 0.111151 3.45207 0.110809 4.08926 0.111574C4.34412 0.111882 7.73726 0.112273 5.97927 0.112827C6.41489 0.113902 5.51515 0.114896 6.13716 0.115974C6.16472 0.116022 7.11172 0.116175 7.09883 0.116289C7.07786 0.116459 6.63525 0.116551 6.6061 0.116672C6.47277 0.117178 6.85146 0.117642 6.79256 0.11813C6.77116 0.118315 6.3135 0.11825 6.28792 0.118471C6.26277 0.118692 6.86542 0.118839 6.57436 0.119138C6.3525 0.119364 5.12071 0.119591 4.97713 0.119891C6.19216 0.119902 6.16713 0.120108 6.48787 0.120474C6.5501 0.120545 6.973 0.120469 7.02425 0.120502C7.24221 0.120638 6.89172 0.120763 7.12898 0.120892C7.18597 0.120923 7.60091 0.120925 7.67091 0.12095C8.28199 0.121168 7.34862 0.121527 7.18611 0.121588C6.56892 0.121824 7.1086 0.121934 6.86556 0.122116C6.62254 0.122296 6.31875 0.122026 6.17128 0.122237C5.86626 0.122675 5.93327 0.123237 5.9142 0.123681C5.90916 0.123859 6.46304 0.123738 6.47518 0.123763C6.61566 0.12413 6.02649 0.124501 7.12978 0.124704C4.27708 0.124958 7.40647 0.124925 6.8354 0.125449C6.78922 0.12549 5.4402 0.125543 5.24215 0.125384C5.04429 0.125226 5.46597 0.124986 5.15725 0.124766C5.0848 0.124714 3.82068 0.124415 3.74411 0.124375C3.14565 0.124056 5.16158 0.124011 5.2723 0.123994C6.4672 0.123802 5.10535 0.123438 5.01125 0.123342C4.58007 0.122903 4.86358 0.12253 4.55581 0.122162C4.3569 0.121922 3.03639 0.121898 3.07681 0.12171C3.21041 0.121083 5.05252 0.120864 3.45529 0.120273C3.11463 0.120146 1.67136 0.120272 2.80624 0.119818C2.87779 0.11979 3.916 0.119452 3.25931 0.119258C3.17651 0.119233 2.75588 0.119234 2.72055 0.119202C2.49199 0.118986 2.82708 0.118841 2.66659 0.118606C2.50611 0.11837 2.26685 0.118087 2.40952 0.117818C2.49482 0.117656 3.2785 0.117448 3.47036 0.117371C4.02307 0.117152 3.11686 0.116917 3.78616 0.116781C4.45882 0.116644 5.48037 0.116912 5.915 0.116553C4.82219 0.11654 3.70054 0.116509 2.60153 0.116488C2.64001 0.115702 2.99338 0.114928 2.9451 0.114139C2.93802 0.114041 2.35052 0.114141 2.32779 0.114036C2.23446 0.113594 2.65326 0.113207 2.48648 0.112749C2.35513 0.112393 1.7331 0.112004 1.57639 0.111633C2.82687 0.111406 2.40236 0.110855 2.51663 0.110454C2.55612 0.110314 2.8901 0.110324 2.99905 0.110224C3.40202 0.109848 2.29698 0.110024 2.12308 0.109921C1.38089 0.109478 3.88208 0.10944 3.82028 0.108919C3.81785 0.108891 2.48461 0.108553 2.40158 0.108507C1.86019 0.108211 2.86563 0.108458 2.96414 0.108273C3.14416 0.107935 3.46256 0.1077 3.07205 0.107304C2.95638 0.107188 2.12539 0.106911 2.76816 0.106687C2.85232 0.106657 3.29301 0.106673 3.31881 0.10665C3.74901 0.106219 2.36432 0.106208 1.89536 0.105962C1.4265 0.105716 2.38237 0.105337 2.65787 0.105259C3.37055 0.105057 2.96244 0.105414 3.03238 0.105425C3.86468 0.105554 3.72139 0.105277 3.79171 0.105065C5.14942 0.105035 5.06792 0.104739 3.85916 0.104846C3.72713 0.104858 3.85374 0.105023 3.79171 0.105065C2.45962 0.104879 2.28902 0.104554 3.53384 0.104195C4.11727 0.104027 4.79752 0.104186 4.54867 0.103675C4.43633 0.103443 3.50148 0.103533 3.24661 0.103328C2.66509 0.102861 3.53715 0.102253 3.39975 0.101772C3.34986 0.101597 2.83813 0.101767 2.78641 0.101647C2.64753 0.10133 3.0315 0.101051 2.83481 0.100732C2.81634 0.100703 2.28066 0.100774 2.27383 0.100675C2.21162 0.0999236 2.55473 0.0992697 2.56424 0.0984856C2.56859 0.0981067 2.27315 0.0974294 2.33255 0.097037C2.43234 0.0963568 3.21129 0.09552 3.02206 0.0949389C2.90093 0.09456 2.36515 0.0946431 2.00009 0.0944807C1.29247 0.0941673 2.55999 0.0936127 2.75626 0.093538C2.76275 0.0935357 2.88906 0.0938618 3.16409 0.0936878C3.73717 0.0935866 2.75874 0.0935417 2.75626 0.093538C2.88305 0.0934889 3.00467 0.0928375 2.90225 0.0927081C2.84628 0.0926378 2.33865 0.0926771 2.31906 0.0926405C1.86478 0.0917694 1.73576 0.0908967 1.97312 0.0900132C1.98337 0.0899977 2.55118 0.0900211 2.56821 0.0899845C2.82067 0.089473 2.12606 0.0891455 1.71366 0.0887237C1.30144 0.0883019 1.4395 0.0879674 2.41428 0.0877177C2.29154 0.0873994 2.72249 0.0869429 2.98398 0.0866801C3.24546 0.0864174 2.14017 0.0863807 2.11832 0.0863576C1.41895 0.0856366 2.0516 0.0852197 2.15006 0.0844717C2.19876 0.084116 2.03844 0.0834106 1.91757 0.0830255C1.8202 0.0827212 2.07923 0.0825378 1.91361 0.0822574C1.89149 0.0822195 1.39935 0.0822578 1.38041 0.0822462C0.791597 0.0819332 1.99469 0.0820836 2.20957 0.082019C2.99094 0.0817848 3.4071 0.08164 3.03952 0.0812393C2.95534 0.0811468 1.22305 0.0808775 1.12174 0.080709C0.993201 0.08049 1.61412 0.0805726 1.46372 0.0803432C1.45142 0.0803236 1.06835 0.0803277 1.08524 0.0801861C1.1586 0.0795289 1.3815 0.0788124 1.34311 0.0781294C1.33934 0.0780361 0.731739 0.0781558 0.716284 0.078021C0.644261 0.0773885 0.666747 0.0766952 0.951146 0.0760791C1.02306 0.0759274 1.44848 0.0760225 1.5748 0.0759896C2.3391 0.0757874 1.22859 0.0755008 1.20743 0.0754535C0.673773 0.0743254 1.67877 0.0734619 1.20029 0.0723121C1.1722 0.0722495 -0.01829 0.0717677 1.00272 0.0715527C1.07065 0.071538 2.11525 0.0713253 1.40103 0.0711373C1.35635 0.0711256 0.818577 0.0712581 0.873388 0.0710269C0.928079 0.0707956 0.568956 0.0704235 1.15982 0.0701056C1.34596 0.0700049 2.38798 0.0697671 1.55735 0.0694669C1.49936 0.0694473 -0.378822 0.0689839 0.917028 0.0688184C1.13034 0.0687916 2.50164 0.0688197 1.79856 0.0684614C1.66225 0.0683929 1.35638 0.0685172 1.16538 0.0683369C0.87101 0.0680605 1.23829 0.0676944 0.627417 0.0673547C0.51927 0.0672955 -0.411488 0.0670433 0.294959 0.066841C0.405601 0.0668094 0.863413 0.0668696 0.914647 0.0667627C1.16041 0.0662548 0.854178 0.0657229 1.17093 0.0652071C1.28224 0.0650244 2.02234 0.0651178 2.22067 0.0649274C2.41894 0.0647369 2.60966 0.0643532 2.27145 0.0641539C1.9331 0.0639546 0.753544 0.0641723 0.659155 0.0638738C0.249216 0.0625756 0.941174 0.0612896 1.04239 0.0599934C1.05751 0.0598011 0.63543 0.0599605 0.627417 0.0596772C0.596016 0.0586327 0.20027 0.0568292 1.09714 0.0559228C1.81549 0.0551966 2.36237 0.0561105 2.65469 0.0555556C2.79414 0.0552878 1.42279 0.0549981 1.37961 0.0549334C0.941056 0.0543019 1.54854 0.053863 1.36216 0.0532946C1.32348 0.0531772 0.767657 0.0532923 0.740881 0.0531924C0.644489 0.0528512 0.892583 0.0524926 0.847204 0.0521665C0.825567 0.0520203 0.401049 0.0520472 0.433814 0.0519126C0.507322 0.0515905 0.685769 0.0513058 1.08365 0.0509918C1.11991 0.0509632 1.64799 0.0511561 1.66764 0.0509178C1.69792 0.0505322 2.09043 0.0500535 1.68509 0.0496098C1.56316 0.0494781 0.59293 0.049473 1.26297 0.04919C1.40292 0.0491306 2.56795 0.0492064 1.56131 0.0488767C1.39403 0.0488213 0.0362664 0.0482675 0.911473 0.0479958C1.14182 0.0479241 2.09517 0.0477411 1.94534 0.0475828C1.92144 0.0475613 1.40029 0.0476473 1.34946 0.0475161C1.17938 0.0470538 1.23498 0.0465693 1.07175 0.0460943C1.02713 0.0459674 0.487853 0.0461563 0.438575 0.0459673C0.302267 0.0454475 0.439577 0.0447984 0.608374 0.0442901C0.67163 0.0441026 1.11835 0.0442322 1.16697 0.0442186C1.95769 0.0439992 0.890394 0.0438696 0.828161 0.0437968C0.455513 0.0433441 0.956866 0.0429994 0.824193 0.0425822C0.788933 0.042467 0.280034 0.0425487 0.234657 0.0425257C-0.208712 0.042288 0.705204 0.0424651 0.805944 0.0423146C1.09119 0.0418931 1.05029 0.0414232 0.985265 0.0409968C0.960631 0.0408403 0.370551 0.0410163 0.355262 0.0408757C0.253581 0.040044 0.310045 0.0391793 0.635351 0.0383676C0.697674 0.0382148 1.15205 0.0383109 1.25583 0.0382791C1.98191 0.0380595 0.991532 0.0377378 0.897191 0.0376637C0.466432 0.0373271 0.868248 0.0371963 0.793249 0.0368991C0.419836 0.0354468 0.685964 0.0336536 0.850377 0.0322827C1.06198 0.0304963 1.49424 0.0291101 1.38199 0.0274066C1.37543 0.0272983 0.770963 0.0274075 0.757543 0.0273142C0.611826 0.0261092 0.848026 0.0249229 0.673437 0.0237155C0.660182 0.0236164 0.0871456 0.0237592 0.046608 0.0236002C-0.0405582 0.023274 -0.00941159 0.0228608 0.173561 0.022531C0.261721 0.0223701 0.753437 0.0225859 0.832128 0.022424C1.01648 0.022047 1.05729 0.0216428 0.965428 0.0212556C0.925086 0.0210908 0.339016 0.0213394 0.332252 0.0211252C0.274109 0.019666 0.173172 0.018233 0.932103 0.0167584C0.984226 0.0166573 2.17535 0.0165686 1.94693 0.0163537C1.61636 0.0163375 1.22751 0.0163384 0.874181 0.0163313C0.683849 0.0142071 1.09677 0.0121046 1.16062 0.00997447C1.16317 0.00988466 0.532056 0.0100399 0.533789 0.00986599C0.54312 0.00885962 0.368281 0.00788237 0.99558 0.00685297C1.05693 0.00675083 2.16722 0.00680323 1.9993 0.00650224C1.96866 0.00644916 1.82058 0.00599583 1.57956 0.00587862C1.54321 0.0058627 1.02497 0.00594541 1.00986 0.00579933C0.931165 0.00495043 1.04948 0.00406083 1.36612 0.0032134C1.41822 0.00307664 1.9701 0.00322229 2.01199 0.00312487C2.30496 0.00243387 1.88543 0.00168226 2.38651 0.00102198C2.7239 0.000580012 3.67787 0.000743642 4.61691 0.000508785C4.74939 0.000475567 4.77038 0.000201886 5.31673 0.000187733C6.69058 0.000151398 8.19493 0.000283961 9.65931 0.000229567C9.97473 0.000218075 9.635 -0.000148454 10.3972 6.85547e-05C10.4482 8.3715e-05 10.7012 0.000349451 10.9598 0.000414902C11.1386 0.000460471 11.6942 0.000378354 11.923 0.000471329C12.1517 0.000564297 11.6859 0.000666456 11.9548 0.000820595C12.227 0.000974665 12.8591 0.000906919 12.9339 0.00121461ZM4.15274 0.0854971C4.68354 0.0852538 2.73942 0.0852179 3.20456 0.085481C3.22935 0.0854938 4.1267 0.0855096 4.15274 0.0854971ZM4.4598 0.114932C5.31729 0.114614 4.05644 0.114397 3.39419 0.114621C2.73266 0.114845 4.19986 0.115029 4.4598 0.114932ZM5.08584 0.11823C5.76193 0.117859 3.0051 0.1178 3.5624 0.118198C3.5939 0.118221 5.04658 0.118252 5.08584 0.11823ZM4.8843 0.00159793C4.91012 0.00159457 4.93528 0.00139784 4.90969 0.00139314C4.29224 0.00128838 4.24236 0.00168177 4.8843 0.00159793ZM5.76742 0.121503C6.14034 0.121387 5.70984 0.121053 5.24612 0.121197C4.87306 0.121313 5.30352 0.121648 5.76742 0.121503ZM6.22762 0.0728063C6.25659 0.0728025 6.28268 0.0726614 6.11892 0.0726643C5.59148 0.0726738 5.74034 0.0728701 6.22762 0.0728063ZM5.79915 0.127066C5.90292 0.126244 8.1802 0.125745 7.92323 0.12664C7.87674 0.126802 7.19703 0.126291 6.99172 0.126497C6.61767 0.126875 8.04753 0.127125 7.28133 0.127511C7.14109 0.12758 5.78817 0.127112 5.79598 0.127064C5.79704 0.127065 5.7981 0.127065 5.79915 0.127066ZM6.48787 0.085357C6.51358 0.0853521 6.53796 0.0851569 6.51247 0.0851522C5.89527 0.0850465 5.8458 0.0854398 6.48787 0.085357ZM7.4297 0.0645762C7.48448 0.0645654 7.53572 0.0641123 7.48524 0.0640975C6.47595 0.0638611 6.36938 0.0647772 7.4297 0.0645762ZM7.91054 0.0985065C8.53144 0.0987195 8.60455 0.0989744 7.82484 0.0991442C7.86623 0.0989325 7.87233 0.0987194 7.91054 0.0985065Z" fill="#171717" fill-opacity="0.75"/>
<path d="M240.535 149.776C239.255 150.259 237.448 150.795 236.017 151.211C235.566 151.343 235.694 151.03 235.378 151.113C234.754 151.278 234.269 151.621 233.636 151.787C233.432 151.838 233.51 151.388 233.299 151.45C232.125 151.803 231.118 152.391 229.962 152.871C225.927 154.551 222.016 156.485 218.082 158.509C216.469 159.34 214.858 160.192 213.233 161.061C211.396 162.044 209.03 163.021 207.252 164.245C207.043 164.389 207.341 164.598 207.314 164.646C206.879 165.389 206.756 164.684 206.29 164.857C204.438 165.547 202.565 166.639 201.037 167.723C200.385 168.186 201.41 168.331 200.534 168.434C200.474 168.442 200.462 168.036 200.256 168.118C199.791 168.304 199.022 168.852 198.683 169.03C198.025 169.372 197.923 169.44 197.327 169.807C196.512 170.306 195.455 170.764 194.633 171.382C194.458 171.514 194.896 171.664 194.635 171.902C194.374 172.141 193.578 172.614 193.272 172.711C192.965 172.807 192.922 172.497 192.841 172.472C192.161 172.256 191.675 173.478 191.573 173.568C189.651 175.203 187.628 176.035 185.696 177.369C184.229 178.384 182.762 179.602 181.398 180.584C179.771 181.756 178.308 182.633 176.838 183.892C176.68 184.027 177.137 184.199 176.947 184.363C176.138 185.066 175.318 185.79 174.558 186.484C173.465 187.486 172.42 188.492 171.596 189.497C171.455 189.673 171.287 189.231 171.125 189.4C170.636 189.916 170.033 190.638 169.981 191.386C169.912 192.118 170.443 192.722 171.288 192.545C171.547 193.151 172.338 193.978 172.876 194.774C173.232 195.292 172.526 195.29 173.235 195.573C173.398 195.637 173.414 195.218 173.642 195.335C174.593 195.815 175.565 196.514 176.615 196.893C176.829 196.969 176.932 196.661 177.015 196.642C177.703 196.495 178.116 197.596 178.262 197.74C178.851 198.313 179.418 198.688 180.011 199.022C180.531 199.316 181.066 199.575 181.641 199.901C181.923 200.061 181.798 199.501 182.075 199.642C183.518 200.377 184.954 201.226 186.239 202.144C186.523 202.348 186.068 202.515 186.195 202.629C186.762 203.13 187.231 202.601 187.781 203.064C187.898 203.161 187.678 203.397 187.685 203.44C187.807 204.114 188.49 203.612 188.594 203.647C189.915 204.078 190.338 205.185 191.586 205.663C191.735 205.719 191.585 205.209 191.992 205.387C194.708 206.567 197.515 207.849 200.196 208.977C200.613 209.151 200.222 209.345 200.238 209.388C200.528 210.068 201.029 209.411 201.176 209.421C202.335 209.521 203.274 210.376 204.203 209.614C205.977 210.054 207.798 210.214 209.588 210.155C212.515 210.06 215.372 209.369 218.374 208.773C218.435 208.76 218.465 209.152 218.587 209.124C220.071 208.771 219.586 208.325 220.195 207.281C220.343 207.021 221.39 207.492 221.479 207.518C221.801 207.625 221.809 208.241 221.903 208.247C222.684 208.269 221.777 206.65 222.586 206.244C222.613 206.234 222.66 206.593 222.744 206.588C223.007 206.575 223.154 206.347 223.416 206.343C224.015 206.337 224.616 207.041 225.094 206.182C225.152 206.072 224.512 205.226 225.246 204.873C225.542 204.734 226.788 203.992 227.17 203.841C227.554 203.691 227.488 204.125 227.52 204.123C228.698 203.939 228.434 204.314 229.254 204.592C230.077 204.863 229.119 203.6 229.219 203.332C229.317 203.065 230.199 202.951 230.438 202.951C230.675 202.954 230.58 203.268 230.769 203.236C232.018 203.007 230.785 202.298 230.977 201.879C231.423 200.891 232.653 201.487 233.418 201.124C233.626 201.025 233.324 200.904 233.48 200.772C234.093 200.257 234.7 200.294 235.271 199.514C235.367 199.385 235.588 198.394 236.271 198.56C236.369 198.584 236.37 198.933 236.691 198.798C237.169 198.598 237.971 198.14 238.371 197.757C238.668 197.473 238.015 197.33 238.522 197.172C238.748 197.101 238.554 197.568 238.965 197.417C239.374 197.266 240.269 196.658 240.606 196.423C240.943 196.189 240.555 196.008 240.569 195.97C240.658 195.742 241.224 195.158 241.281 195.121C241.628 194.887 241.978 194.662 242.332 194.444C244.932 192.843 247.607 191.684 250.076 189.94C250.296 189.785 249.941 189.553 249.973 189.526C250.671 188.904 250.592 190.155 251.318 190.108C250.829 189.493 251.226 189.414 251.734 189.001C251.978 188.802 251.675 188.634 251.683 188.592C251.838 187.959 252.424 188.295 252.558 188.355C253.052 188.575 253.062 187.952 253.396 188.098C253.728 188.242 253.546 188.865 254.074 188.538C254.078 188.209 253.304 187.826 253.646 187.479C254.937 186.168 258.088 184.95 259.353 184.276C260.615 183.601 260.988 183.324 261.758 182.992C263.15 182.392 262.401 182.202 263.086 181.519C263.777 180.834 264.045 182.217 264.305 182.397C264.562 182.579 264.54 182.252 264.76 182.307C264.98 182.362 264.771 182.707 265.133 182.567C265.5 182.423 266.153 181.464 266.127 181.134C266.064 180.44 265.323 180.096 266.325 179.795C266.382 179.778 266.391 180.176 266.602 180.096C268.287 179.449 269.914 178.557 271.59 177.903C271.822 177.814 271.817 178.261 271.954 178.213C273.366 177.72 272.597 177.394 272.956 176.366C273.26 177.307 273.945 177.607 274.931 177.081C275.532 176.76 275.225 176.444 275.468 175.975C275.544 175.832 276.105 175.862 276.086 175.646C276.033 174.936 275.283 174.507 276.457 174.214C276.508 174.202 276.532 174.593 276.697 174.531C277.685 174.157 277.605 173.561 278.401 172.973C278.474 172.919 278.553 172.866 278.641 172.814C279.473 172.311 281.204 171.905 282.198 171.475C282.677 172.456 283.494 171.757 283.501 170.898C284.131 170.598 284.77 170.197 285.341 169.933C285.532 169.844 285.602 170.18 285.643 170.193C286.33 170.366 286.074 169.592 286.099 169.515C286.17 169.385 286.186 169.283 286.167 169.291C286.147 169.303 286.171 169.358 286.137 169.294C286.065 169.172 285.807 168.942 285.531 168.764C284.971 168.402 284.288 168.114 283.473 168.088C283.414 168.087 283.056 168.76 282.872 168.1C282.858 168.055 283.468 167.912 282.78 167.63C282.404 167.476 281.876 167.15 281.269 166.885C280.812 166.684 280.288 166.516 279.807 166.522C279.528 166.519 278.761 166.916 278.409 166.298C278.366 166.216 278.502 166.031 278.447 165.887C278.268 165.425 277.872 166.102 277.707 165.367C277.556 164.636 276.953 163.934 275.818 164.053C275.781 164.055 275.362 164.561 275.055 164.456C274.558 164.286 273.882 163.946 273.354 163.79C273.099 163.714 273.152 164.124 273.105 164.118C271.355 163.806 270.25 163.123 268.474 162.441C268.152 162.316 267.044 162.523 266.518 161.943C265.934 161.306 267.185 159.745 265.436 159.688C264.718 159.66 263.233 161.671 262.398 160.157C260.025 159.773 258.082 158.556 255.665 158.298C255.557 158.286 255.047 158.82 254.806 158.74C254.449 158.621 254.333 158.268 254.085 158.174C253.036 157.771 251.975 157.735 250.944 157.391C250.551 157.26 250.78 156.997 250.316 156.843C249.852 156.69 249.421 156.998 248.836 156.617C248.401 156.33 248.161 155.371 247.547 155.088C247.285 155.888 246.852 155.744 246.011 155.729C245.849 155.726 245.928 156.054 245.847 156.068C245.516 156.128 245.316 155.816 244.994 155.893C244.916 155.912 244.832 156.186 244.764 156.217C244.185 156.488 243.603 155.644 243.502 155.498C243.117 154.939 242.779 155.23 242.442 154.955C242.105 154.681 242.739 154.648 242.319 154.418C241.443 153.941 240.24 153.636 239.292 153.343C238.917 153.229 239.065 153.673 239.009 153.665C238.205 153.53 237.527 152.905 236.878 153.51C236.897 151.456 236.356 153.556 235.35 152.846C235.271 152.789 235.424 151.861 235.801 151.829C236.178 151.798 236.607 152.229 237.134 152.161C237.257 152.145 238.142 151.494 238.243 151.468C239.04 151.271 238.74 152.638 238.755 152.722C238.926 153.635 239.97 152.959 240.193 152.957C241.211 152.945 241.951 153.367 242.793 153.392C243.343 153.41 243.646 152.546 244.043 152.691C245.355 153.172 245.46 154.532 247.029 153.839C247.366 153.692 247.373 152.653 248.124 153.691C248.171 153.757 248.688 154.657 249.228 154.341C249.296 154.301 249.376 154.021 249.451 154.017C249.955 154 250.201 154.314 250.733 154.353C251.263 154.392 251.915 154.41 252.46 154.673C252.789 154.83 253.076 155.479 253.204 155.655C253.567 156.16 254.244 155.704 254.401 156.233C254.561 156.764 253.796 157.278 254.471 157.788C254.711 157.07 254.995 156.344 255.254 155.627C256.924 156.143 258.505 156.861 260.191 157.32C260.4 157.376 260.301 156.923 260.531 156.974C261.499 157.19 262.236 157.709 263.246 157.885C264.025 158.02 264.978 157.851 265.803 157.982C266.043 158.955 267.304 159.022 268.127 159.349C268.414 159.463 268.334 159.68 268.526 159.816C269.251 160.323 269.091 159.477 269.346 159.428C270.427 159.214 270.025 160.901 271.143 161.192C271.204 161.208 272.19 160.541 272.303 160.516C273.038 160.346 272.313 160.854 272.69 161.039C273.377 161.377 273.813 161.74 274.733 161.739C274.991 161.734 275.775 161.373 276.109 161.942C276.154 162.017 276.03 162.298 276.074 162.33C276.919 162.904 277.201 161.988 277.838 161.848C278.463 161.703 279.076 162.592 279.182 162.827C279.458 163.433 278.79 162.923 278.749 162.961C278.297 163.422 278.925 163.517 279.351 163.705C279.133 164.622 279.779 164.772 279.81 163.902C279.813 163.807 279.432 163.776 279.351 163.705C280.038 162.957 280.778 163.073 281.26 164.142C281.476 164.601 281.102 164.92 281.87 165.122C281.951 165.144 282.044 165.165 282.15 165.184C282.674 165.283 282.673 164.598 283.188 164.592C284.341 164.578 285.436 165.606 286.629 166.121C287.095 166.336 286.826 165.783 287.156 165.928C287.617 166.153 288.023 166.415 288.6 167.114C288.886 167.483 289.239 168.019 289.364 168.837C289.491 169.668 289.241 170.463 288.982 170.965C288.891 171.136 289.472 170.922 289.104 171.494C288.39 172.454 287.912 172.697 287.458 173.014C287 173.306 286.614 173.503 286.204 173.706C285.417 174.088 284.659 174.41 283.868 174.81C283.103 175.197 281.866 176.048 281.078 176.406C280.847 176.511 280.596 176.611 280.33 176.709C279.099 177.161 277.656 177.529 276.779 178.122C276.085 178.59 276.424 178.83 276.227 179.223C275.855 179.979 274.365 179.793 274.155 179.754C274.149 179.751 274.735 179.332 274.309 179.348C273.924 179.106 274.161 179.748 274.155 179.754C274.014 179.73 272.718 180.347 272.502 180.548C272.386 180.657 272.632 180.923 272.568 180.973C271.042 182.178 269.411 183.199 267.637 184.023C267.603 184.034 267.454 183.667 267.377 183.697C266.313 184.103 265.926 184.881 265.261 185.596C264.603 186.306 263.915 186.596 263.1 186.291C262.534 186.72 261.516 186.972 260.925 187.111C260.334 187.25 260.653 187.95 260.617 187.989C259.497 189.216 258.483 189.312 257.036 190.105C256.346 190.481 255.075 191.384 254.395 191.9C253.858 192.307 253.42 192.367 252.954 192.789C252.891 192.846 253.142 193.091 253.128 193.116C252.756 193.825 252.599 192.943 252.4 192.891C251.676 192.703 251.252 192.627 250.636 193.312C250.494 193.469 250.628 194.801 250.352 195.057C249.991 195.389 249.916 194.928 249.545 195.286C249.513 195.316 249.662 195.535 249.393 195.692C248.146 196.421 246.735 197.141 245.492 197.981C245.322 198.095 245.771 198.305 245.529 198.475C245.402 198.565 245.272 198.655 245.142 198.745C244.105 199.458 242.977 200.165 241.872 200.69C241.566 200.833 241.578 200.472 241.469 200.439C240.803 200.246 240.7 201.239 240.621 201.309C238.745 203.001 236.758 203.496 234.771 205.18C234.662 205.275 234.196 206.556 233.4 206.224C233.345 206.203 232.556 205.848 232.457 206.494C232.451 206.534 232.905 206.689 232.438 206.937C231.974 207.184 231.377 207.846 230.544 207.871C230.276 207.882 229.446 207.541 229.143 208.385C229.128 208.442 228.85 210.106 228.066 209.517C227.938 209.418 227.532 208.561 227.047 209.387C226.953 209.546 227.309 209.592 227.004 209.911C226.536 210.399 225.662 210.576 225.136 211.315C225.045 211.445 224.795 212.291 224.14 212.062C224.038 212.026 224.031 211.678 223.786 211.756C222.625 212.12 221.536 212.828 220.284 213.076C219.842 213.162 219.875 212.602 219.397 212.633C218.921 212.664 218.014 212.835 217.625 213.199C217.233 213.564 217.985 214.191 217.288 214.466C214.948 215.379 212.336 215.614 209.761 215.542C208.993 215.522 208.232 215.477 207.476 215.425C206.99 215.389 207.378 215.706 206.656 215.663C203.985 215.558 199.515 214.787 197.661 213.481C196.177 212.462 198.351 212.792 197.178 212.183C196.62 211.89 195.659 212.546 195.502 212.519C193.993 212.275 193.199 211.487 191.939 211.073C191.678 210.986 191.767 211.447 191.546 211.369C190.789 211.104 190.104 210.595 189.41 210.296C189.099 210.162 189.027 210.454 188.756 210.297C188.108 209.923 187.575 209.517 187.061 208.944C187.014 208.891 187.574 208.768 187.095 208.507C186.323 208.086 185.489 207.337 184.476 207.108C184.174 207.04 183.84 207.624 183.504 206.911C183.433 206.762 183.969 206.137 182.984 206.39C182.821 206.433 181.275 206.652 181.039 205.826C180.978 205.609 180.943 204.834 180.585 204.752C180.535 204.744 180.526 205.152 180.255 205.04C179.304 204.643 178.395 204.091 177.439 203.692C177.435 203.69 177.431 203.688 177.426 203.686C177.167 203.579 177.351 204.106 176.97 203.936C175.932 203.472 174.701 202.699 173.732 202.021C173.378 201.772 173.79 201.649 173.779 201.604C173.61 200.88 172.977 201.367 172.809 201.32C171.749 201 171.205 200.265 170.263 199.731C170.003 199.581 169.976 199.991 169.909 199.982C169.212 199.866 169.965 199.624 169.677 199.331C168.879 198.495 167.819 197.675 166.843 196.484C166.492 196.038 166.544 196.803 166.227 196.38C165.267 195.13 164.481 193.029 164.654 191.099C164.801 189.158 165.539 187.748 166.266 186.696C166.545 186.306 166.662 186.728 166.774 186.68C167.539 186.373 167.502 185.275 167.578 185.073C167.932 184.136 168.367 184.068 168.849 183.462C169.274 182.934 169.718 182.44 170.218 181.934C172.41 179.716 175.083 177.82 177.188 176.359C180.556 174.036 183.292 172.526 186.438 170.337C186.64 170.198 186.203 169.986 186.374 169.861C188.581 168.278 190.907 166.977 193.134 165.434C193.317 165.308 192.835 165.142 193.122 164.929C193.71 164.488 194.509 164.015 195.204 163.734C195.543 163.596 195.311 164.14 195.648 163.995C196.434 163.659 197.217 163.21 197.925 162.703C198.226 162.487 197.539 162.431 197.946 162.177C200.714 160.442 203.443 158.735 206.554 157.53C206.764 157.45 207.354 158.06 207.691 157.682C207.608 157.466 207.471 157.234 207.362 157.014C209.823 155.495 212.379 154.129 214.936 152.81C216.586 151.958 218.238 151.118 219.892 150.253C220.07 150.16 219.559 149.938 219.901 149.756C221.884 148.705 223.807 147.564 226.078 146.915C226.306 146.849 226.547 147.587 227.099 147.184C227.192 147.114 228.073 146.569 228.243 146.303C228.265 146.265 227.938 146.024 228.237 145.869C229.951 144.986 231.866 144.202 233.792 143.663C234.104 143.576 233.929 144.058 234.151 144.001C235.716 143.592 237.324 142.72 238.958 142.635C240.042 142.586 239.831 143.328 240.513 143.829C240.608 143.899 241.224 143.774 241.334 144.138C241.614 145.051 241.558 146.13 241.892 147.094C241.961 147.301 242.661 146.913 242.328 147.522C242.303 147.563 241.806 147.851 241.718 148.057C241.658 148.198 241.904 148.535 241.761 148.732C241.618 148.928 241.347 148.662 241.097 148.919C240.853 149.179 241.093 149.564 240.535 149.776ZM258.263 187.751C257.613 187.711 258.237 188.907 258.569 188.332C258.585 188.303 258.296 187.752 258.263 187.751ZM258.206 157.831C258.722 158.6 259.43 157.898 259.08 157.318C258.728 156.738 258.051 157.598 258.206 157.831ZM251.06 156.194C251.725 156.876 252.385 155.08 251.425 155.201C251.369 155.208 251.021 156.154 251.06 156.194ZM238.153 144.675C238.167 144.688 238.596 144.574 238.605 144.554C238.713 144.074 237.835 144.307 238.153 144.675ZM243.96 154.608C244.136 154.929 244.929 154.851 244.713 154.453C244.54 154.133 243.742 154.21 243.96 154.608ZM233.797 201.661C233.779 201.649 233.506 201.806 233.574 201.897C233.791 202.191 234.101 201.866 233.797 201.661ZM232.116 151.14C233.838 151.726 234.459 153.554 232.601 152.818C232.265 152.685 233.487 152.556 233.088 152.29C232.36 151.804 231.546 152.595 230.875 151.842C230.754 151.705 232.019 151.103 232.12 151.139C232.118 151.139 232.117 151.14 232.116 151.14ZM257.168 186.522C257.149 186.512 256.769 186.72 256.769 186.741C256.788 187.228 257.553 186.809 257.168 186.522ZM217.433 209.504C217.399 209.479 216.451 209.751 216.432 209.79C216.138 210.62 218.097 210.061 217.433 209.504ZM282.226 171.493C282.46 170.891 282.92 170.596 283.499 170.899C283.079 171.09 282.666 171.298 282.226 171.493Z" fill="#FAC60B" fill-opacity="0.75"/>
<path d="M221.333 178.557C222.69 178.314 224.483 178.179 225.876 178.08C226.311 178.049 226.141 178.325 226.446 178.313C227.045 178.285 227.555 178.051 228.145 178.023C228.343 178.014 228.196 178.439 228.403 178.42C229.533 178.317 230.535 177.94 231.647 177.678C237.132 176.384 242.285 174.031 247.231 170.987C247.243 170.979 247.255 170.972 247.266 170.965C248.902 169.959 251.054 168.858 252.608 167.535C252.791 167.38 252.48 167.196 252.5 167.148C252.823 166.393 253.028 167.073 253.454 166.869C255.142 166.061 256.8 164.844 258.131 163.662C258.695 163.159 257.694 163.097 258.522 162.927C258.579 162.914 258.642 163.311 258.829 163.214C259.256 162.992 259.92 162.399 260.227 162.195C260.816 161.809 260.906 161.734 261.433 161.328C262.155 160.776 263.116 160.245 263.835 159.578C263.988 159.435 263.547 159.322 263.771 159.068C263.994 158.814 264.705 158.293 264.99 158.175C265.276 158.058 265.353 158.359 265.434 158.378C266.113 158.541 266.443 157.31 266.533 157.215C268.21 155.478 270.086 154.54 271.848 153.142C273.186 152.079 274.534 150.831 275.832 149.842C276.871 149.051 277.854 148.408 278.842 147.718C279.332 147.376 279.813 147.029 280.295 146.652C280.454 146.528 280.009 146.331 280.205 146.178C282.284 144.59 284.279 143.033 287.061 141.916C287.345 141.812 287.16 142.313 287.446 142.234C288.169 142.036 289.164 141.862 290.187 141.925C291.218 141.982 292.073 142.267 292.801 142.181C293.106 142.137 293.403 142.028 293.684 141.828C294.692 142.328 295.878 142.977 296.596 143.72C297.056 144.197 296.327 144.272 297.089 144.479C297.259 144.527 297.228 144.107 297.472 144.202C298.504 144.608 299.485 145.299 300.507 145.683C300.715 145.76 300.824 145.455 300.907 145.437C301.597 145.302 301.95 146.407 302.08 146.55C303.095 147.642 304.067 148.042 305.195 148.736C305.456 148.897 305.367 148.343 305.627 148.485C306.971 149.226 308.299 150.065 309.49 150.978C309.754 151.182 309.308 151.344 309.425 151.457C309.947 151.955 310.422 151.434 310.929 151.893C311.035 151.989 310.813 152.221 310.818 152.264C310.902 152.93 311.587 152.44 311.682 152.474C312.935 152.909 313.285 154.004 314.461 154.493C314.601 154.551 314.483 154.043 314.866 154.225C316.324 154.914 317.81 155.656 319.276 156.416C320.374 156.985 321.48 157.578 322.538 158.201C322.922 158.427 322.512 158.568 322.522 158.613C322.704 159.32 323.283 158.742 323.428 158.777C324.557 159.061 325.247 160.095 326.35 159.621C330.327 162.06 336.164 164.173 336.855 170.265C336.857 170.335 336.465 170.28 336.471 170.415C336.43 172.018 336.959 171.643 337.533 172.926C337.623 173.16 337.148 173.565 336.808 173.776C336.661 173.865 336.543 173.924 336.518 173.939C336.216 174.114 335.764 173.687 335.695 173.754C335.141 174.256 336.929 174.819 336.487 175.764C336.471 175.79 336.22 175.525 336.154 175.583C335.949 175.759 335.953 176.044 335.727 176.206C335.214 176.557 334.354 176.249 334.351 177.195C334.347 177.317 335.315 177.787 334.776 178.448C334.569 178.714 333.654 179.888 333.331 180.144C333.014 180.407 332.941 179.974 332.91 179.986C331.853 180.509 331.988 180.071 331.144 180.012C330.303 179.944 331.55 180.918 331.524 181.201C331.5 181.483 330.685 181.786 330.455 181.832C330.227 181.877 330.245 181.555 330.074 181.623C328.946 182.063 330.269 182.527 330.173 182.969C329.937 184.016 328.625 183.631 327.958 184.074C327.775 184.195 328.085 184.276 327.956 184.424C327.441 185.005 326.853 185.031 326.405 185.846C326.335 185.978 326.232 186.979 325.553 186.867C325.456 186.85 325.414 186.508 325.12 186.664C324.679 186.897 323.958 187.392 323.605 187.793C323.344 188.089 323.989 188.194 323.514 188.376C323.303 188.456 323.445 187.989 323.064 188.157C322.684 188.325 321.872 188.961 321.565 189.204C321.258 189.448 321.648 189.61 321.638 189.649C321.569 189.877 321.07 190.469 321.016 190.508C318.335 192.549 315.445 193.806 312.854 195.79C312.65 195.945 313.006 196.17 312.977 196.197C312.339 196.817 312.346 195.584 311.648 195.638C312.155 196.237 311.772 196.323 311.308 196.733C311.085 196.931 311.385 197.094 311.38 197.134C311.266 197.76 310.679 197.436 310.548 197.378C310.058 197.166 310.089 197.776 309.755 197.638C309.426 197.5 309.57 196.883 309.076 197.212C309.09 197.536 309.857 197.907 309.545 198.251C309.005 198.854 308.048 199.458 307.091 199.979C305.984 200.583 304.844 201.099 304.215 201.455C303.022 202.13 302.679 202.395 301.935 202.72C300.599 203.291 301.336 203.488 300.659 204.152C299.982 204.805 299.734 203.422 299.485 203.232C299.239 203.039 299.257 203.364 299.046 203.297C298.837 203.229 299.04 202.903 298.695 203.017C298.352 203.133 297.692 204.021 297.694 204.347C297.707 205.037 298.417 205.453 297.395 205.651C297.337 205.661 297.367 205.266 297.153 205.321C295.455 205.764 293.716 206.296 291.981 206.357C291.743 206.364 291.883 205.945 291.746 205.944C290.331 205.908 290.923 206.478 290.198 207.289C290.284 206.302 289.807 205.77 288.772 205.803C288.145 205.817 288.257 206.236 287.845 206.537C287.72 206.628 287.26 206.33 287.179 206.526C286.888 207.167 287.306 207.922 286.172 207.578C286.123 207.561 286.299 207.213 286.131 207.182C285.035 206.971 284.844 207.638 283.643 207.589C282.695 207.55 281.11 206.891 280.08 206.635C280.27 205.654 279.456 205.635 278.885 206.141C278.835 206.188 278.787 206.24 278.743 206.295C278.088 206.137 277.348 206.028 276.728 205.788C276.511 205.706 276.725 205.428 276.704 205.389C276.379 204.771 275.951 205.425 275.798 205.421C274.177 205.343 273.052 204.501 271.45 204.658C271.393 204.663 271.124 205.378 270.863 204.74C270.847 204.696 271.422 204.487 270.73 204.283C270.052 204.083 268.855 203.349 267.806 203.43C267.544 203.447 266.812 203.886 266.465 203.292C266.42 203.212 266.546 203.021 266.488 202.88C266.298 202.428 265.93 203.121 265.767 202.4C265.606 201.68 265.013 201.009 263.947 201.173C263.913 201.176 263.521 201.696 263.22 201.601C262.735 201.445 262.103 201.131 261.596 200.988C261.354 200.92 261.403 201.327 261.359 201.321C259.688 201.055 258.633 200.391 256.952 199.733C256.648 199.613 255.58 199.827 255.094 199.253C254.555 198.623 255.783 197.063 254.115 197.013C253.45 196.993 251.958 198.991 251.21 197.484C248.958 197.098 247.142 195.871 244.852 195.593C244.749 195.58 244.238 196.105 244.014 196.024C243.68 195.902 243.588 195.551 243.351 195.454C242.36 195.039 241.356 194.992 240.385 194.635C240.017 194.501 240.246 194.242 239.809 194.082C239.372 193.923 238.948 194.224 238.408 193.837C238.002 193.544 237.815 192.587 237.243 192.296C236.961 193.089 236.549 192.937 235.75 192.91C235.595 192.905 235.656 193.233 235.578 193.245C235.26 193.3 235.084 192.987 234.775 193.059C234.7 193.076 234.608 193.348 234.541 193.378C233.972 193.637 233.456 192.788 233.367 192.641C233.028 192.081 232.69 192.363 232.379 192.084C232.069 191.806 232.677 191.783 232.285 191.548C231.477 191.061 230.331 190.734 229.448 190.43C229.094 190.31 229.217 190.754 229.164 190.746C228.399 190.597 227.783 189.965 227.138 190.557C227.246 188.513 226.636 190.593 225.708 189.872C225.636 189.815 225.823 188.893 226.183 188.867C226.543 188.841 226.934 189.277 227.441 189.219C227.561 189.206 228.431 188.57 228.528 188.547C229.297 188.363 228.952 189.719 228.962 189.803C229.087 190.715 230.11 190.058 230.322 190.059C231.297 190.065 231.981 190.496 232.783 190.534C233.308 190.561 233.639 189.707 234.008 189.857C235.23 190.354 235.281 191.712 236.802 191.045C237.128 190.903 237.186 189.871 237.853 190.914C237.895 190.98 238.348 191.883 238.877 191.577C238.944 191.538 239.032 191.26 239.104 191.258C239.587 191.248 239.805 191.563 240.311 191.61C240.815 191.656 241.433 191.681 241.942 191.949C242.249 192.11 242.499 192.761 242.613 192.937C242.931 193.441 243.599 192.997 243.729 193.525C243.861 194.056 243.109 194.558 243.736 195.075C243.994 194.363 244.291 193.643 244.566 192.932C246.133 193.461 247.613 194.188 249.201 194.653C249.4 194.711 249.32 194.259 249.536 194.311C250.445 194.529 251.129 195.047 252.086 195.224C252.82 195.357 253.737 195.19 254.509 195.314C254.703 196.28 255.907 196.341 256.681 196.659C256.957 196.771 256.871 196.986 257.05 197.119C257.726 197.615 257.592 196.775 257.834 196.723C258.861 196.495 258.453 198.181 259.51 198.451C259.565 198.465 260.508 197.782 260.619 197.755C261.321 197.571 260.627 198.092 260.98 198.267C261.62 198.585 262.037 198.936 262.909 198.907C263.162 198.897 263.878 198.504 264.21 199.062C264.254 199.135 264.137 199.419 264.18 199.45C264.965 199.983 265.244 199.065 265.831 198.892C266.418 198.72 266.99 199.565 267.103 199.794C267.383 200.383 266.73 199.91 266.698 199.951C266.285 200.435 266.871 200.494 267.289 200.659C267.103 201.583 267.716 201.692 267.719 200.825C267.719 200.73 267.364 200.724 267.289 200.659C267.91 199.873 268.585 199.935 269.094 200.963C269.33 201.443 268.882 201.813 269.965 201.92C270.457 201.968 270.439 201.295 270.895 201.231C271.934 201.084 273.02 201.98 274.015 202.121C274.372 202.171 274.115 201.745 274.361 201.768C275.039 201.831 275.517 202.215 276.207 202.231C276.268 202.232 276.207 201.838 276.408 201.878C277.507 202.093 278.505 202.425 279.55 202.697C279.948 202.799 280.343 202.891 280.759 202.966C281.53 203.109 282.895 203.116 283.666 203.251C284.988 203.494 286.599 204.155 287.728 204.024C288.451 203.941 288.292 203.566 288.586 203.307C289.138 202.809 290.198 203.593 290.361 203.707C290.368 203.712 289.771 203.86 290.114 204.017C290.346 204.392 290.356 203.709 290.361 203.707C290.465 203.793 291.676 203.696 291.895 203.569C292.015 203.505 291.873 203.175 291.936 203.148C293.411 202.521 294.818 201.92 296.409 201.352C296.439 201.345 296.566 201.72 296.635 201.7C297.604 201.432 297.966 200.691 298.546 200.044C299.134 199.389 299.748 199.135 300.54 199.447C301.043 199.047 302.003 198.804 302.563 198.666C303.117 198.532 302.777 197.84 302.809 197.802C303.44 197.042 304.053 196.72 304.774 196.38C305.182 196.19 305.645 195.981 306.139 195.692C306.785 195.314 307.962 194.414 308.584 193.903C309.084 193.493 309.492 193.438 309.921 193.014C309.979 192.957 309.723 192.719 309.736 192.694C310.05 191.995 310.253 192.861 310.447 192.91C311.152 193.089 311.571 193.156 312.118 192.478C312.246 192.321 312.038 191.012 312.285 190.759C312.609 190.429 312.711 190.881 313.045 190.524C313.074 190.494 312.918 190.279 313.165 190.123C314.314 189.391 315.616 188.663 316.743 187.814C316.897 187.699 316.451 187.503 316.669 187.331C317.693 186.526 318.841 185.69 319.959 185.077C320.236 184.927 320.261 185.279 320.368 185.307C321.021 185.472 321.01 184.504 321.077 184.433C322.649 182.719 324.443 182.135 325.92 180.338C326.007 180.234 326.126 178.996 326.919 179.208C326.972 179.222 327.775 179.451 327.691 178.835C327.684 178.797 327.239 178.717 327.584 178.424C327.926 178.133 328.24 177.445 328.938 177.279C329.162 177.222 330.011 177.356 329.934 176.548C329.94 176.481 329.434 175.037 330.315 175.347C330.459 175.397 331.2 176.006 331.178 175.192C331.168 175.039 330.874 175.096 330.938 174.766C331.025 174.275 331.566 173.871 331.397 173.251C331.372 173.134 330.919 172.585 331.446 172.56C331.531 172.552 331.804 172.729 331.881 172.62C331.933 172.545 331.974 172.471 332.006 172.399C332.205 171.933 332.104 171.559 332.24 171.179C332.292 171.011 332.814 171.009 332.903 170.774C332.998 170.544 332.947 170.025 332.612 169.9C332.286 169.788 331.693 170.399 331.477 170.157C330.542 169.117 329.005 167.318 326.902 166.029C326.589 165.838 326.709 166.241 326.237 165.982C324.507 165.015 321.071 163.753 319.564 162.409C318.364 161.328 320.287 161.772 319.294 161.107C318.818 160.789 317.863 161.4 317.72 161.367C317.488 161.318 317.278 161.255 317.082 161.183C316.091 160.814 315.459 160.209 314.485 159.848C314.244 159.759 314.298 160.215 314.095 160.135C313.397 159.863 312.778 159.353 312.131 159.051C311.842 158.916 311.759 159.205 311.509 159.047C310.908 158.672 310.42 158.268 309.957 157.7C309.915 157.648 310.456 157.528 310.012 157.269C309.287 156.846 308.529 156.107 307.559 155.872C307.274 155.805 306.925 156.38 306.632 155.672C306.57 155.524 307.119 154.912 306.156 155.155C305.995 155.195 304.491 155.398 304.305 154.58C304.254 154.364 304.26 153.598 303.919 153.514C303.871 153.505 303.843 153.909 303.585 153.794C302.684 153.39 301.824 152.822 300.914 152.404C300.67 152.293 300.815 152.817 300.459 152.641C299.478 152.158 298.375 151.386 297.537 150.761C297.23 150.532 297.613 150.397 297.606 150.354C297.491 149.654 296.892 150.162 296.744 150.127C295.819 149.895 295.384 149.257 294.61 148.949C294.396 148.863 294.374 149.251 294.319 149.257C293.763 149.311 294.366 148.913 294.135 148.714C293.489 148.154 292.651 147.775 291.891 147.482C291.611 147.376 291.75 147.885 291.503 147.787C291.217 147.676 290.927 147.562 290.643 147.451C290.426 147.367 290.277 147.32 290.23 147.304C290.18 147.287 290.241 147.289 290.291 147.269C290.42 147.223 290.25 147.162 289.848 147.249C289.66 147.288 289.632 146.955 289.565 146.907C289.07 146.582 288.905 147.465 288.843 147.58C288.504 148.131 288.142 148.037 287.707 148.39C286.208 149.614 284.23 151.068 282.385 152.375C281.592 152.937 280.805 153.493 280.097 154C277.066 156.178 274.597 157.767 271.83 160.06C271.654 160.205 272.094 160.39 271.946 160.52C270.015 162.181 267.948 163.609 266.006 165.283C265.847 165.419 266.33 165.545 266.081 165.775C265.573 166.249 264.867 166.773 264.236 167.102C263.929 167.263 264.083 166.713 263.777 166.881C263.066 167.272 262.368 167.774 261.754 168.325C261.494 168.56 262.161 168.56 261.801 168.842C259.358 170.762 256.939 172.667 254.032 174.081C253.831 174.18 253.208 173.61 252.914 174.009C253.016 174.216 253.172 174.436 253.299 174.646C252.489 175.247 251.638 175.837 250.785 176.393C247.709 178.396 244.409 180.032 241.019 181.528C240.836 181.609 241.332 181.864 240.976 182.023C238.914 182.939 236.887 183.858 234.547 184.165C234.316 184.195 234.195 183.429 233.589 183.742C233.485 183.799 232.547 184.188 232.342 184.418C232.314 184.452 232.591 184.747 232.28 184.846C230.455 185.422 228.471 185.797 226.561 185.915C226.249 185.934 226.507 185.5 226.286 185.51C224.737 185.577 223.105 186.083 221.607 185.865C220.602 185.715 220.923 185.024 220.363 184.413C220.285 184.327 219.695 184.347 219.644 183.97C219.519 183.024 219.739 181.969 219.571 180.963C219.533 180.748 218.819 181.016 219.223 180.469C219.249 180.434 219.775 180.23 219.888 180.043C219.969 179.914 219.785 179.54 219.955 179.37C220.125 179.201 220.349 179.509 220.632 179.3C220.917 179.087 220.751 178.664 221.333 178.557ZM305.08 198.024C305.71 198.056 305.046 196.883 304.754 197.454C304.741 197.482 305.049 198.023 305.08 198.024ZM247.295 195.151C247.756 195.92 248.453 195.224 248.142 194.645C247.831 194.067 247.154 194.918 247.295 195.151ZM240.546 193.446C241.149 194.132 241.853 192.354 240.934 192.463C240.881 192.469 240.511 193.406 240.546 193.446ZM222.689 184.019C222.679 184.002 222.256 184.031 222.249 184.049C222.067 184.498 222.919 184.441 222.689 184.019ZM233.843 191.763C233.994 192.084 234.757 192.02 234.567 191.62C234.414 191.299 233.654 191.364 233.843 191.763ZM327.505 183.597C327.524 183.607 327.758 183.423 327.677 183.342C327.419 183.084 327.181 183.435 327.505 183.597ZM222.697 188.125C224.319 188.735 224.825 190.561 223.088 189.802C222.774 189.665 223.944 189.555 223.576 189.284C222.902 188.789 222.09 189.564 221.484 188.806C221.375 188.668 222.606 188.087 222.701 188.124C222.699 188.124 222.698 188.125 222.697 188.125ZM306.203 199.224C306.216 199.231 306.393 199.131 306.501 199.062C306.546 199.033 306.578 199.01 306.578 199.004C306.56 198.816 306.44 198.766 306.325 198.79C306.141 198.832 305.967 199.055 306.203 199.224ZM336.178 169.161C336.222 169.12 335.825 168.145 335.765 168.14C334.944 168.017 335.668 169.792 336.178 169.161ZM280.068 206.603C279.605 206.915 279.111 206.903 278.825 206.456C278.795 206.408 278.769 206.355 278.745 206.296C278.78 206.306 278.815 206.315 278.85 206.324C279.262 206.426 279.669 206.507 280.068 206.603Z" fill="#FAC60B" fill-opacity="0.75"/>
<path d="M208.343 196.038C208.076 196.181 207.777 196.311 207.453 196.432C210.158 195.645 211.63 193.72 211.71 193.351C211.876 192.87 211.408 193.248 210.929 193.816C210.535 194.292 210.011 193.717 209.687 194.089C209.034 194.862 208.897 196.077 207.87 197.333C207.522 197.747 206.83 196.636 206.489 197.076C205.876 197.861 205.247 198.764 204.422 199.783C202.831 201.927 200.156 203.382 198.325 203.815C196.438 204.299 195.16 204.249 194.181 204.195C192.255 204.04 191.242 203.702 190.525 203.453C190.148 203.31 189.872 203.2 189.963 203.177C190.022 203.163 190.159 203.182 190.683 203.198C191.244 203.121 192.086 203.526 195.01 202.209C197.745 201.083 199.906 196.906 199.781 195.021C199.871 193.018 199.464 192.188 199.239 191.583C198.727 190.452 198.399 190.226 198.156 189.987C197.681 189.595 197.458 189.593 197.223 189.555C197.01 189.518 196.74 189.515 196.743 189.578C196.733 189.636 196.944 189.714 197.273 189.758C197.944 189.851 199.029 189.817 200.17 189.7C202.489 189.463 205.111 188.948 207.755 188.362C209.087 188.066 210.446 187.744 211.813 187.411C214.85 186.672 218.835 186.484 221.822 185.04C222.169 184.87 221.645 183.995 221.688 183.894C222.388 182.346 222.647 184.374 223.441 184.396C226.591 184.475 229.764 183.518 232.368 182.244C233.472 181.701 231.684 180.214 233.204 180.876C233.309 180.92 233.35 182.02 233.703 182.021C234.501 182.022 235.815 181.384 236.4 181.277C237.533 181.074 237.705 181.006 238.732 180.675C240.138 180.234 241.967 180.178 243.396 179.455C243.705 179.296 242.935 178.409 243.396 178.063C243.677 177.85 244.335 177.626 244.904 177.516C245.265 177.445 245.591 177.416 245.794 177.451C246.327 177.547 246.398 178.419 246.539 178.579C247.725 179.926 248.599 177.254 248.798 177.132C252.17 175.041 256.082 175.308 258.83 174.298C259.181 174.162 259.465 174.013 259.559 173.931C259.664 173.842 259.484 173.892 259.279 174.067C258.42 175.004 258.303 175.762 258.229 176.041C258.168 176.348 258.167 176.375 258.132 176.332C258.07 176.227 257.93 175.847 257.785 175.495C257.752 175.413 257.718 175.33 257.685 175.248C257.403 174.39 256.657 173.01 254.678 172.261C254.461 172.179 254.206 173.453 253.961 173.366C251.295 172.434 247.777 171.756 244.089 170.704C243.716 170.598 244.262 169.506 243.887 169.333C241.618 168.278 237.547 166.154 236.354 171.1C234.732 170.985 232.75 170.934 231.19 170.095C230.179 169.557 230.987 168.254 229.862 168.888C229.609 169.03 230.061 170.056 229.676 170.19C228.058 170.75 226.196 170.631 224.636 171.408C224.316 171.569 224.543 172.502 224.473 172.686C223.893 174.175 222.239 172.099 221.925 171.98C220.034 171.281 218.672 171.623 217.195 171.972C217.072 172.014 217.004 172.055 216.962 172.066C216.934 172.07 217.463 173.242 217.536 173.248C217.67 173.241 217.788 173.149 217.634 173.311C217.482 173.466 217.121 173.903 216.409 174.645C216.062 174.96 215.83 175.204 215.912 174.92C215.943 174.755 216.127 174.439 216.218 173.492C216.362 172.583 215.854 170.774 215.079 170.034C214.734 169.663 214.53 169.633 214.389 169.667C214.247 169.706 214.158 169.832 214.078 169.964C213.925 170.234 213.79 170.515 213.588 170.422C213.168 170.26 213.144 170.252 213.152 170.122C213.785 170.007 214.433 169.102 214.967 169.649C215.121 169.801 214.708 170.648 214.708 170.757C214.743 172.479 215.94 170.455 216.083 170.446C217.988 170.297 218.617 172.88 220.556 172.834C220.78 172.822 220.464 171.582 221.07 171.617C225.085 171.843 229.358 171.924 233.904 172.253C234.612 172.305 234.24 173.253 234.298 173.356C235.23 174.959 235.399 172.616 235.605 172.5C237.372 171.626 239.239 173.301 240.592 170.499C242.066 170.651 243.765 170.409 246.552 171.915C251.227 174.98 256.445 174.726 262.814 175.938C262.91 175.954 262.891 177.097 263.085 177.124C265.438 177.432 264.75 175.744 265.855 173.379C266.126 172.785 267.733 175.133 267.874 175.301C268.375 175.922 268.287 177.649 268.437 177.759C269.674 178.618 268.492 173.174 269.931 172.914C269.978 172.916 269.968 173.958 270.107 174.036C270.538 174.284 270.837 173.819 271.271 174.103C272.267 174.764 272.964 177.382 274.026 175.643C274.171 175.42 273.454 172.318 274.888 172.299C275.436 172.278 278.022 172.04 278.794 172.273C279.548 172.482 279.015 173.496 279.072 173.54C280.874 174.869 280.261 175.437 280.792 177.252C280.819 177.344 280.848 177.439 280.88 177.537C281.564 179.596 281.761 174.86 282.144 174.365C282.522 173.872 283.632 175.071 283.918 175.475C284.194 175.88 283.775 176.5 284.03 176.736C285.726 178.266 284.938 174.436 285.552 173.717C286.953 172.002 287.876 175.532 289.158 175.873C289.502 175.964 289.219 175.167 289.519 175.09C290.674 174.79 291.449 175.863 292.738 174.778C292.959 174.601 293.827 172.422 294.644 173.89C294.764 174.102 294.577 175.002 295.091 175.143C295.885 175.356 297.263 175.355 298.006 174.922C298.556 174.603 297.633 173.308 298.429 173.614C298.783 173.748 298.354 174.692 299.015 174.872C299.707 175.052 301.243 174.645 301.828 174.441C302.404 174.247 301.777 173.288 301.805 173.204C301.964 172.724 302.85 171.888 302.943 171.853C306.67 170.612 309.823 169.415 314.696 167.818C314.382 167.88 313.893 168.331 313.812 168.649C313.705 168.966 313.753 169.068 313.743 169.087C313.741 169.113 313.617 168.914 313.404 168.782C313.237 168.672 312.509 169.579 312.474 169.571C312.213 169.641 312.523 169.142 312.977 168.49C313.42 167.836 314.07 167.069 314.027 166.376C314.023 166.327 314.016 166.279 314.006 166.232C312.885 168.293 312.696 167.652 311.806 167.508C311.378 167.447 311.208 168.368 311.134 168.435C310.086 169.469 310.398 167.697 310.397 167.308C310.452 165.904 309.507 167.261 309.497 166.328C309.448 165.391 310.522 164.327 309.59 164.084C309.131 164.828 309.182 167.105 308.473 167.285C305.966 167.933 301.526 165.946 299.346 165.861C297.251 165.739 296.583 165.962 295.333 165.765C293.061 165.445 294.044 166.979 292.808 167.886C291.586 168.81 291.639 164.77 291.315 163.949C290.985 163.131 290.899 164.039 290.576 163.613C290.249 163.188 290.702 162.523 290.078 162.446C289.858 162.419 289.545 162.621 289.237 162.936C288.602 163.53 288.097 164.534 288.113 165.135C288.208 167.085 289.324 168.82 287.942 168.52C287.857 168.505 287.755 167.43 287.442 167.425C284.919 167.434 282.709 168.814 280.53 170.33C280.223 170.542 279.53 169.546 279.335 169.672C277.308 171.087 279.399 171.638 280.665 173.707C278.326 171.969 276.388 171.616 275.536 173.297C275.05 174.29 276.293 174.651 276.849 175.618C277.02 175.901 275.934 176.25 276.443 176.595C278.112 177.709 280.378 177.869 278.993 179.117C278.929 179.173 278.001 178.588 277.854 178.81C276.893 180.267 278.789 181.09 278.432 182.972C278.221 184.05 277.088 185.571 275.957 187.006C275.768 187.029 275.597 187.14 275.53 187.305C272.212 186.879 273.091 188.819 275.43 188.448C275.487 188.785 275.642 189.145 275.812 189.509C275.81 189.549 275.882 189.729 276.028 190.039C276.133 190.248 275.477 190.943 275.437 191.04C275.202 191.859 275.559 191.898 275.905 191.675C276.258 191.456 276.632 191.001 276.737 191.002C278.866 191.04 280.557 193.001 283.073 191.685C283.169 191.636 283.537 189.393 283.966 191.108C283.998 191.226 283.122 192.177 284.204 192.367C285.277 192.557 287.333 193.909 288.937 192.897C289.325 192.656 290.299 190.833 291.041 192.282C291.14 192.479 291.022 193.13 291.167 193.494C291.643 194.655 291.908 192.357 292.475 194.31C292.91 195.799 293.724 197 294.806 196.869C295.171 196.828 295.551 196.651 295.938 196.304C295.999 196.26 296.243 194.418 296.724 194.391C297.508 194.355 298.697 194.523 299.514 194.296C299.902 194.188 299.361 193.16 299.422 193.122C301.669 191.83 303.668 192.02 306.355 190.824C306.867 190.595 307.145 188.51 308.672 188.836C310.379 189.15 313.034 194.231 314.344 191.299C314.899 190.075 310.909 184.229 314.719 185.335C314.739 185.34 314.758 185.345 314.778 185.35C316.076 182.981 318.617 180.931 317.992 177.513C317.98 177.431 317.886 177.219 317.848 177.145C317.258 176.154 316.415 175.407 315.406 174.938C315.239 174.855 313.529 175.957 313.285 175.714C312.898 175.328 313.234 174.422 312.949 174.123C311.752 172.85 310.006 172.641 308.68 171.676C308.17 171.311 308.859 170.617 308.231 170.178C307.612 169.75 306.555 170.582 305.97 169.558C305.536 168.785 306.081 166.163 305.3 165.407C304.073 167.614 303.48 167.233 302.065 167.25C301.795 167.256 301.617 168.153 301.468 168.196C300.859 168.391 300.806 167.546 300.2 167.791C300.053 167.849 299.659 168.615 299.517 168.706C298.293 169.508 298.085 167.241 298.047 166.847C297.898 165.345 297.068 166.187 296.738 165.466C296.404 164.744 297.509 164.577 296.992 163.988C295.926 162.77 294.13 162.077 292.775 161.405C292.23 161.141 292.122 162.359 292.032 162.345C290.918 162.116 290.291 160.79 289.046 161.781C289.032 161.775 288.992 161.752 288.978 161.745C288.811 161.846 288.632 161.978 288.435 162.149C290.855 156.66 287.464 162.28 286.607 160.129C286.538 159.949 288.235 157.721 288.831 157.671C289.417 157.613 289.5 158.744 290.416 158.557C290.494 158.54 290.836 158.288 291.242 157.967L290.871 157.773C291.537 157.173 292.385 156.374 292.506 156.319C294.019 155.645 292.414 159.516 292.368 159.748C291.917 162.272 294.234 160.23 294.617 160.194C296.357 160.019 297.27 161.105 298.683 161.078C299.61 161.068 300.88 158.637 301.441 159.005C303.302 160.232 302.224 163.973 305.593 161.987C306.319 161.57 307.318 158.702 307.656 161.554C307.678 161.734 307.698 164.196 308.974 163.348C309.135 163.241 309.558 162.477 309.697 162.47C310.617 162.443 310.727 163.307 311.653 163.464C312.57 163.616 313.757 163.755 314.475 164.567C314.913 165.056 314.692 166.865 314.703 167.357C314.743 168.771 316.585 167.783 316.193 169.231C315.76 170.66 313.709 171.752 314.16 173.249C315.611 171.503 317.162 169.762 318.674 168.048C320.23 169.421 321.739 170.994 323.313 173.914C323.546 174.371 324.124 175.678 324.2 176.185C324.655 178.817 324.144 181.609 323.359 183.645C323.118 184.275 324.518 184.095 324.26 184.81C323.137 187.654 321.206 188.691 320.001 190.321C319.949 190.392 319.899 190.466 319.851 190.543C319.13 191.699 318.963 193.698 318.044 194.988C315.609 193.71 314.531 195.822 312.991 196.661C312.462 196.951 312.086 196.365 311.615 196.423C309.847 196.631 311.736 198.109 311.559 198.664C310.672 201.056 307.858 196.704 306.038 197.763C305.972 197.811 305.751 200.95 305.576 201.198C304.695 202.759 305.006 200.393 304.145 200.503C302.558 200.678 301.426 200.336 299.831 201.496C299.395 201.835 298.303 203.769 297.095 202.536C296.941 202.375 296.933 201.457 296.822 201.413C295.755 201.022 295.32 201.635 294.908 202.463C294.641 203.171 294.426 204.031 294.021 204.486C293.134 205.473 291.741 203.487 291.469 202.911C290.748 201.427 292.032 202.282 292.07 202.136C292.529 200.407 291.544 200.706 290.793 200.551C290.716 197.731 289.683 197.882 290.012 200.399C290.049 200.674 290.646 200.421 290.793 200.551C290.103 203.31 288.86 203.643 287.654 201.006C287.09 199.766 287.737 198.393 285.888 198.805C285.037 198.982 285.235 200.943 284.427 201.412C282.563 202.478 280.422 200.409 278.447 200.291C277.708 200.242 278.192 201.431 277.668 201.428C276.231 201.4 275.203 200.312 273.456 200.046C273.285 200.017 273.251 201.21 272.693 200.99C270.729 200.113 268.015 198.899 265.82 194.657C264.991 192.58 264.135 190.154 264.376 186.389C264.467 185.255 264.701 183.696 265.349 182.109C265.441 181.516 265.576 180.395 265.911 179.653C266.767 177.743 269.253 175.209 269.817 172.898C270.201 171.365 269.064 171.216 268.684 170.236C267.959 168.272 271.669 167.195 272.194 167.193C272.199 167.196 271.623 168.611 272.531 168.235C273.776 168.491 272.186 167.216 272.194 167.193C272.502 167.125 274.582 164.79 274.915 164.199C275.069 163.862 274.165 163.285 274.267 163.118C276.687 159.083 281.461 156.141 285.919 155.609C286.001 155.611 286.172 156.783 286.356 156.774C287.001 156.756 287.553 156.647 288.072 156.468C289.236 156.017 290.071 154.918 291.199 154.125C292.719 153.058 294.116 153.215 295.237 155.156C296.447 154.799 298.278 155.609 299.296 156.139C300.311 156.666 300.456 154.378 300.551 154.332C303.492 152.914 305.222 154.312 308.377 155.011C309.884 155.333 313.124 155.767 315.122 156.325C316.693 156.74 317.373 157.661 318.963 158.218C319.18 158.298 319.523 157.308 319.603 157.311C319.624 157.311 319.645 157.311 319.665 157.312C322.847 158.102 320.132 159.262 320.34 159.957C320.668 161.298 320.815 162.347 321.225 163.468C321.556 164.733 322.551 165.375 323.091 169.214C323.105 169.852 323.61 171.053 323.173 173.283C322.843 175.503 320.477 178.561 317.963 179.719C318.183 180.213 318.38 180.58 318.429 180.633C318.526 180.74 318.402 180.513 318.291 180.289C318.174 180.067 318.058 179.849 317.976 180.06C317.955 180.098 318.322 180.802 318.076 180.885C316.786 181.358 313.751 182.587 311.098 183.803C310.722 183.973 311.709 184.923 311.167 185.189C308.615 186.442 305.508 187.365 302.767 187.369C302.093 187.366 302.306 186.413 302.111 186.187C300.935 184.823 300.24 187.292 300.016 187.374C295.412 189.259 291.75 187.341 287.307 188.27C287.056 188.328 285.088 190.741 284.33 188.571C284.275 188.427 283.617 186.219 282.799 187.648C282.745 187.737 283.185 188.889 282.292 188.71C281.622 188.574 280.626 188.903 279.672 188.467C279.59 188.351 279.502 188.163 279.406 187.864C279.316 187.471 278.871 185.284 278.256 187.033C278.178 187.152 277.554 191.098 276.893 188.468C276.781 188.037 276.558 185.186 275.757 186.76C275.608 187.066 276.028 187.65 275.596 188.11C274.944 188.817 273.75 188.241 272.903 189.681C272.754 189.936 272.305 191.981 271.36 190.663C271.212 190.456 271.244 189.484 270.865 189.444C269.062 189.254 267.208 190.235 265.083 189.863C264.333 189.73 264.498 188.159 263.708 187.843C262.916 187.529 261.378 187.283 260.606 188.033C259.821 188.785 260.905 191.181 259.592 191.442C253.789 192.6 247.008 190.171 241.431 187.226C240.592 186.787 240.912 187.93 239.638 187.299C239.152 187.053 238.627 186.783 238.073 186.483C240.95 188.03 241.682 187.623 241.546 187.758C241.423 187.796 240.66 187.881 239.801 187.96C238.041 188.121 235.774 188.159 234.155 187.506C231.226 186.334 234.557 184.823 232.413 184.446C231.393 184.262 230.496 187.187 230.235 187.294C227.737 188.375 225.846 187.147 223.444 187.434C222.937 187.49 223.376 188.668 222.941 188.701C221.433 188.822 219.897 188.155 218.454 188.043C217.797 187.992 217.79 188.883 217.195 188.717C215.767 188.324 214.562 187.689 213.409 186.541C213.308 186.437 214.396 185.585 213.397 185.285C211.778 184.796 210.086 183.392 208.008 183.457C207.873 183.461 207.73 183.549 207.582 183.668C207.002 183.751 206.427 183.95 205.507 183.645C204.649 183.238 203.038 182.789 201.128 178.742C200.694 177.613 201.373 177.465 201.344 176.283C201.368 175.279 200.7 172.185 200.99 168.714C201 168.259 201.26 166.531 201.602 165.27C201.943 163.967 202.303 162.928 202.706 162.465C202.693 162.477 202.937 162.45 203.417 162.559C203.927 162.702 205.968 163.298 206.565 162.252C206.655 162.095 205.381 161.826 206.076 160.999C207.794 158.89 211.497 156.937 214.267 156.426C214.791 156.281 215.33 156.119 215.858 155.914C216.289 155.743 215.423 154.759 216.078 154.539C217.901 153.929 220.3 153.838 222.186 153.929C222.885 153.964 222.542 154.949 222.606 155.042C223.61 156.561 223.783 154.303 224.034 154.14C225.579 153.161 226.965 154.05 228.463 153.621C228.878 153.505 228.474 152.484 228.548 152.381C229.34 151.379 228.868 153.332 229.443 153.487C231.049 153.93 232.771 153.712 234.36 153.487C234.944 153.403 234.214 152.216 234.744 152.155C237.88 151.776 241.263 151.841 244.488 152.664C245.094 152.822 244.662 153.746 244.778 153.968C245.545 155.512 246.966 153.555 247.292 153.388C248.758 152.618 249.208 153.508 250.488 153.518C256.335 153.661 266.437 155.772 272.53 165.61C272.82 166.107 273.089 166.614 273.334 167.129C274.186 168.979 274.807 170.788 275.17 173.205C275.197 175.56 276.723 179.05 271.798 185.354C266.546 190.133 264.352 189.489 262.507 190.268C260.657 190.771 259.06 191.209 257.372 191.807C257.034 191.925 257.749 193.018 257.461 193.136C255.219 194.016 252.972 194.618 250.711 195.319C249.19 195.791 247.648 196.31 246.136 196.967C245.825 197.099 246.662 198.075 246.175 198.326C245.194 198.843 243.847 199.225 242.661 199.22C242.089 199.218 242.456 198.019 241.886 198.037C240.547 198.08 239.221 198.434 238.029 199.033C237.522 199.29 238.712 200.176 238.023 200.421C233.343 202.108 228.731 203.857 223.387 203.904C223.017 203.907 221.978 201.642 221.414 202.317C221.567 202.989 221.813 203.759 222.01 204.466C219.122 205.547 216.148 206.406 213.034 207.151C208.536 208.142 204.551 209.158 197.876 209.454C197.356 209.46 198.31 210.755 197.258 210.766C194.946 210.779 191.414 210.515 187.978 208.832C185.807 207.765 183.852 206.379 182.012 204.162C181.092 202.999 180.166 201.763 179.264 199.31C178.857 198.036 178.287 196.455 178.499 193.431C178.426 190.559 181.492 184.791 185.447 183.25C188.846 181.728 190.403 182.065 191.454 182.064C192.493 182.145 193.094 182.303 193.557 182.436C194.056 182.587 194.015 183.205 194.151 183.794C194.271 184.381 194.559 184.952 195.088 184.906C195.182 184.897 195.594 184.904 195.724 184.779C195.892 184.661 195.618 184.402 195.319 184.143C195.283 184.103 195.373 183.819 195.39 183.537C195.391 183.258 195.399 182.964 194.832 182.957C194.229 182.969 193.274 183.01 191.842 183.534C190.436 184.025 188.554 185.288 187.422 186.829C187.14 187.384 188.38 185.295 190.32 182.495C190.735 181.926 191.412 183.111 191.716 182.716C193.181 181.022 194.914 176.763 200.687 174.928C201.534 174.723 202.401 174.62 203.293 174.714C205.286 174.947 205.069 177.045 206.365 178.764C206.538 179.005 207.632 178.863 207.849 179.985C208.347 182.796 208.42 185.943 209.024 188.929C209.081 189.251 209.286 189.209 209.339 189.309C209.351 189.333 209.352 189.367 209.326 189.416C209.308 189.442 209.3 189.47 209.248 189.505C209.215 189.539 209.122 189.582 208.935 189.627C208.849 189.649 208.789 189.671 208.845 189.694C208.896 189.718 209.011 189.741 209.09 189.765C209.178 189.788 209.217 189.814 209.247 189.842C209.278 189.87 209.312 189.9 209.328 189.932C209.409 190.06 209.439 190.219 209.454 190.417C209.525 190.512 209.138 191.098 209.091 191.655C209.07 192.037 209.429 193.144 209.352 193.642C209.28 194.139 208.881 193.233 208.674 193.854C208.475 194.485 208.943 195.716 208.343 196.038ZM303.77 158.667C304.596 159.832 305.091 155.822 303.966 156.706C303.911 156.754 303.726 158.61 303.77 158.667ZM321.094 177.874C320.308 178.931 320.437 179.584 320.985 180.077C321.524 180.54 322.514 180.787 323.297 180.025C324.072 179.24 323.628 178.336 322.933 177.946C322.237 177.537 321.328 177.55 321.094 177.874ZM310.238 168.473C310.604 170.349 313.866 165.638 311.987 165.834C311.88 165.845 310.215 168.364 310.238 168.473ZM202.542 180.32C202.569 180.367 203.273 180.208 203.276 180.154C203.293 178.809 201.843 179.138 202.542 180.32ZM299.61 164.332C299.626 165.203 301.039 164.912 301.033 163.831C301.024 162.959 299.592 163.248 299.61 164.332ZM289.201 177.844C289.189 177.784 288.695 177.73 288.707 178.07C288.734 179.166 289.432 178.855 289.201 177.844ZM285.371 154.766C285.55 155.88 285.024 157.288 284.412 158.377C283.822 159.414 282.609 159.877 281.811 157.795C281.69 157.422 282.208 157.656 282.746 157.773C283.288 157.896 283.829 157.895 283.811 157.445C283.854 155.981 280.762 155.687 282.043 154.007C282.279 153.726 285.357 154.714 285.379 154.768C285.376 154.767 285.374 154.767 285.371 154.766ZM303.92 163.54C303.934 163.594 304.587 163.702 304.608 163.652C305.1 162.409 303.736 162.185 303.92 163.54ZM261.258 177.23C261.209 177.126 259.74 177.139 259.701 177.24C259.03 179.397 262.156 179.369 261.258 177.23ZM275.442 187.309C276.724 187.649 276.871 187.581 275.431 188.445C275.376 187.979 275.343 187.582 275.442 187.309Z" fill="#FAC60B" fill-opacity="0.75"/>
</svg>
