<svg width="387" height="439" viewBox="0 0 387 439" fill="none" xmlns="http://www.w3.org/2000/svg">
<path d="M183.236 226.663C182.839 222.895 182.619 218.824 182.538 214.603C182.275 207.481 185.534 200.41 189.179 195.848C191.854 192.366 195.109 190.259 197.961 188.833C201.749 187.095 200.027 188.384 202.593 187.443C207.577 185.806 212.004 184.801 216.691 184.403C218.239 184.287 216.406 185.176 218.016 185.048C221.86 184.759 225.552 184.61 229.217 184.552C234.516 184.456 240.111 185.431 245.227 187.978C249.848 190.244 253.831 193.642 256.919 197.209C264.055 206.724 264.986 215.334 267.333 224.101C269.878 234.735 269.492 246.062 267.849 256.186C264.939 267.987 258.316 273.384 253.162 280.678C247.426 288.098 240.13 293.258 233.192 298.289C232.515 298.771 231.828 299.256 231.134 299.74C219.647 307.736 205.074 316.236 192.398 323.252C190.911 324.07 192.08 324.121 191.816 324.314C191.614 324.46 191.425 324.595 191.247 324.718C187.71 327.128 188.454 325.532 185.555 326.775C176.231 330.728 165.814 334.519 155.633 336.728C152.527 337.412 149.443 337.889 146.426 338.157C140.846 338.515 146.499 339.537 140.803 338.92C140.413 338.868 141.84 338.27 140.313 338.171C136.834 338.023 130.293 337.176 127.708 336.423C122.733 335.046 121.926 334.747 117.429 332.98C117.325 332.938 117.222 332.895 117.119 332.851C110.124 329.953 105.192 323.288 101.22 317.817C100.35 316.607 100.932 318.601 99.5066 316.694C98.6294 315.518 97.0365 313.066 95.747 310.949C94.8554 309.497 94.1785 308.142 93.8368 307.354C92.9696 305.299 93.8607 305.927 93.79 305.527C93.2103 302.298 89.6097 295.884 89.3404 294.967C87.2519 288.883 85.8816 283.083 84.5855 277.452C82.3675 267.811 82.0752 258.444 81.7115 248.783C81.7078 248.679 81.7042 248.575 81.7006 248.47C81.2947 236.517 81.3256 223.76 82.2481 212.397C82.603 208.041 83.0723 203.902 83.657 199.861C84.8985 191.345 86.6265 183.321 88.8557 174.645C89.207 173.297 88.0556 174.687 88.4903 173.031C89.9145 167.647 91.5593 162.334 93.373 157.115C96.8579 146.87 101.52 136.604 107.684 127.55C108.603 126.173 109.55 124.811 110.524 123.467C111.601 121.992 110.814 124.299 111.921 122.86C118.54 113.789 131.633 102.388 135.027 96.1175C135.059 96.0919 135.091 96.0662 135.122 96.0406C140.971 91.2516 148.633 86.1693 154.764 83.3768C158.739 81.5857 155.388 84.2271 159.925 81.4591C160.959 80.8488 159.279 80.999 160.863 80.1294C167.545 76.4725 175.363 73.5684 182.465 71.0661C183.914 70.5543 183.349 70.1369 183.739 69.9141C184.068 69.7304 184.429 69.562 184.814 69.408C188.257 68.0077 193.452 67.958 194.622 67.8108C204.609 66.4724 211.804 65.3023 221.113 64.6954C223.273 64.5718 220.673 63.96 222.755 63.8199C232.356 63.2063 242.325 63.4488 251.789 64.6294C252.986 64.7782 254.169 64.9412 255.344 65.1188C257.676 65.4807 255.444 65.8596 256.552 66.0677C261.409 67.0132 262.688 65.981 267.334 67.0948C268.308 67.3344 267.65 67.7746 267.818 67.8685C270.433 69.3414 273.126 68.5573 273.857 68.6924C283.047 70.4103 288.353 73.4804 296.821 76.3454C297.835 76.6968 295.809 75.1862 298.652 76.2254C301.787 77.3848 304.927 78.6579 308.031 80.0389C319.802 85.2005 331.232 92.4721 340.509 101.385C343.587 104.288 346.502 107.326 349.186 110.49C351.188 112.883 349.316 111.562 349.399 111.753C350.721 114.798 353.022 115.551 353.696 116.333C356.134 119.201 358.059 122.33 359.738 125.259C361.655 128.594 363.241 131.684 365.187 134.041C368.259 141.591 370.318 149.288 372.282 156.942C376.629 174.32 380.387 191.764 382.742 209.473C383.712 216.966 384.343 224.504 384.449 232.054C384.456 232.475 383.744 231.759 383.761 232.601C383.827 242.73 384.74 240.739 385.978 247.512C386.108 248.275 385.848 249.722 385.493 251.123C385.054 252.866 384.465 254.53 384.389 254.781C383.882 256.413 382.982 254.642 382.871 255.19C381.938 259.698 385.345 259.198 384.642 265.461C384.613 265.655 384.11 264.764 383.987 265.278C383.601 266.872 383.614 268.508 383.155 270.053C382.068 273.589 380.313 274.52 379.945 280.095C379.885 280.763 381.794 280.273 380.68 284.779C380.614 285.038 380.537 285.313 380.448 285.607C379.882 287.773 376.735 297.141 375.527 299.632C374.391 302.148 374.535 300.163 374.438 300.338C370.872 306.856 371.626 304.129 369.058 306.992C366.456 309.802 369.408 310.08 369.036 311.577C368.674 313.082 365.611 317.593 364.766 318.633C363.935 319.687 364.385 318.055 363.71 319.025C363.412 319.454 363.149 319.841 362.92 320.192C359.696 325.045 363.199 322.859 362.358 325.152C360.171 330.958 355.835 333.858 352.543 338.294C351.645 339.496 352.732 338.76 352.003 339.883C349.083 344.318 346.679 346.488 343.384 351.571C342.914 352.3 341.201 355.95 338.864 358.017C338.548 358.299 338.222 358.551 337.89 358.761C337.493 359.007 337.951 357.718 336.36 359.326C333.992 361.739 329.685 366.023 327.138 368.614C325.259 370.532 328.107 369.076 325.423 371.165C324.223 372.079 325.966 369.856 323.741 371.593C321.551 373.346 315.989 377.839 313.779 379.43C311.597 381.045 313.174 380.694 313.023 380.859C312.103 381.862 307.945 385.077 307.546 385.317C307.106 385.609 306.668 385.897 306.224 386.185C291.204 395.867 275.637 402.319 259.725 408.294C255.312 409.94 250.858 411.538 246.344 413.131C244.671 413.718 246.006 413.992 245.753 414.088C240.066 416.255 244.055 413.046 239.844 413.76C240.847 414.893 238.391 415.428 234.347 416.808C232.395 417.472 233.623 417.663 233.459 417.77C230.759 419.427 228.416 418.998 227.83 418.942C225.672 418.734 223.804 420.223 222.336 420.075C220.872 419.927 223.715 418.351 219.774 419.426C218.795 420.202 222.066 420.669 219.116 421.675C214.385 423.284 207.768 424.961 200.999 426.407C191.824 428.383 182.375 429.911 177.031 430.856C167.759 432.487 164.768 433.051 159.325 433.75C149.487 434.939 153.214 435.337 147.169 436.624C141.083 437.864 143.775 435.119 142.829 434.73C141.905 434.333 141.025 434.968 139.924 434.816C139.894 434.811 139.866 434.807 139.841 434.802C139.388 434.716 139.691 434.527 139.792 434.384C139.828 434.333 139.838 434.287 139.777 434.255C139.67 434.198 139.343 434.181 138.57 434.237C136.054 434.441 129.265 435.99 128.401 436.573C126.589 437.833 129.816 438.823 123.036 438.842C122.647 438.84 123.869 438.147 122.38 438.168C113.373 438.306 104.071 438.104 95.0294 436.919C92.22 436.556 89.4386 436.107 86.7036 435.557C85.1194 435.233 86.6579 434.789 85.7415 434.591C76.2575 432.337 79.4748 434.11 73.8905 434.071C75.515 432.669 72.8475 431.104 65.9542 428.662C61.8302 427.114 62.2751 428.064 59.409 427.418C59.0682 427.337 58.438 427.008 57.7702 426.637C56.7547 426.077 55.6593 425.414 55.2546 425.447C53.0627 425.563 55.0304 428.308 48.5058 423.89C48.2273 423.689 49.4864 423.721 48.5025 423.067C42.2928 418.683 40.7875 419.108 34.5442 413.54C32.5789 411.711 30.2057 409.071 27.9331 406.102C24.6472 401.845 21.6243 396.91 19.4372 393.186C21.1328 392.303 17.3145 386.686 14.8843 384.773C12.9006 380.827 10.8791 376.524 9.41224 372.445C9.30302 372.142 9.19709 371.842 9.09461 371.543C8.58517 370.048 9.48347 370.815 9.46826 370.608C9.27992 367.448 7.42051 365.943 7.05111 364.976C3.17284 354.512 2.79841 345.346 0.923243 334.972C0.907542 334.884 0.817191 334.789 0.698471 334.656C0.318806 334.238 -0.363702 333.413 0.238716 331.21C0.296123 331.025 1.13471 334.449 0.860418 329.507C0.577868 324.55 1.06892 315.232 0.648605 308.361C0.533236 306.703 -0.414134 302.436 0.649813 299.106C0.792965 298.663 1.14875 299.176 1.40331 298.544C2.22054 296.501 0.941911 295.259 2.29963 292.899C3.5322 290.769 4.71696 286.519 5.06392 280.631C5.10103 280.004 5.12906 279.357 5.14693 278.69C5.155 278.473 4.31561 276.702 4.67311 274.558C5.23722 271.14 6.32265 266.339 6.99965 262.79C7.32272 261.09 6.45531 262.051 6.50004 261.753C8.35495 250.24 10.7762 242.291 13.4415 230.114C13.9031 228.02 14.2224 222.088 15.4357 217.865C15.5178 217.581 15.6043 217.305 15.6955 217.038C17.2512 212.374 19.7702 217.845 20.6568 206.618C20.9955 202.077 17.6165 195.893 20.7373 188.128C21.7723 176.251 23.4978 165.137 25.0333 153.658C25.5252 150.006 26.0032 146.329 26.464 142.565C26.5484 141.867 25.791 139.455 26.1226 137.817C26.6157 135.387 27.4286 134.166 27.8362 132.45C29.5689 125.268 30.9353 118.612 33.2807 111.861C34.1803 109.307 34.3965 110.382 35.5139 107.361C36.5181 104.691 36.6914 102.603 38.0936 99.4258C38.2731 99.021 38.4741 98.5967 38.7016 98.1492C40.2131 95.1873 42.8934 92.7722 44.8476 88.8718C43.5553 88.1103 44.7997 85.3746 46.7529 80.3802C47.1284 79.4213 46.1823 80.1888 46.336 79.7232C46.9536 77.8196 48.1483 76.3611 48.7248 74.5469C48.8662 74.1056 48.4189 73.8582 48.5095 73.4843C49.2574 70.2871 52.7061 66.1484 53.3066 65.451C55.5909 62.7551 55.7749 61.0268 57.311 58.8502C58.8518 56.6797 57.2673 60.3163 58.9191 57.7091C62.1874 52.5543 66.061 45.8319 69.4829 40.5269C69.6452 40.2744 69.8053 40.0267 69.9632 39.7838C71.3704 37.626 69.843 38.7279 70.0308 38.4108C72.8129 33.808 76.5495 29.8725 77.285 26.6882C82.3612 25.9167 78.8942 23.8455 84.5308 18.4983C84.9823 18.0886 86.7033 18.6495 85.3626 20.508C84.0267 22.3673 81.4008 24.6948 79.7603 27.4508C79.3507 28.1007 78.0449 32.4709 77.7986 32.9999C75.7552 37.1408 73.3817 36.3056 73.1185 36.4342C71.6954 37.188 70.5966 38.9914 69.8035 40.7319C69.0607 42.3622 68.5746 43.9498 68.2687 44.5518C65.3789 50.2465 62.3826 54.7753 60.1296 59.6261C58.6617 62.801 59.9324 63.8779 58.6038 66.2561C54.236 74.185 50.7707 76.0492 48.8685 84.6261C48.4782 86.4677 50.8249 85.5473 46.8527 90.9267C46.6033 91.2533 43.4582 95.2024 43.1322 98.1119C43.0908 98.4762 43.5728 98.6649 43.4365 99.1076C43.1913 99.8956 42.929 100.607 42.663 101.269C41.9196 103.126 41.0998 104.707 40.3687 107.075C39.3728 110.301 38.3291 114.195 37.0286 117.796C36.2403 119.958 34.5037 122.542 33.9857 123.556C32.4962 126.408 32.7933 129.949 31.5662 131.66C30.3328 133.408 29.926 129.34 28.3057 134.327C29.5826 134.792 30.8449 135.504 32.1093 136.072C30.8561 142.076 29.7545 148.084 28.7917 154.181C27.9925 159.246 27.2868 164.36 26.6954 169.545C26.5358 170.96 27.4259 169.597 27.2734 171.12C26.6295 177.533 25.4767 183.087 24.866 189.786C24.3956 194.972 24.4267 200.747 23.8414 206.2C22.3216 208.559 21.5682 213.823 20.7357 218.77C20.4769 220.316 20.2141 221.825 19.9306 223.201C19.5118 225.228 19.1311 225.017 18.7293 226.435C17.2066 231.776 19.0239 229.488 18.9464 231.018C18.5782 237.586 15.4417 237.515 13.9662 244.993C13.8863 245.391 14.4865 250.553 14.4505 251.234C14.2321 255.584 13.7456 251.818 13.0845 254.43C11.8862 259.199 10.8228 262.469 10.2685 268.194C10.1081 269.867 10.4312 273.966 9.17081 277.026C9.00485 277.429 8.50367 277.116 8.42133 277.449C8.06755 278.933 7.91247 280.078 7.87634 281.011C7.77175 283.886 8.75336 284.759 8.89308 287.436C9.07106 290.974 7.47499 296.277 7.07127 297.367C6.00135 300.207 6.84784 295.12 6.78508 294.961C5.91201 293.036 5.75681 297.023 5.50328 300.065C3.80077 300.405 3.70023 304.707 5.2586 303.219C5.42632 303.05 5.38891 300.669 5.50328 300.065C6.9846 302.835 6.98042 307.452 5.40838 312.603C4.69207 315.024 3.79234 312.725 4.20823 320.115C4.43117 323.463 5.54284 322.135 5.96846 325.059C6.38268 327.833 6.55449 330.962 6.7164 334.157C6.94027 338.659 7.15916 343.294 7.90911 347.221C8.38286 349.653 8.59687 347.171 8.94916 348.821C9.90639 353.176 10.3429 357.101 11.8654 361.31C12.0051 361.688 12.3468 360.558 12.7608 361.872C13.656 364.671 14.6007 367.347 15.6082 369.981C18.1975 376.705 21.0672 383.129 25.1873 389.876C27.1028 393.029 30.4547 397.647 33.6635 401.356C35.0717 403.001 36.4328 404.485 37.5523 405.694C43.5519 412.395 52.2032 419.482 59.6349 422.638C59.8957 422.754 60.1545 422.866 60.4109 422.973C65.3014 424.951 64.509 423.828 66.7535 424.221C71.0387 424.969 78.0462 428.43 79.0622 428.868C79.0874 428.902 74.606 427.922 76.894 428.856C78.1106 429.891 79.0138 428.859 79.0622 428.868C79.6696 429.256 88.6834 431.141 90.5356 431.185C91.5306 431.253 91.0638 430.558 91.579 430.603C92.9375 430.722 94.2979 430.827 95.66 430.917C106.57 431.664 117.492 431.419 128.714 430.737C128.937 430.731 128.66 431.455 129.185 431.432C133.13 431.263 136.287 430.75 139.293 430.126C141.872 429.587 144.335 428.963 147.091 428.351C153.052 427.025 157.834 426.435 161.593 427.033C166.113 426.142 172.714 425.494 176.518 425.09C180.322 424.688 180.579 423.241 180.901 423.152C188.046 421.104 193.151 420.214 199.298 419.029C201.813 418.541 204.499 418 207.558 417.285C212.576 416.137 222.385 413.334 227.668 411.622C231.85 410.281 234.471 409.816 238.262 408.404C238.773 408.213 238.065 407.803 238.216 407.73C242.277 405.666 240.675 407.731 241.642 407.697C245.143 407.554 247.313 407.388 252.603 405.009C253.503 404.604 255.314 402.69 257.069 401.31C257.703 400.814 258.324 400.39 258.908 400.128C261.767 398.839 260.951 399.987 263.927 398.586C264.182 398.464 263.949 398.056 265.826 397.3C274.52 393.787 283.886 389.661 292.278 384.852C293.424 384.196 291.587 384.383 293.226 383.423C295.873 381.865 298.574 380.205 301.243 378.485C306.333 375.212 311.289 371.707 315.746 368.292C317.418 367.007 316.743 368.255 317.194 368.078C319.981 366.972 322.017 363.221 322.461 362.751C325.992 359.113 329.19 355.686 332.257 352.257C338.683 345.029 344.621 337.91 350.287 328.411C350.767 327.644 353.097 321.117 355.657 319.104C355.759 319.023 356.683 318.325 357.534 317.204C358.151 316.391 358.725 315.362 358.925 314.202C358.951 314.031 357.498 315.37 359.078 312.521C360.658 309.663 362.556 304.787 364.981 300.982C365.746 299.787 368.267 297.163 368.763 292.839C368.829 292.536 368.734 285.734 370.861 284C371.116 283.795 371.975 284.184 372.634 282.53C372.89 281.879 373.112 280.92 373.224 279.494C373.293 278.527 372.517 280.11 372.883 277.625C373.431 273.831 374.821 268.933 374.634 264.169C374.61 263.33 373.851 259.782 374.905 257.044C375.071 256.611 375.578 257.493 375.739 256.004C375.921 254.296 376.038 252.557 376.114 250.794C376.356 245.241 376.172 239.61 376.188 234.066C376.185 231.479 377.174 232.748 377.24 230.027C377.312 227.303 377.03 221.812 376.27 219.024C375.514 216.24 374.461 219.504 373.806 215.298C373.572 213.83 373.335 212.366 373.094 210.892C370.289 194.096 367.503 177.104 363.456 160.444C363.312 159.858 363.203 159.517 363.109 159.296C362.763 158.482 362.642 159.254 361.823 156.187C359.731 148.489 356.652 138.283 351.672 130.049C347.335 122.637 341.809 116.247 338 111.786C331.291 104.2 341.04 112.441 335.59 106.874C335.58 106.864 335.571 106.855 335.561 106.845C332.868 104.169 328.68 102.972 327.955 102.487C320.766 97.6436 315.939 93.9622 308.728 90.6213C307.232 89.9455 308.376 91.2604 307.115 90.6894C306.05 90.2125 304.99 89.7257 303.907 89.2281C300.584 87.7008 297.206 86.151 293.949 84.9847C292.012 84.299 292.193 84.9209 290.43 84.2569C286.202 82.691 282.454 81.3124 278.316 79.6933C277.935 79.546 280.739 79.621 277.493 78.7325C272.241 77.31 265.692 75.4236 259.416 74.9981C257.549 74.8813 257.333 76.0263 253.486 74.7378C252.796 74.5156 253.576 73.5248 250.899 73.7006C250.427 73.7335 249.847 73.8048 249.133 73.9288C248.318 74.0293 240.481 75.1677 236.694 74.07C235.696 73.7651 233.111 72.5632 230.863 72.7795C230.56 72.8135 231.783 73.4362 229.931 73.527C223.41 73.8487 216.575 74.2558 209.975 75.3114C208.217 75.5989 210.928 75.9049 208.315 76.3205C201.976 77.3356 194.307 78.7611 187.962 80.419C187.116 80.6374 186.303 80.8539 185.506 81.0733C183.01 81.7706 184.553 80.7127 184.356 80.711C181.143 80.7074 179.859 82.5793 178.949 82.9904C173.24 85.5875 168.646 86.9782 163.595 89.792C162.205 90.5764 163.499 90.6001 163.245 90.7979C160.635 92.8335 162.234 90.679 160.356 91.5805C155.101 94.1265 149.674 97.7898 145.076 101.483C143.391 102.844 145.748 101.91 144.244 103.127C143.609 103.647 142.974 104.175 142.347 104.707C134.177 111.607 126.693 119.654 120.413 127.964C119.14 129.653 119.442 128.245 119.085 128.534C117.79 129.583 116.774 131.319 116.068 132.863C115.419 134.275 115.026 135.52 114.823 135.968C112.916 140.235 111.662 141.559 109.963 145.271C107.833 150.005 105.879 155.226 103.999 160.779C99.4153 174.12 95.7868 188.459 94.0168 201.223C93.699 203.456 93.4266 205.647 93.1914 207.775C91.6257 222.428 91.1699 235.48 91.4303 248.439C91.6727 257.399 92.129 266.239 94.3068 275.138C94.4183 275.597 94.5289 276.052 94.6409 276.51C95.0149 278.039 95.3693 276.323 95.7006 277.636C98.2652 287.695 100.573 297.733 105.119 305.004C108.824 310.861 112.503 316.586 116.681 320.188C117.518 320.886 116.803 319.369 118.13 320.395C119.2 321.186 120.34 321.873 121.469 322.344C124.166 323.475 126.95 324.476 129.384 325.238C131.352 325.837 128.521 325.77 130.527 326.35C135.212 327.677 140.46 328.165 145.45 327.701C147.571 327.487 144.326 327.03 147.057 326.785C149.144 326.57 151.22 326.232 153.293 325.781C164.363 323.38 175.041 319.021 185.591 313.806C191.321 310.966 197.077 307.868 202.869 304.685C204.139 303.984 205.997 304.571 208.473 302.683C208.453 302.214 208.187 301.816 208.041 301.394C214.293 297.378 220.498 293.233 226.444 288.96C233.16 284.069 239.631 279.32 243.977 273.64C249.087 267.012 255.602 259.027 256.362 254.659C257.263 248.6 257.773 243.118 257.443 237.49C257.368 236.31 256.737 238.388 256.572 236.125C256.321 233.048 255.825 230.023 255.101 227.064C253.132 219.107 250.587 209.781 247.524 205.685C246.188 204.082 244.868 202.702 243.404 201.467C242.492 200.771 243.842 199.815 240.603 198.314C240.082 197.927 234.989 196.422 233.552 196.7C233.367 196.725 234.211 197.461 232.56 197.287C231.553 197.196 230.521 197.164 229.467 197.19C219.058 197.437 206.961 198.636 201.474 203.194C200.594 203.983 200.994 202.599 200.357 203.2C200.173 203.382 200 203.573 199.841 203.766C197.216 207.03 195.804 210.637 195.92 214.298C196.033 219.121 196.248 223.877 196.431 228.225C196.786 234.35 195.343 232.257 194.81 235.699C194.705 236.227 195.672 239.789 195.178 240.166C193.798 241.322 191.351 239.995 189.937 241.399C189.799 241.57 190.288 243.073 191.044 244.455C191.397 245.138 192.016 245.92 192.108 246.13C192.212 246.363 191.275 245.733 190.412 244.684C189.855 244.186 187.985 239.776 187.52 238.833C187.13 238.153 186.782 239.655 186.15 238.189C185.536 236.734 185.783 234.978 185.116 232.641C184.475 230.291 183.779 231.421 183.236 226.663ZM193.632 423.051C197.228 422.925 197.21 420.477 193.61 421.861C193.436 421.93 193.447 423.059 193.632 423.051ZM26.2701 157.858C24.6226 162.312 25.7867 165.655 26.9954 162.513C28.2073 159.38 26.7721 156.508 26.2701 157.858ZM35.7411 111.152C33.2302 116.001 36.2174 117.82 37.3641 112.199C37.4342 111.874 35.8896 110.87 35.7411 111.152ZM192.734 220.301C192.699 220.356 192.836 223.185 192.878 223.25C193.726 224.698 193.448 219.064 192.734 220.301ZM54.2739 67.364C53.0748 68.6477 51.3338 73.2284 52.7973 71.6164C53.9668 70.3184 55.755 65.7672 54.2739 67.364ZM351.497 337.754C351.56 337.73 352.746 336.049 352.554 335.969C351.941 335.724 350.478 338.178 351.497 337.754ZM103.207 4.37625C98.8832 6.66793 95.4149 9.02866 93.3408 10.0469C91.3843 11.0415 90.7264 10.8486 92.443 9.00851C93.2402 8.17286 94.5242 7.00021 96.5356 5.56943C98.4789 4.14493 92.984 9.47667 95.5503 7.77754C100.1 4.73352 102.652 1.27637 108.335 0.0111834C109.311 -0.24517 103.691 3.98441 103.19 4.38967C103.196 4.3852 103.201 4.38072 103.207 4.37625ZM196.246 425.416C196.322 425.433 199.11 424.836 199.17 424.788C200.505 423.708 194.896 424.912 196.246 425.416ZM383.22 224.444C383.295 224.282 382.654 217.661 382.546 217.456C380.945 214.172 382.243 227.485 383.22 224.444ZM19.4211 393.06C17.115 390.773 15.1811 387.46 14.8901 384.787C16.2802 387.591 17.8159 390.347 19.4211 393.06Z" fill="#F53232"/>
</svg>
