<svg width="195" height="162" viewBox="0 0 195 162" fill="none" xmlns="http://www.w3.org/2000/svg">
<path d="M125.522 110.784C121.446 114.155 115.871 117.88 110.305 120.369C108.756 121.077 107.186 121.534 105.719 121.797C103.087 122.182 104.36 121.624 102.605 121.723C99.215 121.79 96.2648 121.469 93.4285 120.538C92.4994 120.219 93.8143 120.028 92.8538 119.702C92.4056 119.547 91.9623 119.387 91.528 119.223C83.7577 115.475 83.3675 109.857 81.7199 105.628C81.3869 104.502 81.0839 103.402 80.7883 102.326C78.464 92.6355 81.113 84.4021 84.0086 76.7473C86.5376 70.1449 93.3167 67.3774 98.3285 66.406C103.588 65.3368 108.622 65.3217 113.356 65.1194C119.011 64.8696 124.775 65.3755 130.366 66.8208C138.75 68.8397 147.653 74.393 154.37 79.5492C155.165 80.145 154.998 79.403 155.171 79.4895C155.768 79.7948 156.165 80.0446 156.434 80.257C157.655 81.2975 157.022 81.488 158.164 82.9892C161.871 88.3412 161.77 94.4281 162.169 99.3579C162.37 102.717 161.545 105.553 160.695 108.076C159.541 111.168 161.698 108.498 159.869 111.318C159.74 111.508 159.626 110.55 159.201 111.33C158.256 113.109 156.499 116.401 155.663 117.658C154.064 120.09 153.797 120.49 152.261 122.743C152.002 123.117 151.74 123.487 151.462 123.87C149.281 126.941 145.995 129.601 142.93 131.642C142.176 132.143 143.477 131.957 142.285 132.786C141.094 133.648 137.672 135.286 136.464 135.634C135.263 136.01 135.596 135.421 135.357 135.42C133.41 135.401 129.81 137.782 129.281 137.956C124.825 139.588 120.55 140.582 116.367 141.404C111.738 142.303 107.207 142.782 102.488 143.311C95.9425 144.038 88.9658 144.654 82.6304 144.784C82.2927 144.791 81.9595 144.796 81.6305 144.799C73.7494 144.779 66.5927 144.312 59.071 140.569C58.2914 140.155 58.9146 141.196 57.9509 140.667C57.4769 140.4 57.0107 140.119 56.5533 139.823C48.7424 134.823 44.7633 125.946 43.6441 117.674C43.3648 115.713 43.222 113.756 43.1783 111.813C43.1594 110.738 43.7727 112.087 43.7902 111.017C43.7902 104.425 46.0365 94.6496 44.5037 90.4696C44.7498 89.2663 45.031 87.9952 45.3517 86.7102C46.1777 83.3654 47.3508 79.9636 48.6417 77.4102C49.8124 75.1427 49.4745 77.6403 50.381 74.6743C50.5958 74.0082 49.7712 74.6524 50.136 73.6642C51.6845 69.4873 54.1286 65.2776 56.2645 61.4535C56.6997 60.6719 56.1831 60.6278 56.2515 60.3694C56.8483 58.1922 59.8343 55.9463 60.3571 55.3975C62.7025 52.8478 64.5698 50.6707 66.4266 48.4689C67.7677 46.8842 69.1953 45.3546 70.9077 43.8406C71.8872 42.9884 70.3177 43.5326 71.2611 42.6951C76.196 38.3597 82.297 35.1767 88.2744 33.2992C89.6052 32.8859 88.5794 33.8138 89.2213 33.6451C92.0404 32.9349 92.3718 31.8035 95.1375 31.2817C95.7181 31.1771 95.5089 31.6969 95.625 31.7181C97.4258 32.0587 98.5829 30.6861 99.0069 30.5713C101.231 29.9578 103.18 29.7533 105.056 29.6558C107.638 29.5262 110.085 29.6069 113.09 29.3585C113.716 29.309 112.269 28.8014 114.04 28.7022C125.837 28.0408 138.485 30.5869 148.949 35.7357C149.119 35.8186 149.256 35.8916 149.364 35.9558C150.309 36.5174 149.224 36.4088 149.299 36.4949C150.629 38.0004 152.168 37.5577 152.718 37.7955C157.036 39.7016 160.056 42.9441 163.349 43.8897C168.003 47.7628 172.147 52.1984 175.73 56.9728C184.084 68.0694 188.554 81.5422 189.799 94.9141C189.823 95.1619 189.217 94.8069 189.268 95.2976C189.669 99.5436 190.071 100.072 190.873 101.455C191.164 102.017 191.544 102.712 191.769 104.055C191.881 104.674 191.449 105.971 190.807 106.892C190.179 107.829 189.455 108.442 189.353 108.544C188.567 109.28 188.362 107.969 188.144 108.23C186.371 110.187 188.759 111.38 186.512 114.276C186.499 114.293 186.485 114.31 186.471 114.327C186.44 114.362 186.409 114.266 186.365 114.156C186.307 114 186.226 113.816 186.09 113.931C186.089 113.932 186.087 113.934 186.086 113.935C185.362 114.576 184.893 115.422 184.143 116.002C182.402 117.318 180.996 116.943 179.187 119.679C178.945 120.019 180.475 120.747 177.947 122.842C176.966 123.706 172.426 127.233 171.019 128.035C169.654 128.86 170.276 127.834 170.171 127.882C166.25 129.745 167.446 128.602 165.153 128.932C162.86 129.231 164.541 130.863 163.924 131.534C163.31 132.209 160.328 133.301 159.559 133.501C158.8 133.706 159.481 132.977 158.841 133.208C154.564 134.722 157.629 135.138 156.472 136.154C155.442 137.049 154.33 137.56 153.18 137.916C151.314 138.487 149.364 138.631 147.511 139.348C146.694 139.663 147.501 139.726 146.812 140.071C144.06 141.43 142.16 141.66 139.109 143.4C138.621 143.683 136.351 145.662 134.375 145.6C134.095 145.589 134.635 144.939 133.381 145.305C131.509 145.852 128.169 146.938 126.237 147.735C124.803 148.328 126.705 148.423 124.792 148.833C123.94 149.014 125.335 148.126 123.746 148.495C122.172 148.865 118.238 150.116 116.738 150.571C115.238 151.032 116.211 151.291 116.099 151.361C115.425 151.777 112.592 152.852 112.334 152.919C101.153 156.086 90.3978 157.74 79.3334 159.15C77.5691 159.371 75.8073 159.581 74.0259 159.786C73.0016 159.902 73.7348 160.392 73.579 160.416C70.0844 160.943 72.7255 159.248 70.2532 158.94C70.6878 160.035 69.2256 159.95 66.758 160.197C65.568 160.314 66.2376 160.719 66.1308 160.769C64.3819 161.511 63.1159 160.686 62.7924 160.52C61.6008 159.908 60.3429 160.686 59.5382 160.261C58.742 159.837 60.5625 159.199 58.2021 159.213C57.5345 159.615 59.3028 160.672 57.4916 160.838C50.6362 161.573 37.9375 159.643 32.5732 158.59C27.1968 157.627 25.4378 157.291 22.3674 156.442C21.2613 156.128 20.454 155.912 19.8518 155.775C17.3569 155.182 17.9854 155.959 15.1003 155.367C11.4816 154.519 13.8534 153.274 13.5044 152.72C13.1736 152.155 12.5158 152.354 12.0346 151.901C11.5609 151.447 12.877 151.72 11.6127 151.065C10.3066 150.513 6.80002 148.946 6.17917 148.666C5.46447 148.549 5.21851 148.973 4.85617 149.027C4.52635 149.076 3.84445 148.679 3.03178 146.648C2.94735 146.422 3.73286 146.903 3.39323 146.059C3.33156 145.901 3.27275 145.746 3.2147 145.59C0.806474 139.164 0.00344018 132.105 0.370698 125.468C0.423105 124.532 0.981115 125.371 1.01934 124.83C1.10711 123.638 1.15172 122.79 1.14283 122.162C1.20015 119.867 0.361762 120.514 -1.22465e-06 117.869C1.25995 118.827 2.31604 117.327 3.51647 113.261C4.25646 110.822 3.55163 111.066 3.65803 109.337C3.68617 108.827 4.67211 107.236 4.51335 106.822C3.98561 105.496 2.40429 106.742 4.30948 102.713C4.3954 102.536 4.66527 103.297 4.92693 102.675C6.63172 98.6735 5.90327 97.8363 7.51483 93.4188C8.78225 89.9515 11.8186 84.1237 13.5169 80.3115C14.3626 80.7155 15.1185 79.5585 15.5227 78.1366C15.7978 77.1651 15.9191 76.0817 15.7838 75.3022C16.9385 72.8128 18.2055 70.1196 19.6284 67.8707C20.1177 67.0979 20.2238 67.8454 20.3229 67.7687C21.8523 66.6243 21.5539 65.0837 21.8276 64.5525C24.0054 60.4304 26.601 57.3433 28.9426 53.9046C29.8311 52.6041 30.6963 51.2551 31.517 49.7861C31.6236 49.5958 30.9513 48.659 32.5673 47.8364C32.674 47.7867 31.8684 49.6878 33.6154 47.4282C35.3647 45.1639 39.1167 41.2758 41.2027 37.8722C41.7047 37.0487 42.5419 34.5956 44.3191 33.5319C44.5574 33.3909 44.619 33.81 44.9923 33.6319C46.1901 33.0558 45.7628 31.8371 47.3976 31.3521C48.6199 30.9911 50.2853 29.8983 51.9441 27.9596C52.5072 27.3021 53.0691 26.5579 53.6258 25.7132C53.6955 25.6106 53.6903 24.3185 54.5775 23.4202C55.9838 21.9877 58.1532 20.1421 59.7104 18.7484C60.4532 18.0818 59.615 18.0995 59.7378 17.9767C64.6447 13.2876 68.8812 10.8059 75.2124 7.35506C76.3621 6.72254 79.3791 4.2446 81.9543 3.65776C81.9785 3.6521 82.0024 3.64678 82.026 3.64179C84.7633 3.1688 83.2907 6.41627 88.7019 3.83445C90.8165 2.89987 93.5643 -1.19103 98.4277 0.339047C98.6229 0.31931 98.8219 0.300659 99.0169 0.283279C107.748 0.186367 115.551 3.72973 124.212 5.56046C124.606 5.64971 126.122 5.11969 127.042 5.41749C128.4 5.85879 129.015 6.51651 129.983 6.85282C130.425 7.00797 130.868 7.15763 131.312 7.30314C134.862 8.47055 138.219 9.56672 141.506 11.2268C142.903 11.9417 142.21 12.1013 143.852 12.9792C145.485 13.866 146.872 13.9337 148.925 15.4424C150.473 16.5876 151.479 18.6151 153.566 20.0432C154.276 19.052 155.751 19.9753 158.56 21.3079C159.101 21.5632 158.775 20.8709 159.042 20.973C160.132 21.3796 160.857 22.2272 161.91 22.5807C162.166 22.6673 162.389 22.3175 162.61 22.3678C162.97 22.4465 163.338 22.5951 163.701 22.7865L163.645 22.7547C165.25 23.5018 166.762 25.0844 167.054 25.4059C168.48 26.9383 169.555 26.9635 170.724 27.988C171.882 29.0184 169.804 28.0432 171.21 29.1261C174.141 31.3767 177.908 34.189 180.438 36.9C181.446 37.9764 181.162 36.8681 181.316 37.013C183.555 39.1966 184.811 42.1008 186.638 43.0049C185.852 44.971 186.379 45.0933 187.317 45.7847L187.311 45.7719C187.905 46.2991 188.662 47.115 189.071 48.9013C189.149 49.2514 188.032 50.1134 187.388 48.9455C186.996 48.2386 186.718 47.2203 186.319 46.1937L186.367 46.2938C186.049 45.6524 185.68 45.0123 185.213 44.464C184.938 44.1059 182.574 42.779 182.325 42.5915C180.4 40.94 181.677 39.4381 181.68 39.2445C181.591 37.2265 178.439 36.0129 177.804 35.5976C174.864 33.5185 172.532 31.5354 169.813 30.1462C168.029 29.2504 167.177 30.2882 165.876 29.4718C164.079 28.3598 162.877 27.3175 161.721 26.3926C161.698 26.38 161.629 26.3423 161.607 26.3287C159.982 24.9119 158.525 23.7387 155.531 23.0161C154.441 22.7534 154.595 24.5293 151.923 21.5873C151.757 21.4027 149.865 19.0555 148.132 18.8126C147.914 18.7821 147.709 19.1493 147.46 19.0462C145.796 18.352 144.925 17.4756 143.148 16.7035C141.371 15.9336 139.219 15.1143 137.312 14.0964C136.167 13.4795 134.926 12.1186 134.407 11.711C133.141 10.6897 131.38 10.7377 130.405 10.1415C130.252 10.0503 130.117 9.94419 130.003 9.81765C129.109 8.82841 131.569 8.5343 128.814 7.20896C128.38 8.21802 127.801 9.21187 127.303 10.208C121.033 8.21667 114.909 6.03829 108.585 4.66214C107.798 4.49604 108.469 5.2439 107.634 5.08642C104.552 4.52412 101.622 3.6547 99.1792 3.76376C98.7817 3.78795 98.3821 3.81981 97.9821 3.86233C95.1484 4.15283 92.4036 5.18375 89.8571 6.1105C88.4709 5.57894 86.0901 6.36335 83.8925 7.46365C82.9438 7.93079 82.0167 8.4115 81.165 8.81695C80.1342 9.31087 80.0474 8.98125 79.2759 9.27268C76.3897 10.4015 78.1916 10.6776 77.5521 11.236C74.8647 13.677 73.2815 11.6841 69.7662 14.1628C69.5686 14.2909 68.1284 16.9864 67.8973 17.2809C66.3425 19.1618 67.2978 17.1495 66.0582 17.9969C63.8094 19.568 62.131 20.5827 60.0501 23.0819C59.4379 23.8171 58.4294 25.9706 56.7173 26.8527C56.4916 26.9688 56.2622 26.57 56.1103 26.6934C54.5415 28.0052 54.2197 28.9189 54.0329 29.7875C53.8955 30.431 53.8312 31.0588 53.415 31.8469C52.4413 33.6901 49.6798 35.5059 49.0567 35.8298C47.4295 36.6778 49.6476 34.6388 49.6557 34.5243C49.7078 33.1652 48.3261 35.035 47.148 36.3617C45.9352 35.696 44.423 37.6814 45.931 37.744C46.0982 37.7468 46.8737 36.5969 47.148 36.3617C47.1879 38.411 45.6123 40.6172 42.767 42.2052C41.4368 42.9517 41.7185 41.4748 39.2743 45.0153C38.1706 46.6253 39.3702 46.6007 38.5298 48.1156C37.0264 50.8316 34.4064 53.6032 32.2992 56.3051C31.7149 57.0544 31.1726 57.7884 30.698 58.5144C29.9 59.739 31.1334 58.8703 30.6078 59.7123C29.2151 61.9545 27.6043 63.6541 26.3893 65.9655C26.2807 66.1749 27.0377 65.9717 26.6188 66.6589C23.9394 71.0901 21.6786 75.0354 19.581 79.8355C19.2009 80.708 18.8315 81.5695 18.4483 82.4859C17.2137 85.4314 15.3254 90.799 14.0469 93.8427C11.8318 99.0851 8.59598 105.364 7.26668 109.983C6.40849 112.984 7.14695 112.488 7.1058 113.862C7.00406 116.493 4.89189 120.306 4.69024 120.809C4.65671 120.833 4.96522 118.412 4.46103 119.644C3.75921 120.323 4.6924 120.786 4.69024 120.809C4.63288 120.918 4.49703 121.557 4.4383 122.274C4.30419 124.051 4.27775 126.552 4.36744 127.229C4.43628 127.794 4.93645 127.464 4.96377 127.756C5.48055 133.287 6.49054 138.529 8.48296 143.312C8.97165 144.487 9.29662 145.069 9.83585 145.686C9.88181 145.746 9.39603 146.065 9.52092 146.21C11.4859 148.293 14.5213 148.597 17.6733 149.186C19.0063 149.424 20.2338 149.682 21.3463 150.006C22.9532 150.473 24.2899 151.073 25.3437 151.896C27.9128 152.344 31.5157 153.433 33.6214 154.016C35.7301 154.603 36.1877 153.538 36.3766 153.544C42.3193 153.622 45.6554 154.555 51.8069 154.93C54.7335 155.119 60.5448 154.988 63.6953 154.739C66.1939 154.556 67.7048 154.734 69.9971 154.409C70.3053 154.365 69.9573 153.897 70.0504 153.871C72.5589 153.092 71.4307 154.381 71.975 154.554C73.9536 155.167 75.2133 155.481 78.4574 154.722C78.5442 154.701 78.6478 154.657 78.7652 154.593C79.6585 154.108 81.3358 152.504 82.5266 152.235C84.2879 151.838 83.7057 152.558 85.5508 152.108C85.7092 152.068 85.6119 151.699 86.7611 151.521C92.0991 150.684 97.939 149.669 103.415 148.26C104.163 148.069 103.056 147.72 104.132 147.433C109.178 146.085 114.688 144.525 119.631 143.244C120.849 142.93 120.23 143.575 120.528 143.612C122.361 143.828 124.269 142.015 124.631 141.868C133.269 138.331 140.322 136.674 148.673 132.232C148.832 132.145 149.317 131.745 149.945 131.272C151.139 130.385 152.806 129.238 154.128 129.288C154.261 129.296 156.293 129.407 157.289 128.032C157.346 127.947 156.158 127.999 157.806 127.136C159.465 126.266 161.86 124.423 164.302 123.524C165.077 123.238 167.283 123.034 168.738 120.937C168.864 120.792 170.596 117.112 172.39 117.268C172.68 117.291 173.437 118.503 175.086 116.089C175.392 115.624 174.476 116.054 175.376 114.962C176.747 113.287 178.989 111.5 180.153 109.102C180.156 109.095 180.159 109.088 180.163 109.08C180.386 108.601 180.85 106.61 182.081 105.969C182.278 105.865 182.468 106.428 182.861 105.892C183.384 105.169 183.678 104.545 183.773 104.147C183.87 103.756 183.886 103.32 183.765 102.279C183.551 100.422 183.35 98.6221 183.22 96.8245C183.109 95.3502 183.96 95.9892 183.904 94.42C183.855 92.8653 183.436 89.7452 182.733 88.2534C182.035 86.7755 181.3 88.7305 180.637 86.454C177.98 77.5544 174.87 68.906 169.594 61.6044C169.017 60.8075 168.424 60.0269 167.813 59.2647C166.864 58.1003 167.346 59.3094 165.904 57.657C161.547 52.4747 152.932 46.1299 146.255 42.9128C144.896 42.2116 143.644 41.5833 142.572 41.0172C137.421 38.4165 144.435 40.3026 140.347 38.5774C138.334 37.7556 135.738 38.4841 135.241 38.4044C130.325 37.6221 127.006 36.5067 122.502 36.3331C121.579 36.307 122.442 36.923 121.661 36.8985C118.99 36.8254 116.188 36.5644 113.629 36.7337C112.487 36.8142 112.716 37.2266 111.671 37.267C109.77 37.3535 108.03 37.434 106.207 37.4735C105.61 37.4881 105.012 37.4966 104.393 37.5016C104.159 37.5041 105.601 36.7271 103.712 37.0249C100.667 37.5141 96.8191 37.9773 93.6005 39.4247C92.6474 39.8626 92.9199 40.7677 90.6334 40.8898C90.162 40.9269 90.2628 39.6007 88.265 41.51C87.8846 41.8181 84.6847 44.7906 82.5467 45.1032C81.9716 45.1724 80.2718 45.098 79.3564 45.9191C79.2376 46.0316 80.0641 46.0881 79.2848 46.6969C76.7644 48.6736 74.2777 50.871 72.2737 53.4272C72.0834 53.6676 71.8946 53.9092 71.7075 54.1519C71.0755 54.9768 72.4775 54.1386 71.5291 55.3538C68.9171 58.692 65.7009 62.7348 63.4217 66.035C62.5809 67.2482 62.7461 66.1495 62.6479 66.2133C61.0498 67.2755 61.4552 68.7221 61.2285 69.2423C59.8084 72.5078 58.1972 74.7068 57.0879 77.7767C56.7867 78.6245 57.4964 78.2205 57.4724 78.4029C57.2232 80.2704 56.8595 78.6697 56.3547 79.7272C55.0915 82.404 54.1747 85.5395 53.5659 88.5354C53.4943 88.8845 53.4244 89.2392 53.3589 89.5839C53.1307 90.8113 53.9892 89.5589 53.7832 90.6532C52.5983 97.1405 51.8564 104.013 51.7942 110.255C51.7875 111.429 51.2991 110.717 51.2075 110.967C50.5594 112.725 51.8452 115.073 52.0313 115.573C52.1069 115.8 52.1748 116.011 52.236 116.211C52.8436 118.135 52.7489 119.137 53.3846 120.958C54.9761 125.437 57.6861 129.666 61.5526 132.186C66.0304 135.242 72.5835 136.093 78.4404 136.273C79.7876 136.316 81.1251 136.329 82.4485 136.324C94.0143 136.202 104.012 135.736 114.655 133.528C115.781 133.281 116.902 133.023 118.042 132.745C118.904 132.534 117.896 132.152 118.632 131.963C128.027 129.523 137.602 126.762 142.882 120.898C143.298 120.423 142.277 120.704 142.901 119.939C143.235 119.517 143.576 119.059 143.907 118.577C145.122 116.818 146.426 114.95 147.542 113.399C148.28 112.366 147.809 114.077 148.544 113.023C150.242 110.578 151.778 107.801 152.661 105.206C153.016 104.121 151.889 105.52 152.366 104.154C152.929 102.489 153.184 100.907 153.098 99.9993C152.796 94.0608 151.93 89.5786 150.017 88.0946C147.027 85.5237 143.988 83.1232 140.782 80.9675C140.141 80.5405 140.118 79.1451 138.517 78.5855C138.255 78.8239 138.087 79.1747 137.881 79.4663C130.386 75.784 122.26 74.1286 113.856 74.5086C105.377 74.7171 96.1184 75.2821 93.5861 78.9167C93.3778 79.2051 94.2187 79.0927 93.8692 79.6134C93.7207 79.8525 93.5947 80.1063 93.4841 80.3959C91.0087 86.9067 89.5606 94.0451 90.4979 99.4233C90.5101 99.478 90.5222 99.5327 90.5344 99.5874C90.7215 100.414 89.5276 100.351 90.4167 102.632C90.5616 103.065 91.8651 106.335 92.4391 106.882C92.5162 106.958 92.7581 106.265 93.1769 107.109C93.5784 107.9 94.0083 108.565 94.3488 108.952C94.7001 109.353 94.8552 109.399 94.8542 109.408C98.7517 110.788 102.573 111.178 105.207 110.137C105.254 110.119 105.295 110.106 105.332 110.098C106.005 109.892 105.401 110.721 106.041 110.449C110.987 108.318 115.786 104.465 120.248 101.504C123.23 99.4868 122.81 101.062 124.895 100.497C125.192 100.423 126.861 98.9135 127.318 99.2169C128.499 99.9886 128.71 101.867 130.056 102.607C130.341 102.812 132.521 100.086 131.63 102.099C131.56 102.264 129.992 104.113 129.727 104.684C129.541 105.092 130.465 105.009 129.993 105.74C129.515 106.472 128.521 106.725 127.645 107.809C126.755 108.895 127.645 109.008 125.522 110.784ZM43.212 156.373C45.1842 157.08 45.6384 155.166 43.43 155.441C43.3237 155.456 43.1112 156.338 43.212 156.373ZM115.332 4.76918C112.97 3.25165 110.904 4.05674 112.555 5.1476C114.192 6.24381 116.041 5.23008 115.332 4.76918ZM141.508 13.1314C139.009 11.158 137.428 13.4681 140.592 14.3774C140.775 14.4327 141.652 13.2473 141.508 13.1314ZM118.024 106.366C118.063 106.373 119.387 105.418 119.404 105.369C119.724 104.359 117.091 106.264 118.024 106.366ZM165.73 26.2858C165.066 25.4731 162.387 24.5259 163.234 25.5069C163.912 26.2845 166.555 27.2838 165.73 26.2858ZM147.044 138.517C147.087 138.531 148.183 138.065 148.092 137.926C147.804 137.479 146.353 138.293 147.044 138.517ZM192.216 62.2185C190.386 55.554 191.239 50.8304 193.24 58.1713C193.592 59.4979 191.688 55.548 191.998 57.2798C192.564 60.4385 194.522 62.081 194.675 65.4239C194.702 66.0262 192.319 62.5983 192.21 62.2075C192.212 62.2111 192.214 62.2148 192.216 62.2185ZM44.1758 158.802C44.2203 158.834 45.852 158.987 45.897 158.963C46.8287 158.417 43.5373 158.109 44.1758 158.802ZM188.508 90.6183C188.559 90.5076 187.8 86.7224 187.705 86.618C186.302 84.8982 187.832 92.4787 188.508 90.6183ZM13.5811 80.2668C13.642 79.3478 13.8404 78.4272 14.1831 77.5758C14.5577 76.6443 15.1006 75.8337 15.7797 75.3094C15.3942 76.1236 15.027 76.945 14.6659 77.7779C14.3023 78.6166 13.95 79.4312 13.5811 80.2668Z" fill="#E6D8D8" fill-opacity="0.75"/>
</svg>
