<svg width="234" height="250" viewBox="0 0 234 250" fill="none" xmlns="http://www.w3.org/2000/svg">
<path d="M125.508 146.71C124.487 144.709 123.35 142.478 122.183 140.446C117.82 130.908 120.049 125.753 120.124 120.996C120.337 118.864 120.691 119.911 120.859 118.557C120.863 118.522 120.866 118.486 120.87 118.448C121.192 114.329 122.765 109.596 125.885 106.502C126.889 105.511 126.2 107.227 127.225 106.234C127.925 105.58 128.629 105.001 129.321 104.477C135.95 99.9478 141.431 100.284 146.7 100.154C147.615 100.168 148.515 100.198 149.404 100.237C169.763 102.858 178.429 118.674 185.205 132.981C189.928 144.739 190.316 158.684 186.334 170.751C185.451 173.613 184.295 176.55 183.01 179.458C179.733 187.205 172.748 192.615 167.06 196.342C166.102 196.983 166.995 197.117 166.836 197.275C165.939 198.144 165.415 198.484 165.024 198.618C164.196 198.92 163.895 198.502 162.458 199.145C154.17 202.697 145.137 204.056 137.194 205.251C136.584 205.339 135.979 205.414 135.38 205.477C131.568 205.792 135.45 206.814 131.552 206.238C131.286 206.193 132.251 205.569 131.211 205.499C128.851 205.377 124.445 205.03 122.688 204.65C119.305 203.95 118.755 203.817 115.628 202.981C111.358 201.797 106.588 199.675 102.293 197.832C101.374 197.438 102.306 198.587 100.807 197.998C99.3002 197.425 95.561 195.407 94.404 194.554C93.2432 193.72 94.0188 193.579 93.8588 193.354C93.34 192.601 92.2408 191.933 91.0974 191.366C89.2251 190.44 87.3219 189.393 87.0007 189.117C77.5705 180.415 76.6219 170.072 73.4139 160.755C73.3136 160.433 73.215 160.11 73.118 159.786C70.7182 151.809 69.6038 143.085 69.3768 135.418C69.1795 128.691 69.5469 122.771 69.7236 116.711C69.7892 114.435 69.9272 112.105 70.2409 109.66C70.3754 108.675 69.4568 109.728 69.6337 108.511C70.3839 103.069 72.7464 97.3578 76.2942 93.0591C80.873 87.3283 86.4032 82.5943 92.2864 78.6396C93.3078 77.9581 92.4225 79.4222 93.4632 78.7794C98.3128 75.7352 105.697 72.3252 110.032 68.9356C111.395 67.8641 112.484 66.7994 113.122 65.7155C117.716 63.5081 123.491 61.2701 127.961 60.3776C130.84 59.8125 128.381 61.3668 131.674 59.9994C132.422 59.6989 131.235 59.3983 132.377 58.9957C137.195 57.3048 142.675 56.2555 147.631 55.1673C148.642 54.9448 148.278 54.4289 148.556 54.2847C149.536 53.7928 150.87 53.6593 152.141 53.6941C153.958 53.7325 155.61 54.1301 156.139 54.1637C163.068 54.6351 168.088 54.8965 174.352 56.4023C175.79 56.7718 174.268 55.5949 175.676 55.9382C182.991 57.7815 190.144 61.1272 195.988 65.8669C197.284 66.9546 195.659 66.5227 196.245 67.066C196.789 67.5751 197.249 67.9585 197.72 68.3386C199.32 69.648 200.614 69.9432 202.123 72.2015C202.515 72.8036 201.826 72.8168 201.856 72.957C202.282 75.1088 204.294 75.8083 204.6 76.2509C208.286 81.7018 208.395 86.0989 210.489 91.6958C210.735 92.3736 210.903 90.6058 211.552 92.5323C213.556 98.255 214.89 105.025 217.277 109.274C221.599 116.163 223.477 123.44 225.24 130.397C225.721 132.402 224.811 131.131 224.785 131.274C224.568 132.513 224.945 133.354 225.378 133.973C225.755 134.526 226.158 134.936 226.252 135.251C227.748 140.664 226.759 145.649 228.56 149.188C228.687 158.185 228.604 167.049 228.569 175.905C228.347 183.804 228.398 192.278 223.272 199.918C219.807 204.677 215.213 208.253 210.655 211.288C210.421 211.447 210.412 210.608 209.949 210.925C208.704 211.773 207.821 212.425 207.172 212.979C204.841 214.91 205.345 215.6 202.901 218.381C202.095 219.295 198.307 219.772 197.992 219.812C196.822 220.009 197.32 218.569 196.959 218.685C193.999 219.64 196.048 222.295 192.339 224.253C192.221 224.308 192.425 223.518 192.088 223.625C191.039 223.958 190.187 224.662 189.147 224.947C186.752 225.59 185.307 224.522 182.358 226.906C181.983 227.205 183.418 228.631 179.984 230.054C178.623 230.636 172.586 233.18 170.825 233.713C169.073 234.265 170.028 233.246 169.897 233.27C168.345 233.599 167.45 233.713 166.867 233.716C165.624 233.723 165.793 233.217 163.941 233.074C161.227 232.879 162.898 235.238 162.089 235.897C161.287 236.56 157.679 237.275 156.759 237.35C155.849 237.435 156.757 236.701 155.974 236.845C150.796 237.712 154.239 238.897 152.713 239.853C149.828 241.587 146.918 241.143 144.077 241.147C143.314 241.145 142.526 241.18 141.75 241.293C140.753 241.438 141.645 241.742 140.784 241.959C137.335 242.803 135.136 242.532 131.273 243.78C130.645 243.985 127.626 245.739 125.408 245.148C125.094 245.062 125.852 244.423 124.347 244.534C122.103 244.701 118.086 245.166 115.719 245.663C113.971 246.03 116.112 246.602 113.851 246.639C112.848 246.653 114.612 245.914 112.732 245.982C110.866 246.051 106.14 246.662 104.347 246.881C104.32 246.885 104.294 246.888 104.269 246.892C102.577 247.121 103.605 247.636 103.465 247.696C102.611 248.05 99.1773 248.714 98.8622 248.736C90.3053 249.596 81.9522 249.509 73.7812 248.655C67.1377 247.984 60.5941 246.886 53.9272 245.484C52.7615 245.234 53.3736 246.082 53.1942 246.051C49.1364 245.331 52.7146 244.37 50.1374 243.057C50.1694 244.497 48.6057 243.841 45.8159 243.13C44.4739 242.784 45.0294 243.522 44.892 243.536C42.6634 243.678 41.6407 242.187 41.3705 241.862C40.3606 240.659 38.6514 241.005 37.9793 240.165C37.3249 239.333 39.5653 239.406 37.0412 238.383C36.1353 238.542 37.5333 240.535 35.51 239.911C34.8778 239.713 34.2097 239.479 33.5191 239.213C25.0445 236.543 16.5356 225.397 14.0275 220.221C10.9197 214.629 10.101 212.756 8.73975 209.321C6.42842 203.076 6.50938 205.689 4.56488 202.009C4.00777 200.933 3.86648 200.259 3.94538 199.82C4.1316 198.706 5.67347 199.129 5.86272 198.6C6.14482 197.89 5.44927 197.464 5.51008 196.693C5.5804 195.939 6.33282 197.297 5.98125 195.688C5.59509 194.111 3.90152 189.78 3.31259 189.237C2.02606 188.138 1.09945 190.393 0.955877 185.814C0.950988 185.552 1.6645 186.323 1.61506 185.323C1.42878 181.561 1.27815 177.76 1.14596 173.955C1.00218 169.747 0.98214 165.54 1.16581 161.422C1.21625 160.346 1.91615 161.302 1.95398 160.676C2.39511 154.163 1.23546 156.495 -1.48913e-06 152.873C1.71606 153.717 2.77159 151.761 3.01085 146.846C3.1712 143.888 2.3959 144.358 1.99169 142.399C1.86875 141.809 2.54756 139.751 2.22969 139.341C1.29195 138.118 -0.0123393 139.52 0.484973 136.08C0.541753 135.7 0.621007 135.267 0.728406 134.764C0.778031 134.541 1.32809 135.329 1.45353 134.555C2.31222 129.583 1.18496 128.812 2.01745 123.366C2.62794 119.393 4.84722 112.8 6.53668 108.217C6.66352 107.864 6.78391 107.529 6.90088 107.202C8.69525 107.875 9.7501 103.506 9.51637 101.194C11.0442 98.3029 12.9049 95.3998 14.7797 92.9963C15.4272 92.1706 15.4974 93.057 15.6226 92.9826C17.5547 91.8685 17.279 90.0178 17.6355 89.4284C17.8081 89.1473 17.9858 88.865 18.1683 88.5813C21.8999 82.7777 26.0091 78.6652 29.2883 72.7722C29.4083 72.5556 28.576 71.4178 30.4898 70.5193C30.6171 70.464 29.7099 72.6772 31.7371 70.0798C33.7644 67.4808 38.1151 63.0008 40.451 59.023C41.0148 58.0604 41.8948 55.1787 43.9701 53.9558C44.2478 53.7947 44.3451 54.2917 44.7826 54.0896C46.1905 53.4299 45.6106 51.9776 47.5416 51.4356C48.764 51.0884 50.3286 50.1392 51.9108 48.4767C52.8447 47.4949 53.7707 46.2856 54.65 44.7978C54.7258 44.6732 54.6089 43.1436 55.574 42.0536C57.1041 40.3233 59.4502 38.0103 61.0691 36.2229C61.8458 35.3643 60.8514 35.4605 60.9777 35.3036C65.9687 29.3124 70.2807 25.7361 76.5486 20.2491C76.8877 19.9546 77.3542 19.4305 77.91 18.8076C79.25 17.3013 81.1764 15.2057 83.1103 14.2658C86.1329 12.847 85.5836 17.3602 90.8717 12.3793C92.9788 10.4818 93.9098 4.66064 99.8044 4.18287C101.127 3.46552 102.48 2.8558 103.87 2.37809C112.252 0.434433 120.829 1.73824 129.767 1.11667C130.234 1.09146 131.756 -0.0424463 132.872 0.00122763C134.517 0.0677668 135.416 0.638438 136.587 0.708664C141.519 1.01963 146.041 0.725985 150.806 0.9982C152.349 1.0861 152.083 1.49394 153.349 1.68665C153.558 1.7184 153.807 1.74507 154.11 1.76571C156.242 1.92229 157.747 1.28915 160.61 2.04328C162.769 2.63096 164.637 4.50495 167.334 5.35913C167.797 3.94526 169.738 4.4 173.244 5.16751C173.916 5.31741 173.388 4.58545 173.718 4.63227C175.074 4.81729 176.077 5.65708 177.356 5.861C177.667 5.91206 177.877 5.44663 178.146 5.46464C180.459 5.58681 183.189 8.2004 183.617 8.6587C185.322 10.3895 186.58 10.3383 187.976 11.4713C189.361 12.6077 186.882 11.6189 188.578 12.8012C189.465 13.421 190.427 14.0613 191.445 14.6928L191.424 14.6805C194.382 16.6564 197.76 18.5616 200.55 20.2115C202.042 21.0867 201.365 19.9039 201.587 20.0156C204.761 21.6618 207.539 24.1045 209.929 23.9168C210.32 28.1971 211.965 24.7005 216.046 27.864C216.36 28.1108 215.983 29.8098 214.516 29.2458C213.058 28.6865 211.286 27.0655 209.237 26.3209C208.754 26.1453 205.449 26.0317 205.065 25.9181C201.997 24.9935 202.861 22.6251 202.789 22.4261C201.917 20.221 197.995 19.8753 197.127 19.5002C194.671 18.44 192.6 17.2184 190.591 16.02L190.666 16.0643C189.408 15.3738 188.204 14.7096 186.959 14.1639C184.829 13.2349 183.85 14.5541 182.323 13.6845C177.268 10.9125 176.121 7.96802 170.275 8.12675C169.016 8.203 169.674 10.161 166.045 7.7936C165.829 7.63764 163.044 5.71117 161.12 6.24581C160.883 6.31165 160.811 6.8241 160.515 6.82305C158.531 6.81517 157.263 6.25522 155.1 6.29264C154.477 6.30535 153.832 6.33241 153.146 6.3617C151.339 6.43043 149.413 6.46346 147.552 6.2636C145.988 6.09551 144.005 5.05552 143.257 4.79214C141.163 4.03433 138.828 5.07314 137.546 4.20988C136.246 3.34261 138.88 2.16199 135.406 1.52553C135.243 2.86646 134.901 4.23799 134.657 5.58447C127.057 5.34587 119.541 4.74743 112.121 5.1726C111.213 5.23324 112.186 5.89962 111.219 5.98741C108.934 6.19992 106.483 6.3203 105.262 6.61436C103.913 6.98845 102.492 7.54533 101.045 8.36071C98.3278 9.8915 95.7568 12.4292 93.1317 14.561C90.5347 14.5014 86.7679 18.1148 83.8544 20.5129C82.8275 21.3501 82.6186 20.9889 81.8264 21.5187C81.4736 21.757 81.19 21.9702 80.965 22.1596C79.3082 23.5595 80.9315 23.5363 80.4189 24.2649C77.9698 27.8041 75.5765 25.8179 72.0623 29.4186C71.8676 29.6108 70.7711 33.0693 70.5396 33.464C69.0615 35.9645 69.8051 33.4004 68.4889 34.6044C66.1024 36.8032 64.2754 38.2034 62.0916 41.3711C61.4564 42.2957 60.4648 44.9696 58.4633 46.0892C58.2005 46.2362 57.8908 45.7643 57.718 45.9171C55.0916 48.3011 55.5875 49.5205 55.1452 51.165C55.0675 51.4613 54.9591 51.7725 54.7955 52.1093C53.7315 54.2949 50.5119 56.4045 49.7817 56.7746C47.8708 57.752 50.4271 55.3737 50.4305 55.2362C50.4192 53.6231 48.8641 55.8186 47.5167 57.3687C46.0235 56.5579 44.3114 58.8745 46.1253 58.9826C46.3271 58.9891 47.1974 57.6451 47.5167 57.3687C47.6718 59.8 45.8861 62.3879 42.5353 64.1958C40.9674 65.0443 41.2471 63.3052 38.4537 67.4261C37.191 69.2961 38.6317 69.3085 37.675 71.0759C35.4873 75.1163 31.0946 79.1762 28.4458 83.0525C27.4893 84.4527 28.9766 83.4968 28.34 84.4681C26.6512 87.0517 24.6772 88.9578 23.0723 91.6099C22.9388 91.8327 23.7483 91.7038 23.3983 92.3257C23.3747 92.3674 23.3461 92.4123 23.3122 92.4606C19.1811 98.5227 15.1613 102.88 13.1608 109.395C13.0739 109.658 12.9874 109.932 12.8951 110.235C11.8109 113.704 10.7098 119.263 9.98326 122.574C8.97641 126.977 7.68015 132.121 7.00549 136.751C6.7237 138.66 6.53812 140.482 6.4894 142.105C6.39222 145.726 7.11477 144.974 7.47701 146.54C8.178 149.549 6.49965 154.786 6.25828 155.509C6.24598 155.532 6.15206 152.404 5.78029 154.065C5.05647 155.024 6.25597 155.475 6.25828 155.509C6.07743 155.975 5.92342 162.225 6.09288 163.461C6.17402 164.132 6.7918 163.744 6.82275 164.094C7.09977 167.254 7.37833 170.406 7.67443 173.533C8.17148 178.733 8.53756 183.922 9.11507 188.874C9.12444 189.015 8.40078 188.913 8.43208 189.245C8.76046 192.753 9.78696 195.099 11.0197 197.107C11.4942 197.936 11.9734 198.765 12.4587 199.653C14.4056 203.22 15.4716 206.132 15.3551 208.756C16.7137 211.406 18.179 215.376 19.1617 217.582C20.1427 219.804 21.4897 219.299 21.6176 219.456C25.9466 224.124 27.691 227.174 32.9282 230.694C33.8196 231.262 35.084 231.949 36.523 232.564C39.3441 233.789 42.6859 234.944 44.8832 235.595C47.5802 236.392 49.1152 237.192 51.6829 237.691C52.0276 237.757 51.8459 237.079 51.9549 237.085C54.9243 237.125 53.2163 238.198 53.733 238.606C55.6169 240.061 56.8531 240.901 60.6467 241.163C61.5341 241.229 64.3632 239.549 65.9101 239.638C67.9358 239.758 67.0775 240.419 69.214 240.488C69.3952 240.493 69.4176 240.026 70.7113 240.183C71.9119 240.324 73.1255 240.456 74.3687 240.575C79.407 241.067 84.6436 241.298 89.767 241.014C90.6358 240.968 89.4836 240.277 90.7402 240.193C94.7793 239.919 99.1259 239.512 103.372 239.137C105.316 238.965 107.24 238.807 109.096 238.682C110.56 238.583 109.716 239.219 110.05 239.333C112.107 240.018 114.672 238.29 115.119 238.201C124.991 236.194 133.083 236.025 142.447 233.733C143.198 233.542 143.932 233.341 144.685 233.117C145.28 232.958 149.11 230.464 151.269 231.057C151.412 231.102 153.646 231.73 154.96 230.294C155.04 230.204 153.676 230.014 155.677 229.328C157.644 228.651 160.841 226.852 164.12 226.372C164.153 226.367 164.187 226.363 164.22 226.359C165.189 226.241 167.781 226.635 170.053 224.615C170.214 224.482 173.368 220.679 175.423 221.511C175.758 221.647 176.201 223.317 178.958 221.129C179.48 220.708 178.254 220.854 179.709 219.931C181.93 218.514 185.244 217.421 187.719 215.282C188.156 214.907 189.678 212.811 191.721 212.655C192.043 212.63 191.836 213.395 192.726 212.963C196.197 211.27 199.468 208.977 202.467 206.845C203.227 206.298 203.984 205.781 204.737 205.294C206.206 204.34 206.06 205.606 207.625 204.696C209.198 203.795 212.022 201.723 212.937 200.199C213.838 198.695 211.562 198.986 213.12 197.141C213.884 196.201 214.586 195.257 215.233 194.288C217.597 190.816 218.707 183.048 218.949 175.853C219.063 172.511 219.164 169.181 219.198 165.856C219.215 163.99 218.699 165.539 218.682 162.798C218.583 155.417 218.373 143.109 216.961 136.259C216.282 133.34 215.699 130.729 215.323 128.622C214.056 121.938 217.378 129.797 216.068 124.77C215.411 122.323 212.844 120.523 212.573 120.048C211.35 117.829 210.411 115.998 209.5 114.508C207.181 110.616 206.783 107.982 205.651 104.949C205.259 103.825 204.944 105.143 204.618 104.175C203.524 100.922 202.894 97.571 201.902 94.7131C201.458 93.4432 201.038 93.8362 200.68 92.6721C199.801 89.8843 199.082 87.4869 198.339 84.8347C198.267 84.5888 199.595 85.8195 198.698 83.9414C197.25 80.9398 195.406 77.1846 192.536 75.0603C192.264 74.8581 191.988 74.8133 191.709 74.7758C191.249 74.824 190.731 74.8203 189.797 73.4394C189.504 73.0335 190.882 72.1737 187.818 71.6549C187.296 71.5142 182.431 70.6525 180.714 68.7948C180.285 68.2926 179.221 66.5737 177.837 66.2742C177.649 66.2386 178.143 67.0945 177.036 66.7676C173.168 65.6306 169.039 64.6177 164.923 64.3834C163.824 64.3274 165.37 65.144 163.762 65.0539C160.584 64.8901 156.861 64.8548 153.368 65.1232C151.922 65.2319 150.516 65.3644 149.21 65.5064C147.52 65.6961 148.591 64.9691 148.46 64.9289C146.317 64.2918 145.371 65.8252 144.746 66.0274C140.797 67.3028 137.597 67.5078 133.98 68.796C132.986 69.1542 133.889 69.5266 133.706 69.6429C131.815 70.8268 133.001 69.258 131.654 69.5742C127.877 70.4697 123.862 72.1232 120.369 73.853C119.089 74.4915 120.85 74.4596 119.705 75.0268C118.068 75.8483 116.436 76.7098 114.822 77.6076C109.514 80.5538 104.332 83.5227 99.6042 86.5375C98.4314 87.2878 98.8125 86.3243 98.5019 86.391C96.3284 86.8511 94.7795 89.6479 94.3611 90.1582C92.3951 92.5002 91.223 92.91 89.4215 94.8194C87.9281 96.4298 86.4588 98.1452 85.0794 99.9612C81.5218 104.455 80.2996 109.899 80.1212 116.876C79.9679 122.142 79.777 127.055 79.7758 131.45C79.7698 141.482 80.3815 149.99 82.6761 157.825C84.4529 163.705 86.1093 169.605 88.6938 174.832C89.1057 175.643 89.3631 174.496 89.7251 175.174C91.6149 178.701 93.7003 181.274 96.3469 182.926C101.828 186.354 107.685 189.318 113.778 191.344C114.613 191.619 113.653 190.541 114.994 190.949C117.742 191.778 121.178 192.735 123.893 193.432C125.222 193.77 123.305 194.06 124.658 194.383C127.816 195.123 131.259 195.383 134.396 195.023C135.719 194.859 133.672 194.321 135.366 194.151C135.52 194.134 135.673 194.115 135.827 194.095C144.269 193.001 152.691 191.294 158.54 188.01C162.835 185.554 166.383 183.389 169.237 180.656C169.765 180.141 171.384 180.542 172.085 178.992C171.812 178.666 171.406 178.412 171.069 178.134C171.662 177.181 172.158 176.204 172.565 175.184C178.009 162.316 179.388 149.661 174.435 137.252C173.163 133.993 171.108 130.341 168.882 127.103C168.433 126.457 168.577 128.008 167.705 126.774C162.626 119.709 156.048 113.994 149.857 112.76C149.51 112.692 149.481 112.25 149.168 111.894C148.817 111.61 148.221 111.375 147.008 111.47C146.498 111.477 142.528 111.825 141.711 112.293C141.6 112.356 142.297 112.896 141.209 113.075C139.301 113.383 137.737 114.02 137.291 114.409C135.237 116.115 134.73 116.939 134.398 119.271C134.222 121.353 134.013 123.334 133.85 125.204C133.745 126.445 133.108 125.1 133.03 125.984C132.704 129.148 133.093 132.805 133.736 133.687C135.57 136.835 137.017 139.924 138.074 142.963C139.506 147.225 137.753 146.179 137.582 148.785C137.564 149.145 138.519 151.727 137.919 152.101C136.436 152.978 134.27 152.409 132.747 153.505C132.58 153.614 132.879 154.432 132.935 154.865C132.967 155.091 132.908 155.081 132.803 155.041C132.693 155.012 132.609 155.292 132.292 155.015C132.266 155.049 131.194 152.955 130.659 152.501C130.303 152.198 129.94 153.14 129.368 152.459C128.796 151.787 128.97 150.697 128.098 149.518C127.217 148.352 126.774 149.224 125.508 146.71ZM24.4634 227.011C25.5726 229.057 27.4318 227.516 25.4026 226.303C25.3038 226.245 24.4079 226.907 24.4634 227.011ZM119.637 3.10307C116.556 2.07111 114.49 3.69737 116.664 4.45603C118.816 5.22544 120.57 3.41876 119.637 3.10307ZM151.693 3.13825C148.108 2.15455 147.402 5.52197 151.303 4.99831C151.528 4.96908 151.902 3.19553 151.693 3.13825ZM132.801 139.079C132.793 139.123 133.637 140.884 133.682 140.914C134.833 141.519 133.132 137.968 132.801 139.079ZM182.088 9.84284C181.293 8.91224 178.126 8.064 179.161 9.15927C179.982 10.0156 183.071 10.9721 182.088 9.84284ZM141.42 240.168C141.461 240.198 142.818 239.949 142.743 239.758C142.525 239.143 140.694 239.705 141.42 240.168ZM228.944 36.951C227.317 35.8515 225.883 34.7637 224.783 33.7879C221.614 31.0671 221.244 29.2442 225.854 31.9388C225.859 31.9414 225.873 31.9498 225.877 31.9525C226.174 32.1321 226.474 32.3209 226.805 32.5365C227.536 33.0149 226.442 32.6615 225.572 32.4639C225.569 32.4621 225.56 32.4566 225.557 32.4548C224.833 32.3003 224.264 32.2425 224.998 32.7971C225.083 32.861 225.168 32.9229 225.253 32.9829C228.067 35.1314 231.157 34.7509 233.52 38.2132C233.704 38.5391 232.675 38.0692 231.526 37.7382C230.382 37.398 229.122 37.0805 228.93 36.9464C228.935 36.9479 228.94 36.9494 228.944 36.951ZM23.3545 229.971C23.3582 230.034 24.7368 231.352 24.7989 231.35C26.0454 231.465 23.3196 228.873 23.3545 229.971ZM214.275 207.553C214.421 207.57 217.803 204.568 217.834 204.38C218.647 201.945 212.003 207.897 214.275 207.553ZM6.97419 107.145C6.89216 104.899 7.85416 102.299 9.51104 101.202C8.48428 103.099 7.68135 105.145 6.97419 107.145Z" fill="#C1F532"/>
</svg>
