<svg width="375" height="291" viewBox="0 0 375 291" fill="none" xmlns="http://www.w3.org/2000/svg">
<path d="M12.9339 0.00121461C13.1032 0.00192919 12.9222 0.00286588 12.6736 0.00357775C12.5966 0.00380085 12.252 0.00368788 12.1833 0.00384189C12.0493 0.0041431 12.2183 0.00442372 12.0587 0.00472138C12.0041 0.00482002 11.4584 0.00469723 11.4136 0.00480067C11.1724 0.00536749 11.3115 0.00590372 11.1954 0.00647792C10.623 0.00930623 10.4182 0.0120864 10.1695 0.0149493C10.088 0.0158933 9.59266 0.0170408 9.80927 0.0180158C9.83505 0.0181297 10.3141 0.0180618 10.3536 0.0180835C10.958 0.0184231 9.99093 0.0183102 9.86243 0.018532C9.3551 0.0194122 9.31098 0.020391 9.49586 0.021238C9.57592 0.0215984 10.5274 0.0212371 9.99335 0.0216C9.95727 0.0216251 9.44855 0.0215337 9.3943 0.0216325C9.27226 0.0218567 9.36319 0.0222819 9.32288 0.0224556C9.24263 0.0227904 9.24775 0.0228458 9.24195 0.0231624C9.2296 0.0235953 8.97672 0.0241101 9.09199 0.0245745C9.11811 0.0246737 9.6396 0.0245424 9.72834 0.0247005C9.81694 0.0248588 9.77272 0.0252774 9.64979 0.0254185C9.52679 0.0255597 9.11691 0.0254996 9.02296 0.0255246C8.22998 0.0257301 9.32826 0.0262143 9.35542 0.0262766C9.81821 0.0274126 9.19256 0.0283868 9.19435 0.0294531C9.19703 0.0302626 9.40358 0.0311282 9.37525 0.0318984C9.33949 0.0328161 9.0569 0.0335938 9.10548 0.0344853C9.11 0.0345794 9.72316 0.0344692 9.72993 0.0345841C9.80128 0.0358049 9.73444 0.0370173 9.3205 0.0382329C9.27845 0.0383548 8.74011 0.0381977 8.6659 0.0383195C8.22348 0.0390652 7.16068 0.0402451 9.50459 0.040688C9.41306 0.0411931 9.3185 0.0418063 8.84602 0.0422582C8.54192 0.0425496 7.95545 0.0422666 8.2057 0.0426245C8.26146 0.0427052 8.77506 0.0426002 8.81983 0.0427213C9.00786 0.043231 8.8409 0.0437878 9.10627 0.044292C9.16146 0.0443946 9.62166 0.0443666 9.70454 0.0443956C10.3757 0.0446398 9.26623 0.0450464 9.18562 0.045135C8.58445 0.0458099 8.82102 0.0463027 8.80635 0.0469314C8.80268 0.0470773 9.42084 0.0469049 9.43952 0.0470453C9.52812 0.0477734 9.47499 0.0485276 9.20069 0.0492406C9.13819 0.0493992 8.61163 0.0492533 8.55482 0.0493291C8.31074 0.0496633 9.30529 0.0497373 9.0904 0.0500578C9.04638 0.0501254 8.5956 0.0500873 8.54609 0.0500996C7.76894 0.0502925 8.87011 0.0504601 8.89442 0.0505097C9.2266 0.0511373 8.07704 0.0515384 8.23982 0.0521446C8.26045 0.0522172 8.83082 0.0520536 8.85395 0.0522575C9.01141 0.0536157 8.85472 0.0550522 8.39851 0.0563966C8.32835 0.0566057 7.89988 0.0564565 7.84706 0.0564696C7.02177 0.056684 8.12756 0.0568227 8.1692 0.0568909C8.46897 0.0574286 7.54164 0.0579309 8.85871 0.0582962C8.40164 0.0605734 9.14125 0.0628402 7.96132 0.0650986C7.94765 0.0651273 7.40305 0.0650759 7.37813 0.0651331C7.07234 0.0658229 7.91875 0.0656905 8.95393 0.0661469C9.21387 0.0662619 7.96406 0.0666116 7.87245 0.0666426C7.53486 0.0667553 6.72464 0.0666384 6.65926 0.0666761C6.14587 0.0669886 8.82532 0.0669376 8.82618 0.0673591C8.82171 0.0673723 8.32853 0.0673169 8.27949 0.0673523C8.12554 0.0674622 8.32151 0.0675712 8.15175 0.0676787C7.75891 0.0679248 6.45693 0.0680125 7.21468 0.0683884C7.31302 0.068436 8.83292 0.0683633 8.76112 0.0687396C8.73121 0.0688897 8.75726 0.0695537 8.65876 0.0697398C8.56039 0.0699256 8.0706 0.069798 8.04939 0.0698113C7.40173 0.0703121 7.13331 0.0701222 6.17446 0.0703731C5.21922 0.070624 7.49755 0.0705544 7.75184 0.0706567C8.00542 0.0707592 7.47106 0.0711264 7.28529 0.0712166C7.09945 0.0713068 6.78823 0.0711943 6.68306 0.0712745C5.99596 0.0718062 7.81394 0.0715079 8.17555 0.0716831C9.03177 0.0720962 7.34215 0.0724179 7.17659 0.0727961C7.13188 0.0728984 7.5167 0.0728149 7.55269 0.072906C7.69012 0.0732669 7.16292 0.0734839 7.64632 0.0738945C7.72509 0.0739616 8.74093 0.0742935 7.99544 0.0745084C7.88794 0.0745388 7.46689 0.0744523 7.37257 0.0746061C7.23103 0.0748359 7.139 0.0752498 7.27974 0.0754968C7.38387 0.0756791 8.07766 0.0754702 7.86213 0.0756996C7.7659 0.0758017 7.36003 0.0756126 7.21309 0.0758042C7.06619 0.0759948 7.08402 0.0764822 7.09804 0.0766677C7.11236 0.0768528 7.63863 0.0767515 7.67409 0.0767664C7.87718 0.076857 8.13095 0.0772122 8.13032 0.0772436C8.19457 0.0788272 7.30748 0.0802875 7.60109 0.0818293C7.62337 0.0819503 8.17833 0.0818697 8.18745 0.0818882C8.41997 0.0823024 6.94446 0.0819758 6.45058 0.0822652C7.57676 0.0822233 7.37284 0.0823942 7.49635 0.0826859C7.55678 0.0828265 7.99285 0.08275 8.03749 0.0827628C8.69982 0.0829713 7.84433 0.0831165 7.66933 0.0831539C7.02556 0.083292 7.78621 0.0834423 7.35591 0.0835362C6.92883 0.0836301 6.29568 0.083414 6.30379 0.0836939C6.70692 0.0837723 7.76042 0.0835646 7.93117 0.083777C8.577 0.0845786 7.75043 0.086075 7.66456 0.0867195C7.57878 0.0873628 7.65315 0.0875705 7.50746 0.0879453C7.24403 0.0886224 8.02566 0.0883743 8.38343 0.0887947C8.74117 0.0892163 6.81799 0.0890113 6.40456 0.089072C5.99131 0.0891315 6.41671 0.0891964 6.18953 0.0892704C5.96241 0.0893442 5.68131 0.0891845 5.59603 0.089358C5.51083 0.0895316 6.24601 0.0900062 6.6783 0.0900677C7.59413 0.0901978 8.55534 0.0899839 8.2176 0.0904432C8.19756 0.0904697 7.69187 0.0903839 7.64076 0.0904851C7.25146 0.0912885 7.22733 0.0921231 6.88301 0.0929256C6.83488 0.0930359 6.27231 0.0929372 6.23793 0.0930014C5.87811 0.0936703 6.82666 0.0934312 7.88038 0.0937977C6.4781 0.0937155 5.62018 0.0939181 5.6119 0.0944257C5.60643 0.0947309 6.21888 0.0946783 6.65053 0.0948757C6.78065 0.0949349 6.36012 0.0951508 6.64815 0.0951899C7.58966 0.095319 8.64363 0.0951156 8.22395 0.0956389C8.20401 0.0956619 7.68864 0.0955888 7.65742 0.0956681C7.45313 0.0961809 8.43794 0.0962423 8.5572 0.0967967C8.65078 0.0972312 8.05026 0.098004 7.95259 0.0984987C6.37602 0.0984883 6.73703 0.0989556 7.82405 0.0991452C7.77955 0.0994663 7.841 0.0998131 7.69075 0.100123C7.63952 0.10023 7.18306 0.10016 7.13374 0.100174C6.36005 0.10038 7.4176 0.10052 7.45906 0.100589C7.86209 0.10134 7.06055 0.101952 7.84389 0.102669C7.8721 0.102694 8.96723 0.102736 8.16761 0.102927C8.1125 0.10294 7.61423 0.102703 7.5757 0.10304C7.53708 0.103377 6.95001 0.104013 7.45747 0.104481C7.57964 0.104595 8.46867 0.104881 7.77406 0.105111C7.67974 0.105142 7.36565 0.105109 7.19087 0.105153C6.63396 0.105296 7.74087 0.105374 6.80049 0.105542C5.86016 0.10571 5.15592 0.10606 5.80471 0.106532C5.82357 0.106547 6.7009 0.106659 6.68703 0.106807C6.66413 0.107044 6.48136 0.107381 6.48708 0.107628C6.49013 0.107747 7.03491 0.107671 7.04488 0.107692C7.35015 0.108488 6.86448 0.109056 6.6537 0.109909C6.61399 0.110066 7.35688 0.110515 6.76955 0.110818C6.12661 0.111151 3.45207 0.110809 4.08926 0.111574C4.34412 0.111882 7.73726 0.112273 5.97927 0.112827C6.41489 0.113902 5.51515 0.114896 6.13716 0.115974C6.16472 0.116022 7.11172 0.116175 7.09883 0.116289C7.07786 0.116459 6.63525 0.116551 6.6061 0.116672C6.47277 0.117178 6.85146 0.117642 6.79256 0.11813C6.77116 0.118315 6.3135 0.11825 6.28792 0.118471C6.26277 0.118692 6.86542 0.118839 6.57436 0.119138C6.3525 0.119364 5.12071 0.119591 4.97713 0.119891C6.19216 0.119902 6.16713 0.120108 6.48787 0.120474C6.5501 0.120545 6.973 0.120469 7.02425 0.120502C7.24221 0.120638 6.89172 0.120763 7.12898 0.120892C7.18597 0.120923 7.60091 0.120925 7.67091 0.12095C8.28199 0.121168 7.34862 0.121527 7.18611 0.121588C6.56892 0.121824 7.1086 0.121934 6.86556 0.122116C6.62254 0.122296 6.31875 0.122026 6.17128 0.122237C5.86626 0.122675 5.93327 0.123237 5.9142 0.123681C5.90916 0.123859 6.46304 0.123738 6.47518 0.123763C6.61566 0.12413 6.02649 0.124501 7.12978 0.124704C4.27708 0.124958 7.40647 0.124925 6.8354 0.125449C6.78922 0.12549 5.4402 0.125543 5.24215 0.125384C5.04429 0.125226 5.46597 0.124986 5.15725 0.124766C5.0848 0.124714 3.82068 0.124415 3.74411 0.124375C3.14565 0.124056 5.16158 0.124011 5.2723 0.123994C6.4672 0.123802 5.10535 0.123438 5.01125 0.123342C4.58007 0.122903 4.86358 0.12253 4.55581 0.122162C4.3569 0.121922 3.03639 0.121898 3.07681 0.12171C3.21041 0.121083 5.05252 0.120864 3.45529 0.120273C3.11463 0.120146 1.67136 0.120272 2.80624 0.119818C2.87779 0.11979 3.916 0.119452 3.25931 0.119258C3.17651 0.119233 2.75588 0.119234 2.72055 0.119202C2.49199 0.118986 2.82708 0.118841 2.66659 0.118606C2.50611 0.11837 2.26685 0.118087 2.40952 0.117818C2.49482 0.117656 3.2785 0.117448 3.47036 0.117371C4.02307 0.117152 3.11686 0.116917 3.78616 0.116781C4.45882 0.116644 5.48037 0.116912 5.915 0.116553C4.82219 0.11654 3.70054 0.116509 2.60153 0.116488C2.64001 0.115702 2.99338 0.114928 2.9451 0.114139C2.93802 0.114041 2.35052 0.114141 2.32779 0.114036C2.23446 0.113594 2.65326 0.113207 2.48648 0.112749C2.35513 0.112393 1.7331 0.112004 1.57639 0.111633C2.82687 0.111406 2.40236 0.110855 2.51663 0.110454C2.55612 0.110314 2.8901 0.110324 2.99905 0.110224C3.40202 0.109848 2.29698 0.110024 2.12308 0.109921C1.38089 0.109478 3.88208 0.10944 3.82028 0.108919C3.81785 0.108891 2.48461 0.108553 2.40158 0.108507C1.86019 0.108211 2.86563 0.108458 2.96414 0.108273C3.14416 0.107935 3.46256 0.1077 3.07205 0.107304C2.95638 0.107188 2.12539 0.106911 2.76816 0.106687C2.85232 0.106657 3.29301 0.106673 3.31881 0.10665C3.74901 0.106219 2.36432 0.106208 1.89536 0.105962C1.4265 0.105716 2.38237 0.105337 2.65787 0.105259C3.37055 0.105057 2.96244 0.105414 3.03238 0.105425C3.86468 0.105554 3.72139 0.105277 3.79171 0.105065C5.14942 0.105035 5.06792 0.104739 3.85916 0.104846C3.72713 0.104858 3.85374 0.105023 3.79171 0.105065C2.45962 0.104879 2.28902 0.104554 3.53384 0.104195C4.11727 0.104027 4.79752 0.104186 4.54867 0.103675C4.43633 0.103443 3.50148 0.103533 3.24661 0.103328C2.66509 0.102861 3.53715 0.102253 3.39975 0.101772C3.34986 0.101597 2.83813 0.101767 2.78641 0.101647C2.64753 0.10133 3.0315 0.101051 2.83481 0.100732C2.81634 0.100703 2.28066 0.100774 2.27383 0.100675C2.21162 0.0999236 2.55473 0.0992697 2.56424 0.0984856C2.56859 0.0981067 2.27315 0.0974294 2.33255 0.097037C2.43234 0.0963568 3.21129 0.09552 3.02206 0.0949389C2.90093 0.09456 2.36515 0.0946431 2.00009 0.0944807C1.29247 0.0941673 2.55999 0.0936127 2.75626 0.093538C2.76275 0.0935357 2.88906 0.0938618 3.16409 0.0936878C3.73717 0.0935866 2.75874 0.0935417 2.75626 0.093538C2.88305 0.0934889 3.00467 0.0928375 2.90225 0.0927081C2.84628 0.0926378 2.33865 0.0926771 2.31906 0.0926405C1.86478 0.0917694 1.73576 0.0908967 1.97312 0.0900132C1.98337 0.0899977 2.55118 0.0900211 2.56821 0.0899845C2.82067 0.089473 2.12606 0.0891455 1.71366 0.0887237C1.30144 0.0883019 1.4395 0.0879674 2.41428 0.0877177C2.29154 0.0873994 2.72249 0.0869429 2.98398 0.0866801C3.24546 0.0864174 2.14017 0.0863807 2.11832 0.0863576C1.41895 0.0856366 2.0516 0.0852197 2.15006 0.0844717C2.19876 0.084116 2.03844 0.0834106 1.91757 0.0830255C1.8202 0.0827212 2.07923 0.0825378 1.91361 0.0822574C1.89149 0.0822195 1.39935 0.0822578 1.38041 0.0822462C0.791597 0.0819332 1.99469 0.0820836 2.20957 0.082019C2.99094 0.0817848 3.4071 0.08164 3.03952 0.0812393C2.95534 0.0811468 1.22305 0.0808775 1.12174 0.080709C0.993201 0.08049 1.61412 0.0805726 1.46372 0.0803432C1.45142 0.0803236 1.06835 0.0803277 1.08524 0.0801861C1.1586 0.0795289 1.3815 0.0788124 1.34311 0.0781294C1.33934 0.0780361 0.731739 0.0781558 0.716284 0.078021C0.644261 0.0773885 0.666747 0.0766952 0.951146 0.0760791C1.02306 0.0759274 1.44848 0.0760225 1.5748 0.0759896C2.3391 0.0757874 1.22859 0.0755008 1.20743 0.0754535C0.673773 0.0743254 1.67877 0.0734619 1.20029 0.0723121C1.1722 0.0722495 -0.01829 0.0717677 1.00272 0.0715527C1.07065 0.071538 2.11525 0.0713253 1.40103 0.0711373C1.35635 0.0711256 0.818577 0.0712581 0.873388 0.0710269C0.928079 0.0707956 0.568956 0.0704235 1.15982 0.0701056C1.34596 0.0700049 2.38798 0.0697671 1.55735 0.0694669C1.49936 0.0694473 -0.378822 0.0689839 0.917028 0.0688184C1.13034 0.0687916 2.50164 0.0688197 1.79856 0.0684614C1.66225 0.0683929 1.35638 0.0685172 1.16538 0.0683369C0.87101 0.0680605 1.23829 0.0676944 0.627417 0.0673547C0.51927 0.0672955 -0.411488 0.0670433 0.294959 0.066841C0.405601 0.0668094 0.863413 0.0668696 0.914647 0.0667627C1.16041 0.0662548 0.854178 0.0657229 1.17093 0.0652071C1.28224 0.0650244 2.02234 0.0651178 2.22067 0.0649274C2.41894 0.0647369 2.60966 0.0643532 2.27145 0.0641539C1.9331 0.0639546 0.753544 0.0641723 0.659155 0.0638738C0.249216 0.0625756 0.941174 0.0612896 1.04239 0.0599934C1.05751 0.0598011 0.63543 0.0599605 0.627417 0.0596772C0.596016 0.0586327 0.20027 0.0568292 1.09714 0.0559228C1.81549 0.0551966 2.36237 0.0561105 2.65469 0.0555556C2.79414 0.0552878 1.42279 0.0549981 1.37961 0.0549334C0.941056 0.0543019 1.54854 0.053863 1.36216 0.0532946C1.32348 0.0531772 0.767657 0.0532923 0.740881 0.0531924C0.644489 0.0528512 0.892583 0.0524926 0.847204 0.0521665C0.825567 0.0520203 0.401049 0.0520472 0.433814 0.0519126C0.507322 0.0515905 0.685769 0.0513058 1.08365 0.0509918C1.11991 0.0509632 1.64799 0.0511561 1.66764 0.0509178C1.69792 0.0505322 2.09043 0.0500535 1.68509 0.0496098C1.56316 0.0494781 0.59293 0.049473 1.26297 0.04919C1.40292 0.0491306 2.56795 0.0492064 1.56131 0.0488767C1.39403 0.0488213 0.0362664 0.0482675 0.911473 0.0479958C1.14182 0.0479241 2.09517 0.0477411 1.94534 0.0475828C1.92144 0.0475613 1.40029 0.0476473 1.34946 0.0475161C1.17938 0.0470538 1.23498 0.0465693 1.07175 0.0460943C1.02713 0.0459674 0.487853 0.0461563 0.438575 0.0459673C0.302267 0.0454475 0.439577 0.0447984 0.608374 0.0442901C0.67163 0.0441026 1.11835 0.0442322 1.16697 0.0442186C1.95769 0.0439992 0.890394 0.0438696 0.828161 0.0437968C0.455513 0.0433441 0.956866 0.0429994 0.824193 0.0425822C0.788933 0.042467 0.280034 0.0425487 0.234657 0.0425257C-0.208712 0.042288 0.705204 0.0424651 0.805944 0.0423146C1.09119 0.0418931 1.05029 0.0414232 0.985265 0.0409968C0.960631 0.0408403 0.370551 0.0410163 0.355262 0.0408757C0.253581 0.040044 0.310045 0.0391793 0.635351 0.0383676C0.697674 0.0382148 1.15205 0.0383109 1.25583 0.0382791C1.98191 0.0380595 0.991532 0.0377378 0.897191 0.0376637C0.466432 0.0373271 0.868248 0.0371963 0.793249 0.0368991C0.419836 0.0354468 0.685964 0.0336536 0.850377 0.0322827C1.06198 0.0304963 1.49424 0.0291101 1.38199 0.0274066C1.37543 0.0272983 0.770963 0.0274075 0.757543 0.0273142C0.611826 0.0261092 0.848026 0.0249229 0.673437 0.0237155C0.660182 0.0236164 0.0871456 0.0237592 0.046608 0.0236002C-0.0405582 0.023274 -0.00941159 0.0228608 0.173561 0.022531C0.261721 0.0223701 0.753437 0.0225859 0.832128 0.022424C1.01648 0.022047 1.05729 0.0216428 0.965428 0.0212556C0.925086 0.0210908 0.339016 0.0213394 0.332252 0.0211252C0.274109 0.019666 0.173172 0.018233 0.932103 0.0167584C0.984226 0.0166573 2.17535 0.0165686 1.94693 0.0163537C1.61636 0.0163375 1.22751 0.0163384 0.874181 0.0163313C0.683849 0.0142071 1.09677 0.0121046 1.16062 0.00997447C1.16317 0.00988466 0.532056 0.0100399 0.533789 0.00986599C0.54312 0.00885962 0.368281 0.00788237 0.99558 0.00685297C1.05693 0.00675083 2.16722 0.00680323 1.9993 0.00650224C1.96866 0.00644916 1.82058 0.00599583 1.57956 0.00587862C1.54321 0.0058627 1.02497 0.00594541 1.00986 0.00579933C0.931165 0.00495043 1.04948 0.00406083 1.36612 0.0032134C1.41822 0.00307664 1.9701 0.00322229 2.01199 0.00312487C2.30496 0.00243387 1.88543 0.00168226 2.38651 0.00102198C2.7239 0.000580012 3.67787 0.000743642 4.61691 0.000508785C4.74939 0.000475567 4.77038 0.000201886 5.31673 0.000187733C6.69058 0.000151398 8.19493 0.000283961 9.65931 0.000229567C9.97473 0.000218075 9.635 -0.000148454 10.3972 6.85547e-05C10.4482 8.3715e-05 10.7012 0.000349451 10.9598 0.000414902C11.1386 0.000460471 11.6942 0.000378354 11.923 0.000471329C12.1517 0.000564297 11.6859 0.000666456 11.9548 0.000820595C12.227 0.000974665 12.8591 0.000906919 12.9339 0.00121461ZM4.15274 0.0854971C4.68354 0.0852538 2.73942 0.0852179 3.20456 0.085481C3.22935 0.0854938 4.1267 0.0855096 4.15274 0.0854971ZM4.4598 0.114932C5.31729 0.114614 4.05644 0.114397 3.39419 0.114621C2.73266 0.114845 4.19986 0.115029 4.4598 0.114932ZM5.08584 0.11823C5.76193 0.117859 3.0051 0.1178 3.5624 0.118198C3.5939 0.118221 5.04658 0.118252 5.08584 0.11823ZM4.8843 0.00159793C4.91012 0.00159457 4.93528 0.00139784 4.90969 0.00139314C4.29224 0.00128838 4.24236 0.00168177 4.8843 0.00159793ZM5.76742 0.121503C6.14034 0.121387 5.70984 0.121053 5.24612 0.121197C4.87306 0.121313 5.30352 0.121648 5.76742 0.121503ZM6.22762 0.0728063C6.25659 0.0728025 6.28268 0.0726614 6.11892 0.0726643C5.59148 0.0726738 5.74034 0.0728701 6.22762 0.0728063ZM5.79915 0.127066C5.90292 0.126244 8.1802 0.125745 7.92323 0.12664C7.87674 0.126802 7.19703 0.126291 6.99172 0.126497C6.61767 0.126875 8.04753 0.127125 7.28133 0.127511C7.14109 0.12758 5.78817 0.127112 5.79598 0.127064C5.79704 0.127065 5.7981 0.127065 5.79915 0.127066ZM6.48787 0.085357C6.51358 0.0853521 6.53796 0.0851569 6.51247 0.0851522C5.89527 0.0850465 5.8458 0.0854398 6.48787 0.085357ZM7.4297 0.0645762C7.48448 0.0645654 7.53572 0.0641123 7.48524 0.0640975C6.47595 0.0638611 6.36938 0.0647772 7.4297 0.0645762ZM7.91054 0.0985065C8.53144 0.0987195 8.60455 0.0989744 7.82484 0.0991442C7.86623 0.0989325 7.87233 0.0987194 7.91054 0.0985065Z" fill="#171717" fill-opacity="0.75"/>
<path d="M249.045 199.7C247.75 199.825 246.07 199.736 244.789 199.618C244.386 199.582 244.58 199.335 244.301 199.3C243.757 199.232 243.259 199.376 242.722 199.298C242.542 199.272 242.74 198.881 242.551 198.861C241.523 198.759 240.564 198.931 239.531 198.948C238.228 198.97 236.937 199.035 235.645 199.141C232.689 199.295 229.964 201.197 227.498 203.988C226.773 204.785 225.886 205.695 224.953 206.71C224.655 207.007 224.415 207.4 224.282 207.842C224.238 207.99 224.58 208.033 224.595 208.07C224.826 208.626 224.253 208.253 224.068 208.53C223.34 209.651 223.139 211.396 223.213 212.892C223.246 213.535 223.925 212.912 223.537 213.547C223.511 213.591 223.163 213.418 223.121 213.594C223.025 213.995 223.079 214.77 223.05 215.089C223.041 215.185 223.033 215.269 223.027 215.345C222.996 215.668 223.001 215.79 223.037 216.188C223.094 216.828 223.11 217.658 223.443 218.336C223.514 218.478 223.781 218.161 223.925 218.369C224.064 218.576 224.3 219.185 224.329 219.426C224.353 219.667 224.058 219.709 224.018 219.775C223.683 220.341 224.763 220.687 224.832 220.755C226.095 222.186 226.846 223.744 228.161 225.12C228.228 225.19 228.296 225.259 228.365 225.328C229.234 226.197 230.375 226.89 231.406 227.533C232.726 228.357 233.89 229.118 235.381 229.708C235.538 229.77 235.519 229.302 235.71 229.377C237.692 230.142 239.731 230.896 241.729 231.898C241.77 231.921 241.813 231.943 241.856 231.966C242.03 232.056 241.67 232.327 241.844 232.44C242.904 233.137 244.963 234.264 245.995 232.774C246.873 232.978 247.978 233.184 248.751 233.599C249.26 233.866 248.709 234.215 249.372 234.111C249.522 234.088 249.368 233.715 249.591 233.706C250.54 233.672 251.535 233.874 252.483 233.761C252.671 233.737 252.644 233.415 252.701 233.362C253.178 232.932 253.873 233.749 254.031 233.815C255.252 234.311 256.161 234.196 257.33 234.263C257.597 234.278 257.302 233.836 257.559 233.835C258.915 233.837 260.289 233.927 261.61 234.159C261.9 234.212 261.62 234.568 261.758 234.611C262.369 234.8 262.54 234.116 263.121 234.281C263.244 234.315 263.165 234.625 263.187 234.66C263.529 235.208 263.862 234.454 263.955 234.439C265.121 234.239 265.849 235.05 266.979 234.959C267.115 234.948 266.817 234.547 267.199 234.538C269.72 234.476 272.384 234.614 274.883 234.946C275.273 234.997 274.993 235.292 275.017 235.329C275.415 235.903 275.677 235.138 275.803 235.11C276.801 234.908 277.735 235.554 278.418 234.644C279.203 234.705 279.967 234.736 280.752 234.753C284.161 234.824 287.457 234.395 290.869 234.48C290.922 234.48 290.894 234.868 291.001 234.867C292.287 234.849 291.944 234.313 292.599 233.444C292.759 233.227 293.567 233.929 293.639 233.976C293.894 234.156 293.815 234.751 293.893 234.779C294.542 234.987 294.008 233.211 294.735 233.019C294.759 233.016 294.75 233.371 294.821 233.388C295.042 233.439 295.196 233.256 295.416 233.316C295.917 233.456 296.335 234.275 296.845 233.568C296.907 233.477 296.469 232.515 297.127 232.354C297.392 232.293 298.515 231.882 298.853 231.825C299.191 231.772 299.095 232.17 299.122 232.175C300.136 232.27 299.879 232.565 300.557 233.012C301.241 233.451 300.529 232.036 300.635 231.803C300.741 231.571 301.505 231.65 301.709 231.701C301.912 231.753 301.808 232.033 301.973 232.041C303.071 232.078 302.053 231.15 302.243 230.791C302.679 229.944 303.705 230.752 304.387 230.545C304.57 230.489 304.314 230.318 304.454 230.222C305.006 229.84 305.533 229.982 306.045 229.334C306.132 229.227 306.334 228.322 306.927 228.586C307.012 228.624 307.011 228.957 307.293 228.877C307.711 228.761 308.415 228.439 308.761 228.127C309.018 227.897 308.443 227.674 308.886 227.59C309.06 227.557 308.952 227.881 309.174 227.894C309.202 227.896 309.236 227.893 309.276 227.883C309.626 227.803 310.374 227.305 310.638 227.099C310.907 226.895 310.543 226.707 310.551 226.671C310.605 226.463 310.994 225.945 311.036 225.91C313.133 224.178 315.39 222.465 316.028 219.815C316.073 219.612 315.664 219.636 315.667 219.604C315.687 218.911 316.541 219.7 316.993 219.259C316.212 219.17 316.426 218.908 316.399 218.402C316.382 218.159 316.067 218.261 316.039 218.236C315.613 217.872 316.202 217.681 316.324 217.608C316.771 217.367 316.23 217.133 316.511 216.953C316.788 216.756 317.269 217.112 317.203 216.589C316.908 216.491 316.233 216.932 316.067 216.604C315.55 215.427 314.795 213.084 313.98 212.208C313.244 211.346 312.912 211.16 312.46 210.656C311.686 209.844 311.637 210.369 311.065 210.287C311.012 210.282 310.953 210.271 310.888 210.253C310.145 210.055 311.163 209.136 311.229 208.836C311.29 208.535 311.028 208.716 310.991 208.508C310.954 208.299 311.32 208.298 311.065 208.07C310.827 207.849 309.781 207.83 309.537 208.039C309.021 208.478 309.039 209.244 308.428 208.645C308.392 208.61 308.696 208.376 308.549 208.257C307.386 207.327 305.971 206.646 304.715 205.845C304.539 205.732 304.863 205.448 304.761 205.378C303.705 204.659 303.866 205.442 302.961 205.858C303.473 205.019 303.332 204.316 302.46 203.967C301.929 203.755 301.866 204.186 301.413 204.333C301.274 204.375 301.008 203.964 300.869 204.125C300.416 204.651 300.516 205.465 299.71 204.858C299.675 204.83 299.925 204.542 299.794 204.471C298.942 204.01 298.621 204.619 297.62 204.356C296.851 204.156 295.624 203.306 294.774 202.961C295.13 201.929 294.218 201.897 293.661 202.511C293.106 202.303 292.47 202.151 291.955 201.885C291.777 201.793 291.993 201.529 291.979 201.489C291.768 200.865 291.307 201.49 291.175 201.481C289.761 201.347 288.822 200.497 287.393 200.657C287.342 200.663 287.064 201.372 286.87 200.743C286.859 200.7 287.375 200.486 286.779 200.292C286.186 200.098 285.15 199.392 284.218 199.506C283.993 199.533 283.321 199.99 283.031 199.417C282.993 199.339 283.108 199.145 283.06 199.007C282.9 198.566 282.565 199.27 282.428 198.561C282.29 197.852 281.781 197.216 280.814 197.432C280.783 197.438 280.431 197.975 280.166 197.898C279.743 197.774 279.165 197.498 278.716 197.391C278.501 197.34 278.547 197.74 278.509 197.737C277.022 197.586 276.077 197.011 274.56 196.501C274.285 196.407 273.35 196.715 272.893 196.192C272.389 195.618 273.435 193.959 271.937 194.067C271.331 194.109 270.111 196.24 269.365 194.826C267.344 194.683 265.669 193.683 263.616 193.689C263.523 193.689 263.103 194.27 262.897 194.218C262.59 194.139 262.485 193.804 262.271 193.739C261.362 193.455 260.476 193.54 259.584 193.317C259.274 193.24 259.409 192.986 259.113 192.873C259.09 192.865 259.065 192.857 259.036 192.85C258.627 192.75 258.273 193.104 257.779 192.8C257.388 192.565 257.138 191.646 256.618 191.443C256.436 192.265 256.043 192.17 255.349 192.262C255.216 192.28 255.295 192.593 255.229 192.617C254.946 192.716 254.759 192.433 254.495 192.55C254.431 192.578 254.375 192.86 254.32 192.899C253.862 193.242 253.3 192.479 253.219 192.35C252.873 191.851 252.586 192.179 252.295 191.955C252.002 191.731 252.524 191.612 252.161 191.442C251.386 191.088 250.346 190.955 249.532 190.81C249.2 190.753 249.366 191.168 249.317 191.168C248.643 191.158 247.991 190.649 247.528 191.356C247.315 189.335 247.091 191.484 246.181 190.98C246.111 190.941 246.109 190 246.425 189.898C246.748 189.797 247.155 190.142 247.598 189.987C247.71 189.952 248.377 189.163 248.475 189.125C249.123 188.803 249.013 190.2 249.028 190.279C249.239 191.149 250.071 190.33 250.258 190.296C251.124 190.138 251.77 190.452 252.496 190.366C252.954 190.309 253.165 189.419 253.517 189.512C254.647 189.816 254.821 191.148 256.111 190.271C256.388 190.085 256.343 189.057 257.04 189.994C257.08 190.053 257.55 190.878 258.006 190.505C258.063 190.458 258.119 190.172 258.184 190.16C258.609 190.083 258.819 190.362 259.28 190.342C259.391 190.337 259.507 190.33 259.628 190.325C259.992 190.307 260.396 190.309 260.762 190.461C261.059 190.582 261.316 191.188 261.433 191.348C261.752 191.804 262.322 191.282 262.474 191.787C262.625 192.294 261.998 192.886 262.584 193.315C262.763 192.58 262.978 191.831 263.172 191.095C264.623 191.425 265.965 191.962 267.43 192.247C267.607 192.281 267.513 191.844 267.707 191.87C268.522 191.983 269.18 192.425 270.036 192.498C270.709 192.556 271.512 192.296 272.217 192.346C272.445 193.286 273.508 193.23 274.226 193.479C274.477 193.566 274.409 193.788 274.572 193.904C275.19 194.336 275.046 193.516 275.262 193.444C276.187 193.135 275.863 194.838 276.815 195.024C276.865 195.034 277.698 194.286 277.798 194.252C278.428 194.02 277.811 194.585 278.133 194.735C278.718 195.007 279.09 195.325 279.878 195.244C280.109 195.22 280.753 194.788 281.052 195.324C281.092 195.394 280.987 195.682 281.025 195.71C281.733 196.198 281.993 195.276 282.522 195.077C283.051 194.878 283.575 195.7 283.667 195.921C283.909 196.495 283.332 196.051 283.3 196.093C282.92 196.589 283.448 196.625 283.819 196.773C283.634 197.697 284.183 197.784 284.205 196.924C284.206 196.83 283.885 196.835 283.819 196.773C284.391 195.971 285.016 196.014 285.442 197.022C285.641 197.495 285.229 197.87 286.198 197.957C286.637 197.997 286.647 197.328 287.064 197.26C288.017 197.106 288.956 197.999 289.85 198.16C290.177 198.218 289.967 197.788 290.193 197.817C290.796 197.892 291.222 198.295 291.838 198.337C291.894 198.341 291.872 197.947 292.054 197.996C293.427 198.364 294.535 198.956 295.948 199.42C296.627 199.642 297.916 199.856 298.604 200.137C299.809 200.623 301.127 201.674 302.196 201.942C302.909 202.125 302.891 201.723 303.275 201.6C304.01 201.36 304.687 202.583 304.762 202.762C304.764 202.768 304.151 202.611 304.388 202.914C304.417 203.355 304.754 202.761 304.762 202.762C304.812 202.876 305.937 203.444 306.193 203.482C306.332 203.501 306.405 203.149 306.475 203.165C308.152 203.562 309.752 204.23 311.23 205.254C311.254 205.276 311.019 205.594 311.078 205.642C311.892 206.308 312.708 206.251 313.602 206.515C313.62 206.52 313.638 206.526 313.656 206.531C314.55 206.827 315.06 207.366 315.045 208.217C315.627 208.588 316.163 209.515 316.418 210.072C316.66 210.61 317.303 210.2 317.35 210.23C318.794 211.263 319.042 212.45 319.603 214.252C319.893 215.112 320.289 216.93 320.301 217.951C320.335 218.755 320.092 219.203 320.063 219.922C320.058 220.02 320.412 219.995 320.418 220.027C320.63 220.925 319.907 220.336 319.726 220.457C319.047 220.877 318.695 221.077 318.576 222.018C318.554 222.224 319.366 223.318 319.22 223.728C319.038 224.239 318.766 223.851 318.575 224.372C318.558 224.415 318.79 224.549 318.598 224.827C317.702 226.124 316.518 227.256 315.434 228.313C315.284 228.457 315.768 228.581 315.552 228.796C314.536 229.806 313.276 230.741 311.998 231.303C311.68 231.441 311.709 231.077 311.6 231.041C311.362 230.962 311.195 231.037 311.07 231.169C310.88 231.384 310.823 231.78 310.777 231.817C309.06 233.219 307.249 233.401 305.354 234.672C305.257 234.742 304.729 235.897 304.047 235.424C304 235.394 303.326 234.902 303.182 235.502C303.172 235.54 303.564 235.777 303.123 235.924C302.686 236.07 302.086 236.585 301.345 236.432C301.107 236.386 300.42 235.878 300.054 236.621C300.038 236.671 299.576 238.211 298.971 237.464C298.872 237.34 298.632 236.424 298.103 237.103C298 237.234 298.302 237.362 297.996 237.596C297.523 237.957 296.748 237.919 296.194 238.504C296.1 238.607 295.761 239.363 295.24 238.986C295.16 238.927 295.202 238.591 294.985 238.607C293.951 238.683 292.945 239.109 291.886 239.075C291.512 239.062 291.608 238.525 291.213 238.453C290.821 238.38 290.055 238.363 289.701 238.647C289.342 238.931 289.882 239.684 289.294 239.826C286.735 240.437 284.142 240.102 281.615 240.056C281.24 240.049 281.554 240.34 280.998 240.347C280.916 240.348 280.832 240.35 280.746 240.351C278.766 240.388 275.594 240.604 273.965 239.994C272.608 239.486 274.327 239.121 273.286 238.91C272.784 238.81 272.237 239.754 272.116 239.782C270.924 240.074 270.11 239.643 269.046 239.756C268.827 239.78 269.035 240.168 268.849 240.184C268.202 240.24 267.539 240.057 266.924 240.077C266.648 240.087 266.693 240.382 266.44 240.354C265.839 240.291 265.304 240.156 264.72 239.867C264.667 239.841 265.037 239.484 264.591 239.46C263.873 239.422 262.98 239.126 262.135 239.381C261.885 239.458 261.852 240.129 261.338 239.649C261.229 239.548 261.404 238.747 260.754 239.422C260.643 239.535 259.573 240.437 259.076 239.81C258.946 239.646 258.631 238.972 258.331 239.063C258.29 239.078 258.439 239.445 258.186 239.47C257.304 239.549 256.39 239.466 255.488 239.53C255.244 239.547 255.585 239.94 255.221 239.954C254.236 239.993 252.992 239.817 252.035 239.627C251.683 239.556 251.952 239.267 251.929 239.231C251.547 238.653 251.243 239.369 251.1 239.4C250.212 239.585 249.578 239.178 248.765 239.186C248.543 239.187 248.662 239.554 248.615 239.58C248.122 239.836 248.532 239.244 248.246 239.143C247.455 238.857 246.537 238.772 245.691 238.694C245.385 238.666 245.669 239.121 245.389 239.09C243.715 238.904 241.966 238.553 240.206 237.754C239.869 237.597 240.19 237.372 240.14 237.28C240.076 237.153 239.99 237.067 239.892 237.01C239.577 236.808 239.042 237.097 238.92 237.109C238.229 237.179 238.092 236.834 237.547 236.693C234.888 236.014 231.589 234.578 229.065 233.001C227.289 231.903 225.772 230.649 224.437 229.164C223.475 228.073 222.528 226.955 221.502 225.655C221.36 225.473 221.165 225.911 221.037 225.755C219.415 223.716 218.143 221.247 217.367 218.246C217.307 217.997 216.992 218.444 216.883 218.037C216.67 217.252 216.577 216.196 216.692 215.318C216.699 215.277 216.707 215.237 216.715 215.197C216.778 214.888 217.116 215.304 217.173 214.994C217.305 214.27 217.344 213.481 217.311 212.696C217.296 212.361 216.87 212.851 216.884 212.413C217.042 209.646 217.023 206.015 220.216 202.71C220.294 202.65 220.375 202.585 220.46 202.517C220.593 202.413 221.329 202.816 221.45 202.412C221.29 202.246 221.078 202.079 220.895 201.917C223.183 198.803 226.598 195.017 231.562 193.294C231.771 193.222 231.26 192.938 231.672 192.796C232.652 192.464 233.654 192.209 234.667 192.076C235.802 191.929 236.944 191.855 238.141 191.989C238.343 192.012 238.316 192.786 238.883 192.614C238.982 192.583 239.839 192.402 240.053 192.218C240.081 192.19 239.892 191.846 240.173 191.812C241.804 191.624 243.532 191.608 245.165 191.77C245.427 191.797 245.161 192.188 245.35 192.211C246.675 192.368 248.106 192.055 249.354 192.396C250.189 192.626 249.883 193.288 250.325 193.937C250.387 194.028 250.899 194.042 250.924 194.421C250.991 195.372 250.747 196.413 250.847 197.427C250.869 197.645 251.548 197.41 251.147 197.938C251.119 197.973 250.626 198.148 250.505 198.328C250.421 198.452 250.572 198.836 250.402 198.995C250.23 199.153 250.043 198.831 249.76 199.018C249.481 199.208 249.604 199.644 249.045 199.7ZM317.336 212.631C317.282 213.268 318.507 212.704 317.918 212.326C317.887 212.308 317.337 212.598 317.336 212.631ZM265.755 192.957C266.205 193.661 266.791 192.896 266.477 192.358C266.162 191.822 265.618 192.744 265.755 192.957ZM259.637 192.122C260.218 192.718 260.709 190.87 259.904 191.101C259.858 191.113 259.603 192.088 259.637 192.122ZM248.285 194.134C248.293 194.152 248.659 194.166 248.669 194.148C248.862 193.718 248.123 193.692 248.285 194.134ZM253.552 191.413C253.712 191.705 254.395 191.531 254.184 191.164C254.009 190.868 253.349 191.049 253.552 191.413ZM304.694 231.126C304.679 231.111 304.435 231.21 304.489 231.31C304.665 231.631 304.95 231.376 304.694 231.126ZM243.124 190.201C244.876 190.097 245.496 191.843 244.015 191.596C243.739 191.565 244.609 191.095 244.26 190.951C243.919 190.818 243.634 191.014 243.405 191.197C243.156 191.388 243.085 191.521 242.662 191.432C242.587 191.416 242.623 191.103 242.728 190.799C242.836 190.49 243.074 190.203 243.127 190.198C243.126 190.199 243.125 190.2 243.124 190.201ZM316.082 213.691C316.073 213.708 316.228 214.032 316.246 214.032C316.722 214.017 316.395 213.332 316.082 213.691ZM289.984 234.997C289.958 234.965 289.131 235.048 289.108 235.085C288.766 235.84 290.466 235.671 289.984 234.997ZM294.77 202.929C294.259 203.215 293.798 203.121 293.662 202.512C294.025 202.657 294.401 202.782 294.77 202.929Z" fill="#F8F5EB" fill-opacity="0.75"/>
<path d="M255.29 198.82C254.081 198.95 252.488 198.859 251.271 198.724C250.888 198.683 251.075 198.438 250.811 198.399C250.291 198.323 249.821 198.456 249.308 198.366C249.136 198.334 249.334 197.949 249.154 197.925C248.179 197.796 247.265 197.933 246.281 197.902C242.773 197.793 239.304 197.885 235.799 198.077C234.698 198.129 233.66 198.341 232.7 198.744C231.567 199.192 230.113 199.955 229.306 201.218C229.212 201.362 229.535 201.49 229.537 201.532C229.557 202.183 229.131 201.642 228.854 201.864C228.178 202.413 227.595 203.167 226.967 204.042C226.662 204.457 226.419 204.912 226.238 205.364C226.046 205.864 226.872 205.681 226.311 205.991C226.272 206.015 226.012 205.741 225.915 205.859C225.692 206.127 225.508 206.753 225.395 206.995C225.172 207.462 225.149 207.548 225.007 208.019C224.813 208.663 224.465 209.428 224.424 210.179C224.417 210.339 224.806 210.191 224.828 210.446C224.847 210.702 224.733 211.353 224.627 211.569C224.519 211.784 224.247 211.661 224.178 211.694C223.595 211.979 224.299 212.834 224.315 212.93C224.539 214.778 224.165 216.381 224.321 218.158C224.443 219.502 224.78 220.914 224.981 222.189C225.063 222.714 225.129 223.222 225.193 223.712C225.244 224.286 225.465 224.891 225.986 225.475C226.07 225.569 226.298 225.182 226.398 225.291C227.475 226.429 229.111 227.492 230.754 228.656C230.915 228.77 230.52 228.988 230.673 229.123C231.626 229.96 233.212 231.45 234.529 230.231C235.284 230.611 236.225 231.047 236.845 231.629C237.229 231.997 236.638 232.211 237.271 232.26C237.414 232.272 237.368 231.876 237.573 231.919C238.442 232.099 239.309 232.529 240.173 232.632C240.352 232.653 240.41 232.336 240.476 232.298C241.028 231.997 241.432 232.944 241.56 233.045C242.541 233.812 243.391 233.916 244.415 234.254C244.653 234.332 244.501 233.835 244.734 233.895C245.96 234.221 247.188 234.64 248.296 235.175C248.546 235.296 248.198 235.572 248.312 235.648C248.819 235.978 249.147 235.358 249.625 235.657C249.727 235.719 249.575 235.999 249.585 236.038C249.748 236.649 250.246 236.001 250.333 236.01C251.454 236.104 251.867 237.055 252.921 237.245C253.044 237.266 252.886 236.809 253.225 236.891C254.473 237.192 255.736 237.561 257.007 237.994C258.045 238.349 259.018 238.709 260.008 239.095C260.343 239.225 260.027 239.454 260.04 239.495C260.265 240.136 260.669 239.444 260.786 239.441C261.731 239.445 262.437 240.246 263.223 239.469C266.985 240.518 270.796 240.412 274.619 241.188C274.668 241.197 274.585 241.575 274.682 241.591C275.878 241.782 275.635 241.197 276.365 240.449C276.55 240.261 277.187 241.09 277.245 241.149C277.451 241.369 277.291 241.942 277.358 241.983C277.914 242.3 277.701 240.458 278.397 240.395C278.42 240.396 278.359 240.744 278.421 240.773C278.615 240.862 278.783 240.708 278.973 240.807C279.417 241.032 279.684 241.911 280.251 241.307C280.322 241.228 280.059 240.206 280.694 240.164C280.946 240.152 282.039 239.952 282.355 239.958C282.671 239.967 282.527 240.34 282.551 240.35C283.47 240.627 283.195 240.869 283.756 241.43C284.323 241.984 283.863 240.469 283.993 240.259C284.128 240.05 284.82 240.265 284.999 240.352C285.178 240.44 285.046 240.695 285.196 240.732C286.214 240.961 285.39 239.873 285.613 239.555C286.116 238.805 286.961 239.775 287.625 239.685C287.802 239.661 287.585 239.451 287.725 239.379C288.269 239.103 288.753 239.324 289.298 238.772C289.395 238.679 289.658 237.832 290.192 238.178C290.268 238.228 290.235 238.554 290.504 238.519C290.9 238.471 291.589 238.26 291.945 238.003C292.207 237.814 291.689 237.512 292.108 237.496C292.293 237.49 292.109 237.874 292.447 237.84C292.795 237.802 293.56 237.452 293.846 237.314C294.131 237.176 293.826 236.913 293.838 236.88C293.933 236.684 294.408 236.279 294.468 236.253C295.004 236.004 295.568 235.778 296.131 235.59C298.039 234.975 299.956 234.352 301.067 232.746C301.175 232.588 300.795 232.448 300.808 232.421C301.053 231.833 301.574 232.848 302.136 232.642C301.45 232.261 301.731 232.118 301.881 231.669C301.95 231.453 301.625 231.42 301.608 231.387C301.342 230.907 301.959 230.965 302.096 230.953C302.595 230.921 302.188 230.502 302.516 230.461C302.846 230.405 303.146 230.901 303.291 230.432C303.062 230.227 302.269 230.329 302.252 229.977C302.209 228.965 302.639 227.381 302.724 226.131C302.753 225.808 302.764 225.497 302.755 225.274C302.702 224.198 302.582 223.861 302.571 223.218C302.53 222.049 302.081 222.58 301.686 221.943C301.284 221.321 302.655 221.335 302.909 221.167C303.162 220.998 302.848 220.957 302.969 220.794C303.09 220.631 303.348 220.853 303.329 220.545C303.312 220.232 302.596 219.565 302.278 219.55C301.606 219.515 301.073 220.047 301.073 219.242C301.073 219.195 301.451 219.231 301.434 219.056C301.286 217.666 300.815 216.307 300.518 214.938C300.477 214.749 300.902 214.76 300.882 214.648C300.667 213.476 300.218 214.112 299.301 213.827C300.247 213.57 300.657 213.008 300.29 212.194C300.068 211.706 299.722 211.97 299.306 211.79C299.181 211.736 299.28 211.272 299.071 211.299C298.387 211.388 297.89 212.02 297.751 211.098C297.745 211.057 298.12 211.006 298.078 210.876C297.803 210.031 297.15 210.254 296.628 209.477C296.22 208.869 295.915 207.534 295.516 206.79C296.448 206.219 295.795 205.669 294.989 205.823C294.71 205.354 294.337 204.897 294.109 204.413C294.03 204.245 294.355 204.154 294.369 204.115C294.586 203.508 293.855 203.758 293.762 203.684C292.786 202.867 292.516 201.733 291.336 201.221L291.561 201.391C291.537 201.388 291.514 201.386 291.49 201.384C291.441 201.381 291.025 202.017 290.993 201.375C290.991 201.332 291.512 201.215 291.011 200.923C290.516 200.633 289.713 199.774 288.834 199.746C288.619 199.737 287.917 200.086 287.764 199.487C287.744 199.406 287.887 199.232 287.868 199.09C287.801 198.636 287.363 199.279 287.364 198.566C287.367 197.855 286.995 197.156 286.06 197.252C286.029 197.254 285.62 197.741 285.385 197.635C285.008 197.463 284.518 197.132 284.114 196.98C283.92 196.908 283.909 197.308 283.873 197.301C282.52 197.012 281.71 196.366 280.35 195.773C280.095 195.661 279.212 195.924 278.822 195.385C278.392 194.797 279.494 193.182 278.059 193.238C277.476 193.261 276.237 195.36 275.597 193.953C273.713 193.81 272.135 192.861 270.204 192.99C270.116 192.995 269.752 193.602 269.561 193.564C269.277 193.507 269.162 193.181 268.955 193.132C268.101 192.919 267.272 193.083 266.437 192.955C266.123 192.908 266.264 192.603 265.882 192.549C265.5 192.495 265.214 192.888 264.711 192.646C264.339 192.463 263.997 191.583 263.48 191.452C263.413 192.291 263.045 192.25 262.407 192.442C262.281 192.48 262.4 192.778 262.34 192.811C262.098 192.951 261.891 192.7 261.665 192.856C261.61 192.893 261.598 193.18 261.553 193.227C261.16 193.636 260.575 192.975 260.464 192.861C260.062 192.425 259.873 192.797 259.557 192.625C259.245 192.454 259.716 192.248 259.35 192.143C258.792 191.983 258.099 191.97 257.477 191.978C257.244 191.986 257.03 191.995 256.829 192.001C256.519 192.012 256.749 192.385 256.705 192.396C256.078 192.523 255.403 192.159 255.112 192.948C254.514 191.016 254.745 193.164 253.818 192.865C253.745 192.841 253.543 191.924 253.809 191.756C254.076 191.589 254.527 191.839 254.898 191.595C254.982 191.537 255.452 190.626 255.522 190.569C256.071 190.119 256.228 191.51 256.261 191.585C256.639 192.392 257.227 191.423 257.396 191.352C257.411 191.345 257.427 191.338 257.443 191.332C257.448 191.332 257.462 191.331 257.466 191.331C258.205 191.047 258.862 191.229 259.489 191.025C259.917 190.892 259.969 189.979 260.305 190.012C261.432 190.128 261.759 191.416 262.861 190.363C263.097 190.139 262.93 189.127 263.699 189.96C263.746 190.012 264.304 190.769 264.679 190.342C264.727 190.288 264.748 189.998 264.807 189.978C265.205 189.85 265.45 190.103 265.878 190.03C266.311 189.958 266.834 189.844 267.308 189.997C267.598 190.088 267.897 190.67 268.019 190.819C268.362 191.246 268.856 190.679 269.034 191.171C269.21 191.666 268.647 192.301 269.229 192.687C269.359 191.942 269.524 191.181 269.671 190.433C271.072 190.663 272.398 191.144 273.79 191.397C273.964 191.428 273.869 190.993 274.059 191.016C274.853 191.117 275.471 191.553 276.302 191.636C276.944 191.698 277.741 191.459 278.417 191.532C278.588 192.475 279.615 192.461 280.288 192.752C280.521 192.852 280.436 193.068 280.584 193.193C281.144 193.662 281.074 192.838 281.289 192.78C282.214 192.54 281.733 194.203 282.622 194.466C282.667 194.479 283.545 193.811 283.646 193.787C284.278 193.617 283.62 194.119 283.91 194.298C284.431 194.622 284.751 194.979 285.506 194.986C285.725 194.986 286.408 194.64 286.614 195.206C286.64 195.28 286.497 195.551 286.529 195.584C287.12 196.152 287.512 195.28 288.053 195.16C288.591 195.038 288.951 195.925 288.998 196.156C289.126 196.757 288.656 196.233 288.618 196.27C288.172 196.701 288.666 196.813 288.988 197.015C288.644 197.891 289.137 198.058 289.32 197.221C289.339 197.128 289.038 197.085 288.988 197.015C289.669 196.313 290.265 196.46 290.465 197.516C290.556 198.011 290.095 198.306 290.981 198.554C291.383 198.67 291.534 198.021 291.938 198.029C292.356 198.038 292.729 198.259 293.084 198.53C293.216 198.607 293.564 198.854 293.666 198.968C293.988 199.426 294.25 199.948 294.609 200.282C294.849 200.505 294.909 200.033 295.083 200.18C295.542 200.568 295.668 201.142 296.137 201.522C296.181 201.557 296.392 201.225 296.51 201.369C297.406 202.459 297.905 203.59 298.674 204.805C299.047 205.389 299.863 206.351 300.179 206.999C300.739 208.12 300.955 209.715 301.523 210.604C301.894 211.187 302.164 210.893 302.519 211.056C303.209 211.376 302.815 212.666 302.739 212.84C302.737 212.845 302.422 212.337 302.373 212.702C302.081 213.027 302.735 212.834 302.739 212.84C302.696 212.955 303.069 214.076 303.219 214.271C303.302 214.376 303.603 214.18 303.64 214.238C304.516 215.605 305.133 217.108 305.433 218.736C305.435 218.766 305.045 218.833 305.052 218.901C305.142 219.852 305.757 220.319 306.215 221.033C306.672 221.754 306.7 222.421 306.115 223.007C306.303 223.589 306.124 224.515 305.988 225.037C305.853 225.556 306.616 225.584 306.635 225.629C306.678 225.734 306.715 225.836 306.746 225.936C307.123 227.221 306.735 228.108 306.44 229.58C306.3 230.342 305.973 231.919 305.634 232.796C305.386 233.486 305.009 233.786 304.732 234.41C304.693 234.495 305.027 234.609 305.022 234.64C304.903 235.521 304.443 234.72 304.233 234.757C303.461 234.87 303.07 234.913 302.616 235.712C302.523 235.886 302.845 237.204 302.554 237.516C302.19 237.904 302.093 237.443 301.722 237.83C301.69 237.861 301.847 238.079 301.566 238.248C300.344 238.986 298.99 239.444 297.872 239.899C297.816 239.922 297.759 239.946 297.701 239.972C297.571 240.029 297.901 240.347 297.715 240.437C296.83 240.864 295.718 241.361 294.618 241.624C294.346 241.688 294.387 241.349 294.297 241.293C293.744 240.957 293.584 241.859 293.501 241.909C291.731 243.047 289.957 242.965 288.01 243.895C287.908 243.947 287.248 244.994 286.671 244.413C286.632 244.375 286.057 243.778 285.845 244.339C285.83 244.375 286.162 244.677 285.731 244.743C285.296 244.81 284.664 245.209 283.99 244.928C283.769 244.841 283.214 244.217 282.763 244.881C282.738 244.928 282.081 246.357 281.633 245.515C281.56 245.376 281.478 244.432 280.879 245.006C280.767 245.117 281.023 245.296 280.71 245.471C280.229 245.74 279.501 245.568 278.917 246.047C278.816 246.132 278.385 246.817 277.963 246.357C277.899 246.285 277.987 245.961 277.787 245.94C276.83 245.837 275.851 246.091 274.87 245.886C274.533 245.813 274.699 245.299 274.352 245.165C274.008 245.03 273.291 244.892 272.932 245.118C272.564 245.343 272.945 246.17 272.389 246.22C269.948 246.429 267.599 245.725 265.262 245.307C264.915 245.245 265.162 245.578 264.644 245.504C262.742 245.246 259.427 244.822 257.981 243.801C256.835 242.993 258.513 243.034 257.609 242.592C257.178 242.38 256.425 243.158 256.302 243.155C256.034 243.152 255.791 243.117 255.565 243.062C254.814 242.883 254.27 242.488 253.517 242.375C253.312 242.344 253.4 242.77 253.225 242.738C252.625 242.635 252.071 242.296 251.524 242.169C251.279 242.113 251.24 242.408 251.018 242.319C250.484 242.11 250.041 241.851 249.601 241.433C249.561 241.395 249.983 241.139 249.594 241.01C248.943 240.795 248.228 240.298 247.405 240.342C247.157 240.355 246.952 240.995 246.612 240.407C246.541 240.284 246.901 239.551 246.15 240.05C246.034 240.136 244.811 240.743 244.539 240.023C244.466 239.834 244.363 239.11 244.068 239.126C244.027 239.131 244.065 239.521 243.831 239.484C243.006 239.348 242.227 239.059 241.384 238.903C241.162 238.863 241.362 239.321 241.035 239.25C240.138 239.057 239.083 238.603 238.253 238.193C237.953 238.043 238.271 237.826 238.259 237.786C238.071 237.142 237.624 237.768 237.479 237.763C236.617 237.733 236.174 237.205 235.43 237.028C235.229 236.98 235.243 237.361 235.194 237.376C234.689 237.516 235.206 237.033 234.981 236.874C234.33 236.42 233.543 236.146 232.802 235.895C232.534 235.806 232.674 236.303 232.436 236.218C230.998 235.71 229.533 235.025 228.245 234.125C228.007 233.957 228.312 233.758 228.291 233.667C228.145 233.031 227.286 233.347 227.128 233.334C226.39 233.267 226.321 232.905 225.771 232.63C223.603 231.517 220.236 229.169 219.432 224.866C219.381 224.535 219.333 224.203 219.29 223.892C218.85 220.607 218.858 218.023 218.749 214.794C218.744 214.587 218.326 214.797 218.317 214.617C218.221 212.292 218.569 209.965 219.013 207.512C219.052 207.31 218.596 207.51 218.647 207.177C218.749 206.494 219.02 205.639 219.38 205.005C219.555 204.696 219.718 205.25 219.887 204.94C220.282 204.227 220.651 203.441 220.99 202.656C221.136 202.319 220.516 202.621 220.74 202.192C221.063 201.578 221.426 200.973 221.833 200.391C222.717 199.084 224.165 196.786 226.438 195.324C226.637 195.195 227.323 195.685 227.589 195.269C227.475 195.068 227.306 194.858 227.168 194.656C229.42 192.736 232.473 191.737 235.205 191.595C236.733 191.509 238.262 191.441 239.794 191.346C239.951 191.336 239.647 190.92 239.952 190.899C241.723 190.776 243.435 190.546 245.267 190.884C245.449 190.917 245.4 191.689 245.916 191.546C246.013 191.519 246.796 191.378 246.999 191.202C247.025 191.176 246.863 190.824 247.12 190.802C248.606 190.679 250.182 190.703 251.676 190.881C251.92 190.911 251.672 191.299 251.845 191.324C253.055 191.494 254.382 191.179 255.546 191.515C256.327 191.741 256.035 192.405 256.457 193.052C256.512 193.143 256.995 193.156 257.016 193.535C257.079 194.486 256.857 195.528 256.951 196.541C256.973 196.759 257.592 196.524 257.228 197.052C257.202 197.087 256.752 197.263 256.636 197.443C256.561 197.567 256.699 197.951 256.545 198.11C256.389 198.269 256.214 197.947 255.952 198.136C255.69 198.326 255.811 198.762 255.29 198.82ZM305.262 227.355C304.878 227.808 306.218 227.958 305.917 227.405C305.901 227.379 305.28 227.332 305.262 227.355ZM272.2 192.154C272.644 192.84 273.186 192.059 272.884 191.533C272.571 191.006 272.063 191.946 272.2 192.154ZM266.384 191.762C266.978 192.294 267.292 190.408 266.546 190.718C266.503 190.736 266.349 191.731 266.384 191.762ZM254.558 193.256C254.565 193.274 254.907 193.287 254.913 193.269C255.089 192.839 254.407 192.814 254.558 193.256ZM260.635 191.882C260.83 192.144 261.419 191.864 261.177 191.535C260.981 191.27 260.388 191.555 260.635 191.882ZM287.841 240.305C287.829 240.289 287.587 240.346 287.625 240.452C287.751 240.796 288.051 240.593 287.841 240.305ZM250.925 192.61C252.384 192.38 253.427 193.836 251.932 193.907C251.657 193.924 252.421 193.307 252.053 193.229C251.362 193.091 251.157 194.147 250.402 193.782C250.259 193.715 250.836 192.619 250.927 192.607C250.926 192.608 250.926 192.609 250.925 192.61ZM303.637 227.556C303.62 227.565 303.583 227.899 303.6 227.907C304.015 228.124 304.09 227.43 303.637 227.556ZM273.733 241.558C273.713 241.521 272.935 241.474 272.913 241.507C272.486 242.199 274.076 242.298 273.733 241.558ZM295.533 206.763C294.975 206.688 294.704 206.367 294.989 205.825C295.167 206.141 295.36 206.443 295.533 206.763Z" fill="#D9D5C8" fill-opacity="0.75"/>
<path d="M200.219 250.19C199.366 250.311 198.244 250.197 197.387 250.039C197.121 249.99 197.252 249.749 197.067 249.704C196.706 249.617 196.368 249.741 196.012 249.637C195.893 249.602 196.032 249.221 195.908 249.193C195.221 249.04 194.581 249.151 193.891 249.09C190.486 248.79 187.14 248.798 183.731 248.905C182.609 248.941 181.214 248.732 180.091 249.022C179.96 249.056 180.08 249.375 180.058 249.405C179.716 249.87 179.766 249.189 179.497 249.134C178.43 248.92 177.28 249.07 176.371 249.392C175.988 249.531 176.521 250.089 176.053 249.814C176.019 249.796 176.044 249.429 175.925 249.418C175.657 249.391 175.22 249.567 175.04 249.591C174.759 249.625 174.661 249.649 174.492 249.702C174.474 249.707 174.455 249.713 174.436 249.72C174.323 249.765 174.21 249.636 174.228 249.78C174.238 249.805 174.585 249.906 174.641 249.933C174.698 249.944 174.653 250.035 174.573 250.116C174.49 250.185 174.206 250.177 174.142 250.195C173.597 250.388 174.431 250.663 174.462 250.678C174.987 251.389 175.144 252.385 175.828 253.233C175.847 253.256 175.866 253.279 175.886 253.302C176.437 253.94 177.208 254.448 177.855 254.969C178.625 255.589 179.245 256.214 180.148 256.677C180.241 256.725 180.339 256.294 180.451 256.351C181.662 256.955 182.892 257.547 184.102 258.305C184.225 258.382 183.922 258.667 184.039 258.765C184.731 259.356 185.876 260.497 186.842 259.087C187.38 259.315 188.063 259.572 188.491 260.02C188.772 260.31 188.345 260.62 188.803 260.558C188.906 260.544 188.871 260.169 189.019 260.174C189.632 260.193 190.251 260.456 190.872 260.404C190.998 260.392 191.034 260.074 191.079 260.025C191.454 259.631 191.765 260.48 191.86 260.556C192.557 261.122 193.18 261.072 193.907 261.209C194.077 261.241 193.949 260.785 194.115 260.8C194.98 260.888 195.85 261.06 196.669 261.368C196.849 261.438 196.627 261.774 196.71 261.826C197.082 262.049 197.262 261.378 197.622 261.576C197.699 261.617 197.613 261.92 197.623 261.956C197.784 262.52 198.084 261.789 198.142 261.78C198.906 261.644 199.303 262.491 200.035 262.457C200.122 262.452 199.97 262.039 200.214 262.049C201.848 262.113 203.543 262.365 205.139 262.786C205.387 262.851 205.188 263.135 205.202 263.173C205.423 263.76 205.64 263.006 205.723 262.983C206.386 262.816 206.951 263.489 207.438 262.6C210.164 263.053 212.899 262.602 215.62 263.422C215.655 263.431 215.592 263.808 215.661 263.826C216.496 264.037 216.336 263.451 216.883 262.732C217.021 262.551 217.448 263.413 217.486 263.476C217.625 263.709 217.488 264.271 217.535 264.316C217.917 264.667 217.836 262.813 218.344 262.806C218.36 262.809 218.298 263.151 218.341 263.185C218.475 263.29 218.605 263.152 218.737 263.268C218.771 263.298 218.803 263.337 218.834 263.381C219.071 263.721 219.216 264.374 219.607 263.9C219.663 263.83 219.55 262.781 219.999 262.818C220.183 262.835 220.966 262.789 221.195 262.846C221.421 262.905 221.283 263.25 221.3 263.264C221.922 263.684 221.702 263.88 222.038 264.528C222.38 265.172 222.211 263.602 222.324 263.419C222.438 263.237 222.899 263.58 223.015 263.701C223.131 263.823 223.01 264.046 223.111 264.113C223.792 264.544 223.342 263.312 223.535 263.048C223.98 262.422 224.459 263.557 224.923 263.632C225.048 263.652 224.925 263.395 225.031 263.361C225.458 263.226 225.75 263.565 226.21 263.181C226.286 263.118 226.604 262.377 226.914 262.86C226.959 262.93 226.888 263.231 227.081 263.275C227.372 263.34 227.867 263.343 228.156 263.206C228.365 263.106 228.052 262.663 228.345 262.774C228.475 262.824 228.288 263.133 228.53 263.203C228.766 263.274 229.356 263.176 229.572 263.133C229.79 263.09 229.615 262.748 229.629 262.721C229.717 262.566 230.11 262.326 230.146 262.32C232.002 261.975 233.842 262.228 235.601 261.585C235.737 261.536 235.551 261.186 235.571 261.174C236.012 260.898 235.882 261.984 236.306 262.229C236.065 261.486 236.296 261.573 236.616 261.401C236.769 261.317 236.602 261.049 236.609 261.015C236.732 260.508 237.049 261.035 237.126 261.139C237.406 261.525 237.44 260.969 237.628 261.225C237.817 261.479 237.685 261.972 238.009 261.874C238.024 261.58 237.582 260.948 237.797 260.763C238.594 260.077 240.46 260.08 241.214 259.877C241.962 259.68 242.184 259.543 242.64 259.484C242.954 259.441 243.082 259.357 243.138 259.247C243.139 259.174 243.097 259.08 243.03 259C242.964 258.926 242.85 258.839 242.661 258.982C242.379 259.282 242.716 259.342 243.04 259.335C243.378 259.33 243.781 259.374 243.925 259.342C244.211 259.248 243.908 259.179 244.038 259.051C244.161 258.903 244.421 259.109 244.395 258.807C244.356 258.448 243.56 258.18 243.284 258.323C242.689 258.593 242.311 259.172 242.205 258.688C242.197 258.658 242.519 258.492 242.474 258.389C242.085 257.562 241.291 256.933 240.617 256.225C240.524 256.127 240.831 255.86 240.778 255.799C240.204 255.158 240.11 255.872 239.387 256.301C239.941 255.5 240.016 254.853 239.444 254.56C239.099 254.386 238.977 254.8 238.633 254.969C238.53 255.02 238.413 254.648 238.288 254.812C237.885 255.349 237.816 256.108 237.378 255.612C237.358 255.589 237.571 255.291 237.493 255.236C237.487 255.231 237.48 255.227 237.474 255.223C236.975 254.897 236.661 255.49 236.038 255.354C235.544 255.247 234.805 254.572 234.257 254.342C234.579 253.299 233.96 253.379 233.54 254.044C233.179 253.912 232.767 253.846 232.434 253.653C232.319 253.587 232.478 253.302 232.471 253.265C232.36 252.684 232.017 253.353 231.931 253.361C230.991 253.418 230.392 252.714 229.435 253.067C229.4 253.08 229.198 253.812 229.085 253.223C229.078 253.183 229.426 252.902 229.035 252.795C228.643 252.687 227.966 252.141 227.345 252.385C227.195 252.443 226.747 252.988 226.559 252.467C226.534 252.396 226.611 252.189 226.579 252.061C226.475 251.651 226.252 252.39 226.161 251.714C226.07 251.039 225.723 250.486 225.083 250.84C225.062 250.85 224.834 251.429 224.658 251.393C224.376 251.333 223.991 251.148 223.692 251.109C223.549 251.09 223.587 251.477 223.561 251.48C222.577 251.554 221.943 251.131 220.931 250.863C220.744 250.813 220.146 251.262 219.825 250.819C219.529 250.412 219.908 249.088 219.464 248.865C219.377 248.822 219.259 248.821 219.098 248.877C218.699 249.015 218.009 251.308 217.448 250.037C216.12 250.225 214.957 249.518 213.619 249.868C213.559 249.883 213.334 250.527 213.197 250.51C212.993 250.483 212.898 250.171 212.753 250.142C212.144 250.015 211.568 250.248 210.979 250.178C210.755 250.152 210.849 249.839 210.582 249.808C210.314 249.778 210.116 250.186 209.762 249.968C209.495 249.802 209.26 248.937 208.899 248.821C208.848 249.661 208.598 249.632 208.144 249.834C208.056 249.874 208.135 250.17 208.093 250.204C207.922 250.347 207.78 250.098 207.617 250.255C207.577 250.293 207.562 250.58 207.529 250.627C207.246 251.038 206.84 250.373 206.77 250.257C206.503 249.817 206.352 250.184 206.14 250.006C205.928 249.828 206.266 249.633 206.014 249.519C205.493 249.284 204.809 249.298 204.271 249.258C204.057 249.243 204.184 249.634 204.153 249.641C203.703 249.715 203.275 249.284 202.987 250.033C202.787 248.044 202.708 250.21 202.093 249.778C202.044 249.743 202.037 248.807 202.236 248.682C202.435 248.556 202.709 248.864 202.987 248.666C203.053 248.619 203.46 247.765 203.511 247.714C203.917 247.321 203.899 248.717 203.916 248.795C204.105 249.633 204.594 248.713 204.713 248.654C205.259 248.382 205.701 248.599 206.156 248.406C206.454 248.282 206.523 247.37 206.75 247.408C207.506 247.535 207.715 248.82 208.482 247.748C208.647 247.519 208.538 246.514 209.056 247.324C209.088 247.375 209.466 248.112 209.724 247.669C209.756 247.613 209.769 247.322 209.809 247.299C210.08 247.153 210.245 247.393 210.538 247.296C210.831 247.199 211.186 247.051 211.511 247.166C211.706 247.235 211.933 247.79 212.02 247.928C212.267 248.324 212.589 247.714 212.73 248.186C212.87 248.66 212.505 249.348 212.924 249.673C212.984 248.918 213.066 248.145 213.136 247.387C214.101 247.47 215.037 247.775 216.011 247.814C216.132 247.818 216.039 247.404 216.17 247.398C216.722 247.375 217.177 247.702 217.754 247.637C218.201 247.585 218.725 247.201 219.198 247.139C219.27 247.462 219.409 247.638 219.581 247.738C219.881 247.914 220.283 247.856 220.593 247.941C220.763 247.988 220.726 248.216 220.84 248.305C221.271 248.636 221.143 247.851 221.285 247.747C221.896 247.302 221.733 249.026 222.375 249.066C222.409 249.068 222.944 248.207 223.01 248.159C223.426 247.836 223.028 248.485 223.247 248.584C223.646 248.764 223.901 249.023 224.428 248.827C224.581 248.768 225.01 248.251 225.219 248.734C225.246 248.797 225.179 249.095 225.205 249.118C225.686 249.494 225.851 248.551 226.207 248.28C226.566 248.009 226.925 248.742 226.987 248.946C227.151 249.475 226.761 249.121 226.739 249.167C226.484 249.708 226.841 249.668 227.09 249.761C226.965 250.693 227.332 250.701 227.349 249.854C227.35 249.761 227.134 249.812 227.09 249.761C227.475 248.892 227.903 248.848 228.184 249.778C228.315 250.214 228.033 250.638 228.685 250.588C228.981 250.567 228.996 249.91 229.281 249.787C229.934 249.506 230.556 250.255 231.161 250.294C231.383 250.308 231.252 249.915 231.407 249.914C231.816 249.908 232.099 250.247 232.522 250.21C232.56 250.206 232.561 249.825 232.684 249.85C233.623 250.036 234.365 250.478 235.329 250.769C235.792 250.907 236.693 250.977 237.168 251.185C237.679 251.405 238.201 251.835 238.697 252.177C239.013 252.391 239.314 252.573 239.606 252.651C240.114 252.794 240.166 252.411 240.485 252.285C241.107 252.04 241.399 253.202 241.409 253.368C241.41 253.373 240.973 253.229 241.09 253.512C241.016 253.925 241.403 253.366 241.409 253.368C241.431 253.476 242.156 254.014 242.349 254.063C242.453 254.085 242.601 253.762 242.652 253.779C243.876 254.24 244.993 254.918 245.961 256.466C245.975 256.497 245.628 256.687 245.662 256.755C245.888 257.236 246.207 257.597 246.546 258.251C246.708 258.577 246.886 259.013 246.923 259.639C246.967 260.263 246.773 261.162 246.252 261.872C245.685 262.646 245.082 262.982 244.612 263.183C244.31 263.348 243.971 263.277 243.588 262.891C243.239 263.109 242.6 263.018 242.225 262.956C241.858 262.89 242.058 263.63 242.035 263.654C241.32 264.405 240.675 264.153 239.747 264.362C239.302 264.462 238.476 264.814 238.02 265.023C237.666 265.189 237.39 265.076 237.075 265.275C237.032 265.301 237.164 265.619 237.153 265.636C236.862 266.13 236.846 265.275 236.729 265.151C236.311 264.698 236.068 264.462 235.636 264.825C235.54 264.908 235.474 266.155 235.276 266.271C235.023 266.419 235.033 265.976 234.769 266.141C234.746 266.154 234.808 266.413 234.626 266.44C233.793 266.567 232.865 266.593 232.008 266.771C231.892 266.794 232.114 267.182 231.947 267.222C231.154 267.412 230.274 267.535 229.463 267.45C229.262 267.428 229.343 267.119 229.289 267.038C228.966 266.55 228.708 267.359 228.648 267.382C227.262 267.933 226.097 267.356 224.673 267.805C224.594 267.831 224.047 268.7 223.722 268.013C223.7 267.968 223.377 267.265 223.177 267.773C223.164 267.805 223.354 268.166 223.06 268.146C222.768 268.126 222.299 268.402 221.882 268.012C221.748 267.889 221.415 267.183 221.061 267.772C221.041 267.814 220.498 269.134 220.257 268.244C220.219 268.097 220.221 267.148 219.789 267.646C219.706 267.742 219.867 267.95 219.643 268.088C219.434 268.217 219.176 268.176 218.91 268.222C218.744 268.25 218.576 268.315 218.414 268.482C218.342 268.558 218.035 269.206 217.779 268.719C217.739 268.643 217.81 268.326 217.678 268.291C217.049 268.127 216.388 268.343 215.75 268.123C215.524 268.046 215.64 267.534 215.405 267.396C215.172 267.258 214.697 267.124 214.45 267.356C214.202 267.589 214.465 268.408 214.094 268.47C212.479 268.739 210.883 268.225 209.279 268.096C209.04 268.077 209.228 268.376 208.874 268.368C207.582 268.343 205.298 268.492 204.218 267.79C203.346 267.229 204.513 266.933 203.838 266.681C203.514 266.561 203.082 267.479 202.999 267.503C202.194 267.743 201.672 267.275 200.959 267.337C200.811 267.349 200.917 267.746 200.791 267.753C200.357 267.778 199.923 267.561 199.514 267.549C199.331 267.544 199.332 267.84 199.167 267.799C198.771 267.704 198.422 267.539 198.065 267.219C198.032 267.189 198.316 266.855 198.021 266.806C197.547 266.728 196.983 266.381 196.395 266.584C196.22 266.645 196.12 267.309 195.834 266.8C195.773 266.694 195.985 265.91 195.471 266.539C195.386 266.644 194.547 267.469 194.303 266.816C194.239 266.644 194.117 265.956 193.902 266.026C193.872 266.038 193.922 266.412 193.751 266.419C193.149 266.439 192.562 266.297 191.939 266.295C191.774 266.295 191.943 266.707 191.698 266.696C191.031 266.666 190.222 266.404 189.613 266.151C189.389 266.057 189.617 265.79 189.607 265.753C189.457 265.16 189.127 265.842 189.026 265.864C188.392 265.983 188.055 265.545 187.499 265.499C187.348 265.486 187.364 265.854 187.327 265.877C186.95 266.097 187.331 265.542 187.159 265.425C186.683 265.098 186.085 264.964 185.539 264.852C185.338 264.811 185.444 265.267 185.265 265.226C184.195 264.986 183.1 264.586 182.167 264.001C181.987 263.888 182.219 263.639 182.204 263.556C182.105 262.984 181.464 263.47 181.346 263.493C180.821 263.606 180.752 263.276 180.362 263.167C178.441 262.643 176.27 261.284 174.709 259.985C173.494 258.988 172.543 257.932 171.663 256.771C171.069 255.979 170.498 255.15 169.918 254.103C169.827 253.936 169.542 254.298 169.458 254.152C168.931 253.187 168.504 252.059 168.409 250.547C168.295 249.112 168.756 246.776 170.511 245.247C170.789 245.008 170.115 245.035 170.581 244.639C171.133 244.185 171.83 243.829 172.47 243.643C172.72 243.577 172.978 243.535 173.213 243.525C173.461 243.518 173.245 243.933 173.49 243.92C174.071 243.89 174.64 243.786 175.137 243.617C175.355 243.543 174.933 243.216 175.226 243.151C177.188 242.714 179.024 242.415 180.933 242.742C181.065 242.765 181.259 243.574 181.514 243.39C181.512 243.16 181.484 242.892 181.469 242.648C184.125 242.257 186.754 242.38 189.385 242.303C189.496 242.3 189.284 241.872 189.499 241.863C190.745 241.814 191.949 241.648 193.231 242.045C193.358 242.084 193.316 242.854 193.684 242.727C193.749 242.704 194.301 242.586 194.442 242.416C194.461 242.39 194.35 242.034 194.53 242.019C195.571 241.939 196.674 242 197.718 242.205C197.887 242.239 197.713 242.623 197.833 242.651C198.684 242.842 199.602 242.543 200.417 242.887C200.958 243.118 200.758 243.779 201.05 244.429C201.092 244.52 201.426 244.534 201.443 244.913C201.487 245.864 201.329 246.905 201.395 247.919C201.41 248.137 201.844 247.902 201.587 248.43C201.57 248.465 201.253 248.641 201.174 248.82C201.119 248.944 201.219 249.328 201.107 249.487C200.995 249.645 200.868 249.323 200.687 249.51C200.504 249.699 200.588 250.136 200.219 250.19ZM240.567 262.655C240.167 262.397 240.529 263.694 240.749 263.286C240.759 263.265 240.588 262.667 240.567 262.655ZM214.963 248.791C215.31 249.409 215.638 248.558 215.395 248.081C215.151 247.605 214.856 248.603 214.963 248.791ZM210.915 248.991C211.343 249.481 211.512 247.579 211.006 247.94C210.977 247.96 210.89 248.963 210.915 248.991ZM199.722 244.62C199.726 244.638 199.964 244.654 199.969 244.636C200.094 244.208 199.618 244.176 199.722 244.62ZM206.917 249.28C207.047 249.544 207.465 249.265 207.305 248.936C207.175 248.672 206.756 248.952 206.917 249.28ZM224.993 264.285C224.987 264.265 224.815 264.262 224.828 264.375C224.871 264.738 225.1 264.614 224.993 264.285ZM200.181 248.936C201.166 249.077 201.677 250.687 200.596 250.439C200.401 250.393 201.055 249.965 200.813 249.807C200.373 249.518 199.998 250.484 199.567 249.92C199.491 249.817 200.126 248.925 200.183 248.934C200.182 248.935 200.182 248.935 200.181 248.936ZM239.91 261.168C239.898 261.153 239.667 261.209 239.667 261.227C239.672 261.674 240.141 261.561 239.91 261.168ZM214.987 263.788C214.974 263.751 214.425 263.712 214.407 263.746C214.114 264.443 215.229 264.524 214.987 263.788ZM234.256 254.312C233.891 254.652 233.591 254.619 233.541 254.045C233.777 254.14 234.02 254.214 234.256 254.312Z" fill="#D9D5C8" fill-opacity="0.75"/>
<path d="M316.906 253.913C315.742 254.073 314.164 254.053 312.963 253.988C312.592 253.968 312.757 253.714 312.495 253.69C311.971 253.646 311.529 253.809 311.006 253.755C310.834 253.736 310.999 253.337 310.823 253.325C309.858 253.265 308.944 253.476 307.978 253.53C303.152 253.809 298.441 254.653 293.686 255.851C292.117 256.246 290.139 256.517 288.611 257.218C288.432 257.299 288.653 257.573 288.627 257.611C288.221 258.2 288.176 257.505 287.789 257.551C286.253 257.734 284.669 258.326 283.383 259.015C282.836 259.309 283.665 259.67 282.951 259.575C282.901 259.57 282.904 259.184 282.734 259.217C282.349 259.292 281.703 259.65 281.424 259.747C280.879 259.936 280.794 259.979 280.3 260.208C280.23 260.241 280.157 260.272 280.083 260.303C279.502 260.541 278.809 260.775 278.323 261.191C278.21 261.29 278.573 261.479 278.418 261.66C278.259 261.84 277.771 262.181 277.568 262.251C277.359 262.32 277.235 262.052 277.165 262.028C276.552 261.828 276.581 262.897 276.555 262.966C275.753 264.37 274.824 265.405 274.345 267.089C274.272 267.35 274.207 267.623 274.146 267.905C273.972 268.739 274.076 269.581 274.245 270.37C274.388 271.046 274.583 271.699 274.877 272.348C275.082 272.806 275.356 273.256 275.73 273.684C275.821 273.788 276.043 273.393 276.152 273.515C277.326 274.805 278.852 275.948 280.449 277.169C280.612 277.293 280.202 277.491 280.356 277.635C281.27 278.507 282.871 280.035 284.184 278.811C284.941 279.194 285.887 279.621 286.509 280.187C286.908 280.55 286.316 280.774 286.955 280.812C287.1 280.821 287.043 280.426 287.251 280.463C288.115 280.62 288.999 281.02 289.879 281.089C290.059 281.103 290.103 280.784 290.167 280.743C290.696 280.415 291.153 281.342 291.288 281.437C292.298 282.149 293.167 282.204 294.223 282.473C294.466 282.535 294.279 282.049 294.517 282.093C295.473 282.276 296.436 282.507 297.37 282.806C297.639 282.893 297.904 282.984 298.167 283.08C298.422 283.174 298.109 283.484 298.228 283.548C298.758 283.822 299.006 283.167 299.515 283.405C299.623 283.454 299.508 283.751 299.523 283.789C299.761 284.374 300.168 283.666 300.252 283.662C301.338 283.595 301.917 284.47 302.972 284.468C303.097 284.466 302.859 284.045 303.207 284.064C305.529 284.188 307.974 284.393 310.302 284.696C310.663 284.743 310.408 285.041 310.431 285.077C310.807 285.646 311.042 284.877 311.159 284.846C312.084 284.625 312.98 285.237 313.577 284.3C317.533 284.45 321.403 283.542 325.416 283.851C325.468 283.854 325.426 284.24 325.528 284.244C326.753 284.299 326.449 283.747 327.142 282.93C327.315 282.725 328.04 283.498 328.103 283.553C328.332 283.758 328.206 284.341 328.278 284.377C328.871 284.653 328.522 282.829 329.252 282.724C329.275 282.724 329.228 283.076 329.294 283.1C329.5 283.178 329.669 283.017 329.872 283.106C330.336 283.313 330.623 284.182 331.197 283.567C331.27 283.487 330.988 282.465 331.647 282.417C331.913 282.398 333.056 282.206 333.391 282.223C333.722 282.241 333.554 282.61 333.579 282.621C334.514 282.93 334.214 283.164 334.753 283.752C334.86 283.868 334.931 283.901 334.978 283.876C335.169 283.778 334.957 282.757 335.077 282.596C335.228 282.394 335.92 282.657 336.096 282.759C336.272 282.86 336.114 283.104 336.263 283.154C337.263 283.47 336.539 282.314 336.8 282.016C337.41 281.312 338.16 282.367 338.837 282.361C339.018 282.36 338.827 282.124 338.979 282.071C339.574 281.865 340.029 282.151 340.664 281.687C340.766 281.612 341.204 280.81 341.671 281.242C341.738 281.304 341.648 281.62 341.924 281.631C342.331 281.649 343.064 281.562 343.463 281.377C343.758 281.24 343.303 280.846 343.722 280.909C343.912 280.936 343.645 281.281 343.998 281.309C344.351 281.337 345.172 281.141 345.492 281.058C345.808 280.975 345.552 280.66 345.572 280.63C345.697 280.458 346.258 280.146 346.31 280.134C348.984 279.456 351.61 279.391 354.125 278.408C354.324 278.331 354.075 278.005 354.104 277.99C354.746 277.622 354.506 278.767 355.091 278.942C354.787 278.22 355.111 278.267 355.574 278.027C355.794 277.912 355.574 277.666 355.586 277.63C355.786 277.082 356.207 277.566 356.31 277.66C356.682 278.006 356.762 277.423 357.012 277.652C357.262 277.879 357.048 278.416 357.507 278.252C357.547 277.943 356.963 277.374 357.278 277.139C358.451 276.271 361.054 275.88 362.109 275.477C363.151 275.09 363.459 274.885 364.084 274.698C365.219 274.343 364.59 274.049 365.107 273.501C365.613 272.947 365.952 274.275 366.181 274.477C366.412 274.676 366.369 274.363 366.557 274.437C366.747 274.51 366.597 274.82 366.896 274.717C367.206 274.612 367.667 273.729 367.582 273.424C367.424 272.767 366.771 272.41 367.516 272.184C367.561 272.169 367.642 272.54 367.804 272.47C367.931 272.413 368.054 272.354 368.172 272.294C369.212 271.784 369.891 270.762 370.33 269.607C370.399 269.429 370.748 269.671 370.794 269.564C371.226 268.409 370.497 268.742 369.821 268.084C370.56 268.237 371.098 268.089 371.322 267.589C371.389 267.437 371.426 267.252 371.426 267.035C371.421 266.469 370.996 266.578 370.675 266.257C370.58 266.164 370.827 265.756 370.618 265.714C369.936 265.593 369.288 266.019 369.414 265.193C369.419 265.155 369.793 265.187 369.786 265.059C369.71 264.222 369.03 264.344 368.614 263.646C368.484 263.438 368.372 263.141 368.242 262.81L368.356 262.964C368.044 262.427 367.691 261.806 367.345 261.42C368.12 260.646 367.335 260.258 366.601 260.627C366.21 260.251 365.727 259.923 365.363 259.527C365.238 259.391 365.52 259.206 365.522 259.165C365.546 258.519 364.921 258.978 364.81 258.936C363.601 258.447 362.967 257.434 361.62 257.338C361.571 257.335 361.166 257.977 361.126 257.336C361.123 257.292 361.644 257.168 361.137 256.883C360.635 256.598 359.801 255.761 358.912 255.77C358.693 255.768 358.014 256.153 357.82 255.559C357.794 255.479 357.928 255.298 357.901 255.157C357.812 254.708 357.411 255.374 357.366 254.661C357.325 253.949 356.901 253.269 355.959 253.421C355.927 253.424 355.548 253.936 355.306 253.845C354.913 253.697 354.396 253.399 353.973 253.273C353.775 253.214 353.791 253.614 353.755 253.61C352.364 253.408 351.502 252.82 350.084 252.312C349.921 252.253 349.508 252.356 349.114 252.309L349.145 252.315C348.921 252.311 348.697 252.255 348.52 252.081C348.001 251.566 348.833 249.801 347.423 250.075C346.849 250.186 345.919 252.445 345.075 251.139C343.163 251.254 341.472 250.495 339.545 250.792C339.457 250.805 339.147 251.441 338.947 251.419C338.652 251.385 338.508 251.068 338.299 251.034C337.414 250.884 336.591 251.098 335.735 251.008C335.412 250.975 335.543 250.665 335.156 250.625C334.767 250.586 334.49 250.989 333.974 250.76C333.585 250.585 333.234 249.713 332.71 249.587C332.648 250.427 332.287 250.391 331.633 250.581C331.508 250.619 331.626 250.917 331.566 250.95C331.321 251.089 331.113 250.836 330.878 250.99C330.821 251.027 330.805 251.313 330.758 251.36C330.359 251.764 329.758 251.09 329.655 250.973C329.262 250.527 329.051 250.892 328.74 250.71C328.431 250.528 328.913 250.338 328.548 250.22C327.789 249.975 326.798 249.98 326.019 249.934C325.708 249.918 325.905 250.31 325.86 250.317C325.212 250.387 324.576 249.953 324.19 250.702C323.823 248.711 323.793 250.878 322.89 250.446C322.818 250.412 322.763 249.475 323.047 249.349C323.33 249.223 323.741 249.531 324.136 249.333C324.23 249.287 324.788 248.433 324.863 248.383C325.441 247.992 325.462 249.39 325.489 249.468C325.79 250.308 326.471 249.393 326.641 249.335C327.427 249.069 328.075 249.293 328.728 249.109C329.157 248.99 329.24 248.078 329.571 248.121C330.672 248.264 330.996 249.556 332.089 248.502C332.324 248.277 332.153 247.268 332.912 248.093C332.961 248.145 333.52 248.893 333.884 248.457C333.93 248.402 333.945 248.111 334.003 248.089C334.395 247.952 334.635 248.197 335.057 248.109C335.481 248.021 335.988 247.884 336.459 248.01C336.741 248.086 337.077 248.65 337.206 248.79C337.568 249.196 338.022 248.596 338.233 249.074C338.444 249.554 337.93 250.229 338.538 250.57C338.61 249.817 338.715 249.046 338.803 248.289C340.195 248.407 341.548 248.751 342.95 248.836C343.123 248.845 342.98 248.425 343.167 248.425C343.964 248.428 344.619 248.779 345.452 248.746C346.093 248.718 346.839 248.365 347.519 248.335C347.829 249.242 348.849 249.071 349.56 249.251C349.565 249.252 349.569 249.254 349.574 249.255C349.626 249.264 349.781 249.289 349.831 249.304C350.059 249.394 349.993 249.608 350.148 249.722C350.741 250.155 350.615 249.336 350.825 249.264C351.74 248.966 351.364 250.656 352.284 250.86C352.331 250.871 353.166 250.145 353.267 250.115C353.89 249.903 353.266 250.448 353.569 250.606C354.126 250.899 354.461 251.229 355.235 251.191C355.456 251.176 356.126 250.788 356.372 251.342C356.405 251.414 356.279 251.693 356.314 251.724C356.962 252.26 357.288 251.362 357.835 251.213C358.379 251.064 358.811 251.937 358.87 252.166C359.036 252.761 358.53 252.26 358.492 252.298C358.066 252.752 358.574 252.839 358.914 253.027C358.621 253.921 359.131 254.068 359.269 253.22C359.283 253.127 358.971 253.096 358.914 253.027C359.57 252.295 360.195 252.422 360.454 253.476C360.577 253.973 360.12 254.279 361.034 254.508C361.45 254.616 361.575 253.959 361.995 253.965C362.959 253.981 363.694 255.05 364.515 255.424C364.818 255.562 364.719 255.093 364.934 255.178C365.501 255.404 365.817 255.918 366.395 256.143C366.449 256.164 366.542 255.778 366.706 255.884C367.942 256.678 368.819 257.664 369.94 258.74C370.339 259.121 371.032 259.677 371.55 260.219C371.602 260.285 371.754 260.479 371.796 260.551C371.969 260.795 372.117 261.035 372.221 261.247C372.95 262.651 372.958 264.692 373.168 265.92C373.314 266.738 373.662 266.541 373.926 266.901C374.088 267.128 374.1 267.417 374.032 267.694C373.897 268.186 373.426 268.733 373.323 268.828C373.322 268.826 373.281 268.159 373.066 268.497C372.656 268.669 373.322 268.818 373.323 268.828C373.246 268.908 372.956 270.337 372.908 270.675C372.9 270.851 373.264 270.852 373.252 270.946C373.063 272.589 371.957 274.444 370.528 275.436C370.121 275.732 369.693 275.993 369.26 276.217C369.23 276.228 369.057 275.872 368.99 275.9C368.044 276.291 367.744 277.004 367.156 277.641C366.564 278.275 365.943 278.467 365.235 278.056C364.73 278.39 363.838 278.46 363.324 278.483C362.805 278.507 363.048 279.234 363.012 279.265C361.966 280.223 361.08 280.096 359.782 280.498C359.159 280.691 357.992 281.212 357.345 281.512C356.849 281.746 356.466 281.681 356.022 281.942C355.961 281.977 356.129 282.281 356.113 282.3C355.694 282.858 355.705 281.982 355.55 281.874C354.981 281.484 354.657 281.283 354.038 281.733C353.894 281.836 353.767 283.123 353.492 283.275C353.134 283.47 353.161 283.016 352.786 283.23C352.753 283.248 352.833 283.501 352.585 283.558C351.419 283.831 350.136 284.009 348.94 284.332C348.777 284.376 349.087 284.732 348.855 284.8C347.762 285.122 346.523 285.394 345.404 285.439C345.126 285.449 345.23 285.124 345.153 285.052C344.683 284.614 344.345 285.472 344.264 285.504C342.35 286.287 340.688 285.9 338.716 286.586C338.611 286.625 337.899 287.585 337.397 286.952C337.361 286.91 336.866 286.26 336.616 286.801C336.601 286.835 336.895 287.164 336.48 287.194C336.225 287.211 335.893 287.35 335.527 287.382C335.299 287.401 335.06 287.378 334.82 287.255C334.624 287.155 334.102 286.506 333.662 287.155C333.634 287.2 333.021 288.609 332.594 287.766C332.525 287.627 332.432 286.681 331.877 287.256C331.771 287.368 332.02 287.545 331.724 287.722C331.269 287.996 330.589 287.839 330.051 288.343C329.958 288.433 329.603 289.134 329.178 288.7C329.112 288.632 329.173 288.303 328.981 288.295C328.059 288.252 327.148 288.589 326.207 288.49C325.873 288.455 325.973 287.925 325.619 287.832C325.266 287.739 324.571 287.692 324.246 287.966C323.921 288.241 324.404 289.006 323.881 289.134C321.594 289.688 319.233 289.44 316.884 289.533C316.536 289.547 316.845 289.819 316.332 289.859C314.442 290.016 311.125 290.395 309.454 289.751C308.127 289.241 309.804 288.879 308.793 288.666C308.309 288.563 307.759 289.498 307.637 289.524C306.462 289.793 305.669 289.332 304.611 289.388C304.393 289.399 304.578 289.799 304.391 289.804C303.75 289.824 303.098 289.594 302.487 289.563C302.214 289.549 302.233 289.847 301.984 289.797C301.386 289.68 300.869 289.491 300.322 289.137C300.273 289.105 300.679 288.792 300.241 288.718C299.531 288.597 298.698 288.189 297.834 288.314C297.577 288.351 297.44 289.011 297.005 288.452C296.914 288.334 297.215 287.575 296.47 288.131C296.437 288.155 296.331 288.22 296.185 288.291C295.781 288.494 295.067 288.744 294.808 288.225C294.715 288.041 294.54 287.324 294.241 287.36C294.199 287.368 294.268 287.754 294.03 287.735C293.184 287.658 292.341 287.411 291.474 287.303C291.242 287.275 291.483 287.723 291.139 287.669C290.195 287.521 289.065 287.108 288.199 286.728C287.88 286.587 288.198 286.359 288.184 286.319C287.956 285.68 287.516 286.317 287.372 286.318C286.494 286.316 285.993 285.787 285.226 285.621C285.014 285.574 285.044 285.957 284.993 285.973C284.471 286.116 284.992 285.628 284.751 285.47C284.069 285.02 283.241 284.742 282.472 284.482C282.19 284.387 282.348 284.891 282.096 284.801C280.602 284.272 279.066 283.525 277.757 282.551C277.511 282.366 277.831 282.183 277.81 282.09C277.676 281.443 276.789 281.714 276.621 281.688C275.886 281.587 275.802 281.201 275.265 280.898C273.302 279.787 271.067 277.801 269.731 275.146C269.324 274.339 268.992 273.491 268.757 272.653C268.168 270.61 268.204 268.429 268.773 266.553C269.245 265.053 269.82 263.304 270.856 261.465C270.982 261.245 270.491 261.251 270.599 261.054C272.036 258.475 274.457 256.69 276.716 255.368C276.906 255.257 276.437 255.055 276.743 254.864C276.92 254.753 277.116 254.643 277.327 254.539C277.756 254.324 278.237 254.141 278.668 254.042C278.963 253.975 278.744 254.449 279.037 254.375C279.722 254.204 280.411 253.93 281.039 253.594C281.308 253.449 280.726 253.255 281.089 253.096C283.551 252.012 286.017 251.02 288.745 250.683C288.931 250.66 289.338 251.394 289.663 251.125C289.621 250.898 289.538 250.642 289.477 250.405C293.14 249.104 296.943 248.43 300.746 247.714C300.905 247.684 300.544 247.311 300.854 247.25C302.656 246.901 304.403 246.476 306.321 246.634C306.509 246.65 306.525 247.423 307.052 247.231C307.148 247.196 307.934 246.985 308.133 246.792C308.159 246.763 307.962 246.427 308.226 246.382C309.753 246.131 311.381 246.041 312.94 246.134C313.19 246.15 312.958 246.552 313.135 246.567C314.404 246.668 315.743 246.298 316.976 246.604C317.8 246.813 317.506 247.483 317.952 248.123C318.013 248.213 318.503 248.222 318.534 248.6C318.605 249.551 318.38 250.594 318.485 251.607C318.516 251.824 319.097 251.588 318.755 252.116C318.739 252.151 318.278 252.33 318.187 252.511C318.115 252.636 318.254 253.019 318.106 253.179C317.962 253.34 317.77 253.022 317.533 253.214C317.289 253.41 317.398 253.844 316.906 253.913ZM361.029 278.547C360.492 278.361 360.915 279.641 361.24 279.169C361.256 279.145 361.057 278.555 361.029 278.547ZM341.461 249.768C341.979 250.403 342.427 249.564 342.07 249.076C341.71 248.587 341.302 249.575 341.461 249.768ZM335.626 249.818C336.252 250.323 336.468 248.423 335.742 248.768C335.7 248.788 335.589 249.789 335.626 249.818ZM316.007 248.374C316.01 248.392 316.365 248.393 316.374 248.375C316.545 247.94 315.833 247.937 316.007 248.374ZM329.849 249.999C330.042 250.266 330.642 249.995 330.404 249.663C330.213 249.395 329.609 249.666 329.849 249.999ZM338.972 283.005C338.961 282.986 338.714 283.012 338.739 283.123C338.821 283.48 339.143 283.316 338.972 283.005ZM320.079 249.619C321.52 249.747 322.332 251.356 320.769 251.117C320.485 251.074 321.401 250.639 321.045 250.482C320.392 250.198 319.914 251.17 319.258 250.614C319.139 250.512 319.997 249.608 320.082 249.617C320.081 249.617 320.08 249.618 320.079 249.619ZM360.213 277.13C360.199 277.116 359.874 277.223 359.873 277.242C359.851 277.708 360.51 277.492 360.213 277.13ZM324.556 284.331C324.532 284.296 323.739 284.357 323.718 284.394C323.388 285.138 324.997 285.017 324.556 284.331ZM367.356 261.39C366.803 261.456 366.469 261.225 366.602 260.628C366.855 260.883 367.118 261.126 367.356 261.39Z" fill="#D9D5C8" fill-opacity="0.75"/>
</svg>
