<svg width="530" height="222" viewBox="0 0 530 222" fill="none" xmlns="http://www.w3.org/2000/svg">
<path d="M12.9339 0.00121461C13.1032 0.00192919 12.9222 0.00286588 12.6736 0.00357775C12.5966 0.00380085 12.252 0.00368788 12.1833 0.00384189C12.0493 0.0041431 12.2183 0.00442372 12.0587 0.00472138C12.0041 0.00482002 11.4584 0.00469723 11.4136 0.00480067C11.1724 0.00536749 11.3115 0.00590372 11.1954 0.00647792C10.623 0.00930623 10.4182 0.0120864 10.1695 0.0149493C10.088 0.0158933 9.59266 0.0170408 9.80927 0.0180158C9.83505 0.0181297 10.3141 0.0180618 10.3536 0.0180835C10.958 0.0184231 9.99093 0.0183102 9.86243 0.018532C9.3551 0.0194122 9.31098 0.020391 9.49586 0.021238C9.57592 0.0215984 10.5274 0.0212371 9.99335 0.0216C9.95727 0.0216251 9.44855 0.0215337 9.3943 0.0216325C9.27226 0.0218567 9.36319 0.0222819 9.32288 0.0224556C9.24263 0.0227904 9.24775 0.0228458 9.24195 0.0231624C9.2296 0.0235953 8.97672 0.0241101 9.09199 0.0245745C9.11811 0.0246737 9.6396 0.0245424 9.72834 0.0247005C9.81694 0.0248588 9.77272 0.0252774 9.64979 0.0254185C9.52679 0.0255597 9.11691 0.0254996 9.02296 0.0255246C8.22998 0.0257301 9.32826 0.0262143 9.35542 0.0262766C9.81821 0.0274126 9.19256 0.0283868 9.19435 0.0294531C9.19703 0.0302626 9.40358 0.0311282 9.37525 0.0318984C9.33949 0.0328161 9.0569 0.0335938 9.10548 0.0344853C9.11 0.0345794 9.72316 0.0344692 9.72993 0.0345841C9.80128 0.0358049 9.73444 0.0370173 9.3205 0.0382329C9.27845 0.0383548 8.74011 0.0381977 8.6659 0.0383195C8.22348 0.0390652 7.16068 0.0402451 9.50459 0.040688C9.41306 0.0411931 9.3185 0.0418063 8.84602 0.0422582C8.54192 0.0425496 7.95545 0.0422666 8.2057 0.0426245C8.26146 0.0427052 8.77506 0.0426002 8.81983 0.0427213C9.00786 0.043231 8.8409 0.0437878 9.10627 0.044292C9.16146 0.0443946 9.62166 0.0443666 9.70454 0.0443956C10.3757 0.0446398 9.26623 0.0450464 9.18562 0.045135C8.58445 0.0458099 8.82102 0.0463027 8.80635 0.0469314C8.80268 0.0470773 9.42084 0.0469049 9.43952 0.0470453C9.52812 0.0477734 9.47499 0.0485276 9.20069 0.0492406C9.13819 0.0493992 8.61163 0.0492533 8.55482 0.0493291C8.31074 0.0496633 9.30529 0.0497373 9.0904 0.0500578C9.04638 0.0501254 8.5956 0.0500873 8.54609 0.0500996C7.76894 0.0502925 8.87011 0.0504601 8.89442 0.0505097C9.2266 0.0511373 8.07704 0.0515384 8.23982 0.0521446C8.26045 0.0522172 8.83082 0.0520536 8.85395 0.0522575C9.01141 0.0536157 8.85472 0.0550522 8.39851 0.0563966C8.32835 0.0566057 7.89988 0.0564565 7.84706 0.0564696C7.02177 0.056684 8.12756 0.0568227 8.1692 0.0568909C8.46897 0.0574286 7.54164 0.0579309 8.85871 0.0582962C8.40164 0.0605734 9.14125 0.0628402 7.96132 0.0650986C7.94765 0.0651273 7.40305 0.0650759 7.37813 0.0651331C7.07234 0.0658229 7.91875 0.0656905 8.95393 0.0661469C9.21387 0.0662619 7.96406 0.0666116 7.87245 0.0666426C7.53486 0.0667553 6.72464 0.0666384 6.65926 0.0666761C6.14587 0.0669886 8.82532 0.0669376 8.82618 0.0673591C8.82171 0.0673723 8.32853 0.0673169 8.27949 0.0673523C8.12554 0.0674622 8.32151 0.0675712 8.15175 0.0676787C7.75891 0.0679248 6.45693 0.0680125 7.21468 0.0683884C7.31302 0.068436 8.83292 0.0683633 8.76112 0.0687396C8.73121 0.0688897 8.75726 0.0695537 8.65876 0.0697398C8.56039 0.0699256 8.0706 0.069798 8.04939 0.0698113C7.40173 0.0703121 7.13331 0.0701222 6.17446 0.0703731C5.21922 0.070624 7.49755 0.0705544 7.75184 0.0706567C8.00542 0.0707592 7.47106 0.0711264 7.28529 0.0712166C7.09945 0.0713068 6.78823 0.0711943 6.68306 0.0712745C5.99596 0.0718062 7.81394 0.0715079 8.17555 0.0716831C9.03177 0.0720962 7.34215 0.0724179 7.17659 0.0727961C7.13188 0.0728984 7.5167 0.0728149 7.55269 0.072906C7.69012 0.0732669 7.16292 0.0734839 7.64632 0.0738945C7.72509 0.0739616 8.74093 0.0742935 7.99544 0.0745084C7.88794 0.0745388 7.46689 0.0744523 7.37257 0.0746061C7.23103 0.0748359 7.139 0.0752498 7.27974 0.0754968C7.38387 0.0756791 8.07766 0.0754702 7.86213 0.0756996C7.7659 0.0758017 7.36003 0.0756126 7.21309 0.0758042C7.06619 0.0759948 7.08402 0.0764822 7.09804 0.0766677C7.11236 0.0768528 7.63863 0.0767515 7.67409 0.0767664C7.87718 0.076857 8.13095 0.0772122 8.13032 0.0772436C8.19457 0.0788272 7.30748 0.0802875 7.60109 0.0818293C7.62337 0.0819503 8.17833 0.0818697 8.18745 0.0818882C8.41997 0.0823024 6.94446 0.0819758 6.45058 0.0822652C7.57676 0.0822233 7.37284 0.0823942 7.49635 0.0826859C7.55678 0.0828265 7.99285 0.08275 8.03749 0.0827628C8.69982 0.0829713 7.84433 0.0831165 7.66933 0.0831539C7.02556 0.083292 7.78621 0.0834423 7.35591 0.0835362C6.92883 0.0836301 6.29568 0.083414 6.30379 0.0836939C6.70692 0.0837723 7.76042 0.0835646 7.93117 0.083777C8.577 0.0845786 7.75043 0.086075 7.66456 0.0867195C7.57878 0.0873628 7.65315 0.0875705 7.50746 0.0879453C7.24403 0.0886224 8.02566 0.0883743 8.38343 0.0887947C8.74117 0.0892163 6.81799 0.0890113 6.40456 0.089072C5.99131 0.0891315 6.41671 0.0891964 6.18953 0.0892704C5.96241 0.0893442 5.68131 0.0891845 5.59603 0.089358C5.51083 0.0895316 6.24601 0.0900062 6.6783 0.0900677C7.59413 0.0901978 8.55534 0.0899839 8.2176 0.0904432C8.19756 0.0904697 7.69187 0.0903839 7.64076 0.0904851C7.25146 0.0912885 7.22733 0.0921231 6.88301 0.0929256C6.83488 0.0930359 6.27231 0.0929372 6.23793 0.0930014C5.87811 0.0936703 6.82666 0.0934312 7.88038 0.0937977C6.4781 0.0937155 5.62018 0.0939181 5.6119 0.0944257C5.60643 0.0947309 6.21888 0.0946783 6.65053 0.0948757C6.78065 0.0949349 6.36012 0.0951508 6.64815 0.0951899C7.58966 0.095319 8.64363 0.0951156 8.22395 0.0956389C8.20401 0.0956619 7.68864 0.0955888 7.65742 0.0956681C7.45313 0.0961809 8.43794 0.0962423 8.5572 0.0967967C8.65078 0.0972312 8.05026 0.098004 7.95259 0.0984987C6.37602 0.0984883 6.73703 0.0989556 7.82405 0.0991452C7.77955 0.0994663 7.841 0.0998131 7.69075 0.100123C7.63952 0.10023 7.18306 0.10016 7.13374 0.100174C6.36005 0.10038 7.4176 0.10052 7.45906 0.100589C7.86209 0.10134 7.06055 0.101952 7.84389 0.102669C7.8721 0.102694 8.96723 0.102736 8.16761 0.102927C8.1125 0.10294 7.61423 0.102703 7.5757 0.10304C7.53708 0.103377 6.95001 0.104013 7.45747 0.104481C7.57964 0.104595 8.46867 0.104881 7.77406 0.105111C7.67974 0.105142 7.36565 0.105109 7.19087 0.105153C6.63396 0.105296 7.74087 0.105374 6.80049 0.105542C5.86016 0.10571 5.15592 0.10606 5.80471 0.106532C5.82357 0.106547 6.7009 0.106659 6.68703 0.106807C6.66413 0.107044 6.48136 0.107381 6.48708 0.107628C6.49013 0.107747 7.03491 0.107671 7.04488 0.107692C7.35015 0.108488 6.86448 0.109056 6.6537 0.109909C6.61399 0.110066 7.35688 0.110515 6.76955 0.110818C6.12661 0.111151 3.45207 0.110809 4.08926 0.111574C4.34412 0.111882 7.73726 0.112273 5.97927 0.112827C6.41489 0.113902 5.51515 0.114896 6.13716 0.115974C6.16472 0.116022 7.11172 0.116175 7.09883 0.116289C7.07786 0.116459 6.63525 0.116551 6.6061 0.116672C6.47277 0.117178 6.85146 0.117642 6.79256 0.11813C6.77116 0.118315 6.3135 0.11825 6.28792 0.118471C6.26277 0.118692 6.86542 0.118839 6.57436 0.119138C6.3525 0.119364 5.12071 0.119591 4.97713 0.119891C6.19216 0.119902 6.16713 0.120108 6.48787 0.120474C6.5501 0.120545 6.973 0.120469 7.02425 0.120502C7.24221 0.120638 6.89172 0.120763 7.12898 0.120892C7.18597 0.120923 7.60091 0.120925 7.67091 0.12095C8.28199 0.121168 7.34862 0.121527 7.18611 0.121588C6.56892 0.121824 7.1086 0.121934 6.86556 0.122116C6.62254 0.122296 6.31875 0.122026 6.17128 0.122237C5.86626 0.122675 5.93327 0.123237 5.9142 0.123681C5.90916 0.123859 6.46304 0.123738 6.47518 0.123763C6.61566 0.12413 6.02649 0.124501 7.12978 0.124704C4.27708 0.124958 7.40647 0.124925 6.8354 0.125449C6.78922 0.12549 5.4402 0.125543 5.24215 0.125384C5.04429 0.125226 5.46597 0.124986 5.15725 0.124766C5.0848 0.124714 3.82068 0.124415 3.74411 0.124375C3.14565 0.124056 5.16158 0.124011 5.2723 0.123994C6.4672 0.123802 5.10535 0.123438 5.01125 0.123342C4.58007 0.122903 4.86358 0.12253 4.55581 0.122162C4.3569 0.121922 3.03639 0.121898 3.07681 0.12171C3.21041 0.121083 5.05252 0.120864 3.45529 0.120273C3.11463 0.120146 1.67136 0.120272 2.80624 0.119818C2.87779 0.11979 3.916 0.119452 3.25931 0.119258C3.17651 0.119233 2.75588 0.119234 2.72055 0.119202C2.49199 0.118986 2.82708 0.118841 2.66659 0.118606C2.50611 0.11837 2.26685 0.118087 2.40952 0.117818C2.49482 0.117656 3.2785 0.117448 3.47036 0.117371C4.02307 0.117152 3.11686 0.116917 3.78616 0.116781C4.45882 0.116644 5.48037 0.116912 5.915 0.116553C4.82219 0.11654 3.70054 0.116509 2.60153 0.116488C2.64001 0.115702 2.99338 0.114928 2.9451 0.114139C2.93802 0.114041 2.35052 0.114141 2.32779 0.114036C2.23446 0.113594 2.65326 0.113207 2.48648 0.112749C2.35513 0.112393 1.7331 0.112004 1.57639 0.111633C2.82687 0.111406 2.40236 0.110855 2.51663 0.110454C2.55612 0.110314 2.8901 0.110324 2.99905 0.110224C3.40202 0.109848 2.29698 0.110024 2.12308 0.109921C1.38089 0.109478 3.88208 0.10944 3.82028 0.108919C3.81785 0.108891 2.48461 0.108553 2.40158 0.108507C1.86019 0.108211 2.86563 0.108458 2.96414 0.108273C3.14416 0.107935 3.46256 0.1077 3.07205 0.107304C2.95638 0.107188 2.12539 0.106911 2.76816 0.106687C2.85232 0.106657 3.29301 0.106673 3.31881 0.10665C3.74901 0.106219 2.36432 0.106208 1.89536 0.105962C1.4265 0.105716 2.38237 0.105337 2.65787 0.105259C3.37055 0.105057 2.96244 0.105414 3.03238 0.105425C3.86468 0.105554 3.72139 0.105277 3.79171 0.105065C5.14942 0.105035 5.06792 0.104739 3.85916 0.104846C3.72713 0.104858 3.85374 0.105023 3.79171 0.105065C2.45962 0.104879 2.28902 0.104554 3.53384 0.104195C4.11727 0.104027 4.79752 0.104186 4.54867 0.103675C4.43633 0.103443 3.50148 0.103533 3.24661 0.103328C2.66509 0.102861 3.53715 0.102253 3.39975 0.101772C3.34986 0.101597 2.83813 0.101767 2.78641 0.101647C2.64753 0.10133 3.0315 0.101051 2.83481 0.100732C2.81634 0.100703 2.28066 0.100774 2.27383 0.100675C2.21162 0.0999236 2.55473 0.0992697 2.56424 0.0984856C2.56859 0.0981067 2.27315 0.0974294 2.33255 0.097037C2.43234 0.0963568 3.21129 0.09552 3.02206 0.0949389C2.90093 0.09456 2.36515 0.0946431 2.00009 0.0944807C1.29247 0.0941673 2.55999 0.0936127 2.75626 0.093538C2.76275 0.0935357 2.88906 0.0938618 3.16409 0.0936878C3.73717 0.0935866 2.75874 0.0935417 2.75626 0.093538C2.88305 0.0934889 3.00467 0.0928375 2.90225 0.0927081C2.84628 0.0926378 2.33865 0.0926771 2.31906 0.0926405C1.86478 0.0917694 1.73576 0.0908967 1.97312 0.0900132C1.98337 0.0899977 2.55118 0.0900211 2.56821 0.0899845C2.82067 0.089473 2.12606 0.0891455 1.71366 0.0887237C1.30144 0.0883019 1.4395 0.0879674 2.41428 0.0877177C2.29154 0.0873994 2.72249 0.0869429 2.98398 0.0866801C3.24546 0.0864174 2.14017 0.0863807 2.11832 0.0863576C1.41895 0.0856366 2.0516 0.0852197 2.15006 0.0844717C2.19876 0.084116 2.03844 0.0834106 1.91757 0.0830255C1.8202 0.0827212 2.07923 0.0825378 1.91361 0.0822574C1.89149 0.0822195 1.39935 0.0822578 1.38041 0.0822462C0.791597 0.0819332 1.99469 0.0820836 2.20957 0.082019C2.99094 0.0817848 3.4071 0.08164 3.03952 0.0812393C2.95534 0.0811468 1.22305 0.0808775 1.12174 0.080709C0.993201 0.08049 1.61412 0.0805726 1.46372 0.0803432C1.45142 0.0803236 1.06835 0.0803277 1.08524 0.0801861C1.1586 0.0795289 1.3815 0.0788124 1.34311 0.0781294C1.33934 0.0780361 0.731739 0.0781558 0.716284 0.078021C0.644261 0.0773885 0.666747 0.0766952 0.951146 0.0760791C1.02306 0.0759274 1.44848 0.0760225 1.5748 0.0759896C2.3391 0.0757874 1.22859 0.0755008 1.20743 0.0754535C0.673773 0.0743254 1.67877 0.0734619 1.20029 0.0723121C1.1722 0.0722495 -0.01829 0.0717677 1.00272 0.0715527C1.07065 0.071538 2.11525 0.0713253 1.40103 0.0711373C1.35635 0.0711256 0.818577 0.0712581 0.873388 0.0710269C0.928079 0.0707956 0.568956 0.0704235 1.15982 0.0701056C1.34596 0.0700049 2.38798 0.0697671 1.55735 0.0694669C1.49936 0.0694473 -0.378822 0.0689839 0.917028 0.0688184C1.13034 0.0687916 2.50164 0.0688197 1.79856 0.0684614C1.66225 0.0683929 1.35638 0.0685172 1.16538 0.0683369C0.87101 0.0680605 1.23829 0.0676944 0.627417 0.0673547C0.51927 0.0672955 -0.411488 0.0670433 0.294959 0.066841C0.405601 0.0668094 0.863413 0.0668696 0.914647 0.0667627C1.16041 0.0662548 0.854178 0.0657229 1.17093 0.0652071C1.28224 0.0650244 2.02234 0.0651178 2.22067 0.0649274C2.41894 0.0647369 2.60966 0.0643532 2.27145 0.0641539C1.9331 0.0639546 0.753544 0.0641723 0.659155 0.0638738C0.249216 0.0625756 0.941174 0.0612896 1.04239 0.0599934C1.05751 0.0598011 0.63543 0.0599605 0.627417 0.0596772C0.596016 0.0586327 0.20027 0.0568292 1.09714 0.0559228C1.81549 0.0551966 2.36237 0.0561105 2.65469 0.0555556C2.79414 0.0552878 1.42279 0.0549981 1.37961 0.0549334C0.941056 0.0543019 1.54854 0.053863 1.36216 0.0532946C1.32348 0.0531772 0.767657 0.0532923 0.740881 0.0531924C0.644489 0.0528512 0.892583 0.0524926 0.847204 0.0521665C0.825567 0.0520203 0.401049 0.0520472 0.433814 0.0519126C0.507322 0.0515905 0.685769 0.0513058 1.08365 0.0509918C1.11991 0.0509632 1.64799 0.0511561 1.66764 0.0509178C1.69792 0.0505322 2.09043 0.0500535 1.68509 0.0496098C1.56316 0.0494781 0.59293 0.049473 1.26297 0.04919C1.40292 0.0491306 2.56795 0.0492064 1.56131 0.0488767C1.39403 0.0488213 0.0362664 0.0482675 0.911473 0.0479958C1.14182 0.0479241 2.09517 0.0477411 1.94534 0.0475828C1.92144 0.0475613 1.40029 0.0476473 1.34946 0.0475161C1.17938 0.0470538 1.23498 0.0465693 1.07175 0.0460943C1.02713 0.0459674 0.487853 0.0461563 0.438575 0.0459673C0.302267 0.0454475 0.439577 0.0447984 0.608374 0.0442901C0.67163 0.0441026 1.11835 0.0442322 1.16697 0.0442186C1.95769 0.0439992 0.890394 0.0438696 0.828161 0.0437968C0.455513 0.0433441 0.956866 0.0429994 0.824193 0.0425822C0.788933 0.042467 0.280034 0.0425487 0.234657 0.0425257C-0.208712 0.042288 0.705204 0.0424651 0.805944 0.0423146C1.09119 0.0418931 1.05029 0.0414232 0.985265 0.0409968C0.960631 0.0408403 0.370551 0.0410163 0.355262 0.0408757C0.253581 0.040044 0.310045 0.0391793 0.635351 0.0383676C0.697674 0.0382148 1.15205 0.0383109 1.25583 0.0382791C1.98191 0.0380595 0.991532 0.0377378 0.897191 0.0376637C0.466432 0.0373271 0.868248 0.0371963 0.793249 0.0368991C0.419836 0.0354468 0.685964 0.0336536 0.850377 0.0322827C1.06198 0.0304963 1.49424 0.0291101 1.38199 0.0274066C1.37543 0.0272983 0.770963 0.0274075 0.757543 0.0273142C0.611826 0.0261092 0.848026 0.0249229 0.673437 0.0237155C0.660182 0.0236164 0.0871456 0.0237592 0.046608 0.0236002C-0.0405582 0.023274 -0.00941159 0.0228608 0.173561 0.022531C0.261721 0.0223701 0.753437 0.0225859 0.832128 0.022424C1.01648 0.022047 1.05729 0.0216428 0.965428 0.0212556C0.925086 0.0210908 0.339016 0.0213394 0.332252 0.0211252C0.274109 0.019666 0.173172 0.018233 0.932103 0.0167584C0.984226 0.0166573 2.17535 0.0165686 1.94693 0.0163537C1.61636 0.0163375 1.22751 0.0163384 0.874181 0.0163313C0.683849 0.0142071 1.09677 0.0121046 1.16062 0.00997447C1.16317 0.00988466 0.532056 0.0100399 0.533789 0.00986599C0.54312 0.00885962 0.368281 0.00788237 0.99558 0.00685297C1.05693 0.00675083 2.16722 0.00680323 1.9993 0.00650224C1.96866 0.00644916 1.82058 0.00599583 1.57956 0.00587862C1.54321 0.0058627 1.02497 0.00594541 1.00986 0.00579933C0.931165 0.00495043 1.04948 0.00406083 1.36612 0.0032134C1.41822 0.00307664 1.9701 0.00322229 2.01199 0.00312487C2.30496 0.00243387 1.88543 0.00168226 2.38651 0.00102198C2.7239 0.000580012 3.67787 0.000743642 4.61691 0.000508785C4.74939 0.000475567 4.77038 0.000201886 5.31673 0.000187733C6.69058 0.000151398 8.19493 0.000283961 9.65931 0.000229567C9.97473 0.000218075 9.635 -0.000148454 10.3972 6.85547e-05C10.4482 8.3715e-05 10.7012 0.000349451 10.9598 0.000414902C11.1386 0.000460471 11.6942 0.000378354 11.923 0.000471329C12.1517 0.000564297 11.6859 0.000666456 11.9548 0.000820595C12.227 0.000974665 12.8591 0.000906919 12.9339 0.00121461ZM4.15274 0.0854971C4.68354 0.0852538 2.73942 0.0852179 3.20456 0.085481C3.22935 0.0854938 4.1267 0.0855096 4.15274 0.0854971ZM4.4598 0.114932C5.31729 0.114614 4.05644 0.114397 3.39419 0.114621C2.73266 0.114845 4.19986 0.115029 4.4598 0.114932ZM5.08584 0.11823C5.76193 0.117859 3.0051 0.1178 3.5624 0.118198C3.5939 0.118221 5.04658 0.118252 5.08584 0.11823ZM4.8843 0.00159793C4.91012 0.00159457 4.93528 0.00139784 4.90969 0.00139314C4.29224 0.00128838 4.24236 0.00168177 4.8843 0.00159793ZM5.76742 0.121503C6.14034 0.121387 5.70984 0.121053 5.24612 0.121197C4.87306 0.121313 5.30352 0.121648 5.76742 0.121503ZM6.22762 0.0728063C6.25659 0.0728025 6.28268 0.0726614 6.11892 0.0726643C5.59148 0.0726738 5.74034 0.0728701 6.22762 0.0728063ZM5.79915 0.127066C5.90292 0.126244 8.1802 0.125745 7.92323 0.12664C7.87674 0.126802 7.19703 0.126291 6.99172 0.126497C6.61767 0.126875 8.04753 0.127125 7.28133 0.127511C7.14109 0.12758 5.78817 0.127112 5.79598 0.127064C5.79704 0.127065 5.7981 0.127065 5.79915 0.127066ZM6.48787 0.085357C6.51358 0.0853521 6.53796 0.0851569 6.51247 0.0851522C5.89527 0.0850465 5.8458 0.0854398 6.48787 0.085357ZM7.4297 0.0645762C7.48448 0.0645654 7.53572 0.0641123 7.48524 0.0640975C6.47595 0.0638611 6.36938 0.0647772 7.4297 0.0645762ZM7.91054 0.0985065C8.53144 0.0987195 8.60455 0.0989744 7.82484 0.0991442C7.86623 0.0989325 7.87233 0.0987194 7.91054 0.0985065Z" fill="#171717" fill-opacity="0.75"/>
<path d="M332.434 221.904C330.821 222.063 328.721 221.853 327.132 221.575C326.635 221.489 326.893 221.149 326.546 221.074C325.884 220.927 325.248 221.083 324.585 220.908C324.368 220.849 324.652 220.309 324.424 220.259C323.164 219.989 321.964 220.098 320.684 219.945C316.355 219.428 312.084 219.049 307.761 218.68C305.74 218.51 303.775 218.314 301.747 218.064C299.625 217.804 297.066 217.022 294.832 216.911C294.571 216.899 294.655 217.395 294.6 217.427C293.74 217.91 294.153 216.994 293.662 216.787C291.749 215.973 289.558 215.507 287.615 215.239C286.788 215.124 287.374 216.244 286.689 215.528C286.642 215.479 286.965 215.035 286.761 214.928C286.281 214.686 285.31 214.523 284.938 214.376C284.198 214.085 284.087 214.058 283.385 213.839C282.414 213.529 281.375 212.915 280.314 212.641C280.087 212.583 280.193 213.18 279.812 213.131C279.442 213.088 278.512 212.667 278.263 212.425C278.009 212.184 278.297 211.861 278.28 211.751C278.141 210.834 276.676 211.366 276.516 211.316C273.862 210.546 272.118 208.757 270.095 207.117C268.947 206.189 267.739 205.169 266.745 204.112C266.244 203.574 265.844 202.973 265.554 202.372C264.288 199.524 264.77 197.347 264.948 195.145C264.974 194.908 264.329 195.108 264.362 194.812C264.737 191.707 265.71 188.972 267.084 186.484C267.222 186.236 267.598 186.765 267.766 186.531C268.385 185.657 269.365 184.571 269.665 183.45C269.9 182.622 269.939 181.797 269.452 180.864C270.324 179.693 271.628 178.519 272.842 178.167C273.619 177.947 273.403 178.844 273.966 178.119C274.096 177.958 273.585 177.69 273.81 177.478C274.775 176.577 276.074 176.064 277.074 175.314C277.28 175.159 277.029 174.768 277.061 174.663C277.346 173.795 278.704 174.446 278.922 174.452C280.639 174.443 281.636 173.886 283.042 173.501C283.37 173.413 282.817 172.926 283.128 172.82C284.735 172.284 286.44 171.943 288.08 171.877C288.445 171.865 288.229 172.448 288.408 172.468C289.202 172.553 289.156 171.548 289.917 171.617C290.074 171.632 290.076 172.09 290.113 172.134C290.681 172.815 290.844 171.663 290.951 171.618C292.275 171.032 293.37 172.006 294.666 171.618C294.823 171.57 294.365 171.07 294.812 170.97C296.11 170.678 297.452 170.45 298.805 170.282C300.56 170.063 302.318 169.974 304.035 170.014C304.509 170.026 304.23 170.492 304.266 170.541C304.842 171.301 305.012 170.167 305.161 170.107C306.33 169.666 307.539 170.471 308.224 169.081C313.35 169.036 318.43 168.055 323.5 169.236C323.565 169.25 323.449 169.794 323.578 169.82C325.118 170.13 324.816 169.284 325.863 168.263C326.128 168.006 326.883 169.271 326.952 169.365C327.197 169.708 326.916 170.512 326.999 170.58C327.682 171.11 327.633 168.427 328.584 168.456C328.614 168.462 328.473 168.951 328.551 169.002C328.794 169.164 329.045 168.977 329.279 169.156C329.811 169.57 329.953 170.878 330.822 170.16C330.933 170.067 330.84 168.54 331.683 168.655C332.023 168.702 333.511 168.765 333.923 168.894C334.331 169.021 334.012 169.49 334.04 169.513C335.109 170.238 334.671 170.477 335.15 171.475C335.624 172.47 335.65 170.187 335.901 169.953C336.156 169.718 336.927 170.322 337.105 170.525C337.288 170.728 337.009 171.015 337.179 171.137C338.295 171.932 337.805 170.06 338.23 169.737C339.24 168.977 339.779 170.735 340.597 170.996C340.816 171.067 340.678 170.663 340.882 170.651C341.705 170.611 342.106 171.193 343.087 170.837C343.238 170.778 344.131 169.876 344.495 170.683C344.546 170.799 344.297 171.188 344.617 171.331C345.114 171.547 346.006 171.781 346.568 171.733C346.983 171.696 346.638 170.935 347.115 171.234C347.325 171.368 346.839 171.696 347.237 171.914C347.506 172.065 348.135 172.199 348.602 172.286C348.807 172.325 348.989 172.356 349.111 172.377C349.523 172.447 349.408 171.886 349.448 171.858C349.693 171.699 350.546 171.635 350.62 171.656C354.243 172.48 357.009 174.585 360.185 176.029C360.435 176.145 360.549 175.572 360.59 175.584C361.532 175.857 360.149 176.762 360.455 177.514C360.948 176.498 361.179 176.868 361.804 177.111C362.105 177.229 362.191 176.769 362.239 176.746C363.003 176.444 362.82 177.349 362.792 177.54C362.698 178.249 363.401 177.806 363.336 178.284C363.267 178.755 362.514 179.003 363.027 179.349C363.402 179.12 363.619 177.986 364.114 178.124C366.021 178.64 368.158 181.487 369.135 182.549C370.142 183.609 370.52 183.895 371.008 184.598C371.878 185.885 372.05 184.936 372.969 185.405C373.884 185.885 372.132 186.816 371.915 187.193C371.693 187.565 372.105 187.389 372.043 187.662C371.979 187.934 371.536 187.855 371.723 188.198C371.909 188.538 373.135 188.854 373.559 188.692C374.45 188.336 374.893 187.353 375.285 188.376C375.307 188.436 374.79 188.599 374.894 188.811C375.72 190.469 376.801 192.002 377.496 193.692C377.59 193.923 376.999 194.048 377.048 194.185C377.543 195.623 378.048 194.655 379.387 194.82C378.092 195.394 377.597 196.209 378.14 197.175C378.455 197.743 378.942 197.362 379.528 197.535C379.704 197.586 379.559 198.21 379.854 198.154C380.823 197.983 381.55 197.07 381.72 198.355C381.725 198.41 381.189 198.487 381.24 198.663C381.272 198.774 381.309 198.87 381.35 198.955C381.379 199.01 381.428 199.181 381.442 199.242C381.538 200.457 381.252 200.812 381.176 201.334C381.033 201.843 380.864 202.32 380.352 202.783C379.459 203.597 377.576 203.957 376.529 204.373C375.821 202.967 375.083 203.737 375.148 204.905C374.477 205.173 373.794 205.548 373.081 205.695C372.846 205.741 372.806 205.261 372.759 205.227C372.039 204.696 372.164 205.791 372.033 205.892C370.637 206.917 369.081 206.669 367.859 207.973C367.817 208.019 368.121 209.076 367.438 208.479C367.392 208.437 367.712 207.784 366.993 208.013C366.265 208.246 364.74 208.179 363.937 209.002C363.739 209.203 363.428 210.256 362.72 209.767C362.625 209.7 362.592 209.379 362.441 209.247C361.959 208.825 362.156 209.928 361.49 209.163C360.834 208.395 359.885 207.976 359.097 208.925C359.072 208.954 359.12 209.863 358.804 209.954C358.299 210.098 357.523 210.162 357.013 210.334C356.765 210.418 357.093 210.884 357.053 210.908C355.45 211.75 354.117 211.665 352.245 212.027C351.888 212.097 351.179 213.094 350.355 212.731C349.458 212.332 349.398 209.556 347.981 210.65C347.403 211.09 347.544 214.59 345.867 213.251C344.104 214.14 342.223 214.129 340.416 214.772L340.456 214.762C340.033 214.878 339.629 215.023 339.213 215.221C339.113 215.268 338.954 216.262 338.703 216.295C338.328 216.343 338.044 215.944 337.777 215.961C336.649 216.023 335.694 216.556 334.611 216.646C334.197 216.68 334.279 216.208 333.793 216.245C333.306 216.282 333.057 216.92 332.36 216.705C331.837 216.539 331.218 215.364 330.559 215.279C330.642 216.491 330.191 216.509 329.405 216.889C329.255 216.962 329.451 217.372 329.382 217.428C329.096 217.667 328.79 217.336 328.521 217.591C328.455 217.652 328.478 218.066 328.424 218.139C327.967 218.78 327.113 217.886 326.972 217.729C326.422 217.134 326.197 217.681 325.786 217.451C325.377 217.219 325.968 216.899 325.497 216.764C324.525 216.485 323.291 216.562 322.311 216.534C321.921 216.526 322.182 217.082 322.126 217.094C321.31 217.227 320.507 216.619 320.026 217.71C319.542 214.843 319.528 217.976 318.38 217.364C318.29 217.314 318.225 215.962 318.58 215.777C318.936 215.592 319.45 216.03 319.942 215.735C320.059 215.666 320.741 214.418 320.829 214.343C321.53 213.758 321.595 215.773 321.632 215.885C322.039 217.087 322.855 215.729 323.059 215.634C324.015 215.203 324.83 215.474 325.618 215.145C326.135 214.931 326.135 213.609 326.538 213.634C327.865 213.711 328.466 215.52 329.611 213.832C329.857 213.469 329.465 212.057 330.519 213.103C330.583 213.17 331.401 214.135 331.745 213.437C331.788 213.349 331.741 212.931 331.805 212.888C332.235 212.612 332.572 212.91 333.05 212.689C333.523 212.468 334.082 212.152 334.663 212.212C335.017 212.246 335.564 212.955 335.761 213.118C336.317 213.59 336.659 212.614 337.062 213.223C337.467 213.836 337.067 214.943 337.916 215.235C337.753 214.154 337.621 213.038 337.471 211.948C338.251 211.827 339.03 211.766 339.822 211.688L339.563 211.751C340.475 211.59 341.361 211.427 342.236 211.149C342.443 211.082 342.067 210.579 342.284 210.492C343.202 210.13 344.112 210.301 345.046 209.852C345.759 209.505 346.392 208.667 347.133 208.281C347.967 209.336 349.004 208.579 349.877 208.429C350.181 208.377 350.26 208.702 350.499 208.742C351.402 208.885 350.711 207.942 350.875 207.709C351.589 206.709 352.397 209.077 353.483 208.669C353.542 208.648 353.846 207.152 353.915 207.042C354.361 206.331 354.158 207.451 354.57 207.423C355.331 207.367 355.932 207.506 356.621 206.869C356.828 206.679 357.15 205.697 357.814 206.153C357.901 206.212 358.008 206.641 358.065 206.65C359.08 206.763 358.683 205.435 359.033 204.82C359.382 204.206 360.477 204.839 360.729 205.043C361.382 205.571 360.509 205.442 360.507 205.516C360.509 206.396 361.046 206.06 361.503 205.974C362.015 207.234 362.594 206.944 361.973 205.88C361.905 205.765 361.611 206.002 361.503 205.974C361.438 204.586 362.058 204.187 363.209 205.096C363.75 205.521 363.646 206.283 364.627 205.661C365.065 205.381 364.559 204.571 364.882 204.18C365.643 203.278 367.177 203.627 368.095 203.115C368.433 202.928 367.898 202.589 368.121 202.445C368.696 202.067 369.412 202.19 369.953 201.75C370.001 201.71 369.659 201.272 369.846 201.187C371.29 200.51 372.681 200.269 374.114 199.556C374.793 199.223 375.811 198.314 376.306 198.03C376.557 197.893 376.821 197.785 376.946 197.799C377.001 197.82 377.023 197.845 376.925 198.097C376.882 198.292 376.513 198.934 376.742 200.078L377.039 201.005C376.911 200.391 376.714 199.79 376.398 199.375C375.925 198.757 375.528 199.154 375.055 199.057C374.139 198.866 374.642 197.254 374.725 197.02C374.727 197.009 375.189 197.521 375.233 197.067C375.611 196.587 374.731 197.025 374.725 197.02C374.785 196.868 374.158 195.665 373.916 195.496C373.788 195.404 373.411 195.754 373.354 195.703C371.981 194.476 370.824 193.14 369.856 191.597C369.843 191.566 370.312 191.241 370.276 191.172C369.793 190.196 368.817 190.139 367.937 189.786C367.058 189.435 366.697 188.866 367.031 187.818C366.486 187.44 366.117 186.487 365.891 185.924C365.669 185.364 364.87 186.135 364.821 186.12C363.271 185.675 363.052 184.668 361.91 183.672C361.369 183.195 360.121 182.511 359.415 182.204C358.856 181.959 358.686 181.549 358.124 181.407C358.048 181.388 357.862 181.849 357.833 181.854C357.012 182.054 357.869 181.163 357.866 180.913C357.855 180.007 357.786 179.486 356.897 179.435C356.687 179.419 355.432 180.725 355.105 180.681C354.675 180.618 355.082 180.123 354.618 180.074C354.578 180.07 354.427 180.421 354.188 180.296C353.084 179.721 351.882 179.028 350.634 178.692C350.465 178.645 350.504 179.291 350.26 179.234C349.335 179.021 348.358 178.78 347.442 178.451C347.206 178.37 346.968 178.281 346.731 178.183C346.426 178.056 346.7 177.672 346.654 177.536C346.378 176.71 345.572 177.701 345.481 177.707C343.052 177.85 341.376 176.611 338.879 176.817C338.746 176.83 337.601 177.907 337.252 176.849C337.231 176.779 336.866 175.694 336.405 176.37C336.376 176.412 336.607 176.973 336.125 176.875C335.638 176.777 334.825 177.07 334.19 176.431C333.984 176.229 333.557 175.153 332.855 175.94C332.801 175.994 331.716 177.81 331.434 176.497C331.391 176.282 331.515 174.914 330.717 175.578C330.564 175.707 330.814 176.025 330.421 176.197C329.815 176.463 329.053 176.064 328.304 176.65C328.169 176.754 327.614 177.668 327.203 176.951C327.138 176.838 327.279 176.384 327.052 176.327C325.969 176.055 324.832 176.346 323.731 176.027C323.339 175.915 323.536 175.175 323.129 174.977C322.724 174.779 321.886 174.595 321.463 174.939C321.041 175.283 321.523 176.456 320.889 176.56C318.135 177.018 315.371 176.449 312.6 176.55C312.19 176.566 312.56 176.961 311.959 177.015C309.737 177.207 305.977 178.01 303.947 177.389C302.315 176.886 304.177 176.079 302.957 175.952C302.365 175.893 301.941 177.342 301.814 177.405C301.172 177.726 300.593 177.769 300.021 177.785C299.448 177.803 298.902 177.79 298.307 177.981C298.058 178.061 298.398 178.569 298.186 178.631C297.469 178.847 296.652 178.732 295.961 178.896C295.651 178.971 295.78 179.38 295.488 179.397C294.791 179.443 294.155 179.375 293.417 179.105C293.349 179.08 293.666 178.486 293.155 178.559C292.338 178.678 291.242 178.487 290.399 179.072C290.152 179.247 290.332 180.2 289.613 179.667C289.461 179.556 289.375 178.381 288.905 179.514C288.819 179.702 288.001 181.277 287.267 180.557C287.069 180.368 286.469 179.534 286.19 179.76C286.154 179.794 286.452 180.256 286.207 180.371C285.332 180.773 284.381 180.985 283.553 181.422C283.331 181.541 283.845 181.941 283.515 182.101C282.617 182.536 281.476 182.825 280.621 183.036C280.305 183.113 280.315 182.616 280.274 182.581C279.587 182.03 279.853 183.094 279.783 183.2C279.308 183.868 278.617 183.705 278.211 184.158C278.105 184.279 278.496 184.624 278.498 184.678C278.525 185.213 278.152 184.348 277.934 184.39C277.318 184.51 276.932 184.953 276.72 185.34C276.644 185.481 277.219 185.699 277.155 185.81C277.018 186.065 276.905 186.295 276.784 186.537C276.338 187.506 275.846 188.442 275.303 189.305C275.135 189.57 274.779 189.227 274.659 189.251C273.819 189.415 274.526 190.373 274.568 190.539C274.752 191.311 274.292 191.423 274.187 191.996C273.625 194.718 273.014 198.084 273.168 198.525C273.167 198.643 273.104 198.593 273.001 198.559C274.42 200.486 275.799 201.92 278.083 203.141C278.258 203.233 278.384 202.609 278.537 202.681C280.516 203.629 282.519 204.724 284.854 205.315C285.039 205.362 284.958 204.732 285.26 204.788C285.888 204.902 286.65 205.165 287.238 205.519C287.529 205.692 286.973 206.048 287.271 206.212C287.936 206.588 288.747 206.837 289.527 206.925C289.865 206.963 289.503 206.276 289.931 206.369C292.84 206.978 295.739 207.351 298.735 208.474C298.942 208.551 298.997 209.757 299.469 209.58C299.539 209.255 299.58 208.868 299.633 208.519C302.469 208.71 305.296 209.037 308.172 209.285C309.873 209.43 311.573 209.569 313.283 209.658C313.48 209.668 313.165 209.024 313.544 209.041C315.751 209.133 317.911 209.032 320.152 209.726C320.375 209.794 320.232 210.9 320.892 210.751C321.013 210.724 322.008 210.604 322.277 210.369C322.313 210.334 322.144 209.811 322.468 209.805C324.334 209.775 326.276 209.936 328.137 210.283C328.431 210.34 328.108 210.887 328.317 210.932C329.84 211.25 331.483 210.85 332.93 211.359C333.895 211.702 333.537 212.654 334.045 213.595C334.127 213.727 334.714 213.749 334.754 214.296C334.835 215.669 334.536 217.174 334.654 218.638C334.694 218.954 335.486 218.614 335.017 219.376C334.979 219.427 334.389 219.68 334.241 219.938C334.139 220.116 334.322 220.673 334.112 220.901C333.898 221.129 333.667 220.663 333.327 220.93C332.968 221.2 333.13 221.834 332.434 221.904ZM364.808 183.417C364.748 182.678 363.463 184.139 364.175 184.124C364.211 184.122 364.812 183.454 364.808 183.417ZM340.977 213.085C341.889 213.717 341.998 212.373 341.344 211.872C340.69 211.371 340.699 212.893 340.977 213.085ZM334.16 214.985C335.06 215.543 334.786 212.797 334.025 213.465C333.98 213.503 334.108 214.952 334.16 214.985ZM331.64 213.848C331.648 213.874 332.088 213.902 332.095 213.877C332.332 213.261 331.459 213.204 331.64 213.848ZM327.097 216.303C327.372 216.665 328.081 216.196 327.741 215.75C327.473 215.391 326.761 215.854 327.097 216.303ZM340.509 171.942C340.504 171.912 340.198 171.85 340.185 172.014C340.147 172.54 340.592 172.442 340.509 171.942ZM314.847 216.177C316.657 216.364 317.668 218.685 315.692 218.341C315.335 218.279 316.499 217.651 316.051 217.425C315.232 217.014 314.612 218.416 313.795 217.612C313.647 217.465 314.744 216.161 314.851 216.174C314.849 216.175 314.848 216.176 314.847 216.177ZM366.064 181.425C366.073 181.398 365.753 181.107 365.729 181.12C365.162 181.455 365.797 182.035 366.064 181.425ZM322.338 169.772C322.314 169.716 321.298 169.676 321.269 169.727C320.759 170.742 322.791 170.827 322.338 169.772ZM376.494 204.344C376.337 205.12 375.83 205.447 375.151 204.905C375.604 204.737 376.037 204.532 376.494 204.344Z" fill="#FAEEC5" fill-opacity="0.75"/>
<path d="M497.834 209.596C496.267 209.773 494.2 209.602 492.622 209.361C492.138 209.287 492.383 208.941 492.039 208.874C491.378 208.743 490.762 208.916 490.097 208.759C489.883 208.706 490.146 208.159 489.921 208.115C488.998 207.946 488.159 207.975 487.246 207.962C486.915 207.958 486.572 207.947 486.214 207.917C479.974 207.378 473.825 207.205 467.503 206.985C465.417 206.913 462.881 206.428 460.727 206.653C460.476 206.679 460.628 207.158 460.58 207.198C459.833 207.805 460.079 206.837 459.588 206.71C457.642 206.21 455.479 206.173 453.609 206.362C452.81 206.445 453.612 207.394 452.81 206.862C452.754 206.826 452.954 206.317 452.737 206.263C452.247 206.142 451.296 206.235 450.921 206.196C450.173 206.117 450.056 206.122 449.357 206.118C448.394 206.107 447.266 205.856 446.233 205.971C446.014 205.998 446.304 206.519 445.955 206.608C445.615 206.697 444.673 206.653 444.371 206.53C444.064 206.407 444.192 205.997 444.137 205.903C443.672 205.11 442.613 206.207 442.469 206.234C442.265 206.271 442.066 206.301 441.871 206.325C439.567 206.593 437.548 206.03 435.338 205.926C433.494 205.84 431.505 205.896 429.698 205.618C427.549 205.278 425.718 204.611 423.615 203.854C423.395 203.772 423.431 204.445 423.153 204.343C422.265 204.012 421.426 203.618 420.675 203.229C418.409 202.051 416.837 200.326 415.708 198.525C415.549 198.266 416.209 198.222 416.079 197.946C415.237 196.246 414.777 193.472 412.238 193.717C411.729 192.635 411.161 191.318 411.14 190.18C411.127 189.448 411.933 189.779 411.361 189.153C411.233 189.011 410.868 189.444 410.712 189.212C410.051 188.236 409.701 187.009 409.021 186.06C408.881 185.868 408.48 186.101 408.378 186.072C408.143 185.998 408.028 185.844 407.985 185.656C407.8 184.999 408.18 184.174 408.194 183.99C408.318 181.976 408.115 180.72 408.312 179.087C408.365 178.713 407.692 179.076 407.725 178.706C407.88 177.137 408.336 175.645 408.975 174.348C409.165 173.933 409.393 173.545 409.644 173.197C409.947 172.792 410.176 173.451 410.339 173.283C411.043 172.613 410.393 171.845 411.181 171.285C411.346 171.174 411.598 171.565 411.657 171.573C412.558 171.753 412.117 170.676 412.211 170.56C413.308 169.189 414.786 169.64 415.943 168.81C416.087 168.709 415.465 168.396 415.893 168.14C418.724 166.474 421.936 165.554 424.964 165.121C425.435 165.054 425.234 165.56 425.278 165.603C425.972 166.258 425.96 165.111 426.095 165.029C427.188 164.406 428.494 165.02 428.963 163.539C432.252 163.002 435.407 162.092 438.647 161.565C440.444 161.271 442.263 161.172 444.073 161.364C444.139 161.369 444.092 161.924 444.221 161.933C445.784 162.055 445.391 161.252 446.311 160.116C446.549 159.83 447.446 161.003 447.521 161.088C447.802 161.402 447.614 162.232 447.703 162.29C448.435 162.742 448.095 160.08 449.044 160.006C449.073 160.008 448.987 160.509 449.07 160.552C449.326 160.687 449.555 160.474 449.807 160.626C450.385 160.979 450.66 162.265 451.444 161.458C451.544 161.354 451.29 159.845 452.137 159.869C452.473 159.879 453.955 159.78 454.374 159.862C454.793 159.943 454.529 160.444 454.559 160.464C455.698 161.066 455.287 161.351 455.876 162.289C456.462 163.224 456.23 160.952 456.448 160.691C456.668 160.429 457.499 160.938 457.703 161.119C457.908 161.299 457.668 161.617 457.848 161.717C459.04 162.372 458.334 160.573 458.714 160.201C459.613 159.323 460.363 160.998 461.201 161.149C461.428 161.19 461.237 160.809 461.438 160.769C462.234 160.619 462.72 161.14 463.624 160.646C463.769 160.566 464.499 159.542 464.978 160.283C465.046 160.39 464.858 160.813 465.2 160.904C465.71 161.041 466.625 161.127 467.169 160.982C467.572 160.875 467.105 160.185 467.614 160.397C467.839 160.492 467.426 160.9 467.848 161.044C468.271 161.188 469.349 161.164 469.755 161.147C470.162 161.129 469.936 160.605 469.968 160.569C470.171 160.365 470.944 160.105 471.017 160.105C471.237 160.099 471.453 160.096 471.666 160.097C474.967 160.11 478.002 160.962 481.226 160.917C481.497 160.914 481.359 160.348 481.4 160.342C482.341 160.179 481.501 161.595 482.102 162.138C482.1 161.008 482.464 161.24 483.12 161.175C483.438 161.143 483.307 160.693 483.34 160.651C483.868 160.035 484.11 160.918 484.175 161.101C484.416 161.771 484.828 161.05 484.991 161.5C485.152 161.947 484.611 162.525 485.223 162.583C485.44 162.202 485.096 161.104 485.587 160.986C487.452 160.532 490.665 161.836 492.055 162.175C493.454 162.505 493.921 162.522 494.713 162.823C496.137 163.375 495.752 162.502 496.746 162.344C497.747 162.192 496.89 163.976 496.935 164.408C496.975 164.84 497.205 164.454 497.316 164.711C497.425 164.968 497.022 165.167 497.376 165.332C497.728 165.496 498.907 165.013 499.14 164.624C499.629 163.799 499.385 162.752 500.307 163.319C500.359 163.352 500.056 163.799 500.263 163.901C501.908 164.697 503.692 165.186 505.313 165.988C505.535 166.099 505.176 166.584 505.304 166.655C506.628 167.395 506.373 166.341 507.443 165.547C507.043 166.478 507.032 167.228 507.449 167.694C507.613 167.879 507.84 168.019 508.136 168.113C508.763 168.315 508.84 167.698 509.391 167.426C509.559 167.345 509.871 167.899 510.048 167.657C510.635 166.87 510.566 165.713 511.549 166.534C511.591 166.571 511.249 166.992 511.407 167.086C512.41 167.705 512.921 166.849 514.149 167.281C515.117 167.62 516.43 168.99 517.341 169.661C516.518 171.003 517.569 171.222 518.528 170.556C519.118 170.994 519.805 171.399 520.285 171.942C520.449 172.128 520.048 172.399 520.043 172.456C519.946 173.349 520.833 172.701 520.985 172.768C522.586 173.519 523.075 175.035 524.773 175.627C524.832 175.647 525.684 174.948 525.419 175.824C525.398 175.882 524.668 175.841 525.17 176.42C525.679 177.004 526.182 178.451 527.232 178.954C527.484 179.071 528.598 179.047 528.359 179.889C528.325 180.002 528.028 180.129 527.948 180.313C527.903 180.417 527.896 180.486 527.913 180.535C527.993 180.763 528.616 180.58 528.138 181.271C527.56 182.131 527.249 182.933 528.12 183.604C528.143 183.62 529.06 183.62 529.112 183.969C529.198 184.508 529.052 185.27 529.001 185.807C528.978 186.067 529.536 185.96 529.542 186.007C529.596 187.52 528.893 188.564 528.063 189.591C528.057 189.603 528.034 189.633 528.026 189.643C527.735 189.881 527.42 190.135 527.096 190.404C526.835 190.624 526.629 191.874 525.726 191.895C524.744 191.905 523.536 189.43 522.751 190.924C522.447 191.503 523.822 194.745 521.783 194.042C520.103 195.768 517.773 196.123 515.996 197.772C515.917 197.846 516.054 198.843 515.823 198.948C515.478 199.102 515.093 198.8 514.841 198.894C513.784 199.273 513.018 200.05 512.001 200.436C511.618 200.582 511.565 200.105 511.109 200.275C510.652 200.444 510.586 201.126 509.861 201.108C509.313 201.091 508.4 200.129 507.745 200.226C508.156 201.369 507.726 201.509 507.077 202.087C506.952 202.199 507.253 202.539 507.201 202.612C506.991 202.92 506.612 202.683 506.42 203.002C506.374 203.079 506.507 203.471 506.476 203.556C506.214 204.296 505.15 203.667 504.971 203.554C504.282 203.131 504.215 203.718 503.758 203.607C503.304 203.494 503.783 203.027 503.295 203.024C502.287 203.018 501.125 203.422 500.178 203.654C499.801 203.749 500.198 204.216 500.148 204.242C499.937 204.339 499.709 204.379 499.489 204.412C498.928 204.481 498.415 204.509 498.256 205.35C497.138 202.664 497.834 205.726 496.57 205.371C496.472 205.341 496.136 204.03 496.437 203.777C496.734 203.525 497.324 203.842 497.729 203.444C497.823 203.352 498.195 201.982 498.256 201.889C498.527 201.525 498.784 201.827 498.998 202.231L498.936 202.246C499.158 202.648 499.324 203.157 499.356 203.206C500.061 204.259 500.485 202.734 500.655 202.589C501.455 201.92 502.305 201.962 502.972 201.433C503.408 201.088 503.052 199.814 503.443 199.73C504.734 199.447 505.805 201.024 506.443 199.089C506.578 198.675 505.82 197.422 507.113 198.143C507.192 198.19 508.239 198.897 508.378 198.132C508.395 198.036 508.236 197.646 508.285 197.588C508.618 197.207 509.027 197.4 509.417 197.06C509.81 196.719 510.251 196.265 510.819 196.163C511.159 196.103 511.885 196.629 512.115 196.732C512.772 197.034 512.824 196 513.375 196.474C513.936 196.946 513.87 198.121 514.766 198.158C514.3 197.17 513.852 196.139 513.394 195.139C514.863 194.436 516.436 193.962 517.792 193.059C517.958 192.946 517.473 192.557 517.64 192.424C518.346 191.868 519.228 191.781 519.883 191.106C520.386 190.583 520.621 189.622 521.067 189.055C522.199 189.749 522.759 188.712 523.379 188.27C523.6 188.112 523.82 188.363 524.034 188.305C524.836 188.072 523.804 187.54 523.814 187.281C523.826 186.631 524.484 186.95 525.162 187.135L524.761 187.696C525.223 187.756 525.687 187.741 525.814 187.41C525.847 187.344 524.803 186.378 524.727 186.327C524.322 185.832 525.188 186.419 525.351 186.225C525.634 185.883 526.005 185.586 525.613 185.153C525.493 185 524.655 184.905 525.238 184.585C525.313 184.538 525.746 184.452 525.765 184.419C526.037 183.79 524.701 184.236 524.196 184.256C523.703 184.296 524.287 183.448 524.426 183.174C524.456 183.126 524.484 183.085 524.509 183.05C524.603 182.885 524.674 182.855 524.731 182.887C524.826 182.926 524.825 183.165 524.864 183.148C525.468 182.917 525.421 182.711 525.283 182.478C525.227 182.387 525.164 182.294 525.114 182.2C526.163 181.334 525.712 180.881 524.894 181.8C524.805 181.9 525.111 182.093 525.114 182.2C523.816 182.691 523.316 182.32 523.806 180.963C524.031 180.327 524.768 180.131 523.876 179.486C523.469 179.198 522.898 179.962 522.431 179.828C521.375 179.535 521.133 178.064 520.305 177.503C520.009 177.303 519.922 177.913 519.71 177.792C519.15 177.479 518.971 176.825 518.351 176.581C518.295 176.56 518.069 177.064 517.913 176.949C516.728 176.092 515.873 175.077 514.549 174.27C513.91 173.875 512.602 173.504 511.937 173.122C510.798 172.45 509.533 171.102 508.353 170.906C507.593 170.779 507.587 171.345 507.174 171.596C506.878 171.78 506.605 171.687 506.364 171.485C505.91 171.131 505.566 170.47 505.501 170.324C505.498 170.316 506.215 170.387 505.925 170.019C505.869 169.408 505.509 170.323 505.501 170.324C505.433 170.172 504.102 169.676 503.805 169.703C503.643 169.717 503.592 170.229 503.511 170.228C501.576 170.174 499.739 169.838 497.955 169.179C497.925 169.162 498.103 168.62 498.03 168.586C497.017 168.092 496.179 168.619 495.217 168.838C494.257 169.057 493.597 168.787 493.257 167.729C492.57 167.722 491.69 167.125 491.179 166.773C490.668 166.421 490.409 167.5 490.358 167.513C488.738 167.958 487.97 167.206 486.406 166.906C485.663 166.76 484.16 166.753 483.338 166.798C482.689 166.834 482.326 166.542 481.72 166.659C481.638 166.674 481.679 167.171 481.653 167.188C480.949 167.723 481.359 166.549 481.239 166.324C480.805 165.508 480.515 165.069 479.639 165.383C479.433 165.455 478.767 167.152 478.412 167.236C477.946 167.342 478.145 166.73 477.657 166.859C477.616 166.87 477.608 167.253 477.312 167.224C475.935 167.095 474.427 166.842 472.981 166.88C472.785 166.883 473.036 167.491 472.754 167.507C472.424 167.525 472.085 167.539 471.74 167.546C470.642 167.568 469.52 167.509 468.497 167.302C468.161 167.232 468.368 166.806 468.295 166.68C467.84 165.918 467.221 167.033 467.114 167.055C464.641 167.606 462.739 166.617 460.249 167.144C460.111 167.175 459.098 168.387 458.608 167.379C458.575 167.312 458.086 166.28 457.698 167.005C457.675 167.051 457.976 167.58 457.476 167.54C456.975 167.5 456.188 167.885 455.482 167.322C455.26 167.144 454.701 166.123 454.093 166.983C454.05 167.042 453.156 168.966 452.738 167.692C452.669 167.482 452.653 166.108 451.925 166.855C451.787 167 452.07 167.289 451.698 167.503C451.129 167.832 450.326 167.518 449.657 168.182C449.54 168.299 449.086 169.268 448.608 168.6C448.533 168.495 448.62 168.028 448.392 167.996C447.304 167.844 446.229 168.261 445.132 168.075C444.743 168.011 444.844 167.252 444.425 167.105C444.002 166.959 443.179 166.881 442.821 167.278C442.466 167.675 443.087 168.772 442.504 168.96C441.764 169.202 441.014 169.362 440.286 169.485C438.342 169.819 436.349 169.878 434.424 170.252C434.018 170.331 434.446 170.665 433.86 170.811C431.675 171.347 428.147 172.69 426.114 172.403C424.473 172.17 426.113 171.074 424.918 171.149C424.339 171.189 424.213 172.682 424.109 172.764C423.058 173.596 422.037 173.339 421.111 173.942C420.923 174.067 421.344 174.489 421.186 174.588C420.651 174.93 419.968 174.986 419.504 175.289C419.297 175.426 419.545 175.775 419.343 175.851C418.86 176.045 418.424 176.112 417.841 176.047C417.785 176.043 417.696 175.453 417.409 175.641C416.961 175.933 416.219 176.112 416.348 176.635C416.388 176.792 417.209 177.304 416.588 177.043C416.464 176.979 415.404 176.488 416.281 176.998C416.3 177.008 416.337 177.026 416.385 177.048C416.625 177.438 417.285 178.42 416.459 178.563C416.207 178.605 415.206 178.664 415.295 178.955C415.311 178.992 415.848 178.977 415.855 179.185C415.871 179.909 415.75 180.557 415.929 181.066C415.979 181.195 416.51 180.992 416.567 181.164C416.695 181.527 416.698 181.818 416.693 182.108C416.757 182.347 416.818 182.585 416.871 182.806C416.962 183.19 416.446 183.113 416.412 183.158C415.861 183.891 416.95 183.723 417.067 183.837C417.778 184.55 417.607 185.396 418.086 186.109C418.217 186.305 418.608 185.939 418.668 185.961C419.272 186.201 418.295 186.272 418.334 186.589C418.444 187.479 418.907 188.301 419.362 188.998C419.53 189.253 419.883 188.671 420.027 188.899C420.886 190.243 421.676 191.579 422.256 192.813C422.365 193.046 421.915 193.212 421.868 193.319C421.549 194.079 422.652 193.82 422.788 193.824C423.444 193.887 423.29 194.292 423.637 194.495C424.078 194.743 424.475 194.944 424.775 195.068C426.833 196.065 428.213 196.624 430.15 197.066C433.418 197.778 436.426 198.301 440.041 198.247C440.272 198.243 440.046 197.636 440.246 197.625C440.806 197.6 441.324 197.589 441.887 197.586C443.95 197.575 446.028 197.691 448.126 197.551C448.341 197.538 448.029 196.965 448.376 196.924C449.092 196.836 450.002 196.865 450.734 197.047C451.092 197.134 450.614 197.627 450.972 197.705C451.797 197.888 452.693 197.926 453.547 197.832C453.913 197.791 453.359 197.206 453.835 197.198C457.047 197.131 460.213 197.019 463.469 197.765C463.692 197.816 463.893 199.006 464.366 198.776C464.401 198.445 464.397 198.056 464.411 197.703C469.095 197.493 473.746 197.883 478.441 197.923C478.642 197.924 478.292 197.295 478.68 197.295C480.908 197.293 483.046 197.106 485.336 197.721C485.562 197.782 485.457 198.892 486.11 198.721C486.202 198.697 486.814 198.602 487.196 198.451C487.323 198.404 487.428 198.352 487.49 198.294C487.525 198.257 487.338 197.74 487.663 197.723C489.529 197.635 491.5 197.743 493.369 198.05C493.678 198.1 493.353 198.654 493.572 198.695C495.098 198.98 496.749 198.552 498.217 199.047C499.197 199.381 498.835 200.336 499.36 201.274C499.431 201.406 500.042 201.425 500.073 201.972C500.154 203.346 499.865 204.85 499.986 206.315C500.009 206.63 500.813 206.29 500.337 207.052C500.302 207.103 499.727 207.357 499.585 207.616C499.485 207.795 499.667 208.35 499.464 208.579C499.261 208.809 499.034 208.344 498.697 208.614C498.364 208.887 498.513 209.519 497.834 209.596ZM488.852 165.219C488.405 164.618 488.055 166.531 488.679 166.152C488.71 166.132 488.875 165.249 488.852 165.219ZM517.151 195.213C518.174 195.61 517.92 194.286 517.175 193.962C516.437 193.632 516.845 195.089 517.151 195.213ZM511.112 198.963C512.127 199.253 511.102 196.691 510.561 197.541C510.53 197.589 511.053 198.946 511.112 198.963ZM496.956 201.551C496.958 201.576 497.402 201.6 497.407 201.574C497.635 200.956 496.768 200.91 496.956 201.551ZM504.705 202.148C505.065 202.423 505.62 201.778 505.171 201.441C504.814 201.17 504.261 201.807 504.705 202.148ZM461.239 162.098C461.231 162.069 460.918 162.048 460.927 162.212C460.958 162.739 461.388 162.583 461.239 162.098ZM492.952 204.717C494.646 204.762 496.147 206.832 494.008 206.793C493.631 206.776 494.757 206.003 494.264 205.838C493.409 205.537 492.853 206.974 491.987 206.208C491.835 206.068 492.865 204.713 492.955 204.714C492.954 204.715 492.953 204.716 492.952 204.717ZM488.885 162.864C488.878 162.837 488.455 162.752 488.441 162.776C488.126 163.355 488.973 163.525 488.885 162.864ZM442.982 162.043C442.954 161.99 441.938 162.086 441.915 162.142C441.552 163.215 443.567 163.028 442.982 162.043ZM517.334 169.706C518.073 169.424 518.629 169.688 518.527 170.554C518.144 170.254 517.734 169.99 517.334 169.706Z" fill="#FAEEC5" fill-opacity="0.75"/>
</svg>
