<svg width="401" height="243" viewBox="0 0 401 243" fill="none" xmlns="http://www.w3.org/2000/svg">
<path d="M12.9339 0.00121461C13.1032 0.00192919 12.9222 0.00286588 12.6736 0.00357775C12.5966 0.00380085 12.252 0.00368788 12.1833 0.00384189C12.0493 0.0041431 12.2183 0.00442372 12.0587 0.00472138C12.0041 0.00482002 11.4584 0.00469723 11.4136 0.00480067C11.1724 0.00536749 11.3115 0.00590372 11.1954 0.00647792C10.623 0.00930623 10.4182 0.0120864 10.1695 0.0149493C10.088 0.0158933 9.59266 0.0170408 9.80927 0.0180158C9.83505 0.0181297 10.3141 0.0180618 10.3536 0.0180835C10.958 0.0184231 9.99093 0.0183102 9.86243 0.018532C9.3551 0.0194122 9.31098 0.020391 9.49586 0.021238C9.57592 0.0215984 10.5274 0.0212371 9.99335 0.0216C9.95727 0.0216251 9.44855 0.0215337 9.3943 0.0216325C9.27226 0.0218567 9.36319 0.0222819 9.32288 0.0224556C9.24263 0.0227904 9.24775 0.0228458 9.24195 0.0231624C9.2296 0.0235953 8.97672 0.0241101 9.09199 0.0245745C9.11811 0.0246737 9.6396 0.0245424 9.72834 0.0247005C9.81694 0.0248588 9.77272 0.0252774 9.64979 0.0254185C9.52679 0.0255597 9.11691 0.0254996 9.02296 0.0255246C8.22998 0.0257301 9.32826 0.0262143 9.35542 0.0262766C9.81821 0.0274126 9.19256 0.0283868 9.19435 0.0294531C9.19703 0.0302626 9.40358 0.0311282 9.37525 0.0318984C9.33949 0.0328161 9.0569 0.0335938 9.10548 0.0344853C9.11 0.0345794 9.72316 0.0344692 9.72993 0.0345841C9.80128 0.0358049 9.73444 0.0370173 9.3205 0.0382329C9.27845 0.0383548 8.74011 0.0381977 8.6659 0.0383195C8.22348 0.0390652 7.16068 0.0402451 9.50459 0.040688C9.41306 0.0411931 9.3185 0.0418063 8.84602 0.0422582C8.54192 0.0425496 7.95545 0.0422666 8.2057 0.0426245C8.26146 0.0427052 8.77506 0.0426002 8.81983 0.0427213C9.00786 0.043231 8.8409 0.0437878 9.10627 0.044292C9.16146 0.0443946 9.62166 0.0443666 9.70454 0.0443956C10.3757 0.0446398 9.26623 0.0450464 9.18562 0.045135C8.58445 0.0458099 8.82102 0.0463027 8.80635 0.0469314C8.80268 0.0470773 9.42084 0.0469049 9.43952 0.0470453C9.52812 0.0477734 9.47499 0.0485276 9.20069 0.0492406C9.13819 0.0493992 8.61163 0.0492533 8.55482 0.0493291C8.31074 0.0496633 9.30529 0.0497373 9.0904 0.0500578C9.04638 0.0501254 8.5956 0.0500873 8.54609 0.0500996C7.76894 0.0502925 8.87011 0.0504601 8.89442 0.0505097C9.2266 0.0511373 8.07704 0.0515384 8.23982 0.0521446C8.26045 0.0522172 8.83082 0.0520536 8.85395 0.0522575C9.01141 0.0536157 8.85472 0.0550522 8.39851 0.0563966C8.32835 0.0566057 7.89988 0.0564565 7.84706 0.0564696C7.02177 0.056684 8.12756 0.0568227 8.1692 0.0568909C8.46897 0.0574286 7.54164 0.0579309 8.85871 0.0582962C8.40164 0.0605734 9.14125 0.0628402 7.96132 0.0650986C7.94765 0.0651273 7.40305 0.0650759 7.37813 0.0651331C7.07234 0.0658229 7.91875 0.0656905 8.95393 0.0661469C9.21387 0.0662619 7.96406 0.0666116 7.87245 0.0666426C7.53486 0.0667553 6.72464 0.0666384 6.65926 0.0666761C6.14587 0.0669886 8.82532 0.0669376 8.82618 0.0673591C8.82171 0.0673723 8.32853 0.0673169 8.27949 0.0673523C8.12554 0.0674622 8.32151 0.0675712 8.15175 0.0676787C7.75891 0.0679248 6.45693 0.0680125 7.21468 0.0683884C7.31302 0.068436 8.83292 0.0683633 8.76112 0.0687396C8.73121 0.0688897 8.75726 0.0695537 8.65876 0.0697398C8.56039 0.0699256 8.0706 0.069798 8.04939 0.0698113C7.40173 0.0703121 7.13331 0.0701222 6.17446 0.0703731C5.21922 0.070624 7.49755 0.0705544 7.75184 0.0706567C8.00542 0.0707592 7.47106 0.0711264 7.28529 0.0712166C7.09945 0.0713068 6.78823 0.0711943 6.68306 0.0712745C5.99596 0.0718062 7.81394 0.0715079 8.17555 0.0716831C9.03177 0.0720962 7.34215 0.0724179 7.17659 0.0727961C7.13188 0.0728984 7.5167 0.0728149 7.55269 0.072906C7.69012 0.0732669 7.16292 0.0734839 7.64632 0.0738945C7.72509 0.0739616 8.74093 0.0742935 7.99544 0.0745084C7.88794 0.0745388 7.46689 0.0744523 7.37257 0.0746061C7.23103 0.0748359 7.139 0.0752498 7.27974 0.0754968C7.38387 0.0756791 8.07766 0.0754702 7.86213 0.0756996C7.7659 0.0758017 7.36003 0.0756126 7.21309 0.0758042C7.06619 0.0759948 7.08402 0.0764822 7.09804 0.0766677C7.11236 0.0768528 7.63863 0.0767515 7.67409 0.0767664C7.87718 0.076857 8.13095 0.0772122 8.13032 0.0772436C8.19457 0.0788272 7.30748 0.0802875 7.60109 0.0818293C7.62337 0.0819503 8.17833 0.0818697 8.18745 0.0818882C8.41997 0.0823024 6.94446 0.0819758 6.45058 0.0822652C7.57676 0.0822233 7.37284 0.0823942 7.49635 0.0826859C7.55678 0.0828265 7.99285 0.08275 8.03749 0.0827628C8.69982 0.0829713 7.84433 0.0831165 7.66933 0.0831539C7.02556 0.083292 7.78621 0.0834423 7.35591 0.0835362C6.92883 0.0836301 6.29568 0.083414 6.30379 0.0836939C6.70692 0.0837723 7.76042 0.0835646 7.93117 0.083777C8.577 0.0845786 7.75043 0.086075 7.66456 0.0867195C7.57878 0.0873628 7.65315 0.0875705 7.50746 0.0879453C7.24403 0.0886224 8.02566 0.0883743 8.38343 0.0887947C8.74117 0.0892163 6.81799 0.0890113 6.40456 0.089072C5.99131 0.0891315 6.41671 0.0891964 6.18953 0.0892704C5.96241 0.0893442 5.68131 0.0891845 5.59603 0.089358C5.51083 0.0895316 6.24601 0.0900062 6.6783 0.0900677C7.59413 0.0901978 8.55534 0.0899839 8.2176 0.0904432C8.19756 0.0904697 7.69187 0.0903839 7.64076 0.0904851C7.25146 0.0912885 7.22733 0.0921231 6.88301 0.0929256C6.83488 0.0930359 6.27231 0.0929372 6.23793 0.0930014C5.87811 0.0936703 6.82666 0.0934312 7.88038 0.0937977C6.4781 0.0937155 5.62018 0.0939181 5.6119 0.0944257C5.60643 0.0947309 6.21888 0.0946783 6.65053 0.0948757C6.78065 0.0949349 6.36012 0.0951508 6.64815 0.0951899C7.58966 0.095319 8.64363 0.0951156 8.22395 0.0956389C8.20401 0.0956619 7.68864 0.0955888 7.65742 0.0956681C7.45313 0.0961809 8.43794 0.0962423 8.5572 0.0967967C8.65078 0.0972312 8.05026 0.098004 7.95259 0.0984987C6.37602 0.0984883 6.73703 0.0989556 7.82405 0.0991452C7.77955 0.0994663 7.841 0.0998131 7.69075 0.100123C7.63952 0.10023 7.18306 0.10016 7.13374 0.100174C6.36005 0.10038 7.4176 0.10052 7.45906 0.100589C7.86209 0.10134 7.06055 0.101952 7.84389 0.102669C7.8721 0.102694 8.96723 0.102736 8.16761 0.102927C8.1125 0.10294 7.61423 0.102703 7.5757 0.10304C7.53708 0.103377 6.95001 0.104013 7.45747 0.104481C7.57964 0.104595 8.46867 0.104881 7.77406 0.105111C7.67974 0.105142 7.36565 0.105109 7.19087 0.105153C6.63396 0.105296 7.74087 0.105374 6.80049 0.105542C5.86016 0.10571 5.15592 0.10606 5.80471 0.106532C5.82357 0.106547 6.7009 0.106659 6.68703 0.106807C6.66413 0.107044 6.48136 0.107381 6.48708 0.107628C6.49013 0.107747 7.03491 0.107671 7.04488 0.107692C7.35015 0.108488 6.86448 0.109056 6.6537 0.109909C6.61399 0.110066 7.35688 0.110515 6.76955 0.110818C6.12661 0.111151 3.45207 0.110809 4.08926 0.111574C4.34412 0.111882 7.73726 0.112273 5.97927 0.112827C6.41489 0.113902 5.51515 0.114896 6.13716 0.115974C6.16472 0.116022 7.11172 0.116175 7.09883 0.116289C7.07786 0.116459 6.63525 0.116551 6.6061 0.116672C6.47277 0.117178 6.85146 0.117642 6.79256 0.11813C6.77116 0.118315 6.3135 0.11825 6.28792 0.118471C6.26277 0.118692 6.86542 0.118839 6.57436 0.119138C6.3525 0.119364 5.12071 0.119591 4.97713 0.119891C6.19216 0.119902 6.16713 0.120108 6.48787 0.120474C6.5501 0.120545 6.973 0.120469 7.02425 0.120502C7.24221 0.120638 6.89172 0.120763 7.12898 0.120892C7.18597 0.120923 7.60091 0.120925 7.67091 0.12095C8.28199 0.121168 7.34862 0.121527 7.18611 0.121588C6.56892 0.121824 7.1086 0.121934 6.86556 0.122116C6.62254 0.122296 6.31875 0.122026 6.17128 0.122237C5.86626 0.122675 5.93327 0.123237 5.9142 0.123681C5.90916 0.123859 6.46304 0.123738 6.47518 0.123763C6.61566 0.12413 6.02649 0.124501 7.12978 0.124704C4.27708 0.124958 7.40647 0.124925 6.8354 0.125449C6.78922 0.12549 5.4402 0.125543 5.24215 0.125384C5.04429 0.125226 5.46597 0.124986 5.15725 0.124766C5.0848 0.124714 3.82068 0.124415 3.74411 0.124375C3.14565 0.124056 5.16158 0.124011 5.2723 0.123994C6.4672 0.123802 5.10535 0.123438 5.01125 0.123342C4.58007 0.122903 4.86358 0.12253 4.55581 0.122162C4.3569 0.121922 3.03639 0.121898 3.07681 0.12171C3.21041 0.121083 5.05252 0.120864 3.45529 0.120273C3.11463 0.120146 1.67136 0.120272 2.80624 0.119818C2.87779 0.11979 3.916 0.119452 3.25931 0.119258C3.17651 0.119233 2.75588 0.119234 2.72055 0.119202C2.49199 0.118986 2.82708 0.118841 2.66659 0.118606C2.50611 0.11837 2.26685 0.118087 2.40952 0.117818C2.49482 0.117656 3.2785 0.117448 3.47036 0.117371C4.02307 0.117152 3.11686 0.116917 3.78616 0.116781C4.45882 0.116644 5.48037 0.116912 5.915 0.116553C4.82219 0.11654 3.70054 0.116509 2.60153 0.116488C2.64001 0.115702 2.99338 0.114928 2.9451 0.114139C2.93802 0.114041 2.35052 0.114141 2.32779 0.114036C2.23446 0.113594 2.65326 0.113207 2.48648 0.112749C2.35513 0.112393 1.7331 0.112004 1.57639 0.111633C2.82687 0.111406 2.40236 0.110855 2.51663 0.110454C2.55612 0.110314 2.8901 0.110324 2.99905 0.110224C3.40202 0.109848 2.29698 0.110024 2.12308 0.109921C1.38089 0.109478 3.88208 0.10944 3.82028 0.108919C3.81785 0.108891 2.48461 0.108553 2.40158 0.108507C1.86019 0.108211 2.86563 0.108458 2.96414 0.108273C3.14416 0.107935 3.46256 0.1077 3.07205 0.107304C2.95638 0.107188 2.12539 0.106911 2.76816 0.106687C2.85232 0.106657 3.29301 0.106673 3.31881 0.10665C3.74901 0.106219 2.36432 0.106208 1.89536 0.105962C1.4265 0.105716 2.38237 0.105337 2.65787 0.105259C3.37055 0.105057 2.96244 0.105414 3.03238 0.105425C3.86468 0.105554 3.72139 0.105277 3.79171 0.105065C5.14942 0.105035 5.06792 0.104739 3.85916 0.104846C3.72713 0.104858 3.85374 0.105023 3.79171 0.105065C2.45962 0.104879 2.28902 0.104554 3.53384 0.104195C4.11727 0.104027 4.79752 0.104186 4.54867 0.103675C4.43633 0.103443 3.50148 0.103533 3.24661 0.103328C2.66509 0.102861 3.53715 0.102253 3.39975 0.101772C3.34986 0.101597 2.83813 0.101767 2.78641 0.101647C2.64753 0.10133 3.0315 0.101051 2.83481 0.100732C2.81634 0.100703 2.28066 0.100774 2.27383 0.100675C2.21162 0.0999236 2.55473 0.0992697 2.56424 0.0984856C2.56859 0.0981067 2.27315 0.0974294 2.33255 0.097037C2.43234 0.0963568 3.21129 0.09552 3.02206 0.0949389C2.90093 0.09456 2.36515 0.0946431 2.00009 0.0944807C1.29247 0.0941673 2.55999 0.0936127 2.75626 0.093538C2.76275 0.0935357 2.88906 0.0938618 3.16409 0.0936878C3.73717 0.0935866 2.75874 0.0935417 2.75626 0.093538C2.88305 0.0934889 3.00467 0.0928375 2.90225 0.0927081C2.84628 0.0926378 2.33865 0.0926771 2.31906 0.0926405C1.86478 0.0917694 1.73576 0.0908967 1.97312 0.0900132C1.98337 0.0899977 2.55118 0.0900211 2.56821 0.0899845C2.82067 0.089473 2.12606 0.0891455 1.71366 0.0887237C1.30144 0.0883019 1.4395 0.0879674 2.41428 0.0877177C2.29154 0.0873994 2.72249 0.0869429 2.98398 0.0866801C3.24546 0.0864174 2.14017 0.0863807 2.11832 0.0863576C1.41895 0.0856366 2.0516 0.0852197 2.15006 0.0844717C2.19876 0.084116 2.03844 0.0834106 1.91757 0.0830255C1.8202 0.0827212 2.07923 0.0825378 1.91361 0.0822574C1.89149 0.0822195 1.39935 0.0822578 1.38041 0.0822462C0.791597 0.0819332 1.99469 0.0820836 2.20957 0.082019C2.99094 0.0817848 3.4071 0.08164 3.03952 0.0812393C2.95534 0.0811468 1.22305 0.0808775 1.12174 0.080709C0.993201 0.08049 1.61412 0.0805726 1.46372 0.0803432C1.45142 0.0803236 1.06835 0.0803277 1.08524 0.0801861C1.1586 0.0795289 1.3815 0.0788124 1.34311 0.0781294C1.33934 0.0780361 0.731739 0.0781558 0.716284 0.078021C0.644261 0.0773885 0.666747 0.0766952 0.951146 0.0760791C1.02306 0.0759274 1.44848 0.0760225 1.5748 0.0759896C2.3391 0.0757874 1.22859 0.0755008 1.20743 0.0754535C0.673773 0.0743254 1.67877 0.0734619 1.20029 0.0723121C1.1722 0.0722495 -0.01829 0.0717677 1.00272 0.0715527C1.07065 0.071538 2.11525 0.0713253 1.40103 0.0711373C1.35635 0.0711256 0.818577 0.0712581 0.873388 0.0710269C0.928079 0.0707956 0.568956 0.0704235 1.15982 0.0701056C1.34596 0.0700049 2.38798 0.0697671 1.55735 0.0694669C1.49936 0.0694473 -0.378822 0.0689839 0.917028 0.0688184C1.13034 0.0687916 2.50164 0.0688197 1.79856 0.0684614C1.66225 0.0683929 1.35638 0.0685172 1.16538 0.0683369C0.87101 0.0680605 1.23829 0.0676944 0.627417 0.0673547C0.51927 0.0672955 -0.411488 0.0670433 0.294959 0.066841C0.405601 0.0668094 0.863413 0.0668696 0.914647 0.0667627C1.16041 0.0662548 0.854178 0.0657229 1.17093 0.0652071C1.28224 0.0650244 2.02234 0.0651178 2.22067 0.0649274C2.41894 0.0647369 2.60966 0.0643532 2.27145 0.0641539C1.9331 0.0639546 0.753544 0.0641723 0.659155 0.0638738C0.249216 0.0625756 0.941174 0.0612896 1.04239 0.0599934C1.05751 0.0598011 0.63543 0.0599605 0.627417 0.0596772C0.596016 0.0586327 0.20027 0.0568292 1.09714 0.0559228C1.81549 0.0551966 2.36237 0.0561105 2.65469 0.0555556C2.79414 0.0552878 1.42279 0.0549981 1.37961 0.0549334C0.941056 0.0543019 1.54854 0.053863 1.36216 0.0532946C1.32348 0.0531772 0.767657 0.0532923 0.740881 0.0531924C0.644489 0.0528512 0.892583 0.0524926 0.847204 0.0521665C0.825567 0.0520203 0.401049 0.0520472 0.433814 0.0519126C0.507322 0.0515905 0.685769 0.0513058 1.08365 0.0509918C1.11991 0.0509632 1.64799 0.0511561 1.66764 0.0509178C1.69792 0.0505322 2.09043 0.0500535 1.68509 0.0496098C1.56316 0.0494781 0.59293 0.049473 1.26297 0.04919C1.40292 0.0491306 2.56795 0.0492064 1.56131 0.0488767C1.39403 0.0488213 0.0362664 0.0482675 0.911473 0.0479958C1.14182 0.0479241 2.09517 0.0477411 1.94534 0.0475828C1.92144 0.0475613 1.40029 0.0476473 1.34946 0.0475161C1.17938 0.0470538 1.23498 0.0465693 1.07175 0.0460943C1.02713 0.0459674 0.487853 0.0461563 0.438575 0.0459673C0.302267 0.0454475 0.439577 0.0447984 0.608374 0.0442901C0.67163 0.0441026 1.11835 0.0442322 1.16697 0.0442186C1.95769 0.0439992 0.890394 0.0438696 0.828161 0.0437968C0.455513 0.0433441 0.956866 0.0429994 0.824193 0.0425822C0.788933 0.042467 0.280034 0.0425487 0.234657 0.0425257C-0.208712 0.042288 0.705204 0.0424651 0.805944 0.0423146C1.09119 0.0418931 1.05029 0.0414232 0.985265 0.0409968C0.960631 0.0408403 0.370551 0.0410163 0.355262 0.0408757C0.253581 0.040044 0.310045 0.0391793 0.635351 0.0383676C0.697674 0.0382148 1.15205 0.0383109 1.25583 0.0382791C1.98191 0.0380595 0.991532 0.0377378 0.897191 0.0376637C0.466432 0.0373271 0.868248 0.0371963 0.793249 0.0368991C0.419836 0.0354468 0.685964 0.0336536 0.850377 0.0322827C1.06198 0.0304963 1.49424 0.0291101 1.38199 0.0274066C1.37543 0.0272983 0.770963 0.0274075 0.757543 0.0273142C0.611826 0.0261092 0.848026 0.0249229 0.673437 0.0237155C0.660182 0.0236164 0.0871456 0.0237592 0.046608 0.0236002C-0.0405582 0.023274 -0.00941159 0.0228608 0.173561 0.022531C0.261721 0.0223701 0.753437 0.0225859 0.832128 0.022424C1.01648 0.022047 1.05729 0.0216428 0.965428 0.0212556C0.925086 0.0210908 0.339016 0.0213394 0.332252 0.0211252C0.274109 0.019666 0.173172 0.018233 0.932103 0.0167584C0.984226 0.0166573 2.17535 0.0165686 1.94693 0.0163537C1.61636 0.0163375 1.22751 0.0163384 0.874181 0.0163313C0.683849 0.0142071 1.09677 0.0121046 1.16062 0.00997447C1.16317 0.00988466 0.532056 0.0100399 0.533789 0.00986599C0.54312 0.00885962 0.368281 0.00788237 0.99558 0.00685297C1.05693 0.00675083 2.16722 0.00680323 1.9993 0.00650224C1.96866 0.00644916 1.82058 0.00599583 1.57956 0.00587862C1.54321 0.0058627 1.02497 0.00594541 1.00986 0.00579933C0.931165 0.00495043 1.04948 0.00406083 1.36612 0.0032134C1.41822 0.00307664 1.9701 0.00322229 2.01199 0.00312487C2.30496 0.00243387 1.88543 0.00168226 2.38651 0.00102198C2.7239 0.000580012 3.67787 0.000743642 4.61691 0.000508785C4.74939 0.000475567 4.77038 0.000201886 5.31673 0.000187733C6.69058 0.000151398 8.19493 0.000283961 9.65931 0.000229567C9.97473 0.000218075 9.635 -0.000148454 10.3972 6.85547e-05C10.4482 8.3715e-05 10.7012 0.000349451 10.9598 0.000414902C11.1386 0.000460471 11.6942 0.000378354 11.923 0.000471329C12.1517 0.000564297 11.6859 0.000666456 11.9548 0.000820595C12.227 0.000974665 12.8591 0.000906919 12.9339 0.00121461ZM4.15274 0.0854971C4.68354 0.0852538 2.73942 0.0852179 3.20456 0.085481C3.22935 0.0854938 4.1267 0.0855096 4.15274 0.0854971ZM4.4598 0.114932C5.31729 0.114614 4.05644 0.114397 3.39419 0.114621C2.73266 0.114845 4.19986 0.115029 4.4598 0.114932ZM5.08584 0.11823C5.76193 0.117859 3.0051 0.1178 3.5624 0.118198C3.5939 0.118221 5.04658 0.118252 5.08584 0.11823ZM4.8843 0.00159793C4.91012 0.00159457 4.93528 0.00139784 4.90969 0.00139314C4.29224 0.00128838 4.24236 0.00168177 4.8843 0.00159793ZM5.76742 0.121503C6.14034 0.121387 5.70984 0.121053 5.24612 0.121197C4.87306 0.121313 5.30352 0.121648 5.76742 0.121503ZM6.22762 0.0728063C6.25659 0.0728025 6.28268 0.0726614 6.11892 0.0726643C5.59148 0.0726738 5.74034 0.0728701 6.22762 0.0728063ZM5.79915 0.127066C5.90292 0.126244 8.1802 0.125745 7.92323 0.12664C7.87674 0.126802 7.19703 0.126291 6.99172 0.126497C6.61767 0.126875 8.04753 0.127125 7.28133 0.127511C7.14109 0.12758 5.78817 0.127112 5.79598 0.127064C5.79704 0.127065 5.7981 0.127065 5.79915 0.127066ZM6.48787 0.085357C6.51358 0.0853521 6.53796 0.0851569 6.51247 0.0851522C5.89527 0.0850465 5.8458 0.0854398 6.48787 0.085357ZM7.4297 0.0645762C7.48448 0.0645654 7.53572 0.0641123 7.48524 0.0640975C6.47595 0.0638611 6.36938 0.0647772 7.4297 0.0645762ZM7.91054 0.0985065C8.53144 0.0987195 8.60455 0.0989744 7.82484 0.0991442C7.86623 0.0989325 7.87233 0.0987194 7.91054 0.0985065Z" fill="#171717" fill-opacity="0.75"/>
<path d="M273.41 173.054C272.688 173.361 271.529 173.638 270.613 173.831C270.326 173.891 270.37 173.615 270.163 173.65C269.762 173.718 269.458 173.979 269.058 174.041C268.922 174.062 268.915 173.649 268.775 173.68C268.006 173.851 267.386 174.264 266.653 174.557C263.016 176.022 259.664 178.115 256.425 180.535C255.359 181.33 253.903 182.145 252.99 183.203C252.884 183.326 253.181 183.503 253.177 183.544C253.115 184.176 252.772 183.579 252.481 183.733C252 183.988 251.551 184.299 251.125 184.658C250.636 185.051 250.284 185.551 250.093 186.048C249.963 186.41 250.72 186.379 250.23 186.536C250.196 186.549 249.918 186.311 249.839 186.391C249.657 186.573 249.56 187.031 249.488 187.207C249.341 187.547 249.332 187.61 249.274 187.962C249.195 188.44 249.004 189.054 249.13 189.628C249.158 189.749 249.504 189.561 249.582 189.744C249.657 189.925 249.695 190.433 249.645 190.628C249.591 190.819 249.299 190.795 249.241 190.838C248.746 191.208 249.634 191.706 249.673 191.784C249.755 191.962 249.828 192.149 249.892 192.336C250.18 192.982 250.373 193.736 251.302 194.318C252.085 194.797 253.178 195.037 254.153 195.306C255.324 195.628 256.339 195.984 257.585 196.089C257.715 196.1 257.609 195.662 257.767 195.674C259.449 195.798 261.148 195.906 262.883 196.194C263.057 196.223 262.833 196.596 263.007 196.647C264.084 196.956 265.826 197.639 266.396 195.987C267.133 196.019 268.005 196.035 268.684 196.319C269.117 196.501 268.736 196.934 269.242 196.726C269.356 196.679 269.179 196.335 269.352 196.292C270.085 196.11 270.889 196.161 271.608 195.914C271.753 195.863 271.685 195.549 271.722 195.488C272.028 194.994 272.683 195.704 272.818 195.747C273.839 196.067 274.53 195.829 275.442 195.737C275.652 195.716 275.356 195.319 275.557 195.283C276.6 195.104 277.69 195.008 278.745 195.064C278.979 195.077 278.816 195.466 278.93 195.49C279.435 195.595 279.452 194.898 279.934 194.984C280.036 195.001 280.023 195.318 280.045 195.349C280.397 195.845 280.536 195.056 280.605 195.03C281.478 194.677 282.171 195.382 283.031 195.143C283.134 195.113 282.841 194.757 283.133 194.698C285.078 194.301 287.164 194.08 289.154 194.068C289.165 194.068 289.175 194.069 289.185 194.069C289.452 194.088 289.299 194.395 289.323 194.427C289.73 194.938 289.8 194.148 289.891 194.103C290.618 193.764 291.447 194.255 291.786 193.253C295.063 192.897 298.034 191.522 301.339 191.148C301.38 191.142 301.445 191.521 301.527 191.508C302.547 191.344 302.158 190.864 302.487 189.959C302.562 189.735 303.368 190.336 303.433 190.377C303.675 190.528 303.738 191.111 303.806 191.131C304.368 191.277 303.568 189.604 304.108 189.364C304.127 189.359 304.192 189.704 304.253 189.714C304.443 189.746 304.531 189.557 304.721 189.6C305.156 189.7 305.657 190.463 305.921 189.756C305.954 189.664 305.408 188.761 305.914 188.569C306.119 188.495 306.946 188.055 307.217 187.987C307.484 187.924 307.481 188.309 307.504 188.313C308.351 188.371 308.193 188.664 308.835 189.071C309.484 189.469 308.629 188.139 308.672 187.913C308.717 187.688 309.356 187.75 309.532 187.796C309.71 187.841 309.675 188.11 309.815 188.113C310.737 188.124 309.714 187.265 309.804 186.92C309.995 186.115 311.008 186.861 311.531 186.661C311.671 186.608 311.427 186.449 311.522 186.358C311.91 185.991 312.374 186.12 312.672 185.508C312.725 185.405 312.709 184.558 313.253 184.801C313.332 184.836 313.4 185.146 313.619 185.068C313.957 184.945 314.46 184.648 314.694 184.344C314.86 184.124 314.326 183.93 314.678 183.845C314.835 183.807 314.794 184.196 315.074 184.105C315.344 184.024 315.906 183.552 316.094 183.38C316.296 183.197 315.947 183.014 315.948 182.981C315.962 182.786 316.231 182.323 316.261 182.296C317.846 180.851 319.679 179.79 320.856 178.062C320.888 178.01 320.915 177.956 320.936 177.898C320.972 177.795 320.593 177.69 320.595 177.673C320.572 177.533 320.775 177.577 321.045 177.649C321.313 177.718 321.639 177.845 321.853 177.668C321.076 177.558 321.272 177.407 321.179 177.066C321.13 176.904 320.832 177.013 320.801 176.999C320.332 176.842 320.885 176.617 320.993 176.534C321.392 176.266 320.828 176.214 321.075 176.014C321.311 175.794 321.834 175.952 321.686 175.56C321.387 175.561 320.802 176.069 320.596 175.865C320.457 175.733 320.332 175.573 320.208 175.392C319.655 174.522 318.971 173.2 318.42 172.692C317.778 172.084 317.501 171.979 317.118 171.61C316.402 170.964 316.418 171.608 315.806 171.558C315.185 171.519 316.021 170.452 316.072 170.157C316.117 169.86 315.904 170.084 315.874 169.896C315.842 169.707 316.141 169.633 315.93 169.469C315.717 169.301 314.852 169.486 314.665 169.737C314.254 170.256 314.293 170.983 313.777 170.534C313.747 170.508 313.985 170.223 313.862 170.139C312.888 169.487 311.731 169.128 310.648 168.618C310.501 168.547 310.732 168.203 310.647 168.158C309.752 167.691 309.938 168.411 309.265 169.01C309.581 168.086 309.427 167.44 308.68 167.29C308.23 167.2 308.231 167.632 307.896 167.875C307.796 167.949 307.535 167.608 307.444 167.795C307.149 168.406 307.32 169.172 306.62 168.764C306.59 168.746 306.749 168.41 306.64 168.37C305.937 168.118 305.731 168.777 304.942 168.753C304.314 168.733 303.262 168.191 302.542 168.051C302.67 166.967 301.966 167.148 301.62 167.872C301.151 167.798 300.654 167.798 300.209 167.659C300.057 167.611 300.184 167.304 300.167 167.269C299.906 166.711 299.642 167.426 299.54 167.447C298.438 167.647 297.575 167.038 296.495 167.525C296.457 167.543 296.355 168.296 296.108 167.73C296.092 167.691 296.452 167.363 295.965 167.312C295.48 167.261 294.557 166.814 293.864 167.14C293.696 167.218 293.253 167.818 292.932 167.326C292.889 167.26 292.945 167.044 292.885 166.921C292.69 166.529 292.552 167.291 292.327 166.633C292.105 165.974 291.592 165.471 290.892 165.903C290.87 165.915 290.692 166.518 290.475 166.504C290.129 166.48 289.63 166.342 289.27 166.339C289.098 166.338 289.201 166.717 289.171 166.723C288.002 166.912 287.178 166.563 285.922 166.403C285.69 166.372 285.032 166.88 284.59 166.469C284.105 166.02 284.618 164.172 283.493 164.605C283.041 164.778 282.448 167.123 281.644 165.903C281.097 166.005 280.562 165.996 280.028 165.959C280.02 165.958 279.998 165.96 279.99 165.961C278.994 166.018 277.996 165.983 277.012 166.413C276.943 166.442 276.816 167.124 276.652 167.14C276.409 167.162 276.222 166.881 276.045 166.888C275.296 166.912 274.671 167.283 273.962 167.369C273.691 167.403 273.727 167.075 273.407 167.116C273.08 167.159 272.953 167.608 272.481 167.497C272.129 167.411 271.627 166.643 271.166 166.642C271.33 167.467 271.027 167.514 270.553 167.852C270.462 167.918 270.637 168.178 270.597 168.223C270.443 168.414 270.204 168.222 270.064 168.426C270.029 168.475 270.096 168.755 270.073 168.811C269.869 169.296 269.214 168.802 269.096 168.718C268.65 168.397 268.595 168.802 268.299 168.714C267.995 168.629 268.318 168.313 267.989 168.305C267.308 168.289 266.526 168.601 265.901 168.842C265.655 168.94 265.969 169.225 265.937 169.247C265.622 169.45 265.206 169.45 265.005 169.707C264.923 169.827 264.889 169.994 264.94 170.242C263.558 168.788 264.763 170.563 263.964 170.688C263.902 170.698 263.236 170.034 263.351 169.766C263.47 169.495 263.953 169.505 264.129 169.139C264.157 169.079 264.139 168.585 264.147 168.257C264.166 168.247 264.221 168.215 264.24 168.206C264.253 168.059 264.268 167.945 264.281 167.921C264.602 167.305 265.237 168.56 265.289 168.618C265.884 169.258 266.03 168.188 266.158 168.072C266.69 167.555 267.302 167.566 267.776 167.201C268.084 166.966 267.876 166.076 268.164 166.024C269.141 165.853 269.753 167.018 270.375 165.739C270.508 165.467 270.106 164.531 270.954 165.15C271.01 165.188 271.654 165.786 271.855 165.282C271.88 165.218 271.821 164.933 271.864 164.899C272.153 164.68 272.415 164.865 272.745 164.689C273.076 164.514 273.47 164.273 273.888 164.301C274.146 164.315 274.537 164.799 274.676 164.911C275.063 165.234 275.308 164.559 275.583 164.985C275.855 165.413 275.576 166.173 276.145 166.388C276.048 165.638 275.974 164.863 275.89 164.107C277.067 163.952 278.24 164.036 279.405 163.855C279.55 163.831 279.35 163.447 279.504 163.411C279.559 163.399 279.614 163.389 279.668 163.381C279.742 163.376 279.962 163.355 280.036 163.359C280.625 163.351 281.154 163.588 281.77 163.485C282.291 163.397 282.874 162.969 283.419 162.865C283.743 163.733 284.565 163.445 285.152 163.53C285.358 163.56 285.342 163.791 285.488 163.868C286.035 164.152 285.786 163.385 285.94 163.266C286.604 162.76 286.639 164.492 287.404 164.46C287.443 164.459 287.957 163.544 288.028 163.488C288.474 163.12 288.096 163.81 288.369 163.883C288.869 164.016 289.202 164.243 289.798 163.985C289.971 163.909 290.397 163.343 290.717 163.796C290.759 163.855 290.728 164.159 290.762 164.178C291.386 164.492 291.43 163.534 291.806 163.22C292.184 162.906 292.726 163.585 292.832 163.779C293.114 164.282 292.598 163.983 292.58 164.031C292.372 164.601 292.783 164.514 293.092 164.573C293.106 165.514 293.547 165.473 293.417 164.631C293.403 164.539 293.154 164.618 293.092 164.573C293.4 163.661 293.894 163.56 294.39 164.442C294.623 164.856 294.361 165.316 295.129 165.176C295.477 165.113 295.373 164.461 295.685 164.299C296.391 163.928 297.276 164.579 297.988 164.527C298.247 164.508 298.018 164.139 298.197 164.115C298.682 164.048 299.082 164.341 299.563 164.239C299.607 164.229 299.529 163.852 299.676 163.858C300.81 163.897 301.774 164.217 302.941 164.342C303.521 164.403 304.548 164.314 305.147 164.434C306.157 164.631 307.349 165.358 308.244 165.386C308.824 165.405 308.771 165.019 309.068 164.818C309.65 164.428 310.315 165.467 310.401 165.627C310.404 165.631 309.884 165.608 310.111 165.852C310.181 166.273 310.395 165.627 310.401 165.627C310.463 165.727 311.415 166.037 311.638 166.024C311.755 166.014 311.782 165.658 311.842 165.659C313.251 165.697 314.657 166.037 315.97 166.751C315.992 166.767 315.807 167.117 315.858 167.15C316.572 167.636 317.254 167.426 318.051 167.522C318.833 167.612 319.337 168.036 319.331 168.842C319.856 169.082 320.34 169.825 320.57 170.267C320.8 170.706 321.368 170.199 321.412 170.217C322.739 170.824 322.986 171.794 323.669 173.072C323.725 173.18 323.793 173.305 323.869 173.443C324.253 174.117 324.758 175.204 324.95 176.035C325.134 176.826 324.986 177.368 324.928 178.308C324.916 178.44 325.277 178.38 325.281 178.422C325.372 179.689 324.706 178.884 324.502 179.053C324.023 179.401 323.65 179.601 323.293 179.937C323.229 179.974 323.167 180.037 323.103 180.133C323.054 180.21 323.008 180.317 322.957 180.462C322.923 180.598 323.562 181.708 323.424 181.976C323.254 182.309 323.028 181.915 322.848 182.276C322.831 182.308 323.035 182.479 322.874 182.639C322.113 183.407 321.187 184.122 320.406 184.885C320.296 184.991 320.726 185.165 320.571 185.324C319.858 186.052 318.993 186.774 318.099 187.238C317.876 187.354 317.813 187.027 317.717 186.991C317.146 186.771 317.262 187.654 317.208 187.714C315.996 189.105 314.478 189.31 313.127 190.548C313.051 190.62 312.836 191.719 312.176 191.287C312.132 191.258 311.472 190.809 311.469 191.381C311.468 191.417 311.834 191.636 311.502 191.783C311.175 191.928 310.762 192.443 310.137 192.315C309.936 192.277 309.278 191.811 309.121 192.539C309.11 192.59 309.054 194.078 308.417 193.39C308.312 193.277 307.937 192.405 307.643 193.088C307.587 193.22 307.855 193.326 307.656 193.568C307.358 193.936 306.734 193.946 306.41 194.552C306.357 194.658 306.255 195.408 305.766 195.085C305.69 195.034 305.652 194.706 305.484 194.739C304.673 194.9 304.003 195.399 303.155 195.487C302.863 195.515 302.818 194.985 302.497 194.958C302.177 194.931 301.579 195.007 301.363 195.331C301.147 195.654 301.734 196.315 301.319 196.527C299.472 197.461 297.416 197.56 295.448 197.972C295.156 198.032 295.466 198.258 295.038 198.367C293.704 198.71 291.605 199.338 290.055 199.279C289.778 199.266 289.522 199.232 289.294 199.169C288.151 198.853 289.427 198.26 288.583 198.193C288.176 198.162 287.904 199.167 287.814 199.212C286.938 199.66 286.227 199.345 285.413 199.6C285.245 199.653 285.472 200.008 285.328 200.048C284.836 200.191 284.282 200.1 283.807 200.202C283.594 200.248 283.676 200.533 283.474 200.539C282.992 200.558 282.553 200.496 282.052 200.288C282.006 200.269 282.24 199.867 281.887 199.903C281.316 199.962 280.574 199.789 279.956 200.153C279.773 200.262 279.852 200.929 279.374 200.523C279.274 200.438 279.284 199.624 278.884 200.378C278.817 200.503 278.109 201.539 277.634 200.985C277.509 200.84 277.158 200.217 276.935 200.347C276.905 200.368 277.075 200.711 276.884 200.769C276.211 200.966 275.487 201.008 274.789 201.194C274.603 201.245 274.924 201.587 274.645 201.65C273.883 201.825 272.89 201.825 272.12 201.775C271.832 201.756 272.002 201.431 271.978 201.399C271.601 200.882 271.469 201.634 271.363 201.686C270.706 201.999 270.154 201.693 269.531 201.828C269.359 201.864 269.506 202.207 269.474 202.241C269.135 202.572 269.36 201.922 269.129 201.868C268.481 201.713 267.764 201.782 267.125 201.857C266.885 201.886 267.175 202.281 266.959 202.302C265.685 202.431 264.362 202.428 263.091 202.206C262.855 202.164 263.003 201.849 262.954 201.777C262.619 201.275 262.122 201.957 262.001 202.02C261.468 202.311 261.27 202.028 260.81 202.067C258.511 202.26 255.65 201.834 253.332 201.179C250.44 200.222 247.557 199.393 245.103 195.428C244.968 195.171 244.726 195.624 244.603 195.393C244.333 194.867 244.13 194.318 243.989 193.748C243.619 192.314 243.288 190.409 243.29 188.317C243.292 188.105 242.878 188.393 242.87 188.044C242.852 187.328 243.018 186.381 243.34 185.677C243.495 185.337 243.695 185.897 243.843 185.564C244.194 184.792 244.561 183.974 244.921 183.197C245.077 182.865 244.446 183.151 244.686 182.725C245.242 181.754 245.911 180.897 246.648 180.167C247.718 179.11 248.873 178.142 250.242 177.399C250.385 177.321 251.032 177.85 251.176 177.515C251.045 177.326 250.867 177.123 250.715 176.932C253.121 174.671 255.906 172.92 258.711 171.162C258.83 171.087 258.389 170.851 258.619 170.705C259.947 169.862 261.219 168.966 262.849 168.582C263.01 168.544 263.303 169.257 263.663 168.936C263.725 168.879 264.305 168.464 264.397 168.233C264.408 168.199 264.131 167.937 264.332 167.824C265.507 167.176 266.837 166.662 268.198 166.366C268.416 166.319 268.337 166.76 268.492 166.731C269.584 166.525 270.669 165.849 271.865 165.913C272.682 165.961 272.55 166.672 273.052 167.236C273.111 167.316 273.586 167.259 273.652 167.636C273.808 168.575 273.768 169.629 273.963 170.626C274.024 170.836 274.252 170.583 274.152 171.12C274.154 171.153 273.96 171.353 273.92 171.543C273.897 171.672 274.033 172.039 273.98 172.209C273.937 172.377 273.768 172.081 273.657 172.296C273.543 172.516 273.707 172.924 273.41 173.054ZM321.455 172.313C321.427 172.861 322.536 172.095 321.98 171.917C321.951 171.909 321.455 172.284 321.455 172.313ZM278.373 165.047C278.913 165.574 279.126 164.666 278.732 164.255C278.339 163.845 278.208 164.888 278.373 165.047ZM273.604 166.233C274.229 166.596 273.985 164.701 273.463 165.187C273.433 165.215 273.568 166.212 273.604 166.233ZM271.415 167.826C271.427 167.841 271.721 167.774 271.722 167.756C271.764 167.299 271.164 167.436 271.415 167.826ZM268.959 167.738C269.19 167.942 269.595 167.53 269.309 167.272C269.075 167.065 268.668 167.484 268.959 167.738ZM311.9 187.206C311.884 187.192 311.701 187.288 311.766 187.381C311.974 187.681 312.161 187.439 311.9 187.206ZM261.786 171.889C262.666 170.953 264.259 171.626 263.302 172.378C263.126 172.526 263.256 171.681 262.957 171.798C262.393 172.035 262.932 172.939 262.18 173.04C262.037 173.063 261.728 171.944 261.786 171.886C261.786 171.887 261.786 171.888 261.786 171.889ZM320.339 173.503C320.33 173.519 320.491 173.757 320.508 173.752C320.95 173.627 320.611 173.125 320.339 173.503ZM300.762 191.754C300.735 191.724 300.1 191.913 300.089 191.952C299.99 192.729 301.293 192.344 300.762 191.754ZM302.534 168.021C302.187 168.418 301.819 168.433 301.622 167.873C301.927 167.93 302.233 167.964 302.534 168.021Z" fill="#E0BB34" fill-opacity="0.75"/>
<path d="M226.165 227.858C225.076 227.998 223.628 227.94 222.513 227.842C222.163 227.812 222.324 227.562 222.079 227.531C221.603 227.471 221.175 227.621 220.702 227.549C220.543 227.524 220.705 227.132 220.54 227.114C220.423 227.102 220.305 227.095 220.187 227.091C219.821 227.032 219.456 227.191 218.984 227.33C216.07 228.258 213.142 232.097 210.771 235.759C210.764 235.77 210.757 235.78 210.75 235.791C210.563 236.076 210.377 236.344 210.242 236.553C210.102 236.754 210.051 236.918 210.026 236.747C210.01 236.665 209.965 236.477 209.865 236.318C209.768 236.158 209.65 236.066 209.61 236.044C209.522 236.003 209.7 236.1 209.925 236.114C210.039 236.124 210.051 235.785 210.078 235.763C210.471 235.421 210.242 236.056 210.487 236.184C211.536 236.689 213.116 236.678 214.396 236.459C214.956 236.363 214.353 235.748 214.932 236.073C214.972 236.095 214.862 236.458 215.015 236.483C215.361 236.54 216.034 236.412 216.3 236.411C216.835 236.41 216.925 236.396 217.415 236.341C218.113 236.266 218.931 236.333 219.658 236.147C219.809 236.107 219.553 235.779 219.79 235.682C220.019 235.587 220.719 235.512 220.933 235.564C221.164 235.614 221.116 235.909 221.165 235.967C221.496 236.372 222 235.852 222.228 235.633C222.273 235.586 222.307 235.553 222.323 235.547C224.065 234.932 225.66 235.081 227.369 234.756C228.634 234.514 229.98 234.103 231.214 233.874C232.658 233.608 233.929 233.544 235.343 233.212C235.489 233.178 235.229 232.799 235.408 232.756C237.322 232.301 239.254 231.929 241.229 231.785C241.429 231.771 241.26 232.19 241.464 232.198C242.706 232.237 244.74 232.533 245.075 230.793C245.887 230.674 246.869 230.516 247.653 230.671C248.161 230.77 247.805 231.269 248.332 230.97C248.451 230.903 248.205 230.595 248.389 230.52C249.166 230.207 250.065 230.117 250.821 229.751C250.974 229.676 250.857 229.376 250.89 229.309C251.169 228.767 251.983 229.365 252.135 229.386C253.295 229.54 254.034 229.197 255.026 228.97C255.256 228.918 254.885 228.566 255.103 228.501C256.235 228.167 257.429 227.917 258.596 227.83C258.856 227.811 258.712 228.221 258.841 228.23C259.407 228.266 259.361 227.569 259.899 227.591C260.013 227.594 260.027 227.912 260.055 227.941C260.485 228.389 260.567 227.584 260.641 227.549C261.576 227.083 262.394 227.701 263.32 227.355C263.431 227.313 263.079 226.994 263.396 226.899C265.501 226.264 267.791 225.8 269.969 225.569C270.311 225.532 270.149 225.88 270.179 225.91C270.66 226.376 270.688 225.579 270.788 225.523C271.583 225.105 272.521 225.526 272.872 224.493C276.526 223.872 279.922 222.44 283.671 222.249C283.718 222.246 283.739 222.631 283.832 222.623C284.952 222.532 284.6 222.021 285.119 221.131C285.251 220.908 286.023 221.588 286.087 221.636C286.323 221.812 286.298 222.403 286.368 222.43C286.947 222.635 286.374 220.869 287.027 220.682C287.048 220.679 287.056 221.032 287.12 221.049C287.32 221.103 287.45 220.924 287.647 220.99C288.088 221.146 288.5 221.965 288.935 221.291C288.989 221.205 288.587 220.226 289.172 220.106C289.219 220.097 289.295 220.077 289.39 220.051C289.8 219.939 290.499 219.729 290.735 219.715C291.032 219.696 290.94 220.078 290.964 220.086C291.885 220.275 291.639 220.544 292.223 221.059C292.802 221.573 292.229 220.099 292.331 219.883C292.43 219.669 293.127 219.839 293.298 219.919C293.475 219.998 293.368 220.258 293.512 220.289C294.454 220.488 293.631 219.429 293.823 219.105C294.281 218.335 295.126 219.288 295.744 219.2C295.907 219.178 295.697 218.968 295.824 218.898C296.356 218.616 296.774 218.858 297.306 218.31C297.393 218.221 297.633 217.385 298.141 217.743C298.212 217.796 298.189 218.117 298.438 218.091C298.812 218.054 299.454 217.865 299.782 217.617C300.013 217.439 299.519 217.13 299.911 217.121C300.088 217.115 299.923 217.497 300.248 217.463C300.55 217.443 301.266 217.077 301.491 216.929C301.74 216.772 301.411 216.542 301.42 216.508C301.465 216.325 301.741 215.913 301.731 215.909C301.79 215.857 301.828 215.808 301.818 215.823C301.818 215.828 301.703 215.984 301.755 216.279C301.821 216.57 301.967 216.642 301.965 216.637C301.975 216.635 301.921 216.591 301.851 216.553C301.544 216.383 301.039 216.219 300.555 216.076C299.349 215.721 297.952 215.557 296.567 215.698C296.373 215.718 296.512 216.099 296.482 216.106C295.816 216.285 296.317 215.249 295.843 214.922C295.935 215.699 295.666 215.565 295.187 215.673C294.97 215.725 295.104 216.021 295.085 216.053C294.784 216.526 294.519 215.949 294.45 215.831C294.197 215.399 293.99 215.94 293.824 215.652C293.654 215.367 293.973 214.906 293.523 214.942C293.415 215.229 293.798 215.934 293.465 216.075C292.219 216.603 289.773 216.259 288.73 216.313C287.677 216.365 287.37 216.452 286.746 216.422C285.637 216.366 286.105 216.857 285.455 217.183C284.799 217.512 284.975 216.15 284.842 215.877C284.713 215.605 284.646 215.91 284.509 215.768C284.372 215.626 284.603 215.402 284.319 215.377C284.036 215.352 283.319 215.955 283.264 216.264C283.136 216.919 283.562 217.535 282.8 217.397C282.756 217.388 282.849 217.023 282.682 217.009C281.346 216.908 280.02 217.067 278.692 217.007C278.508 216.999 278.616 216.591 278.508 216.582C277.405 216.481 277.878 217.079 277.389 217.883C277.391 216.903 276.972 216.361 276.163 216.468C275.675 216.532 275.817 216.941 275.542 217.281C275.459 217.384 275.069 217.144 275.034 217.351C274.918 218.026 275.339 218.703 274.468 218.533C274.43 218.524 274.496 218.154 274.367 218.151C273.531 218.127 273.51 218.819 272.645 219.026C271.962 219.19 270.659 218.958 269.857 219.007C269.719 217.924 268.992 218.283 268.806 219.071C268.291 219.115 267.74 219.239 267.221 219.21C267.043 219.2 267.111 218.871 267.084 218.84C266.677 218.359 266.562 219.116 266.455 219.16C265.289 219.614 264.235 219.209 263.156 219.918C263.119 219.943 263.159 220.703 262.774 220.201C262.749 220.166 263.075 219.769 262.535 219.822C261.998 219.875 260.902 219.627 260.212 220.084C260.044 220.195 259.677 220.872 259.235 220.451C259.176 220.394 259.198 220.171 259.109 220.062C258.822 219.715 258.809 220.491 258.441 219.888C258.078 219.284 257.451 218.884 256.757 219.441C256.735 219.458 256.644 220.085 256.403 220.111C256.014 220.153 255.467 220.106 255.069 220.169C254.879 220.2 255.056 220.555 255.024 220.566C253.784 220.961 252.854 220.772 251.481 220.824C251.46 220.824 251.44 220.825 251.419 220.825C251.159 220.832 250.509 221.436 249.965 221.095C249.377 220.721 249.689 218.816 248.521 219.407C248.049 219.644 247.704 222.054 246.669 220.952C244.97 221.458 243.308 221.017 241.614 221.627C241.539 221.654 241.361 222.332 241.174 222.342C240.898 222.356 240.722 222.066 240.522 222.066C239.696 222.056 238.976 222.39 238.184 222.424C237.88 222.438 237.954 222.112 237.599 222.128C237.238 222.144 237.041 222.581 236.539 222.424C236.16 222.304 235.718 221.488 235.227 221.432C235.282 222.271 234.948 222.284 234.378 222.557C234.267 222.61 234.416 222.891 234.365 222.931C234.156 223.101 233.937 222.877 233.741 223.059C233.694 223.103 233.717 223.389 233.68 223.441C233.367 223.894 232.73 223.302 232.623 223.199C232.201 222.809 232.058 223.198 231.753 223.058C231.443 222.919 231.861 222.667 231.509 222.598C231.337 222.564 231.146 222.547 230.958 222.54C230.353 222.521 229.703 222.618 229.155 222.675C228.867 222.707 229.11 223.064 229.07 223.077C228.496 223.246 227.839 222.926 227.624 223.729C226.929 221.836 227.297 223.968 226.404 223.711C226.335 223.69 226.098 222.782 226.332 222.605C226.567 222.428 227.001 222.656 227.327 222.392C227.404 222.33 227.767 221.394 227.83 221.332C228.301 220.85 228.558 222.226 228.593 222.298C229.008 223.078 229.482 222.072 229.632 221.989C230.064 221.749 230.476 221.714 230.868 221.653C231.091 221.617 231.312 221.572 231.523 221.473C231.9 221.299 231.857 220.385 232.164 220.385C233.198 220.383 233.658 221.623 234.517 220.437C234.703 220.184 234.407 219.207 235.211 219.924C235.259 219.97 235.867 220.637 236.14 220.156C236.175 220.095 236.148 219.805 236.198 219.776C236.526 219.588 236.783 219.797 237.15 219.652C237.518 219.506 237.954 219.299 238.396 219.356C238.661 219.39 239.044 219.897 239.185 220.017C239.568 220.364 239.89 219.702 240.15 220.141C240.417 220.582 240.054 221.33 240.668 221.57C240.612 220.815 240.582 220.038 240.539 219.278C241.795 219.176 243.067 219.286 244.321 219.11C244.476 219.087 244.271 218.701 244.436 218.667C245.14 218.522 245.782 218.739 246.509 218.535C247.06 218.378 247.63 217.875 248.213 217.693C248.677 218.507 249.521 218.105 250.175 218.099C250.4 218.098 250.415 218.329 250.584 218.383C251.222 218.581 250.841 217.859 250.991 217.718C251.015 217.696 251.039 217.676 251.062 217.66L251.015 217.666C251.608 217.237 251.93 218.81 252.728 218.65C252.772 218.642 253.176 217.649 253.241 217.581C253.658 217.14 253.366 217.887 253.674 217.911C254.237 217.953 254.647 218.115 255.24 217.754C255.413 217.647 255.769 217.013 256.199 217.399C256.255 217.449 256.273 217.755 256.314 217.767C257.051 217.959 256.927 217.008 257.272 216.628C257.615 216.249 258.322 216.813 258.476 216.983C258.875 217.423 258.257 217.229 258.246 217.279C258.123 217.88 258.557 217.715 258.904 217.713C259.092 218.635 259.558 218.509 259.263 217.707C259.231 217.619 258.979 217.745 258.904 217.713C259.068 216.756 259.572 216.562 260.269 217.33C260.599 217.689 260.414 218.193 261.211 217.9C261.572 217.768 261.333 217.149 261.635 216.926C262.316 216.418 263.395 216.868 264.147 216.661C264.42 216.585 264.097 216.275 264.282 216.211C264.772 216.042 265.271 216.237 265.76 216.027C265.804 216.007 265.637 215.657 265.795 215.629C266.986 215.41 268.074 215.49 269.34 215.312C269.951 215.227 271.006 214.867 271.647 214.816C272.738 214.729 274.167 215.07 275.09 214.808C275.69 214.639 275.503 214.291 275.729 214.004C276.153 213.45 277.189 214.192 277.322 214.311C277.327 214.315 276.812 214.474 277.119 214.624C277.337 214.995 277.316 214.314 277.322 214.311C277.412 214.387 278.47 214.328 278.674 214.229C278.783 214.175 278.672 213.835 278.729 213.814C280.077 213.314 281.506 213.036 282.944 213.021C282.969 213.025 282.98 213.419 283.041 213.424C283.911 213.491 284.35 212.953 285.023 212.585C285.679 212.219 286.23 212.252 286.719 212.876C287.225 212.733 288.008 212.948 288.455 213.084C288.899 213.219 288.877 212.453 288.914 212.434C290.066 211.831 290.782 212.203 292.033 212.169C292.621 212.154 293.778 211.961 294.442 211.843C294.945 211.749 295.275 211.914 295.746 211.782C295.81 211.765 295.733 211.426 295.752 211.413C296.267 210.988 296.042 211.829 296.157 211.974C296.593 212.505 296.798 212.786 297.513 212.531C297.669 212.472 298.153 211.277 298.478 211.218C298.888 211.143 298.695 211.564 299.147 211.482C299.184 211.476 299.192 211.21 299.462 211.239C300.034 211.301 300.69 211.409 301.377 211.575C302.098 211.786 302.682 211.809 304.153 212.505C304.358 212.616 304.387 212.515 304.433 212.417C304.49 212.331 304.519 212.202 304.935 212.481C305.358 212.796 306.199 213.387 306.686 214.839C307.184 216.401 306.65 217.813 306.247 218.466C305.43 219.72 304.973 219.898 304.538 220.236C303.72 220.778 303.096 221.015 302.508 221.193C302.208 221.28 302.259 220.93 302.163 220.878C301.613 220.553 301.435 221.467 301.366 221.512C299.609 222.647 298.027 222.451 296.292 223.38C296.204 223.43 295.707 224.459 295.13 223.901C295.09 223.864 294.55 223.278 294.401 223.843C294.391 223.878 294.714 224.167 294.335 224.247C293.941 224.331 293.45 224.743 292.819 224.508C292.618 224.434 292.03 223.859 291.733 224.548C291.718 224.59 291.43 225.756 290.988 225.463C290.936 225.426 290.883 225.366 290.827 225.28C290.743 225.151 290.523 224.226 290.102 224.857C290.021 224.979 290.276 225.125 290.029 225.335C289.645 225.659 288.996 225.583 288.583 226.141C288.511 226.239 288.289 226.973 287.827 226.596C287.756 226.536 287.764 226.204 287.585 226.218C286.766 226.274 285.943 226.725 285.096 226.732C284.789 226.737 284.799 226.203 284.463 226.154C284.126 226.104 283.477 226.146 283.235 226.455C282.986 226.766 283.542 227.461 283.091 227.652C281.114 228.486 278.966 228.564 276.907 229.033C276.601 229.102 276.927 229.319 276.481 229.441C274.84 229.895 272.059 230.895 270.477 230.656C269.21 230.465 270.557 229.732 269.632 229.758C269.187 229.772 268.959 230.809 268.864 230.864C267.949 231.408 267.147 231.176 266.282 231.525C266.104 231.597 266.378 231.925 266.225 231.983C265.704 232.182 265.096 232.156 264.586 232.314C264.358 232.386 264.47 232.661 264.253 232.692C263.734 232.768 263.254 232.759 262.691 232.614C262.64 232.6 262.858 232.17 262.478 232.25C261.861 232.38 261.043 232.3 260.408 232.744C260.22 232.876 260.37 233.531 259.813 233.189C259.696 233.118 259.625 232.305 259.268 233.109C259.208 233.242 258.553 234.368 257.981 233.882C257.83 233.755 257.386 233.182 257.16 233.343C257.13 233.368 257.35 233.686 257.151 233.77C256.446 234.06 255.67 234.206 254.944 234.494C254.751 234.572 255.136 234.864 254.844 234.968C254.04 235.256 252.992 235.405 252.158 235.48C251.85 235.507 251.986 235.158 251.956 235.13C251.483 234.679 251.446 235.446 251.34 235.515C250.68 235.934 250.059 235.721 249.414 235.965C249.236 236.031 249.445 236.344 249.416 236.383C249.107 236.769 249.246 236.088 248.991 236.075C248.277 236.037 247.543 236.234 246.871 236.433C246.626 236.506 246.996 236.841 246.775 236.902C245.474 237.27 244.081 237.543 242.744 237.608C242.49 237.621 242.576 237.279 242.51 237.22C242.05 236.807 241.686 237.59 241.582 237.679C241.111 238.088 240.85 237.861 240.381 238.016C238.131 238.772 235.213 239.201 232.991 239.536C230.096 239.973 227.808 240.113 225.063 240.678C224.892 240.713 225.138 241.094 224.991 241.129C224.392 241.266 223.773 241.378 223.192 241.471C221.798 241.694 220.47 241.843 219.062 242.113C218.901 242.143 219.186 242.506 218.93 242.568C218.36 242.702 217.7 242.759 217.092 242.697C216.809 242.666 217.143 242.288 216.861 242.263C216.227 242.201 215.517 242.238 214.834 242.349C214.545 242.396 215.012 242.772 214.633 242.802C213.33 242.902 212.027 242.983 210.492 242.823C209.732 242.735 208.891 242.606 207.84 242.21C206.935 241.826 204.908 241.036 204.1 238.406C203.928 237.732 204.636 237.056 204.57 236.19C204.35 236.099 204.083 236.068 203.844 236.005C204.159 234.006 204.774 233.265 205.188 232.49C206.659 230.054 208.377 227.734 210.472 225.419C210.585 225.295 210.064 225.222 210.286 224.977C211.573 223.579 212.981 222.067 215.271 221.296C215.499 221.225 215.744 221.95 216.29 221.561C216.379 221.484 217.296 221.004 217.531 220.771C217.562 220.736 217.257 220.452 217.604 220.338C218.217 220.143 218.882 220.007 219.569 219.956C220.581 219.888 221.613 219.899 222.613 219.993C222.846 220.015 222.623 220.411 222.788 220.43C223.949 220.566 225.202 220.225 226.32 220.551C227.066 220.772 226.802 221.437 227.196 222.083C227.252 222.174 227.702 222.187 227.725 222.565C227.786 223.516 227.575 224.558 227.664 225.572C227.683 225.79 228.268 225.555 227.92 226.082C227.896 226.117 227.478 226.293 227.378 226.473C227.308 226.598 227.438 226.981 227.294 227.141C227.154 227.3 226.992 226.979 226.756 227.169C226.523 227.361 226.633 227.796 226.165 227.858ZM290.461 213.697C290.898 214.026 290.836 212.68 290.427 213.041C290.407 213.06 290.438 213.681 290.461 213.697ZM243.166 220.294C243.746 220.827 243.992 219.921 243.584 219.505C243.181 219.089 242.988 220.132 243.166 220.294ZM237.909 221.263C238.552 221.672 238.462 219.764 237.862 220.208C237.827 220.233 237.871 221.239 237.909 221.263ZM225.406 222.304C225.414 222.321 225.736 222.329 225.744 222.311C225.905 221.879 225.254 221.863 225.406 222.304ZM232.67 222.209C232.882 222.449 233.394 222.104 233.132 221.805C232.925 221.564 232.407 221.91 232.67 222.209ZM295.97 219.818C295.958 219.8 295.738 219.856 295.778 219.962C295.91 220.303 296.175 220.104 295.97 219.818ZM223.703 223.448C225.024 223.291 226.092 224.703 224.635 224.778C224.37 224.792 225.105 224.185 224.751 224.103C224.105 223.954 223.869 225.001 223.158 224.578C223.034 224.5 223.63 223.454 223.705 223.445C223.705 223.446 223.704 223.447 223.703 223.448ZM290.841 215.286C290.851 215.303 291.17 215.291 291.175 215.273C291.31 214.831 290.666 214.855 290.841 215.286ZM282.948 222.831C282.914 222.801 282.209 222.958 282.194 222.998C282.011 223.772 283.453 223.453 282.948 222.831ZM269.84 218.98C269.56 219.455 269.152 219.566 268.807 219.071C269.144 219.051 269.495 219.004 269.84 218.98Z" fill="#E0BB34" fill-opacity="0.75"/>
<path d="M355.912 199.199C355.187 199.358 354.2 199.351 353.406 199.314C353.157 199.303 353.239 199.047 353.063 199.03C352.719 198.998 352.435 199.173 352.087 199.135C351.971 199.121 352.026 198.723 351.906 198.717C351.24 198.691 350.664 198.933 350.004 199.032C349.584 199.095 349.164 199.169 348.743 199.254C346.633 199.578 344.781 201.177 343.443 203.516C342.933 204.383 342.142 205.477 341.969 206.597C341.949 206.728 342.29 206.747 342.309 206.778C342.605 207.26 341.997 206.954 341.843 207.176C341.489 207.694 341.249 208.302 341.109 208.916C341.011 209.345 340.966 209.774 340.962 210.179C340.962 210.597 341.668 210.274 341.25 210.632C341.222 210.657 340.885 210.511 340.834 210.619C340.718 210.867 340.735 211.358 340.694 211.555C340.612 211.932 340.612 211.998 340.594 212.36C340.568 212.852 340.396 213.446 340.505 213.971C340.53 214.082 340.882 213.915 340.954 214.087C341.024 214.258 341.033 214.716 340.968 214.88C340.901 215.043 340.612 215.012 340.55 215.047C340.031 215.353 340.87 215.787 340.901 215.841C341.408 216.926 341.35 217.973 341.783 218.807C341.808 218.854 341.835 218.901 341.863 218.946C342.284 219.627 342.955 220.137 343.54 220.604C344.231 221.158 344.88 221.711 345.797 222.01C345.894 222.042 345.926 221.602 346.042 221.639C347.263 222.013 348.562 222.293 349.938 222.694C350.077 222.735 349.864 223.091 350.003 223.154C350.849 223.537 352.323 224.283 352.81 222.642C353.418 222.692 354.133 222.719 354.71 223.004C355.081 223.186 354.77 223.618 355.188 223.41C355.282 223.363 355.126 223.02 355.268 222.977C355.867 222.794 356.558 222.834 357.139 222.575C357.258 222.521 357.183 222.209 357.21 222.148C357.44 221.65 358.033 222.341 358.148 222.38C359.018 222.672 359.598 222.408 360.354 222.281C360.531 222.251 360.246 221.868 360.412 221.824C361.277 221.602 362.182 221.453 363.078 221.448C363.277 221.448 363.182 221.843 363.282 221.861C363.722 221.935 363.657 221.244 364.075 221.299C364.163 221.31 364.189 221.624 364.211 221.654C364.568 222.123 364.593 221.333 364.648 221.302C365.343 220.897 366.019 221.547 366.72 221.247C366.804 221.21 366.508 220.88 366.747 220.8C368.344 220.265 370.074 219.876 371.768 219.681C372.03 219.65 371.941 219.988 371.968 220.018C372.393 220.484 372.327 219.702 372.4 219.649C372.982 219.248 373.766 219.669 373.919 218.659C376.714 218.074 379.202 216.637 382.116 216.407C382.154 216.403 382.225 216.779 382.3 216.769C383.082 216.67 382.896 216.288 383.013 215.616C383.028 215.518 383.048 215.414 383.077 215.304C383.129 215.092 383.834 215.734 383.898 215.774C384.115 215.935 384.21 216.505 384.27 216.528C384.773 216.694 383.954 215.031 384.383 214.823C384.398 214.819 384.49 215.155 384.543 215.167C384.706 215.205 384.76 215.026 384.926 215.073C385.306 215.182 385.84 215.921 385.986 215.234C386.002 215.146 385.407 214.278 385.804 214.099C385.966 214.03 386.605 213.598 386.821 213.528C387.039 213.46 387.109 213.823 387.13 213.827C387.88 213.848 387.802 214.129 388.449 214.479C389.102 214.817 388.081 213.609 388.072 213.395C388.063 213.183 388.639 213.199 388.807 213.226C388.975 213.256 389.003 213.511 389.126 213.504C389.944 213.444 388.847 212.718 388.847 212.391C388.83 211.625 389.891 212.242 390.315 211.999C390.428 211.934 390.17 211.812 390.233 211.717C390.483 211.344 390.933 211.412 391.042 210.816C391.062 210.717 390.823 209.947 391.377 210.104C391.457 210.127 391.601 210.403 391.777 210.306C392.04 210.164 392.428 209.819 392.551 209.522C392.642 209.304 392.109 209.19 392.404 209.071C392.536 209.018 392.601 209.378 392.832 209.261C393.062 209.146 393.435 208.667 393.569 208.479C393.704 208.293 393.339 208.166 393.332 208.136C393.291 207.962 393.419 207.51 393.442 207.479C393.909 206.839 394.435 206.271 394.958 205.702C395.661 204.959 396.273 204.06 396.461 202.997C396.486 202.857 396.091 202.841 396.091 202.818C396.059 202.325 396.948 202.956 397.368 202.693C396.598 202.556 396.788 202.392 396.771 202.036C396.761 201.865 396.447 201.899 396.42 201.878C396.012 201.566 396.618 201.504 396.745 201.474C397.21 201.373 396.709 201.128 397.016 201.052C397.322 200.967 397.732 201.282 397.76 200.929C397.49 200.81 396.743 200.99 396.646 200.734C396.5 200.357 396.499 199.883 396.526 199.382C396.585 198.64 396.611 197.966 396.435 197.62C396.152 197.068 395.928 196.982 395.678 196.661C395.16 196.1 395.099 196.713 394.609 196.739C394.119 196.789 394.823 195.649 394.873 195.358C394.912 195.064 394.727 195.307 394.696 195.126C394.661 194.945 394.931 194.839 394.732 194.701C394.53 194.558 393.785 194.86 393.633 195.132C393.306 195.701 393.384 196.406 392.928 196.048C392.9 196.027 393.085 195.712 392.973 195.648C392.111 195.163 391.071 194.993 390.113 194.658C389.981 194.611 390.141 194.236 390.064 194.204C389.235 193.878 389.49 194.562 388.983 195.255C389.155 194.295 388.94 193.68 388.295 193.64C388.202 193.634 388.133 193.654 388.078 193.691C387.912 193.812 387.892 194.112 387.696 194.332C387.619 194.419 387.356 194.118 387.299 194.315C387.113 194.962 387.347 195.697 386.714 195.39C386.686 195.376 386.785 195.021 386.687 194.997C386.043 194.843 385.97 195.524 385.282 195.602C384.752 195.664 383.784 195.256 383.171 195.201C383.167 194.109 382.574 194.371 382.362 195.13C381.969 195.109 381.522 195.164 381.141 195.073C381.007 195.042 381.083 194.724 381.065 194.69C380.789 194.164 380.639 194.902 380.553 194.934C379.629 195.248 378.84 194.729 377.967 195.317C377.936 195.338 377.925 196.097 377.658 195.557C377.64 195.52 377.917 195.16 377.496 195.155C377.068 195.151 376.259 194.79 375.686 195.177C375.55 195.27 375.235 195.906 374.916 195.444C374.873 195.382 374.902 195.162 374.839 195.045C374.635 194.671 374.584 195.443 374.332 194.807C374.081 194.171 373.612 193.713 373.045 194.202C373.027 194.217 372.93 194.832 372.745 194.835C372.449 194.84 372.015 194.744 371.705 194.771C371.558 194.784 371.68 195.153 371.655 195.162C370.677 195.446 369.942 195.164 368.86 195.104C368.664 195.091 368.143 195.649 367.728 195.275C367.278 194.865 367.555 192.984 366.632 193.503C366.255 193.712 365.971 196.093 365.171 194.94C363.855 195.355 362.552 194.845 361.245 195.396C361.187 195.421 361.054 196.091 360.91 196.095C360.697 196.1 360.552 195.805 360.4 195.799C359.763 195.765 359.201 196.08 358.592 196.096C358.359 196.102 358.411 195.779 358.133 195.788C357.855 195.796 357.707 196.229 357.316 196.063C357.02 195.937 356.658 195.114 356.272 195.051C356.338 195.89 356.077 195.897 355.642 196.161C355.558 196.213 355.68 196.495 355.642 196.535C355.487 196.701 355.307 196.474 355.162 196.653C355.127 196.696 355.152 196.982 355.125 197.034C354.892 197.481 354.383 196.88 354.296 196.776C353.961 196.378 353.858 196.764 353.616 196.618C353.374 196.472 353.692 196.23 353.418 196.154C352.849 195.997 352.154 196.11 351.596 196.151C351.373 196.169 351.562 196.536 351.531 196.548C351.083 196.689 350.58 196.328 350.4 197.113C349.891 195.178 350.141 197.33 349.449 197C349.394 196.974 349.238 196.05 349.423 195.895C349.608 195.739 349.936 196.001 350.19 195.761C350.251 195.705 350.539 194.797 350.585 194.74C350.943 194.289 351.134 195.672 351.163 195.747C351.48 196.547 351.847 195.564 351.96 195.488C352.481 195.138 352.964 195.288 353.405 195.032C353.692 194.866 353.634 193.953 353.872 193.958C354.663 193.975 355.062 195.218 355.694 194.048C355.83 193.798 355.578 192.818 356.222 193.546C356.262 193.592 356.752 194.268 356.953 193.792C356.978 193.732 356.95 193.443 356.988 193.414C357.242 193.231 357.445 193.445 357.73 193.307C358.015 193.169 358.355 192.971 358.699 193.038C358.907 193.078 359.22 193.594 359.329 193.718C359.639 194.073 359.875 193.421 360.087 193.867C360.3 194.316 360.031 195.05 360.505 195.309C360.453 194.554 360.421 193.777 360.379 193.017C361.369 192.953 362.361 193.11 363.345 192.99C363.468 192.974 363.306 192.58 363.437 192.553C363.991 192.439 364.492 192.687 365.064 192.522C365.505 192.393 365.95 191.923 366.413 191.776C366.774 192.615 367.433 192.265 367.949 192.303C368.128 192.316 368.134 192.548 368.266 192.613C368.76 192.853 368.478 192.108 368.598 191.978C369.111 191.422 369.301 193.144 369.95 193.051C369.985 193.047 370.336 192.094 370.393 192.032C370.739 191.63 370.479 192.348 370.718 192.398C371.156 192.491 371.457 192.689 371.944 192.383C372.084 192.293 372.394 191.694 372.706 192.118C372.747 192.174 372.748 192.48 372.779 192.496C373.34 192.755 373.293 191.798 373.581 191.453C373.87 191.108 374.392 191.738 374.504 191.922C374.792 192.397 374.321 192.145 374.309 192.194C374.183 192.78 374.53 192.658 374.8 192.689C374.898 193.625 375.265 193.545 375.079 192.718C375.058 192.628 374.856 192.729 374.8 192.689C374.978 191.754 375.374 191.611 375.886 192.444C376.123 192.834 375.952 193.316 376.582 193.107C376.866 193.013 376.719 192.373 376.97 192.182C377.542 191.748 378.344 192.311 378.946 192.188C379.164 192.144 378.934 191.8 379.082 191.757C379.487 191.643 379.854 191.893 380.248 191.742C380.285 191.728 380.179 191.36 380.307 191.351C381.273 191.271 382.102 191.483 383.119 191.471C383.599 191.464 384.47 191.251 384.987 191.292C385.869 191.36 386.947 191.918 387.715 191.818C388.041 191.777 388.112 191.604 388.187 191.421C388.228 191.323 388.27 191.223 388.351 191.139C388.802 190.669 389.495 191.598 389.578 191.742C389.582 191.746 389.141 191.802 389.358 192.008C389.462 192.414 389.573 191.743 389.578 191.742C389.629 191.832 390.497 191.995 390.681 191.947C390.782 191.919 390.767 191.563 390.819 191.556C392.042 191.378 393.314 191.484 394.6 192.02C394.621 192.034 394.477 192.402 394.528 192.429C395.226 192.819 395.867 192.54 396.7 192.62C397.527 192.702 398.141 193.231 398.112 194.087C398.697 194.434 399.166 195.457 399.269 196.047C399.378 196.62 400.088 196.393 400.13 196.44C400.968 197.531 400.856 198.432 400.766 199.222C400.734 199.453 400.702 199.699 400.684 199.971C400.654 200.522 400.679 201.627 400.655 202.246C400.644 202.737 400.41 202.987 400.417 203.448C400.417 203.511 400.763 203.532 400.771 203.553C401.038 204.157 400.293 203.703 400.123 203.764C399.501 203.98 399.175 204.085 399.206 204.747C399.216 204.891 400.172 205.739 400.113 206.04C400.04 206.418 399.71 206.109 399.636 206.499C399.629 206.532 399.871 206.645 399.748 206.856C399.456 207.36 399.095 207.857 398.706 208.336C398.42 208.674 398.134 209.023 397.884 209.386C397.813 209.488 398.247 209.607 398.148 209.76C397.684 210.474 397.092 211.217 396.401 211.747C396.23 211.877 396.086 211.588 395.99 211.568C395.409 211.441 395.746 212.233 395.713 212.294C394.968 213.724 393.633 214.128 392.659 215.468C392.612 215.539 392.627 216.628 391.927 216.29C391.879 216.27 391.187 215.906 391.289 216.458C391.295 216.493 391.68 216.662 391.393 216.843C391.109 217.023 390.819 217.558 390.2 217.498C390.001 217.482 389.317 217.084 389.276 217.802C389.285 217.847 389.396 219.324 388.709 218.688C388.597 218.583 388.145 217.752 387.945 218.433C387.905 218.565 388.171 218.657 388.005 218.904C387.745 219.287 387.149 219.319 386.875 219.923C386.831 220.029 386.752 220.782 386.263 220.465C386.187 220.415 386.141 220.089 385.979 220.121C385.599 220.198 385.248 220.353 384.885 220.497C384.583 220.618 384.269 220.737 383.913 220.753C383.665 220.765 383.588 220.246 383.32 220.201C383.051 220.156 382.55 220.203 382.389 220.513C382.23 220.822 382.772 221.491 382.442 221.684C380.975 222.531 379.274 222.632 377.676 223.106C377.439 223.176 377.728 223.386 377.383 223.509C376.127 223.964 373.979 224.945 372.683 224.688C371.639 224.485 372.659 223.78 371.915 223.794C371.561 223.8 371.476 224.816 371.404 224.868C370.705 225.391 370.044 225.142 369.37 225.463C369.231 225.529 369.477 225.86 369.357 225.913C368.946 226.096 368.452 226.051 368.049 226.189C367.869 226.252 367.977 226.527 367.802 226.55C367.381 226.606 366.989 226.578 366.526 226.41C366.484 226.394 366.639 225.979 366.335 226.04C365.843 226.14 365.178 226.02 364.677 226.422C364.528 226.542 364.669 227.199 364.206 226.827C364.109 226.749 364.033 225.941 363.762 226.713C363.719 226.841 363.195 227.914 362.721 227.391C362.596 227.253 362.233 226.653 362.051 226.794C362.027 226.816 362.206 227.148 362.044 227.215C361.465 227.448 360.831 227.524 360.228 227.739C360.066 227.797 360.377 228.124 360.132 228.199C359.457 228.407 358.583 228.439 357.883 228.41C357.626 228.399 357.761 228.07 357.739 228.039C357.38 227.532 357.299 228.286 357.206 228.34C356.626 228.666 356.115 228.368 355.563 228.507C355.41 228.544 355.549 228.886 355.52 228.92C355.221 229.252 355.413 228.602 355.2 228.549C354.601 228.396 353.974 228.46 353.379 228.526C353.16 228.55 353.42 228.95 353.222 228.967C352.058 229.073 350.818 229.017 349.643 228.702C349.424 228.642 349.588 228.339 349.548 228.264C349.276 227.739 348.765 228.375 348.637 228.426C348.102 228.664 347.941 228.361 347.499 228.345C345.317 228.288 342.453 227.211 340.512 225.695C338.955 224.52 337.866 223.086 337.072 221.569C336.53 220.531 336.191 219.56 335.866 218.544C335.814 218.376 335.459 218.66 335.409 218.516C334.791 216.627 334.775 214.793 334.651 212.988C334.643 212.838 334.245 213.053 334.218 212.812C334.161 212.312 334.207 211.685 334.369 211.2C334.447 210.964 334.763 211.309 334.835 211.074C335.004 210.53 335.095 209.951 335.11 209.383C335.116 209.142 334.663 209.444 334.703 209.133C334.766 208.645 334.837 208.17 334.926 207.693C335.22 206.123 335.693 204.542 336.659 203.105C336.745 202.977 337.56 203.15 337.526 202.806C337.322 202.7 337.072 202.601 336.849 202.501C337.898 199.536 339.964 196.65 343.007 194.575C343.136 194.488 342.663 194.283 342.917 194.11C344.048 193.348 345.27 192.684 346.626 192.432C346.953 192.383 347.286 192.357 347.631 192.364C347.778 192.366 347.921 193.124 348.279 192.903C348.343 192.863 348.908 192.605 349.022 192.405C349.037 192.375 348.837 192.056 349.031 191.996C350.151 191.655 351.389 191.48 352.597 191.515C352.79 191.522 352.647 191.93 352.786 191.938C353.756 191.995 354.776 191.597 355.725 191.895C356.353 192.099 356.152 192.771 356.485 193.41C356.53 193.5 356.893 193.509 356.914 193.887C356.967 194.838 356.817 195.881 356.895 196.894C356.911 197.111 357.323 196.875 357.081 197.403C357.062 197.438 356.77 197.617 356.702 197.798C356.655 197.922 356.751 198.305 356.657 198.466C356.563 198.626 356.444 198.307 356.288 198.5C356.132 198.696 356.225 199.128 355.912 199.199ZM399.217 198.436C398.899 198.856 400.246 198.803 399.872 198.375C399.852 198.354 399.233 198.413 399.217 198.436ZM362.445 194.122C362.896 194.678 363.09 193.785 362.769 193.353C362.448 192.922 362.307 193.954 362.445 194.122ZM358.356 194.931C358.864 195.354 358.761 193.447 358.299 193.877C358.272 193.901 358.327 194.906 358.356 194.931ZM355.063 193.673C355.07 193.69 355.325 193.688 355.332 193.67C355.44 193.233 354.916 193.238 355.063 193.673ZM354.308 195.788C354.477 196.031 354.868 195.694 354.656 195.392C354.485 195.149 354.097 195.485 354.308 195.788ZM390.777 212.466C390.76 212.455 390.618 212.564 390.698 212.644C390.957 212.902 391.069 212.654 390.777 212.466ZM347.36 196.483C348.394 196.455 349.168 197.963 348.034 197.895C347.828 197.883 348.421 197.352 348.15 197.236C347.653 197.024 347.436 198.04 346.903 197.559C346.807 197.471 347.301 196.481 347.362 196.481C347.361 196.482 347.361 196.482 347.36 196.483ZM397.637 198.831C397.621 198.839 397.625 199.084 397.642 199.089C398.08 199.2 398.07 198.674 397.637 198.831ZM381.64 216.98C381.616 216.949 381.067 217.116 381.06 217.156C381.023 217.915 382.137 217.578 381.64 216.98ZM383.161 195.172C382.907 195.607 382.582 195.664 382.363 195.13C382.622 195.152 382.898 195.15 383.161 195.172Z" fill="#E0BB34" fill-opacity="0.75"/>
</svg>
