<svg width="458" height="299" viewBox="0 0 458 299" fill="none" xmlns="http://www.w3.org/2000/svg">
<path d="M12.9339 0.00121461C13.1032 0.00192919 12.9222 0.00286588 12.6736 0.00357775C12.5966 0.00380085 12.252 0.00368788 12.1833 0.00384189C12.0493 0.0041431 12.2183 0.00442372 12.0587 0.00472138C12.0041 0.00482002 11.4584 0.00469723 11.4136 0.00480067C11.1724 0.00536749 11.3115 0.00590372 11.1954 0.00647792C10.623 0.00930623 10.4182 0.0120864 10.1695 0.0149493C10.088 0.0158933 9.59266 0.0170408 9.80927 0.0180158C9.83505 0.0181297 10.3141 0.0180618 10.3536 0.0180835C10.958 0.0184231 9.99093 0.0183102 9.86243 0.018532C9.3551 0.0194122 9.31098 0.020391 9.49586 0.021238C9.57592 0.0215984 10.5274 0.0212371 9.99335 0.0216C9.95727 0.0216251 9.44855 0.0215337 9.3943 0.0216325C9.27226 0.0218567 9.36319 0.0222819 9.32288 0.0224556C9.24263 0.0227904 9.24775 0.0228458 9.24195 0.0231624C9.2296 0.0235953 8.97672 0.0241101 9.09199 0.0245745C9.11811 0.0246737 9.6396 0.0245424 9.72834 0.0247005C9.81694 0.0248588 9.77272 0.0252774 9.64979 0.0254185C9.52679 0.0255597 9.11691 0.0254996 9.02296 0.0255246C8.22998 0.0257301 9.32826 0.0262143 9.35542 0.0262766C9.81821 0.0274126 9.19256 0.0283868 9.19435 0.0294531C9.19703 0.0302626 9.40358 0.0311282 9.37525 0.0318984C9.33949 0.0328161 9.0569 0.0335938 9.10548 0.0344853C9.11 0.0345794 9.72316 0.0344692 9.72993 0.0345841C9.80128 0.0358049 9.73444 0.0370173 9.3205 0.0382329C9.27845 0.0383548 8.74011 0.0381977 8.6659 0.0383195C8.22348 0.0390652 7.16068 0.0402451 9.50459 0.040688C9.41306 0.0411931 9.3185 0.0418063 8.84602 0.0422582C8.54192 0.0425496 7.95545 0.0422666 8.2057 0.0426245C8.26146 0.0427052 8.77506 0.0426002 8.81983 0.0427213C9.00786 0.043231 8.8409 0.0437878 9.10627 0.044292C9.16146 0.0443946 9.62166 0.0443666 9.70454 0.0443956C10.3757 0.0446398 9.26623 0.0450464 9.18562 0.045135C8.58445 0.0458099 8.82102 0.0463027 8.80635 0.0469314C8.80268 0.0470773 9.42084 0.0469049 9.43952 0.0470453C9.52812 0.0477734 9.47499 0.0485276 9.20069 0.0492406C9.13819 0.0493992 8.61163 0.0492533 8.55482 0.0493291C8.31074 0.0496633 9.30529 0.0497373 9.0904 0.0500578C9.04638 0.0501254 8.5956 0.0500873 8.54609 0.0500996C7.76894 0.0502925 8.87011 0.0504601 8.89442 0.0505097C9.2266 0.0511373 8.07704 0.0515384 8.23982 0.0521446C8.26045 0.0522172 8.83082 0.0520536 8.85395 0.0522575C9.01141 0.0536157 8.85472 0.0550522 8.39851 0.0563966C8.32835 0.0566057 7.89988 0.0564565 7.84706 0.0564696C7.02177 0.056684 8.12756 0.0568227 8.1692 0.0568909C8.46897 0.0574286 7.54164 0.0579309 8.85871 0.0582962C8.40164 0.0605734 9.14125 0.0628402 7.96132 0.0650986C7.94765 0.0651273 7.40305 0.0650759 7.37813 0.0651331C7.07234 0.0658229 7.91875 0.0656905 8.95393 0.0661469C9.21387 0.0662619 7.96406 0.0666116 7.87245 0.0666426C7.53486 0.0667553 6.72464 0.0666384 6.65926 0.0666761C6.14587 0.0669886 8.82532 0.0669376 8.82618 0.0673591C8.82171 0.0673723 8.32853 0.0673169 8.27949 0.0673523C8.12554 0.0674622 8.32151 0.0675712 8.15175 0.0676787C7.75891 0.0679248 6.45693 0.0680125 7.21468 0.0683884C7.31302 0.068436 8.83292 0.0683633 8.76112 0.0687396C8.73121 0.0688897 8.75726 0.0695537 8.65876 0.0697398C8.56039 0.0699256 8.0706 0.069798 8.04939 0.0698113C7.40173 0.0703121 7.13331 0.0701222 6.17446 0.0703731C5.21922 0.070624 7.49755 0.0705544 7.75184 0.0706567C8.00542 0.0707592 7.47106 0.0711264 7.28529 0.0712166C7.09945 0.0713068 6.78823 0.0711943 6.68306 0.0712745C5.99596 0.0718062 7.81394 0.0715079 8.17555 0.0716831C9.03177 0.0720962 7.34215 0.0724179 7.17659 0.0727961C7.13188 0.0728984 7.5167 0.0728149 7.55269 0.072906C7.69012 0.0732669 7.16292 0.0734839 7.64632 0.0738945C7.72509 0.0739616 8.74093 0.0742935 7.99544 0.0745084C7.88794 0.0745388 7.46689 0.0744523 7.37257 0.0746061C7.23103 0.0748359 7.139 0.0752498 7.27974 0.0754968C7.38387 0.0756791 8.07766 0.0754702 7.86213 0.0756996C7.7659 0.0758017 7.36003 0.0756126 7.21309 0.0758042C7.06619 0.0759948 7.08402 0.0764822 7.09804 0.0766677C7.11236 0.0768528 7.63863 0.0767515 7.67409 0.0767664C7.87718 0.076857 8.13095 0.0772122 8.13032 0.0772436C8.19457 0.0788272 7.30748 0.0802875 7.60109 0.0818293C7.62337 0.0819503 8.17833 0.0818697 8.18745 0.0818882C8.41997 0.0823024 6.94446 0.0819758 6.45058 0.0822652C7.57676 0.0822233 7.37284 0.0823942 7.49635 0.0826859C7.55678 0.0828265 7.99285 0.08275 8.03749 0.0827628C8.69982 0.0829713 7.84433 0.0831165 7.66933 0.0831539C7.02556 0.083292 7.78621 0.0834423 7.35591 0.0835362C6.92883 0.0836301 6.29568 0.083414 6.30379 0.0836939C6.70692 0.0837723 7.76042 0.0835646 7.93117 0.083777C8.577 0.0845786 7.75043 0.086075 7.66456 0.0867195C7.57878 0.0873628 7.65315 0.0875705 7.50746 0.0879453C7.24403 0.0886224 8.02566 0.0883743 8.38343 0.0887947C8.74117 0.0892163 6.81799 0.0890113 6.40456 0.089072C5.99131 0.0891315 6.41671 0.0891964 6.18953 0.0892704C5.96241 0.0893442 5.68131 0.0891845 5.59603 0.089358C5.51083 0.0895316 6.24601 0.0900062 6.6783 0.0900677C7.59413 0.0901978 8.55534 0.0899839 8.2176 0.0904432C8.19756 0.0904697 7.69187 0.0903839 7.64076 0.0904851C7.25146 0.0912885 7.22733 0.0921231 6.88301 0.0929256C6.83488 0.0930359 6.27231 0.0929372 6.23793 0.0930014C5.87811 0.0936703 6.82666 0.0934312 7.88038 0.0937977C6.4781 0.0937155 5.62018 0.0939181 5.6119 0.0944257C5.60643 0.0947309 6.21888 0.0946783 6.65053 0.0948757C6.78065 0.0949349 6.36012 0.0951508 6.64815 0.0951899C7.58966 0.095319 8.64363 0.0951156 8.22395 0.0956389C8.20401 0.0956619 7.68864 0.0955888 7.65742 0.0956681C7.45313 0.0961809 8.43794 0.0962423 8.5572 0.0967967C8.65078 0.0972312 8.05026 0.098004 7.95259 0.0984987C6.37602 0.0984883 6.73703 0.0989556 7.82405 0.0991452C7.77955 0.0994663 7.841 0.0998131 7.69075 0.100123C7.63952 0.10023 7.18306 0.10016 7.13374 0.100174C6.36005 0.10038 7.4176 0.10052 7.45906 0.100589C7.86209 0.10134 7.06055 0.101952 7.84389 0.102669C7.8721 0.102694 8.96723 0.102736 8.16761 0.102927C8.1125 0.10294 7.61423 0.102703 7.5757 0.10304C7.53708 0.103377 6.95001 0.104013 7.45747 0.104481C7.57964 0.104595 8.46867 0.104881 7.77406 0.105111C7.67974 0.105142 7.36565 0.105109 7.19087 0.105153C6.63396 0.105296 7.74087 0.105374 6.80049 0.105542C5.86016 0.10571 5.15592 0.10606 5.80471 0.106532C5.82357 0.106547 6.7009 0.106659 6.68703 0.106807C6.66413 0.107044 6.48136 0.107381 6.48708 0.107628C6.49013 0.107747 7.03491 0.107671 7.04488 0.107692C7.35015 0.108488 6.86448 0.109056 6.6537 0.109909C6.61399 0.110066 7.35688 0.110515 6.76955 0.110818C6.12661 0.111151 3.45207 0.110809 4.08926 0.111574C4.34412 0.111882 7.73726 0.112273 5.97927 0.112827C6.41489 0.113902 5.51515 0.114896 6.13716 0.115974C6.16472 0.116022 7.11172 0.116175 7.09883 0.116289C7.07786 0.116459 6.63525 0.116551 6.6061 0.116672C6.47277 0.117178 6.85146 0.117642 6.79256 0.11813C6.77116 0.118315 6.3135 0.11825 6.28792 0.118471C6.26277 0.118692 6.86542 0.118839 6.57436 0.119138C6.3525 0.119364 5.12071 0.119591 4.97713 0.119891C6.19216 0.119902 6.16713 0.120108 6.48787 0.120474C6.5501 0.120545 6.973 0.120469 7.02425 0.120502C7.24221 0.120638 6.89172 0.120763 7.12898 0.120892C7.18597 0.120923 7.60091 0.120925 7.67091 0.12095C8.28199 0.121168 7.34862 0.121527 7.18611 0.121588C6.56892 0.121824 7.1086 0.121934 6.86556 0.122116C6.62254 0.122296 6.31875 0.122026 6.17128 0.122237C5.86626 0.122675 5.93327 0.123237 5.9142 0.123681C5.90916 0.123859 6.46304 0.123738 6.47518 0.123763C6.61566 0.12413 6.02649 0.124501 7.12978 0.124704C4.27708 0.124958 7.40647 0.124925 6.8354 0.125449C6.78922 0.12549 5.4402 0.125543 5.24215 0.125384C5.04429 0.125226 5.46597 0.124986 5.15725 0.124766C5.0848 0.124714 3.82068 0.124415 3.74411 0.124375C3.14565 0.124056 5.16158 0.124011 5.2723 0.123994C6.4672 0.123802 5.10535 0.123438 5.01125 0.123342C4.58007 0.122903 4.86358 0.12253 4.55581 0.122162C4.3569 0.121922 3.03639 0.121898 3.07681 0.12171C3.21041 0.121083 5.05252 0.120864 3.45529 0.120273C3.11463 0.120146 1.67136 0.120272 2.80624 0.119818C2.87779 0.11979 3.916 0.119452 3.25931 0.119258C3.17651 0.119233 2.75588 0.119234 2.72055 0.119202C2.49199 0.118986 2.82708 0.118841 2.66659 0.118606C2.50611 0.11837 2.26685 0.118087 2.40952 0.117818C2.49482 0.117656 3.2785 0.117448 3.47036 0.117371C4.02307 0.117152 3.11686 0.116917 3.78616 0.116781C4.45882 0.116644 5.48037 0.116912 5.915 0.116553C4.82219 0.11654 3.70054 0.116509 2.60153 0.116488C2.64001 0.115702 2.99338 0.114928 2.9451 0.114139C2.93802 0.114041 2.35052 0.114141 2.32779 0.114036C2.23446 0.113594 2.65326 0.113207 2.48648 0.112749C2.35513 0.112393 1.7331 0.112004 1.57639 0.111633C2.82687 0.111406 2.40236 0.110855 2.51663 0.110454C2.55612 0.110314 2.8901 0.110324 2.99905 0.110224C3.40202 0.109848 2.29698 0.110024 2.12308 0.109921C1.38089 0.109478 3.88208 0.10944 3.82028 0.108919C3.81785 0.108891 2.48461 0.108553 2.40158 0.108507C1.86019 0.108211 2.86563 0.108458 2.96414 0.108273C3.14416 0.107935 3.46256 0.1077 3.07205 0.107304C2.95638 0.107188 2.12539 0.106911 2.76816 0.106687C2.85232 0.106657 3.29301 0.106673 3.31881 0.10665C3.74901 0.106219 2.36432 0.106208 1.89536 0.105962C1.4265 0.105716 2.38237 0.105337 2.65787 0.105259C3.37055 0.105057 2.96244 0.105414 3.03238 0.105425C3.86468 0.105554 3.72139 0.105277 3.79171 0.105065C5.14942 0.105035 5.06792 0.104739 3.85916 0.104846C3.72713 0.104858 3.85374 0.105023 3.79171 0.105065C2.45962 0.104879 2.28902 0.104554 3.53384 0.104195C4.11727 0.104027 4.79752 0.104186 4.54867 0.103675C4.43633 0.103443 3.50148 0.103533 3.24661 0.103328C2.66509 0.102861 3.53715 0.102253 3.39975 0.101772C3.34986 0.101597 2.83813 0.101767 2.78641 0.101647C2.64753 0.10133 3.0315 0.101051 2.83481 0.100732C2.81634 0.100703 2.28066 0.100774 2.27383 0.100675C2.21162 0.0999236 2.55473 0.0992697 2.56424 0.0984856C2.56859 0.0981067 2.27315 0.0974294 2.33255 0.097037C2.43234 0.0963568 3.21129 0.09552 3.02206 0.0949389C2.90093 0.09456 2.36515 0.0946431 2.00009 0.0944807C1.29247 0.0941673 2.55999 0.0936127 2.75626 0.093538C2.76275 0.0935357 2.88906 0.0938618 3.16409 0.0936878C3.73717 0.0935866 2.75874 0.0935417 2.75626 0.093538C2.88305 0.0934889 3.00467 0.0928375 2.90225 0.0927081C2.84628 0.0926378 2.33865 0.0926771 2.31906 0.0926405C1.86478 0.0917694 1.73576 0.0908967 1.97312 0.0900132C1.98337 0.0899977 2.55118 0.0900211 2.56821 0.0899845C2.82067 0.089473 2.12606 0.0891455 1.71366 0.0887237C1.30144 0.0883019 1.4395 0.0879674 2.41428 0.0877177C2.29154 0.0873994 2.72249 0.0869429 2.98398 0.0866801C3.24546 0.0864174 2.14017 0.0863807 2.11832 0.0863576C1.41895 0.0856366 2.0516 0.0852197 2.15006 0.0844717C2.19876 0.084116 2.03844 0.0834106 1.91757 0.0830255C1.8202 0.0827212 2.07923 0.0825378 1.91361 0.0822574C1.89149 0.0822195 1.39935 0.0822578 1.38041 0.0822462C0.791597 0.0819332 1.99469 0.0820836 2.20957 0.082019C2.99094 0.0817848 3.4071 0.08164 3.03952 0.0812393C2.95534 0.0811468 1.22305 0.0808775 1.12174 0.080709C0.993201 0.08049 1.61412 0.0805726 1.46372 0.0803432C1.45142 0.0803236 1.06835 0.0803277 1.08524 0.0801861C1.1586 0.0795289 1.3815 0.0788124 1.34311 0.0781294C1.33934 0.0780361 0.731739 0.0781558 0.716284 0.078021C0.644261 0.0773885 0.666747 0.0766952 0.951146 0.0760791C1.02306 0.0759274 1.44848 0.0760225 1.5748 0.0759896C2.3391 0.0757874 1.22859 0.0755008 1.20743 0.0754535C0.673773 0.0743254 1.67877 0.0734619 1.20029 0.0723121C1.1722 0.0722495 -0.01829 0.0717677 1.00272 0.0715527C1.07065 0.071538 2.11525 0.0713253 1.40103 0.0711373C1.35635 0.0711256 0.818577 0.0712581 0.873388 0.0710269C0.928079 0.0707956 0.568956 0.0704235 1.15982 0.0701056C1.34596 0.0700049 2.38798 0.0697671 1.55735 0.0694669C1.49936 0.0694473 -0.378822 0.0689839 0.917028 0.0688184C1.13034 0.0687916 2.50164 0.0688197 1.79856 0.0684614C1.66225 0.0683929 1.35638 0.0685172 1.16538 0.0683369C0.87101 0.0680605 1.23829 0.0676944 0.627417 0.0673547C0.51927 0.0672955 -0.411488 0.0670433 0.294959 0.066841C0.405601 0.0668094 0.863413 0.0668696 0.914647 0.0667627C1.16041 0.0662548 0.854178 0.0657229 1.17093 0.0652071C1.28224 0.0650244 2.02234 0.0651178 2.22067 0.0649274C2.41894 0.0647369 2.60966 0.0643532 2.27145 0.0641539C1.9331 0.0639546 0.753544 0.0641723 0.659155 0.0638738C0.249216 0.0625756 0.941174 0.0612896 1.04239 0.0599934C1.05751 0.0598011 0.63543 0.0599605 0.627417 0.0596772C0.596016 0.0586327 0.20027 0.0568292 1.09714 0.0559228C1.81549 0.0551966 2.36237 0.0561105 2.65469 0.0555556C2.79414 0.0552878 1.42279 0.0549981 1.37961 0.0549334C0.941056 0.0543019 1.54854 0.053863 1.36216 0.0532946C1.32348 0.0531772 0.767657 0.0532923 0.740881 0.0531924C0.644489 0.0528512 0.892583 0.0524926 0.847204 0.0521665C0.825567 0.0520203 0.401049 0.0520472 0.433814 0.0519126C0.507322 0.0515905 0.685769 0.0513058 1.08365 0.0509918C1.11991 0.0509632 1.64799 0.0511561 1.66764 0.0509178C1.69792 0.0505322 2.09043 0.0500535 1.68509 0.0496098C1.56316 0.0494781 0.59293 0.049473 1.26297 0.04919C1.40292 0.0491306 2.56795 0.0492064 1.56131 0.0488767C1.39403 0.0488213 0.0362664 0.0482675 0.911473 0.0479958C1.14182 0.0479241 2.09517 0.0477411 1.94534 0.0475828C1.92144 0.0475613 1.40029 0.0476473 1.34946 0.0475161C1.17938 0.0470538 1.23498 0.0465693 1.07175 0.0460943C1.02713 0.0459674 0.487853 0.0461563 0.438575 0.0459673C0.302267 0.0454475 0.439577 0.0447984 0.608374 0.0442901C0.67163 0.0441026 1.11835 0.0442322 1.16697 0.0442186C1.95769 0.0439992 0.890394 0.0438696 0.828161 0.0437968C0.455513 0.0433441 0.956866 0.0429994 0.824193 0.0425822C0.788933 0.042467 0.280034 0.0425487 0.234657 0.0425257C-0.208712 0.042288 0.705204 0.0424651 0.805944 0.0423146C1.09119 0.0418931 1.05029 0.0414232 0.985265 0.0409968C0.960631 0.0408403 0.370551 0.0410163 0.355262 0.0408757C0.253581 0.040044 0.310045 0.0391793 0.635351 0.0383676C0.697674 0.0382148 1.15205 0.0383109 1.25583 0.0382791C1.98191 0.0380595 0.991532 0.0377378 0.897191 0.0376637C0.466432 0.0373271 0.868248 0.0371963 0.793249 0.0368991C0.419836 0.0354468 0.685964 0.0336536 0.850377 0.0322827C1.06198 0.0304963 1.49424 0.0291101 1.38199 0.0274066C1.37543 0.0272983 0.770963 0.0274075 0.757543 0.0273142C0.611826 0.0261092 0.848026 0.0249229 0.673437 0.0237155C0.660182 0.0236164 0.0871456 0.0237592 0.046608 0.0236002C-0.0405582 0.023274 -0.00941159 0.0228608 0.173561 0.022531C0.261721 0.0223701 0.753437 0.0225859 0.832128 0.022424C1.01648 0.022047 1.05729 0.0216428 0.965428 0.0212556C0.925086 0.0210908 0.339016 0.0213394 0.332252 0.0211252C0.274109 0.019666 0.173172 0.018233 0.932103 0.0167584C0.984226 0.0166573 2.17535 0.0165686 1.94693 0.0163537C1.61636 0.0163375 1.22751 0.0163384 0.874181 0.0163313C0.683849 0.0142071 1.09677 0.0121046 1.16062 0.00997447C1.16317 0.00988466 0.532056 0.0100399 0.533789 0.00986599C0.54312 0.00885962 0.368281 0.00788237 0.99558 0.00685297C1.05693 0.00675083 2.16722 0.00680323 1.9993 0.00650224C1.96866 0.00644916 1.82058 0.00599583 1.57956 0.00587862C1.54321 0.0058627 1.02497 0.00594541 1.00986 0.00579933C0.931165 0.00495043 1.04948 0.00406083 1.36612 0.0032134C1.41822 0.00307664 1.9701 0.00322229 2.01199 0.00312487C2.30496 0.00243387 1.88543 0.00168226 2.38651 0.00102198C2.7239 0.000580012 3.67787 0.000743642 4.61691 0.000508785C4.74939 0.000475567 4.77038 0.000201886 5.31673 0.000187733C6.69058 0.000151398 8.19493 0.000283961 9.65931 0.000229567C9.97473 0.000218075 9.635 -0.000148454 10.3972 6.85547e-05C10.4482 8.3715e-05 10.7012 0.000349451 10.9598 0.000414902C11.1386 0.000460471 11.6942 0.000378354 11.923 0.000471329C12.1517 0.000564297 11.6859 0.000666456 11.9548 0.000820595C12.227 0.000974665 12.8591 0.000906919 12.9339 0.00121461ZM4.15274 0.0854971C4.68354 0.0852538 2.73942 0.0852179 3.20456 0.085481C3.22935 0.0854938 4.1267 0.0855096 4.15274 0.0854971ZM4.4598 0.114932C5.31729 0.114614 4.05644 0.114397 3.39419 0.114621C2.73266 0.114845 4.19986 0.115029 4.4598 0.114932ZM5.08584 0.11823C5.76193 0.117859 3.0051 0.1178 3.5624 0.118198C3.5939 0.118221 5.04658 0.118252 5.08584 0.11823ZM4.8843 0.00159793C4.91012 0.00159457 4.93528 0.00139784 4.90969 0.00139314C4.29224 0.00128838 4.24236 0.00168177 4.8843 0.00159793ZM5.76742 0.121503C6.14034 0.121387 5.70984 0.121053 5.24612 0.121197C4.87306 0.121313 5.30352 0.121648 5.76742 0.121503ZM6.22762 0.0728063C6.25659 0.0728025 6.28268 0.0726614 6.11892 0.0726643C5.59148 0.0726738 5.74034 0.0728701 6.22762 0.0728063ZM5.79915 0.127066C5.90292 0.126244 8.1802 0.125745 7.92323 0.12664C7.87674 0.126802 7.19703 0.126291 6.99172 0.126497C6.61767 0.126875 8.04753 0.127125 7.28133 0.127511C7.14109 0.12758 5.78817 0.127112 5.79598 0.127064C5.79704 0.127065 5.7981 0.127065 5.79915 0.127066ZM6.48787 0.085357C6.51358 0.0853521 6.53796 0.0851569 6.51247 0.0851522C5.89527 0.0850465 5.8458 0.0854398 6.48787 0.085357ZM7.4297 0.0645762C7.48448 0.0645654 7.53572 0.0641123 7.48524 0.0640975C6.47595 0.0638611 6.36938 0.0647772 7.4297 0.0645762ZM7.91054 0.0985065C8.53144 0.0987195 8.60455 0.0989744 7.82484 0.0991442C7.86623 0.0989325 7.87233 0.0987194 7.91054 0.0985065Z" fill="#171717" fill-opacity="0.75"/>
<path d="M249.77 200.643C248.058 201.059 245.6 201.637 243.674 202.11C243.074 202.257 243.295 201.93 242.869 202.026C242.045 202.214 241.346 202.593 240.52 202.786C240.246 202.849 240.438 202.373 240.152 202.448C238.936 202.77 237.825 203.244 236.665 203.702C236.336 203.832 236.005 203.961 235.666 204.086C228.174 206.861 221.218 210.826 214.604 215.624C212.425 217.201 209.667 219.033 207.705 221.022C207.475 221.256 207.843 221.37 207.815 221.432C207.392 222.387 207.168 221.684 206.647 222.048C205.633 222.763 204.636 223.603 203.719 224.495C202.84 225.346 202.056 226.379 201.403 227.39C200.865 228.238 201.985 227.796 201.103 228.412C201.042 228.455 200.897 228.046 200.71 228.251C200.277 228.725 199.679 229.76 199.39 230.171C198.839 230.946 198.759 231.086 198.29 231.861C197.649 232.921 196.766 234.125 196.194 235.342C196.073 235.601 196.571 235.441 196.407 235.872C196.242 236.302 195.649 237.351 195.385 237.673C195.119 237.996 194.949 237.71 194.857 237.745C194.095 238.015 194.129 239.616 194.065 239.786C192.862 242.865 191.25 245.222 189.931 248.039C189.181 249.644 188.475 251.373 187.771 252.999C187.554 253.503 187.355 253.996 187.168 254.475C186.282 256.778 185.662 258.812 185.582 261.226C185.575 261.479 186.01 261.2 186.004 261.505C185.954 264.742 186.555 267.973 187.376 271.278C187.459 271.61 186.964 271.314 187.027 271.655C187.301 273.14 187.723 275.312 188.705 276.606C189.093 277.116 189.576 277.461 190.151 277.544C190.726 278.78 191.579 280.186 192.094 281.359C192.433 282.116 191.619 281.766 192.395 282.424C192.571 282.569 192.651 282.118 192.892 282.349C193.906 283.318 194.935 284.466 196.126 285.209C196.369 285.359 196.51 285.062 196.608 285.067C197.403 285.121 197.829 286.383 198.008 286.573C199.307 287.984 200.608 288.553 202.17 289.375C202.537 289.565 202.298 288.963 202.655 289.13C203.607 289.575 204.592 290.022 205.57 290.473C206.389 290.853 207.25 291.183 208.12 291.482C208.525 291.619 208.062 291.887 208.254 291.971C209.119 292.327 209.436 291.68 210.274 291.945C210.452 291.998 210.311 292.295 210.34 292.333C210.811 292.934 211.359 292.214 211.493 292.208C213.225 292.107 214.35 292.9 216.083 292.719C216.289 292.695 215.807 292.323 216.384 292.279C220.214 291.972 224.312 291.416 228.195 290.966C228.799 290.894 228.433 291.27 228.478 291.298C229.199 291.736 229.448 290.902 229.632 290.835C230.253 290.616 230.884 290.544 231.476 290.449C232.261 290.327 232.969 290.121 233.359 289.438C239.425 287.752 244.357 283.118 249.89 279.598C249.96 279.552 250.088 279.936 250.226 279.843C251.898 278.704 251.232 278.497 251.754 277.098C251.888 276.743 253.222 276.723 253.331 276.711C253.732 276.669 253.848 277.315 253.96 277.276C254.887 276.93 253.535 275.652 254.452 274.831C254.483 274.807 254.589 275.17 254.69 275.126C255.005 274.986 255.143 274.679 255.454 274.557C256.167 274.279 256.969 274.769 257.422 273.644C257.472 273.519 256.835 273.037 257.198 272.449C257.255 272.355 257.337 272.26 257.454 272.162C257.787 271.886 259.187 270.557 259.632 270.229C260.078 269.903 260.037 270.408 260.075 270.392C261.436 269.723 261.165 270.234 262.157 270.208C263.149 270.177 261.908 269.18 262.002 268.847C262.093 268.518 263.134 268.031 263.407 267.946C263.684 267.857 263.599 268.239 263.817 268.129C265.264 267.392 263.763 267.093 263.957 266.556C264.405 265.296 265.901 265.469 266.764 264.781C266.999 264.594 266.638 264.575 266.811 264.37C267.503 263.555 268.198 263.381 268.821 262.29C268.92 262.114 269.108 260.935 269.918 260.854C270.034 260.843 270.061 261.229 270.426 260.956C270.966 260.555 271.871 259.736 272.307 259.157C272.63 258.729 271.86 258.824 272.437 258.453C272.694 258.288 272.505 258.878 272.972 258.551C273.439 258.224 274.427 257.205 274.801 256.809C275.174 256.415 274.706 256.372 274.72 256.323C274.805 256.036 275.405 255.173 275.469 255.107C278.673 251.769 282.076 249.121 285.04 245.716C285.272 245.45 284.832 245.355 284.864 245.312C285.58 244.326 285.664 245.72 286.495 245.342C285.846 244.894 286.294 244.627 286.817 243.951C287.069 243.625 286.696 243.579 286.699 243.531C286.786 242.773 287.509 242.871 287.672 242.875C288.273 242.888 288.191 242.207 288.595 242.213C289 242.216 288.883 242.978 289.443 242.377C289.398 242.018 288.449 241.96 288.791 241.426C290.074 239.417 293.48 236.614 294.806 235.273C296.126 233.939 296.498 233.461 297.322 232.718C298.793 231.394 297.911 231.551 298.559 230.482C299.201 229.418 299.785 230.75 300.114 230.815C300.444 230.879 300.356 230.538 300.619 230.485C300.881 230.432 300.708 230.908 301.095 230.573C301.475 230.247 302.048 228.866 301.943 228.537C301.732 227.827 300.808 227.853 301.897 227.006C301.959 226.958 302.049 227.379 302.275 227.184C302.486 227 302.694 226.814 302.898 226.627C304.442 225.211 305.905 223.649 307.423 222.228C307.662 222.005 307.765 222.48 307.907 222.353C309.375 221.034 308.416 221.138 308.547 219.851C309.137 220.654 309.978 220.596 310.92 219.426C311.491 218.706 311.046 218.584 311.162 217.937C311.2 217.739 311.794 217.421 311.706 217.2C311.389 216.511 310.477 216.576 311.53 215.524C311.577 215.478 311.765 215.843 311.904 215.669C312.777 214.521 312.319 214.002 312.727 212.709C313.08 211.704 313.455 210.122 312.662 209.043C313.602 208.431 312.473 207.497 311.582 207.765C310.972 207.192 310.188 206.69 309.508 206.155C309.483 206.135 309.457 206.114 309.431 206.093C309.197 205.906 309.529 205.741 309.516 205.692C309.284 204.919 308.557 205.349 308.374 205.277C306.363 204.464 304.992 203.211 302.868 202.878C302.792 202.867 302.39 203.518 302.094 202.792C302.075 202.743 302.847 202.693 301.949 202.287C301.066 201.887 299.486 200.827 298.082 200.69C297.744 200.656 296.754 200.953 296.285 200.281C296.222 200.19 296.386 200.016 296.303 199.86C296.031 199.357 295.573 200.01 295.317 199.237C295.059 198.464 294.229 197.672 292.771 197.689C292.725 197.688 292.23 198.17 291.819 198.035C291.163 197.819 290.253 197.419 289.555 197.226C289.22 197.133 289.332 197.557 289.272 197.547C286.978 197.124 285.467 196.385 283.065 195.683C282.624 195.553 281.235 195.774 280.452 195.201C279.583 194.575 280.938 192.944 278.618 192.957C277.675 192.965 276.171 195.085 274.753 193.651C272.974 193.568 271.306 193.257 269.601 193.068C268.268 192.921 266.92 192.852 265.532 193.036C265.387 193.054 264.941 193.71 264.616 193.706C264.12 193.699 263.844 193.4 263.493 193.392C262.008 193.352 260.677 193.717 259.264 193.844C258.729 193.896 258.87 193.557 258.229 193.627C257.582 193.703 257.227 194.178 256.332 194.136C255.659 194.104 254.827 193.401 253.93 193.509C254.086 194.338 253.489 194.451 252.515 194.949C252.327 195.045 252.619 195.268 252.534 195.329C252.191 195.58 251.784 195.447 251.468 195.715C251.393 195.779 251.473 196.055 251.418 196.123C250.952 196.706 249.776 196.429 249.569 196.386C248.777 196.217 248.606 196.683 248.06 196.718C247.506 196.758 248.167 196.266 247.549 196.405C246.275 196.69 244.786 197.429 243.613 198.018C243.149 198.252 243.641 198.431 243.578 198.472C243.114 198.768 242.584 198.957 242.164 199.197C241.754 199.431 241.45 199.708 241.378 200.176C239.759 198.828 240.901 200.65 239.41 201.1C239.296 201.134 238.659 200.429 238.991 200.062C239.325 199.694 240.09 199.581 240.549 199.076C240.655 198.956 241.009 197.759 241.091 197.655C241.139 197.593 241.189 197.541 241.241 197.5C241.848 197.005 242.516 198.009 242.59 198.049C243.471 198.516 243.997 197.194 244.235 197.008C245.283 196.165 246.394 195.892 247.339 195.283C247.955 194.891 247.704 194.01 248.258 193.835C250.131 193.264 251.103 194.301 252.551 192.765C252.87 192.442 252.246 191.556 253.804 191.995C253.904 192.021 255.059 192.501 255.558 191.946C255.621 191.876 255.567 191.59 255.658 191.547C256.283 191.27 256.765 191.423 257.467 191.204C258.168 190.987 259.018 190.711 259.863 190.726C260.361 190.734 261.057 191.221 261.293 191.338C261.982 191.67 262.658 191.007 263.094 191.453C263.523 191.904 262.761 192.637 263.825 192.903C263.843 192.146 263.913 191.367 263.961 190.605C265.915 190.579 267.834 190.796 269.754 190.981C270.204 191.025 270.66 191.067 271.122 191.103C271.415 191.126 271.153 190.693 271.47 190.707C272.824 190.776 273.941 191.206 275.331 191.291C276.398 191.355 277.631 191.12 278.756 191.214C279.275 192.185 280.951 192.208 282.107 192.539C282.512 192.654 282.436 192.874 282.711 193.011C283.745 193.527 283.399 192.667 283.727 192.617C285.139 192.415 284.852 194.125 286.36 194.458C286.439 194.475 287.643 193.831 287.794 193.813C288.744 193.676 287.854 194.16 288.369 194.368C289.311 194.751 289.922 195.149 291.129 195.218C291.48 195.237 292.442 194.922 292.953 195.545C293.02 195.626 292.884 195.904 292.946 195.942C294.08 196.605 294.399 195.704 295.202 195.622C296.002 195.539 296.878 196.535 297.03 196.79C297.443 197.455 296.523 196.839 296.479 196.876C295.932 197.299 296.74 197.467 297.322 197.722C297.099 198.64 297.934 198.876 297.919 197.983C297.916 197.884 297.427 197.805 297.322 197.722C298.143 197.033 299.116 197.252 299.818 198.437C300.147 198.995 299.531 199.257 301.011 199.648C301.678 199.828 301.664 199.126 302.305 199.193C303.758 199.345 305.201 200.628 306.551 201.17C307.049 201.371 306.732 200.825 307.078 200.952C307.981 201.283 308.644 201.921 309.562 202.273C309.647 202.305 309.63 201.871 309.91 202.022C310.472 202.323 311.006 202.649 311.508 202.988C312.914 203.974 314.269 204.974 315.708 206.889C316.167 207.52 316.832 208.572 317.118 209.847C317.42 211.116 317.291 212.388 317.078 213.167C316.282 215.979 314.222 217.764 313.288 219.289C312.647 220.279 313.101 220.285 312.985 220.846C312.779 221.906 311.001 222.66 310.769 222.721C310.758 222.727 311.325 221.917 310.839 222.2C310.341 222.175 310.775 222.71 310.769 222.721C310.61 222.778 309.274 224.196 309.074 224.526C308.968 224.706 309.308 224.852 309.247 224.941C308.196 226.473 307.048 227.907 305.796 229.262C305.309 229.79 304.765 230.348 304.241 230.85C304.206 230.879 303.961 230.564 303.881 230.634C302.732 231.633 302.438 232.664 301.816 233.761C301.179 234.875 300.457 235.516 299.455 235.605C298.892 236.339 297.753 237.128 297.1 237.564C296.442 238.006 296.925 238.609 296.892 238.668C295.81 240.538 294.644 241.144 293.099 242.689C292.359 243.428 291.021 245.008 290.305 245.885C289.736 246.584 289.242 246.845 288.756 247.522C288.691 247.613 289.015 247.766 289.001 247.8C288.662 248.749 288.364 247.853 288.125 247.888C287.261 248.012 286.76 248.12 286.132 249.146C285.987 249.382 286.308 250.782 286.016 251.188C285.634 251.715 285.493 251.241 285.102 251.799C285.068 251.846 285.268 252.021 284.971 252.313C283.597 253.67 282.025 255.075 280.645 256.531C280.456 256.729 281.002 256.771 280.734 257.062C279.475 258.427 278.033 259.876 276.623 261.024C276.274 261.307 276.261 260.901 276.131 260.908C275.336 260.96 275.29 262.098 275.203 262.207C273.128 264.822 270.839 266.12 268.647 268.729C268.526 268.876 268.093 270.449 267.137 270.39C267.073 270.387 266.119 270.304 266.067 271.04C266.062 271.087 266.606 271.081 266.084 271.531C265.559 271.982 264.945 272.914 263.974 273.269C263.67 273.38 262.667 273.336 262.41 274.365C262.399 274.43 262.275 276.324 261.304 275.998C261.172 275.952 260.739 275.416 260.343 275.873C260.265 275.963 260.187 276.09 260.113 276.264C260.027 276.471 260.442 276.378 260.137 276.837C259.677 277.533 258.697 278.08 258.232 279.065C258.147 279.242 258.025 280.215 257.246 280.252C257.124 280.258 257.049 279.901 256.785 280.087C255.551 280.952 254.482 282.161 253.163 282.988C252.696 283.28 252.583 282.706 252.06 282.966C251.531 283.23 250.566 283.854 250.253 284.406C249.937 284.962 250.958 285.19 250.292 285.807C247.396 288.466 243.907 290.459 240.186 292.372C239.626 292.654 240.234 292.672 239.399 293.1C237.727 293.957 235.186 295.093 232.608 295.612C230.795 295.989 229.041 296.242 227.785 296.194C225.547 296.103 228.181 295.233 226.506 295.334C225.705 295.381 225.004 296.46 224.812 296.521C222.969 297.126 221.583 296.892 219.859 297.205C219.502 297.269 219.895 297.616 219.589 297.665C218.54 297.837 217.407 297.75 216.382 297.829C215.919 297.864 216.018 298.154 215.588 298.146C214.56 298.125 213.632 298.002 212.626 297.69C212.536 297.661 213.168 297.32 212.405 297.276C211.164 297.203 209.651 296.795 208.149 296.801C207.703 296.801 207.543 297.467 206.692 296.791C206.513 296.642 206.975 295.946 205.701 296.311C205.535 296.363 204.109 296.576 203.161 296.088C202.969 295.987 202.805 295.851 202.697 295.671C202.557 295.436 202.312 294.605 201.822 294.491C201.755 294.477 201.844 294.918 201.461 294.777C200.098 294.268 198.752 293.527 197.384 292.848C197.016 292.665 197.349 293.3 196.806 293.014C195.305 292.225 193.597 290.914 192.375 289.741C191.926 289.31 192.455 289.348 192.441 289.293C192.246 288.414 191.451 288.687 191.237 288.552C189.95 287.72 189.392 286.637 188.418 285.636C188.15 285.355 188.057 285.792 187.983 285.753C187.23 285.322 188.102 285.387 187.838 284.949C187.107 283.72 186.197 282.438 185.444 281.218C185.169 280.77 185.107 281.488 184.863 281.078C184.444 280.37 184.061 279.639 183.715 278.879C182.946 277.193 182.279 275.41 181.823 273.619C181.704 273.144 182.102 273.331 182.137 273.212C182.386 272.399 181.432 271.632 181.303 271.415C180.713 270.451 180.875 269.962 180.606 269.026C179.177 264.462 179.522 257.951 181.215 253.614C181.597 252.538 182.03 251.541 182.495 250.602C184.276 247.051 185.901 243.993 187.646 240.286C187.783 239.996 187.265 240.102 187.379 239.85C188.869 236.597 190.635 233.517 192.342 230.286C192.485 230.018 191.923 230.2 192.142 229.763C192.584 228.874 193.255 227.792 193.907 226.991C194.222 226.605 194.158 227.346 194.468 226.955C195.198 226.039 195.915 225.009 196.589 223.97C196.879 223.523 196.077 223.933 196.483 223.371C197.279 222.275 198.145 221.168 199.181 220.095C201.397 217.808 203.778 215.722 206.453 213.957C206.709 213.789 207.447 214.245 207.843 213.714C207.735 213.506 207.562 213.3 207.423 213.098C212.328 208.903 217.764 205.514 223.413 202.394C223.652 202.262 223.026 202.111 223.49 201.854C226.17 200.371 228.798 198.918 231.845 198.047C232.148 197.961 232.311 198.725 233.1 198.259C233.189 198.206 233.727 197.926 234.175 197.659C234.422 197.511 234.636 197.369 234.728 197.267C234.762 197.226 234.4 196.986 234.797 196.813C237.14 195.805 239.687 194.93 242.241 194.341C242.648 194.249 242.34 194.748 242.634 194.685C244.704 194.243 246.9 193.348 249.087 193.352C250.546 193.375 250.111 194.11 250.906 194.679C251.016 194.756 251.876 194.717 251.93 195.098C252.064 196.045 251.741 197.1 251.934 198.107C251.978 198.317 252.866 198.074 252.346 198.606C252.31 198.638 251.675 198.838 251.529 199.033C251.43 199.165 251.651 199.533 251.449 199.708C251.245 199.885 250.973 199.587 250.62 199.822C250.269 200.063 250.502 200.464 249.77 200.643ZM294.143 239.548C293.389 239.816 294.3 240.813 294.591 240.031C294.604 239.992 294.181 239.534 294.143 239.548ZM268.656 191.969C269.072 192.264 269.446 192.255 269.672 192.109C269.909 191.951 269.977 191.632 269.726 191.369C269.701 191.343 269.672 191.317 269.641 191.293C268.983 190.786 268.377 191.774 268.656 191.969ZM258.826 192.708C259.971 193.042 259.953 191.125 258.792 191.649C258.723 191.68 258.757 192.689 258.826 192.708ZM247.643 195.385C247.657 195.399 248.241 195.295 248.253 195.276C248.483 194.792 247.297 195.002 247.643 195.385ZM249.475 195.377C249.885 195.504 250.724 194.916 250.22 194.743C249.811 194.602 248.961 195.217 249.475 195.377ZM267.246 265.229C267.224 265.222 266.918 265.498 267.003 265.573C267.278 265.814 267.616 265.338 267.246 265.229ZM235.253 203.508C237.089 201.738 239.152 202.31 237.154 203.696C236.794 203.973 237.551 202.677 237.024 202.949C236.021 203.479 236.273 204.693 235.121 205.164C234.913 205.247 235.142 203.607 235.254 203.503C235.254 203.505 235.253 203.507 235.253 203.508ZM292.683 238.743C292.661 238.741 292.257 239.147 292.26 239.169C292.36 239.687 293.174 238.869 292.683 238.743ZM248.96 280.852C248.915 280.842 247.863 281.654 247.858 281.701C247.761 282.682 249.884 281.046 248.96 280.852ZM312.675 209.011C312.022 208.844 311.575 208.475 311.584 207.767C311.992 208.162 312.383 208.569 312.675 209.011Z" fill="#746161" fill-opacity="0.75"/>
<path d="M406.874 162.845C405.359 163.235 403.253 163.709 401.62 164.125C401.109 164.255 401.275 163.94 400.913 164.024C400.217 164.189 399.634 164.551 398.935 164.732C398.704 164.791 398.824 164.327 398.583 164.398C397.255 164.796 396.114 165.455 394.83 166.044C390.483 168.044 386.433 170.669 382.585 173.682C380.879 175.017 379.253 176.487 377.699 178.072C376.057 179.734 373.968 181.745 372.647 183.823C372.493 184.065 372.862 184.122 372.852 184.182C372.695 185.115 372.317 184.494 371.922 184.899C370.359 186.508 368.992 188.599 368.009 190.517C367.593 191.333 368.626 190.873 367.842 191.484C367.788 191.527 367.601 191.148 367.442 191.347C367.082 191.798 366.603 192.774 366.365 193.148C365.904 193.867 365.837 193.998 365.451 194.705C364.918 195.68 364.156 196.764 363.684 197.868C363.585 198.103 364.059 197.967 363.931 198.355C363.804 198.74 363.293 199.693 363.057 199.978C362.819 200.267 362.634 200.002 362.547 200.031C361.819 200.262 361.951 201.722 361.899 201.873C360.9 204.649 359.429 206.749 358.158 209.249C357.893 209.769 357.62 210.319 357.353 210.852C356.668 212.218 356.038 213.627 355.421 214.897C354.408 216.987 353.455 218.725 352.694 220.848C352.614 221.071 353.109 220.959 353.013 221.231C351.998 224.126 351.098 227.009 350.208 229.927C350.119 230.221 349.832 229.76 349.721 230.051C349.031 231.809 347.921 234.764 349.474 235.994C349.31 237.24 349.197 238.752 348.884 239.883C348.685 240.615 348.264 239.914 348.46 240.812C348.505 241.014 348.851 240.739 348.893 241.04C349.068 242.305 349.068 243.702 349.415 244.922C349.486 245.17 349.793 245.058 349.859 245.121C350.166 245.421 350.103 245.898 349.995 246.305C349.891 246.497 349.781 246.676 349.776 246.738C349.71 247.843 350.642 248.434 351.864 248.936C352.148 249.05 351.969 248.522 352.242 248.613C353.698 249.085 355.471 249.34 357.203 249.605C357.595 249.664 357.218 250.014 357.407 250.06C358.227 250.255 358.436 249.566 359.219 249.708C359.386 249.736 359.297 250.05 359.328 250.083C359.821 250.614 360.24 249.836 360.353 249.815C361.918 249.52 362.972 250.233 364.52 249.961C364.699 249.928 364.25 249.579 364.757 249.509C368.173 249.028 371.818 248.512 375.261 248.136C375.798 248.076 375.481 248.443 375.521 248.472C376.178 248.921 376.379 248.097 376.541 248.033C377.848 247.546 379.254 247.888 379.97 246.787C383.125 246.237 386.211 245.374 389.299 244.565C391.828 243.902 394.326 243.178 396.901 242.567C396.973 242.548 396.987 242.948 397.131 242.91C398.863 242.445 398.321 242.027 399.107 240.912C399.302 240.633 400.46 241.063 400.564 241.084C400.925 241.176 400.883 241.812 400.991 241.812C401.879 241.795 400.975 240.173 401.937 239.71C401.968 239.698 401.989 240.067 402.086 240.059C402.386 240.032 402.577 239.787 402.874 239.77C403.552 239.735 404.174 240.433 404.79 239.518C404.866 239.4 404.212 238.56 405.077 238.151C405.428 237.99 406.887 237.15 407.33 236.965C407.771 236.785 407.664 237.241 407.7 237.237C409.03 236.971 408.71 237.375 409.61 237.606C410.512 237.829 409.53 236.581 409.658 236.294C409.791 236.006 410.785 235.814 411.048 235.795C411.312 235.778 411.187 236.115 411.399 236.064C412.818 235.706 411.476 235.078 411.713 234.622C412.256 233.548 413.592 234.047 414.461 233.57C414.694 233.442 414.364 233.35 414.54 233.194C415.232 232.58 415.909 232.537 416.549 231.636C416.659 231.485 416.902 230.417 417.654 230.484C417.761 230.494 417.764 230.862 418.118 230.668C418.644 230.382 419.524 229.761 419.951 229.285C420.268 228.933 419.547 228.902 420.101 228.641C420.347 228.524 420.148 229.052 420.596 228.815C421.038 228.583 422 227.757 422.351 227.442C422.711 227.121 422.273 227.016 422.287 226.972C422.376 226.711 422.947 225.984 423.008 225.93C425.772 223.47 428.63 221.453 431.277 219.003C431.533 218.767 431.79 218.513 432.031 218.255C432.239 218.032 431.826 217.898 431.855 217.861C432.478 217.016 432.617 218.322 433.383 218.029C432.747 217.564 433.158 217.351 433.592 216.745C433.802 216.45 433.446 216.394 433.445 216.349C433.45 215.657 434.131 215.768 434.288 215.771C434.855 215.792 434.695 215.159 435.078 215.159C435.459 215.158 435.45 215.868 435.899 215.3C435.805 214.969 434.905 214.93 435.149 214.433C436.073 212.59 438.658 209.75 439.571 208.347C440.487 206.97 440.71 206.476 441.282 205.694C442.309 204.272 441.522 204.554 441.834 203.494C442.146 202.423 443.053 203.531 443.38 203.532C443.705 203.536 443.528 203.246 443.758 203.153C443.988 203.061 443.959 203.519 444.228 203.151C444.498 202.782 444.636 201.453 444.445 201.174C444.044 200.578 443.198 200.754 443.961 199.816C444.005 199.762 444.211 200.121 444.364 199.907C445.573 198.2 446.577 196.28 447.729 194.536C447.888 194.296 448.12 194.7 448.216 194.563C449.223 193.125 448.355 193.386 448.132 192.208C448.903 192.835 449.67 192.635 450.267 191.46C450.626 190.756 450.186 190.687 450.149 190.095C450.137 189.918 450.649 189.549 450.516 189.369C450.176 188.901 449.55 188.892 449.729 188.377C449.776 188.242 449.878 188.072 450.055 187.849C450.093 187.802 450.333 188.125 450.44 187.954C451.132 186.832 450.579 186.406 451.036 185.094C451.395 184.069 452.436 182.38 452.84 181.19C453.882 181.526 453.971 180.274 453.346 179.633C453.569 178.85 453.706 177.982 453.944 177.226C454.025 176.965 454.306 177.193 454.345 177.166C454.963 176.73 454.291 176.257 454.287 176.083C454.274 174.165 454.932 172.633 454.405 170.798C454.386 170.731 453.63 170.63 454.18 170.145C454.217 170.112 454.569 170.712 454.586 169.853C454.604 169 454.925 167.34 454.45 166.177C454.39 166.026 454.162 165.765 454.027 165.459C453.915 165.226 453.861 164.983 454.022 164.697C454.069 164.613 454.299 164.64 454.392 164.508C454.673 164.058 453.893 164.123 454.353 163.51C454.816 162.902 454.789 161.666 453.604 160.936C453.565 160.909 452.915 161.071 452.666 160.793C452.268 160.338 451.699 159.665 451.181 159.28C450.936 159.096 450.866 159.517 450.819 159.49C449.7 158.829 448.837 158.229 447.845 157.579L447.914 157.605C447.275 157.387 446.621 157.159 445.858 156.935C445.46 156.817 444.229 157.072 443.538 156.508C442.785 155.893 444.055 154.266 441.999 154.287C441.178 154.298 439.724 156.399 438.544 154.931C435.754 154.702 433.31 153.642 430.477 153.648C430.352 153.648 429.861 154.238 429.569 154.186C429.135 154.108 428.949 153.772 428.64 153.709C427.351 153.435 426.121 153.543 424.88 153.362C424.399 153.294 424.6 152.997 424.035 152.919C423.469 152.842 423.048 153.218 422.292 152.948C421.725 152.744 421.201 151.845 420.426 151.692C420.332 152.53 419.815 152.473 418.843 152.648C418.661 152.683 418.84 152.985 418.754 153.016C418.408 153.151 418.076 152.896 417.751 153.051C417.671 153.088 417.659 153.375 417.59 153.421C417.019 153.827 416.126 153.178 415.962 153.069C415.347 152.649 415.066 153.032 414.606 152.886C414.122 152.744 414.821 152.494 414.259 152.424C413.443 152.331 412.452 152.392 411.526 152.675C411.513 152.679 411.476 152.695 411.464 152.701C411.122 152.877 410.799 153.064 410.502 153.241C410.101 153.486 410.578 153.642 410.525 153.684C409.777 154.268 408.758 154.522 408.807 155.449C407.076 154.296 408.468 155.942 407.188 156.494C407.086 156.538 406.377 155.913 406.608 155.54C406.842 155.166 407.515 154.992 407.845 154.466C407.916 154.344 408.035 153.16 408.101 153.049C408.585 152.189 409.483 153.281 409.56 153.319C410.431 153.722 410.762 152.428 410.989 152.24C411.043 152.191 411.098 152.145 411.153 152.101C411.185 152.085 411.283 152.042 411.318 152.032C412.496 151.444 413.46 151.561 414.394 151.296C415.032 151.125 415.09 150.212 415.599 150.229C417.345 150.305 417.851 151.606 419.481 150.579C419.841 150.364 419.545 149.34 420.723 150.206C420.787 150.259 421.644 151.043 422.18 150.635C422.25 150.583 422.273 150.293 422.36 150.276C422.96 150.17 423.299 150.435 423.944 150.389C424.567 150.34 425.345 150.259 426.034 150.441C426.463 150.551 426.929 151.157 427.116 151.315C427.647 151.768 428.328 151.227 428.624 151.735C428.916 152.246 428.128 152.85 429.011 153.278C429.151 152.533 429.339 151.776 429.502 151.031C431.549 151.35 433.517 151.917 435.56 152.244C435.813 152.283 435.625 151.837 435.9 151.87C437.062 152.012 438.005 152.482 439.204 152.596C440.141 152.685 441.229 152.463 442.2 152.553C442.611 153.52 444.075 153.528 445.091 153.832C445.441 153.936 445.368 154.157 445.605 154.287C446.506 154.772 446.222 153.926 446.513 153.867C447.62 153.649 447.51 154.967 448.413 155.456C448.506 155.48 448.767 155.57 448.852 155.617C448.954 155.709 449.076 155.792 449.222 155.865C449.285 155.892 450.569 155.55 450.722 155.578C451.658 155.703 450.68 155.925 451.101 156.264C451.866 156.9 452.289 157.451 453.377 158.018C453.687 158.173 454.748 158.366 454.905 159.221C454.925 159.332 454.661 159.493 454.696 159.562C455.326 160.784 456.094 160.275 456.838 160.869C457.596 161.49 457.474 163.095 457.339 163.386C457.053 164.193 456.991 162.933 456.916 162.916C456.225 162.71 456.652 163.529 456.74 164.216C455.855 164.517 456.033 165.348 456.817 164.923C456.906 164.871 456.731 164.358 456.74 164.216C457.155 164.375 457.455 164.667 457.598 165.049C457.795 165.486 457.688 166.059 457.224 166.68C456.855 167.166 456.365 166.774 456.62 168.123C456.729 168.737 457.364 168.467 457.562 169.017C458.013 170.285 457.391 171.953 457.399 173.262C457.402 173.742 457.787 173.3 457.8 173.631C457.832 174.514 457.49 175.255 457.511 176.143C457.513 176.224 457.907 176.078 457.874 176.352C457.627 178.437 457.019 180.179 456.414 182.26C456.128 183.267 455.716 185.112 455.272 186.107C454.703 187.424 453.722 188.814 453.003 190.025C452.786 190.389 452.601 190.742 452.467 191.077C452.1 191.993 452.528 191.968 452.565 192.457C452.637 193.404 451.205 194.296 450.996 194.408C450.989 194.411 451.293 193.615 450.919 193.933C450.446 193.989 450.999 194.399 450.996 194.408C450.861 194.481 450.021 195.954 449.93 196.288C449.882 196.469 450.241 196.537 450.21 196.628C449.461 198.792 448.491 200.867 447.25 202.836C447.224 202.869 446.907 202.629 446.851 202.708C446.061 203.81 446.072 204.79 445.775 205.908C445.479 207.021 444.947 207.752 444.031 207.981C443.678 208.756 442.795 209.643 442.273 210.14C441.75 210.639 442.345 211.126 442.325 211.187C441.691 213.083 440.697 213.79 439.444 215.396C438.85 216.161 437.738 217.757 437.087 218.624C436.579 219.311 436.099 219.571 435.628 220.226C435.564 220.315 435.885 220.473 435.871 220.506C435.533 221.433 435.241 220.54 435.007 220.565C434.283 220.637 433.828 220.694 433.3 221.275C433.215 221.37 433.128 221.483 433.037 221.617C432.899 221.819 433.195 223.167 432.924 223.509C432.561 223.96 432.438 223.491 432.071 223.967C432.039 224.008 432.227 224.195 431.946 224.436C430.659 225.547 429.178 226.699 427.853 227.919C427.672 228.084 428.187 228.188 427.93 228.432C426.716 229.583 425.311 230.784 423.92 231.689C423.58 231.908 423.585 231.52 423.462 231.509C422.715 231.443 422.606 232.526 422.52 232.614C420.408 234.802 418.133 235.66 415.792 237.691C415.669 237.802 415.048 239.222 414.17 238.951C414.111 238.934 413.232 238.647 413.079 239.332C413.069 239.376 413.572 239.496 413.025 239.801C412.477 240.106 411.752 240.851 410.798 240.945C410.491 240.978 409.588 240.677 409.169 241.58C409.146 241.642 408.685 243.394 407.852 242.823C407.718 242.727 407.329 241.863 406.712 242.743C406.593 242.913 406.989 242.943 406.619 243.288C406.045 243.82 405.051 244.04 404.399 244.824C404.285 244.963 403.942 245.843 403.23 245.632C403.119 245.599 403.135 245.243 402.856 245.333C401.528 245.756 400.282 246.52 398.892 246.835C398.399 246.946 398.448 246.377 397.922 246.433C397.399 246.49 396.376 246.727 395.956 247.123C395.527 247.522 396.356 248.098 395.606 248.427C394.042 249.108 392.419 249.566 390.759 249.93C389.021 250.307 387.274 250.612 385.534 251.012C385.041 251.124 385.519 251.306 384.796 251.492C382.132 252.186 377.528 253.496 375.034 253.335C373.047 253.21 375.352 252.383 373.876 252.458C373.173 252.493 372.573 253.564 372.412 253.623C370.807 254.212 369.574 253.982 368.091 254.32C367.779 254.39 368.141 254.729 367.875 254.784C366.974 254.974 365.978 254.923 365.112 255.045C364.717 255.102 364.817 255.387 364.446 255.4C363.571 255.434 362.76 255.375 361.894 255.152C361.814 255.132 362.319 254.735 361.665 254.761C360.591 254.802 359.295 254.573 358.028 254.833C357.656 254.91 357.635 255.587 356.822 255.089C356.653 254.981 356.92 254.196 355.934 254.828C355.777 254.941 354.002 255.718 353.248 254.955C353.039 254.757 352.627 254.007 352.12 253.988C352.048 253.987 352.237 254.407 351.809 254.335C350.329 254.062 348.673 253.461 346.976 252.206C346.527 251.856 346.929 252.717 346.251 252.145C345.03 251.127 343.916 249.14 343.719 247.355C343.65 246.768 343.606 246.2 343.58 245.679C343.556 245.145 343.91 245.472 343.938 245.429C344.405 244.752 343.635 244.478 343.571 244.273C343.188 243.022 343.476 242.02 343.348 240.851C343.315 240.528 342.969 240.767 342.936 240.703C342.614 240.032 343.257 240.523 343.32 240.097C343.501 238.908 343.505 237.594 343.534 236.399C343.545 235.959 343.105 236.427 343.12 236.031C343.207 233.683 343.582 231.263 344.243 229.09C344.369 228.681 344.625 229.006 344.713 228.934C345.323 228.442 344.847 227.436 344.831 227.218C344.754 226.241 345.115 225.955 345.275 225.149C346.044 221.19 347.978 216.629 349.647 213.315C350.58 211.439 351.51 209.8 352.44 208.225C353.564 206.333 354.601 204.37 355.655 202.095C355.772 201.843 355.273 201.913 355.369 201.693C356.642 198.832 358.148 196.103 359.535 193.2C359.649 192.964 359.121 193.115 359.293 192.728C359.644 191.93 360.188 190.966 360.728 190.252C360.99 189.905 361.008 190.574 361.266 190.223C361.867 189.402 362.428 188.478 362.902 187.551C363.104 187.155 362.413 187.524 362.704 187.025C364.681 183.627 366.826 180.302 369.769 177.471C369.973 177.276 370.762 177.609 371.012 177.059C370.864 176.879 370.655 176.709 370.479 176.538C372.793 173.62 375.482 170.994 378.44 168.662C380.076 167.374 381.754 166.139 383.473 164.936C383.672 164.796 383.076 164.684 383.462 164.412C385.694 162.844 387.93 161.279 390.616 160.295C390.884 160.197 391.13 160.935 391.79 160.45C391.903 160.362 392.957 159.701 393.174 159.411C393.202 159.369 392.836 159.15 393.196 158.96C395.276 157.873 397.593 156.98 399.922 156.426C400.292 156.34 400.033 156.83 400.295 156.773C402.181 156.358 404.142 155.54 406.089 155.57C407.384 155.605 407.019 156.333 407.732 156.902C407.843 156.978 408.592 156.933 408.66 157.313C408.797 158.258 408.532 159.316 408.723 160.32C408.796 160.529 409.441 160.284 409.071 160.817C409.052 160.848 408.523 161.053 408.399 161.248C408.316 161.38 408.521 161.747 408.346 161.923C408.171 162.1 407.914 161.805 407.612 162.036C407.298 162.275 407.524 162.677 406.874 162.845ZM439.893 212.342C439.226 212.672 440.283 213.511 440.413 212.744C440.418 212.706 439.926 212.324 439.893 212.342ZM433.34 152.927C434.05 153.647 434.767 152.886 434.261 152.334C433.755 151.783 433.123 152.708 433.34 152.927ZM424.747 152.158C425.659 152.732 426.033 150.854 424.948 151.119C424.884 151.134 424.693 152.125 424.747 152.158ZM404.846 157.571C404.857 157.586 405.386 157.492 405.391 157.474C405.587 156.996 404.523 157.184 404.846 157.571ZM416.177 152.086C416.474 152.341 417.356 152.056 416.984 151.73C416.676 151.464 415.799 151.766 416.177 152.086ZM414.863 234.09C414.844 234.08 414.533 234.278 414.604 234.366C414.836 234.65 415.195 234.269 414.863 234.09ZM403.582 158.751C405.206 157.339 407.209 157.683 405.387 159.084C405.057 159.341 405.711 158.109 405.224 158.359C404.325 158.828 404.532 159.99 403.445 160.29C403.247 160.343 403.483 158.831 403.583 158.747C403.582 158.748 403.582 158.75 403.582 158.751ZM438.346 211.743C438.324 211.744 438.025 212.151 438.033 212.17C438.229 212.64 438.836 211.815 438.346 211.743ZM395.783 243.387C395.744 243.363 394.637 243.726 394.614 243.769C394.269 244.636 396.529 243.899 395.783 243.387ZM452.873 181.179C452.611 180.541 452.72 179.925 453.345 179.635C453.191 180.148 453.048 180.668 452.873 181.179Z" fill="#746161" fill-opacity="0.75"/>
</svg>
