<svg width="316" height="194" viewBox="0 0 316 194" fill="none" xmlns="http://www.w3.org/2000/svg">
<path d="M100.545 81.8951C97.7594 83.0815 93.3536 83.8457 89.7297 84.329C88.6004 84.4793 88.7405 83.2409 87.9301 83.3072C86.3434 83.4427 85.1999 84.4811 83.5773 84.5895C83.0336 84.6225 82.9548 82.748 82.4006 82.8202C79.3458 83.241 76.8959 84.8167 73.9511 85.7802C68.362 87.6122 62.8685 89.8461 57.4785 92.3453C50.4589 95.4132 45.5792 100.069 40.0509 107.989C39.4645 108.814 38.804 109.673 38.0965 110.567C35.6281 113.514 32.9832 116.984 32.468 120.567C32.3953 121.083 33.9666 121.241 34.0601 121.371C35.5252 123.311 32.6621 121.973 32.0057 122.849C29.4295 126.282 28.9026 131.052 29.7879 135.044C30.1719 136.746 33.0977 134.784 31.5283 136.627C31.4243 136.761 29.7446 136.474 29.618 136.975C29.326 138.108 29.918 140.197 29.9449 141.109C29.9725 142.565 30.0375 143.028 30.2288 144.1C30.2524 144.236 30.2814 144.386 30.318 144.554C30.5665 145.846 30.4857 147.611 31.7467 148.578C32.0065 148.762 33.0682 147.406 33.5602 147.543C34.0247 147.67 34.7872 148.58 34.9484 149.19C35.0814 149.794 34.1359 150.735 34.0252 151.033C33.1917 153.641 36.9646 151.756 37.1685 151.738C41.9999 152.599 46.2016 155.781 51.9242 157.014C55.9373 157.866 60.5061 158.062 64.9068 159.004C65.1929 159.065 65.4828 159.13 65.7756 159.197C70.4701 160.274 74.6602 161.802 79.6168 162.28C80.1399 162.331 79.7776 160.289 80.4137 160.346C87.1834 160.954 93.9457 161.813 100.676 163.668C101.355 163.856 100.335 165.523 101.007 165.814C101.221 165.904 101.44 166.001 101.663 166.101C105.662 167.95 111.81 170.854 114.038 163.635C116.734 163.926 119.996 164.098 122.567 165.445C124.231 166.309 122.817 168.317 124.738 167.355C125.167 167.139 124.453 165.534 125.103 165.334C127.834 164.493 130.973 164.686 133.658 163.482C134.209 163.233 133.862 161.778 133.988 161.492C134.55 160.266 135.561 160.596 136.492 161.203C137.304 161.748 138.065 162.513 138.309 162.602C142.346 163.994 145.008 162.811 148.529 162.292C149.351 162.17 148.064 160.356 148.839 160.169C152.858 159.225 157.087 158.664 161.226 158.808C162.148 158.845 161.64 160.668 162.097 160.77C164.112 161.201 163.936 157.965 165.85 158.309C166.254 158.377 166.313 159.849 166.412 159.993C167.962 162.254 168.23 158.578 168.489 158.448C171.774 156.715 174.744 159.906 178.018 158.685C178.408 158.535 177.12 156.923 178.238 156.612C181.646 155.655 185.186 154.855 188.734 154.217C192.918 153.465 197.153 152.922 201.304 152.606C202.504 152.51 202.061 154.069 202.177 154.214C204.061 156.459 203.859 152.802 204.187 152.568C206.813 150.813 210.426 152.841 211.093 148.164C215.042 147.399 218.835 146.177 222.585 144.794C230.708 141.873 237.207 138.004 245.78 134.971C245.936 134.913 246.73 136.509 247.039 136.386C250.594 134.958 248.767 133.278 248.601 129.512C248.587 129.317 248.577 129.116 248.574 128.909C248.552 127.875 252.552 129.874 252.882 129.989C254.055 130.452 255.16 132.915 255.459 132.948C257.9 133.127 252.265 126.553 254.092 125.066C254.159 125.03 254.922 126.464 255.178 126.46C255.97 126.456 256.049 125.572 256.865 125.611C258.745 125.705 261.831 128.613 261.91 125.352C261.913 124.933 258.44 121.442 260.218 120.243C260.932 119.77 263.747 117.255 264.757 116.802C265.766 116.352 266.249 118.025 266.351 118.028C269.883 117.742 269.631 119.105 272.75 120.5C275.863 121.883 270.732 116.59 270.632 115.588C270.535 114.585 273.249 114.505 274.038 114.61C274.822 114.721 275.002 115.901 275.571 115.853C279.329 115.504 274.166 112.223 274.141 110.688C274.103 108.463 275.956 108.676 277.856 108.934C278.993 109.157 280.19 109.332 280.899 108.911C281.389 108.618 280.187 108.07 280.435 107.645C281.377 105.999 283.467 106.161 283.484 103.472C283.516 102.998 281.676 99.868 284.276 100.189C284.657 100.227 285.588 101.329 286.274 100.762C287.299 99.9324 288.622 98.0121 288.762 96.5831C288.865 95.5357 286.359 95.655 287.49 94.815C287.995 94.4295 288.79 95.9023 289.642 95.1171C290.505 94.3338 291.421 91.7525 291.702 90.7542C291.994 89.7505 290.197 89.7517 290.116 89.6346C289.658 88.9577 289.454 86.8736 289.499 86.7119C291.146 80.6877 293.772 75.0203 295.187 68.9015C295.651 67.0177 295.635 64.93 295.068 62.8879C294.903 62.2965 293.195 62.9839 293.152 62.8965C292.059 61.0926 297.053 61.7924 298.27 59.8666C294.77 60.9028 295.237 59.8689 294.409 58.4972C294.004 57.8437 292.778 58.6549 292.621 58.6318C290.275 58.303 292.635 56.7334 293.09 56.33C294.779 54.8985 292.185 55.0374 293.276 54.0449C294.34 53.0231 296.715 53.37 296.05 51.889C294.682 52.0151 292.019 54.411 291.055 53.596C287.566 50.6456 285.618 42.3963 283.732 39.142C283.143 38.0906 282.635 37.2746 282.214 36.6067C281.403 35.3298 280.857 34.602 280.263 33.3552C278.586 30.0435 277.51 32.6992 275.257 32.0281C272.994 31.4583 277.904 27.5718 278.579 26.37C279.217 25.1444 278.019 25.9176 278.173 25.0824C278.312 24.2359 279.648 24.1803 279.012 23.2783C278.354 22.3296 274.601 22.5277 273.559 23.5374C271.317 25.6087 270.543 28.7734 269.205 26.6564C269.122 26.5311 270.345 25.3588 269.977 24.947C266.979 21.6925 262.664 19.9656 258.575 17.8061C258.008 17.5045 258.989 15.8755 258.655 15.6787C255.122 13.6659 255.786 16.9793 253.153 19.9231C254.083 16.7855 254.044 14.3806 252.829 13.0764C252.335 12.5639 251.642 12.2259 250.769 12.1117C248.899 11.8847 249.03 13.9011 247.818 15.214C247.469 15.6097 246.282 14.2067 246.033 15.1363C245.257 18.1755 246.329 21.5523 243.6 20.2335C243.475 20.1722 243.83 18.4977 243.397 18.4079C240.556 17.8511 240.42 21.0593 237.445 21.7067C236.5 21.9167 235.215 21.806 233.809 21.6093C231.761 21.3103 229.465 20.8397 227.787 20.8922C227.131 15.8376 224.615 17.3905 224.123 21.0312C222.31 21.1761 220.413 21.7047 218.598 21.5439C217.973 21.4904 218.097 19.9683 217.993 19.8254C216.375 17.582 216.221 21.0917 215.866 21.2967C211.954 23.3844 207.983 21.5995 204.637 25.0216C204.551 25.1114 204.859 26.9986 204.389 27.131C204.214 27.1801 203.934 26.9909 203.484 26.3869C203.37 26.2325 204.272 24.3423 202.398 24.6904C200.539 25.0318 196.529 24.1689 194.476 26.527C193.97 27.0946 193.336 30.3064 191.416 28.5816C191.157 28.3468 191.016 27.3241 190.599 26.8678C189.251 25.4221 189.992 28.9468 188.095 26.3898C186.201 23.8329 183.459 22.3861 181.633 25.3287C181.572 25.4173 181.985 28.2937 181.18 28.5602C179.89 28.9838 177.874 29.1588 176.567 29.7206C175.943 29.9895 177.019 31.449 176.923 31.5237C175.161 32.7478 173.456 33.3822 171.657 33.8455C169.564 34.3842 167.332 34.6957 164.777 35.4513C163.901 35.7068 162.557 38.9592 160.185 37.9637C157.583 36.8771 155.743 28.2061 152.604 31.9286C151.337 33.4239 153.924 44.3107 148.643 40.501C143.628 44.3785 137.252 44.1247 132.423 48.4478C132.208 48.64 132.626 51.7977 132.006 52.0217C131.377 52.2449 130.682 51.8053 130.095 51.5598C130.09 51.5622 130.075 51.5675 130.071 51.5696C129.797 51.4471 129.544 51.3682 129.326 51.421C126.46 52.0757 124.431 54.1763 121.743 55.0141C120.719 55.3365 120.527 53.8252 119.322 54.2031C118.102 54.5884 118.024 56.7061 116.078 56.4504C114.609 56.2499 111.954 53.0096 110.19 53.1946C111.538 56.882 110.409 57.2318 108.823 58.9579C108.519 59.2913 109.419 60.4076 109.299 60.6319C108.812 61.5762 107.758 60.7706 107.331 61.7591C107.229 61.996 107.707 63.2485 107.653 63.5123C107.213 65.8014 104.193 63.7446 103.682 63.3812C101.685 62.0229 101.734 63.8781 100.49 63.5264C99.2259 63.1837 100.319 61.6936 99.0079 61.7017C96.312 61.7132 93.3704 63.1374 90.9771 64.107C90.0254 64.5026 91.3858 65.8627 91.2662 65.9573C89.5543 67.1922 86.7031 66.4444 87.3638 70.1349C87.2937 70.0391 87.2253 69.946 87.1584 69.8556L87.1873 69.8399C81.7626 62.9941 86.7002 71.5122 83.1923 71.3658C82.9072 71.3512 80.5706 67.6624 81.0407 66.6751C81.5093 65.6893 83.3573 66.2138 83.9929 64.7169C84.0217 64.6504 84.0286 64.4401 84.021 64.1406C84.038 64.1324 84.0865 64.1036 84.1036 64.0958C84.1373 62.776 84.127 59.7392 84.2406 59.4644C85.3116 56.8146 88.2253 62.6672 88.4602 62.9492C91.0578 66.0098 91.2374 61.1508 91.6635 60.6446C93.5117 58.3603 95.8685 58.4035 97.4839 56.6911C98.5363 55.5824 97.1116 51.5588 98.1724 51.2817C101.734 50.348 105.044 55.4494 106.359 49.4051C106.653 48.1112 104.276 44.031 108.045 46.504C108.278 46.662 111.294 49.092 111.579 46.7071C111.614 46.4066 111.123 45.1394 111.253 44.9671C112.131 43.8357 113.304 44.5428 114.375 43.5724C115.45 42.6006 116.677 41.2962 118.287 41.1661C119.251 41.088 121.274 43.0184 121.921 43.4318C123.721 44.6482 123.934 41.4235 125.433 43.1601C126.943 44.8844 126.717 48.475 129.098 49.0749L129.036 49.1C129.057 49.1046 129.077 49.1088 129.097 49.1129C127.771 45.8399 126.495 42.444 125.196 39.1372C129.254 37.5207 133.704 36.7628 137.718 34.75C138.214 34.497 136.906 33.0094 137.416 32.6942C139.572 31.3714 142.141 31.6724 144.299 30.0766C145.965 28.8348 147.148 26.0684 148.881 24.7063C151.769 27.8197 154.082 25.237 156.36 24.6C157.155 24.3762 157.554 25.3803 158.229 25.4587C160.762 25.735 158.352 22.9104 158.669 22.1494C160.051 18.8927 163.573 26.1649 166.275 24.7518C166.354 24.7124 166.417 23.3194 166.482 21.9873C166.545 20.8408 166.609 19.7396 166.676 19.5754C167.607 17.2689 167.541 20.8343 168.674 20.6941C170.755 20.4382 172.428 20.8495 174.152 18.7876C174.647 18.183 175.221 15.0613 177.252 16.5032C177.516 16.6924 177.937 18.0561 178.101 18.082C181.015 18.4535 179.501 14.2522 180.419 12.3015C181.344 10.3494 184.611 12.489 185.337 13.1865C187.247 14.9723 184.753 14.4221 184.764 14.6604C184.904 17.4573 186.334 16.4695 187.622 16.2849C189.177 20.3882 190.75 19.6026 188.949 16.0806C188.747 15.6967 187.928 16.394 187.622 16.2849C187.326 11.8488 189.158 10.6781 192.405 13.9089C193.919 15.4306 193.613 17.7939 196.319 16.1936C197.552 15.4764 196.238 12.7044 197.227 11.5863C198.011 10.7032 199.048 10.3455 200.17 10.2161C202.284 9.97191 204.684 10.5439 206.458 9.85474C207.446 9.47196 206.093 8.07673 206.76 7.7594C208.536 6.91279 210.434 7.78641 212.183 6.79371C212.342 6.70168 211.591 5.08545 212.174 4.94872C216.599 3.88394 220.673 4.30335 225.379 3.65094C226.988 3.42776 229.429 2.62542 231.634 2.16733C232.529 1.97758 233.38 1.84334 234.092 1.82815C238.293 1.71413 243.879 3.85296 248.054 3.48668C250.806 3.26438 250.375 1.52559 251.755 0.478207C252.757 -0.261414 253.967 -0.0647024 255.037 0.535927C256.468 1.48323 257.648 3.52488 257.866 3.97785C257.866 3.99515 255.743 3.99775 256.664 5.08162C256.93 7.0202 257.837 3.98053 257.866 3.97785C258.084 4.41702 262.19 5.75804 263.139 5.70728C263.649 5.65957 263.827 4.00771 264.09 4.01521C270.349 4.2126 277.129 6.57684 282.434 11.1904C282.515 11.2867 281.326 12.6945 281.523 12.8981C284.188 15.7738 287.448 15.6532 290.781 17.0776C294.079 18.5053 295.508 20.9879 294.112 24.3541C294.889 25.0826 295.474 26.2024 295.885 27.404C296.214 28.621 296.363 29.9816 296.458 30.9705C296.62 32.746 299.733 30.989 299.871 31.0704C304.206 33.6249 303.941 37.0455 306.002 41.6308C306.992 43.8053 309.532 48.1049 310.848 50.7964C311.91 52.9027 311.518 54.5165 312.564 56.6168C312.703 56.9057 314.182 56.2424 314.264 56.3225C316.698 58.5903 312.604 58.0851 312.031 58.7401C309.877 61.1437 308.758 62.224 310.055 65.5283C310.357 66.1951 315.902 68.9141 315.974 70.8814C316.005 71.4688 315.902 71.847 315.741 72.1113C315.304 72.5569 314.275 72.3695 314.465 73.4822C314.485 73.6098 315.713 73.7774 315.512 74.6448C314.596 78.6773 313.016 82.9882 312.053 87.355C311.916 87.9542 314.013 87.6647 313.842 88.5458C313.032 92.6865 311.543 97.3093 309.034 101.14C308.414 102.068 307.392 100.92 306.926 100.987C304.118 101.367 306.578 104.646 306.469 105.034C304.402 113.345 297.89 117.762 292.01 124.863C291.94 124.957 291.87 125.054 291.8 125.153C291.584 125.467 292.031 130.209 288.903 128.568C288.687 128.465 285.536 126.743 286.23 129.204C286.275 129.356 288 130.154 286.869 130.91C285.737 131.668 284.852 133.979 282.191 133.758C281.351 133.689 278.1 132.05 278.512 135.232C278.555 135.444 280.406 141.844 276.945 139.287C276.376 138.865 273.645 135.376 273.492 138.475C273.465 139.073 274.667 139.354 274.242 140.517C273.591 142.304 271.155 142.786 270.804 145.617C270.746 146.116 271.436 149.43 269.015 148.44C268.638 148.283 268.009 146.893 267.388 147.175C266.087 147.763 264.954 148.642 263.771 149.56C262.375 150.644 260.956 151.775 259.15 152.376C258.009 152.757 257.088 150.474 255.75 150.642C254.411 150.814 252.09 151.668 251.613 153.287C251.12 154.917 254.432 157.311 252.889 158.67C246.849 163.998 238.234 166.223 231.255 168.109C230.376 168.35 229.497 168.606 228.62 168.882C227.485 169.238 228.88 170.189 227.235 170.8C221.193 173.1 210.85 177.534 204.786 176.101C199.963 174.968 204.825 171.868 201.377 171.793C199.728 171.755 199.126 176.47 198.774 176.701C197.251 177.741 195.799 178.034 194.359 178.173C192.643 178.336 190.968 178.273 189.237 178.995C188.585 179.268 189.641 180.873 189.079 181.086C187.157 181.831 184.903 181.495 183.042 182.035C182.209 182.281 182.646 183.591 181.84 183.65C179.922 183.804 178.149 183.575 176.083 182.674C175.895 182.592 176.677 180.698 175.289 180.908C173.041 181.253 170.047 180.537 167.725 182.301C167.038 182.829 167.574 185.918 165.544 184.089C165.118 183.706 164.887 179.925 163.558 183.469C163.34 184.059 160.878 188.951 158.809 186.435C158.268 185.773 156.684 182.919 155.852 183.55C155.739 183.647 156.52 185.223 155.782 185.513C153.178 186.506 150.331 186.783 147.614 187.731C146.889 187.988 148.264 189.541 147.174 189.867C145.192 190.461 142.807 190.713 140.51 190.768C139.314 190.798 138.158 190.774 137.083 190.723C135.921 190.662 136.529 189.132 136.426 188.986C134.794 186.615 134.424 190.129 133.992 190.381C131.351 191.897 129.018 190.503 126.419 191.145C125.694 191.317 126.343 192.915 126.209 193.073C124.79 194.618 125.703 191.588 124.716 191.334C121.959 190.608 118.934 190.882 116.157 191.137C115.137 191.233 116.318 193.122 115.393 193.184C110.055 193.574 104.559 193.159 99.7727 191.829C99.6338 191.789 99.4948 191.749 99.3559 191.708C98.4613 191.439 99.1436 190.018 98.9793 189.669C97.8605 187.233 95.7077 190.27 95.2399 190.536C93.1248 191.757 92.4571 190.395 90.6706 190.476C81.9102 190.886 71.3413 188.83 62.6745 186.658C61.4685 186.357 60.2779 186.036 59.0857 185.688C51.6798 183.323 43.7972 181.34 33.2274 178.04C32.4586 177.786 32.5708 179.903 31.8845 179.7C23.3941 177.05 11.7802 170.488 5.3713 156.997C4.87975 155.923 3.82153 158.247 2.9701 156.462C2.04115 154.481 1.30872 152.107 0.950423 149.754C0.821263 148.687 0.779213 147.535 0.869923 146.458C0.966003 145.311 2.77814 146.517 2.84673 145.378C3.01087 142.705 2.77396 139.797 2.29159 136.917C2.08534 135.674 0.30727 137.691 0.191279 136.042C-0.716604 124.78 1.52882 112.056 8.61675 102.991C9.09783 102.369 12.8401 103.451 12.877 101.775C11.9834 101.179 10.8675 100.602 9.88041 100.026C10.7489 98.2004 11.685 96.4775 12.7116 94.7843C17.9317 85.6253 28.3529 73.121 40.9062 66.4171C41.5032 66.0767 39.4406 64.9189 40.6029 64.2498C40.9181 64.0701 41.2347 63.8911 41.5531 63.7131C46.654 60.8577 51.5877 57.8046 57.8896 56.9251C58.54 56.8348 59.7987 60.2036 61.2228 58.9338C61.4682 58.7052 63.7872 57.1093 64.1335 56.1049C64.1754 55.9575 63.0211 54.6399 63.827 54.2253C68.5414 51.838 73.9021 50.0623 79.3824 49.2329C80.2736 49.1012 79.9712 51.0936 80.6049 51.0173C85.0255 50.4882 89.359 47.782 94.1458 48.4095C97.3288 48.8657 96.821 52.1228 98.8342 54.8438C99.1024 55.2259 100.851 55.0337 101.161 56.7799C101.929 61.155 101.887 66.0652 102.81 70.7143C103.017 71.707 104.439 70.4403 103.81 72.9902C103.767 73.1569 102.767 74.1154 102.618 74.9896C102.524 75.5895 103.129 77.3104 102.887 78.0984C102.654 78.8855 101.98 77.4745 101.5 78.4544C101.032 79.4482 101.738 81.3783 100.545 81.8951ZM297.136 39.0665C296.422 41.2131 301.955 38.2319 299.811 37.5712C299.701 37.5429 297.168 38.9568 297.136 39.0665ZM135.642 41.0747C138.439 42.8495 137.879 38.6254 135.831 37.2081C133.789 35.7897 134.795 40.536 135.642 41.0747ZM119.207 50.0829C121.985 51.3491 119.073 42.9254 117.603 45.4262C117.514 45.5696 119.044 50.0101 119.207 50.0829ZM92.4129 57.1151C92.454 57.1887 93.64 56.9736 93.6454 56.8892C93.8054 54.7922 91.3837 55.2344 92.4129 57.1151ZM102.461 58.9371C103.528 59.8124 104.805 57.8219 103.489 56.727C102.437 55.843 101.137 57.8459 102.461 58.9371ZM283.121 111.025C283.04 110.977 282.394 111.498 282.773 111.865C284.002 113.052 284.519 111.851 283.121 111.025ZM73.4783 72.3465C77.6465 70.9931 83.7975 76.0398 78.4485 77.6909C77.4989 77.9601 79.3868 74.676 77.9797 74.5958C75.527 74.3958 75.8159 79.2851 72.7015 77.7236C72.2246 77.4197 73.295 72.4054 73.4819 72.334C73.4807 72.3382 73.4795 72.3424 73.4783 72.3465ZM291.088 43.653C291.033 43.7192 291.531 44.7263 291.615 44.7087C293.653 44.2448 292.628 42.1754 291.088 43.653ZM244.379 138.062C244.233 137.955 242.041 139.235 242.058 139.41C242.721 142.895 247.287 140.237 244.379 138.062ZM227.725 20.764C226.824 22.9203 225.476 23.3673 224.128 21.0329C225.33 20.9755 226.521 20.8132 227.725 20.764Z" fill="#9E6868" fill-opacity="0.75"/>
<path d="M131.48 143.65C130.08 144.898 128.194 143.61 126.671 141.836C126.194 141.287 126.348 138.763 126.017 138.271C125.354 137.311 124.802 138.565 124.134 137.422C123.908 137.031 124.027 133.036 123.791 132.718C122.499 131.002 121.374 132.066 120.08 131.279C116.75 129.252 113.377 128.004 109.991 127.099C108.173 126.178 106.353 125.645 104.532 125.193C103.347 124.858 100.778 121.873 100.258 123.794C100.207 124.018 101.602 127.23 101.689 127.506C103.104 131.701 100.481 125.137 99.8749 124.376C97.5057 121.355 96.0875 121.745 96.2197 123.281C96.291 123.935 100.365 129.576 98.0263 126.446C97.8613 126.239 95.8202 123.131 95.5295 122.85C94.8588 122.227 94.9939 122.956 94.7503 122.775C94.2417 122.431 94.2346 122.488 94.1503 122.506C94.1004 122.501 93.8661 122.253 93.6775 121.978C93.3567 121.652 93.0274 121.387 93.4524 121.64C93.626 121.726 96.6254 124.08 97.2255 124.359C97.8344 124.63 97.8344 124.038 97.123 123.466C96.4144 122.896 93.7702 121.485 93.1809 121.133C88.0803 118.389 95.263 121.962 95.5418 121.825C97.284 122.06 97.1858 121.292 96.5158 120.877C95.8593 120.416 94.7041 120.273 94.7133 120.32C94.7379 120.406 96.2553 120.418 96.1672 120.821C96.021 121.279 94.4741 122.89 94.9962 123.075C95.0324 123.071 98.8986 120.806 98.9225 120.75C98.9426 120.654 98.9379 120.537 98.6953 120.137C94.7465 114.874 92.7694 114.937 92.0526 114.947C91.2934 115.14 91.3659 116.103 91.6103 117.534C91.6775 117.873 90.3889 121.596 90.4152 122.168C90.5162 125.578 91.7283 133.796 96.0251 117.182C96.9048 118.044 98.1072 118.977 98.5081 122.563C98.7662 124.872 97.3312 128.964 98.4973 127.321C98.7601 126.955 99.1993 123.219 99.5383 122.949C100.972 121.817 102.076 123.259 103.664 121.583C103.989 121.234 104.539 117.915 104.722 117.333C106.231 112.626 105.756 120.788 105.86 121.408C106.414 124.376 107.246 124.851 108.205 124.927C108.475 124.915 108.775 124.767 109.061 124.852C109.242 124.908 109.737 120.413 109.907 120.301C110.743 119.773 111.528 120.236 112.557 122.275C112.791 122.739 112.446 126.579 112.561 126.997C113.127 128.796 113.35 121.529 113.86 123.1C113.975 123.422 113.92 126.716 113.943 127.078C114.349 132.756 114.594 124.703 114.663 124.524C115.686 122.076 116.826 130.434 118.059 129.163C118.197 129.003 117.591 124.866 117.986 124.67C120.575 123.338 123.652 124.134 127.106 127.01C127.647 127.45 127.757 130.598 127.84 130.976C129.186 136.875 128.344 128.831 128.448 128.508C128.507 128.352 128.573 128.235 128.642 128.15C129.473 126.981 131.359 132.035 130.382 123.078C135.521 125.472 137.418 119.317 144.667 125.46C144.76 125.527 146.333 129.184 146.519 129.299C148.817 130.686 145.939 125.197 143.165 118.122C142.427 116.367 147.249 124.145 147.654 124.686C149.034 126.743 151.669 132.05 151.968 132.431C154.455 135.343 144.796 118.311 145.335 117.99C145.372 118.006 147.116 121.162 147.351 121.439C148.092 122.309 147.533 120.974 148.344 121.933C150.202 124.161 155.49 132.081 153.199 126.965C152.883 126.312 146.707 117.085 147.482 117.196C147.812 117.24 148.564 116.472 149.242 116.857C149.92 117.246 151.915 120.224 152.023 120.337C155.655 123.516 156.577 125.281 161.408 130.393C166.306 135.412 155.663 122.604 154.631 121.048C153.591 119.506 156.657 122.026 157.706 122.911C158.744 123.807 160.055 125.682 160.698 126.14C164.99 129.044 155.584 119.628 154.057 117.448C150.303 112.402 159.196 120.979 160.708 121.17C161.095 121.242 158.96 119.403 158.9 119.088C158.661 117.889 161.822 120.149 159.744 117.165C159.426 116.657 154.155 111.404 158.574 114.606C159.219 115.06 161.473 117.163 162.21 117.352C163.317 117.636 164.418 117.324 163.911 116.285C163.538 115.514 159.217 112.827 160.752 113.403C161.44 113.654 163.593 115.733 164.7 116.04C165.812 116.344 166.343 115.361 166.483 114.968C166.632 114.561 163.312 112.605 163.117 112.431C161.998 111.438 160.843 109.82 160.882 109.766C161.012 109.482 161.218 109.2 161.454 108.965C161.728 109.084 162.548 109.872 163.521 110.676C164.465 111.523 165.732 112.186 166.01 112.612C166.023 112.687 165.946 112.792 165.786 112.982C165.679 113.105 163.326 116.409 163.285 116.461C162.61 118.061 168.499 109.006 169.887 105.635C165.785 112.771 166.403 111.398 165.724 112.075C165.401 112.413 164.174 115.356 164.024 115.646C162.07 120.072 164.417 114.28 164.767 113.044C166.214 108.563 164.151 113.732 165.012 110.707C165.764 107.673 167.648 103.411 166.949 103.26C165.976 106.044 164.094 113.515 163.472 114.633C162.375 116.773 161.833 116.31 161.025 115.176C160.254 114.047 159.332 112.281 158.686 111.915C157.397 111.185 156.902 111.712 156.136 110.612C154.697 108.632 155.061 114.362 154.117 116.954C153.195 119.552 153.83 105.508 153.742 102.485C153.639 99.4632 153.438 102.57 153.276 100.908C153.11 99.2462 153.529 97.1959 153.101 96.5686C152.658 95.9406 151.462 101.312 151.342 104.473C151.063 111.167 151.582 118.187 150.546 115.727C150.485 115.581 150.647 111.884 150.413 111.512C148.539 108.685 146.555 108.56 144.564 106.11C144.288 105.767 144.384 101.65 144.221 101.405C142.512 98.8336 143.334 105.741 142.761 113.468C142.564 103.221 141.837 96.974 140.599 96.964C139.859 96.9544 140.172 101.421 139.83 104.592C139.727 105.548 139.08 102.5 139.076 104.607C139.06 111.494 139.877 119.168 138.494 116.158C138.433 116.015 138.445 112.245 138.246 112.025C137.742 111.465 137.459 112.213 137.224 113.391C136.951 115.236 136.874 118.135 136.426 118.706C135.901 119.429 134.227 115.221 133.241 114.698C131.033 103.385 130.295 106.248 132.024 114.014C131.434 113.831 131.065 114.411 130.246 113.537C129.96 113.241 128.942 110.063 128.801 109.73C126.447 104.568 128.88 111.916 128.928 112.224C128.896 113.825 128.167 113.366 127.496 113.291C126.857 113.199 126.27 113.522 127.519 116.141C127.585 116.347 132.232 122.86 128.67 118.226C128.397 117.928 126.521 114.785 125.961 114.852C125.503 114.823 121.638 112.519 123.818 115.646C124.028 115.925 124.831 116.785 125.547 117.524C126.949 118.427 128.44 118.487 125.845 116.712C125.263 116.341 123.248 115.24 122.126 114.629C120.317 113.697 121.165 114.249 121.76 114.525C122.34 114.836 122.66 114.846 119.381 113.812C112.859 111.47 107.068 113.251 111.854 115.478C111.993 115.592 118.408 115.757 118.331 115.95C118.267 116.201 117.896 116.57 117.625 116.997C117.384 117.36 117.234 117.778 117.371 118.03C117.514 118.285 121.016 116.377 121.101 116.384C122.189 116.041 121.835 116.141 121.659 117.054C121.449 117.918 121.373 119.392 121.943 120.476C122.053 120.688 122.903 119.543 123.476 118.925L123.076 118.813C123.563 118.178 123.921 118.048 123.907 120.144C123.98 124.895 120.166 144.146 123.715 139.855C125.393 138.132 127.375 113.421 128.385 126.27C131.009 123.104 134.243 129.383 136.373 124.423C136.474 124.202 135.634 117.323 135.881 117.373C136.269 117.457 137.099 120.59 137.425 120.741C138.821 121.452 139.258 118.503 140.437 118.633C140.891 118.673 141.624 121.94 142.202 121.973C142.791 121.996 141.865 117.679 143.157 119.506C144.131 120.901 147.477 129.281 148.646 129.99C145.801 121.579 146.362 121.583 146.39 119.077C146.391 118.592 145.154 115.754 145.097 115.376C144.827 113.778 145.995 116.074 145.647 114.351C145.563 113.937 144.472 111.107 144.336 110.611C143.117 106.296 146.32 112.356 146.931 113.387C149.163 117.343 147.869 113.607 148.947 115.074C150.051 116.528 150.35 118.822 151.26 119.599C152.118 120.318 152.824 120.494 153.434 120.434C153.483 120.427 153.607 120.331 153.656 120.321C154.408 120.195 155 119.722 155.603 119.44C156.032 119.217 153.61 115.957 153.622 115.845C153.756 114.559 157.107 117.461 152.632 110.736C165.765 126.932 151.82 108.832 155.149 111.455C155.415 111.669 162.193 118.835 162.731 120.292C163.24 121.771 160.658 119.911 161.454 122.137C161.691 122.629 166.177 130.79 166.297 131.384C167.57 135.82 159.346 123.576 158.882 122.916C153.701 115.875 158.133 124.82 158.144 125.609C158.292 126.858 158.102 127.486 157.814 127.897C157.662 127.928 157.276 128.228 157.122 128.25C156.625 128.909 155.889 128.902 155.844 130.48C155.796 132.088 159.516 140.991 158.816 140.966C156.413 140.905 151.146 128.507 153.423 140.1C153.886 142.576 157.763 152.4 153.557 145.077C153.265 144.625 149.868 137.762 150.728 142.52C150.833 143.122 151.759 146.053 151.729 146.333C151.503 148.153 150.306 145.957 149.85 147.31C149.385 148.665 148.836 150.628 147.625 149.859C146.887 149.404 144.828 144.009 144.27 142.699C142.671 138.926 143.33 145.558 141.868 140.866C140.471 136.135 139.68 128.679 138.126 125.752C139.639 133.593 141.124 141.655 142.575 149.554C139.64 149.834 136.46 147.678 133.5 148.255C133.123 148.334 133.833 152.588 133.415 152.784C131.602 153.589 129.9 150.589 127.93 151.791C126.406 152.738 124.36 157.203 122.276 158.164C121.955 148.968 119.112 151.749 117.103 150.494C116.78 150.287 116.74 149.621 116.752 148.89C116.105 148.53 113.811 148.34 113.218 147.897C113.296 147.114 113.45 146.268 113.291 145.771C112.135 142.166 110.128 150.037 108.907 150.91C103.032 154.174 110.997 137.809 107.771 136.077C107.79 136.176 98.8382 141.411 97.7408 141.123C92.0471 140.928 99.687 138.311 98.6478 136.081C96.8331 131.755 97.3438 128.313 93.0827 124.069C92.8988 123.878 92.5937 123.668 92.2213 123.426C90.1563 122.479 85.8495 119.983 89.7272 117.453C90.3218 117.084 93.5476 117.088 93.7236 116.839C96.7856 112.712 86.7969 112.115 83.9535 107.992C81.1538 103.641 90.0193 100.039 92.279 100.26C98.1434 100.147 93.4014 103.036 93.8897 103.385C99.0385 106.957 99.0511 103.774 100.739 101.995C109.466 106.654 110.095 104.792 102.508 100.204C101.625 99.7493 101.338 101.831 100.739 101.995C96.8985 98.5151 95.7718 95.1301 97.2696 93.0938C97.6922 92.3223 99.8841 92.8676 103.621 95.278C107.257 97.6798 110.187 101.717 110.503 98.9523C110.687 97.6966 105.927 92.7785 105.566 90.6547C104.954 85.6443 111.37 89.0075 112.774 87.1173C113.355 86.3837 110.814 83.5094 111.19 82.8765C112.249 81.1622 114.751 83.083 115.641 81.1503C115.728 80.9677 113.867 77.5021 114.345 77.2495C118.011 75.2642 121.948 76.7486 125.434 76.1031C127.122 75.7747 129.832 73.1942 131.589 73.4715C132.878 73.6545 134.291 74.7621 135.601 75.8846C136.688 77.435 137.774 78.9363 138.559 78.1068C139.454 77.1832 139.088 73.2799 139.382 70.5977C139.956 65.3982 141.738 74.5989 141.977 76.0256C141.984 76.0727 141.193 77.0266 141.71 79.0182C142.123 83.1934 141.968 76.0442 141.977 76.0256C142.134 76.9462 143.829 77.7755 144.141 77.0175C144.31 76.6029 144.089 72.8984 144.18 72.7523C146.354 69.362 148.791 68.361 151.386 70.0886C151.431 70.1634 151.374 74.313 151.479 74.4371C152.937 76.2803 153.921 71.2137 155.33 68.2285C156.742 65.2459 157.932 66.3022 158.404 73.4564C159.503 72.6084 160.877 75.8541 161.604 77.8349C162.325 79.8137 163.219 71.7892 163.326 71.6383C166.66 66.8467 167.968 71.6483 171.393 73.0945C173 73.7777 177.248 73.6839 180.451 74.0466C182.954 74.2995 183.558 76.6517 186.588 76.9933C187.005 77.0499 188.481 73.7468 188.656 73.6885C194.044 71.935 187.843 78.4708 187.557 80.1425C186.52 86.0319 185.414 88.8032 189.606 90.195C189.859 90.3064 190.13 90.4186 190.417 90.5336C191.463 90.6752 204.583 86.8367 207.174 90.2631C210.119 94.1939 205.272 94.3478 207.829 98.3478C208.014 98.7007 210.747 97.7885 211.351 100.775C213.953 115.105 208.402 125.383 205.435 131.788C204.982 132.708 209.546 133.588 208.903 135.019C208.402 136.11 207.867 137.143 207.292 138.128C206.597 139.645 204.942 141.433 202.297 142.139C201.502 142.346 199.208 140.21 198.38 139.78C193.406 137.133 199.268 142.844 199.247 143.127C199.38 149.373 191.367 147.399 190.41 153.222C190.416 153.512 194.726 161.414 188.978 156.54C188.577 156.234 182.859 151.11 185.705 155.547C185.876 155.83 188.897 158.416 187.856 158.782C186.826 159.141 187.181 162.25 183.405 159.716C182.199 158.93 176.888 153.415 179.498 159.025C179.764 159.363 185.971 171.798 179.95 164.436C178.965 163.219 173.449 154.862 175.125 159.917C175.437 160.904 177.106 162.483 177.229 164.07C177.38 166.54 174.698 165.052 175.702 169.639C175.909 170.435 178.284 176.922 174.946 172.871C174.43 172.232 173.03 169.183 172.448 169.078C169.743 168.522 168.78 171.521 165.854 170.333C164.851 169.902 162.914 164.839 161.672 163.812C160.428 162.788 158.615 162.055 158.91 164.606C159.169 167.173 163.234 174.825 162.359 175.924C158.408 180.739 151.803 177.496 147.044 177.894C146.331 177.953 147.634 180.813 146.605 181.117C143.975 181.904 140.326 184.046 136.876 183.31C135.605 182.926 134.361 181.963 133.253 180.024C130.474 175.1 132.533 170.794 130.709 168.881C129.842 167.967 130.266 178.012 130.095 178.351C128.589 181.761 126.752 177.494 125.114 179.015C124.767 179.331 125.506 183.342 125.199 183.566C124.148 184.369 122.796 182.658 121.709 183.062C121.216 183.253 121.506 186.343 121.016 186.134C119.828 185.667 118.722 184.414 117.468 181.548C117.362 181.286 117.905 177.407 117.066 177.291C115.672 177.114 113.975 174.27 112.243 177.203C111.724 178.085 111.523 185.177 110.489 180.245C110.263 179.212 110.946 170.725 109.289 178.013C109.108 179.235 105.869 188.981 105.095 182.473C104.895 180.764 104.828 173.756 104.031 174.763C103.912 174.924 103.859 178.754 103.211 179.05C101.233 179.889 99.2161 179.414 97.0468 179.689C96.9004 179.773 96.7493 179.879 96.5922 180.014C96.2852 180.285 95.8675 184.22 95.4402 184.502C94.2697 185.283 93.1526 184.048 92.2663 182.628C91.9415 182.097 92.8222 178.941 92.8578 178.586C93.4304 172.815 91.7098 180.429 91.464 180.846C89.9445 183.334 89.7846 179.58 88.5724 180.342C88.2363 180.541 87.7633 184.236 87.6451 184.551C86.4496 187.625 88.1195 181.142 87.8725 180.347C87.1769 178.097 85.8699 178.154 84.5449 178.376C84.0524 178.462 83.7293 182.794 83.2876 182.82C80.6621 183.048 77.7154 182.014 74.6898 178.706C74.108 178.069 75.4597 175 75.5225 174.23C76.0867 168.879 72.4758 175.33 71.7862 175.825C68.9224 178.184 69.0588 175.118 66.7965 174.779C62.363 173.529 55.4594 173.2 44.0796 158.659C38.8609 150.747 38.4846 146.506 37.3168 141.267C35.4746 130.514 37.0429 120.953 39.0489 107.82C39.2021 106.968 34.6989 106.802 34.79 106.013C36.2296 95.5545 43.3351 86.7594 48.8005 79.362C48.835 79.3151 48.8696 79.2683 48.904 79.2215C49.4076 78.5596 45.5407 76.5305 46.2983 75.3293C47.8434 72.8433 50.3236 70.9781 52.8461 70.6751C54.0719 70.5215 55.2345 74.1882 56.3724 74.0196C58.9987 73.6661 60.9241 72.6735 62.2667 71.0015C62.8342 70.2846 59.3943 67.4047 60.3501 66.7331C66.7993 62.1297 73.2556 58.5278 81.1903 61.7214C81.7439 61.9394 84.7823 70.1015 85.069 68.2631C84.4125 65.9374 83.5671 63.2245 82.8307 60.7495C90.0946 57.2538 97.9548 57.9973 105.012 58.3946C105.821 58.4874 106.611 58.5514 107.412 58.5641C107.646 58.567 106.932 53.9927 107.385 53.9748C110.028 53.8656 112.566 52.4347 115.522 56.8759C115.817 57.3102 116.087 65.42 116.803 64.1567C116.933 63.9259 118.056 62.7905 118.297 61.0173C118.328 60.75 117.941 56.9762 118.325 56.8489C120.555 56.1759 122.995 56.955 125.338 59.2109C125.712 59.5824 125.426 63.6237 125.689 63.9235C127.571 66.0183 129.55 62.921 131.344 66.5713C132.54 69.0299 132.126 76.004 132.749 82.8641C132.828 83.8319 133.52 83.9844 133.551 87.9771C133.641 98.0167 133.334 109.01 133.47 119.711C133.491 122.016 134.349 119.534 133.844 125.104C133.798 125.476 133.204 127.325 133.067 129.215C132.969 130.522 133.154 134.582 132.959 136.255C132.771 137.926 132.547 134.523 132.23 136.489C131.931 138.48 132.086 143.098 131.48 143.65ZM164.687 86.7651C164.915 90.7171 167.235 76.6995 165.711 79.912C165.636 80.0843 164.671 86.5707 164.687 86.7651ZM135.198 136.973C133.547 130.857 133.762 140.085 134.999 144.828C136.351 149.55 135.755 138.818 135.198 136.973ZM143.935 130.608C141.705 126.09 146.499 145.66 146.756 141.378C146.774 141.134 144.071 130.868 143.935 130.608ZM130.027 84.8373C130.039 85.0257 130.528 85.2043 130.542 85.0173C130.763 80.5025 129.759 80.1487 130.027 84.8373ZM150.701 123.047C149.397 120.638 149.773 123.874 151.373 126.885C152.689 129.297 152.36 126.03 150.701 123.047ZM165.678 126.007C165.52 125.866 165.138 125.981 165.991 126.82C168.743 129.52 168.343 128.375 165.678 126.007ZM163.417 113.684C161.104 115.269 148.755 104.002 150.926 104.426C151.374 104.431 154.51 108.385 155.872 109.109C158.524 110.232 150.705 103.284 155.577 106.135C156.513 106.603 163.609 113.58 163.432 113.701C163.427 113.695 163.422 113.69 163.417 113.684ZM162.647 103.712C162.632 103.899 163.067 104.147 163.107 103.965C164.109 99.557 163.118 99.0363 162.647 103.712ZM145.285 129.44C145.098 129.087 144.084 129.11 144.195 129.461C146.482 136.502 148.824 136.357 145.285 129.44ZM133.167 114.399C133.732 118.916 133.717 119.469 132.027 114.02C132.431 114.228 132.775 114.194 133.167 114.399Z" fill="#9E6868" fill-opacity="0.75"/>
<path d="M171.265 89.1476C170.389 90.0219 171.324 89.0855 172.607 87.8007C173.006 87.4023 174.786 85.6222 175.141 85.267C175.833 84.5745 174.96 85.4473 175.784 84.6225C176.066 84.3405 178.887 81.5208 179.118 81.2896C180.364 80.0428 179.645 80.7606 180.244 80.1606C183.199 77.2006 184.256 76.1395 185.538 74.852C185.959 74.4299 188.517 71.8697 187.397 72.9879C187.264 73.121 184.788 75.5961 184.584 75.8001C181.46 78.9228 186.458 73.9262 187.122 73.2621C189.743 70.6401 189.97 70.4112 189.014 71.3656C188.599 71.7789 183.682 76.6954 186.442 73.9356C186.629 73.7492 189.258 71.1209 189.538 70.8405C190.169 70.2098 189.698 70.6792 189.906 70.4708C190.321 70.0558 190.294 70.0822 190.324 70.0519C190.387 69.9877 191.694 68.6807 191.098 69.2758C190.963 69.4106 188.268 72.1051 187.809 72.5635C187.351 73.0211 187.579 72.7922 188.214 72.157C188.85 71.5214 190.968 69.4037 191.453 68.9183C195.551 64.821 189.875 70.495 189.735 70.6352C187.342 73.0253 190.574 69.7918 190.564 69.8001C190.549 69.8131 189.481 70.8795 189.627 70.7324C189.811 70.5468 191.27 69.086 191.019 69.3362C190.995 69.3595 187.826 72.5275 187.791 72.5624C187.421 72.9299 187.766 72.5834 189.904 70.4436C190.121 70.2262 192.903 67.4449 193.287 67.0614C195.572 64.7749 201.064 59.2826 188.95 71.3924C189.423 70.919 189.911 70.4299 192.352 67.9883C193.923 66.4169 196.955 63.3871 195.661 64.6797C195.373 64.9677 192.719 67.6214 192.487 67.8526C191.515 68.8236 192.377 67.9605 191.005 69.3311C190.72 69.6161 188.342 71.9939 187.913 72.422C184.445 75.8893 190.178 70.1568 190.594 69.7402C193.701 66.6336 192.478 67.8554 192.553 67.779C192.572 67.7599 189.377 70.9539 189.28 71.0503C188.822 71.5073 189.096 71.2321 190.513 69.8143C190.836 69.4912 193.557 66.7708 193.85 66.4772C195.111 65.2158 189.972 70.3542 191.082 69.2437C191.309 69.0161 193.639 66.6872 193.895 66.4313C197.911 62.4159 192.22 68.1051 192.094 68.2306C190.377 69.9463 196.318 64.0066 195.476 64.847C195.369 64.9536 192.421 67.9006 192.302 68.0199C191.487 68.8322 192.295 68.0213 194.652 65.6629C195.014 65.3002 197.228 63.0866 197.501 62.8137C201.766 58.5495 196.051 64.2626 195.836 64.4777C194.286 66.026 199.078 61.2343 192.271 68.0389C194.631 65.6752 190.807 69.4944 196.903 63.3959C196.973 63.3253 199.788 60.5115 199.917 60.3827C201.496 58.8022 197.122 63.1754 191.772 68.5234C190.429 69.8663 196.887 63.4087 197.361 62.9353C199.105 61.191 203.293 57.005 203.63 56.6671C206.283 54.0143 192.436 67.8582 192.431 67.8623C192.454 67.8392 195.003 65.2911 195.256 65.0377C196.052 64.2422 195.039 65.2546 195.916 64.3774C197.946 62.3475 204.675 55.6205 200.758 59.5352C200.25 60.0432 192.395 67.8961 192.766 67.5248C192.92 67.3701 192.785 67.5041 193.294 66.995C193.802 66.4866 196.334 63.9561 196.443 63.8465C199.79 60.4998 201.177 59.1132 206.132 54.1589C211.069 49.2232 199.294 60.9947 197.98 62.3084C196.67 63.6184 199.431 60.8572 200.391 59.8974C201.351 58.9371 202.96 57.3292 203.503 56.7858C207.053 53.2353 197.658 62.6285 195.789 64.4966C191.364 68.92 200.096 60.19 200.951 59.3343C201.182 59.1032 199.193 61.0915 199.007 61.2773C198.297 61.9871 201.021 59.263 198.522 61.7601C198.115 62.1671 192.865 67.4153 196.718 63.5634C197.273 63.0079 199.449 60.8326 199.937 60.3451C200.668 59.6136 201.143 59.1377 200.415 59.8647C199.877 60.4025 196.292 63.9873 197.405 62.8735C197.903 62.3762 200 60.2794 200.76 59.52C201.519 58.7609 201.426 58.8525 201.353 58.9248C201.279 58.9986 198.56 61.7178 198.376 61.9009C197.327 62.9502 196.015 64.261 196.018 64.2577C195.685 64.5881 200.268 60.0035 198.749 61.519C198.634 61.634 195.766 64.5014 195.718 64.5485C194.516 65.7494 202.142 58.1263 204.694 55.5743C198.874 61.3929 199.928 60.3392 199.289 60.9771C198.977 61.2892 196.723 63.5422 196.493 63.7729C193.069 67.1947 197.49 62.7746 198.395 61.8703C201.722 58.5441 197.791 62.474 200.014 60.2507C202.221 58.044 205.494 54.7729 205.451 54.8146C203.368 56.8973 197.924 62.3406 197.041 63.2226C193.703 66.5586 197.973 62.2866 198.416 61.8424C198.859 61.3985 198.474 61.7826 199.227 61.0295C200.588 59.6678 196.548 63.7065 194.699 65.5546C192.85 67.4025 202.789 57.4663 204.926 55.3301C207.061 53.195 204.863 55.3928 206.037 54.219C207.21 53.0455 208.663 51.5933 209.104 51.1525C209.544 50.7121 205.744 54.5101 203.51 56.7435C198.777 61.4752 193.81 66.4416 195.555 64.6962C195.658 64.5927 198.272 61.98 198.536 61.7159C200.547 59.7037 200.671 59.5783 202.449 57.7985C202.698 57.5497 205.605 54.6432 205.783 54.4656C207.642 52.6058 202.74 57.5069 197.294 62.9508C204.541 55.7058 208.975 51.273 209.017 51.2297C209.045 51.2012 205.88 54.3655 203.649 56.5955C202.976 57.2678 205.15 55.0949 203.661 56.5829C198.795 61.4473 193.348 66.893 195.517 64.7242C195.62 64.6211 198.283 61.9584 198.445 61.7971C199.5 60.7411 194.41 65.8292 193.794 66.4449C193.309 66.9279 196.412 63.8245 196.917 63.3194C205.064 55.1738 203.198 57.0386 197.58 62.6547C197.81 62.4245 197.492 62.7416 198.268 61.9651C198.533 61.7003 200.892 59.342 201.147 59.0872C205.145 55.0896 199.679 60.5534 199.465 60.7676C197.382 62.8492 201.523 58.7073 197.474 62.7539C197.329 62.8996 191.669 68.5578 195.801 64.4262C196.086 64.1414 198.661 61.5673 198.86 61.3679C199.059 61.1681 202.093 58.1343 199.47 60.7557C198.838 61.3868 194.243 65.9799 197.833 62.3908C198.32 61.9035 199.944 60.2807 200.847 59.3776C203.725 56.5001 198.004 62.2191 202.864 57.3603C207.723 52.5018 211.363 48.8629 208.009 52.2145C207.912 52.312 203.378 56.8447 203.449 56.7729C203.567 56.6544 204.511 55.7098 204.482 55.7391C204.466 55.7547 201.65 58.5695 201.599 58.621C200.021 60.1975 202.53 57.6876 203.618 56.5978C203.824 56.3925 199.984 60.2303 203.019 57.1955C206.341 53.8733 220.164 40.0552 216.87 43.3466C215.552 44.6631 198.016 62.1939 207.101 53.1105C204.849 55.3602 209.498 50.7106 206.282 53.9233C206.14 54.0657 201.246 58.9583 201.312 58.8916C201.42 58.7831 203.708 56.4962 203.858 56.3455C204.547 55.6562 202.589 57.6123 202.893 57.3075C203.004 57.1967 205.369 54.8323 205.501 54.6999C205.631 54.5697 202.516 57.6833 204.02 56.1792C205.166 55.0327 211.532 48.6683 212.274 47.9262C205.994 54.2038 206.123 54.0743 204.466 55.7311C204.144 56.0525 201.958 58.2376 201.694 58.5023C200.567 59.6283 202.378 57.8174 201.152 59.0431C200.857 59.3375 198.713 61.4813 198.351 61.843C195.193 65 200.016 60.1773 200.856 59.3376C204.045 56.1486 201.256 58.9368 202.512 57.6809C203.768 56.4252 205.338 54.8558 206.1 54.0937C207.676 52.5174 207.329 52.8631 207.427 52.7641C207.453 52.7379 204.591 55.5997 204.528 55.6624C203.802 56.3879 206.846 53.3435 201.144 59.0436C215.887 44.3045 199.714 60.473 202.665 57.522C202.903 57.2833 209.875 50.3133 210.899 49.2902C211.921 48.2681 209.742 50.447 211.338 48.8522C211.713 48.4779 218.246 41.9469 218.642 41.5513C221.735 38.4596 211.316 48.8752 210.744 49.4473C204.569 55.6212 211.608 48.5853 212.094 48.0992C214.323 45.8719 212.858 47.337 214.449 45.7472C215.477 44.7197 222.301 37.8971 222.093 38.1061C221.403 38.797 211.883 48.3148 220.138 40.0629C221.899 38.303 229.357 30.846 223.493 36.71C223.123 37.0796 217.758 42.4441 221.152 39.0513C221.58 38.6235 223.754 36.4503 223.936 36.2678C225.118 35.0871 223.386 36.8186 224.216 35.9896C225.045 35.1606 226.282 33.9247 225.545 34.6621C225.104 35.103 221.054 39.1522 220.063 40.1436C217.207 42.9994 221.89 38.3176 218.431 41.7757C214.955 45.2513 209.676 50.529 207.43 52.7749C213.077 47.1288 218.874 41.3336 224.554 35.6554C224.356 35.855 222.53 37.6814 222.78 37.4327C222.817 37.3962 225.853 34.3608 225.971 34.2434C226.454 33.7616 224.29 35.9258 225.152 35.0645C225.831 34.3862 229.046 31.1728 229.856 30.3634C223.394 36.8244 225.588 34.6317 224.998 35.2224C224.794 35.4266 223.068 37.1521 222.505 37.7152C220.423 39.7975 226.134 34.088 227.033 33.1896C230.869 29.3554 217.943 42.2782 218.262 41.9594C218.275 41.9469 225.166 35.0588 225.595 34.6299C228.393 31.8329 223.196 37.0275 222.688 37.5366C221.758 38.467 220.112 40.1123 222.131 38.0951C222.729 37.4976 227.023 33.2043 223.702 36.5255C223.267 36.9604 220.989 39.2373 220.856 39.3706C218.633 41.5937 225.789 34.4395 228.213 32.0168C230.636 29.5946 225.697 34.5336 224.273 35.957C220.59 39.6394 222.699 37.5305 222.338 37.8919C218.036 42.192 218.777 41.4519 218.414 41.8154C211.397 48.8303 211.819 48.4095 218.065 42.1641C218.748 41.4819 218.093 42.1359 218.414 41.8154C225.298 34.9331 226.18 34.052 219.747 40.4839C216.732 43.4984 213.217 47.0129 214.503 45.7277C215.084 45.1475 219.915 40.3173 221.232 39.0007C224.238 35.9966 219.732 40.5028 220.442 39.7934C220.7 39.5358 223.345 36.8917 223.612 36.6246C224.33 35.9074 222.346 37.8914 223.363 36.8755C223.459 36.7801 226.227 34.0124 226.262 33.9772C226.584 33.6565 224.812 35.4298 224.763 35.4797C224.741 35.5025 226.269 33.9767 225.962 34.284C225.447 34.8002 221.422 38.8256 222.401 37.8484C223.027 37.2229 225.796 34.4546 227.683 32.5687C231.34 28.9129 224.79 35.4623 223.776 36.4764C223.742 36.51 223.089 37.1622 221.668 38.5834C218.706 41.5444 223.763 36.4892 223.776 36.4764C223.121 37.1315 222.493 37.7605 223.022 37.2315C223.311 36.9424 225.935 34.3196 226.036 34.2184C228.385 31.8721 229.052 31.2063 227.826 32.4335C227.773 32.4865 224.839 35.4202 224.751 35.5082C223.447 36.813 227.037 33.2245 229.168 31.0942C231.299 28.9648 230.586 29.6784 225.549 34.715C226.183 34.0812 223.956 36.3081 222.605 37.6594C221.254 39.0106 226.966 33.3 227.079 33.1871C230.694 29.5744 227.425 32.8435 226.917 33.3529C226.666 33.6049 227.495 32.7772 228.12 32.1531C228.623 31.6503 227.285 32.9888 228.141 32.1333C228.255 32.0191 230.799 29.4763 230.897 29.3785C233.94 26.3366 227.722 32.5524 226.612 33.6627C222.574 37.7 220.423 39.8503 222.323 37.9515C222.759 37.5166 231.711 28.5667 232.235 28.0435C232.899 27.3796 229.69 30.5876 230.468 29.8107C230.532 29.7472 232.511 27.768 232.424 27.8554C232.046 28.235 230.894 29.3874 231.093 29.1897C231.113 29.1702 234.253 26.0309 234.333 25.9511C234.706 25.5796 234.59 25.6965 233.121 27.1664C232.749 27.5381 230.551 29.7361 229.898 30.3887C225.948 34.3378 231.688 28.6004 231.797 28.4912C234.556 25.735 229.363 30.9283 231.837 28.4572C231.982 28.3121 238.135 22.1617 232.859 27.4371C232.508 27.7881 227.109 33.1854 230.801 29.4955C231.031 29.2646 233.811 26.486 233.528 26.7694C233.245 27.0522 235.101 25.1971 232.048 28.2502C231.086 29.212 225.701 34.596 229.994 30.3047C230.294 30.0051 240.001 20.3016 233.304 26.997C232.202 28.0991 225.115 35.1841 228.749 31.5519C229.453 30.8477 231.034 29.2672 232.021 28.2806C233.543 26.7599 231.645 28.6579 234.802 25.502C235.361 24.9433 240.171 20.1346 236.521 23.7848C235.949 24.3565 233.583 26.7218 233.318 26.9866C232.049 28.2568 233.632 26.6752 231.995 28.3122C231.42 28.8874 227.595 32.7112 226.571 33.7361C225.546 34.7607 224.561 35.7464 226.309 33.9992C228.058 32.2512 234.153 26.1567 234.641 25.6693C236.761 23.5525 233.186 27.1288 232.664 27.653C232.587 27.7313 234.768 25.5504 234.809 25.5092C234.973 25.348 237.02 23.305 232.385 27.9397C228.674 31.6518 225.846 34.4765 224.336 35.9874C223.616 36.7081 230.703 29.623 230.926 29.4C233.194 27.1348 230.054 30.2738 231.018 29.3114C231.218 29.1117 234.091 26.2398 234.229 26.1016C234.728 25.6039 233.446 26.886 233.681 26.6519C233.793 26.5402 235.986 24.3468 235.817 24.5163C235.438 24.8963 234.516 25.8186 232.46 27.8746C232.272 28.062 229.543 30.7902 229.442 30.8919C229.286 31.0488 227.258 33.0772 229.353 30.9833C229.983 30.3535 234.997 25.3406 231.535 28.8028C230.811 29.5259 224.791 35.5451 229.993 30.3445C230.858 29.4803 237.875 22.4657 233.352 26.9878C232.162 28.178 227.235 33.1038 228.01 32.3299C228.133 32.2064 230.826 29.5137 231.089 29.2512C231.969 28.3729 231.682 28.6606 232.526 27.8177C232.757 27.5873 235.543 24.8009 235.798 24.5464C236.503 23.8427 235.794 24.5527 234.922 25.4253C234.595 25.7523 232.287 28.0602 232.035 28.3114C227.949 32.397 233.465 26.8828 233.787 26.5613C235.713 24.6364 233.122 27.2271 233.808 26.542C233.991 26.3599 236.621 23.7305 236.855 23.4961C239.147 21.2056 234.424 25.9273 233.903 26.4479C232.429 27.9221 232.641 27.7113 232.978 27.3757C233.105 27.2485 236.154 24.1996 236.234 24.1208C236.76 23.5962 236.469 23.8887 234.788 25.5703C234.466 25.8924 232.118 28.2399 231.582 28.7762C227.83 32.5278 232.948 27.4111 233.436 26.9238C235.662 24.6985 233.586 26.7747 233.974 26.3874C235.905 24.4595 234.531 25.8362 233.683 26.6869C232.591 27.7819 230.358 30.0165 230.94 29.4382C230.974 29.4044 234.098 26.2812 234.167 26.212C234.921 25.4602 233.702 26.6817 234.605 25.7808C234.674 25.7124 237.635 22.7516 237.845 22.5423C238.296 22.0922 238.135 22.2536 237.19 23.1992C236.734 23.6549 234.193 26.1952 233.786 26.6019C232.834 27.5548 232.623 27.766 233.099 27.2917C233.307 27.0835 236.336 24.0552 236.371 24.0205C236.673 23.7214 237.196 23.2013 233.275 27.1238C233.006 27.3932 226.85 33.5474 228.031 32.3674C229.739 30.6595 231.749 28.6504 233.575 26.8249C234.56 25.8435 232.428 27.979 232.1 28.3108C232.087 28.3241 235.349 25.0632 235.34 25.0723C235.293 25.1215 236.197 24.219 232.956 27.4611C232.639 27.7781 226.901 33.5146 227.769 32.6473C227.928 32.489 228.694 31.7244 229.939 30.4792C230.127 30.2914 232.805 27.6137 232.884 27.5358C233.291 27.13 232.68 27.7422 231.045 29.3789C230.776 29.6482 227.923 32.4995 227.707 32.716C226.194 34.2303 228.362 32.0635 225.774 34.653C224.03 36.3966 219.1 41.3253 214.247 46.1772C213.563 46.8617 213.454 46.9704 210.631 49.7933C203.531 56.8915 195.756 64.6638 188.189 72.2298C186.559 73.8595 188.315 72.1046 184.375 76.0425C184.112 76.3061 182.804 77.6129 181.468 78.9488C180.544 79.8724 177.672 82.7432 176.489 83.9255C175.308 85.1067 177.715 82.7001 176.325 84.0892C174.918 85.4954 171.652 88.7613 171.265 89.1476ZM216.566 43.6991C213.823 46.4418 223.871 36.3973 221.467 38.8002C221.338 38.9283 216.701 43.5645 216.566 43.6991ZM214.952 45.2579C210.521 49.6886 217.037 43.1744 220.459 39.7526C223.878 36.3345 216.295 43.9148 214.952 45.2579ZM211.713 48.4894C208.22 51.9828 222.467 37.7393 219.586 40.6183C219.424 40.781 211.916 48.2865 211.713 48.4894ZM212.864 47.5577C212.731 47.6911 212.601 47.8213 212.733 47.6891C215.924 44.499 216.182 44.2409 212.864 47.5577ZM208.188 52.0078C206.261 53.9346 208.486 51.7107 210.882 49.3147C212.81 47.3871 210.585 49.6108 208.188 52.0078ZM205.855 54.4312C205.706 54.5809 205.571 54.7158 206.417 53.8697C209.143 51.1446 208.374 51.9136 205.855 54.4312ZM208.019 52.1665C207.483 52.7034 195.715 64.4698 197.042 63.1413C197.282 62.9009 200.795 59.3896 201.856 58.3286C203.789 56.3957 196.399 63.783 200.358 59.824C201.083 59.0993 208.075 52.1097 208.035 52.1501C208.03 52.1556 208.024 52.161 208.019 52.1665ZM204.499 55.7641C204.366 55.8969 204.24 56.023 204.372 55.8914C207.561 52.7026 207.817 52.4466 204.499 55.7641ZM199.651 60.6497C199.368 60.9328 199.103 61.1979 199.364 60.9371C204.58 55.7227 205.13 55.1712 199.651 60.6497ZM197.134 63.1021C193.925 66.31 193.547 66.6874 197.576 62.6588C197.362 62.8729 197.331 62.9046 197.134 63.1021Z" fill="#9E6868" fill-opacity="0.75"/>
<path d="M221.546 98.8852C220.947 100.619 217.72 101.067 214.754 100.902C213.824 100.855 212.703 98.5708 211.987 98.4553C210.566 98.2496 210.493 99.8179 208.965 99.4915C208.45 99.3744 206.441 95.9012 205.948 95.8584C203.232 95.6698 202.281 97.6895 200.154 98.3325C197.175 99.2413 194.405 100.398 191.907 101.682C192.506 100.203 192.82 98.479 192.524 97.7823C192.252 97.0749 191.588 97.3381 190.964 99.0195C191.106 95.9574 190.353 93.4624 189.697 92.2123C189.024 90.9192 188.493 90.6089 188.295 90.7157C188.112 90.8075 187.878 91.441 187.874 92.3089C186.777 91.9077 185.853 91.9951 185.675 92.2591C185.474 92.5127 185.941 92.8458 186.864 92.6979C187.196 92.6459 188.522 89.401 188.69 89.161C191.213 85.4567 188.086 91.7982 188.356 92.9371C188.826 94.7541 189.889 96.1845 191.228 97.2389C191.498 98.1571 192.247 98.1134 192.926 97.3607C193.406 96.8116 193.469 89.8459 193.524 93.7576C193.547 94.0224 193.282 97.7327 193.409 98.134C193.717 99.0424 194.481 98.3537 194.84 98.6126C195.566 99.1328 195.707 99.077 196.445 98.9979C197.437 98.9237 199.344 100.359 200.49 99.1016C200.718 98.8268 199.178 95.3214 199.393 94.5676C199.592 93.8243 200.816 93.7195 201.563 94.385C202.303 95.0577 203.252 97.9034 203.584 98.5101C206.477 103.599 204.955 95.4973 205.006 95.2479C205.595 93.9662 206.376 93.2108 207.313 92.728C210.26 91.2069 214.181 91.8262 217.113 90.135C220.168 88.362 222.609 85.1246 225.574 83.5048C229.123 81.5829 233.131 81.4186 236.369 78.8326C236.714 78.5624 233.803 75.1182 234.217 74.7824C235.814 73.4919 237.531 72.2682 239.59 71.1061C240.643 70.5129 241.765 69.9417 243.184 69.3104C244.714 68.6615 245.999 68.0234 249.888 66.8125C249.825 67.3484 249.928 68.0411 250.378 68.7524C250.563 68.9975 252.762 72.2607 253.158 72.6449C254.228 73.6387 256.405 74.8314 257.548 74.5105C258.663 74.2476 258.541 72.5935 254.164 69.899C252.791 69.5346 251.115 69.1375 249.096 68.6912C248.415 72.366 249.772 73.5011 252.998 72.1659C255.107 71.2806 259.446 71.1976 257.46 70.5239C257.014 70.3712 253.394 71.4042 253.01 71.1641C252.353 70.7549 252.069 70.1521 251.778 69.4234C252.116 71.174 253.012 72.5479 252.789 73.9709C252.708 74.4709 250.271 76.7845 249.93 77.3008C248.606 79.4463 249.748 79.3532 250.832 78.2969C251.958 77.2752 253.11 75.4204 253.25 75.163C254.923 71.6728 252.927 71.6217 251.315 71.2822C251.226 71.2819 251.128 71.2664 251.025 71.2207C250.847 71.1398 249.753 75.5267 249.613 75.6283C248.993 76.1086 247.463 75.4735 245.182 73.4761C244.666 73.0199 245.137 69.1711 244.874 68.7568C243.604 66.986 243.555 74.2611 242.354 72.7459C242.09 72.4376 242.053 69.1409 241.987 68.782C240.891 63.1534 240.708 71.2349 240.555 71.4245C238.353 74.0274 235.782 65.8614 233.209 67.3775C232.909 67.5672 234.143 71.6126 233.276 71.8926C231.183 72.5789 228.936 73.0103 226.553 73.1602C224.102 73.1891 221.671 72.6004 218.391 71.8238C217.591 71.6474 216.593 68.6478 216.395 68.3148C212.94 63.2996 216.22 70.7217 216.231 71.0649C215.965 73.7056 210.472 69.3033 215.334 77.7129C214.381 77.9279 213.466 78.3276 212.554 78.8817C211.393 78.4616 211.088 81.7624 208.58 86.5301C207.818 86.5438 206.471 86.7677 204.988 88.3737C204.919 88.4681 201.185 89.8521 201.079 90.0735C199.956 92.9786 205.537 90.0098 211.952 86.0135C213.431 84.838 206.799 91.1496 206.472 91.7837C204.88 93.7023 200.226 97.383 199.963 97.8041C198.528 100.802 207.759 92.0559 211.287 89.0534C211.821 88.1894 211.994 87.5191 211.753 87.333C211.709 87.3397 209.621 90.2815 209.33 90.5098C208.902 90.8895 208.897 90.7937 208.877 90.7056C208.862 90.621 208.832 90.5486 208.513 91.0807C206.871 93.4799 204.173 102.741 207.099 97.8133C207.396 97.1483 210.212 86.4059 210.083 86.9091C210.084 87.0583 210.289 87.0479 210.406 87.2145C210.228 87.3024 210.082 87.458 210.038 87.7078C209.929 88.4498 210.656 91.9606 210.634 92.1205C212.01 96.6555 212.387 98.6294 215.756 104.861C219.879 110.724 212.768 95.6233 212.034 93.9231C211.234 92.2644 213.682 95.345 214.842 96.1626C215.898 97.0603 217.002 99.0869 217.727 99.4917C221.983 101.258 215.862 95.672 212.705 92.4368C212 91.7328 211.416 91.1569 211.068 90.8329C208.726 88.7461 209.676 90.0289 211.907 91.1134C214.085 92.2699 217.385 93.3092 218.207 92.9157C218.645 92.714 215.94 91.8989 215.794 91.557C215.185 90.3538 219.143 90.5157 215.954 88.3975C215.451 87.9486 208.228 86.1272 213.7 86.0431C214.491 86.0037 217.528 86.6178 218.264 86.0835C219.375 85.2925 220.097 83.5321 219.038 82.5302C218.257 81.8101 213.215 82.7789 214.759 81.8691C215.444 81.444 218.442 82.0773 219.478 81.2353C220.521 80.3818 220.196 78.2674 219.98 77.4911C219.77 76.7096 216.019 77.6751 215.753 77.6427C214.237 77.471 212.192 76.4534 212.174 76.3472C212.169 76.3315 212.165 76.3158 212.161 76.3001C212.245 77.2657 212.934 78.4951 213.605 78.995C214.277 79.5283 214.753 79.4583 214.842 79.1639C215.025 78.5333 214.041 77.2729 212.535 76.2205C211.179 74.7209 208.77 74.0076 207.727 75.346C207.59 75.5607 209 79.3673 208.992 79.4399C209.869 80.9413 205.979 70.7916 203.285 68.1458C204.64 70.2651 205.386 71.6918 205.978 72.5552C206.271 72.9876 206.521 73.2835 206.806 73.4268C206.96 73.4882 207.105 73.528 207.33 73.4605C207.444 73.4251 207.571 73.3675 207.719 73.272C207.893 73.1474 208.1 72.9716 208.351 72.6771C208.436 72.8466 208.423 73.0283 208.612 72.8789C208.637 72.8563 208.667 72.8256 208.703 72.7826C208.754 72.711 208.825 72.6035 208.918 72.4267C208.965 72.3374 209.019 72.2293 209.08 72.0888C209.11 72.0184 209.142 71.9398 209.176 71.8499C209.216 71.7352 209.223 71.752 209.33 71.3724C209.437 70.7322 209.93 69.7573 209.165 67.2612C208.75 66.0399 207.74 64.523 206.169 63.5915C204.641 62.6745 203.181 62.5474 202.255 62.5824C201.303 62.6255 200.722 62.8009 200.288 62.9394C200.073 63.0112 199.897 63.0805 199.746 63.1446C199.664 63.1793 199.613 63.2026 199.59 63.2122C199.56 63.2251 199.532 63.2378 199.504 63.2503C199.283 63.3499 199.12 63.4335 198.987 63.504C198.724 63.6446 198.572 63.7354 198.459 63.7971C198.309 63.8663 198.222 63.89 198.158 63.8862C197.837 63.578 195.684 61.2311 195.453 61.0001C192.168 57.4517 197.114 61.3169 198.156 62.0733C201.995 64.8528 198.309 60.6337 200.913 62.4311C203.544 64.1613 206.366 67.9709 207.195 66.9215C205.182 64.7426 198.763 60.4039 198.386 58.9236C197.777 56.6973 198.738 55.2663 200.101 54.277C200.78 53.7878 201.56 53.4035 202.244 53.1799C202.928 53.0006 203.506 52.7755 203.683 53.667C203.54 54.3328 203.412 55.2145 203.496 56.3479C203.58 57.7174 204.101 59.5406 205.212 61.0355C207.735 64.2154 209.979 64.2851 210.797 64.4817C211.266 64.5466 211.649 64.5553 211.916 64.5459C212.152 64.535 212.341 64.5122 212.497 64.4864C212.828 64.4319 212.938 64.3758 213.06 64.3243C213.441 64.1186 213.255 64.0264 213.15 63.997C211.157 63.9385 210.012 64.9926 208.141 64.5557C204.518 63.8812 207.642 68.8035 206.724 71.9562C205.776 75.1187 201.674 61.64 200.329 58.9199C198.996 56.1965 199.816 59.2105 198.9 57.7825C197.993 56.3515 197.952 54.1703 196.984 53.8707C196.018 53.5728 195.837 59.374 196.653 62.4383C198.384 68.9316 201.775 75.1737 198.816 73.624C198.645 73.5301 197.778 69.9138 197.191 69.729C196.253 69.4514 195.346 69.2768 194.453 69.1659C190.281 68.99 186.455 68.9135 183.194 66.9059C182.642 66.5527 183.145 62.4435 182.852 62.1905C179.976 59.4828 180.765 66.4247 178.33 73.9826C179.43 63.7977 179.259 57.4617 176.458 57.2304C174.609 57.1286 174.628 61.6414 174.203 64.8536C174.16 65.3346 173.88 64.857 173.519 64.5696C173.179 64.2668 172.726 64.2303 173.245 65.0662C173.257 65.0871 173.271 65.1085 173.284 65.1304C175.265 67.9424 177.814 70.591 179.773 72.0353C180.79 72.7152 181.906 72.885 182.835 72.2521C183.759 71.6571 184.295 70.2408 183.729 69.3177C183.609 69.2059 179.924 68.4034 179.751 68.1688C179.343 67.8445 179.655 68.231 180.413 68.4925C181.161 68.793 182.306 69.1001 183.383 69.5939C184.66 69.7174 186.104 69.6169 185.948 67.4785C185.977 65.5961 182.735 62.171 180.878 62.2738C179.685 62.9317 179.217 64.6435 179.498 65.0995C177.257 76.4608 180.523 74.1053 180.398 66.0831C181.05 66.3823 181.664 65.8219 182.559 66.6776C182.879 66.9643 183.849 70.1574 183.989 70.4907C186.721 75.5206 184.24 68.1365 184.004 67.907C183.988 67.7785 183.969 67.6667 183.944 67.5736C183.149 67.9235 181.818 68.7195 180.918 70.7651C179.967 72.8312 180.456 75.5137 181.142 76.6965C182.558 79.1175 183.331 79.1041 183.719 79.3709C184.122 79.5368 184.254 79.488 184.303 79.4208C184.348 79.3483 184.292 79.235 184.192 79.1323C183.758 78.7068 182.666 78.4763 181.771 80.0692C181.541 80.4551 181.303 80.9474 181.092 81.5654C180.989 81.7844 181.774 89.7432 180.414 84.0232C180.296 83.6328 180.805 79.8971 179.422 79.7904C178.102 79.6688 174.488 75.958 173.298 80.0514C172.985 81.0391 173.467 87.6062 171.262 82.9445C170.959 82.3123 170.503 80.0581 169.982 78.8756C168.273 75.1233 170.156 82.9952 167.522 76.6054C164.899 70.2131 161.492 65.8589 160.796 71.1288C160.763 71.2867 162.398 77.5068 161.736 77.6426C160.658 77.8591 158.704 77.1919 157.64 77.6883C157.137 77.9256 159.024 81.45 158.964 81.5544C157.388 83.8344 155.319 83.6598 152.793 83.4949C151.471 83.4304 150.095 83.3275 148.654 83.5474C147.853 83.6662 148.868 89.3579 145.457 86.4222C141.658 83.2579 132.747 65.7401 131.771 71.9133C131.227 74.505 143.93 95.8347 134.348 86.9336C132.183 92.4775 124.099 90.71 123.53 97.816C123.504 98.1319 128.022 103.423 127.639 103.701C127.031 104.135 124.344 102.29 123.807 102.581C121.499 103.758 122.376 107.142 120.922 108.657C120.368 109.269 117.638 107.292 116.933 108.192C116.47 108.805 117.973 110.261 118.42 110.973C118.614 111.38 118.517 111.708 117.74 111.972C115.944 112.474 106.814 112.085 105.529 114.126C114.352 115.172 114.019 116.279 116.363 118.049C116.82 118.373 119.908 118.007 120.283 118.147C121.88 118.626 119.347 119.24 121.118 119.614C121.543 119.697 124.563 119.42 125.079 119.444C129.556 119.477 122.989 121.363 121.931 122.034C117.79 124.042 121.717 123.359 120.288 124.53C118.976 125.939 116.41 125.675 115.918 127.166C115.761 127.774 115.743 128.413 115.951 129.12C116.142 129.492 117.03 130.028 117.386 130.247C119.227 132.18 121.766 132.298 123.613 132.629C124.531 132.768 124.327 128.673 124.47 128.599C126.203 127.758 127.925 132.115 128.958 124.063C130.008 144.913 129.984 122.07 132.298 126.165C132.483 126.495 133.214 136.333 132.424 137.812C131.612 139.289 130.3 136.235 129.109 138.48C128.885 139.014 126.886 148.207 126.529 148.746C124.127 153.014 124.85 138.267 124.862 137.462C124.607 128.697 121.659 138.349 120.73 138.884C118.333 140.721 116.282 139.893 113.67 139.227C112.289 138.381 108.849 136.302 108.109 134.86C106.875 133.416 106.082 132.447 104.976 131.639C102.697 130.024 93.4904 132.813 93.1182 130.531C92.3231 122.933 105.889 121.381 94.23 116.328C91.8133 115.166 81.1164 115.492 89.8347 111.734C90.3931 111.366 98.2866 109.74 93.9925 107.125C93.4519 106.775 90.4559 106.086 90.2783 105.716C89.6651 104.394 90.214 103.537 90.7669 102.674C91.7401 100.315 92.5843 99.0038 92.7508 97.3852C93.1252 93.9082 93.0935 90.718 95.2821 89.3628C96.6078 88.5311 102.143 90.697 103.574 91.138C107.64 92.4672 103.514 87.0735 107.814 89.5726C112.062 92.1748 116.791 98.1091 120.393 98.8153C114.46 93.4692 108.457 87.8859 102.575 82.4156C106.408 78.5733 111.694 77.1788 115.081 73.8775C115.507 73.4551 112.287 70.5488 112.682 70.0054C114.401 67.7013 118.116 68.6931 119.602 66.0955C120.757 64.0631 120.083 58.9958 121.39 56.7623C127.561 63.6306 128.537 59.3323 130.985 58.8539C131.828 58.6883 133.023 60.8183 133.913 61.2191C137.209 62.7116 132.328 56.2096 132.217 54.8077C131.904 49.673 138.435 60.458 141.715 62.7172C142.318 63.0917 142.826 63.2106 143.202 62.9414C143.293 62.8677 140.806 53.2156 140.865 52.5191C140.904 48.1141 142.619 55.4358 143.981 55.5893C146.47 55.8863 148.622 57.4824 149.784 53.9374C150.089 52.902 149.598 46.5788 152.537 50.515C152.916 51.0321 153.913 54.096 154.109 54.2258C157.533 56.3498 154.34 46.7643 154.831 43.0034C155.361 39.2333 159.74 45.2436 160.691 47.0747C163.264 51.7678 160.382 49.469 160.456 49.9839C161.408 56.0399 162.671 54.5806 163.979 54.7679C166.71 64.3048 168.039 63.3526 165.325 54.928C165.018 54.0097 164.334 55.1413 163.979 54.7679C162.483 45.0905 164.453 43.3064 168.492 51.7471C170.353 55.7181 170.438 60.7492 172.884 58.4368C174.027 57.4011 172.362 50.7543 173.342 48.7092C174.655 46.0713 176.907 46.7689 179.289 47.7245C181.349 48.4457 183.424 49.3348 185.86 49.0609C188.02 48.8745 186.177 44.9544 187.879 44.7426C190.297 44.5493 192.825 45.2481 197.287 47.4569C199.592 48.7883 202.466 49.7811 207.581 55.2571C209.973 58.0725 213.782 63.0463 214.463 71.7138C215.267 80.4986 210.435 89.3153 206.358 93.1162C204.946 94.5065 206.571 94.3318 207.471 94.8339C207.912 95.0866 208.156 95.5538 207.622 96.5333C207.083 97.5023 205.757 98.9878 203.396 100.454C203.362 100.48 203.326 100.505 203.288 100.529C191.022 107.335 184.298 105.351 172.845 103.91C169.183 103.312 162.541 102.446 156.763 99.2C152.734 96.9454 148.055 92.4567 145.623 87.8846C140.862 79.3172 141.737 71.1741 142.702 68.2992C143.48 67.3426 144.206 65.1429 145.566 61.3377C147 57.9059 149.075 50.0095 158.414 43.4428C163.047 40.3915 166.504 39.5809 168.774 38.8913C173.966 37.5721 174.204 36.7162 175.061 35.2102C175.719 33.7864 176.053 32.1411 177.069 30.8397C181.324 25.8672 181.861 35.2803 182.023 36.7053C182.074 36.7584 180.916 37.6004 181.361 39.6477C181.426 43.8508 182.018 36.723 182.023 36.7053C182.065 37.1724 182.505 37.6536 182.819 37.9056C183.146 38.1591 183.363 38.188 183.408 37.8122C183.456 37.4014 183.288 33.6953 183.294 33.5519C183.325 31.4285 181.974 30.4002 180.927 30.6615C182.135 30.165 183.475 29.9746 184.975 30.0971C185.063 30.1447 186.408 34.0712 186.597 34.134C189.316 35.0937 188.855 29.8347 189.567 26.3338C190.263 22.8391 192.224 23.1639 195.997 29.3555C197.353 27.9088 200.702 29.9281 204.83 30.8195C206.998 31.2983 208.722 29.2284 212.981 27.4749C214.92 26.5998 217.843 26.0093 220.058 25.8204C222.877 25.7629 225.348 26.1971 227.291 27.153C232.521 29.1533 241.857 38.2598 243.868 46.9227C246.308 56.384 245.047 60.2259 244.368 64.1138C243.747 70.1518 242.987 72.1751 242.208 74.1356C241.417 75.9611 240.491 77.1328 239.517 78.0613C237.551 79.9245 235.316 80.8978 233.533 82.6434C231.71 84.428 229.911 88.4152 228.245 91.431C227.625 92.4771 227.088 92.9076 224.892 94.6114C224.603 94.832 224.116 95.2166 223.562 95.626C223.277 95.837 222.957 96.0704 222.576 96.338C222.021 96.7324 221.268 97.2599 220.174 97.925C219.62 98.2605 218.969 98.6384 218.134 99.0727C217.716 99.2898 217.251 99.521 216.72 99.7669C216.654 99.7976 216.586 99.8286 216.518 99.8598C216.461 99.8858 216.235 99.9884 216.084 100.054C215.753 100.201 215.397 100.352 215.011 100.506C214.238 100.815 213.347 101.142 212.271 101.469C208.347 102.308 199.449 105.95 185.133 97.9843C170.771 89.0755 168.964 74.0127 169.294 68.7809C169.388 65.6848 169.804 63.5991 170.184 61.9598C170.378 61.1435 170.575 60.4462 170.765 59.8299C170.869 59.4962 170.932 59.307 171.014 59.065C171.326 58.1469 171.615 57.4193 171.877 56.7983C172.403 55.5634 172.829 54.7382 173.191 54.0617C175.178 50.5996 175.372 50.6666 175.92 49.7335C177.985 46.8325 179.539 45.3704 180.585 44.3538C181.8 43.2166 182.43 42.6978 183.212 42.0617C184.556 40.9765 185.511 40.2766 186.387 39.6205C187.521 38.772 184.482 36.3786 184.791 36.0392C186.937 33.5818 187.931 32.9272 188.761 32.8125C189.591 32.7165 190.129 33.306 190.58 34.1231C191.469 35.7661 192.047 38.3255 192.935 38.8152C199.115 42.6243 200.806 45.2943 205.18 41.9775C205.95 41.237 208.846 28.3488 211.636 27.7081C214.926 26.9136 213.418 31.3524 216.652 30.5821C216.935 30.5318 217.21 27.7172 219.212 28.1474C220.911 28.5185 222.575 28.9994 224.213 29.5695C227.945 31.5393 235.003 32.9787 246.904 42.5378C248.898 44.3422 249.274 38.553 252.437 41.4844C258.368 46.9595 264.288 57.1289 265.718 66.7007C266.172 69.9274 266.046 73.3231 265.028 76.5553C264.598 77.8674 261.437 77.2858 260.536 77.6216C255.079 79.5274 263.251 81.4706 263.409 81.9628C266.954 92.373 260.503 99.3198 255.039 116.648C254.996 117.256 256.477 127.801 249.696 128.903C249.029 128.935 248.289 128.826 247.474 128.545C246.81 128.498 239.417 125.042 240.054 131C240.038 131.4 244.424 133.132 240.642 135.3C237.067 137.357 231.17 143.291 223.885 140.7C221.367 139.94 216.532 133.385 211.658 139.562C211.604 139.63 211.36 140.033 210.955 140.622C209.533 143.842 202.949 151.929 201.818 143.633C201.571 141.977 203.734 132.365 197.873 136.306C196.635 137.015 197.984 139.693 194.847 140.29C189.756 141.004 184.89 136.607 175.167 134.779C174.375 134.622 171.899 134.777 169.16 133.792C167.386 133.997 165.765 133.394 166.855 130.491C167.18 129.658 170.082 127.861 169.51 126.706C166.936 121.329 160.803 116.853 159.668 108.59C159.337 105.726 164.849 104.948 165.314 102.031C165.745 99.0779 165.958 93.9199 163.276 91.33C160.575 88.5596 152.154 92.8153 151.252 87.4759C150.978 85.5654 150.854 83.647 150.868 81.7416C150.217 71.5395 156.459 59.3086 166.852 46.0316C168.609 43.9036 164.662 43.8665 167.385 40.4811C168.986 38.5586 170.89 36.4234 173.128 34.2876C178.018 28.6741 190.05 19.4505 199.102 22.0117C207.239 24.4369 201.121 31.112 206.273 31.4223C208.534 31.6646 207.955 21.3882 208.534 20.9009C211.97 17.5554 215.636 18.5043 218.965 18.6496C219.679 18.7944 220.399 18.7765 221.123 18.2851C221.65 17.9268 220.537 13.9804 220.995 13.7195C222.565 12.7916 224.653 14.3387 226.376 13.7883C227.15 13.5323 226.624 10.4713 227.408 10.6174C229.285 10.9329 231.132 12.0407 233.319 14.7556C233.512 15.0038 232.725 18.9529 234.158 18.9639C236.521 18.9715 239.626 21.6195 242.626 18.5851C243.511 17.6771 243.487 10.5715 245.675 15.4713C246.156 16.503 245.376 24.9853 248.073 17.6963C248.338 16.4565 254.023 6.81057 256.182 13.5675C256.724 15.331 257.381 22.456 259.033 21.6539C259.284 21.524 259.096 17.6105 260.511 17.5028C263.419 17.34 266.59 17.965 270.047 18.9415C271.563 19.296 273.2 19.6852 275.096 19.9435C276.332 20.1192 276.188 15.7626 278.068 16.188C283.171 17.4133 291.033 22.2051 298.211 31.6242C300.747 35.1423 296.279 35.0485 296.243 35.5333C294.798 42.6461 302.685 40.7876 304.183 42.4579C307.084 45.6718 308.878 49.6307 309.8 53.4994C310.073 55.435 309.279 57.745 310.443 60.395C310.924 61.5466 314.419 60.0158 314.791 60.1974C318.466 62.3946 311.532 61.4692 311.082 63.3126C309.699 68.4939 310.808 75.4892 308.994 85.2393C308.228 88.842 313.525 85.8447 312.646 89.3192C311.803 92.4708 310.555 95.8224 308.857 99.1172C304.49 107.981 297.302 115.556 287.906 119.937C285.836 120.867 285.056 117.335 284.251 116.979C278.97 114.266 279.014 122.496 278.17 123.669C276.475 126.512 274.593 127.101 272.719 127.404C274.662 126.347 275.326 125.503 275.956 125.449C276.818 125.373 276.803 125.668 276.62 126.028C276.425 126.39 275.972 126.85 275.421 127.32C274.293 128.276 272.751 129.279 271.071 130.222C267.696 132.122 263.788 133.752 260.425 135.175C251.601 138.934 243.573 139.966 235.871 144.955C235.374 145.27 237.95 148.907 237.541 149.231C237.328 149.391 237.111 149.546 236.892 149.698C230.287 154.007 222.006 156.043 212.203 159.656C211.338 159.957 213.598 163.735 212.178 164.362C209.27 165.679 204.969 166.172 201.301 165.161C199.532 164.673 201.472 160.896 199.762 160.465C195.826 159.433 191.632 159.169 187.279 159.442C185.389 159.553 187.839 164.106 185.311 163.892C179.323 163.375 173.098 162.079 167.348 159.824C162.787 157.788 156.281 155.154 147.185 144.276C146.212 143.06 150.731 135.607 147.536 134.97C145.74 136.602 143.82 138.696 141.987 140.518C140.495 139.249 139.013 137.831 137.599 136.294C131.604 129.198 120.087 117.301 122.756 90.6835C124.179 83.8367 126.91 73.2044 133.587 62.8043C134.247 61.7836 129.178 61.1703 130.511 59.097C133.136 55.0868 136.165 51.2029 139.584 47.8705C142.671 44.8436 146.119 42.3669 151.251 42.0531C152.01 42.0048 156.969 48.4269 157.517 46.3878C157.606 46.0198 158.95 43.548 158.402 41.7447C158.312 41.4776 155.586 38.8031 156.197 38.1836C159.797 34.6332 164.565 32.2541 169.995 31.4236C170.872 31.2984 172.39 35.1309 173.032 35.0729C177.484 34.6977 179.615 29.7661 185.324 30.8468C189.17 31.6043 191.413 38.3088 195.752 43.8183C196.332 44.6031 198.09 43.9782 199.753 47.6226C203.705 56.8518 207.633 67.1265 211.984 76.9052C212.438 77.9636 212.414 77.9293 212.315 78.3567C212.227 78.7771 212.229 79.5982 213.724 82.0153C214.076 82.2832 215.139 83.8356 215.853 85.5847C216.408 86.7676 218.104 90.457 218.853 91.9528C219.616 93.4398 218.056 90.4123 218.749 92.2656C219.447 94.1463 221.755 98.1471 221.546 98.8852ZM225.777 68.259C221.605 67.5963 233.252 75.7428 231.592 72.0285C231.501 71.8322 225.99 68.2759 225.777 68.259ZM118.898 85.2367C124.359 88.7389 119.189 81.0418 115.03 78.2466C110.807 75.5246 117.191 84.2252 118.898 85.2367ZM109.989 102.63C115.314 103.417 98.9735 91.5971 100.579 96.6761C100.66 96.9862 109.666 102.611 109.989 102.63ZM191.269 48.4355C191.373 48.5916 192.378 48.2268 192.302 48.0561C190.58 43.8427 188.506 44.6114 191.269 48.4355ZM111.746 124.011C114.248 122.817 110.876 121.474 107.647 122.8C105.053 124.045 108.66 125.743 111.746 124.011ZM224.613 95.5727C224.411 95.5147 223.949 96.0873 225.035 96.5833C228.557 98.168 228.053 96.5871 224.613 95.5727ZM141.513 132.533C139.174 132.954 137.549 130.479 136.438 127.652L136.459 127.649C135.182 124.035 134.739 119.697 135.581 118.258L135.266 118.292C135.492 117.834 135.839 117.656 136.226 117.874C136.837 118.123 135.841 123.299 136.788 124.675C137.771 125.917 138.162 123.863 137.998 122.268C137.917 120.628 136.999 119.725 138.95 121.85C139.294 122.239 140.447 124.74 141.116 127.305C141.826 129.863 141.696 132.536 141.51 132.558C141.511 132.55 141.512 132.541 141.513 132.533ZM210.918 59.8273C210.746 59.7522 210.097 60.4028 210.233 60.5291C213.644 63.5406 215.096 62.0224 210.918 59.8273ZM200.951 88.4816C201.31 88.336 201.508 87.2262 201.156 87.2267C193.629 86.7454 193.555 91.2404 200.951 88.4816ZM179.456 65.4041C180.431 60.9472 179.824 60.3816 180.396 66.0774C179.993 65.7913 179.654 65.7196 179.456 65.4041Z" fill="#9E6868" fill-opacity="0.75"/>
<path d="M68.5626 101.709C68.5626 101.784 68.6281 116.493 69.0219 140.973C69.3501 150.784 69.9391 155.29 70.2852 158.35C70.6312 161.41 70.7163 162.887 70.8041 164.387" stroke="black" stroke-width="2" stroke-linecap="round"/>
<path d="M71.7219 102.005C73.0322 102.66 77.9531 106.522 82.5582 109.348C83.7507 110.08 85.6674 109.806 87.0332 109.527C89.4594 109.031 94.25 100.058 101.501 95.1052C116.099 85.1335 111.005 130.253 113.344 137.706C114.43 140.998 115.311 143.294 116.674 146.211C118.037 149.129 119.855 152.598 121.729 156.172" stroke="black" stroke-width="2" stroke-linecap="round"/>
<path d="M162.094 120.244C160.967 119.751 154.594 118.981 144.745 120.186C136.125 121.24 132.521 126.717 129.066 132.487C127.53 135.05 127.372 140.362 127.648 146.631C127.756 149.09 128.938 149.966 129.999 150.458C134.296 152.446 139.645 149.73 144.484 146.245C153.804 139.536 156.513 126.739 157.472 121.873C157.305 126.518 157.742 131.757 159.303 134.069C160.225 135.107 161.412 135.87 165.058 138" stroke="black" stroke-width="2" stroke-linecap="round"/>
<path d="M187.992 104.186C187.918 104.186 185.771 104.186 181.893 104.399C175.489 104.751 172.695 111.353 171.711 114.079C171.208 115.473 171.376 117.091 173.145 118.357C177.811 121.698 187.927 121.487 196.324 122.25C198.99 122.492 198.014 124.538 196.066 126.757C194.119 128.975 191.126 131.84 187.579 134.461C184.032 137.083 180.023 139.375 175.891 141.736" stroke="black" stroke-width="2" stroke-linecap="round"/>
<path d="M204.508 81.0116C204.508 82.4609 207.852 102.453 214.62 121.388C215.521 123.912 217.301 124.022 218.959 124.092C229.229 124.522 239.335 109.642 245.487 100.407C247.797 96.9394 247.925 90.7952 246.832 84.2134C246.39 81.5499 243.409 81.1093 241.282 80.7888C239.155 80.4684 237.265 80.4987 235.706 81.0181C234.147 81.5375 232.978 82.5451 232.254 83.6521C229.03 88.5775 231.329 96.4515 233.956 102.204C236.246 107.217 241.435 108.485 247.1 109.927C248.759 110.35 250.708 110.037 252.229 109.535C255.062 108.6 256.871 105.292 258.318 100.777C263.302 85.2225 251.5 64.8514 249.25 58.3259C247.764 54.0128 258.087 60.0312 264.024 60.4179C282.54 61.6239 269.845 91.845 273.79 99.4874C274.286 100.447 275.675 100.476 276.724 100.375C278.81 99.7345 283.242 93.0904 288.511 83.3639C290.415 79.7258 290.758 78.7222 291.234 77.5683" stroke="black" stroke-width="2" stroke-linecap="round"/>
<path d="M193.378 106.118C193.309 106.118 194.811 105.843 199.61 103.844C202.871 102.12 207.81 98.9539 211.118 96.9858C214.427 95.0178 215.956 94.3438 218.321 93.504" stroke="black" stroke-width="2" stroke-linecap="round"/>
</svg>
