<svg width="268" height="156" viewBox="0 0 268 156" fill="none" xmlns="http://www.w3.org/2000/svg">
<path d="M65.0124 64.9216C62.1374 65.6488 58.2787 66.2393 55.1241 66.7299C54.874 66.7696 54.6301 66.8074 54.3928 66.8434C53.3359 67.0067 53.6873 66.2701 52.946 66.3617C51.488 66.5477 50.3256 67.2266 48.8906 67.4081C48.4192 67.4645 48.6612 66.3644 48.1721 66.4456C45.4772 66.9076 43.1681 68.0416 40.6219 68.9115C33.1554 71.4072 26.9595 75.1201 19.6043 80.0149C19.8796 79.7301 19.5127 79.9056 19.1579 80.6059C18.7904 81.2881 18.4209 82.3238 18.1259 83.4815C17.5314 85.8051 17.1797 88.5785 16.952 91.4134C16.6615 94.9948 16.1132 99.3873 16.197 103.523C16.2148 104.478 16.301 105.397 16.4667 106.272C16.5642 106.774 17.376 106.381 17.4554 106.469C18.6873 107.789 16.9339 107.523 16.8558 108.528C16.5634 112.526 17.9797 116.871 20.114 120.03C21.0273 121.366 21.6872 119.136 21.678 120.985C21.6826 121.116 20.6971 121.226 20.848 121.66C21.1822 122.647 22.4209 124.166 22.8533 124.849C23.6825 126.187 23.8434 126.356 24.8592 127.627C25.0639 127.885 25.2891 128.182 25.5288 128.523C26.3755 129.809 27.4446 131.269 28.8911 132.104C29.2493 132.306 29.3585 131.251 29.9594 131.483C30.5457 131.721 31.9536 132.637 32.3999 133.088C32.8336 133.549 32.2923 134.087 32.3154 134.284C32.5411 135.979 35.381 135.008 35.6333 135.03C40.6998 135.941 45.1698 137.767 50.4947 138.508C52.758 138.812 55.151 138.983 57.5245 139.176C59.2524 139.312 61.0162 139.404 62.6769 139.537C67.2026 139.895 71.1142 140.475 75.6205 140.396C76.097 140.388 75.5406 139.304 76.1176 139.291C82.2645 139.153 88.3898 139.072 94.5797 139.457C95.2003 139.496 94.4595 140.492 95.0844 140.588C95.8932 140.706 96.8038 140.865 97.754 140.999C101.289 141.511 105.472 141.589 106.858 138.141C109.396 138.031 112.461 137.805 114.836 138.299C116.367 138.616 115.11 139.855 116.834 139.144C117.223 138.984 116.56 138.168 117.15 137.995C119.634 137.269 122.446 137.072 124.842 136.121C125.331 135.925 125.033 135.154 125.148 134.982C126.105 133.583 128.486 135.082 128.956 135.123C130.626 135.271 132.028 135.12 133.359 134.841C134.859 134.525 136.27 134.052 137.892 133.636C138.605 133.452 137.485 132.62 138.157 132.406C141.649 131.307 145.31 130.326 148.902 129.708C149.701 129.574 149.276 130.683 149.673 130.664C151.427 130.564 151.248 128.773 152.916 128.633C153.267 128.601 153.329 129.419 153.416 129.483C154.779 130.487 154.99 128.367 155.215 128.248C158.079 126.689 160.675 127.964 163.556 126.717C163.9 126.566 162.783 125.87 163.773 125.504C166.083 124.648 168.478 123.852 170.928 123.149C175.083 121.96 179.377 120.471 183.587 119.096C184.595 118.763 184.234 119.768 184.333 119.825C185.94 120.685 185.739 118.611 186.017 118.395C188.231 116.741 191.253 117.044 191.839 114.119C193.519 113.395 195.176 112.606 196.815 111.779C205.48 107.389 213.529 101.865 222.737 98.2834C222.875 98.2267 223.154 99.1863 223.428 99.0696C226.723 97.6751 225.355 96.757 226.367 93.9681C226.579 93.3661 228.643 93.9709 229.319 94.1825C229.423 94.2143 229.496 94.2366 229.525 94.2436C230.329 94.4406 230.595 95.97 230.82 95.9642C232.664 95.8591 229.873 92.0295 231.577 90.8743C231.636 90.8437 231.901 91.7194 232.095 91.6916C232.703 91.6061 232.943 91.0165 233.556 90.9492C234.936 90.815 236.7 92.3911 237.398 90.1623C237.472 89.8793 235.565 87.9768 237.062 86.9346C237.671 86.5321 240.078 84.3795 240.832 83.8765C241.607 83.3813 241.757 84.4339 241.828 84.4178C244.401 83.5151 244.062 84.5003 246.178 84.7633C248.312 84.9681 245.109 82.4837 245.121 81.8073C245.134 81.1394 247.032 80.3952 247.574 80.2437C248.115 80.1049 248.18 80.8922 248.582 80.6957C251.241 79.3222 247.752 78.5272 247.777 77.4569C247.768 74.9642 251.087 75.4031 252.381 73.917C252.724 73.5221 251.924 73.5155 252.113 73.0937C252.855 71.4339 254.217 70.9498 254.492 68.7114C254.494 68.6936 254.494 68.6709 254.493 68.6441C254.37 68.3413 253.144 67.0504 254.492 66.3189C254.699 66.2038 255.386 66.7189 255.643 66.0073C256.033 64.9365 256.283 62.8593 256.039 61.6045C255.86 60.689 254.63 61.7281 255.011 60.5848C255.179 60.0703 255.903 61.0252 256.156 60.049C256.415 59.0842 256.312 56.5909 256.243 55.6471C256.178 54.7063 255.27 55.2615 255.204 55.1884C254.827 54.7417 254.289 52.9637 254.28 52.8023C254.11 50.2978 254.076 47.8462 254.083 45.4009C254.474 41.9281 249.49 38.2383 244.706 36.3256C244.146 36.0971 244.08 37.1567 243.99 37.1309C241.94 36.6073 244.555 34.9591 243.575 33.5344C242.929 35.4325 242.293 34.7338 240.851 34.3266C240.152 34.1307 240.196 34.9957 240.103 35.0407C238.663 35.6811 238.6 34.0023 238.546 33.6401C238.355 32.3132 237.106 33.2379 236.973 32.3508C236.832 31.4664 238.298 30.8796 236.968 30.3207C236.313 30.815 236.557 32.95 235.436 32.7955C234.656 32.6898 233.8 32.4549 232.888 32.1262C229.058 30.7383 224.185 27.9542 221.681 26.9947C218.62 25.8165 217.567 25.6368 215.816 24.8273C212.64 23.3822 213.458 25.0742 211.232 25.0859C209.005 25.1089 210.926 22.1197 210.828 21.3311C210.732 20.5445 210.207 21.1792 209.947 20.69C209.687 20.2011 210.615 19.9417 209.792 19.5576C208.964 19.1698 206.262 19.7956 205.765 20.4587C204.712 21.8597 205.34 23.775 203.229 22.6171C203.107 22.5497 203.751 21.79 203.273 21.5756C201.038 20.5919 198.68 19.8402 196.327 19.1026C194.677 18.5852 193.026 18.0801 191.412 17.5053C190.875 17.3127 191.563 16.4336 191.25 16.3103C187.985 15.0371 188.877 16.9193 186.715 18.4241C187.562 16.0568 186.801 14.3676 184.207 13.9315C182.649 13.6728 182.751 14.7877 181.633 15.3892C181.301 15.571 180.309 14.6729 180.039 15.1493C179.149 16.7065 179.91 18.6902 177.383 17.5937C177.273 17.5431 177.763 16.6891 177.37 16.5806C174.824 15.8809 174.297 17.5701 171.484 17.4619C169.284 17.377 165.482 15.9431 162.979 15.5766C163.259 12.799 160.804 13.2511 159.712 15.1075C159.302 15.0594 158.866 15.0228 158.444 14.9909C157.205 14.8972 155.949 14.8489 154.788 14.616C154.253 14.5098 154.629 13.7128 154.564 13.6236C153.547 12.2261 152.79 14.0905 152.449 14.1608C148.675 14.8487 145.497 13.5703 142.009 15.2773C141.883 15.34 141.871 17.2834 140.779 15.9747C140.704 15.885 141.803 14.8812 140.103 14.9945C138.417 15.1029 135.051 14.5222 132.87 15.8401C132.334 16.1552 131.236 17.9645 129.857 17.0013C129.671 16.8699 129.722 16.2911 129.438 16.0352C128.517 15.2245 128.555 17.2211 127.352 15.7899C126.15 14.3599 124.046 13.5729 121.978 15.3279C121.91 15.3812 121.765 17.0291 121.03 17.2127C119.851 17.5041 118.103 17.6913 116.892 18.0856C116.313 18.2746 116.977 19.0755 116.881 19.1242C116.28 19.4071 115.698 19.6496 115.128 19.8614C112.226 20.9553 109.575 21.3277 106.155 22.6934C105.392 22.9926 104.017 25.2163 102.175 25.1024C100.133 25.005 99.1985 19.9902 96.3177 23.1432C95.1356 24.4446 96.8831 30.4985 92.7821 29.6174C91.232 31.0954 89.5589 32.2825 87.8589 33.4084C85.1052 35.231 82.3161 36.8852 79.8981 39.3615C79.7244 39.5397 80.0082 41.3714 79.4984 41.6801C78.7429 42.134 77.9144 41.7343 77.3624 42.0221C75.0402 43.2053 73.2906 44.9675 70.9609 45.9865C70.0784 46.3675 70.0354 45.4961 68.992 45.921C67.9519 46.3341 67.656 47.6223 66.0214 47.6904C64.7769 47.7351 63.0139 46.0378 61.552 46.2033C62.1074 48.2764 61.1036 48.5477 59.4063 49.53C59.0801 49.7187 59.6263 50.3602 59.4792 50.4873C58.8728 51.0228 58.101 50.5516 57.5243 51.0906C57.3821 51.2207 57.5114 51.9433 57.3994 52.0904C56.4455 53.378 54.2846 52.0223 53.9378 51.772C52.5913 50.844 52.1266 51.8489 51.1482 51.506C50.1759 51.1569 51.5231 50.5051 50.4195 50.3341C49.913 50.2514 49.3734 50.1994 48.8101 50.1662C48.7911 50.1666 48.735 50.1741 48.7162 50.1766C46.7625 50.2775 44.647 50.7973 42.8921 51.3062C41.9901 51.577 42.9011 52.3202 42.7784 52.3807C41.1077 53.1483 38.8077 53.0929 38.9441 55.3054C35.1599 51.7672 38.1622 56.2163 35.8361 57.143C35.6597 57.2195 33.6221 55.8949 34.0322 54.9485C34.469 53.9859 36.0438 53.6314 36.8386 52.5029C36.9785 52.2337 37.5593 49.3803 37.7847 49.1462C39.2631 47.3125 40.7846 50.6226 40.9235 50.7656C42.6012 52.384 43.7169 49.5729 44.2359 49.2802C45.6422 48.4181 47.0372 48.192 48.3379 47.9104C48.4072 47.9013 48.6136 47.8735 48.6836 47.8721C49.339 47.8024 49.9512 47.6966 50.5621 47.4549C51.7068 47.0005 51.5627 44.6628 52.4385 44.6331C55.2773 44.5041 57.0469 47.4878 59.0931 44.0844C59.5142 43.3469 58.2881 41.0587 60.7855 42.4244C60.9296 42.5181 62.9905 43.7963 63.4525 42.3861C63.5084 42.2101 63.2506 41.5121 63.3647 41.4036C64.1265 40.6902 64.9477 41.0023 65.8144 40.3201C66.6795 39.6368 67.6324 38.718 68.8271 38.3806C69.5431 38.1809 71.0535 38.9301 71.5451 39.0406C72.9421 39.3753 73.0827 37.4164 74.2549 38.0812C75.456 38.7327 75.2759 40.9846 77.221 40.6633C76.2357 38.9984 75.2897 37.2475 74.3199 35.5592C77.4876 33.5956 80.9455 31.8099 84.1375 29.3242C84.5328 29.0139 83.4991 28.488 83.9079 28.1331C83.9116 28.1299 83.9154 28.1267 83.9191 28.1235C85.637 26.6425 87.6978 26.0204 89.5132 24.3571C90.9198 23.0635 92.0402 20.9494 93.6315 19.5861C95.8872 20.7499 98.0529 18.5157 100.137 17.6025C100.858 17.2841 101.098 17.8276 101.676 17.7356C103.858 17.3916 102.094 16.1155 102.474 15.5723C104.177 13.2622 106.268 17.1541 108.843 15.9439C108.965 15.8817 109.866 12.9898 110.086 12.7583C111.357 11.2729 110.632 13.429 111.683 13.2387C112.101 13.1661 112.498 13.1172 112.883 13.0714C114.176 12.9364 115.305 12.8089 116.729 11.8111C117.254 11.4367 118.281 9.59804 119.758 10.3676C119.951 10.4682 120.076 11.2429 120.211 11.2528C122.626 11.3791 122.059 9.00582 123.165 7.86988C124.278 6.73286 126.698 7.92034 127.205 8.3122C128.541 9.31306 126.5 9.01649 126.47 9.15345C126.121 10.7427 127.512 10.1633 128.646 10.0562C129.3 12.3709 130.788 11.9269 129.82 9.93919C129.71 9.72212 128.891 10.1162 128.646 10.0562C129.13 7.54689 130.875 6.89134 133.152 8.74473C134.211 9.62088 133.562 10.9248 136.173 10.0941C137.361 9.72843 136.669 8.15284 137.709 7.56483C140.112 6.2207 143.552 7.46733 146.123 7.10661C147.063 6.97457 146.101 6.11214 146.746 5.99198C148.471 5.67387 150.007 6.32216 151.737 5.97581C151.895 5.94353 151.509 4.99459 152.054 4.98425C154.499 4.93056 156.749 5.19888 159.048 5.51094C160.571 5.72274 162.127 5.93827 163.804 6.07895C165.79 6.24025 169.394 6.04939 171.444 6.37922C175.003 6.93141 179.194 8.86509 182.264 8.99221C184.272 9.08009 183.981 8.07988 184.937 7.57664C186.788 6.59941 189.322 9.32307 189.639 9.73762C189.647 9.7494 187.914 9.66718 188.732 10.3072C189.077 11.3988 189.618 9.73841 189.639 9.73762C189.856 9.99867 193.199 10.8553 193.906 10.822C194.29 10.7991 194.266 9.87761 194.464 9.88265C195.76 9.92234 197.047 10.0166 198.332 10.169C201.675 10.5618 204.954 11.3242 208.15 12.4781C208.225 12.5166 207.851 13.4568 208.029 13.5349C210.517 14.654 212.497 13.9303 214.852 13.8483C217.203 13.768 218.85 14.5252 219.598 16.5634C221.273 16.8534 223.343 18.326 224.51 19.2093C225.677 20.0911 226.494 18.3084 226.624 18.3117C230.679 18.4167 232.421 20.2437 236.128 21.965C236.405 22.0956 236.726 22.2359 237.073 22.3823C238.867 23.1358 241.603 24.0621 243.248 24.5907C244.791 25.0835 245.492 25.8997 246.992 26.2711C247.198 26.3239 247.373 25.4451 247.446 25.4417C249.453 25.2316 247.788 26.8038 247.949 27.2995C248.516 29.1087 248.876 30.0808 251.178 30.5765C251.699 30.6853 254.613 28.8067 255.688 29.2792C257.059 29.8961 255.973 30.4793 257.441 31.1996C257.573 31.2737 257.93 30.6754 258.78 31.38C261.44 33.5054 265.621 38.421 265.826 44.5802C265.859 45.5675 265.91 46.5388 265.992 47.5118C266.03 47.997 267.063 47.3037 267.135 48.0051C267.475 51.3104 267.641 54.9946 267.212 58.4178C267.101 59.2636 266.338 58.7482 266.118 58.9344C264.789 60.0573 266.748 61.6689 266.779 61.9576C266.99 63.5876 267 65.1821 266.796 66.952C266.474 68.8188 266.555 70.3583 264.511 74.2369C262.977 76.5224 261.329 78.8795 259.765 81.9288C259.626 82.2406 259.64 85.8527 257.394 85.7662C257.238 85.7719 255.03 85.595 255.293 87.2424C255.306 87.3477 256.553 87.3503 255.579 88.349C254.614 89.3366 253.559 91.437 251.481 92.0284C250.817 92.2254 248.575 91.853 248.286 94.0938C248.306 94.2284 248.401 98.5645 246.178 97.4069C245.816 97.2108 244.41 95.2504 243.602 97.4755C243.442 97.9059 244.334 97.8988 243.729 98.7954C242.78 100.188 240.726 100.884 239.749 102.859C239.58 103.208 239.294 105.389 237.644 104.964C237.388 104.896 237.233 104.033 236.68 104.281C236.425 104.394 236.173 104.516 235.921 104.644C233.747 105.733 231.84 107.383 229.505 108.225C228.593 108.555 228.318 107.187 227.294 107.403C226.267 107.621 224.393 108.367 223.814 109.415C223.24 110.461 225.288 111.663 224.04 112.61C218.604 116.724 212.179 119.061 206.095 122.198C205.189 122.663 206.293 122.913 204.975 123.645C204.541 123.886 204.067 124.153 203.582 124.428C198.757 127.186 191.442 131.378 186.678 131.882C182.528 132.315 186.709 129.433 183.74 130.16C182.324 130.502 181.756 133.344 181.434 133.552C179.178 135.063 177.025 135.341 174.789 135.888C174.146 136.037 173.5 136.228 172.841 136.521C172.303 136.76 173.143 137.528 172.683 137.722C171.116 138.391 169.271 138.525 167.727 139.114C167.035 139.381 167.399 140.052 166.732 140.21C165.138 140.598 163.653 140.757 161.894 140.597C161.734 140.582 162.386 139.383 161.208 139.736C159.3 140.309 156.723 140.425 154.723 141.814C154.134 142.227 154.62 143.876 152.843 143.19C152.468 143.047 152.245 140.961 151.107 143.175C150.926 143.543 148.79 146.699 146.958 145.613C146.473 145.33 145.081 143.975 144.344 144.456C144.246 144.528 144.935 145.293 144.288 145.567C141.994 146.52 139.468 147.084 137.072 147.971C136.475 148.193 137.477 148.797 136.853 149.145C136.804 149.173 136.745 149.198 136.674 149.222C133.983 150.129 130.481 150.643 127.733 150.875C126.723 150.959 127.256 150.049 127.167 149.979C125.746 148.83 125.416 150.81 125.05 150.99C122.764 152.079 120.788 151.51 118.608 152.085C118.006 152.24 118.575 153.064 118.466 153.162C117.315 154.129 118.018 152.388 117.191 152.331C114.879 152.163 112.393 152.563 110.135 152.94C109.303 153.08 110.364 154.009 109.614 154.122C106.028 154.675 102.287 154.971 98.6612 154.882C97.822 154.86 96.9852 154.819 96.1605 154.757C95.3467 154.694 95.8087 153.862 95.6302 153.688C94.4062 152.473 92.8084 154.308 92.4245 154.494C90.6852 155.34 89.9622 154.659 88.3997 154.852C80.7542 155.813 71.231 155.416 63.7742 154.712C61.0081 154.457 58.3878 154.115 55.7762 153.663C49.9017 152.58 44.356 151.668 37.4225 150.221C36.8041 150.086 37.1784 151.275 36.6363 151.169C29.7133 149.719 21.8386 146.496 15.295 139.835C14.7695 139.287 14.7549 140.796 13.8733 139.906C13.4489 139.472 13.0229 138.992 12.6052 138.47C12.1292 137.924 10.8379 136.227 10.1405 134.878C9.67018 133.989 11.1587 134.529 10.6805 133.653C9.56497 131.599 8.23753 129.428 6.92154 127.362C6.35412 126.465 6.20255 128.369 5.53875 127.156C1.65446 120.059 -0.496372 111.896 0.0977706 103.99C0.200669 102.85 0.336917 101.713 0.513329 100.555C0.597178 100.012 2.69584 99.508 2.28376 98.367C1.69837 98.2833 1.01045 98.292 0.385123 98.2572C0.240347 93.7966 0.342257 89.2706 1.04168 84.3312C2.25683 79.4679 1.37223 73.6733 10.1634 66.2991C12.0817 65.0622 14.15 63.6333 16.333 62.1745C16.7439 61.9001 15.4092 61.4573 16.202 60.9225C20.8252 57.7912 25.7537 54.5954 31.5468 53.1938C32.1214 53.0551 32.6598 54.9566 34.0701 54.0183C34.3246 53.8415 36.5343 52.6401 36.9978 52.0081C37.0571 51.9159 36.2898 51.2313 37.0433 50.9078C41.0807 49.1972 45.4003 47.9707 49.6539 47.2554C50.0513 47.1871 50.4363 47.1268 50.8313 47.0684C51.5933 46.9597 51.0619 48.1124 51.6017 48.0453C55.4104 47.5682 59.3438 45.9868 63.1562 46.3287C65.7074 46.5778 65.0126 48.381 66.4727 49.8843C66.6722 50.093 68.1836 49.9972 68.3299 50.9634C68.6612 53.3767 68.2142 56.0765 68.6606 58.6419C68.6985 58.9185 69.1149 58.8788 69.3111 58.9613C69.4157 59.0018 69.4334 59.0714 69.428 59.2132C69.4197 59.3557 69.4663 59.5687 69.3299 59.9104C69.357 59.992 68.3108 60.5132 68.0629 61.0024C67.9025 61.336 68.3425 62.2801 67.9934 62.722C67.651 63.1641 67.1164 62.3941 66.4941 62.9555C65.8812 63.5259 66.3316 64.5844 65.0124 64.9216ZM229.708 23.2411C230.576 24.5705 231.984 21.426 230.373 21.699C230.295 21.7165 229.662 23.175 229.708 23.2411ZM82.488 33.8808C84.6894 34.1477 84.2558 31.6872 82.64 31.4273C81.0341 31.1601 81.8223 33.7977 82.488 33.8808ZM69.195 43.4849C71.3904 43.7484 69.3929 39.2884 68.1742 40.9857C68.103 41.0815 69.0693 43.4677 69.195 43.4849ZM60.7776 51.1969C60.8046 51.237 61.8391 51.1005 61.854 51.0535C62.2239 49.8798 60.1332 50.156 60.7776 51.1969ZM54.0396 49.2257C54.7158 49.8054 56.2602 48.7761 55.4096 48.0854C54.7385 47.5341 53.22 48.51 54.0396 49.2257ZM253.828 74.7712C253.775 74.7605 253.344 75.3488 253.594 75.4942C254.406 75.9589 254.735 74.9507 253.828 74.7712ZM30.1975 63.41C32.2529 59.5874 36.992 59.4333 34.5268 63.1209C34.0824 63.8122 34.1813 60.9746 33.385 61.7313C31.9142 63.1538 33.6476 65.402 31.5877 66.6004C31.2091 66.8197 30.0671 63.6271 30.1957 63.4008C30.1963 63.4038 30.1969 63.4069 30.1975 63.41ZM228.939 27.3657C228.945 27.4158 229.868 27.8149 229.906 27.7821C230.811 26.9593 228.94 26.1494 228.939 27.3657ZM220.944 100.482C220.849 100.427 218.812 101.557 218.796 101.67C218.68 103.828 222.804 101.549 220.944 100.482ZM162.945 15.4993C161.775 16.5079 160.491 16.5442 159.716 15.1092C160.79 15.2557 161.87 15.3461 162.945 15.4993Z" fill="#9E6868" fill-opacity="0.75"/>
<path d="M131.357 147.564C131.393 149.311 131.353 147.494 132.501 144.357C132.87 143.37 131.196 140.335 131.393 139.503C131.794 137.865 133.755 138.835 134.949 136.332C135.319 135.492 131.831 131.202 132.224 130.458C133.5 128.026 136.056 126.42 140.115 122.246C143.065 119.162 146.285 114.85 148.257 109.319C152.386 98.2763 150.869 86.4436 148.106 80.0651C145.337 73.3665 142.123 69.9616 139.182 67.2577C133.575 62.3056 126.799 59.8196 122.602 59.4306C118.275 58.973 115.944 59.7744 114.625 60.5828C114.089 60.9173 113.714 61.9625 113.541 62.9275C111.549 64.4984 109.839 66.1753 107.571 65.6946C107.116 65.5986 105.532 61.0733 105.31 60.7368C101.581 55.7477 105.845 64.4511 105.769 65.906C105.426 71.7481 105.07 72.8502 103.115 72.1205C102.304 71.7974 95.8211 64.8219 99.3101 68.8916C99.5555 69.1569 103.263 72.6414 103.603 73.0697C104.377 74.0254 103.614 73.5176 103.899 73.804C104.482 74.358 104.455 74.3116 104.527 74.3129C104.656 74.3508 106.87 75.6143 106.126 74.6614C105.95 74.4568 101.61 71.5648 100.927 70.991C100.241 70.4256 100.754 70.4543 101.851 71.0224C102.943 71.5987 106.355 73.8708 107.155 74.3643C113.933 78.4886 104.979 72.0992 104.768 71.9237C101.47 68.4691 107.528 70.5096 108.398 68.995C108.724 68.4124 108.625 67.5171 108.585 66.6217C107.653 67.2564 106.785 68.0887 106.577 69.0457C106.074 71.4792 108.767 73.3358 108.25 73.9819C108.201 74.0657 102.078 73.7184 102.005 73.8694C101.264 75.4834 102.098 75.7127 105.806 72.1489C106.188 71.7808 111.583 71.5858 112.286 71.1956C112.515 71.0662 112.762 70.9293 113.021 70.7862C115.618 72.9506 119.451 73.6452 119.956 74.651C120.519 75.7624 118.129 78.2672 111.068 86.8818C113.338 87.8261 115.181 87.8247 117.934 83.9756C119.657 81.4631 122.508 76.3346 121.267 78.5081C120.997 78.9961 118.484 83.4758 118.31 83.8911C117.647 85.6678 118.315 84.1286 117.108 86.5004C116.864 86.9968 115.12 91.2556 114.802 92.0208C114.46 92.8482 114.241 93.3837 114.116 93.6874C113.679 95.81 116.885 88.0081 117.087 87.3377C119.252 81.7226 118.327 83.9041 118.36 83.7692C118.353 83.7303 117.114 89.7866 117.102 89.9747C117.095 90.8787 117.326 90.3604 117.326 87.6083C117.322 86.9814 117.749 81.7328 117.751 81.1635C117.665 78.7119 117.108 88.6424 117.092 86.4915C117.077 86.0505 117.243 81.5458 117.253 81.0508C117.328 73.2776 116.91 84.2834 116.912 84.5268C116.621 87.8442 116.118 76.3536 115.522 78.0117C115.472 78.2211 115.901 83.9098 115.765 84.149C114.885 85.7794 113.774 84.333 111.534 80.1293C111.185 79.4846 110.466 75.2582 110.351 74.7426C108.401 66.7183 110.513 77.5754 110.556 77.9925C110.731 81.0208 107.829 72.1913 110.895 85.0059C108.689 81.9811 107.809 86.092 108.036 82.4323C108.419 80.9583 107.86 79.0188 105.793 76.9034C105.693 76.8099 101.665 73.1453 101.464 72.9958C98.8909 71.288 105.321 76.848 114.006 82.5008C116.277 83.7889 105.933 76.7667 105.087 76.3886C102.196 74.6452 95.3591 70.2968 94.7887 69.976C90.1172 67.7712 113.184 81.4225 113.329 81.1808C113.289 81.1604 108.955 78.8072 108.523 78.5743C107.157 77.8644 108.88 78.7987 107.355 78.051C103.845 76.2859 91.9702 70.9257 98.6677 74.5067C99.5492 74.9447 113.437 81.1195 112.769 80.8562C112.485 80.7575 112.652 81.0455 111.69 80.8151C110.731 80.579 106.125 78.9127 105.924 78.8436C99.6457 77.189 97.1525 76.1819 87.9014 73.6283C78.6417 71.2314 100.444 77.8514 102.848 78.6842C105.249 79.5001 100.011 78.3806 98.1829 78.0228C96.3591 77.6456 93.4006 76.6664 92.3549 76.503C85.4948 75.5556 103.197 79.7359 106.648 80.8281C114.869 83.2394 98.3719 79.5802 96.6198 79.8445C96.1528 79.89 99.94 80.5818 100.268 80.771C101.523 81.4795 96.2864 80.7877 100.942 82.2038C101.697 82.46 111.649 84.5196 104.253 83.5549C103.186 83.4228 99.0484 82.6308 98.0835 82.6915C96.6353 82.7793 95.6336 83.2605 96.9803 83.8057C97.9771 84.2038 104.891 84.8441 102.715 84.8588C101.743 84.8698 97.7532 84.0785 96.2607 84.1606C94.7673 84.2457 94.8563 85.0044 94.9665 85.2932C95.0786 85.5861 100.328 85.9981 100.678 86.0598C102.682 86.4097 105.16 87.1264 105.15 87.1639C105.375 88.2379 103.139 89.0998 101.282 90.1072C99.5599 89.935 98.294 89.5215 99.0446 87.8684C99.1685 87.6254 104.108 85.0956 104.178 85.0317C105.728 83.0433 93.2212 90.925 89.2014 93.7967C98.6749 87.7048 96.9112 88.7441 98.1385 88.3425C98.1623 88.3346 98.1907 88.3232 98.2233 88.3083C98.8544 87.7219 102.145 85.3809 102.489 85.1243C107.431 80.6679 100.465 85.6895 99.2191 86.9271C94.4041 91.1962 99.856 85.9013 96.7914 88.9206C93.9258 92.0865 89.3271 96.4619 89.7958 96.7784C92.4728 93.7646 99.5437 85.9524 100.493 84.515C102.162 81.6697 100.885 81.397 100.1 82.5623C99.2246 83.6676 98.6941 85.9271 98.7626 86.39C98.9029 87.3232 99.2626 86.6399 99.2958 88.1322C99.4907 90.8465 100.61 83.1021 101.345 79.5958C102.021 76.0772 99.5197 95.1446 99.0601 99.2539C98.6575 103.368 99.2818 99.1587 99.1467 101.43C99.0329 103.702 98.3957 106.46 98.6592 107.347C98.9824 108.242 100.556 100.998 100.921 96.6876C101.767 87.5661 102.215 77.9637 102.392 81.3587C102.408 81.5604 102.023 86.6035 102.106 87.1202C102.848 91.0612 104.03 91.3183 105.316 94.721C105.499 95.1967 105.529 100.824 105.647 101.164C106.933 104.716 106.176 95.2503 106.07 84.7049C106.731 98.7115 107.539 107.265 108.527 107.277C109.098 107.288 108.522 101.189 108.473 96.8619C108.449 95.5582 109.174 99.7152 108.973 96.841C108.283 87.4486 107.008 76.985 108.046 81.098C108.096 81.2933 108.535 86.4291 108.674 86.7285C109.602 88.6829 108.559 78.8893 109.022 77.6271C109.371 76.6392 111.179 82.4418 112.016 83.2891C114.607 98.8414 114.818 95.1406 113.088 84.405C113.592 84.7649 113.935 84.072 114.646 85.4598C114.892 85.9322 115.722 90.4217 115.839 90.9011C117.728 98.411 115.767 88.0155 115.76 87.5928C115.863 83.4479 118.65 91.0191 117.604 83.1922C117.572 82.9086 114.756 72.326 117.068 79.9836C117.236 80.5089 118.243 85.3997 118.779 85.6518C119.27 85.9186 121.889 91.2671 120.941 86.2376C120.734 85.0203 118.158 76.5084 120.648 82.9956C120.993 83.874 121.997 86.8505 122.631 88.48C124.703 93.6541 121.011 83.2191 124.482 91.961C125.658 94.8789 126.795 97.5293 127.747 99.5186C127.978 99.5634 128.53 98.9988 128.764 98.9923C131.468 102.45 132.96 103.461 130.954 99.5842C130.876 99.4074 125.891 92.1865 126.136 92.1767C126.556 92.1514 128.102 93.2664 128.387 92.9608C128.519 92.8148 124.98 88.6709 124.942 88.5731C123.778 85.5759 127.464 88.7966 129.949 89.2875C130.443 89.3511 125.437 83.8379 130.06 87.4796C135.199 91.3735 154.723 109.693 151.239 103.975C149.958 101.54 123.926 79.7805 138.272 89.9645C136.313 86.4999 141.869 88.6739 141.28 86.3076C141.4 86.2527 141.492 85.8109 141.604 85.7424C141.44 85.3169 141.033 84.7736 140.272 84.0829C140.066 83.873 131.583 79.6588 131.761 79.5779C132.049 79.4535 136.146 81.1332 136.492 81.0734C138.046 80.8545 134.841 78.7024 135.665 78.2293C135.972 78.0393 140.185 79.8308 140.559 79.5793C140.931 79.3216 135.394 76.9318 138.282 77.5262C140.481 77.9868 152.155 81.9388 153.697 81.9043C142.303 77.6854 142.659 77.4445 139.844 75.7949C139.297 75.477 135.276 74.1612 134.812 73.938C132.831 73.0034 136.198 73.9978 134.03 73.0133C133.509 72.7769 129.598 71.3905 128.951 71.1208C123.294 68.7887 132.279 71.3693 133.849 71.8003C139.804 73.4638 134.759 71.5387 137.151 72.0547C139.546 72.5615 142.279 73.9591 143.788 74.104C146.909 74.3981 146.574 73.2852 146.984 72.6451C147.124 72.3801 141.797 70.8486 141.695 70.7705C140.544 69.7737 146.339 70.9996 135.935 67.3116C163.225 75.6318 133.41 66.1256 139.102 67.07C139.562 67.1478 152.45 71.1354 154.257 71.9895C156.062 72.8428 151.92 71.9507 154.748 73.2439C155.412 73.5452 167.285 77.9148 167.99 78.2238C173.505 80.6183 154.31 74.4577 153.249 74.1392C141.79 70.7383 154.544 75.5485 155.381 76.015C159.235 78.0935 156.335 77.8232 159.04 79.4293C160.784 80.4775 173.261 84.8027 172.757 85.0238C171.079 85.786 153.607 79.9413 168.244 86.435C171.361 87.8328 185.008 92.5414 174.017 89.547C173.32 89.3709 163.354 86.384 169.356 89.0777C170.112 89.419 174.046 90.9074 174.351 91.0991C176.314 92.3682 173.071 91.4673 174.37 92.5522C175.669 93.6376 177.631 95.1775 176.054 95.2659C175.105 95.3336 167.672 92.7958 165.835 92.2136C160.554 90.5152 168.65 94.6245 162.378 92.2591C156.102 89.8198 146.963 85.2308 142.722 84.0698C152.688 88.5544 162.894 93.2078 172.89 97.7751C172.338 98.5951 171.212 99.2056 170.034 99.8531C169.283 100.314 168.662 103.282 167.862 103.651C166.393 104.071 164.914 104.45 164.445 105.587C164.349 105.845 169.303 109.015 169.314 109.393C169.314 111 165.283 109.409 165.767 111.504C166.158 113.143 170.2 118.043 170.525 120.086C160.477 112.607 162.579 116.655 160.771 116.912C160.155 116.992 157.748 114.676 156.739 114.155C153.01 112.22 161.326 119.513 162.315 120.991C166.374 127.438 148.708 109.732 148.099 111.147C148.098 111.185 156.237 121.805 156.612 122.578C159.358 127.375 153.404 119.222 152.272 118.903C150.192 118.319 147.647 116.296 149.017 120.187C149.462 121.31 153.62 128.593 149.145 123.901C148.563 123.284 146.008 119.693 145.793 119.53C142.191 116.826 150.152 128.146 151.999 132.567C152.442 133.618 152.401 134.017 152.068 133.977C149.946 134.036 144.948 139.148 142.864 138.742C141.798 138.409 138.932 133.02 138.053 131.107C135.04 124.615 137.492 128.073 137.291 127.399C134.792 119.45 134.485 121.092 133.728 120.61C129.165 107.823 128.85 108.791 132.957 120.162C133.413 121.402 133.418 120.061 133.728 120.61C137.68 133.341 136.971 135.38 132.353 123.781C130.206 118.339 128.539 111.739 128.2 114.439C128.031 115.66 130.849 124.576 131.05 127.171C131.455 133.104 127.728 125.068 127 126.658C126.722 127.238 128.317 132.117 128.157 132.688C127.712 134.223 126.169 130.638 125.86 132.72C125.829 132.916 127.15 138.11 126.918 138.231C125.15 139.25 122.9 136.191 120.993 136.42C120.083 136.532 118.847 139.712 117.756 139.259C115.85 138.516 112.96 130.997 111.723 133.001C110.88 134.288 111.51 139.61 111.341 143.285C110.936 150.415 108.52 137.857 108.281 135.901C108.28 135.836 109.067 134.529 108.465 131.807C107.912 126.098 108.295 135.875 108.281 135.901C108.079 134.645 106.304 133.498 105.969 134.526C105.788 135.09 106.016 140.162 105.913 140.361C103.469 144.96 100.316 146.213 97.226 143.594C97.1775 143.488 97.6965 137.833 97.5845 137.653C96.088 134.999 94.2356 141.786 91.7801 145.604C89.3412 149.42 87.6409 147.694 88.5433 137.918C86.8709 138.829 85.6225 134.06 85.1981 131.187C84.7758 128.324 81.0979 138.734 80.8804 138.894C74.2014 143.944 73.3159 136.831 68.4142 132.554C66.0512 130.571 59.2496 127.111 55.1515 123.887C53.8508 122.941 53.1784 121.74 52.6496 120.553C52.7099 119.982 52.7137 119.103 51.0499 118.35C50.6682 118.165 46.7251 121.133 46.5046 121.14C39.5537 121.111 50.7663 116.332 52.263 114.66C57.6812 108.281 60.8316 105.663 55.8526 102.313C54.7835 101.854 36.9779 102.163 35.5537 99.4266C33.8301 96.3754 40.1355 96.8071 38.3966 94.1167C38.2626 93.9047 34.4215 94.1569 34.5154 92.4344C34.6395 90.1698 35.0162 88.1808 35.4727 86.4484C36.4326 85.2795 37.5682 84.1 37.3967 82.8332C37.3788 82.5879 31.2971 82.4087 31.1729 82.034C30.5944 80.2862 31.0198 78.318 34.0602 76.9074C34.8274 76.5635 39.0153 77.362 40.2802 77.4265C47.9278 77.8596 37.0212 75.6442 36.8344 75.4525C32.031 71.3214 42.3616 70.4587 38.5514 65.6736C38.3039 65.4799 27.1893 60.7882 37.2955 62.5189C37.9748 62.6062 48.249 64.6075 41.5501 62.0475C41.1347 61.8755 35.8089 60.9449 36.5901 60.1967C37.3594 59.4848 34.4021 56.853 40.4511 57.3908C42.3741 57.5089 52.4835 60.1226 45.1147 56.0992C44.5396 55.9611 27.8953 46.9027 40.2663 50.918C42.3033 51.583 54.8648 57.0499 49.0656 52.7559C47.956 51.8956 44.8967 51.245 43.5356 49.6095C41.4723 47.0233 45.6181 46.8606 41.2664 42.0783C40.4481 41.3112 33.2787 35.0442 40.1434 37.3473C41.2098 37.7224 44.9105 40.4469 45.7323 40.0828C49.5803 38.4929 49.4862 33.3072 54.8818 31.9707C56.7658 31.5338 61.7291 37.0743 64.1486 37.3918C66.5865 37.6827 69.8627 37.1995 68.9702 33.5634C68.1917 29.8354 59.0434 22.0255 61.0722 19.2455C62.1735 17.7841 63.5211 16.4279 64.9994 15.2401C74.1684 7.94049 79.9974 12.115 84.592 11.3451C85.3492 11.2505 83.4222 7.44157 84.4509 7.01981C88.1648 5.42668 93.8054 -0.00325605 98.5741 8.26973C102.212 14.9098 100.321 20.8077 102.484 23.3905C103.431 24.6393 102.155 10.9585 102.334 10.4947C103.823 5.83412 106.123 11.672 107.839 9.63255C108.212 9.20878 107.283 3.71339 107.624 3.41271C108.81 2.33507 110.344 4.71084 111.544 4.19269C112.087 3.94773 111.779 -0.287373 112.334 0.0154911C113.655 0.693942 114.889 2.4487 116.147 6.41944C116.25 6.78146 115.576 12.0662 116.455 12.2579C117.918 12.5563 119.499 16.5132 121.423 12.563C121.991 11.3754 122.682 1.69198 123.415 8.46502C123.579 9.88324 122.268 21.4582 124.478 11.5491C124.728 9.88353 128.934 -3.32583 129.151 5.55405C129.201 7.88699 128.559 17.4288 129.449 16.0587C129.587 15.8395 130.04 10.6311 130.733 10.232C133.189 8.92413 135.458 9.9651 138.37 9.05393C139.17 8.80765 139.524 3.31556 140.731 3.13432C143.639 2.70482 146.797 4.66465 149.19 7.10338C149.409 7.41711 149.62 7.74186 149.822 8.07058C150.38 8.99087 148.085 12.8723 147.959 13.3465C145.721 20.9845 150.501 11.4324 151.126 11.0302C154.812 8.60889 154.454 14.0094 157.507 14.202C158.379 14.2909 160.404 9.58902 160.77 9.27499C164.584 6.35896 158.811 13.5735 159.258 15.0076C160.46 19.0574 163.921 20.8542 168.045 23.5835C169.585 24.6194 171.917 18.7899 173.348 19.8736C181.42 25.3663 193.756 42.722 192.422 62.485C192.321 62.4586 192.217 62.4377 192.111 62.422C191.477 62.3568 186.971 62.9471 185.937 63.039C178.711 63.7625 188.592 62.9785 189.543 62.9792C193.886 63.0022 189.946 63.8655 190.795 64.694C195.1 68.6044 193.445 83.1855 187.61 95.4549C185.391 100.345 182.419 104.748 179.223 108.458C176.832 108.777 174.422 109.334 173.769 111.921C173.701 112.162 179.004 115.073 179.008 115.326C178.784 118.49 175.025 120.15 173.432 125.249C173.283 125.671 178.259 128.584 178.151 129.406C177.949 131.132 176.364 132.643 173.764 132.88C172.512 132.992 169.53 128.909 168.371 129.056C165.677 129.365 163.869 130.738 162.724 133.142C162.218 134.195 167.524 137.217 166.483 138.314C160.103 145.723 144.678 156.734 127.796 151.808C126.625 151.487 123.971 139.867 122.582 142.342C122.844 145.64 123.308 149.5 123.655 153.017C123.156 153.122 122.655 153.218 122.154 153.305C111.84 155.279 93.7837 153.882 71.7651 134.849C70.8656 134.004 68.2829 140.189 66.4196 138.459C64.2521 136.411 62.1818 134.283 60.2653 132.026C52.992 123.033 41.4752 106.211 51.5257 78.7598C52.9807 75.684 62.9131 79.8221 64.2386 71.9382C64.2402 70.285 69.1213 59.6252 69.3702 56.2977C69.3872 55.7511 64.0574 53.8591 66.5154 50.999C66.639 50.8606 66.763 50.7232 66.8875 50.5867C80.8385 36.689 86.56 38.0516 91.5551 38.964C92.3327 39.2277 93.6554 44.6264 94.1992 44.87C97.8739 46.6302 98.5586 42.0561 101.404 46.4319C103.257 49.402 105.61 58.6548 108.657 67.5472C109.086 68.8018 109.592 68.8734 111.136 74.1143C115.023 87.2914 119.017 101.796 123.186 115.835C124.078 118.86 123.696 115.434 125.485 122.851C125.6 123.349 125.916 125.891 126.558 128.398C126.999 130.131 128.659 135.435 129.181 137.666C129.708 139.894 128.275 135.461 128.877 138.086C129.504 140.739 131.332 146.79 131.357 147.564ZM83.9402 118.27C85.2207 113.017 76.4784 130.388 79.9623 126.878C80.1405 126.686 83.889 118.533 83.9402 118.27ZM153.074 95.3968C145.61 91.13 155.716 98.6785 161.478 101.99C167.275 105.233 155.362 96.6532 153.074 95.3968ZM151.576 84.4065C145.053 82.509 170.529 93.0466 165.7 90.1164C165.428 89.9495 151.957 84.513 151.576 84.4065ZM107.473 70.6917C107.557 70.9359 107.997 71.0642 107.93 70.8173C106.342 64.8462 105.414 64.6085 107.473 70.6917ZM147.208 76.5789C143.622 75.5365 147.499 77.4915 151.956 78.7953C155.545 79.8324 151.673 77.8615 147.208 76.5789ZM87.3379 77.8692C87.6224 77.9235 87.928 77.7455 86.3278 77.398C81.1719 76.2847 82.5479 76.9659 87.3379 77.8692ZM149.78 67.6483C148.38 68.6594 126.422 62.5707 129.292 62.0027C129.812 61.895 136.059 64.6942 138.117 64.9924C141.871 65.5194 128.33 60.9092 135.832 62.5825C137.207 62.8843 149.909 67.603 149.81 67.6599C149.8 67.656 149.79 67.6521 149.78 67.6483ZM93.3092 96.877C93.4083 96.6406 93.2382 96.2859 93.1174 96.5092C90.0915 101.899 90.7514 102.774 93.3092 96.877ZM101.973 73.2104C102.368 73.5905 102.721 73.9626 102.395 73.5779C96.2947 65.5089 94.4088 65.7516 101.973 73.2104ZM112.096 83.702C111.337 77.533 111.451 76.77 113.085 84.3974C112.732 84.0415 112.438 84.0315 112.096 83.702Z" fill="#9E6868" fill-opacity="0.75"/>
<path d="M71.8842 94.1028C72.3311 94.8163 71.6424 96.0272 70.8106 97.0255C70.552 97.3365 69.444 97.1432 69.2163 97.3694C68.7734 97.8144 69.3167 98.2433 68.8056 98.7002C68.631 98.8529 66.8656 98.6822 66.7231 98.8477C65.9564 99.7746 66.4432 100.631 66.139 101.567C65.2012 104.478 65.032 107.374 65.3188 109.868C64.7268 108.615 63.687 107.662 63.1387 107.424C62.5671 107.156 62.4536 107.346 62.6667 107.583C62.9591 108.018 64.3395 109.997 66.0225 109.463C66.2144 109.4 66.272 107.85 66.3199 107.727C67.0344 105.837 66.548 108.928 66.8837 109.375C67.8525 110.657 69.1452 111.111 70.3788 111.015C70.1536 110.975 69.8693 110.897 69.5617 110.806C69.0705 110.678 68.6086 107.597 68.5868 109.431C68.6022 109.55 69.2824 111.049 69.2518 111.249C69.1944 111.691 68.8581 111.562 68.897 111.697C68.9942 111.947 69.0093 111.922 69.0781 111.877C69.1833 111.835 70.139 111.951 70.1033 111.279C70.0868 111.141 68.5695 110.398 68.3957 110.127C68.2201 109.864 68.5449 109.551 68.9816 109.552C69.4143 109.567 70.5842 110.19 70.8732 110.289C73.342 111.066 70.3844 108.935 70.3198 108.848C70.0232 108.032 70.1722 107.413 70.5082 106.813C71.0271 105.918 72.0401 105 72.2721 103.816C72.5565 102.348 72.1332 100.641 72.3751 99.2243C72.669 97.5376 73.6714 96.112 73.5403 94.4341C73.5279 94.2594 71.5448 94.4364 71.5251 94.2303C71.3131 92.0421 71.4055 90.0469 72.3929 88.0112C72.4924 87.8035 74.2474 87.726 74.4464 87.4875C75.2869 86.5082 76.828 84.6314 75.1444 84.3912C74.4281 84.3091 73.1465 84.6069 71.0597 85.5514C71.1663 85.1116 71.3253 84.7839 72.2341 83.5131C72.7891 82.6715 74.3263 81.529 73.4683 81.819C73.2821 81.8912 72.2161 83.166 72.0478 83.2072C71.3876 83.4202 71.3259 82.733 70.5169 83.286C70.3567 83.4058 69.7345 84.7569 69.6021 84.9902C68.6169 86.9179 69.7424 83.5108 69.6708 83.2091C69.5705 81.1171 68.5298 81.6489 67.5657 81.4477C67.3318 81.3989 67.295 83.4144 67.0717 83.441C66.3606 83.5129 65.5842 83.4305 64.7334 83.1216C64.2628 82.9379 63.801 82.6764 63.3431 82.3225C63.0693 82.1096 63.3962 80.4199 63.2641 80.2311C62.6552 79.4217 62.4573 82.6323 61.9077 81.9357C61.7875 81.7935 61.8533 80.3372 61.8308 80.1772C61.4493 77.6669 61.1704 81.231 61.094 81.3113C60.0358 82.4118 59.0774 78.7519 57.9429 79.397C57.8166 79.4779 58.309 81.2775 57.9534 81.392C55.5873 82.1712 53.1031 82.2063 50.2229 81.6257C49.7745 81.5393 49.5915 80.139 49.5146 79.9849C48.2311 77.6064 49.1527 81.0733 49.0866 81.2407C48.4901 82.4882 46.3904 80.1208 47.4712 84.2973C46.7207 84.357 46.009 84.542 45.328 84.8017C42.7373 85.7227 41.2975 88.5381 36.6217 89.4335C36.552 89.4518 35.22 88.2974 35.0849 88.3412C33.4413 88.8806 35.7863 90.3233 38.0444 92.9247C38.6236 93.5607 34.9054 91.855 34.6159 91.7582C33.5792 91.3493 31.5245 89.71 31.305 89.6593C29.5385 89.3315 36.8687 93.934 36.4592 94.595C36.4334 94.6093 35.1355 93.6788 34.9645 93.6539C34.4269 93.5773 34.8547 94.0916 34.2755 93.9903C32.9425 93.7461 29.2001 91.8069 30.9269 93.7209C31.1559 93.963 35.4934 96.2614 34.9414 96.7787C34.7121 96.9867 34.1811 98.1679 33.734 98.3539C33.2845 98.5379 31.9855 97.6005 31.913 97.5919C29.5834 97.5714 28.9784 96.8443 25.9525 95.9811C22.9265 95.1522 29.6347 98.1883 30.2874 98.729C30.9385 99.2657 29.0539 99.2286 28.4272 99.1606C27.8014 99.0876 26.9835 98.4554 26.6029 98.473C24.0993 98.6372 29.7385 100.413 30.6632 101.212C32.8734 103.067 27.5998 101.533 26.7928 102.112C26.5789 102.26 27.7993 102.554 27.8381 102.773C27.8887 103.106 27.6688 103.28 27.4399 103.446C27.1061 103.615 26.7273 103.856 27.5733 104.462C27.7796 104.691 30.9379 105.597 28.5267 105.504C28.1766 105.508 26.8431 105.194 26.511 105.417C26.0088 105.743 25.6851 106.531 26.1639 106.964C26.5156 107.273 28.7345 106.803 28.0613 107.202C27.7638 107.393 26.4304 107.157 25.9847 107.543C25.5337 107.939 25.7298 108.891 25.8523 109.239C25.9703 109.589 27.5948 109.043 27.713 109.05C28.3868 109.083 29.3229 109.466 29.336 109.515C30.176 111.943 28.9092 115.9 31.3264 118.371C31.5129 118.564 33.0063 117.556 33.051 117.577C34.1294 117.985 29.613 119.661 28.5172 120.982C31.662 119.149 31.2625 119.791 31.9194 120.154C32.2398 120.329 33.3908 119.5 33.5306 119.455C35.6221 118.814 33.363 120.44 32.907 120.784C32.6031 121.015 32.4305 121.175 32.3449 121.286C31.9179 121.709 33.1966 121.038 32.3051 121.747C31.277 122.68 29.3225 123.476 29.7392 123.994C30.8378 123.284 33.3859 121.018 33.9305 120.818C34.9045 120.352 34.9569 120.618 35.3807 121.362C35.7597 122.078 36.3961 123.091 36.9097 123.386C37.9519 123.975 38.4086 123.808 39.0312 124.409C40.2107 125.475 40.1381 122.898 41.0557 121.858C41.9623 120.805 40.8863 126.932 40.8542 128.273C40.8385 129.615 41.1319 128.264 41.2196 129.011C41.3131 129.758 40.8534 130.625 41.2281 130.939C41.6179 131.257 42.892 128.973 43.1034 127.585C43.5735 124.649 43.3311 121.526 44.1806 122.667C44.231 122.735 43.9691 124.357 44.1682 124.533C45.7722 125.876 47.5839 125.97 49.3365 127.087C49.574 127.243 49.3516 129.06 49.4941 129.171C49.6969 129.33 49.8559 129.41 49.9849 129.423C51.0953 129.448 50.5244 126.732 49.9668 123.856C51.0367 128.245 52.3527 130.841 53.7648 130.2C54.5299 129.83 53.4487 128.152 53.1188 126.735C52.9979 126.32 54.1289 127.216 53.6919 126.389C52.2503 123.693 50.0613 121.074 51.5362 121.699C51.6078 121.727 52.4624 123.163 52.642 123.159C53.8321 123.107 51.9938 120.503 52.5259 119.569C52.9414 118.838 55.3822 119.262 56.3567 118.777C59.8196 122.514 59.7764 120.951 57.6235 118.146C58.2095 117.781 58.5934 117.125 59.4072 116.998C59.6841 116.956 60.6214 118.104 60.7541 118.196C62.8377 119.648 60.6356 117.016 60.6432 116.818C60.8459 114.76 63.6301 115.602 62.8685 112.73C62.8401 112.627 60.3385 110.124 62.4935 111.605C62.6418 111.707 63.4594 113.186 64.05 112.742C64.6456 112.294 66.9777 112.581 66.4746 110.714C66.359 110.259 64.6704 107.857 66.6595 109.012C66.9288 109.17 67.6231 109.913 68.1035 110.226C69.64 111.214 67.1257 108.666 69.6067 110.458C72.0887 112.248 74.2824 113.226 73.4467 111.038C73.4257 110.971 71.5026 108.875 71.7554 108.666C71.9674 108.493 72.3248 108.37 72.6695 108.231C72.6795 108.216 72.7216 108.191 72.7362 108.181C73.074 108.178 73.4037 108.162 73.6329 108.041C73.8626 107.919 72.9479 106.406 72.9747 106.358C74.1455 104.7 75.9665 105.585 77.9528 105.446C78.316 105.424 78.2667 102.825 79.6385 104.301C81.1288 105.924 83.8386 114.158 84.5138 111.64C84.7674 110.641 81.4222 100.161 84.6753 104.976C86.3418 102.794 89.3889 104.748 90.9033 102.067C90.9718 101.948 90.2565 98.9537 90.5077 98.9085C90.8778 98.8486 91.556 100.126 91.8364 100.127C93.0216 100.167 93.5822 98.6807 94.6731 98.5149C95.0816 98.4508 95.411 99.8996 95.8978 99.8246C96.3875 99.7477 96.0775 97.7995 96.9991 98.488C97.7031 99.0126 99.3754 102.654 100.14 102.898C98.9757 99.1487 99.4095 99.0945 99.8789 97.8612C99.9663 97.6231 99.3993 96.369 99.4197 96.189C99.497 95.4269 100.085 96.4295 100.138 95.6106C100.151 95.414 99.7568 94.1326 99.7446 93.8996C99.6252 91.8695 101.273 94.5186 101.555 94.9816C102.627 96.7394 102.359 94.9988 102.968 95.6353C103.571 96.2733 103.293 97.3824 103.868 97.7067C105.074 98.3723 106.186 97.8162 107.137 97.5977C107.523 97.4998 106.752 95.8622 106.795 95.8084C107.415 95.1505 108.788 96.7251 108.145 93.1932C111.411 101.828 108.369 92.1974 109.943 93.6131C110.069 93.7266 111.65 97.7923 111.483 98.5269C111.282 99.2709 110.339 98.1415 110.158 99.2411C110.098 99.5053 110.662 103.603 110.625 103.872C110.503 105.928 108.515 99.7238 108.387 99.3889C106.891 95.8071 107.373 100.254 107.257 100.605C106.736 102.214 105.691 101.57 105.22 102.75C104.913 103.514 106.084 107.617 105.675 107.605C104.273 107.582 102.061 102.036 102.4 107.339C102.469 108.472 104.142 112.832 102.124 109.626C101.997 109.424 100.295 106.447 100.556 108.593C100.59 108.864 101.011 110.156 100.982 110.285C100.773 111.13 100.164 110.19 99.8565 110.838C99.5427 111.488 99.2519 112.4 98.5688 112.145C98.1629 111.992 96.9402 109.735 96.5816 109.202C95.5585 107.666 96.058 110.592 95.0764 108.645C94.0812 106.691 93.5355 103.384 92.3317 102.32C93.4798 105.659 94.6257 109.097 95.7685 112.459C94.2022 112.882 92.3065 112.362 90.836 113.091C90.6568 113.184 91.5269 114.884 91.3541 115.029C90.6206 115.634 89.3963 114.66 88.7209 115.512C88.2105 116.174 88.2363 118.334 87.755 119.084C85.7761 115.531 85.274 117.233 84.3853 117.218C84.0758 117.214 83.6606 116.218 83.3332 115.977C82.1041 115.096 83.8776 118.216 83.9156 118.814C84.0867 121.363 80.7106 114.02 79.796 114.659C79.741 114.693 80.9319 118.889 80.9658 119.169C81.1735 121.004 80.2407 117.853 79.7658 117.725C78.8969 117.493 78.0169 116.773 77.8443 118.262C77.8366 118.335 77.8488 118.469 77.8687 118.634L81.2493 116.104C81.6255 116.861 82.4529 118.297 80.8987 117.428C80.6545 117.292 79.6306 116.302 79.5339 116.284C77.8661 116.044 81.1392 119.094 81.8844 120.521C82.6246 121.953 79.7788 120.482 79.0113 120.001C77.0137 118.769 78.5229 119.08 78.3725 118.91C76.5902 116.876 76.5187 117.636 76.0277 117.831C72.7632 114.901 72.5128 115.558 75.536 118.041C75.867 118.312 75.8162 117.765 76.0277 117.831C78.9036 121.06 78.8069 121.974 75.3164 119.82C73.6821 118.808 72.3226 117.045 72.1286 118.428C72.04 119.053 74.3811 120.972 74.6632 121.874C75.3028 123.936 72.311 122.994 71.8674 124.093C71.708 124.491 73.1668 125.36 73.0971 125.673C72.903 126.519 71.5675 126.112 71.4966 127.089C71.4917 127.179 72.8402 128.277 72.6926 128.458C71.5797 129.869 69.6879 130.183 68.2312 131.507C67.5436 132.136 66.8643 134.037 65.8918 134.605C64.2231 135.601 60.7882 135.097 59.2856 136.706C58.2333 137.776 59.3297 139.128 59.1703 140.543C58.8598 143.375 53.4403 140.836 52.7631 140.179C52.8514 140.175 54.9398 139.232 53.5692 138.662C52.5469 137.007 52.8112 140.16 52.7631 140.179C52.5601 140.028 51.4789 140.076 49.9237 139.957C49.5172 139.805 48.9774 139.759 48.8071 139.946C48.6514 140.126 48.7314 141.766 48.6493 141.829C46.6618 143.289 44.3339 143.676 41.9387 142.742C41.8981 142.706 42.0885 140.88 41.9936 140.818C40.68 139.906 39.5808 142.052 38.1082 143.205C36.6444 144.356 35.5111 143.702 35.3438 140.455C34.2533 140.647 33.0402 138.907 32.4297 137.829C31.835 136.761 30.5422 140.08 30.4275 140.118C26.8748 141.204 25.6607 138.546 22.5666 135.72C21.3068 134.588 18.5461 132.235 16.8869 129.817C16.756 129.715 16.6285 129.619 16.5109 129.534C15.9186 129.113 16.4485 128.344 15.6638 128.028C15.5583 127.984 14.2082 128.829 14.1415 128.834C12.1128 129.091 15.6946 127.539 16.2305 127.072C18.1777 125.368 19.2038 124.445 17.6933 124.127C17.3507 124.061 12.0616 126.021 11.5518 125.737C10.9064 125.379 12.8038 124.689 12.0854 124.331C12.0254 124.298 10.9193 124.856 10.7894 124.462C10.1718 122.635 9.936 120.317 9.05196 118.129C8.93462 117.824 7.21453 118.864 7.0101 118.415C6.05407 116.315 5.3858 113.452 5.95898 110.529C6.10847 109.815 7.52546 110.092 7.91396 109.9C10.2699 108.818 6.62804 107.826 6.55389 107.546C5.21514 103.703 7.02053 99.8816 8.7235 96.3123C9.13514 95.598 9.41521 94.7906 9.34033 93.7721C9.31267 93.596 6.29844 90.8474 9.56016 91.6322C9.77946 91.6784 13.0898 92.5357 11.1933 91.1336C11.0758 91.0435 9.34263 90.6557 9.76749 90.1522C10.1889 89.6556 9.58487 88.217 11.6871 88.2733C12.3537 88.2818 15.6328 89.2457 13.6189 87.3012C13.4618 87.1923 8.72479 83.1677 12.6368 84.7462C13.2803 85.0083 17.1177 87.2147 15.6072 85.2637C15.3168 84.8826 14.2845 84.6996 13.9977 83.9546C13.5603 82.7999 15.1017 82.5191 13.9442 80.6412C13.7318 80.3196 11.6002 78.0561 13.857 78.7724C14.2085 78.8874 15.3521 79.8417 15.6626 79.6683C17.1373 78.861 17.2462 76.9783 19.0281 76.3255C19.6532 76.1 21.3776 77.7793 22.2243 77.7347C23.0717 77.6873 24.239 77.2307 23.7957 76.0719C23.3633 74.8991 20.0231 72.9314 20.4435 71.9881C22.368 67.8231 27.4716 66.13 32.1259 63.7844C32.8348 63.4327 31.5695 62.576 32.6251 61.9643C32.8928 61.8117 33.1748 61.6492 33.4711 61.4804C36.1621 59.8073 40.7101 56.9965 44.0396 58.833C46.812 60.4171 44.7294 62.8894 46.5325 63.3364C47.3603 63.5622 47.0297 59.0685 47.2023 58.8807C48.7465 57.0256 50.5046 58.6652 52.0876 57.7836C52.422 57.6012 51.7764 55.888 52.0728 55.7515C53.0973 55.2685 54.331 55.9116 55.3287 55.6566C55.7774 55.5386 55.5555 54.1828 55.9983 54.2462C57.0466 54.3856 58.0132 54.8964 59.0425 56.1344C59.1321 56.2475 58.6353 57.9786 59.3528 58.009C60.5268 58.0552 61.9238 59.3042 63.2573 58.0268C63.6486 57.6433 63.7813 54.5074 64.5618 56.7063C64.7266 57.1676 64.3028 60.9104 65.4511 57.7175C65.5674 57.4054 66.282 55.791 67.027 55.1236C67.4836 54.6528 67.9623 54.64 68.1803 55.8284C68.3268 56.5901 68.534 59.707 69.0514 59.2811C69.1268 59.2123 69.0571 57.5082 69.4833 57.3939C70.9955 57.0247 72.6334 57.4595 74.5581 57.3701C75.0839 57.3475 74.7391 55.4717 75.5399 55.5029C77.7551 55.582 80.6345 57.0198 82.7613 58.7129C83.5422 59.338 82.2752 60.3136 82.2719 60.4875C82.0217 63.2313 84.2321 60.5435 84.7035 60.5907C87.4593 60.8665 88.1059 63.4064 90.0685 64.6968C90.6191 65.075 91.439 63.5777 91.6368 63.5661C93.679 63.5927 90.8204 64.8949 91.1812 65.7437C92.1487 68.1164 93.7114 70.0814 94.9768 71.9191C95.4396 72.5923 96.6635 70.8584 97.0713 71.5061C97.8104 72.6783 98.4099 73.8682 98.8827 75.0835C99.9359 77.8082 100.216 80.2683 99.8981 82.4514C99.8046 83.0326 98.2963 82.9624 97.9881 83.136C95.8219 84.2937 99.1348 84.796 99.4742 85.0268C101.01 85.961 99.7703 86.5623 100.106 87.4816C101.775 92.0555 100.77 97.2959 99.8693 101.07C98.6995 105.958 96.8052 109.284 95.6106 114.384C95.5809 114.505 95.5516 114.627 95.5227 114.749C95.4419 115.081 97.4096 115.331 97.3609 115.631C96.5432 119.57 94.4933 123.274 91.0579 128.729C90.7486 129.189 92.7128 129.697 92.2291 130.507C91.2557 132.17 89.18 134.17 86.7947 135.221C85.6424 135.726 85.9924 133.491 84.8882 133.985C82.3447 135.087 79.4244 136.443 76.3055 137.528C74.9523 137.983 77.5377 139.332 75.64 139.778C73.833 140.176 71.9864 140.378 70.2148 140.39C66.6521 140.508 62.7478 140.261 58.688 137.339C58.3521 137.102 58.8413 133.278 57.9739 133.839C57.6818 134.868 57.4034 136.093 57.1224 137.2C54.2781 136.748 51.0933 135.819 47.2862 133.462C43.6027 131.22 38.6245 126.483 36.6239 119.876C36.1353 117.965 35.7571 116.105 35.3861 114.294C35.3298 114.02 33.4574 114.966 33.3367 114.425C32.6493 111.321 31.6351 108.372 33.3744 105.18C33.5458 104.868 37.1283 104.695 36.5212 103.914C36.4087 103.779 35.8464 102.558 35.0544 102.272C34.9347 102.232 33.2751 102.561 33.2045 102.142C32.8262 99.7213 33.2037 97.1585 34.3391 94.8002C34.5256 94.4257 36.2867 94.9197 36.4353 94.6543C37.475 92.8104 36.3104 90.5951 38.2253 88.7773C39.5233 87.5746 42.4859 88.5786 45.5868 88.4995C46.0206 88.4936 46.2626 87.7087 47.9899 88.0923C52.3152 89.0889 56.9957 90.4143 61.6193 91.4207C62.6293 91.5829 61.5306 91.4423 63.9344 91.9876C64.1044 91.9892 64.892 92.2069 65.6997 92.4264C66.2615 92.5618 68.024 92.9034 68.7438 93.0737C69.4642 93.2379 67.9752 93.0103 68.8094 93.2857C69.6561 93.5585 71.6823 93.8105 71.8842 94.1028ZM29.9507 132.808C30.0098 130.912 26.8345 136.336 28.5265 135.521C28.6118 135.474 29.9538 132.904 29.9507 132.808ZM90.6598 107.927C89.0573 105.568 90.0596 109.545 91.2567 111.38C92.4419 113.217 91.1413 108.644 90.6598 107.927ZM96.6332 103.673C95.1755 101.859 97.9163 110.334 98.1322 108.362C98.1454 108.25 96.7173 103.779 96.6332 103.673ZM46.0087 91.4289C46.0913 91.4359 46.2329 90.9537 46.1529 90.9334C44.2083 90.4062 43.9217 91.4033 46.0087 91.4289ZM102.715 99.4199C102.112 98.344 101.834 99.885 102.572 101.225C103.154 102.307 103.458 100.76 102.715 99.4199ZM23.9354 101.001C24.0253 101.027 24.2192 100.769 23.7263 100.577C22.1368 99.9619 22.4188 100.554 23.9354 101.001ZM114.669 94.9141C112.609 95.8049 108.691 89.4624 110.322 89.5353C110.654 89.5176 110.944 91.8814 111.595 92.2743C112.917 92.9106 110.791 88.7763 112.844 90.3784C113.226 90.6677 114.811 94.8685 114.672 94.9246C114.671 94.9211 114.67 94.9176 114.669 94.9141ZM33.0384 125.914C33.0658 125.836 32.7348 125.563 32.6846 125.627C31.4456 127.218 32.2536 127.852 33.0384 125.914ZM35.9196 87.5527C36.0704 87.6434 36.7793 87.0535 36.6771 86.9267C34.5389 84.4016 32.9776 85.7287 35.9196 87.5527ZM56.4615 118.865C55.4136 117.098 55.6144 116.58 57.6202 118.145C57.2063 118.359 56.8697 118.652 56.4615 118.865Z" fill="#9E6868" fill-opacity="0.75"/>
<path d="M157.725 54.6992C158.205 55.1335 157.856 56.418 157.311 57.6223C157.191 57.2197 157.049 56.8319 156.892 56.4672C156.416 55.4149 155.454 56.2245 155.06 55.6143C154.283 54.491 154.236 53.2095 153.239 52.6434C152.917 52.484 151.668 53.7794 151.391 53.6337C149.941 52.9559 149.709 52.3552 149.31 52.5263C149.15 52.6179 149.08 52.7589 149.081 52.918C148.732 53.4704 149.779 54.2963 150.846 54.7183C151.957 55.1705 153.263 55.3693 154.551 55.3508C155.452 55.2595 156.302 55.1541 157.157 55.0233C158.836 54.7794 161.363 55.4974 162.495 54.1156C162.625 53.9541 161.807 52.635 161.779 52.5057C161.309 50.5446 162.633 53.3791 163.146 53.5688C165.168 54.3212 166.664 53.4316 167.152 52.1644C167.352 51.6252 164.881 49.7294 166.409 50.6562C166.516 50.7148 167.57 51.9826 167.794 52.0083C168.306 52.0633 168.52 51.4024 168.778 51.2981C169.288 51.1 169.332 51.0172 169.622 50.6657C170.025 50.1983 171.143 49.9757 171.168 49.1501C171.165 48.978 169.595 48.3405 169.444 48.0149C169.292 47.6964 169.668 47.2506 170.115 47.2169C170.562 47.1901 171.74 47.7998 172.033 47.8867C174.538 48.5645 171.567 46.4163 171.504 46.3199C171.021 44.734 171.847 43.8103 173.039 41.7252C173.28 41.7579 173.518 41.6632 173.517 41.6222C173.522 41.5705 173.308 41.6737 173.292 42.1638C173.257 42.6292 173.583 43.4867 174.154 43.9205C174.497 44.1915 174.856 44.3046 175.102 44.3052C175.883 44.296 175.374 43.5695 174.632 43.7119C174.527 43.7263 174.639 45.7072 174.533 45.7294C173.375 45.9626 171.471 46.0984 168.984 45.5446C168.727 45.4893 168.437 43.7495 168.139 43.5988C166.381 42.6676 162.413 40.6752 164.981 47.8711C164.684 47.9203 164.377 47.9771 164.04 48.0172C163.248 48.1046 162.321 48.0816 161.209 47.4794C160.185 46.9379 159.749 44.9975 159.491 46.0878C159.433 46.3319 160.475 47.6427 160.329 47.8983C159.727 48.9658 158.437 49.146 158.014 50.4581C157.931 50.7277 158.808 51.9303 158.907 52.1865C159.704 54.2608 156.988 51.7804 156.674 51.6831C154.369 50.9264 153.926 52.2015 152.81 52.9933C152.55 53.1778 154.063 54.5347 153.86 54.7666C152.795 55.9461 151.44 56.8222 149.687 57.1486C149.293 57.2182 148.433 55.7165 148.187 55.6849C147.108 55.5704 149.087 58.1067 148.109 58.0412C147.905 58.0318 147.004 56.8844 146.878 56.7822C144.891 55.1866 146.976 58.0956 146.951 58.2235C146.661 59.9281 143.489 57.8074 142.868 59.1363C142.799 59.2953 144.338 60.3703 144.071 60.7337C142.841 62.4236 141.289 63.8381 139.486 64.9679C138.711 65.4473 137.891 65.8768 137.017 66.2675C136.571 66.4717 135.667 65.379 135.517 65.2941C133.113 64.0427 135.77 66.4563 135.798 66.6425C135.924 68.0908 132.821 67.3291 135.985 70.2741C132.198 73.4683 132.708 78.2639 128.005 81.889C127.949 81.9394 126.256 81.4472 126.15 81.554C124.864 82.8479 127.604 83.1478 130.741 84.6058C131.533 84.9503 127.436 85.0332 127.132 85.0771C126.018 85.1665 123.462 84.545 123.241 84.5986C121.498 85.1062 130.092 86.1245 130.003 86.9388C129.985 86.9648 128.414 86.6766 128.248 86.733C127.729 86.912 128.335 87.2046 127.768 87.3765C126.458 87.766 122.243 87.6602 124.629 88.6914C124.94 88.8168 129.846 88.9709 129.575 89.7265C129.459 90.0248 129.502 91.4134 129.185 91.7994C128.864 92.1936 127.284 91.9111 127.215 91.9376C125.119 93.0323 124.254 92.6241 121.161 93.2398C118.083 93.8874 125.441 93.606 126.266 93.8162C126.526 93.8834 126.534 94.0131 126.405 94.1666C126.124 94.4738 125.204 94.913 124.802 95.0727C124.214 95.3027 123.196 95.1139 122.868 95.3154C120.745 96.7287 126.549 95.548 127.741 95.7749C130.56 96.1472 125.231 97.4099 124.907 98.3935C124.816 98.6298 125.983 98.1717 126.137 98.3079C126.721 98.7857 125.26 99.7896 126.984 99.8344C127.294 99.9034 130.351 98.6937 128.405 100.117C128.135 100.34 126.893 100.922 126.779 101.313C126.734 101.47 126.717 101.644 126.731 101.817C126.752 102.269 127.042 102.713 127.51 102.711C127.973 102.698 129.304 100.865 129.056 101.592C128.963 101.929 127.832 102.671 127.77 103.257C127.712 103.858 128.551 104.414 128.896 104.564C129.239 104.723 129.944 103.158 130.032 103.078C130.514 102.609 131.378 102.143 131.414 102.16C131.902 102.354 132.351 102.646 132.812 102.979C133.768 104.026 136.3 105.48 138.357 103.951C138.558 103.804 137.806 102.168 137.83 102.128C138.263 101.167 139.356 105.85 140.552 107.096C139.115 103.751 139.694 104.236 140.087 103.622C140.271 103.324 139.539 102.109 139.504 101.967C138.954 99.865 140.386 102.238 140.719 102.704C141.916 104.432 141.078 102.097 141.9 103.233C142.741 104.347 143.261 106.392 143.839 106.048C143.361 104.824 141.335 102.055 141.451 101.36C141.716 99.6001 143.554 99.3465 145.22 99.0334C145.795 99.0471 146.38 98.9675 146.685 98.7825C147.636 98.1798 147.655 97.7005 148.434 97.3838C149.848 96.7093 147.424 95.8202 146.716 94.6885C145.971 93.5787 151.46 96.4914 152.721 96.9503C153.995 97.3753 152.809 96.6635 153.552 96.7939C154.3 96.9135 154.968 97.6576 155.403 97.345C155.857 96.9995 154.06 95.011 152.768 94.4525C150.058 93.226 146.985 92.6467 148.283 92.1658C148.361 92.1343 149.871 92.781 150.09 92.6317C151.216 91.8184 151.8 90.706 152.45 89.5914C152.771 89.0482 153.107 88.4925 153.54 87.9329C153.721 87.6999 155.505 88.1185 155.631 87.9777C156.939 86.4612 153.828 86.7483 150.474 85.8109C154.986 86.2139 157.798 85.8687 157.834 84.5411C157.85 83.7592 155.869 83.9115 154.465 83.4857C154.042 83.3656 155.379 82.8036 154.444 82.7545C151.389 82.6226 148.023 83.2355 149.302 82.121C149.362 82.0687 151.034 82.0865 151.121 81.9127C151.679 80.7624 148.501 80.9827 147.965 80.0406C147.549 79.3176 149.129 77.4913 149.126 76.4498C154.013 74.9933 152.524 74.2028 149.111 75.135C149.023 74.4985 148.581 73.9881 148.749 73.25C148.803 72.9941 150.173 72.4331 150.303 72.3377C151.167 71.677 151.066 71.5217 150.669 71.5851C150.137 71.6643 149.08 72.1324 148.975 72.1062C147.198 71.6362 148.386 69.0108 145.62 69.8564C145.512 69.8808 143.084 72.4492 144.591 70.3333C144.682 70.1766 146.091 69.2705 145.696 68.7599C145.359 68.2858 145.317 65.9133 143.659 66.8776C143.235 67.0928 141.561 69.4552 142.15 67.2622C142.223 66.9611 142.698 66.0619 142.846 65.5095C143.27 63.7312 141.781 66.9832 142.556 64.0267C143.343 61.0731 142.942 58.5075 141.173 60.2508C141.111 60.2991 140.223 63.0024 139.92 62.8996C139.413 62.7245 138.71 62.0345 138.115 62.0138C138.105 62.0134 138.096 62.0152 138.087 62.0188C137.838 62.1233 137.901 63.7744 137.853 63.8024C136.166 64.7068 135.002 63.2106 132.877 62.9717C132.45 62.9349 132.208 65.4835 130.988 63.9045C129.562 62.2205 127.424 53.7439 125.935 56.5874C125.216 57.8088 129.411 67.9437 125.566 63.6074C124.055 66.1033 120.346 65.2839 119.651 68.5777C119.618 68.7263 121.397 71.2404 121.185 71.3791C120.858 71.587 119.724 70.6905 119.453 70.8182C118.287 71.3325 118.393 72.969 117.485 73.6596C117.14 73.9279 116.162 72.8075 115.742 73.1421C115.324 73.4798 116.543 75.0348 115.378 74.9356C114.492 74.8592 111.115 72.6807 110.276 72.9565C113.26 75.5076 112.879 75.8317 113.13 77.1613C113.181 77.4167 114.351 78.1443 114.43 78.3093C114.549 78.5457 114.503 78.6424 114.407 78.6966C114.238 78.7827 113.88 78.7302 114.185 79.1644C114.297 79.3226 115.379 80.1145 115.539 80.2791C116.977 81.6498 114.229 80.3958 113.67 80.339C112.687 80.0772 112.549 80.2418 112.581 80.4086C112.609 80.5841 112.801 80.7653 112.38 80.8173C111.528 80.9952 110.724 80.133 110.133 80.5761C108.925 81.5332 109.328 83.7254 110.158 84.8602C110.221 84.9602 110.285 85.0571 110.348 85.1489C110.703 85.6318 111.839 84.1784 111.924 84.2236C112.717 84.5247 112.494 86.6651 114.749 83.8686C110.552 92.0888 115.61 83.3724 115.666 85.4085C115.672 85.5724 114.158 89.6678 113.45 90.0572C112.719 90.4324 112.683 88.902 111.568 89.3933C111.368 89.5618 108.078 92.2787 107.686 92.2786C105.054 92.6775 109.307 87.6258 109.561 87.3934C110.797 85.5324 110.196 85.5704 109.127 85.5361C108.342 85.5543 107.328 85.5548 107.116 85.4108C104.772 83.7458 105.602 81.0432 105.11 79.1272C104.792 77.8212 100.873 76.1593 101.469 75.0918C103.06 72.5382 106.579 73.9681 106.845 72.5533C106.86 72.2184 106.585 71.6088 105.878 70.5537C105.237 69.6039 101.44 66.8712 105.033 68.2944C105.263 68.3794 108.382 69.8887 107.117 68.1131C106.958 67.8881 105.932 66.9964 105.905 66.8549C105.737 65.9251 106.812 66.3442 106.86 65.5195C106.912 64.69 106.894 63.572 107.76 63.3354C108.282 63.1878 110.504 64.5397 111.09 64.8294C112.771 65.6692 111.185 63.1269 112.961 64.4197C114.724 65.7415 116.519 68.5879 118.127 68.9994C115.732 66.4049 113.313 63.7057 110.935 61.0675C112.725 59.5685 115.23 58.9504 117.128 57.4011C117.365 57.2041 116.005 55.8418 116.242 55.5846C117.271 54.4945 119.076 54.9384 120.157 53.7008C120.99 52.7379 121.338 50.2962 122.484 49.2363C124.904 52.5729 126.195 50.5836 127.827 50.4903C128.38 50.4597 128.642 51.5089 129.088 51.7511C130.744 52.666 129.267 49.3654 129.537 48.7204C130.874 45.9766 132.518 53.8851 134.19 53.491C134.238 53.4708 135.18 49.0775 135.413 48.8051C136.575 47.0113 135.674 50.2916 136.407 50.5918C137.321 50.977 137.978 51.604 138.81 51.6001C139.204 51.6 139.636 51.4675 140.173 51.129C140.628 50.8012 142.253 48.3249 142.766 50.5572C142.827 50.8478 142.47 52.2276 142.541 52.3279C143.783 54.0334 144.931 49.7346 146.445 48.6073C147.996 47.4969 148.5 51.0203 148.386 51.9492C148.209 54.379 147.445 52.617 147.313 52.8154C145.878 55.1406 146.993 55.0734 147.582 55.5986C145.869 59.6332 146.748 59.7719 148.191 56.1298C148.341 55.7264 147.635 55.8411 147.582 55.5986C149.942 51.9382 151.7 52.2006 150.751 56.3429C150.273 58.2741 148.641 59.8009 150.439 60.0655C151.257 60.2119 152.821 57.6096 153.939 57.4341C156.586 57.1154 156.379 60.8456 157.777 61.878C158.316 62.2843 159.192 60.7398 159.617 61.0018C160.771 61.7349 160.386 63.3477 161.569 64.0588C161.681 64.1276 163.005 62.9743 163.239 63.3166C163.458 63.6329 163.651 63.9566 163.823 64.2891C165.03 66.6403 165.066 69.0122 165.76 71.3132C166.154 72.5758 167.631 74.6232 167.67 75.9776C167.786 78.3556 165.519 81.2087 166.177 82.9575C166.6 84.1305 168.319 83.8501 169.503 84.3859C171.801 85.4852 167.618 87.2572 166.965 87.4061C166.947 87.4064 166.594 86.3509 165.678 86.8537C163.813 87.0587 166.958 87.3896 166.965 87.4061C166.558 87.543 165.98 89.5771 166.241 90.041C166.391 90.2917 168.034 90.3756 168.08 90.507C168.292 91.1369 168.448 91.7796 168.546 92.4278C168.97 94.827 168.522 97.3125 167.075 99.5927C167.025 99.6356 165.321 98.9497 165.226 99.0535C163.855 100.461 165.472 102.386 165.851 104.598C166.231 106.792 164.909 108.049 161.703 107.137C161.243 108.522 158.789 109.282 157.362 109.492C155.957 109.695 158.197 112.45 158.15 112.593C157.84 113.59 157.348 114.358 156.762 114.944C155.844 116.12 154.169 115.771 152.509 116.519C151.477 116.986 149.7 118.584 148.597 119.538C147.739 120.3 146.781 119.81 145.994 120.706C145.884 120.827 146.613 122.248 146.594 122.322C146.089 124.562 145.27 120.706 144.793 120.146C143.057 118.089 142.256 116.965 141.117 118.515C140.904 118.859 141.079 124.582 140.238 125.072C139.21 125.679 139.306 123.633 138.235 124.275C138.14 124.326 138.329 125.557 137.556 125.585C134.234 125.722 130.149 124.888 126.26 123.644C126.04 123.576 125.82 123.508 125.601 123.442C125.161 123.303 125.09 125.359 124.416 125.173C121.26 124.3 117.846 122.426 115.556 119.411C115.004 118.666 116.316 117.959 116.428 117.524C117.196 114.976 113.62 116.482 113.316 116.255C112.136 115.51 111.137 114.538 110.315 113.432C107.159 109.124 107.594 104.431 105.677 100.682C105.533 100.472 101.408 98.7369 104.632 97.5474C104.843 97.4465 108.142 96.4008 105.806 95.8495C105.66 95.8104 103.948 96.4066 104.084 95.5118C104.122 95.2726 104.065 95.0094 103.998 94.718C103.819 94.1173 103.557 93.3405 104.955 92.6429C105.556 92.3392 108.92 91.6911 106.255 90.7731C106.065 90.7426 100.04 89.097 104.25 88.7467C104.944 88.6915 109.359 88.9932 107.152 87.8088C106.725 87.5754 105.714 87.8969 105.134 87.3027C104.241 86.369 105.515 85.351 103.672 84.0525C103.343 83.8393 100.454 82.6339 102.809 82.2543C103.177 82.1994 104.616 82.5881 104.827 82.2708C105.833 80.7745 105.159 78.8914 106.517 77.4611C106.996 76.9562 109.264 77.7707 110.019 77.3438C110.775 76.9099 111.65 75.9598 110.763 75.0763C109.876 74.1877 106.014 73.8363 105.995 72.7947C105.958 68.175 109.728 64.8562 111.981 61.3258C112.32 60.7976 110.867 60.6139 111.297 59.7728C112.811 56.6732 115.26 50.9274 119.362 50.5765C122.573 50.3388 122.168 53.5884 123.94 52.9395C124.383 52.7821 123.814 51.7351 123.197 50.7247C122.627 49.8315 122.013 48.9722 122.023 48.8619C122.192 46.541 124.489 46.9657 125.157 45.4159C125.298 45.0934 123.788 44.0692 123.925 43.8057C124.385 42.8918 125.667 42.7498 126.22 42.011C126.464 41.6778 125.459 40.7415 125.807 40.5547C126.628 40.0983 127.608 39.9709 129.114 40.3338C129.25 40.3681 130.017 41.9791 130.537 41.5888C131.378 40.9521 133.172 41.052 133.217 39.2846C133.227 38.7563 131.203 36.3607 133.196 37.5083C133.614 37.7478 135.879 40.7589 134.468 37.6983C134.222 37.197 132.628 32.8234 134.998 34.55C135.621 35.0038 137.926 37.1041 137.957 36.4635C137.956 36.3666 136.729 35.1898 136.908 34.8391C137.563 33.6255 138.732 32.9606 139.481 31.756C139.682 31.4305 138.223 30.3389 138.56 29.8953C139.489 28.6695 141.279 27.9596 142.804 27.6019C143.368 27.4728 143.853 28.8832 143.973 28.9918C145.893 30.7847 144.315 27.6992 144.387 27.413C144.849 25.6836 146.574 26.5206 147.421 25.5197C147.66 25.246 146.615 23.9542 146.6 23.7928C146.505 22.1876 147.527 25.0109 148.085 25.0624C149.458 25.2018 150.537 24.6016 151.533 23.9105C151.672 23.814 151.809 23.7162 151.943 23.6189C152.348 23.3241 150.986 21.8768 151.368 21.6287C153.626 20.1218 156.415 19.1033 159.441 19.155C160.007 19.1706 160.174 20.6676 160.386 20.9485C161.833 22.927 161.87 19.5614 162.056 19.1886C162.823 17.5069 163.649 18.6279 164.658 18.1266C169.457 16.1364 175.968 14.4298 187.003 19.5762C187.863 20.0362 188.705 20.551 189.52 21.12C195.574 25.1375 198.797 32.4902 199.124 37.3898C199.582 42.4963 198.679 46.1786 197.35 49.9567C197.262 50.0366 197.031 50.8136 196.825 51.7597C196.758 52.0533 198.716 52.3266 198.68 52.5961C198.083 56.2584 195.526 60.7809 193.161 65.3012C192.957 65.6837 194.849 66.1869 194.559 66.8518C193.985 68.2077 192.736 69.6793 191.348 70.3869C190.672 70.7371 190.078 68.9929 189.434 69.3491C187.947 70.1511 186.719 71.2165 185.758 72.4953C185.352 73.0395 187.382 73.7576 186.732 74.3721C182.291 78.5919 177.309 81.7418 171.718 81.4398C171.317 81.4252 169.599 77.9739 169.253 78.905C169.598 79.9171 170.061 81.085 170.458 82.1556C167.643 83.5533 164.749 84.3275 161.918 84.809C157.106 85.7119 152.336 85.6054 147.511 85.0347C147.143 84.9899 147.594 87.0851 146.856 87.0038C143.094 86.5527 139.109 86.1651 135.134 82.9511C134.658 82.5391 134.199 82.0837 133.75 81.5719C133.374 81.1374 135.332 78.1492 133.813 77.8756C133.548 77.8569 131.335 76.9422 130.294 77.0712C130.142 77.0985 129.507 78.7403 128.762 78.1986C124.705 75.3803 120.2 68.4986 120.561 61.2713C120.596 61.1409 120.633 61.0117 120.673 60.8836C120.803 60.474 122.618 60.7261 122.727 60.4362C123.492 58.3963 121.994 56.2606 123.658 53.864C124.803 52.2229 127.866 52.9517 130.952 52.3678C131.372 52.339 131.615 51.1039 133.395 51.3331C137.712 52.3659 142.473 53.3354 147.109 54.2827C147.354 54.352 147.463 54.4534 147.474 54.7403C147.463 55.0332 147.48 55.411 146.919 56.7749C146.75 57.1488 146.593 57.5039 146.185 58.1413C145.789 58.736 145.367 59.3579 144.368 60.2654C143.902 60.6825 143.368 61.0849 142.803 61.434C142.236 61.7911 141.391 62.1969 140.694 62.4396C139.247 62.9554 138.052 63.0577 137.577 63.1354C137.089 63.1991 137.257 63.3027 138.222 63.3233C139.15 63.3425 141.065 63.1273 142.952 62.199C146.395 60.5102 147.824 58.1532 148.591 57.301C148.736 57.1027 149.123 56.3994 149.379 55.9441C149.66 55.4309 149.87 55.1362 150.083 54.9196C150.502 54.5011 150.915 54.4417 151.34 54.423C151.923 54.4065 153.689 54.7751 154.445 54.6643C155.198 54.552 153.7 54.3718 154.566 54.4485C155.443 54.5346 157.485 54.529 157.725 54.6992ZM151.478 109.454C149.967 108.415 153.414 113.666 153.193 111.993C153.178 111.905 151.555 109.503 151.478 109.454ZM118.217 62.7063C120.588 64.3627 118.617 60.757 116.807 59.4418C114.955 58.1667 117.476 62.2235 118.217 62.7063ZM113.288 70.0749C115.507 70.9016 109.18 64.6296 109.743 66.6592C109.774 66.7755 113.158 70.0289 113.288 70.0749ZM131.729 55.6315C131.811 55.6179 131.884 55.0892 131.802 55.0744C129.803 54.7949 129.659 55.9171 131.729 55.6315ZM109.685 78.0666C110.887 78.3433 110.216 76.8259 108.728 76.3693C107.476 76.0623 108.117 77.8253 109.685 78.0666ZM121.931 99.1333C122.019 99.1006 122.024 98.7459 121.509 98.8645C119.848 99.2528 120.441 99.6735 121.931 99.1333ZM118.786 89.6015C115.954 88.9503 117.941 81.6176 118.689 82.6963C118.912 82.8918 117.729 84.8977 117.912 85.6115C118.166 86.2818 118.638 85.4809 118.947 84.8062C119.274 84.1331 119.506 83.6003 119.966 84.8377C120.14 85.2925 119.016 89.6593 118.782 89.6115C118.783 89.6082 118.785 89.6049 118.786 89.6015ZM146.889 103.455C146.833 103.393 146.407 103.588 146.444 103.662C147.341 105.463 148.233 105.05 146.889 103.455ZM126.594 80.3952C126.769 80.4157 127.184 79.4949 127.037 79.4238C124.039 78.0087 123.149 80.0207 126.594 80.3952ZM149.252 76.395C147.212 76.5932 146.872 76.34 149.11 75.1377C149.13 75.5652 149.246 75.9627 149.252 76.395Z" fill="#9E6868" fill-opacity="0.75"/>
<path d="M209.686 50.3403C208.905 50.6595 207.99 50.8099 207.025 50.8513C213.981 49.2968 214.481 46.7019 214.556 46.2586C214.521 45.9294 213.622 45.2618 213.476 45.0924C213.128 44.8313 213.368 45.4061 212.693 45.4973C212.458 45.5346 211.096 44.3953 210.874 44.4707C209.629 44.9599 209.345 46.3905 208.317 47.6049C206.3 50.0079 204.442 52.9844 202.736 56.0923C200.708 59.3411 199.523 63.5788 198.986 68.3853C198.68 70.9614 197.298 74.4729 198.36 77.3484C198.485 77.6806 199.996 77.2871 200.131 77.3363C202.194 78.0906 199.053 78.1526 198.733 78.883C197.52 81.6712 197.872 84.688 198.922 87.1831C198.948 87.2122 198.975 87.24 199.003 87.2665C199.343 87.5577 202.223 86.4302 200.631 87.1313C200.528 87.1908 198.935 87.6071 198.8 87.7611C198.501 88.1294 198.981 88.4729 198.979 88.7164C198.977 89.2178 199.043 89.2863 199.325 89.6779C199.689 90.2058 199.867 91.523 200.954 91.8775C201.181 91.9425 201.971 90.4303 202.402 90.3931C202.761 90.3586 203.288 90.8012 203.519 91.2605C203.539 91.3291 203.549 91.399 203.548 91.4684C203.544 91.9297 202.791 93.0213 202.676 93.3061C201.81 95.78 204.356 93.0618 204.404 92.9723C206.577 92.2536 207.725 94.3895 210.054 94.0756C210.832 93.9486 211.618 93.5841 212.285 93.1813C212.317 92.9884 212.22 92.8811 212.439 92.7441C212.931 92.4859 214.667 91.4157 215.195 89.2311C215.252 89.0043 213.286 88.6511 213.346 88.3882C213.989 85.5791 214.738 82.1298 216.435 78.467C216.607 78.098 218.291 78.7588 218.567 78.3953C220.223 76.1632 223.896 72.4043 216.44 70.3866C216.85 68.672 217.307 66.4613 219.042 64.8177C220.173 63.7312 221.883 65.1747 221.299 63.5973C221.179 63.2231 219.464 63.4126 219.415 62.8439C219.372 62.4028 219.414 61.8108 219.501 61.265C219.364 61.3722 219.347 61.5952 219.306 61.7425C219.263 61.8983 219.17 61.9735 218.843 62.0856C218.672 62.1397 217.314 62.7437 217.074 62.8631C215.748 63.607 216.953 63.0987 217.667 62.3573C218.018 62.0985 218.297 61.8318 218.347 61.7678C218.945 60.9475 218.75 60.3203 218.42 59.9866C218.076 59.6356 217.568 59.5136 217.127 59.2595C216.928 59.1461 216.253 61.0415 216.074 61.0206C215.691 60.9768 215.392 60.9185 215.142 60.7917C214.856 60.6357 214.361 60.3199 213.69 59.882C213.414 59.7053 213.492 57.9886 213.331 57.8202C212.506 57.1259 212.929 60.3197 212.274 59.7641C212.124 59.6558 211.817 58.231 211.754 58.0821C210.655 55.7757 211.327 59.3048 211.315 59.3938C210.912 60.2176 210.109 59.4392 209.188 59.0044C208.592 58.6939 207.954 58.5601 207.768 59.019C207.732 59.1436 209.14 60.3486 209.01 60.5753C208.612 61.3508 208.172 62.0431 207.545 63.3471C206.988 64.4918 206.52 65.5533 206.022 66.2567C205.862 66.4893 204.524 66.8548 204.36 66.9054C203.161 67.5156 203.469 67.6557 204.03 67.4849C204.598 67.3304 205.423 66.9027 205.49 66.884C205.646 66.8528 205.709 66.8457 205.728 66.868C205.753 66.8979 205.601 67.3045 205.824 67.3863C206.027 67.4592 206.553 67.1505 207.341 65.5273C207.641 66.0602 208.725 66.3918 209.823 66.3687C212.056 66.3374 214.222 65.2429 216.508 64.2014C217.728 63.6267 219.104 62.9844 220.822 62.256C220.906 62.215 222.241 63.3716 222.408 63.2782C224.427 62.0957 221.938 60.8405 219.64 58.1513C219.04 57.5157 223.061 58.5386 223.38 58.5547C224.51 58.733 226.691 60.2242 226.934 60.2119C228.895 59.9741 221.007 56.4156 221.47 55.3587C221.498 55.3287 222.896 56.11 223.083 56.0773C223.671 55.9716 223.213 55.4252 223.842 55.3317C225.29 55.1295 229.348 56.3142 227.467 54.3092C227.217 54.0592 222.524 52.6265 223.105 51.6348C223.347 51.2418 223.875 49.2586 224.34 48.7715C224.809 48.2907 226.218 49.1167 226.296 49.0961C228.754 48.0945 229.421 48.9164 232.634 48.9153C233.691 48.9069 233.619 48.7172 233.022 48.4499C231.814 47.8875 228.425 47.062 227.925 46.7856C227.195 46.3464 228.939 46.2362 229.525 46.1346C230.11 45.9924 231.127 45.9691 231.433 45.7489C232.645 43.1812 228.305 47.6522 228.224 48.9699C228.404 50.198 228.809 50.2446 228.845 49.8176C229.013 48.9708 228.502 46.3771 227.765 46.0799C227.48 45.9588 227.803 47.178 227.602 47.315C227.216 47.5818 226.849 47.3346 226.451 47.2577C226.068 47.1774 225.637 47.2859 225.563 48.1801C225.55 48.3259 225.752 49.2107 225.886 49.771C226.005 50.3406 226.06 50.5664 225.196 49.7125C224.934 49.4777 224.251 48.2787 223.785 48.2658C223.755 48.2654 223.724 48.2661 223.694 48.2677C222.917 48.3607 221.911 49.0363 221.839 49.8442C221.793 50.4528 223.905 51.3776 223.014 51.4081C222.607 51.4417 221.843 50.2531 221.141 50.4241C220.42 50.5966 219.74 51.9253 219.575 52.4563C219.393 52.9867 221.084 53.3654 221.17 53.4549C221.666 53.9425 222.154 55.0175 222.139 55.0813C221.606 57.1129 220.539 59.5937 220.412 61.4519C220.249 61.0388 219.84 60.5105 219.425 60.2654C219.013 60.0096 218.708 59.9852 218.572 59.9955C218.299 60.0358 218.491 60.1365 218.723 60.1099C219.224 60.0741 219.969 59.7134 220.547 59.1243C220.549 59.1228 220.55 59.1212 220.551 59.1196C220.781 58.8666 219.653 57.4842 219.681 57.4324C220.146 56.2319 222.041 60.7004 223.731 61.4698C221.514 58.579 222.32 58.832 222.736 57.9788C222.929 57.5662 221.85 56.6296 221.788 56.4942C220.811 54.522 222.906 56.3419 223.39 56.6645C225.122 57.8932 223.728 55.8139 224.908 56.5916C226.113 57.3289 227.08 59.2813 227.727 58.5593C226.94 57.4928 224.028 55.6282 224.039 54.8034C223.986 51.9011 228.44 49.8063 229.585 47.9752C230.699 46.2904 230.701 45.5849 231.564 44.6559C233.094 42.9287 230.445 42.8202 229.718 41.2987C228.956 39.8036 234.762 42.067 236.101 42.2504C237.443 42.4103 236.177 41.8297 236.951 41.7734C237.727 41.7059 238.46 42.4948 238.885 41.9544C238.956 41.8636 238.962 41.7244 238.916 41.5551C238.736 40.6063 237.073 38.9566 235.887 38.8392C234.413 38.609 232.894 38.6871 231.884 38.662C230.887 38.667 230.328 38.6264 230.985 39.0713C231.057 39.0865 232.609 38.5728 232.79 38.6032C233.035 38.6488 233.33 38.7072 233.429 38.5662C233.534 38.4347 233.421 38.1858 233.181 37.9558C232.302 37.119 230.721 36.6498 229.108 36.1146C228.748 35.9984 228.855 34.1569 228.619 34.073C226.029 33.3132 227.352 36.248 227.448 39.7434C226.342 35.3644 224.814 32.8271 222.86 33.7047C222.665 33.7954 222.538 33.9266 222.463 34.0863C222.146 34.8186 222.901 36.1662 223.006 37.4299C223.056 37.8826 221.721 37.1116 222.112 37.9706C223.441 40.7452 225.799 43.2309 223.929 42.9063C223.839 42.8929 223.01 41.434 222.768 41.4888C221.166 41.8994 223.091 44.4472 222.356 45.7047C221.791 46.6726 218.921 47.0766 217.789 48.164C213.658 45.1731 213.676 47.2147 216.353 49.5716C215.701 50.3349 215.333 51.3638 214.441 51.9925C214.134 52.2113 212.941 51.3171 212.781 51.2788C210.25 50.707 213.063 52.7136 213.087 52.9613C213.18 55.6624 210.007 56.4709 211.488 59.6003C211.542 59.715 214.791 61.115 212.161 60.7559C211.98 60.7328 210.755 59.4295 210.244 60.4159C209.829 61.2188 208.081 62.2667 208.032 63.7358C208.025 64.0515 208.111 64.3757 208.318 64.7198C208.579 65.2038 211.129 66.7152 208.804 66.8078C208.487 66.8264 207.522 66.4946 206.941 66.501C205.082 66.5642 208.537 67.5051 205.456 67.4641C202.379 67.4055 199.862 68.6315 201.893 70.5565C201.952 70.6258 204.77 71.0913 204.732 71.5588C204.661 72.33 204.161 73.5079 204.318 74.349C204.393 74.7444 206.087 74.1962 206.13 74.2587C206.65 75.0999 206.856 75.8461 206.946 76.6591C206.733 77.161 207.275 78.7667 208.737 79.8225C209.045 80.0552 210.194 79.2792 210.938 79.4397C211.223 79.4998 211.453 79.7381 211.632 80.3557C212.387 82.5133 210.066 91.1763 214.292 89.1629C216.188 88.2431 215.683 77.2672 218.631 82.3933C221.901 80.1362 226.181 81.4431 228.706 77.9604C228.819 77.8049 227.905 74.8394 228.252 74.707C228.779 74.511 229.721 75.63 230.127 75.5199C231.624 75.1441 232.399 73.695 233.557 72.8843C233.727 72.7648 233.902 72.6587 234.087 72.5703C234.617 72.3085 235.272 73.6549 235.954 73.2744C236.655 72.8587 235.793 71.0675 237.134 71.1041C238.132 71.1467 241.683 73.2127 242.915 72.3802C239.835 69.9375 240.398 69.38 240.147 67.7604C240.09 67.4556 238.782 66.9894 238.691 66.8151C238.276 66.1251 239.453 66.3125 238.933 65.6191C238.806 65.4553 237.591 64.8887 237.414 64.7338C235.834 63.4661 238.947 63.6933 239.523 63.6075C241.649 63.4953 240.067 62.6485 240.959 62.29C241.859 61.8797 242.612 62.9961 243.238 62.383C244.544 61.0664 244.583 59.0015 244.822 57.5444C244.912 56.9599 243.086 57.1337 243.058 57.0448C242.783 55.6823 244.738 55.0746 241.757 53.3566C241.881 52.779 242.639 52.2359 243.206 52.0694C243.222 52.0192 243.238 51.9681 243.255 51.9163C244.138 54.1295 243.81 55.2894 243.81 55.6495C243.758 56.0241 243.812 55.6815 244.087 55.1703C244.353 54.6584 244.839 53.9822 245.388 53.6748C245.922 53.3572 246.542 53.4496 246.604 54.1901C246.682 54.4963 243.276 57.2302 242.857 57.7192C242.65 57.9632 242.819 57.873 242.967 57.7966C243.046 57.7611 243.125 57.7369 243.234 57.793C243.349 57.8471 243.482 57.9938 243.832 58.2438C243.915 58.295 244.073 58.5676 244.508 58.8702L248.358 55.448C249.497 55.9428 251.844 56.6725 252.023 56.7458C253.841 57.5237 247.37 56.8318 247.009 56.8171C243.099 56.8796 247.315 58.6871 247.574 59.0553C248.761 60.7857 247.638 62.1028 248.269 63.8029C248.666 64.921 252.752 66.1493 252.351 67.0614C250.829 70.2907 245.195 68.382 248.036 73.6353C248.579 74.782 252.847 76.9423 248.214 76.9897C247.889 77.0448 244.192 76.2407 244.96 78.4348C245.051 78.7204 246.006 79.6876 245.947 79.9038C245.512 81.3419 244.158 81.0807 243.422 82.3007C242.783 83.3428 242.014 84.6179 240.835 85.1926C240.691 85.2564 240.536 85.2999 240.367 85.318C239.693 85.3944 237.748 83.591 237.196 83.1906C235.617 82.0343 236.262 85.0198 234.783 83.361C233.314 81.6827 232.58 78.3331 230.816 77.6827C232.427 80.8248 234.02 84.0815 235.598 87.2633C232.813 88.5822 229.565 88.8616 226.527 90.1752C226.146 90.3418 227.213 91.9703 226.805 92.1993C225.051 93.1583 222.982 92.4078 220.918 93.4485C219.312 94.2556 217.53 96.6292 214.966 97.2608C213.38 93.496 210.126 94.5773 206.738 93.3326C206.64 93.2917 206.543 93.2475 206.449 93.1993C205.768 92.8495 206.153 91.8373 205.764 91.3295C204.275 89.3851 203.86 93.0291 203.034 93.3036C201.158 93.803 200.796 91.9967 200.785 90.0069C200.724 87.9343 201.048 85.9609 199.244 84.1444C199.157 84.0431 197.886 84.0707 196.354 83.5736C194.828 83.1243 193.13 81.9809 192.589 81.3948C192.536 81.3822 192.498 81.3705 192.477 81.36C190.297 80.2527 193.815 80.6428 193.834 79.58C193.903 77.6165 194.675 76.2934 193.198 74.3352C192.762 73.8059 189.976 72.3019 192.07 71.0575C192.344 70.9022 193.767 71.0045 193.852 70.8847C195.3 68.8036 190.878 68.4831 189.518 66.9201C188.174 65.3158 191.61 63.8399 192.558 63.7119C195.015 63.2609 193.361 64.6451 193.579 64.75C196.106 65.8522 195.884 64.5028 196.331 63.6489C200.624 64.5384 200.66 63.3791 196.781 62.7705C196.354 62.7091 196.567 63.5164 196.331 63.6489C192.388 61.8822 192.286 59.9951 196.423 59.7687C196.482 59.7693 196.541 59.7702 196.601 59.7714C198.582 59.8118 200.466 61.0666 200.313 59.086C200.252 58.1851 197.302 57.4607 196.79 56.4629C195.633 54.1617 199.111 53.0293 199.435 51.1873C199.558 50.5063 197.779 50.4444 197.815 49.9486C197.915 48.6169 199.509 48.1362 199.507 46.7129C199.506 46.5807 197.827 46.0689 197.991 45.6923C199.226 42.8071 201.571 40.92 203.587 38.0966C204.536 36.7365 205.768 33.6606 207.265 32.3838C209.815 30.1004 214.633 29.4307 216.823 27.4667C217.985 26.429 217.528 25.4091 217.391 24.2932C217.369 23.9882 217.378 23.6756 217.467 23.353C218.396 20.2677 223.472 22.9413 223.935 23.5351C223.933 23.5415 222.157 24.49 223.41 25.0453C224.473 26.6639 223.9 23.5535 223.935 23.5351C224.33 23.7817 228.31 23.5017 229.13 23.218C229.57 23.0168 229.252 21.3894 229.498 21.3169C232.43 20.5557 235.486 20.2208 239.827 21.6922C241.942 22.465 245.729 24.2331 248.614 28.7471C251.457 33.3022 251.382 37.6992 251.05 39.9645C251.006 40.1263 249.192 39.7745 249.111 40.1226C248.649 41.9143 248.525 42.9415 248.648 43.9613C248.936 45.2027 249.802 46.4911 250.237 47.8849C250.936 50.1255 249.938 51.5213 246.608 51.3779C246.464 52.838 244.36 54.1297 243.102 54.7565C241.851 55.3792 244.934 57.1672 244.948 57.2983C245.355 61.3152 242.506 62.066 240.074 64.7317C238.919 66.0162 236.91 69.0247 235.56 70.7163C234.517 72.0684 233.198 72.0545 232.222 73.418C232.085 73.6031 233.187 74.7704 233.168 74.8594C232.673 77.5167 231.249 73.7674 230.56 73.3977C229.845 73.0023 229.233 72.6487 228.693 72.396C227.2 71.8361 226.337 71.8845 224.74 73.4561C224.357 73.9047 223.784 80.1226 220.786 80.7949C219.019 81.1849 218.152 80.7357 217.464 80.3223C216.65 79.8341 216.185 79.668 212.781 78.9651C212.475 78.8871 212.261 79.1604 211.526 79.2137C210.795 79.2184 209.456 79.2117 206.737 77.2407C203.639 75.0064 200.939 70.9561 200.037 67.4487C198.75 61.3774 199.614 58.1061 199.957 54.1067C200.033 53.5011 197.971 54.0031 198.062 53.0917C198.483 48.8111 200.258 43.9675 203.411 40.6002C204.184 39.79 204.986 41.1075 205.454 41.1273C208.216 41.3462 206.467 37.7489 206.684 37.3858C207.638 35.5149 208.96 34.0111 210.409 32.8224C216.909 27.7844 222.899 27.518 230.844 26.8635C231.121 26.8578 232.097 26.2688 233.757 26.0491C234.96 25.8998 236.711 25.9454 238.991 26.9955C241.219 27.9783 243.953 30.3821 244.896 33.0047C244.989 33.2772 245.955 35.6705 246.562 38.4358C247.219 41.242 247.321 43.7737 248.528 45.5213C248.606 45.6419 249.05 45.0067 249.472 44.9093C249.88 44.7626 250.394 45.5618 250.207 47.5227C249.979 49.6835 249.901 51.518 249.499 52.8676C249.332 53.365 248.942 53.8466 248.001 54.1372C247.315 54.3578 243.841 54.2877 246.072 56.1895C246.245 56.2795 251.458 59.966 247.242 59.3632C246.547 59.2608 242.398 57.7322 244.058 59.8793C244.376 60.3011 245.488 60.1233 245.807 61.0666C246.29 62.5395 244.607 63.62 245.78 65.8758C246 66.2539 248.226 68.6609 245.708 68.6238C245.317 68.6118 244.115 67.7024 243.736 68.1029C241.941 69.973 241.418 72.8991 238.921 74.6623C238.042 75.2715 236.405 73.4601 235.301 73.8649C234.196 74.2788 232.478 75.3663 232.517 76.8951C232.527 78.455 236.177 80.1926 235.058 81.7315C234.433 82.5674 233.721 83.3551 232.936 84.0881C227.073 89.4852 218.899 90.9672 211.025 91.0533C211.02 91.0534 211.015 91.0535 211.01 91.0535C209.658 91.0489 210.851 92.407 208.755 92.4286C204.076 92.2448 194.438 92.4603 186.278 82.2443C182.387 76.8938 181.921 71.7884 182.529 68.8519C183.334 65.489 184.509 66.0734 185.352 66.499C186.242 66.9963 186.921 67.5106 187.318 65.5574C187.715 63.8233 183.539 61.5104 183.477 60.9593C183.25 59.6227 183.357 58.4561 183.625 57.4138C184.307 54.8288 185.932 52.8363 187.046 49.9047C187.389 49.0414 185.372 48.9534 185.711 48.1936C186.903 45.5344 189.541 43.5288 191.492 41.5395C192.375 40.6436 191.309 39.7549 192.31 39.0713C193.423 38.3208 194.552 37.7582 195.712 37.3824C197.022 36.9659 198.348 36.8031 199.745 36.9021C199.965 36.9282 199.504 39.0303 201.009 38.3961C203.496 37.3764 206.619 37.728 209.195 35.9904C209.954 35.4805 209.645 32.3221 211.829 34.3041C212.303 34.7361 211.92 38.4779 214.037 35.175C214.221 34.5985 218.7 30.5834 220.745 33.5115C220.793 33.5872 220.838 33.6673 220.88 33.752C221.349 34.6075 221.9 37.9116 223.07 37.7937C223.248 37.7721 223.151 35.9628 224.148 36.1254C227.68 36.7673 230.723 38.6531 233.796 40.4122C234.636 40.9034 234.591 38.6188 235.848 39.4457C237.868 40.8141 239.865 42.8491 241.628 45.7011C242.7 47.4753 243.663 49.6015 244.316 51.8429C244.865 53.8576 242.995 53.0005 242.907 53.2056C241.255 56.1137 244.824 56.6472 245.197 57.6056C246.534 61.0479 245.939 64.6842 244.9 67.6663C244.832 67.2923 244.7 67.275 244.837 67.4323C244.932 67.5658 246.571 67.7236 246.713 67.7673C248.097 68.2102 245.2 67.6037 244.847 67.795C243.837 68.4268 243.852 69.8605 243.972 71.2031C244.017 71.7105 245.957 71.274 245.976 71.7309C246.126 74.3975 245.755 77.5978 244.414 80.6464C244.158 81.2217 242.732 80.7085 242.386 80.7999C239.974 81.4027 243.02 82.9864 243.286 83.3298C244.51 84.8478 243.151 85.2328 243.214 86.501C243.386 92.661 241.372 101.508 233.837 110.111C230.7 113.615 226.06 116.706 221.259 118.079C214.751 119.701 208.698 119.905 201.383 118.827C200.697 118.712 201.012 120.768 200.389 120.684C195.935 120.023 191.692 118.135 188.096 115.788C185.746 114.247 183.146 112.354 180.364 109.934C179.855 109.479 179.242 111.501 178.351 110.772C176.507 109.283 174.516 106.6 173.655 103.965C173.244 102.699 175.478 103.382 175.068 102.161C174.151 99.3387 173.125 96.3816 172.165 93.5349C171.772 92.3525 170.435 94.4846 169.991 93.1248C169.981 93.1018 169.972 93.0761 169.965 93.0477C168.687 87.7432 167.397 82.0038 169.39 75.6983C169.528 75.2616 173.341 74.6493 172.555 73.8346C171.485 73.8287 170.231 73.9011 169.089 73.9344C167.995 65.0642 169.989 55.2548 173.877 45.5783C174.044 45.1652 171.858 45.1681 172.181 44.3459C172.223 44.2416 172.264 44.1373 172.306 44.0329C173.648 40.6711 174.611 37.0655 178.177 34.2224C178.54 33.9303 181.668 35.6887 181.715 34.374C181.717 34.1381 182.136 32.2784 181.705 31.4494C181.636 31.3317 179.988 30.8575 180.252 30.2683C181.954 26.8339 184.096 23.2643 190.101 19.1537C191.126 18.5058 191.298 20.6908 192.028 20.26C194.261 19.0218 197.153 16.9132 201.982 16.1298C203.476 15.88 204.991 15.6628 206.494 16.4083C208.283 17.3141 207.978 20.4475 209.106 23.3854C209.271 23.7993 210.21 23.7821 210.402 25.5364C210.951 29.9429 210.934 34.8259 211.564 39.5188C211.655 40.0204 211.884 39.9871 212.535 40.0713C212.982 40.0139 213.128 40.4907 216.232 39.4948C216.446 39.4289 216.539 39.419 216.465 39.4973C216.395 39.5729 216.161 39.7317 215.85 39.9068C215.54 40.0825 215.165 40.2665 214.817 40.4218C214.73 40.4609 214.644 40.4985 214.56 40.5347C214.487 40.5677 214.446 40.5915 214.389 40.6194C214.282 40.6736 214.175 40.7264 214.071 40.7776C213.227 41.1815 212.961 41.4502 212.692 41.7984C212.269 42.0185 211.427 42.9104 211.317 43.7606C211.23 44.3486 211.647 46.1128 211.431 46.8754C211.224 47.6367 210.786 46.1667 210.433 47.0763C210.089 47.997 210.496 50.0049 209.686 50.3403ZM237.393 57.273C235.425 57.175 240.591 60.753 239.954 58.955C239.916 58.8639 237.491 57.2737 237.393 57.273ZM227.61 84.4543C225.444 82.3751 226.208 86.4501 227.841 88.0962C229.516 89.716 228.292 85.0716 227.61 84.4543ZM237.391 76.9999C236.384 76.5894 236.557 77.614 237.085 78.851C237.409 79.5496 237.857 80.3139 238.292 80.8915C238.972 81.7401 239.722 82.1151 239.966 81.1968C240.015 81.0439 237.538 77.0551 237.391 76.9999ZM205.338 24.6719C205.361 24.7526 206.066 24.7466 206.071 24.6632C206.206 22.6361 204.772 22.6521 205.338 24.6719ZM243.785 65.3164C242.523 65.3255 243.35 66.9923 244.945 67.0397C246.266 67.0125 245.396 65.2286 243.785 65.3164ZM227.5 43.0254C227.524 43.1146 228.036 43.1716 228.011 42.6457C227.925 40.9372 227.107 41.4744 227.5 43.0254ZM245.062 60.2311C245.326 58.1321 251.809 53.7585 251.768 58.1249C251.704 58.7904 249.247 57.0107 248.709 57.9424C247.696 59.4095 252.328 60.047 249.918 61.4956C249.476 61.7494 245.039 60.3528 245.052 60.2271C245.055 60.2284 245.059 60.2298 245.062 60.2311ZM230.739 53.6798C230.661 53.6501 230.232 54.1594 230.29 54.2176C231.739 55.6443 232.648 54.5533 230.739 53.6798ZM221.249 64.5012C221.096 64.424 220.092 65.2959 220.174 65.4307C221.982 68.2932 224.338 66.1939 221.249 64.5012ZM217.664 48.105C218.935 49.7844 218.768 50.4685 216.357 49.5704C216.818 49.0904 217.194 48.5594 217.664 48.105Z" fill="#9E6868" fill-opacity="0.75"/>
<path d="M52.8574 78.4141C52.8574 82.9107 53.9294 100.596 55.6306 108.463C55.9099 109.755 57.0996 110.909 58.0844 111.732C59.0692 112.554 60.1293 112.9 61.2274 112.57C67.8881 110.57 66.3798 92.7579 66.3604 82.5992C66.3509 77.6155 71.1117 100.278 75.2158 106.456C76.0455 107.705 77.6003 107.811 78.8654 107.717C80.1305 107.623 81.3846 107.034 82.3254 105.829C85.0523 98.4078 86.4236 88.0941 85.24 82.1656C84.6793 80.9734 83.9254 79.668 81.868 76.531" stroke="black" stroke-width="2" stroke-linecap="round"/>
<path d="M90.2933 49.4566C90.4347 59.9482 91.5709 87.4399 92.0922 98.0188C92.6234 108.799 89.6696 77.7516 90.8034 69.9585C91.3357 66.2999 94.0932 63.6757 96.5407 62.544C97.603 62.0528 98.626 62.6976 99.4651 63.367C101.2 64.7507 102.369 66.8691 103.412 68.9095C107.247 76.4159 104.891 89.9965 106.857 94.1466C107.334 95.1532 108.494 95.7287 109.473 96.1024C110.451 96.4761 111.453 96.4761 112.351 96.0486C113.248 95.6212 114.011 94.7663 116.15 91.7016" stroke="black" stroke-width="2" stroke-linecap="round"/>
<path d="M126.337 55.6523C126.337 63.433 126.84 80.9536 128.369 83.6706C129.994 86.5585 134.283 86.8954 137.672 86.8122C139.308 86.772 140.674 85.7453 141.561 84.8489C149.272 77.0538 143.859 56.9564 142.518 54.9592C137.202 52.4576 132.262 52.1983 127.896 53.6802C126.969 54.2368 126.187 54.8731 125.381 55.5287" stroke="black" stroke-width="2" stroke-linecap="round"/>
<path d="M155.74 46.7434C155.74 46.8193 155.832 57.4547 156.182 74.6458C156.866 83.5121 157.613 92.1824 158.21 102.59C158.497 106.668 158.751 108.303 159.013 109.987" stroke="black" stroke-width="2" stroke-linecap="round"/>
<path d="M156.73 46.4645C156.806 46.4645 158.108 46.6525 160.459 47.5094C165.871 49.4822 167.995 56.0304 170.706 61.3239C170.217 65.8673 167.88 71.0389 164.556 75.5848C162.968 77.6016 161.58 79.0296 159.216 80.5047" stroke="black" stroke-width="2" stroke-linecap="round"/>
<path d="M177.909 43.9941C177.909 44.1335 177.929 51.5873 178.268 64.0019C178.586 69.0346 179.202 71.4942 180.515 76.5247C181.828 81.5552 183.819 89.082 185.87 97.5903" stroke="black" stroke-width="2" stroke-linecap="round"/>
<path d="M179.365 45.8501C179.51 45.8501 181.246 45.8501 184.349 46.1282C187.078 46.3728 188.907 48.3147 190.105 50.4738C190.727 57.5294 187.147 66.9622 182.633 73.5194C181.596 74.575 180.431 75.4378 178.267 76.948" stroke="black" stroke-width="2" stroke-linecap="round"/>
<path d="M200.519 58.914C201.669 58.5817 208.116 54.5885 212.751 50.0059C214.55 48.2271 214.928 45.4602 214.485 43.3106C214.035 41.1201 208.789 41.7654 204.521 42.1164C201.584 42.358 199.519 44.8502 197.571 47.1997C194.205 51.2584 194.783 57.0437 195.137 59.0495C195.307 60.0161 196.197 60.6736 197.095 61.2103C198.945 62.3154 203.69 62.5297 209.61 62.2867C213.307 62.135 215.138 59.5201 216.746 57.2597C220.853 51.4898 220.074 43.6108 220.677 38.0271C221.207 33.1317 228.798 34.1135 231.907 33.1775C236.126 31.9073 232.409 47.0624 233.147 56.6592C233.843 59.7644 235.19 59.2862 237.2 57.4172C239.211 55.5482 241.843 52.3029 245.684 48.2092" stroke="black" stroke-width="2" stroke-linecap="round"/>
</svg>
