<svg width="430" height="210" viewBox="0 0 430 210" fill="none" xmlns="http://www.w3.org/2000/svg">
<path d="M131.58 95.772C129.284 96.4098 120.696 98.8706 110.702 102.334C103.659 104.624 97.6728 106.882 92.122 109.398C91.8951 109.501 91.6838 109.588 91.4868 109.663C88.6642 110.695 89.0084 108.321 86.6665 109.39C81.7663 111.71 78.3775 115.705 73.662 118.823C72.0796 119.874 71.5656 115.903 69.9255 117.102C66.3803 119.735 63.2285 122.82 60.3116 126.146C58.479 128.22 57.7018 129.99 56.704 134.117C56.6041 134.556 56.5125 135.022 56.43 135.517C56.4699 134.347 56.292 131.641 55.296 129.125C54.3286 126.591 52.9887 125.012 52.4778 124.543C51.8672 123.889 50.7545 122.962 50.2027 122.639C49.617 122.276 49.4496 122.266 49.5579 122.372C49.7881 122.607 50.9323 123.225 52.2704 123.824C55.0053 125.055 58.5671 126.368 62.2023 127.612C83.4809 134.724 106.638 140.592 128.896 144.525C149.727 148.2 171.002 149.504 194.239 151.011C204.349 151.712 214.431 152.625 224.243 153.505C229.658 153.984 235.254 154.608 240.683 155.104C251.52 156.187 260.475 156.045 271.674 153.721C278.374 152.36 285.159 150.483 291.44 148.249C293.967 147.342 291.625 145.076 292.046 144.707C298.607 138.982 297.752 145.223 302.973 144.365C308.823 143.373 314.775 142.009 320.599 140.324C332.167 136.978 343.554 132.16 352.831 126.509C354.975 125.185 356.815 123.791 358.374 122.336C362.45 118.138 354.389 117.983 360.471 116.314C360.914 116.139 362.12 119.314 363.487 118.26C364.708 117.297 366.138 115.628 367.773 113.388C368.913 111.954 370.23 108.555 371.005 106.731C373.113 101.765 373.574 99.7736 374.626 95.3788C374.653 95.2727 374.693 95.0924 374.718 94.7368C375.364 91.8298 372.514 80.5293 367.116 72.0741C366.925 71.775 366.722 71.4831 366.51 71.1981C365.578 70.0179 364.008 73.24 362.358 71.744C360.918 70.2933 356.317 65.5354 354.402 63.4052C352.685 61.2804 354.946 59.9266 354.869 59.1904C354.219 53.8774 345.038 53.2773 341.401 53.2316C340.961 53.3392 340.667 53.4263 340.551 53.405C335.452 52.3446 322.616 52.0354 311.794 51.3322C298.173 50.5145 284.591 49.6286 270.421 50.2716C256.539 50.9144 242.043 52.6248 228.296 54.4235C222.815 55.1393 217.422 55.8708 212.193 56.5236C190.367 59.2775 171.495 60.8944 150.457 65.4555C148.223 65.942 151.562 68.9617 148.871 69.559C147.092 69.9548 145.295 70.3574 143.539 70.754C130.481 73.8163 121.361 76.189 111.618 82.5541C108.008 84.5454 104.854 88.2492 101.421 95.4498C99.684 99.0773 98.1532 102.824 96.8494 106.656C96.0554 109.045 93.6519 105.157 92.6726 107.581C90.9775 111.895 89.1172 117.45 88.4068 122.584C88.3107 122.61 88.1846 122.411 88.0817 122.406C87.9799 122.39 87.9443 122.567 88.035 122.893C88.2121 123.555 88.8305 124.654 89.6091 125.747C93.4445 131.517 100.964 134.106 106.957 131.985C108.871 131.311 110.638 130.18 112.145 128.576C121.298 131.274 134.395 131.642 144.672 132.9C151.298 133.655 145.798 138.089 153.234 135.315C153.314 135.284 153.395 135.252 153.477 135.219C155.216 134.52 152.263 132.036 154.881 131.205C165.86 127.668 178.702 124.567 189.387 118.983C191.562 117.836 189.981 115.51 190.454 114.812C194.412 109.126 205.704 111.652 207.854 111.256C210.152 110.849 212.329 110.366 214.404 109.822C218.169 108.836 221.665 107.628 224.298 106.425C225.553 105.876 226.718 105.124 226.484 105.299C226.386 105.411 225.63 105.987 224.831 107.598C224.008 109.228 223.946 111.068 223.964 111.22C224.013 111.873 223.786 110.653 223.174 109.518C222.574 108.312 221.684 106.869 220.598 105.361C219.073 103.319 217.974 107.877 216.454 106.136C216.331 105.998 216.206 105.861 216.078 105.721C211.381 100.68 206.834 98.405 198.84 96.7669C193.938 95.8176 188.066 95.4118 182.28 95.3152C178.882 95.2787 181.671 91.8631 179.994 91.6996C172.392 91.1855 171.818 97.307 164.891 97.6664C163.416 97.7788 163.529 94.9923 163.195 94.7762C157.755 91.4468 156.104 98.924 155.239 99.3897C154.147 99.9675 153.085 100.482 152.048 100.944C141.909 105.609 131.531 105.279 122.086 113.703C120.905 114.81 125.796 115.19 122.441 118.101C120.076 120.198 117.758 122.409 115.782 124.541C115.052 125.328 114.387 126.094 113.904 126.714C113.432 127.298 113.113 127.89 113.345 127.491C113.45 127.25 113.771 126.764 114.041 125.174C114.334 123.719 114.164 120.332 112.538 117.726C110.953 115.126 109.268 114.201 108.559 113.792C107.783 113.384 107.58 113.369 107.591 113.365C107.991 113.571 111.399 113.764 114.207 113.235C117.166 112.751 120.301 111.796 123.361 110.464C131.79 106.762 141.923 99.3411 147.383 93.1378C148.14 92.2953 148.631 91.4845 148.703 91.6576C148.756 91.759 148.674 92.1904 148.829 93.1892C148.957 94.153 149.601 95.7107 150.475 96.6133C151.672 97.8219 152.124 97.5801 152.38 97.4221C152.633 97.2141 152.763 96.8678 152.912 96.5375C153.2 95.873 153.451 95.1902 153.563 95.0752C154.155 94.4293 154.024 93.779 153.729 93.4399C153.423 93.0875 152.936 92.9925 152.452 93.0901C150.572 93.4606 149.111 96.3729 148.323 96.5654C142.054 98.0091 134.345 98.2448 129.399 100.754C127.958 101.494 126.771 102.531 126.619 103.475C126.556 103.916 126.775 104.38 127.614 104.188C128.34 104.002 130.355 102.858 131.164 98.856C131.15 96.3163 130.007 93.721 128.975 92.4214C127.928 91.0544 127.128 90.5464 126.662 90.2472C126.15 89.9387 125.954 89.896 125.89 89.8902C125.83 89.8906 125.912 89.9501 126.06 90.0179C126.366 90.1589 126.936 90.3358 127.587 90.4803C128.907 90.7764 130.57 90.9681 132.29 91.0368C135.756 91.1764 139.51 90.8598 143.182 90.1773C152.496 88.4296 163.97 83.8275 170.614 79.2455C171.098 78.9001 171.455 78.5485 171.298 78.7052C171.213 78.8112 170.976 79.0145 170.478 79.895C170.069 80.7468 168.933 82.63 169.404 86.412C169.909 90.3137 172.779 93.158 174.065 93.9156C175.461 94.8143 176.062 94.9042 176.383 95.0101C176.974 95.1464 176.596 95.0359 176.127 95.038C171.113 94.9683 162.231 97.4791 157.573 100.506C155.642 101.698 153.998 103.264 153.188 104.398C152.776 104.943 152.62 105.346 152.578 105.169C152.542 105.04 152.452 104.044 151.884 103.238C151.241 102.336 151.001 102.581 151.372 102.9C151.718 103.241 152.497 103.686 153.41 104C155.264 104.652 157.59 104.833 159.583 104.489C161.792 104.16 164.841 102.583 167.054 100.713C167.408 100.394 169.378 103.118 170.141 102.368C170.967 101.543 171.546 100.705 171.787 100.198C171.912 99.9507 171.937 99.7849 171.928 99.9136C171.927 100.017 171.889 100.604 172.366 101.377C172.96 102.277 173.553 102.476 173.67 102.581C173.822 102.681 173.736 102.718 173.614 102.799C173.349 102.95 172.93 103.209 172.591 103.54C171.888 104.206 171.395 105.123 171.086 106.166C170.782 107.209 170.596 108.418 170.68 109.657C170.734 110.266 170.855 110.899 171.262 111.341C171.675 111.704 172.402 112.233 174.063 110.628C174.064 110.626 174.065 110.625 174.067 110.623C175.135 109.675 175.977 105.976 174.731 103.373C173.549 100.781 171.815 100.473 171.098 100.938C169.529 101.99 170.283 104.697 170.34 104.942C171.337 107.387 168.032 111.348 168.551 111.928C170.698 113.711 172.68 112.65 173.911 110.681C176.438 106.832 176.378 100.245 180.39 99.0123C180.622 98.965 180.605 102.041 181.29 102.125C183.518 102.354 184.977 100.454 187.232 100.37C190.255 100.237 193.569 101.815 196.648 101.226C198.784 100.846 201.034 99.0253 201.03 95.3275C200.997 94.7972 198.886 93.6651 197.051 92.2628C196.12 91.5888 195.236 90.8446 194.509 90.5032C194.146 90.3458 193.81 90.2851 193.558 90.6106C193.343 90.9421 193.045 91.6906 193.704 93.5959C193.854 93.9913 194.078 94.5278 194.464 95.1726C195.231 96.5223 196.733 97.8982 197.866 98.4468C199.016 99.0343 199.661 99.0663 199.881 99.0821C200.111 99.085 199.99 99.0569 199.851 99.0781C199.71 99.0905 199.547 99.1522 199.644 99.0817C199.749 98.9977 199.963 98.884 200.476 98.323C200.945 97.7653 201.936 96.6156 202.416 94.1556C202.955 91.7013 202.05 88.5567 201.108 87.2468C200.169 85.823 199.515 85.4389 199.164 85.2089C198.723 84.955 198.545 84.9969 198.413 85.0741C198.29 85.1604 198.225 85.3105 198.159 85.4759C198.034 85.8106 197.895 86.2093 197.707 86.571C197.337 87.2985 196.858 87.9048 196.859 87.9754C196.9 88.2909 197.158 88.6716 197.459 89.0267C199.934 91.5219 201.664 92.9099 202.237 94.5368C202.971 96.1458 203.211 97.9867 205.942 100.841C212.103 106.818 210.676 93.176 212.954 91.6936C215.206 90.2744 223.67 92.7493 225.976 93.3842C228.233 94.1226 225.923 96.3854 227.923 96.6716C230.685 97.0275 232.536 96.7764 233.666 96.2508C237.943 94.1381 232.3 88.3866 234.549 85.867C237.451 82.3155 240.657 81.7698 244.503 81.4398C248.164 81.2178 253.033 80.68 255.134 79.1015C255.229 79.0539 255.288 79.0314 255.306 79.1122C255.336 79.1979 255.263 79.3742 255.335 80.019C255.365 80.7664 256.135 82.008 256.777 82.3882C257.402 82.8213 257.726 82.9099 257.927 83.0439C258.307 83.2762 258.348 83.5199 258.431 83.8047C258.501 84.0833 258.596 84.3819 258.861 84.5889C259.122 84.7996 259.549 84.8733 259.739 84.8372C260.05 84.7811 259.785 84.9719 259.613 85.2037C259.415 85.4428 259.179 85.747 258.952 86.1111C258.236 87.249 257.477 89.4914 257.445 91.7693C257.349 93.9233 258.238 97.1892 259.906 97.7932C260.013 97.8032 260.434 97.7489 260.462 97.1626C260.491 96.5886 259.774 95.4992 258.761 94.9319C257.764 94.3492 257.052 94.1893 256.879 93.9735C256.541 93.5793 257.467 93.1004 259.537 93.2797C260.333 93.2561 261.385 96.1397 263.462 94.1217C263.605 93.97 263.749 93.8096 263.893 93.6377C266.595 90.9388 268.32 82.8162 266.162 79.8967C265.94 79.5756 265.707 79.3794 265.507 79.2927C264.82 79.0766 264.463 80.3444 263.967 81.1237C263.74 81.5369 263.533 81.9002 263.587 82.1644C263.612 82.2946 263.71 82.3999 263.864 82.4356C264.013 82.4721 264.227 82.4276 264.315 82.2683C264.403 81.9827 264.233 81.2437 264.294 80.4597C264.265 79.7138 264.581 78.7319 263.116 78.6054C262.287 78.568 260.899 78.9664 259.365 79.8971C255.325 82.2689 251.015 87.8304 249.396 90.3891C247.114 94.0103 251.067 93.6966 251.04 94.1054C251.014 95.485 250.131 98.7035 249.846 100.912C249.638 102.354 249.597 103.4 249.545 103.581C249.397 104.149 249.287 104.688 249.23 105.103C249.166 105.497 249.186 105.85 249.168 105.562C249.139 105.396 249.156 105.07 248.773 104.093C248.449 103.282 247.187 100.756 243.872 99.5891C240.606 98.564 238.739 99.5193 238.067 99.7796C237.327 100.133 237.191 100.301 237.128 100.349C237.055 100.449 237.729 99.8219 238.302 99.1946C238.911 98.5404 239.597 97.7661 240.314 96.9604C241.757 95.3396 243.326 93.5868 245.136 91.8164C248.859 88.7207 252.919 83.0274 263.696 83.6794C270.653 84.9983 273.327 88.5906 275.759 91.1541C278.089 93.8817 279.791 96.516 281.392 99.0892C284.548 104.206 287.188 109.242 290.034 113.409C292.176 116.581 294.677 119.14 296.54 119.799C298.214 120.544 300.858 120.05 304.076 118.154C307.71 116.018 311.376 112.766 314.611 109.235C316.463 107.184 312.816 106.19 313.075 105.853C318.261 98.2141 319.826 109.575 326.586 106.108C320.719 102.674 324.458 100.401 327.207 94.4654C328.418 91.6294 325.302 91.8584 325.218 91.4802C325.044 90.8396 324.956 90.2796 324.927 89.8105C324.648 86.408 328.751 86.1316 329.804 85.6089C331.903 84.8378 331.798 83.3702 331.334 82.6704C331.109 82.3029 330.827 82.1186 330.772 82.0076C330.708 81.887 330.898 81.8252 331.348 81.3674C332.166 80.4002 333.163 79.1773 334.243 78.4884C334.733 78.104 335.139 77.7089 334.968 77.0465C334.81 76.4313 333.915 75.3554 331.85 75.1081C330.766 76.0757 331.451 77.9308 331.351 79.7072C331.331 81.4914 330.699 83.173 330.929 84.1328C330.981 84.3863 331.047 84.5705 330.997 84.6983C329.77 85.8739 323.283 91.1044 321.114 95.9803C320.046 98.105 319.647 100.398 319.828 101.87C320.046 103.328 320.274 104.144 321.907 105.133C326.175 107.405 334.855 106.52 339.311 105.237C344.183 103.901 347.701 102.249 350.415 100.729C355.171 97.9606 358.015 95.5181 360.411 92.4607C361.668 90.7246 361.643 89.6971 361.427 89.1244C361.189 88.5395 360.672 88.2687 360.134 88.1972C358.335 88.027 357.249 89.5679 353.578 89.224C346.752 89.1522 352.107 79.1535 351.578 76.4227C350.56 73.7155 348.507 75.9412 346.819 74.4317C345.013 72.9332 349.407 71.5954 344.78 70.7592C339.823 69.6686 328.035 75.7892 327.46 78.7921C326.224 83.0231 328.953 86.4152 327.065 88.2567C326.308 89.034 324.782 89.5279 321.787 89.9589C321.188 90.0476 322.015 86.568 319.746 87.0633C304.316 90.8829 287.954 99.3995 276.444 109.873C275.654 110.693 275.006 111.64 274.823 112.096C274.733 112.329 274.693 112.235 274.603 112.24C274.517 112.25 274.646 112.491 275 112.697C275.737 113.102 275.8 113.969 275.548 114.846C275.326 115.709 274.904 116.552 275.788 116.784C282.865 117.984 285.817 116.018 287.277 114.589C288.72 112.985 288.7 111.035 289.244 108.483C289.549 106.974 290.029 105.252 290.952 103.182C292.806 111.352 300.19 114.348 310.829 106.08C316.934 101.026 313.45 99.1125 315.072 93.9417C315.529 92.443 320.895 90.1032 320.119 88.2418C319.758 87.362 319.253 86.6329 318.704 85.9897C317.124 84.1456 315.222 82.9589 314.577 81.4928C314.242 80.7721 314.223 79.98 314.556 79.1128C314.715 78.6898 314.97 78.2264 315.245 77.8366C315.381 77.6475 315.525 77.4661 315.65 77.3683C315.778 77.2741 315.881 77.2394 315.966 77.5089C316.071 77.6078 319.099 77.9635 319.272 78.1105C319.314 78.2169 319.338 78.4911 319.492 78.953C319.638 79.4051 319.972 80.0325 320.41 80.4953C321.339 81.4539 322.002 81.5177 322.051 81.5925C322.171 81.68 321.316 81.8757 320.639 82.3003C316.999 84.4585 314.925 88.385 307.621 92.6534C302.549 95.6721 294.199 99.284 287.215 103.791C282.934 106.527 279.083 109.767 276.636 112.796C273.043 109.995 269.977 110.985 268.563 113.802C267.878 115.166 267.654 116.991 268.187 118.466C268.45 119.188 268.918 119.815 269.537 120.003C270.136 120.199 270.946 119.846 271.236 118.655C271.281 118.435 271.31 118.2 271.324 117.959C270.86 117.243 270.109 116.589 269.461 116.255C268.809 115.91 268.316 115.819 268.021 115.783C267.436 115.735 267.508 115.823 267.715 115.767C268.178 115.68 269.176 115.239 270.083 114.62C271.954 113.369 273.69 111.501 275.058 109.542C275.397 109.062 275.731 108.547 276.053 108.02C277.028 106.325 279.124 108.405 279.484 108.287C282.398 106.949 282.433 104.622 281.602 103.002C280.782 101.324 279.175 100.207 279.058 99.5239C278.158 93.7967 276.427 89.2076 273.473 86.3041C268.756 81.4376 257.996 80.4019 250.84 86.3901C250.324 86.8117 252.398 92.7776 247.154 90.2698C246.7 90.1804 249.568 85.0481 243.4 88.466C242.967 88.7328 242.508 89.0081 242.016 89.3074C235.723 92.7164 224.471 102.338 223.069 112.654C222.725 114.713 224.465 121.134 223.48 122.177C223.249 122.282 222.844 122.005 221.935 121.7C221.554 121.583 221.046 121.93 220.48 122.273C219.917 122.625 219.273 122.963 218.849 123.267C218.17 123.765 218.293 124.151 218.552 124.13C218.823 124.128 219.184 123.803 219.514 123.493C220.246 122.828 220.71 122.515 223.673 123.97C226.027 125.05 229.527 125.14 232.682 122.379C238.064 118.334 237.194 105.734 228.529 101.802C227.97 101.452 222.553 103.576 219.631 102.432C219.194 102.249 218.751 102.072 218.271 101.897C213.217 99.9522 205.595 99.2845 200.132 100.401C197.278 100.993 199.79 103.781 199.311 103.938C192.689 106.113 187.076 108.602 182.266 111.83C178.584 114.356 175.193 117.534 173.24 121.635C171.209 125.605 171.639 131.142 176.922 133.886C177.47 134.193 178.073 134.476 178.7 134.728C182.407 136.48 192.888 132.546 200.377 135.022C208.91 137.531 202.788 155.357 222.487 146.896C225.693 145.382 228.333 140.639 231.009 135.884C235.067 128.91 238.14 122.663 248.332 122.722C253.273 118.235 257.658 113.416 261.378 108.223C264.149 104.491 266.852 99.5615 268.26 95.8519C268 96.5715 266.764 97.2844 266.233 97.2521C265.641 97.2925 265.497 97.2063 265.363 97.18C265.158 97.1172 265.199 97.1261 265.235 97.158C265.331 97.2265 265.539 97.3799 265.738 97.5384C266.153 97.8674 266.615 98.2581 267.079 98.6502C268.014 99.4412 268.984 100.261 269.995 101.062C272.015 102.662 274.184 104.198 276.616 105.478C277.221 105.784 277.83 106.064 278.748 106.268C278.978 106.316 279.249 106.362 279.578 106.382C279.941 106.39 280.307 106.442 281.146 106.198C281.556 106.048 282.207 105.858 282.954 104.943C283.725 104.042 283.807 102.499 283.603 101.885C283.191 100.514 282.8 100.333 282.538 99.9988C281.535 99.0396 281.041 98.8716 280.451 98.5419C279.891 98.2573 279.374 98.0385 278.859 97.8383C271.908 95.2999 263.787 94.2899 256.436 98.1254C255.202 98.8023 254.08 99.6161 253.069 100.521C251.84 101.509 252.864 108.082 251.663 109.781C249.677 112.455 246.321 113.418 246.374 116.245C246.38 116.302 246.387 116.358 246.396 116.412C246.578 117.916 248.1 118.861 249.682 118.862C251.282 118.903 252.862 118.348 254.287 117.588C257.139 116.038 259.427 113.678 261.379 111.151C264.381 107.195 266.709 102.771 269.114 98.3012C271.113 94.3438 273.023 96.9084 275.126 91.7793C276.966 86.4512 274.856 82.3397 276.055 75.3736C276.059 75.3356 276.064 75.2977 276.068 75.2597C276.324 72.601 277.785 68.9563 275.531 64.2963C273.397 59.6119 266.674 56.4644 261.28 57.4876C262.316 64.6195 256.661 65.7265 250.847 73.0552C249.764 74.4388 252.765 75.1936 252.361 75.9287C252.119 76.3999 251.827 76.8117 251.498 77.1886C249.815 79.1361 247.119 80.0382 246.242 82.7364C245.99 83.5103 247.792 85.1835 247.706 85.8986C247.105 91.8917 237.754 95.1456 236.073 95.882C229.774 98.4002 230.932 102.48 227.384 105.389C223.835 108.376 225.795 101.784 222.317 105.766C216.126 113.014 210.452 123.428 207.374 133.65C206.904 135.275 206.525 136.884 206.266 138.506C205.708 143.497 209.344 140.279 209.336 141.01C209.413 143.264 209.554 145.573 210.636 147.551C211.687 149.554 213.881 150.774 215.934 150.994C220.116 151.423 223.556 149.326 224.467 145.531C225.554 146.852 226.518 147.858 227.377 148.6C235.873 155.128 229.807 142.161 240.162 138.073C241.049 137.697 247.327 142.945 244.7 146.508C241.981 150.062 235.485 151.609 230.414 155.688C230.38 155.715 230.346 155.742 230.312 155.77C229.681 156.266 228.123 159.092 225.63 161.793C223.297 164.52 219.4 166.875 218.267 167.076C209.707 169.568 200.558 161.409 200.853 156.632C200.475 151.783 203.538 149.99 203.579 149.469C205.822 142.28 205.068 137.822 204.161 132.727C203.779 130.626 203.456 128.828 203.57 127.996C205.458 115.728 211.772 108.189 215.158 99.1394C217.456 93.2698 211.322 88.4117 214.43 84.3224C223.188 73.2431 232.698 73.1879 239.412 63.6022C241.076 61.3968 242.667 58.7033 244.932 55.1117C246.282 53.0362 244.974 50.7601 245.654 48.5816C246.612 46.643 248.611 43.3072 262.452 44.2364C263.315 44.4593 269.245 44.7959 277.011 48.7704C285.156 52.7086 290.643 61.4718 294.026 66.304C294.94 67.5378 297.355 66.8515 298.037 68.7686C298.444 69.9829 298.734 71.0828 298.957 72.1904C300.7 82.4227 297.826 87.1313 296.755 94.5742C295.378 102.664 292.947 111.541 287.299 118.81C285.166 121.564 281.039 123.884 277.373 125.431C275.23 126.341 273.301 126.959 272.203 127.4C267.945 129.068 264.712 132.221 259.539 134.728C254.871 137.062 245.409 139.187 237.91 131.731C235.133 128.65 235.184 126.64 235.733 125.864C236.323 125.031 237.548 124.993 238.599 124.684C239.667 124.394 240.521 123.87 240.803 122.788C241.131 121.73 240.792 120.002 241.004 117.687C241.178 116.001 241.732 114.307 242.571 112.627C236.37 110.699 230.453 107.226 224.909 103.553C230.339 91.4728 236.796 85.1734 248.545 79.8068C264.065 74.2061 274.597 77.1826 285.196 80.9982C286.11 81.3678 287.089 81.7817 288.396 82.4454C289.072 82.793 289.784 83.1734 290.778 83.7968C291.81 84.4923 292.899 85.0546 295.305 87.4273C296.516 89.0257 298.495 89.674 300.947 97.4131C302.143 100.857 301.949 109.935 297.383 115.551C293.016 121.146 289.037 122.344 286.78 123.195C282.053 124.6 280.363 124.26 278.703 124.261C277.227 124.18 276.157 123.999 275.291 123.826C271.918 123.095 270.346 122.305 268.719 121.523C265.013 119.597 262.014 117.52 259.427 115.595C258.143 114.639 256.95 113.699 256.028 112.984C255.589 112.643 255.164 112.326 255.193 112.354C255.25 112.387 255.301 112.468 256.265 113.03C256.803 113.305 257.417 113.77 259.862 114.588C261.381 114.968 262.889 115.751 267.909 115.444C272.398 115.703 282.353 110.052 284.591 104.068C284.964 103.324 285.088 102.998 285.164 102.82C285.321 102.436 285.288 102.678 285.349 102.806C285.401 102.956 285.488 103.128 285.618 103.258C285.876 103.53 286.29 103.688 286.708 103.842C287.527 104.185 288.448 104.365 287.755 106.351C285.556 112.447 282.47 117.113 279.438 120.966C273.681 128.267 266.457 134.505 258.639 140.808C252.39 145.877 245.762 151.376 238.548 155.65C235.092 157.712 231.618 159.467 228.118 160.779C219.417 155.64 205.08 161.376 191.918 160.776C187.308 160.542 187.643 158.542 184.29 157.669C177.858 155.895 175.292 156.047 174.27 157.347C173.164 158.56 173.581 160.682 170.857 160.395C168.964 160.155 167.057 159.671 165.186 158.933C153.657 154.682 147.549 141.279 149.056 131.692C150.285 121.702 155.218 115.114 160.22 107.101C160.357 106.219 163.113 93.0989 165.515 89.8621C165.68 89.5719 165.818 89.3565 165.921 89.2297C174.119 79.8725 169.104 90.1994 175.341 87.1973C186.831 82.6958 193.837 82.4106 207.538 79.32C210.525 78.7885 217.095 75.7561 225.634 78.4394C228.563 79.3882 231.458 81.0653 233.65 83.4668C234.736 84.6776 232.668 86.4847 233.584 87.2325C241.739 94.1481 245.583 99.0109 249.599 103.287C253.269 107.71 257.606 112.001 257.307 122.563C257.1 126.22 255.971 130.309 253.919 134.09C244.244 151.229 224.721 153.409 213.892 149.589C207.12 147.09 205.143 144.161 206.103 144.495C206.972 144.619 210.767 146.548 214.719 147.16C222.877 148.508 228.698 146.287 229.008 146.067C231.907 142.168 229.564 142.457 224.481 143.293C221.827 143.569 217.914 144.389 211.819 142.281C205.433 140.381 199.916 132.572 199.305 128.134C201.189 126.764 202.329 124.503 203.271 122.672C205.772 118.164 205.448 114.145 199.688 115.573C199.119 115.835 198.536 118.807 198.668 122.785C198.728 124.772 199.079 126.837 199.305 128.134C197.921 126.44 196.88 124.683 196.105 122.847C190.805 109.952 195.587 100.493 205.933 95.2517C211.653 92.7833 211.903 98.5437 219.575 86.2088C223.499 80.7514 217.568 78.9253 221.404 73.1863C222.749 71.2999 224.433 69.4903 226.452 67.8034C238.592 57.6083 258.071 55.5752 274.62 59.7602C281.931 61.8983 275.785 56.4847 281.142 58.2366C285.005 59.6631 288.77 61.9209 292.089 64.9441C301.244 73.4444 304.126 83.979 306.12 93.5939C306.351 94.8495 309.233 91.3432 309.653 95.8179C310.311 105.962 308.58 115.225 303.349 124.791C299.64 131.3 294.739 136.725 288.064 141.103C284.63 143.267 280.928 145.306 274.957 146.688C271.875 147.301 268.214 147.978 262.322 146.915C256.793 146.209 246.867 140.727 243.231 132.333C238.736 121.576 240.854 116.873 241.371 113.136C242.232 109.496 243.295 106.999 244.343 104.741C246.464 100.3 248.692 96.9514 251.032 93.7378C254.585 88.8709 259.399 83.0583 264.988 77.8266C271.712 71.5064 278.825 66.4019 284.382 63.3832C292.978 59.0148 300.474 55.4294 315.684 53.1434C319.463 53.1017 323.222 51.3223 333.879 55.8602C339.241 58.0984 345.708 65.882 346.72 72.0156C348.044 78.1618 347.116 81.7512 346.486 84.4633C343.375 94.2566 340.295 96.6905 337.696 100.386C335.558 103.088 333.581 105.389 331.797 107.549C324.213 116.257 328.027 116.634 325.575 121.658C321.627 129.628 307.06 133.637 299.798 133.812C298.193 133.904 297.035 133.873 296.499 133.842C296.466 133.839 297.819 133.238 299.222 132.431C301.778 130.969 304.268 128.96 300.432 129.62C299.333 129.209 298.559 129.236 298.009 129.518C296.323 130.38 296.594 133.792 296.499 133.842C295.423 133.771 289.986 135.707 281.74 136.383C277.27 136.196 273.035 138.362 261.454 131.799C255.202 128.394 250.247 117.15 251.008 111.693C251.223 106.02 252.469 103.651 252.936 102.148C255.365 96.4108 251.242 98.0312 252.605 95.4894C253.258 94.4012 253.768 93.6181 254.366 92.7605C275.451 67.6229 290.964 60.1198 317.268 52.3702C319.153 51.932 321.044 51.5573 322.969 51.2433C323.493 51.1959 323.428 54.6423 324.617 54.5019C341.402 53.3634 351.748 48.0652 372.396 54.4347C377.789 56.549 383.776 59.8217 389.343 67.0488C398.046 77.4067 397.908 95.4441 393.528 102.996C389.49 111.281 384.463 114.582 380.043 116.305C376.056 121.007 370.875 124.517 365.673 126.931C358.483 130.261 351.362 131.543 346.291 132.088C337.737 132.859 337.309 139.159 336.461 139.496C328.863 141.642 320.971 142.951 309.596 139.302C298.305 135.867 287.272 124.104 284.648 112.399C281.68 100.689 283.869 90.3204 288.198 81.3084C290.335 76.9631 292.886 73.2147 295.814 69.6838C298.465 66.5177 301.834 62.9226 306.556 59.3154C311.813 56.0097 315.756 50.9718 331.764 50.1069C339.052 49.8928 349.783 54.1134 355.38 61.118C361.132 67.9653 362.592 74.4683 363.285 79.181C364.36 88.708 362.713 94.0778 361.605 98.4029C360.681 101.626 359.578 104.171 358.453 106.381C354.652 113.578 351.103 117.194 347.387 123.124C346.725 124.149 349.762 125.031 349.615 125.391C345.666 135.479 343.454 126.971 341.18 127.658C332.513 129.875 329.309 130.721 318.755 140.442C318.431 140.711 318.093 141.14 317.722 141.696C316.285 143.773 314.369 147.896 309.537 151.811C304.956 155.77 295.995 158.681 288.977 157.276C278.872 155.119 277.335 152.416 275.408 150.614C273.704 148.666 271.704 146.622 267.158 142.832C266.513 142.23 264.539 143.771 260.667 139C260.142 138.335 259.673 137.717 259.199 137.076C254.298 130.297 251.71 125.289 249.354 121.501C248.266 119.684 247.241 118.214 247.218 118.047C247.25 117.976 247.511 118.279 248.915 119.224C250.294 120.072 253.195 122.047 258.97 122.777C263.785 123.342 267.909 122.264 270.135 121.345C272.439 120.396 273.398 119.634 273.891 119.274C274.786 118.539 274.047 119.079 273.142 120.177C272.167 121.318 276.224 122.134 274.726 124.012C274.05 124.861 273.236 125.897 272.037 127.334C270.637 128.879 269.858 130.305 264.829 134.596C262.219 136.476 259.655 139.274 250.33 142.042C245.723 143.256 237.977 144.302 229.106 141.151C220.196 138.059 213.898 131.381 211.05 126.788C205.376 117.213 205.74 112.88 205.189 109.286C204.911 105.825 205.058 103.46 205.239 101.382C206.106 93.4173 207.789 89.0281 209.674 84.3714C216.549 69.6999 222.665 61.8338 235.903 51.7789C237.067 50.9648 238.058 50.426 238.82 50.1163C242.559 48.6561 240.493 52.2158 242.197 51.8424C248.373 50.8681 255.673 45.3856 269.969 46.1334C284.855 47.1229 294.726 58.0435 295.83 59.8998C296.863 61.4064 297.715 62.8649 298.449 64.2967C308.005 88.3696 302.997 98.0111 296.217 112.325C292.527 118.435 288.388 123.619 280.713 128.839C276.739 131.351 271.815 134.241 263.14 135.442C254.816 137.008 240.521 133.211 233.458 125.647C225.381 117.284 224.425 112.004 222.922 107.603C221.7 103.217 221.254 99.6321 221.036 96.0819C220.89 88.8314 220.542 82.9621 225.038 71.544C227.669 65.7722 231.156 59.9934 239.003 54.4042C241.066 53.0083 243.423 51.5839 247.087 50.2352C251.018 49.2181 255.125 46.5333 267.633 49.601C273.713 51.1225 282.948 57.4693 286.696 65.7058C290.568 73.7555 290.143 79.9734 289.754 83.7115C288.608 91.3371 286.829 93.7976 285.611 96.2658C281.232 103.583 279.064 105.107 276.571 107.768C274.172 110.128 271.927 112.061 269.634 113.901C268.143 115.787 253.976 131.43 243.778 127.497C243.618 127.44 242.917 127.173 241.873 126.873C238.649 125.987 233.031 124.429 228.878 128.186C228.51 128.483 233.405 131.114 225.596 131.731C217.805 132.216 206.192 134.869 194.186 129.339C192.452 128.523 190.144 126.778 185.526 124.141C182.371 122.032 178.525 121.164 170.527 113.318C166.727 109.517 161.279 100.488 161.788 90.3717C162.219 80.4237 166.234 74.0509 169.159 69.7078C169.616 68.9952 173.022 63.6016 178.142 59.3993C183.591 54.8511 190.469 51.0164 199.375 50.2674C207.672 49.2728 222.027 53.2411 228.976 64.449C230.224 66.6779 229.287 68.0462 231.014 73.7921C233.402 80.7165 234.547 95.2909 230.858 107.403C229.586 111.617 235.111 105.71 230.367 115.975C227.82 120.869 224.274 124.996 220.305 128.528C212.443 135.388 204.419 139.615 195.468 145.174C193.511 146.355 185.072 154.15 171.962 151.522C170.541 151.214 169.161 150.768 167.858 150.181C165.899 149.223 170.017 147.236 163.45 145.737C157.199 144.013 150.905 141.831 143.295 135.882C139.546 132.746 135.02 128.652 131.284 120.262C127.262 112.253 127.308 97.2559 132.61 88.4919C138.08 78.9846 142.566 76.4451 146.221 73.7342C149.925 71.2689 153.154 69.7177 156.601 68.3977C160.095 67.1125 163.543 66.0576 168.791 65.4766C171.496 65.2383 174.541 64.983 179.665 65.787C184.298 66.7979 194.285 68.2472 203.202 80.866C212.797 97.8834 207.89 106.04 207.074 110.647C205.507 115.34 203.866 117.987 202.333 120.313C198.668 125.471 196.93 125.116 195.108 125.315C193.281 125.364 191.496 125.483 187.798 128.07C184.112 130.576 178.699 134.018 171.395 136.531C163.913 139.106 156.554 139.656 151.234 140.175C145.985 140.604 145.647 142.601 144.809 144.588C143.869 146.304 142.562 148.887 132.354 144.926C125.702 141.895 117.369 137.277 110.586 125.448C100.18 105.59 107.327 88.2712 112.27 79.9273C117.8 70.814 124.1 65.3014 130.711 60.8374C147.084 51.1054 157.004 48.3153 176.994 48.0433C179.871 48.2064 182.963 48.3158 188.449 49.7757C191.243 50.614 194.747 51.5968 200.06 55.0932C205.102 58.216 213.964 67.3488 215.522 79.5478C217.012 91.4244 213.324 98.3189 211.27 102.279C208.968 106.327 207.06 108.422 205.454 110.162C202.226 113.514 200.001 115.087 197.94 116.555C184.965 124.889 176.986 127.226 166.602 130.789C160.628 132.568 166.538 133.533 157.22 136.074C155.791 136.433 154.275 136.789 152.677 137.127C146.905 138.335 140.542 139.276 133.149 139.434C129.418 139.497 125.463 139.392 120.706 138.744C115.573 137.656 111.403 138.296 99.2647 131.048C96.1964 128.94 92.1251 125.923 87.9957 119.717C83.7896 113.717 80.8075 102.992 82.087 94.4367C85.1123 77.1575 92.0758 73.0143 95.4767 69.2655C103.036 62.7636 107.382 61.196 111.716 59.1958C128.056 53.2829 136.28 50.3848 158.147 52.6385C162.829 53.5498 168.739 54.5749 177.02 60.117C185.447 65.034 194.17 80.0524 193.772 90.3568C193.01 110.335 186.75 113.548 183.805 118.123C183.678 118.268 183.551 118.411 183.425 118.552C177.6 124.749 175.148 125.352 173.823 125.52C172.543 125.517 172.617 124.206 172.849 122.8C173.342 119.853 174.334 117.18 167.447 123.14C161.059 128.455 158.897 140.088 157.115 141.632C152.819 145.529 148.235 148.608 142.971 151.156C129.163 156.815 119.268 160.631 95.3572 156.266C93.6614 155.805 91.6565 155.211 88.9367 153.975C85.5294 152.429 82.7437 150.65 81.3841 149.977C79.9312 149.221 79.6662 149.532 79.5249 149.997C79.3776 150.444 79.3502 151.012 78.1946 150.421C77.1302 149.699 74.357 148.376 70.0895 140.967C62.9357 127.557 66.24 115.114 68.0295 110.268C70.0972 104.763 71.9455 102.166 73.496 99.8772C76.6033 95.5423 78.9085 93.3137 81.1274 91.1461C85.8523 86.6582 90.252 83.2947 94.3205 79.8396C97.8038 76.9286 95.6132 75.4456 99.1233 73.1016C107.524 67.5815 115.756 63.8601 125.652 61.6802C126.525 61.502 122.556 66.8697 129.204 63.8285C131.382 62.8616 133.741 61.9728 136.231 61.1486C146.11 57.8725 157.039 56.0206 167.185 52.4046C170.941 51.1092 170.406 45.2154 179.597 48.3582C181.587 49.1 179.407 55.8985 189.525 49.683C190.585 49.1047 197.293 45.7913 205.96 45.6791C211.645 45.5654 218.031 47.0838 221.716 50.5629C224.29 52.8345 228.976 60.7814 234.797 63.5922C235.652 63.999 234.198 59.2842 239.134 62.2622C244.485 65.6337 249.337 70.014 253.144 74.3295C259.264 82.461 266.349 87.4873 269.196 109.655C269.467 113.165 268.91 121.284 265.359 128.061C261.899 134.809 258.05 138.227 255.535 140.47C253.438 142.253 253.041 142.758 253.032 143.199C253.051 143.601 253.632 143.724 254.115 143.911C254.598 144.098 254.972 144.368 254.518 145.114C254.089 145.838 252.802 147.044 250.77 148.328C243.686 152.688 239.482 154.407 234.604 156.536C225.268 160.49 215.293 163.816 206.634 166.27C201.832 167.614 204.166 163.952 203.728 163.806C196.737 161.348 195.553 168.399 193.79 169.375C183.126 175.133 173.403 175.09 161.861 178.077C161.561 178.153 161.261 178.23 160.961 178.309C157.641 179.161 160.581 181.665 159.959 182.058C153.262 185.914 157.66 179.659 153.087 179.795C140.286 180.053 125.914 181.056 111.699 179.644C106.436 179.069 111.905 183.383 107.06 182.749C102.366 182.091 97.506 181.114 92.4145 179.61C80.3597 176.188 64.6775 168.208 54.202 154.597C52.4437 152.309 50.4067 149.719 47.8274 144.963C45.3062 140.591 42.1182 131.326 42.2436 123.679C42.4237 113.795 43.8506 106.781 45.8072 99.3488C47.2023 94.442 49.1848 98.1468 50.0007 97.256C55.5846 91.4127 53.2589 80.1731 53.7177 77.6002C53.7547 77.3356 53.794 77.0747 53.8356 76.8174C55.9022 65.9903 60.0908 61.7948 68.1551 51.2102C72.0655 46.3119 77.1408 41.569 82.6568 37.8492C88.1387 33.7429 99.0335 27.5977 107.613 24.6534C116.428 21.4365 124.434 19.4962 132.2 17.8671C154.347 13.3035 176.522 10.1137 195.743 7.84467C205.117 6.73518 214.124 5.88947 222.942 5.26131C254.121 3.16299 281.163 3.2008 312.806 3.48064C315.434 3.51898 318.126 3.55607 320.916 3.60742C323.764 3.6684 321.006 -0.0139705 323.503 3.65745e-05C333.257 0.558638 344.832 -0.789698 363.549 7.61767C378.171 15.0814 396.995 25.0611 410.371 48.2126C413.984 54.752 417.785 61.7039 421.294 71.105C422.577 74.7902 424.064 68.1677 426.234 74.4492C428.401 81.5517 431.311 92.1556 427.971 107.346C426.744 112.191 425.118 117.323 422.94 122.333C420.552 127.686 420.375 119.348 417.98 124.71C415.607 129.758 412.853 135.576 407.818 142.342C403.846 147.549 397.36 155.515 390.38 161.435C385.376 165.634 395.407 162.339 388.516 167.569C385.444 169.8 382.385 171.743 379.362 173.478C365.773 181.231 352.817 186.823 339.612 191.609C321.249 198.109 303.711 202.89 283.606 205.772C280.136 206.248 276.548 206.652 272.782 206.933C269.66 207.146 266.033 200.674 259.689 202.658C259.374 204.654 259.601 206.945 259.56 209.05C252.249 209.826 245.032 209.888 238.755 209.705C221.239 209.103 206.538 207.542 191.484 206.595C169.694 205.239 145.15 203.759 120.867 199.759C112.15 198.349 103.626 196.724 95.1655 194.984C92.8834 194.511 96.1076 198.973 91.6705 198.067C75.8372 194.776 60.7131 191.592 44.8419 186.373C40.3912 184.884 35.9023 183.269 30.5964 180.912C25.5172 178.162 18.1295 176.696 6.97988 164.104C5.06168 161.67 2.93781 158.585 1.09254 154.683C-0.701868 150.755 0.124612 148.682 0.69576 145.701C1.37506 142.807 1.60005 138.144 2.33146 131.277C2.45358 130.408 2.52692 129.392 2.5541 128.203C2.09654 126.48 5.29236 109.044 6.87283 103.941C7.01236 103.217 2.54702 105.146 5.42554 99.3583C7.73195 94.9625 10.5457 90.7736 13.6961 86.9946C25.1349 73.1701 39.7691 60.4866 56.6988 51.6169C60.2094 49.7869 63.8424 48.0689 67.4992 46.5313C71.2718 44.9766 68.8817 49.8301 71.5471 48.7814C77.0439 46.6409 82.5583 44.4487 88.0011 42.4181C98.3741 38.6573 109.817 33.4365 125.24 32.9271C126.87 32.9515 128.465 33.0255 130.061 33.1537C141.627 34.1614 137.877 40.1666 144.197 45.3152C145.072 46.0267 152.081 45.8407 152.531 49.091C153.61 57.1987 150.743 66.203 152.318 74.8306C152.709 76.6442 160.461 74.5782 155.9 79.1215C155.635 79.4016 149.918 81.0732 148.514 82.7024C147.573 83.8125 149.539 87.0023 147.584 88.4663C145.629 89.9342 143.19 87.3244 139.83 89.1921C136.499 91.0813 138.337 94.6026 131.618 95.7567C131.606 95.7619 131.593 95.767 131.58 95.772ZM302.24 117.61C299.703 111.725 297.357 109.3 295.065 109.497C293.033 109.586 291.167 113.996 297.217 120.287C297.854 120.901 302.543 118.231 302.24 117.61ZM284.052 90.7026C284.711 91.3118 285.363 91.8615 286.57 92.9652C287.205 93.6229 287.879 93.9827 289.492 96.3732C289.859 96.9702 290.414 97.9109 290.85 99.352C291.305 100.862 291.724 103.39 290.732 106.312C289.751 109.292 287.458 111.358 286.075 112.171C284.478 113.134 283.505 113.36 282.662 113.568C279.609 114.122 278.842 113.701 277.896 113.57C277.044 113.381 276.443 113.167 275.93 112.969C274.899 112.562 274.168 112.173 273.501 111.807C267.9 108.226 262.23 110.501 265.53 116.5C266.536 118.107 267.974 119.208 269.546 119.842C271.097 120.522 272.699 121.085 275.411 121.485C276.888 121.634 278.273 121.975 282.204 121.472C284.271 120.842 287.559 121.538 293.989 115.135C297.082 111.907 299.011 105.779 298.58 101.809C298.307 97.9817 297.206 95.7533 296.432 94.2691C294.816 91.4301 293.719 90.5674 292.864 89.7607C292.031 89.0379 291.417 88.6409 290.864 88.3105C289.829 87.718 289.095 87.47 288.484 87.3106C287.265 87.0076 286.488 87.0746 285.82 87.1953C283.344 87.8326 282.644 89.4008 284.052 90.7026ZM279.353 100.303C271.452 107.265 284.399 117.462 287.159 104.923C287.303 104.176 279.814 99.8478 279.353 100.303ZM116.022 50.2975C116.123 50.3922 121.424 49.3769 121.556 49.2419C123.831 45.013 112.73 47.1011 116.022 50.2975ZM230.524 89.2341C233.956 88.2022 237.277 80.1102 232.853 81.1902C229.168 82.1233 226.116 90.5795 230.524 89.2341ZM260.794 78.8664C260.787 78.9329 260.939 79.6666 260.794 80.2617C260.672 80.8755 260.417 81.435 260.175 81.9405C259.735 82.8527 259.323 83.6479 259.718 83.9148C260.675 84.5651 261.73 84.2792 262.501 83.2507C263.115 82.3793 263.815 80.664 262.848 78.5275C262.355 77.5318 261.504 77.0691 261.189 77.2358C260.822 77.3683 260.97 78.0169 260.794 78.8664ZM252.37 105.752C252.659 105.812 252.936 105.881 253.215 105.961C257.666 107.007 261.635 111.805 261.026 115.922C260.568 119.867 258.305 121.803 256.53 123.026C250.466 126.566 247.215 123.833 249.192 119.042C249.536 118.038 249.793 116.777 249.914 117.015C250.052 117.402 251.197 116.37 252.244 117.636C253.243 118.759 253.716 120.982 255.028 119.251C256.252 117.545 255.888 115.673 254.824 115.016C253.785 114.304 252.24 114.408 250.99 114.763C249.048 115.498 248.495 116.343 243.496 116.685C242.602 116.732 243.462 113.589 245.184 110.576C246.72 107.385 251.558 105.366 252.424 105.743C252.406 105.746 252.388 105.749 252.37 105.752ZM311.332 106.052C311.377 105.968 310.969 104.804 310.752 103.605C310.515 102.409 310.45 101.193 310.371 101.141C308.517 99.8616 307.458 101.778 307.858 103.993C308.242 106.22 310.062 107.832 311.332 106.052ZM161.592 108.674C161.553 108.644 161.391 108.666 161.141 108.716C160.301 108.901 158.363 109.322 156.542 109.359C154.725 109.43 153.127 109.183 152.995 109.295C151.004 111.172 151.906 113.032 154.605 113.848C157.233 114.7 161.111 113.778 162.38 112.075C163.276 110.948 163.05 109.77 161.592 108.674ZM276.339 112.782C276.549 115.564 276.351 117.905 275.802 119.287C275.523 119.971 275.17 120.414 274.673 120.384C274.134 120.389 273.655 119.644 271.898 118.332C271.724 118.208 271.541 118.094 271.352 117.995C271.455 118.15 271.548 118.308 271.629 118.463C272.111 119.428 272.093 119.89 272.13 120.024C272.152 120.16 272.17 120.037 272.238 119.827C272.367 119.394 272.66 118.627 273.051 117.844C273.839 116.246 275 114.457 276.339 112.782Z" fill="#976564" fill-opacity="0.75"/>
<path d="M56.0564 78.5393C56.0564 78.6521 56.0564 78.765 56.0001 90.1006C55.9438 101.436 55.8311 123.991 55.5936 135.03C55.3561 146.068 54.9971 144.907 54.6972 143.393C53.0023 134.833 54.5911 125.576 56.5556 121.283C57.6024 118.995 59.5962 117.417 61.4203 115.994C63.4056 114.445 66.5302 113.755 69.5749 113.963C79.0014 114.608 73.7397 135.471 75.6804 138.361C76.6084 139.743 78.0977 140.433 79.7348 140.852C91.7847 143.936 108.655 127.225 113.405 120.268C114.358 118.872 114.041 117.476 113.343 116.506C109.293 110.881 100.259 112.793 97.8104 113.22C91.6131 114.301 90.9284 128.856 91.4204 135.382C91.6365 138.249 97.638 135.927 100.473 135.2C105.122 134.008 107.509 128.537 109.222 123.663C109.626 122.516 109.599 121.245 109.689 123.107C110.016 129.951 110.77 136.977 113.661 139.673C115.228 141.136 118.674 140.182 121.398 139.041C126.866 136.751 130.365 131.156 132.976 125.278C138.234 113.439 135.114 106.076 134.723 105.436C130.932 99.2365 139.525 121.606 142.937 123.94C144.384 124.929 146.158 119.406 147.762 118.15C150.308 116.155 153.438 122.876 154.897 125.085C160.082 132.934 160.24 109.33 167.065 103.812C168.518 102.638 170.346 102.907 171.606 103.533C184.118 109.741 182.267 136.574 184.875 137.897C186.138 138.537 187.666 138.126 188.831 137.78C189.995 137.434 190.848 136.912 192.664 135.205C194.48 133.498 197.234 130.621 200.07 127.657" stroke="black" stroke-width="2" stroke-linecap="round"/>
<path d="M197.501 61.3327C197.501 61.2615 197.659 74.9389 198.107 96.9668C198.327 107.8 199.729 117.891 200.365 123.268C202.04 137.422 200.75 94.9618 202.926 92.1109C205.601 88.6063 211.872 88.9701 216.541 89.3264C218.61 89.4844 219.854 90.9635 220.716 92.246C225.287 99.0507 220.573 113.442 216.612 120.417C210.697 125.715 205.699 127.739 202.112 128.572C200.502 128.866 199.319 128.898 198.1 128.931" stroke="black" stroke-width="2" stroke-linecap="round"/>
<path d="M232.444 93.6755C232.464 97.3818 236.022 108.276 240.659 117.575C244.988 126.255 251.623 90.9534 252.146 83.9006C252.699 76.4381 254.537 104.923 256.491 113.215C257.567 115.032 259.238 116.988 261.611 118.885C262.931 119.742 264.486 120.385 266.254 121.213" stroke="black" stroke-width="2" stroke-linecap="round"/>
<path d="M265.87 119.235C266.877 113.207 268.973 85.0535 267.329 71.8946C267.287 71.5583 267.981 73.0916 268.843 74.1213C270.378 75.9549 278.257 76.2653 288.147 78.0045C290.209 95.2163 288.711 114.914 290.886 115.504C292.112 115.44 293.585 114.638 295.729 113.476" stroke="black" stroke-width="2" stroke-linecap="round"/>
<path d="M318.713 100.205C318.713 100.132 318.713 97.6482 318.136 93.4457C317.694 90.2288 313.069 89.2105 309.257 88.4956C306.499 87.9783 303.803 89.0166 301.029 91.1323C295.2 95.5781 297.212 102.085 297.708 104.996C297.923 106.264 299.045 106.84 300.498 106.69C304.107 106.315 306.918 103.995 309.081 103.812C312.441 103.527 314.822 110.098 317.906 120.781C323.551 140.333 324.486 158.178 324.28 166.166C324.163 170.708 321.497 172.963 318.91 174.745C317.562 175.673 315.739 175.986 314.249 175.814C307.974 175.087 305.672 163.519 304.394 153.329C303.214 143.917 306.285 132.99 309.249 124.219C314.233 109.472 333.334 93.638 338.19 85.7108C338.868 84.6038 336.922 83.7811 335.405 83.7721C331.79 83.7506 328.091 86.999 325.302 90.5659C320.898 96.1983 322.232 102.689 322.993 104.938C323.399 106.136 325.141 106.789 326.775 107.212C328.409 107.635 330.213 107.638 331.629 107.1C337.516 104.867 340.802 87.2874 346.702 79.159C348.183 77.1178 353.151 78.4612 355.498 79.0538C357.845 79.6464 358.433 81.0009 358.685 83.4628C359.776 94.1559 357.923 97.7867 358.411 99.7576C360.024 100.428 363.727 99.7548 370.366 97.1209C374.422 95.1598 379.873 91.931 385.783 88.5237" stroke="black" stroke-width="2" stroke-linecap="round"/>
</svg>
