<svg width="198" height="86" viewBox="0 0 198 86" fill="none" xmlns="http://www.w3.org/2000/svg">
<path d="M105.167 9.43736C103.38 10.7416 100.739 12.2513 98.6828 13.309C98.0415 13.6397 98.1482 13.1565 97.6965 13.3725C96.8051 13.8011 96.1439 14.4428 95.2453 14.8491C94.943 14.9849 94.9749 14.3079 94.6722 14.4557C93.9744 14.7983 93.3269 15.1894 92.6738 15.6091C91.8108 16.1628 90.9401 16.7682 90.0078 17.3131C82.0128 21.9925 74.3629 26.9196 66.4348 31.9344C63.8229 33.5874 60.4196 35.2666 57.8802 37.214C57.5821 37.443 58.0335 37.7183 57.9959 37.7906C57.4003 38.9118 57.1783 37.8983 56.5003 38.1939C53.8093 39.3699 51.1138 41.0942 48.8787 42.7707C47.94 43.4771 49.4494 43.6306 48.1519 43.8367C48.0627 43.8516 48.0382 43.2611 47.7359 43.3926C47.5608 43.4689 47.3582 43.5796 47.1472 43.7053C46.4986 44.0945 45.7634 44.6088 45.3854 44.8086C44.399 45.3265 44.2224 45.4397 43.3211 45.9728C42.0658 46.7079 40.4378 47.3448 39.1305 48.178C38.8526 48.3568 39.4895 48.6074 39.0587 48.9384C38.6119 49.2798 37.3631 49.8757 36.8637 49.9859C36.3775 50.0918 36.3789 49.6325 36.261 49.5864C35.2997 49.1837 34.3056 50.8713 34.1212 50.9831C30.8305 53.0107 27.4751 53.6439 24.0208 54.7021C21.3789 55.5123 18.5328 56.3902 15.8955 56.7728C14.4955 56.9777 13.1688 57.0659 11.8919 57.1138C11.2343 57.1397 10.6137 57.1525 10.0015 57.1723C9.68698 57.183 9.3887 57.1947 9.13333 57.2116C8.88243 57.222 8.56677 57.2826 8.73862 57.2389C8.46534 57.3239 8.24121 57.4066 8.07772 57.4793C7.90396 57.558 8.32679 58.0422 8.16057 58.1246C8.08707 58.1557 8.02555 58.2373 8.28861 58.026C8.35204 57.9709 8.43253 57.8941 8.52525 57.7835C8.65198 57.6319 8.82764 57.3802 8.95833 57.0361C9.26217 56.3695 9.14523 55.1966 8.79345 54.657C8.71701 54.5176 8.62497 54.3872 8.56663 54.3131C8.51281 54.2441 8.46195 54.1862 8.41547 54.1371C8.32232 54.039 8.2472 53.9756 8.19189 53.9321C8.07505 53.8432 8.0662 53.8456 8.0646 53.8426C8.07209 53.8473 8.19838 53.9059 8.33321 53.9559C8.93535 54.1834 9.87087 54.4275 10.7414 54.6414C12.5469 55.0807 14.4605 55.5027 16.3694 55.9933C16.7537 56.0919 16.1716 56.5511 16.5529 56.6816C18.8831 57.4704 22.5792 59.0178 24.3125 56.8777C25.9366 57.1792 27.921 57.5293 29.3325 58.1923C30.2407 58.6193 29.2411 59.078 30.4399 58.9854C30.7111 58.9655 30.4364 58.4104 30.838 58.4192C32.5141 58.4548 34.3297 58.8772 36.006 58.8638C36.3554 58.8612 36.3317 58.3922 36.4408 58.325C37.3504 57.7841 38.5192 59.0996 38.7936 59.2292C40.917 60.205 42.5703 60.2687 44.6909 60.8252C45.175 60.9574 44.7604 60.2067 45.2336 60.3149C45.677 60.42 46.1596 60.5514 46.5903 60.6882C48.6308 61.3285 50.6547 62.2885 52.3581 63.4527C52.815 63.7671 52.1206 63.9932 52.3238 64.1665C53.2071 64.9255 53.9207 64.1917 54.7533 64.9368C54.9276 65.093 54.5837 65.4123 54.594 65.4763C54.7448 66.4748 55.7969 65.8356 55.9532 65.9051C57.9173 66.7538 58.3823 68.4554 60.121 69.4319C60.3285 69.5475 60.2049 68.7749 60.7712 69.1305C61.0476 69.3042 61.3098 69.4706 61.5859 69.6486C65.076 71.9494 68.3558 74.1922 71.8718 75.8346C72.4622 76.1108 71.8879 76.3673 71.908 76.4302C72.2873 77.43 73.0536 76.5021 73.2576 76.5188C74.9103 76.6942 76.3008 77.9035 77.6209 76.7656C83.0813 77.9339 88.7655 76.9738 94.4113 76.1218C95.8556 75.905 97.352 75.6821 98.8487 75.5069C98.9413 75.4947 98.9313 76.0639 99.116 76.037C101.37 75.697 100.689 75.0092 101.792 73.5784C102.054 73.2231 103.513 74.0597 103.641 74.1122C104.098 74.3157 103.992 75.2053 104.13 75.2282C105.27 75.3856 104.237 72.9094 105.523 72.4596C105.565 72.4496 105.558 72.9746 105.683 72.9828C106.075 73.0083 106.336 72.7076 106.72 72.7502C107.596 72.8523 108.334 73.9708 109.208 72.8365C109.319 72.6894 108.564 71.3521 109.73 70.9865C110.195 70.8445 112.191 70.0386 112.782 69.9053C113.377 69.7736 113.176 70.3814 113.224 70.3853C114.975 70.3788 114.508 70.8553 115.628 71.4346C116.75 72.007 115.672 69.9859 115.883 69.6241C116.093 69.2633 117.405 69.2942 117.747 69.3509C118.09 69.4078 117.873 69.8372 118.155 69.8323C120.025 69.7849 118.414 68.4934 118.798 67.9367C119.69 66.6227 121.325 67.7525 122.522 67.4048C122.845 67.3105 122.44 67.069 122.697 66.9156C123.718 66.312 124.579 66.5034 125.6 65.509C125.768 65.3464 126.328 63.9743 127.275 64.3583C127.41 64.4144 127.33 64.915 127.825 64.7903C128.566 64.6047 129.831 64.1164 130.5 63.6456C130.996 63.2973 130.082 62.9609 130.852 62.8361C131.194 62.7808 130.809 63.4117 131.438 63.2769C132.063 63.1447 133.495 62.4419 134.034 62.1666C134.572 61.892 134.046 61.561 134.074 61.5079C134.25 61.1984 135.187 60.4632 135.279 60.4193C139.887 58.1116 144.562 56.7527 148.904 54.1979C149.25 53.9958 148.76 53.6234 148.81 53.5875C149.913 52.7599 149.636 54.5609 150.701 54.5689C150.066 53.6288 150.646 53.5601 151.447 53.008C151.828 52.7434 151.405 52.4708 151.422 52.4119C151.72 51.5128 152.532 52.0561 152.725 52.1534C153.426 52.5152 153.511 51.6147 153.978 51.8572C154.445 52.096 154.11 52.9831 154.919 52.5545C154.964 52.0767 153.868 51.4588 154.414 50.983C155.403 50.1127 157.061 49.2926 158.689 48.5934C160.411 47.8506 162.118 47.2453 163.1 46.7994C165.031 45.9231 165.596 45.5647 166.776 45.1491C168.893 44.4145 167.803 44.0748 168.915 43.1484C170.01 42.2362 170.226 44.2612 170.58 44.5515C170.933 44.8424 170.946 44.3669 171.259 44.4718C171.571 44.5777 171.223 45.0488 171.765 44.8918C172.319 44.7269 173.421 43.4206 173.426 42.9465C173.437 41.9395 172.415 41.3387 173.932 41.0394C174.019 41.0229 173.963 41.5997 174.291 41.5119C176.868 40.8094 179.427 39.7993 182.024 39.2234C182.381 39.145 182.269 39.7842 182.478 39.7452C184.651 39.3535 183.599 38.7232 184.406 37.333C184.6 38.7492 185.498 39.3428 187.07 38.8439C188.017 38.5459 187.668 38.0152 188.155 37.4091C188.3 37.2268 189.101 37.4176 189.137 37.1052C189.261 36.0816 188.315 35.2691 190.079 35.1658C190.156 35.1629 190.08 35.7255 190.336 35.6795C190.584 35.6353 190.795 35.5749 190.978 35.5022C191.508 35.2932 191.823 34.9929 192.08 34.6862C192.143 34.6099 192.196 34.535 192.227 34.4681C192.245 34.4117 192.274 34.3224 192.086 34.406C192 34.4617 191.799 34.5357 191.567 35.0236C191.465 35.2518 191.406 35.5767 191.436 35.8641C191.468 36.1575 191.538 36.3309 191.612 36.483C191.886 36.9589 191.883 36.866 191.825 36.8667C191.146 36.5169 188.778 34.9844 187.349 34.3609C187.92 32.8898 186.378 32.7161 185.41 33.5273C184.462 33.1431 183.338 32.8144 182.453 32.347C182.135 32.1822 182.505 31.8276 182.479 31.7663C182.084 30.8099 181.327 31.6668 181.09 31.6286C180.97 31.6076 180.852 31.5841 180.734 31.5582C178.482 31.0753 176.875 29.7949 174.528 29.7818C174.435 29.78 173.962 30.7756 173.63 29.8176C173.61 29.7523 174.502 29.53 173.472 29.1383C172.427 28.7413 170.67 27.5236 169.04 27.5066C168.656 27.5053 167.483 28.046 166.988 27.1447C166.924 27.0235 167.128 26.7609 167.048 26.5494C166.787 25.873 166.191 26.8397 165.97 25.7718C165.74 24.7012 164.896 23.6718 163.221 23.7897C163.168 23.7918 162.542 24.5062 162.085 24.3369C161.349 24.0636 160.379 23.5424 159.602 23.2859C159.232 23.1637 159.294 23.7598 159.226 23.7475C156.663 23.2026 155.059 22.1475 152.48 21.0522C152.009 20.8509 150.375 21.082 149.626 20.208C148.801 19.2498 150.718 17.0756 148.145 16.8762C147.109 16.794 144.808 19.5969 143.655 17.3487C140.185 16.6298 137.395 14.7292 133.863 14.1769C133.705 14.152 132.918 14.8834 132.57 14.7503C132.052 14.5506 131.913 14.0347 131.549 13.8791C130.016 13.2114 128.471 13.0794 126.975 12.4997C126.409 12.2808 126.757 11.9173 126.089 11.6586C125.413 11.3975 124.752 11.8057 123.934 11.2126C123.288 10.7527 123.034 9.35907 122.133 8.89086C121.687 10.0218 121.092 9.78703 119.831 9.68185C119.593 9.66382 119.685 10.1448 119.565 10.1568C119.261 10.1927 119.045 10.0277 118.814 9.91813C118.665 9.84817 118.511 9.7991 118.328 9.82984C118.212 9.84885 118.068 10.2382 117.965 10.2759C117.097 10.6161 116.29 9.33543 116.164 9.11706C115.661 8.28038 115.11 8.65492 114.653 8.23086C114.177 7.79927 115.125 7.82053 114.513 7.4411C113.282 6.66891 111.534 6.09451 110.183 5.56188C109.632 5.34735 109.813 6.00826 109.729 5.98956C108.562 5.69681 107.648 4.70758 106.618 5.48553C106.917 2.53185 105.84 5.48054 104.464 4.29118C104.359 4.19689 104.725 2.88786 105.273 2.90242C105.822 2.91697 106.381 3.60057 107.161 3.57854C107.344 3.57446 108.704 2.75092 108.855 2.72728C110.024 2.53981 109.449 4.47597 109.462 4.60002C109.602 5.93433 111.202 5.08251 111.537 5.1068C113.023 5.20249 114.055 5.8832 115.3 6.00835C116.092 6.08405 116.612 4.86799 117.189 5.11875C118.454 5.67114 118.882 6.76919 119.799 7.13953C120.204 7.30366 120.713 7.31283 121.466 7.04315C121.978 6.86215 122.05 5.35825 123.077 6.92125C123.15 7.02283 123.828 8.36049 124.653 7.95243C124.756 7.9008 124.892 7.5028 125.004 7.5045C125.752 7.52316 126.069 7.98826 126.859 8.09257C127.637 8.19276 128.588 8.26896 129.372 8.69068C129.839 8.94221 130.228 9.90544 130.408 10.1704C130.907 10.9268 131.919 10.3166 132.126 11.0954C132.332 11.8775 131.173 12.5595 132.141 13.3514C132.536 12.3318 132.994 11.3032 133.417 10.2862C135.836 11.1573 138.115 12.3091 140.57 13.0945C140.876 13.1912 140.755 12.5293 141.088 12.6187C142.484 12.9954 143.548 13.7996 145.022 14.1239C146.164 14.3733 147.57 14.1933 148.77 14.4346C149.07 15.857 150.915 16.0338 152.117 16.5615C152.539 16.7462 152.403 17.0527 152.677 17.2605C153.714 18.0368 153.522 16.8051 153.897 16.7485C155.506 16.5096 154.821 18.9184 156.458 19.407C156.545 19.4339 158.019 18.5251 158.189 18.4949C159.276 18.2912 158.191 18.9854 158.734 19.2731C159.727 19.7991 160.347 20.3448 161.704 20.3918C162.098 20.4028 163.224 19.9066 163.716 20.7515C163.78 20.8622 163.588 21.2625 163.654 21.3119C164.839 22.1673 165.332 20.8722 166.241 20.6849C167.143 20.4954 168.03 21.805 168.175 22.1452C168.57 23.0313 167.6 22.2718 167.542 22.326C166.875 22.9789 167.783 23.135 168.408 23.4214C168.07 24.7404 169.018 24.9757 169.072 23.7178C169.077 23.58 168.522 23.5256 168.408 23.4214C169.427 22.3602 170.463 22.5313 171.195 24.0946C171.532 24.8251 170.81 25.298 172.48 25.603C173.237 25.7417 173.261 24.7624 173.971 24.7348C175.625 24.6836 177.193 26.1401 178.751 26.5292C179.3 26.6648 178.948 26.003 179.327 26.0785C180.376 26.2915 181.115 26.9522 182.155 27.1037C182.24 27.1153 182.216 26.6304 182.442 26.6226C182.464 26.6223 182.489 26.6261 182.515 26.6349C184.884 27.3905 186.786 28.4122 189.239 29.3147C190.453 29.7686 192.608 30.228 194.132 31.0381C194.502 31.2444 194.85 31.4218 195.53 31.9541C195.675 32.0722 195.944 32.2981 196.185 32.5648C196.493 32.9323 196.917 33.319 197.276 34.5119C197.719 35.759 197.07 37.7286 196.455 38.3159C195.845 39.023 195.474 39.1928 195.17 39.3757C194.105 39.9045 193.794 39.8653 193.377 39.962C192.996 40.027 192.682 40.0643 192.388 40.1049C191.283 40.2713 190.24 40.466 189.437 40.8099C188.308 41.2918 188.727 41.7227 188.344 42.2281C187.611 43.2031 185.554 42.5592 185.263 42.4545C185.252 42.4506 186.195 41.9963 185.581 41.9144C185.088 41.477 185.273 42.4484 185.263 42.4545C185.072 42.3814 183.083 42.9591 182.738 43.2018C182.548 43.3319 182.842 43.7643 182.74 43.8231C180.323 45.2084 177.857 46.3762 175.19 47.3118C175.141 47.3226 174.977 46.7741 174.864 46.8061C173.271 47.2464 172.597 48.3278 171.564 49.2739C170.521 50.2259 169.509 50.5663 168.345 50.0517C167.492 50.6069 165.968 50.8863 165.096 51.0349C164.222 51.1833 164.609 52.2276 164.553 52.2806C163.531 53.2604 162.601 53.6872 161.546 54.0896C160.828 54.3598 160 54.6411 159.099 55.0638C158.026 55.5672 156.077 56.7597 154.989 57.4579C154.163 57.9941 153.484 58.053 152.753 58.6151C152.653 58.6914 152.99 59.0718 152.965 59.106C152.322 60.0985 152.209 58.8034 151.923 58.7091C150.871 58.3707 150.275 58.2085 149.261 59.1385C149.021 59.3559 149.032 61.2938 148.578 61.6375C147.992 62.0789 147.946 61.4061 147.347 61.8778C147.295 61.9178 147.48 62.2534 147.057 62.4479C145.083 63.3617 142.879 64.2125 140.869 65.2427C140.595 65.3817 141.217 65.7531 140.824 65.9631C138.975 66.951 136.906 67.927 134.937 68.5477C134.454 68.6978 134.555 68.1787 134.403 68.1112C133.473 67.7068 133.089 69.1153 132.955 69.2015C129.796 71.2726 126.774 71.5479 123.466 73.5178C123.286 73.6277 122.288 75.3581 121.221 74.7015C121.148 74.6588 120.089 73.9749 119.791 74.8749C119.772 74.9311 120.388 75.256 119.657 75.5036C118.919 75.7537 117.911 76.5601 116.698 76.4134C116.312 76.3688 115.195 75.6966 114.567 76.8373C114.529 76.9156 113.756 79.2343 112.772 78.2216C112.611 78.0541 112.209 76.7425 111.334 77.8237C111.167 78.0319 111.665 78.1722 111.165 78.5631C110.401 79.1625 109.108 79.2432 108.227 80.1998C108.073 80.3688 107.56 81.5336 106.683 81.0838C106.546 81.0135 106.595 80.5138 106.232 80.582C104.506 80.9038 102.881 81.74 101.07 81.9337C100.436 82.0001 100.54 81.2013 99.8658 81.1847C99.174 81.1741 97.8784 81.32 97.2806 81.8139C96.6866 82.3072 97.7061 83.2757 96.706 83.6108C96.5195 83.6726 96.333 83.7316 96.1466 83.7878C91.8935 85.0594 87.3598 85.0579 82.7963 84.9548C82.0856 84.9343 82.6861 85.3673 81.6169 85.3532C77.7546 85.438 70.6306 84.3818 67.7819 82.0964C65.5378 80.3718 68.8873 81.2045 67.1278 80.1278C66.3047 79.6122 64.752 80.3609 64.5066 80.2813C62.2133 79.579 61.1544 78.1877 59.4137 77.2602C59.0572 77.069 59.0797 77.7523 58.7755 77.5811C58.138 77.2257 57.5723 76.7503 57.0445 76.3272C56.7068 76.0581 56.3778 75.8042 56.0363 75.594C55.6338 75.3478 55.4655 75.7465 55.1284 75.4797C54.3108 74.8406 53.6589 74.1914 53.0545 73.3233C52.9982 73.2435 53.7946 73.1313 53.1769 72.7066C52.1824 72.0256 51.1284 70.9026 49.7867 70.6121C49.3875 70.5292 48.9125 71.3687 48.5175 70.4013C48.4356 70.2029 49.154 69.2531 47.8604 69.7334C47.6248 69.7963 45.7219 70.41 45.3643 69.3441C45.271 69.0596 45.1198 67.9825 44.6355 67.9738C44.5705 67.9767 44.6281 68.5476 44.2627 68.4756C44.1813 68.4592 44.0996 68.4421 44.0174 68.4243C43.002 68.2287 41.7043 67.8838 40.356 67.7663C39.9719 67.7346 40.426 68.3753 39.8549 68.3119C38.2943 68.1411 36.3025 67.6736 34.7238 67.2644C34.1463 67.1132 34.6184 66.7327 34.5827 66.6781C34.0154 65.7931 33.4418 66.7887 33.2015 66.8167C31.717 66.9788 30.6841 66.3317 29.3236 66.2833C28.9481 66.2687 29.1438 66.8083 29.064 66.8434C28.2453 67.1818 28.9324 66.3511 28.4628 66.1873C27.1423 65.725 25.6208 65.5702 24.2265 65.4563C23.7158 65.4154 24.2108 66.0741 23.7536 66.0306C21.0391 65.7834 18.219 65.3645 15.5605 64.6522C15.0573 64.5163 15.4451 64.1133 15.3535 63.9952C14.7425 63.1733 13.5067 63.9853 13.2461 64.0389C12.0528 64.2849 11.6765 63.8149 10.6229 63.7008C9.14547 63.525 7.68172 63.3401 5.57212 62.6759C4.9835 62.4713 4.43738 62.2998 3.46982 61.7553C3.12274 61.5478 2.18589 61.0071 1.34584 59.9267C0.774784 59.205 0.100481 57.9413 0.013545 56.4257C-0.0888553 54.9265 0.404548 53.5582 0.974676 52.6666C1.11675 52.44 1.26315 52.2372 1.40887 52.0546C1.5429 51.888 1.6154 51.8068 1.71741 51.6951C1.91003 51.4861 2.09789 51.3077 2.2785 51.1508C2.64016 50.8377 2.9722 50.6076 3.28217 50.415C3.70821 50.1529 4.09102 49.9637 4.46613 49.7974C5.18202 49.4877 5.59737 49.3567 6.18227 49.1761C6.77419 48.9948 7.17292 48.9369 7.44578 48.8952C7.75939 48.8504 7.94511 48.8338 8.15816 48.8146C8.55003 48.7816 8.86619 48.7662 9.15256 48.7529C9.7318 48.727 10.2389 48.7104 10.7262 48.6895C11.7002 48.6487 12.6018 48.5929 13.4583 48.5136C18.6312 48.0028 22.8146 47.1839 27.5928 45.1363C27.8947 45.0051 27.3578 44.5725 27.6141 44.4521C30.9349 42.9171 34.3091 41.4829 37.4525 39.4792C37.7107 39.3154 37.0438 39.0383 37.4475 38.7586C38.2925 38.1701 39.3687 37.5606 40.3486 37.1667C40.8122 36.9821 40.5114 37.7487 40.9749 37.5525C41.5224 37.3204 42.0755 37.036 42.6192 36.7093C43.1434 36.3947 43.6937 36.0217 44.1749 35.6541C44.5997 35.3291 43.6046 35.2781 44.1832 34.8929C48.1264 32.2504 51.9552 29.5871 56.3812 27.5463C56.6839 27.4069 57.5854 28.2373 58.0444 27.6559C57.9049 27.3515 57.6864 27.0298 57.5094 26.7232C63.1676 22.7129 69.1001 19.2146 74.916 15.3735C75.161 15.2115 74.3877 14.9715 74.8598 14.6556C77.5926 12.8259 80.15 10.8917 83.3014 9.53025C83.6088 9.39773 84.0901 10.4118 84.8173 9.72138C84.9376 9.60361 86.1008 8.64521 86.2778 8.23676C86.3016 8.17709 85.7843 7.89974 86.1805 7.61626C86.4435 7.42936 86.7048 7.24678 86.9638 7.069C89.0368 5.64742 91.2296 4.33866 93.4618 3.20877C93.8739 3.00067 93.7694 3.72924 94.0636 3.58644C96.1293 2.58383 97.9871 0.875598 100.174 0.125772C101.648 -0.371349 101.659 0.73804 102.818 1.14779C102.981 1.20438 103.797 0.769475 104.1 1.228C104.866 2.37404 105.224 3.89592 106.087 5.09158C106.262 5.35365 107.135 4.48849 106.886 5.49355C106.862 5.56434 106.268 6.18184 106.231 6.50231C106.203 6.72438 106.689 7.08649 106.564 7.42179C106.442 7.75518 105.947 7.50398 105.684 7.97528C105.426 8.44885 105.927 8.88089 105.167 9.43736ZM161.146 51.7426C160.193 51.639 160.984 53.4188 161.536 52.6087C161.561 52.5676 161.195 51.7469 161.146 51.7426ZM137.625 13.6906C138.338 14.84 139.412 13.874 138.936 13.0118C138.453 12.1481 137.409 13.3421 137.625 13.6906ZM127.222 10.7789C128.154 11.8171 129.239 9.27493 127.819 9.37366C127.738 9.37866 127.168 10.7186 127.222 10.7789ZM99.8521 3.2675C99.8812 3.27928 100.438 2.9591 100.442 2.9266C100.41 2.21755 99.2744 2.87218 99.8521 3.2675ZM116.903 7.87514C117.135 8.35502 118.311 8.31771 118.026 7.72347C117.792 7.24422 116.615 7.27899 116.903 7.87514ZM122.936 68.2591C122.913 68.2378 122.48 68.4003 122.555 68.5464C122.796 69.0166 123.325 68.6201 122.936 68.2591ZM100.176 1.108C102.366 2.43815 103.06 5.18076 100.406 3.645C99.9382 3.36016 101.779 3.51295 101.254 3.02574C100.323 2.1557 98.8347 2.95055 98.1704 1.6133C98.0512 1.37264 100.068 1.04613 100.182 1.10756C100.18 1.10771 100.178 1.10786 100.176 1.108ZM159.662 49.8817C159.651 49.8751 159.537 49.922 159.41 49.9806C159.248 50.055 159.061 50.1503 159.06 50.1672C159.049 50.5674 159.416 50.5653 159.633 50.4096C159.808 50.2864 159.896 50.0736 159.662 49.8817ZM97.3624 76.4678C97.3141 76.4271 95.8905 76.7382 95.8499 76.7967C95.3407 77.9679 98.2721 77.3316 97.3624 76.4678ZM187.339 34.3124C186.488 34.6629 185.692 34.4555 185.413 33.5291C186.068 33.8056 186.714 34.0438 187.339 34.3124Z" fill="#C0A12F" fill-opacity="0.75"/>
<path d="M83.1442 37.5655C80.3337 40.859 76.2586 44.7031 72.9847 47.4586C71.958 48.3239 72.2163 47.6059 71.4961 48.1875C70.0874 49.3212 68.9557 50.5823 67.5076 51.651C67.0251 52.0043 67.2191 51.1054 66.7224 51.4834C64.0086 53.5437 61.6075 55.7303 58.6854 57.7449C57.9402 58.257 57.1847 58.7589 56.424 59.241C54.252 60.595 52.5556 60.6901 51.2349 60.8601C49.934 60.9831 48.7709 61.0319 48.3808 61.1053C48.2499 61.132 48.107 61.1627 47.9185 61.2019C47.7196 61.2407 47.5441 61.2861 47.0705 61.3484C46.9622 61.3615 46.776 61.3818 46.5585 61.3887C46.4532 61.3923 46.2635 61.3948 46.0579 61.3807C45.9522 61.3736 45.8345 61.3624 45.7006 61.3432C45.5475 61.3215 45.3115 61.2789 45.0563 61.2036C44.7969 61.1269 44.4896 61.0144 44.1367 60.819C43.7176 60.5915 43.1026 60.1355 42.6498 59.4772C41.6479 57.9882 41.7982 56.6312 41.993 55.8357C42.3253 54.6866 42.6755 54.3826 42.7968 54.1863C43.4294 53.4133 43.554 53.3964 43.7819 53.1873C44.533 52.5865 44.9953 52.297 45.539 51.9296C46.5987 51.2278 47.5835 50.6094 48.599 49.9722C50.6152 48.7107 52.608 47.4859 54.6304 46.2419C62.0031 41.716 69.3993 37.185 76.9222 32.6143C81.628 29.7554 87.5663 26.6296 92.2879 23.4479C92.8405 23.0751 92.2505 22.8772 92.3374 22.7769C93.7011 21.2209 93.6536 22.388 94.8218 21.8165C99.4583 19.5461 104.351 16.5937 108.494 13.8815C108.577 13.8271 108.651 13.7761 108.716 13.7282C110.063 12.7429 108.063 12.9654 110.054 12.3642C110.202 12.3182 109.996 13.0342 110.528 12.7789C111.704 12.2161 113.808 10.8655 114.717 10.3834C116.459 9.46141 116.728 9.29974 118.36 8.38116C120.604 7.13964 123.356 5.88236 126.005 4.61573C126.592 4.34462 125.581 4.19029 126.534 3.71468C127.219 3.40215 128.97 2.66314 131.007 2.84289C131.702 2.90212 132.639 3.1105 133.409 3.63746C134.101 4.09944 134.493 4.71788 134.633 5.0723C134.785 5.45124 134.765 5.61777 134.733 5.7075C134.659 5.87997 134.476 5.73702 134.521 6.01388C134.646 8.31386 133.846 9.18971 133.55 10.3008C133.189 11.3132 132.907 12.1881 132.808 12.3588C131.168 15.0172 129.359 17.0491 127.519 19.0066C125.084 21.5681 122.592 23.874 120.113 26.4277C116.808 29.8292 113.381 33.5566 110.174 36.7074C106.351 40.4593 102.92 43.4432 99.2549 47.124C98.8693 47.5104 99.756 47.4974 99.2849 47.9712C96.8242 50.4462 94.3558 52.881 91.8688 55.2764C89.284 57.7754 86.6205 60.2461 84.1235 62.6522C83.6325 63.1329 83.8214 62.1187 83.3132 62.5737C82.9425 62.9108 82.5549 63.2617 82.2087 63.6065C82.1195 63.6969 82.0485 63.7667 81.98 63.8392C81.9233 63.889 81.8615 63.9842 81.9009 63.8598C81.9138 63.8127 81.922 63.7988 81.9548 63.6395C81.969 63.5623 81.9831 63.4615 81.9828 63.3261C81.9826 63.2585 81.9783 63.1821 81.9666 63.0969C81.9554 63.0082 81.9228 62.8489 81.8669 62.7056C81.761 62.4101 81.5102 62.0789 81.2404 61.8946C81.0041 61.7267 80.7697 61.6476 80.5931 61.6115C80.1997 61.5475 80.1744 61.59 80.0696 61.5982C79.8085 61.6634 79.958 61.6584 80.026 61.6366C80.8858 61.369 82.1014 60.6934 83.1235 60.0505C85.3694 58.6225 87.2584 56.9115 87.6411 55.1437C90.0806 53.5255 93.0282 51.5156 95.4403 50.3552C96.9905 49.6096 96.0017 51.0485 97.5432 49.6245C97.8918 49.3035 97.0945 49.2465 97.6408 48.7959C99.9356 46.9032 102.663 45.1339 104.897 43.1987C105.351 42.804 104.949 42.5262 105.039 42.36C105.804 40.9813 108.388 40.497 108.852 40.2659C111.379 38.9878 113.233 37.6858 115.183 36.3069C116 35.7299 116.818 35.1515 117.717 34.5543C118.443 34.0738 117.247 34.1288 117.929 33.6517C119.665 32.4491 121.473 31.2716 123.404 30.1978C125.476 29.2095 126.95 27.8567 130.784 27.8257C131.17 27.8517 131.682 27.9573 132.195 28.2808C132.7 28.5804 133.186 29.1999 133.362 29.7154C133.424 29.8793 133.465 30.0312 133.492 30.1693C133.518 30.3011 133.526 30.3697 133.535 30.4589C133.551 30.6271 133.55 30.7673 133.544 30.8881C133.531 31.127 133.495 31.3021 133.463 31.4227C133.408 31.609 133.352 31.7079 133.305 31.7688C133.21 31.8871 133.144 31.8476 133.088 31.7818C132.974 31.6411 132.895 31.4105 132.731 31.8433C131.403 34.202 131.977 34.7532 130.678 36.3022C130.403 36.6092 130.172 36.1582 130.088 36.19C128.789 36.662 129.078 38.1024 128.913 38.3614C126.931 41.5143 124.562 42.6273 122.48 45.4946C122.231 45.8376 123.274 45.4483 122.547 46.3933C118.967 51.0421 115.082 55.7437 111.252 60.2711C110.895 60.6946 110.595 61.0679 110.348 61.3889C110.036 61.8065 109.828 62.1001 109.647 62.4201C109.564 62.5645 109.526 62.6643 109.522 62.6272C109.52 62.5958 109.532 62.4924 109.497 62.3107C109.467 62.0856 109.26 61.6598 108.975 61.448C108.712 61.2427 108.522 61.2087 108.427 61.1936C108.329 61.1832 108.344 61.199 108.365 61.204C108.416 61.2192 108.61 61.2077 108.767 61.1868C109.742 61.0049 109.176 61.5969 109.235 61.6378C110.547 62.116 110.922 60.7358 111.249 60.5566C113.857 59.1024 116.871 58.5105 118.096 56.3527C122.227 54.2829 126.239 51.9645 130.278 49.6665C132.306 48.5135 134.334 47.3627 136.421 46.2609C137.42 45.7352 138.525 45.1706 139.632 44.6712C139.871 44.5641 140.227 44.4081 140.507 44.2945C140.653 44.2351 140.795 44.1789 140.935 44.1262C141.093 44.0658 141.279 43.9981 141.445 43.9424C141.615 43.8855 141.781 43.8341 141.946 43.7888C142.147 43.7329 142.4 43.6718 142.644 43.6352C142.771 43.6162 142.895 43.6019 143.046 43.5941C143.28 43.5829 143.545 43.5852 143.881 43.6619C144.23 43.7634 144.577 43.8217 145.136 44.3929C145.635 44.9319 145.771 45.6783 145.731 46.1356C145.65 47.2024 145.338 48.1279 145.004 48.9196C144.837 49.3152 144.658 49.6841 144.507 49.9993C144.432 50.155 144.365 50.2997 144.324 50.3934C144.274 50.4591 144.304 50.606 144.296 50.1416C144.281 49.8288 144.109 49.3539 143.805 49.051C143.513 48.7416 143.156 48.6151 143.027 48.5826C142.677 48.5 142.621 48.5394 142.57 48.5398C142.501 48.555 142.585 48.5521 142.671 48.5342C142.847 48.501 143.115 48.4212 143.359 48.3409C143.874 48.1705 144.421 47.9595 144.97 47.741C146.076 47.2979 147.18 46.8287 148.306 46.3533C148.457 46.2884 148.454 46.9074 148.755 46.7749C152.422 45.1375 151.336 44.7509 153.135 42.558C153.588 42.0057 155.971 42.0872 156.173 42.077C156.911 42.044 156.72 43.0859 156.944 43.0334C158.496 42.6459 157.599 41.0287 158.568 39.8C158.577 39.6874 158.417 39.6189 158.203 40.0272C158.186 40.0708 158.331 40.0491 158.464 40.0787C158.597 40.1082 158.717 40.1681 158.711 40.2322C158.673 40.4649 158.714 40.6704 158.699 40.633C158.685 40.6077 158.607 40.463 158.559 40.2578C158.243 39.239 158.566 37.7635 156.395 37.1334C156.105 37.0622 155.605 38.5164 153.893 37.3299C153.224 36.8391 149.935 34.9946 149.026 34.422C148.131 33.8363 149.006 33.7454 148.949 33.6912C146.686 31.781 147.775 32.0498 146.905 30.5347C146.016 29.0252 145.369 31.2497 144.726 31.2171C144.084 31.1825 142.398 29.7831 141.999 29.3929C141.606 29.0026 142.337 29.0025 141.95 28.7041C139.443 26.7779 140.234 29.1532 139.165 29.0566C138.969 29.0363 138.8 29.013 138.63 28.9755C138.445 28.9314 138.281 28.8832 138.136 28.8319C138.166 28.846 138.207 28.8654 138.291 28.8953C138.383 28.9219 138.481 28.9786 138.851 28.9999C138.922 28.9987 138.872 29.0104 139.127 28.9884C139.327 28.9635 139.619 28.9064 139.959 28.6847C140.298 28.4724 140.623 28.0416 140.731 27.6444C140.848 27.2449 140.814 26.9353 140.774 26.7294C140.682 26.3189 140.576 26.1896 140.514 26.0804C140.441 25.9692 140.467 26.0108 140.446 25.9797C140.396 25.9121 140.364 25.875 140.339 25.8464C140.241 25.7384 140.256 25.7589 140.246 25.7459C140.239 25.737 140.255 25.7495 140.272 25.763C140.306 25.7895 140.355 25.8295 140.397 25.8655C140.489 25.9448 140.577 26.0267 140.668 26.1186C140.845 26.2971 141.007 26.4895 141.156 26.6934C141.458 27.1035 141.701 27.55 141.918 28.0148C142.348 28.9492 142.669 29.9083 143.04 30.9013C143.252 31.557 143.417 30.8735 143.653 31.5032C143.694 31.6296 143.729 31.7615 143.755 31.8915C144.142 34.1742 143.304 35.585 142.276 37.873C142.149 38.2646 141.384 40.6462 139.865 40.9191C139.657 40.9558 139.767 40.3084 139.02 40.8235C138.834 40.9522 138.637 41.0893 138.441 41.2404C138.345 41.3145 138.248 41.3966 138.203 41.438C138.179 41.4456 138.183 41.5018 138.243 41.2889C138.286 41.1655 138.225 40.8173 138.042 40.6727C137.885 40.5405 137.837 40.554 137.804 40.5415C138.061 40.6487 138.696 40.5333 139.154 40.3068C139.272 40.2504 139.382 40.1885 139.471 40.1267C139.514 40.0974 139.554 40.0646 139.571 40.0472C139.581 40.0376 139.583 40.032 139.573 40.0417C139.56 40.0683 139.532 40.0416 139.465 40.2651C139.437 40.3751 139.435 40.5815 139.553 40.7661C139.673 40.9483 139.803 40.9972 139.849 41.0192C139.972 41.0669 139.988 41.0561 139.998 41.0611C140.009 41.0645 139.972 41.0693 139.929 41.0804C139.85 41.1002 139.733 41.1368 139.645 41.1718C138.746 41.5477 140.019 41.8658 138.796 42.0571C138.22 42.1696 139.082 41.4097 138.019 41.6579C136.949 41.9007 134.384 43.0916 133.425 43.5767C133.238 43.6696 133.111 43.7551 133.031 43.831C132.727 44.1346 133.201 44.2923 133.152 44.3476C132.787 44.7489 131.009 45.8984 130.861 45.9707C122.623 50.0824 114.619 53.121 106.762 57.4774C106.146 57.8188 106.816 58.0983 106.725 58.1555C104.685 59.4653 105.703 57.2827 103.978 57.6156C104.71 58.5053 103.733 58.7786 102.279 59.6704C101.58 60.101 102.177 60.2828 102.131 60.3568C101.366 61.4996 100.212 61.1364 99.9416 61.08C98.9376 60.8773 98.5026 61.9633 97.825 61.8327C97.1432 61.7081 97.9683 60.5599 96.5208 61.329C96.3032 61.8988 97.865 62.2679 96.8494 62.9948C93.6476 65.2881 87.4651 68.0291 83.6885 69.9692C82.9301 70.3589 82.2835 70.7056 81.7816 70.9955C80.1719 71.9305 79.1508 72.6154 78.4786 73.1812C78.3063 73.3251 78.1641 73.4833 78.1636 73.4844C78.1669 73.4724 78.1827 73.4649 78.2178 73.3364C78.2323 73.2724 78.2462 73.2001 78.2378 73.0744C78.2291 72.9401 78.1777 72.7756 78.0935 72.6486C77.9292 72.4035 77.7496 72.3426 77.6988 72.3228C77.6413 72.3036 77.6252 72.3062 77.6339 72.3088C77.775 72.3467 78.3088 72.3105 78.7964 72.2491C82.5624 71.6289 81.0223 71.1592 83.2024 70.1459C85.3999 69.0743 84.8773 71.2543 85.3348 71.5431C85.7837 71.8317 86.0305 71.303 86.5 71.3864C86.9796 71.466 86.1818 72.0284 87.1742 71.787C87.6797 71.6637 88.5407 71.193 89.3013 70.6823C90.0184 70.196 90.6436 69.6732 90.7368 69.4153C91.1474 68.2975 89.656 67.8119 92.2756 67.2327C92.4265 67.1996 92.1299 67.844 92.6996 67.693C97.2228 66.4743 101.769 64.7609 106.232 63.3436C106.846 63.1494 106.522 63.8853 106.882 63.7778C110.635 62.6485 108.986 62.2904 110.552 60.5057C110.645 61.9828 112.069 62.3324 114.803 61.1807C116.444 60.4862 115.92 60.0427 116.804 59.1903C117.069 58.9342 118.389 58.8158 118.482 58.4595C118.788 57.2934 117.285 56.8141 120.225 55.9595C120.355 55.9229 120.179 56.5673 120.612 56.4065C123.408 55.3628 123.324 54.321 126.162 52.8385C126.787 52.5093 127.574 52.16 128.432 51.7998C130.653 50.8679 133.381 49.8446 135.238 48.9449C135.918 50.3714 138.158 48.7757 138.603 47.2921C140.246 46.4502 141.992 45.4065 143.623 44.6467C144.187 44.383 144.06 44.9815 144.153 44.9854C145.564 45.0686 145.761 43.7281 146.073 43.4978C149.626 40.9478 153.064 39.7551 156.158 36.8422C156.263 36.741 155.883 35.685 157.241 35.761C157.337 35.765 156.446 36.9318 158.119 35.8994C159.828 34.883 163.076 33.2937 165.504 31.6183C165.507 31.616 165.51 31.6138 165.514 31.6115C165.66 31.5151 165.85 31.3518 166.051 31.1691C166.147 31.0794 166.255 30.9799 166.321 30.8953C166.354 30.854 166.382 30.81 166.34 30.8111C166.317 30.8175 166.276 30.8168 166.141 30.9528C166.063 31.0482 165.966 31.1245 165.863 31.4644C165.749 31.8093 165.882 32.3486 166.052 32.561C166.135 32.6852 166.222 32.7717 166.296 32.8341C166.352 32.8823 166.389 32.9091 166.427 32.9353C166.5 32.9847 166.558 33.0131 166.584 33.0281C166.632 33.0558 166.649 33.0671 166.647 33.0745C166.644 33.0889 166.589 33.0915 166.537 33.0951C166.417 33.0993 166.26 33.0959 166.116 33.0807C165.795 33.0485 165.476 32.965 165.139 32.7854C164.975 32.6885 165.166 32.377 164.919 32.199C164.098 31.6345 163.648 32.7449 162.656 31.8176C161.68 30.8901 159.584 30.2316 156.874 30.9695C156.778 30.9915 156.174 31.8888 155.296 31.9052C154.777 31.9147 154.222 31.9042 153.584 31.893C152.559 31.8709 151.428 31.8421 150.505 31.882C149.813 31.9124 150.279 32.4393 150.159 32.454C145.537 32.9453 142.205 32.6095 137.24 32.6491C136.31 32.6561 133.755 33.5339 131.953 33.0465C129.984 32.5141 131.822 29.7264 127.401 30.6238C125.615 30.986 123.558 34.5104 120.222 32.9716C114.001 33.827 108.147 33.3715 101.942 34.5696C101.661 34.6233 100.859 35.6497 100.202 35.7003C99.2205 35.774 98.6328 35.3879 97.9341 35.4291C94.9843 35.5941 92.3422 36.2675 89.5166 36.5596C88.4485 36.6726 88.7678 36.1696 87.4784 36.3123C86.2092 36.456 85.4341 37.1686 83.6657 37.1375C83.2549 37.1304 82.8344 37.0301 82.4005 36.8985C81.3767 36.6074 80.297 36.1525 79.064 36.2703C79.2166 37.4798 78.0215 37.6538 75.9883 38.3966C75.6046 38.5393 76.1147 38.8658 75.9382 38.9546C75.2128 39.3276 74.437 39.138 73.7534 39.5384C73.5877 39.6351 73.6733 40.0412 73.5456 40.1429C72.4761 41.0123 70.2606 40.6385 69.8711 40.5858C68.3916 40.3663 67.9364 41.0769 66.8665 41.1797C65.7999 41.2904 67.1944 40.4849 65.9682 40.7568C63.4517 41.3263 60.36 42.7272 58.2865 44.5061C57.4756 45.2353 58.4089 45.136 58.3005 45.2504C57.4596 46.1466 56.5899 47.1539 56.4575 48.2484C56.3466 49.0229 56.686 49.7187 57.2744 49.8959C56.2512 51.0987 56.7205 51.5853 57.3271 51.6963C57.9879 51.8501 58.842 51.7833 59.9801 52.774C60.1537 52.9238 59.7924 54.2813 58.8369 53.9493C57.8813 53.5775 56.7962 52.4554 55.6822 51.1211C55.5546 50.966 54.9064 50.4809 54.4493 49.6832C53.9781 48.9047 53.7851 47.9633 53.7901 47.7573C53.7902 47.7523 53.7902 47.7474 53.7902 47.7424C53.8376 46.1 54.6861 45.5433 55.2648 45.4239C55.8652 45.3112 56.3605 45.5479 56.4365 45.5354C58.0681 45.2356 58.9228 42.9566 59.4588 42.5225C61.6071 40.6737 63.8644 40.1127 65.8623 39.0821C67.1591 38.4324 66.9124 37.133 68.0368 36.838C71.8047 35.9089 73.4081 37.4583 76.5654 35.1881C77.227 34.717 76.2355 33.4197 79.1085 34.0581C79.2737 34.0905 80.8538 34.6017 81.982 34.2292C82.1621 34.1681 82.3301 34.0822 82.4771 33.9649C82.6067 33.8612 82.5385 33.4461 82.7222 33.3824C83.9746 32.9621 84.8483 33.1755 86.2182 32.8272C87.5698 32.4821 89.2099 32.0329 90.8009 31.9881C91.7574 31.96 93.07 32.6003 93.5384 32.7416C94.8851 33.1478 96.1457 32.1043 97.0162 32.688C97.8827 33.2761 96.434 34.449 98.5545 34.6722C98.5232 33.5771 98.5902 32.4433 98.6075 31.3372C103.216 30.9211 107.757 30.8907 112.36 30.4913C112.931 30.4409 112.302 29.8993 112.913 29.8303C115.492 29.5428 117.777 29.8011 120.446 29.456C122.507 29.1872 124.75 28.4222 126.906 28.1361C128.309 29.3038 131.502 28.6942 133.84 28.6842C134.667 28.6795 134.629 29.0161 135.216 29.0942C137.425 29.3827 136.349 28.3325 136.941 28.1278C139.48 27.2568 139.838 29.7426 142.87 29.5394C143.043 29.5286 144.932 28.1088 145.216 28.0136C146.917 27.3976 145.524 28.4645 146.599 28.5167C148.591 28.6121 149.971 28.8742 152.272 28.3966C152.547 28.3397 152.968 28.1613 153.444 28.0083C154.202 27.7797 155.063 27.6075 155.87 27.9645C156.043 28.0429 155.964 28.4865 156.101 28.5077C158.61 28.8562 158.67 27.4713 160.095 26.9642C161.537 26.4548 163.831 27.3807 164.311 27.6623C165.524 28.3786 163.379 27.9652 163.302 28.0414C162.56 28.8847 164.172 28.7079 165.503 28.8098C165.577 29.4908 166.072 29.821 166.501 29.8527C166.91 29.8777 167.463 29.6485 167.045 28.974C166.883 28.8055 165.744 28.8706 165.503 28.8098C165.99 28.3516 166.345 27.9732 167.586 27.9989C167.685 28.0072 167.781 28.0171 167.908 28.0396C168.065 28.07 168.243 28.1118 168.468 28.1905C168.579 28.2293 168.798 28.3179 169.015 28.4373C169.259 28.5871 169.424 28.6344 169.952 29.16C170.404 29.6436 170.939 30.4235 171.001 31.6412C171.025 32.2008 170.918 32.7189 170.77 33.1203C170.643 33.4645 170.518 33.6865 170.387 33.894C170.128 34.2957 169.879 34.5359 169.759 34.653C169.613 34.7911 169.488 34.8923 169.378 34.9763C169.185 35.1215 169.061 35.1992 168.935 35.2758C168.729 35.4002 168.573 35.478 168.446 35.5379C167.949 35.7666 167.646 35.832 167.336 35.8702C166.989 35.8731 166.471 35.8741 165.855 35.8299C164.782 35.7821 165.204 34.7024 162.857 36.457C161.791 37.2663 162.719 37.7846 161.872 38.6311C159.908 40.5897 156.429 41.7971 154.097 43.3999C153.241 43.9884 154.371 43.8909 153.792 44.3097C152.268 45.4118 150.663 45.9321 149.142 47.0575C149.004 47.1604 149.638 47.409 149.133 47.714C145.336 50.0143 141.761 51.6111 137.677 53.7503C135.991 54.6356 133.254 56.2747 131.163 57.3334C130.799 57.518 130.454 57.6861 130.137 57.8306C126.459 59.5174 121.648 60.838 118.59 62.3706C116.592 63.3686 117.251 63.6644 116.515 64.3771C115.091 65.758 111.582 65.8398 111.103 65.8214C111.09 65.8209 112.812 64.9731 111.762 65.1092C110.995 64.8057 111.122 65.8108 111.103 65.8214C110.789 65.8178 107.198 67.1404 106.526 67.5123C106.163 67.7165 106.565 68.1032 106.372 68.2007C101.773 70.5102 97.0036 72.4496 91.9983 73.9595C91.9088 73.98 91.85 73.3989 91.6424 73.4537C91.1977 73.5691 90.7758 73.6985 90.391 73.8327C88.1967 74.5957 86.7485 75.6642 84.7789 76.64C82.3054 77.7671 80.76 78.2954 77.5829 77.4786C77.2221 77.4618 76.8744 77.5093 75.9285 77.2005C75.5224 77.0495 74.5221 76.6588 73.7436 75.4931C73.3309 74.8775 73.0839 74.087 73.0481 73.4058C73.0148 72.788 73.0924 72.3759 73.1935 71.9874C73.4401 71.1668 73.6051 70.9763 73.7869 70.6691C73.873 70.5356 73.973 70.3985 74.0392 70.3135C74.1022 70.2324 74.1641 70.1572 74.2253 70.0865C74.3449 69.9477 74.4752 69.8117 74.5766 69.7128C74.6689 69.6229 74.7608 69.5385 74.8535 69.4572C75.5558 68.854 76.1228 68.5233 76.6693 68.214C77.7801 67.5977 78.7767 67.1925 79.5408 66.8801C81.0478 66.278 80.6594 65.237 80.7821 65.1378C80.805 65.1193 80.828 65.1007 80.8511 65.0822C84.2087 62.3685 86.6605 61.7625 90.5598 59.7842C92.4231 58.8425 96.0041 56.7786 97.9493 55.6326C99.4863 54.7235 100.556 54.4618 101.939 53.562C102.127 53.4404 101.702 53.1059 101.753 53.058C103.11 51.6969 102.879 53.1693 103.313 53.1875C104.89 53.2558 105.83 53.2408 107.748 51.8492C108.191 51.5285 108.804 49.2722 109.641 48.7342C110.726 48.0396 110.571 48.8143 111.703 48.0722C111.8 48.0097 111.607 47.6777 112.351 47.3209C115.819 45.6508 119.659 43.9757 123.225 42.1661C123.713 41.9205 122.818 41.6852 123.514 41.3237C125.641 40.2191 127.975 39.0633 130.238 38.0569C131.509 37.4897 132.781 36.9691 134.063 36.5206C135.004 36.1945 134.597 36.8327 134.842 36.8654C136.295 37.0732 137.673 35.365 138.683 35.1659C138.778 35.1445 138.86 35.1266 138.981 35.1047C139.116 35.0807 139.262 35.0588 139.426 35.0409C139.511 35.0319 139.587 35.0246 139.697 35.0178C139.83 35.0099 139.977 35.0053 140.145 35.0079C140.312 35.0107 140.5 35.0204 140.72 35.0461C140.947 35.0721 141.428 35.1473 141.946 35.3367C142.213 35.4335 142.512 35.564 142.837 35.7539C143.192 35.9529 143.845 36.426 144.322 37.0331C144.82 37.645 145.215 38.458 145.383 39.2492C145.543 39.9713 145.533 40.6496 145.452 41.1983C145.369 41.7506 145.224 42.1851 145.077 42.5337C144.956 42.8156 144.864 42.9862 144.76 43.1662C144.558 43.5118 144.372 43.7547 144.207 43.9533C143.956 44.2529 143.758 44.4411 143.576 44.6055C143.425 44.7405 143.298 44.8438 143.174 44.94C142.287 45.598 141.838 45.7903 141.245 46.0575C140.064 46.4734 139.034 47.0739 136.32 46.5647C135.868 46.4491 135.272 46.2703 134.518 45.776C133.574 45.2602 132.177 43.4042 132.082 41.8367C131.986 41.0602 132.067 40.3908 132.188 39.8743C132.257 39.5883 132.303 39.4542 132.357 39.2966C132.41 39.145 132.465 39.0083 132.52 38.8835C132.736 38.3928 132.971 38.0463 133.08 37.8886C133.35 37.5034 133.546 37.2942 133.676 37.1518C133.82 36.9967 133.929 36.8903 134.019 36.8039C134.385 36.4562 134.585 36.2946 134.784 36.1252C135.167 35.8046 135.458 35.5678 135.729 35.3374C136.264 34.8843 136.681 34.4907 136.984 34.1484C137.287 33.8075 137.458 33.5373 137.538 33.3731C137.616 33.2031 137.641 33.1414 137.613 32.9599C137.691 33.3538 137.728 33.3111 137.603 33.1681C137.484 33.0189 137.245 32.761 136.929 32.4927C136.873 32.4457 136.624 32.3637 136.288 32.2307C136.12 32.1645 135.932 32.0867 135.731 31.9882C135.629 31.9373 135.53 31.8869 135.414 31.8164C135.354 31.7796 135.297 31.7437 135.21 31.6807C135.17 31.6513 135.116 31.6108 135.02 31.5287C134.99 31.5027 134.956 31.4727 134.913 31.4341C134.859 31.383 134.861 31.39 134.703 31.232C134.634 31.1608 134.549 31.0724 134.42 30.9223C134.356 30.8463 134.28 30.7545 134.185 30.6277C134.161 30.5959 134.136 30.5618 134.11 30.5249C134.074 30.4717 134.096 30.5126 133.934 30.2636C133.725 29.8133 133.152 29.3825 133.014 27.1569C132.965 26.0717 133.44 24.2076 134.694 22.9772C135.925 21.7328 137.265 21.3843 138.055 21.2659C138.458 21.2046 138.845 21.2037 138.864 21.2037C138.966 21.2029 139.061 21.2047 139.149 21.2083C139.326 21.2155 139.478 21.2292 139.613 21.2453C140.146 21.3127 140.43 21.3999 140.654 21.4659C141.083 21.6015 141.253 21.6862 141.4 21.7507C142.021 21.9795 142.594 22.3287 142.866 22.8646C142.917 22.9633 143.616 24.4372 144.929 24.269C145.011 24.2585 144.526 23.4329 145.751 24.0749C146.969 24.7139 149.149 25.3752 150.585 26.7769C151.046 27.2229 151.825 28.7918 153.826 28.9459C153.942 28.9339 157.4 28.732 157.643 30.4243C157.677 30.707 156.794 31.7235 159.107 32.4239C159.555 32.5687 159.042 31.8334 160.16 32.388C161.026 32.8352 161.909 33.5034 163.001 34.5357C163.564 35.0907 164.158 35.6555 164.897 36.76C165.251 37.3084 165.689 38.078 165.964 39.1838C166.268 40.3701 166.256 42.0925 165.578 43.6075C165.275 44.4788 164.057 46.2576 162.769 47.0978C162.349 47.5821 161.74 48.0914 160.942 48.0782C160.726 48.0747 160.805 47.502 160.235 47.7689C157.527 49.0342 154.95 50.8488 152.074 52.0383C151.053 52.4585 151.199 51.5438 150.092 51.9022C148.974 52.2643 146.863 53.1321 145.611 53.9882C144.966 54.422 145.077 54.7692 145.123 55.1255C145.14 55.3034 145.13 55.4854 144.908 55.6884C144.811 55.7847 144.592 55.909 144.259 56.0274C144.073 56.0901 143.802 56.1651 143.43 56.2221C142.896 56.2313 142.558 56.5389 140.478 55.9201C139.807 55.6905 138.671 55.0808 137.862 54.0681C137.012 53.0521 136.581 51.7007 136.524 50.7017C136.457 49.5694 136.606 49.052 136.687 48.64C136.778 48.241 136.864 47.9778 136.934 47.7679C137.076 47.3462 137.175 47.1031 137.259 46.8884C137.422 46.4737 137.519 46.2236 137.586 46.0234C137.722 45.6341 137.704 45.5 137.688 45.6651C137.473 46.8562 138.419 49.7098 140.263 50.7491C141.566 51.5738 142.526 51.6234 143.076 51.6573C143.7 51.6653 143.739 51.6296 143.909 51.6115C144.045 51.5901 144.124 51.571 144.167 51.5599C144.295 51.5218 144.088 51.5772 143.874 51.6606C143.68 51.732 143.388 51.8517 143.11 51.9712C142.848 52.0831 142.553 52.2142 142.231 52.3619C141.054 52.8977 139.7 53.5605 138.437 54.1863C135.829 55.4857 133.181 56.8549 130.561 58.3069C129.581 58.8497 130.6 58.7538 129.163 59.5838C126.513 61.11 122.922 63.2923 119.164 65.2381C117.293 66.1992 115.353 67.134 113.251 67.8712C112.12 68.2373 111.188 68.6077 109.192 68.7853C108.909 68.804 108.609 68.8117 108.279 68.7987C108.115 68.7922 107.943 68.7803 107.762 68.761C107.551 68.7399 107.245 68.6982 106.956 68.6351C105.838 68.3889 104.011 67.7251 102.786 65.6281C101.675 63.4175 102.013 62.4515 102.092 61.562C102.161 61.1485 102.285 60.7169 102.365 60.499C102.442 60.288 102.523 60.0964 102.605 59.9183C102.861 59.3696 103.163 58.8914 103.33 58.676C103.505 58.4468 103.661 58.2679 103.798 58.1249C104.071 57.8399 104.264 57.6995 104.389 57.6531C104.64 57.5608 104.618 57.8493 104.577 58.157C104.496 58.8029 104.328 59.3779 105.583 57.7722C105.891 57.4036 106.138 56.9421 106.362 56.439C106.768 55.3575 106.8 54.1519 106.945 53.9186C108.903 50.7358 110.986 49.115 112.92 46.4115C113.319 45.8533 112.465 46.0282 112.809 45.5579C113.982 43.9462 115.484 42.4763 116.631 40.9721C117.139 40.3024 116.715 40.1524 117.226 39.5655C118.446 38.1555 119.605 36.9821 121.021 35.8115C121.15 35.7053 120.892 36.8967 121.739 35.8401C123.093 34.1368 125.162 32.099 125.936 30.1042C126.039 29.8209 125.862 29.5822 125.776 29.3742C125.725 29.2882 125.699 29.1854 125.653 29.2934C125.639 29.3441 125.576 29.4767 125.511 30.006C125.488 30.1951 125.464 30.4435 125.473 30.7915C125.478 30.9657 125.492 31.1657 125.527 31.3968C125.545 31.5163 125.564 31.6227 125.598 31.7785C125.638 31.9616 125.692 32.1599 125.765 32.371C126.028 33.1989 126.791 34.3331 127.752 34.9449C128.689 35.5732 129.663 35.7595 130.306 35.7745C130.311 35.7722 130.316 35.77 130.321 35.7677C130.452 35.7031 130.444 35.3751 130.508 35.1902C130.556 35.0144 130.675 34.9166 130.4 35.5298C130.418 35.6378 128.803 37.9032 127.077 37.9502C126.637 37.9408 125.284 37.6453 124.614 38.2471C124.525 38.3317 125.21 38.5145 124.617 38.9506C122.989 40.1445 121.24 41.315 119.513 42.5887C119.042 42.9372 118.551 43.3084 118.086 43.6768C117.511 44.1331 118.711 43.9521 117.85 44.6145C115.482 46.4384 112.345 48.5156 109.853 50.1017C108.931 50.6879 109.282 49.885 109.189 49.8917C107.695 49.9937 107.706 51.3022 107.4 51.6C105.484 53.4435 103.564 54.2156 101.67 55.7494C101.148 56.1705 101.831 56.3045 101.75 56.4194C100.884 57.5932 101.186 56.2466 100.416 56.6788C98.254 57.8901 96.0525 59.529 94.0507 61.0382C93.3212 61.5891 94.5065 61.4684 93.8367 61.9648C91.7918 63.484 89.6617 65.0084 87.39 66.4664C86.2763 67.1639 85.3951 67.754 83.6789 68.5918C83.5537 68.6505 83.4409 68.7014 83.2889 68.767C83.1228 68.8387 82.9457 68.9109 82.7429 68.9848C82.5268 69.0635 82.1911 69.1793 81.775 69.2743C81.5295 69.3305 81.1339 69.4094 80.645 69.4375C80.5205 69.4447 80.387 69.4489 80.2428 69.4482C80.0968 69.4466 79.961 69.446 79.6722 69.4202C79.1526 69.3698 78.5021 69.2504 77.7516 68.9216C77.3786 68.7573 76.9846 68.5384 76.6008 68.2569C76.1704 67.944 75.7221 67.5165 75.367 67.0509C74.6378 66.1119 74.2758 65.0169 74.1643 64.1943C74.0056 62.9949 74.1818 62.2299 74.3209 61.6797C74.5304 60.9237 74.7795 60.4698 74.8989 60.2432C75.1878 59.7195 75.3676 59.483 75.5495 59.2325C76.2016 58.3778 76.6456 57.9429 77.1067 57.4693C77.8215 56.7585 77.7388 57.5361 77.9551 57.4495C79.4335 56.8892 80.0352 54.8416 80.2822 54.4507C81.3763 52.7047 82.2062 52.4408 83.3885 51.1443C84.0749 50.3926 84.7652 49.6535 85.5033 48.8802C90.9358 43.1906 97.4893 37.0885 102.578 32.2372C109.672 25.4524 115.503 20.2459 121.511 13.5898C121.852 13.206 122.156 12.8585 122.494 12.466C122.885 12.0104 122.035 12.0638 122.359 11.6726C123.582 10.2033 124.77 8.75434 125.703 7.42837C126.149 6.81095 126.561 6.07117 126.55 6.06795C126.545 6.09632 126.499 6.17524 126.438 6.54967C126.403 6.90461 126.243 7.69252 126.808 9.03788C127.375 10.4277 128.818 11.3923 129.441 11.5846C130.122 11.8343 130.349 11.8089 130.444 11.8232C131.192 11.741 129.943 11.9384 128.879 12.4767C127.76 12.9839 126.506 13.6492 125.286 14.3454C124.809 14.6177 125.777 14.7458 125.021 15.2012C123.475 16.1396 121.432 17.2704 119.698 18.0697C118.873 18.4492 119.677 17.4103 118.844 17.8056C116.934 18.7148 114.952 19.8456 113.121 21.0451C113.075 21.0754 113.029 21.1059 112.982 21.1365C112.196 21.6577 113.72 21.423 112.669 22.0652C105.458 26.4917 98.4385 30.9608 90.7552 34.8548C90.2293 35.1214 89.1602 34.3843 88.2203 35.2407C88.3155 35.571 88.5258 35.898 88.6782 36.2195C79.1139 42.4049 69.358 48.1512 59.7307 54.1934C58.8961 54.7183 58.0985 55.2227 57.2869 55.7407C56.8468 56.0219 57.9402 56.0669 57.1021 56.6064C55.6372 57.551 54.1839 58.5129 52.7797 59.4576C52.0877 59.9241 51.3863 60.4002 50.822 60.8041C50.6868 60.9009 50.5588 60.9955 50.4917 61.0461C50.4587 61.0705 50.4378 61.0877 50.4742 61.0538C50.497 61.0322 50.5157 61.016 50.5985 60.9333C50.6788 60.8475 50.7707 60.7718 51.05 60.4075C51.1239 60.307 51.1646 60.2549 51.2952 60.0515C51.4181 59.8564 51.5606 59.6102 51.7102 59.2661C51.7967 59.0384 53.1005 56.3323 51.0217 53.4157C50.5489 52.7791 49.9943 52.3081 49.4994 51.9883C49.224 51.8121 49.082 51.7397 48.9108 51.6533C48.7456 51.5716 48.5896 51.5039 48.4431 51.4467C47.8651 51.2218 47.3985 51.142 47.1262 51.1041C46.6518 51.041 46.3398 51.0517 46.1702 51.0574C45.8354 51.0735 45.7188 51.0984 45.6422 51.1098C45.5656 51.123 45.5501 51.1279 45.5446 51.13C45.5481 51.1348 45.765 51.0889 46.0045 51.0376C48.0195 50.6333 49.0706 50.6992 49.9354 50.6358C50.7598 50.6282 51.204 50.4441 50.7319 50.8374C50.822 50.7901 50.913 50.7423 51.0047 50.6939C51.479 50.4372 51.8944 51.5187 53.1254 50.4185C53.3412 50.2349 55.2491 48.5927 55.5994 47.9918C55.6455 47.9081 54.9645 47.7903 55.5868 47.2717C59.1983 44.2601 63.0097 40.9488 66.6963 37.823C67.2896 37.3203 67.0794 38.2932 67.5078 37.9356C70.547 35.3899 73.252 32.0205 76.1456 29.594C78.0708 27.9683 78.1581 29.2925 79.7492 28.9014C79.9671 28.8599 80.9953 27.6661 81.4478 27.9638C82.6529 28.6588 83.3337 30.2075 84.6719 30.8829C84.9337 31.1011 86.226 28.7981 85.9078 30.5075C85.879 30.6495 84.9927 32.1435 84.9226 32.6124C84.8701 32.9494 85.6224 32.9245 85.4287 33.5027C85.2216 34.0941 84.4502 34.2697 84.0328 35.1382C83.5936 36.0307 84.3562 36.1396 83.1442 37.5655ZM86.2155 64.4113C87.7311 64.1849 86.9801 62.3801 85.8416 63.5348C85.7873 63.593 86.1382 64.4241 86.2155 64.4113ZM107.852 32.3683C109.776 33.0701 110.941 31.7153 109.582 31.1585C108.217 30.604 107.266 32.1562 107.852 32.3683ZM88.7234 34.9392C90.9592 35.3416 90.9827 32.5626 88.7179 33.4043C88.5872 33.4525 88.5933 34.9161 88.7234 34.9392ZM75.7234 33.7111C75.7553 33.7162 76.5538 32.9064 76.5542 32.8674C76.5177 32.0059 74.9266 33.6211 75.7234 33.7111ZM69.9678 39.086C70.7169 39.2596 72.5132 38.3684 71.5779 38.1243C70.8344 37.9186 69.0216 38.8653 69.9678 39.086ZM142.194 31.3365C142.227 31.302 141.878 30.5885 141.737 30.6938C141.341 31.0127 141.877 31.8126 142.194 31.3365ZM67.3462 58.4996C63.9839 55.5062 62.0163 52.2014 66.6953 55.2691C67.4873 55.8601 64.5112 54.6906 65.4508 55.5531C67.0845 57.0644 69.1502 57.0517 70.2444 59.2054C70.4337 59.5779 67.536 58.6481 67.3379 58.4965C67.3407 58.4975 67.3434 58.4986 67.3462 58.4996ZM88.0623 66.0615C88.0949 66.0725 89.1047 65.5496 89.121 65.5122C89.3689 64.6742 87.3272 65.7307 88.0623 66.0615ZM145.874 48.2059C145.793 48.2042 143.444 49.2255 143.398 49.254C142.487 50.7631 147.419 48.6883 145.874 48.2059ZM135.298 48.961C136.094 47.8415 137.357 47.0813 138.597 47.2941C137.499 47.8442 136.399 48.4248 135.298 48.961Z" fill="#C0A12F" fill-opacity="0.75"/>
<path d="M72.3486 49.515C73.2499 48.6374 74.5882 47.9276 75.6823 47.4866C76.0219 47.3496 76.0632 47.7377 76.305 47.6575C76.7848 47.4957 77.052 47.1144 77.545 46.9797C77.7046 46.9397 77.8449 47.5011 78.0041 47.4496C78.8843 47.1579 79.5197 46.58 80.345 46.1903C84.4122 44.2748 88.2474 42.2339 92.3065 40.2858C93.6451 39.6428 95.4624 39.2354 96.7224 38.3454C96.8697 38.2407 96.5561 37.8633 96.5684 37.8126C96.769 37.0307 97.0512 37.9728 97.4195 37.9295C98.0936 37.8494 98.7513 37.6717 99.376 37.4314C100.099 37.1541 100.767 36.7889 101.352 36.391C101.819 36.0727 100.898 35.4646 101.636 35.6974C101.687 35.7128 101.784 36.2316 101.945 36.2134C102.303 36.1737 102.863 35.7993 103.118 35.7203C103.619 35.5658 103.697 35.5223 104.138 35.316C104.752 35.0328 105.579 34.9173 106.184 34.5045C106.313 34.4148 105.905 34.0306 106.091 33.8448C106.276 33.6595 106.891 33.4215 107.144 33.4406C107.396 33.4596 107.482 33.8714 107.556 33.9403C108.178 34.5261 108.41 33.2144 108.491 33.1487C109.937 31.9908 111.612 31.958 113.191 31.3434C114.391 30.8746 115.632 30.2137 116.823 29.8609C118.243 29.4428 119.523 29.3728 120.896 28.9779C121.042 28.9368 120.722 28.3847 120.9 28.3336C122.799 27.79 124.743 27.473 126.721 27.5729C126.917 27.5838 126.758 28.1546 126.959 28.1975C127.184 28.2437 127.436 28.3075 127.7 28.3667C128.893 28.6275 130.232 28.8421 130.574 26.8756C131.361 26.8786 132.289 26.8688 133.015 27.252C133.485 27.4978 133.142 28.1345 133.64 27.8156C133.752 27.7441 133.528 27.2564 133.699 27.1876C134.414 26.8993 135.238 26.9353 135.851 26.5318C135.973 26.4488 135.837 26.0074 135.855 25.9184C136.011 25.1991 136.738 26.1497 136.873 26.1909C137.341 26.3632 137.687 26.3238 137.907 26.2283C138.13 26.1407 138.203 25.9619 138.111 26.0841C138.066 26.1624 137.618 25.709 137.522 25.8341C137.45 25.9386 137.383 26.084 137.346 26.2347C137.399 25.7333 137.452 25.3875 137.519 24.8368C137.533 24.692 138.07 24.6281 138.099 24.542C138.194 24.122 137.266 24.493 137.309 24.1365C137.313 24.0583 137.718 23.856 137.754 23.8198C138.298 23.2189 137.259 23.6579 137.216 23.6405C136.573 23.3292 137.041 22.1644 136.304 21.7427C136.217 21.6962 136.013 22.2698 135.794 22.117C134.354 21.129 132.656 20.0189 131.054 18.7889C130.803 18.5981 131.179 18.298 131.183 18.2421C131.227 17.3561 130.585 18.2831 130.48 18.283C129.642 18.2458 129.281 17.1049 128.298 18.1385C125.3 16.5037 121.814 16.2622 118.791 14.2724C118.752 14.2483 118.962 13.7399 118.884 13.6942C117.94 13.1404 117.922 14.0096 117.007 14.8511C116.781 15.0632 116.552 13.7227 116.527 13.6227C116.438 13.2543 116.8 12.5078 116.759 12.4308C116.408 11.8198 115.874 14.4464 115.247 14.3008C115.228 14.2919 115.423 13.8308 115.381 13.7707C115.252 13.5825 115.045 13.7359 114.924 13.5338C114.649 13.0676 114.806 11.7676 114.073 12.3791C113.981 12.4593 113.753 13.9654 113.214 13.7716C112.995 13.6916 112.005 13.5006 111.744 13.3435C111.484 13.1865 111.781 12.7496 111.765 12.7246C111.15 11.9288 111.494 11.7286 111.322 10.7108C111.137 9.69426 110.767 11.9451 110.56 12.1607C110.411 12.3141 110.146 12.0318 109.976 11.7823C109.907 11.6821 109.852 11.5873 109.824 11.5273C109.728 11.3176 109.958 11.0475 109.859 10.9197C109.198 10.0867 109.293 11.9601 108.97 12.2659C108.233 12.999 108.049 11.2575 107.501 11.0138C107.353 10.9485 107.426 11.3467 107.286 11.3643C106.741 11.432 106.472 10.8705 105.82 11.2998C105.71 11.3691 105.169 12.3472 104.899 11.5887C104.859 11.4793 105.008 11.0645 104.784 10.9599C104.451 10.8019 103.827 10.6977 103.461 10.8435C103.191 10.951 103.507 11.64 103.171 11.4304C103.021 11.3376 103.29 10.9251 103.002 10.7853C102.712 10.6435 101.981 10.7021 101.706 10.7425C101.432 10.7808 101.631 11.2919 101.612 11.3291C101.495 11.5419 101.019 11.8499 100.976 11.8561C99.0086 12.1546 96.9883 12.0047 95.0972 12.8174C94.9093 12.8991 94.7024 13.0126 94.5144 13.1412C94.3708 13.2379 94.7236 13.682 94.7043 13.7018C94.3201 14.1648 94.0328 12.6466 93.406 12.4263C94.0046 13.3827 93.6998 13.3144 93.3858 13.6483C93.2456 13.8042 93.5668 14.1193 93.5743 14.1669C93.675 14.8819 93.0345 14.2777 92.8959 14.1587C92.3777 13.7267 92.6018 14.4906 92.2465 14.2109C91.8923 13.9347 91.8097 13.2262 91.462 13.4713C91.5913 13.871 92.4399 14.5675 92.2758 14.8862C91.6615 16.078 89.3825 16.7734 88.5503 17.3223C87.7324 17.8555 87.5311 18.1135 86.9878 18.362C86.0221 18.8011 86.801 19.1777 86.5295 19.8582C86.2602 20.5382 85.2856 18.8521 84.9532 18.5896C84.621 18.3271 84.812 18.7203 84.5791 18.6172C84.3463 18.5141 84.3618 18.1385 84.0977 18.2441C83.8378 18.3462 83.7411 19.3766 83.9397 19.773C84.366 20.6084 85.2282 21.1433 84.4756 21.3258C84.4317 21.336 84.2111 20.8624 84.0593 20.9214C82.8582 21.4072 81.8577 22.2072 80.6908 22.7308C80.5298 22.8023 80.2863 22.273 80.1884 22.3098C79.1599 22.6983 80.0581 23.1847 80.2996 24.3551C79.4996 23.1964 78.7078 22.7396 78.1038 23.2326C77.7425 23.5267 78.196 23.946 78.2389 24.4723C78.2525 24.6304 77.7244 24.5233 77.8634 24.7824C78.3152 25.6316 79.2306 26.2406 78.3457 26.4319C78.3058 26.4392 78.0622 25.9714 77.9485 26.0256C77.206 26.3785 77.7721 27.1887 77.1896 27.8289C76.7343 28.3298 75.4311 28.6321 74.7889 29.0376C73.7964 27.8125 73.4678 28.5538 73.9383 29.5754C73.5335 29.8526 73.1578 30.2428 72.6919 30.4324C72.5338 30.4965 72.3258 30.0763 72.2786 30.0513C71.5436 29.6547 72.0506 30.6071 71.9946 30.707C71.3508 31.7593 70.1172 31.7346 69.7628 33.0358C69.7503 33.0824 70.3942 33.9705 69.6591 33.5384C69.6094 33.5078 69.5779 32.8904 69.1496 33.1901C68.7267 33.4867 67.6629 33.6361 67.3728 34.4306C67.3543 34.4477 67.2913 34.4879 67.2707 34.5024C67.2593 34.524 67.2485 34.5462 67.2384 34.569C67.1508 34.765 67.2284 35.7569 66.567 35.3443C66.478 35.2878 66.3601 34.9921 66.2119 34.8773C65.7367 34.5133 66.2067 35.5222 65.5 34.8494C64.7916 34.1776 63.9697 33.8488 63.6842 34.7723C63.6738 34.8003 63.9713 35.6439 63.7664 35.7488C63.4373 35.9167 62.9078 36.0161 62.5782 36.2155C62.421 36.311 62.7976 36.7219 62.7751 36.7466C61.8669 37.6306 60.873 37.6441 59.6214 38.1141C59.3951 38.1973 59.1565 39.1863 58.4606 38.9032C57.6989 38.5929 56.8592 35.9994 56.1439 37.1272C55.8637 37.5744 56.9662 40.8424 55.3807 39.7046C54.1373 40.8778 52.3702 40.7981 51.1909 42.1047C51.1381 42.1629 51.3563 43.1154 51.1935 43.184C50.9509 43.2843 50.6243 42.9538 50.4481 43.0104C49.6866 43.2466 49.2203 43.9017 48.5213 44.1777C48.2526 44.2849 48.1419 43.8299 47.8267 43.9542C47.5192 44.0749 47.5622 44.7231 47.0264 44.6552C46.6228 44.6009 45.7749 43.6385 45.3106 43.6949C45.8038 44.8053 45.5033 44.9177 45.1273 45.4396C45.0525 45.5416 45.3341 45.8785 45.3076 45.9467C45.203 46.233 44.8835 45.9919 44.8018 46.2877C44.7813 46.3592 44.9484 46.7389 44.939 46.8197C44.8647 47.5213 43.9901 46.8825 43.8333 46.7725C43.2535 46.3491 43.3134 46.9092 42.9558 46.7947C42.6062 46.6764 42.8719 46.2378 42.5187 46.2241C41.7825 46.1982 41.0156 46.5711 40.3752 46.7801C40.121 46.8656 40.4787 47.3259 40.4467 47.3503C39.9512 47.6761 39.2617 47.2777 39.2568 48.4271C38.576 46.883 38.6172 47.2687 38.5669 47.7862C38.5271 48.156 38.463 48.5867 38.0794 48.4554C38.0077 48.4289 37.5322 47.163 37.7178 46.9004C37.8317 46.74 38.0587 46.7892 38.2734 46.7635C38.2798 46.7621 38.2986 46.7562 38.305 46.755C38.4175 46.7485 38.5396 46.7053 38.6248 46.5564C38.6753 46.4682 38.7082 45.1369 38.728 45.0489C38.9552 44.347 39.6584 46.2333 39.7224 46.3292C40.3863 47.3659 40.4492 45.8931 40.5408 45.7573C40.9955 45.1262 41.6192 45.1809 42.006 44.6881C42.2634 44.3659 41.7846 43.1343 42.0507 43.0654C42.9465 42.8272 44.0006 44.3741 44.1513 42.5524C44.1821 42.1636 43.4055 40.9332 44.498 41.6789C44.5631 41.7278 45.457 42.457 45.4476 41.7348C45.4447 41.6446 45.2639 41.2648 45.2915 41.2127C45.4792 40.8709 45.8229 41.0782 46.0706 40.7808C46.3093 40.4877 46.6003 40.08 47.0134 40.0354C47.2659 40.0062 47.898 40.5673 48.0899 40.686C48.6272 41.0359 48.5385 40.0661 49.0256 40.5698C49.5155 41.0757 49.6149 42.1706 50.2964 42.3124C49.8195 41.329 49.3523 40.3082 48.8824 39.3142C49.9563 38.811 51.1492 38.587 52.1795 37.9833C52.3065 37.9075 51.8968 37.4602 52.0257 37.3657C52.5797 36.9639 53.2791 37.0622 53.812 36.5816C54.2151 36.2121 54.4387 35.379 54.846 34.9737C55.7557 35.8992 56.2716 35.125 56.8598 34.9238C57.066 34.8527 57.2187 35.15 57.4022 35.1714C58.0934 35.2427 57.3174 34.4123 57.3664 34.1845C57.5802 33.2086 58.8742 35.3502 59.5292 34.9022C59.5645 34.8792 59.3449 33.4664 59.3651 33.3587C59.4799 32.6664 59.662 33.723 59.9525 33.6683C60.4811 33.5694 60.961 33.6581 61.2782 33.019C61.37 32.831 61.3089 31.9027 61.9318 32.2809C62.0136 32.3303 62.2165 32.7223 62.261 32.726C63.0464 32.7607 62.3484 31.5643 62.4291 30.9704C62.509 30.377 63.4972 30.8989 63.7371 31.076C64.3661 31.5295 63.6934 31.4576 63.7157 31.5257C63.9778 32.339 64.2613 32.0021 64.5735 31.896C65.3134 33.0355 65.6603 32.731 64.8949 31.781C64.8106 31.6777 64.6608 31.9159 64.5735 31.896C64.2333 30.912 64.3479 30.4464 64.9223 30.628L64.5202 30.9108C64.7034 30.9419 64.9376 31.0283 65.2234 31.1738C65.7915 31.464 66.0325 32.1449 66.4822 31.4586C66.6856 31.1484 65.9897 30.5094 66.0693 30.1159C66.2648 29.2067 67.5223 29.3052 68.0144 28.7238C68.1901 28.5152 67.6637 28.2851 67.7724 28.1291C68.0589 27.7144 68.6302 27.7418 68.8854 27.277C68.9078 27.2346 68.4838 26.8898 68.5968 26.788C69.4394 26.0135 70.4273 25.642 71.365 24.8769C71.8082 24.5151 72.429 23.6152 72.9213 23.2828C73.7946 22.6861 75.2737 22.467 75.8398 21.7485C76.2115 21.2807 75.7689 20.9522 75.726 20.5126C75.6368 19.6654 77.1142 20.0839 77.3236 20.1649C77.3309 20.1673 77.028 20.5842 77.4089 20.6247C77.8949 20.9657 77.3209 20.1704 77.3236 20.1649C77.4563 20.2193 78.317 19.6605 78.3996 19.4586C78.4462 19.347 78.0754 18.9952 78.1058 18.9444C78.8513 17.733 79.8075 16.7717 81.0177 16.0842C81.0431 16.0766 81.3752 16.5386 81.4304 16.5153C82.2039 16.2066 82.1638 15.3427 82.4095 14.612C82.6714 13.8686 83.1588 13.654 84.0812 14.1645C84.3897 13.7602 85.2323 13.6429 85.7129 13.5992C86.206 13.5455 85.5715 12.6396 85.5877 12.5992C86.0759 11.3377 86.9899 11.4357 88.0491 10.7912C88.5597 10.4804 89.4472 9.67246 89.9727 9.20079C90.3915 8.8213 90.8166 8.86704 91.2065 8.45805C91.2633 8.40114 90.9556 8.00914 90.9671 7.98105C91.2604 7.14959 91.5532 8.36222 91.7677 8.49047C92.494 8.92173 92.8834 9.17256 93.4673 8.69987C93.507 8.66248 93.5476 8.61909 93.5894 8.56932C93.6977 8.4359 93.5192 6.64938 93.778 6.44844C94.1116 6.19212 94.1735 6.82841 94.519 6.55017C94.549 6.52716 94.4169 6.16659 94.6714 6.09973C95.8521 5.78442 97.2212 5.64987 98.4837 5.37743C98.6574 5.34154 98.3212 4.78526 98.5757 4.72341C99.7696 4.43387 101.125 4.31151 102.307 4.54492C102.595 4.60446 102.434 5.03729 102.5 5.16091C102.898 5.90866 103.391 4.79197 103.488 4.77086C105.615 4.23649 107.106 5.38286 109.168 5.22044C109.273 5.20686 110.336 4.18121 110.524 5.26005C110.541 5.33246 110.689 6.42545 111.155 5.79419C111.182 5.75864 111.087 5.28555 111.357 5.29718C111.381 5.29758 111.409 5.30331 111.441 5.31549C111.766 5.44058 112.432 5.21562 112.777 5.89452C112.888 6.10886 113.038 7.20723 113.668 6.49481C113.707 6.44378 114.82 4.76526 114.8 6.08863C114.796 6.30621 114.452 7.63407 115.15 7.07007C115.285 6.96062 115.161 6.61929 115.48 6.49525C115.975 6.30505 116.446 6.78917 117.112 6.31698C117.229 6.23311 117.831 5.41802 117.981 6.17956C118.004 6.29882 117.806 6.72222 117.958 6.81117C118.689 7.23749 119.579 7.14009 120.3 7.64959C120.554 7.82905 120.228 8.50955 120.471 8.77654C120.715 9.04364 121.253 9.3812 121.645 9.13599C122.039 8.89099 122.007 7.66102 122.496 7.69473C124.627 7.84561 126.447 9.10349 128.437 9.88298C128.733 9.99988 128.619 9.5144 129.068 9.66028C130.71 10.1766 133.756 10.9626 134.827 12.4924C135.668 13.7003 133.989 13.4883 134.722 14.174C135.061 14.4974 136.146 13.5203 136.276 13.5415C137.493 13.7006 137.885 14.6389 138.904 15.0996C139.113 15.1959 139.242 14.6102 139.42 14.6999C140.034 15.0066 140.48 15.6523 141.048 16.0729C141.304 16.2629 141.538 15.904 141.743 16.1287C142.223 16.6582 142.596 17.2811 142.789 18.1109C142.804 18.1845 142.109 18.1867 142.46 18.6254C143.027 19.3434 143.364 20.4857 144.232 21.4119C144.482 21.6809 145.413 21.3381 145.063 22.3689C144.982 22.5928 143.821 22.6861 145.03 23.3405C145.246 23.3796 146.892 25.0419 145.955 25.9534C145.721 26.1977 144.742 26.6421 144.829 27.0801C144.844 27.1454 145.397 26.9673 145.391 27.355C145.386 27.5272 145.373 27.7003 145.353 27.8735C144.77 30.9626 142.605 32.2669 141.602 32.9893C141.259 33.2201 142.061 33.4129 141.523 33.7422C140.053 34.6066 138.636 34.7913 137.631 34.8412C137.259 34.8551 137.416 34.3653 137.38 34.3235C136.813 33.6337 136.794 34.7209 136.666 34.8078C135.91 35.3228 135.238 34.9138 134.563 35.1395C134.376 35.2002 134.579 35.6864 134.547 35.7365C134.209 36.2283 134.384 35.2835 134.123 35.2158C133.394 35.0219 132.656 35.1479 132.007 35.287C131.77 35.3387 132.106 35.8944 131.892 35.9341C130.837 36.1395 129.787 36.2318 128.88 36.1649C128.683 36.1552 128.488 36.1393 128.295 36.1165C128.071 36.0892 128.134 35.6191 128.073 35.5237C127.648 34.8561 127.347 35.912 127.264 36.0223C126.872 36.528 126.613 36.167 126.218 36.318C124.27 37.0603 121.821 37.3942 119.947 37.8136C117.515 38.3556 115.52 38.6663 113.282 39.7492C113.139 39.8181 113.525 40.3099 113.406 40.3757C111.867 41.2021 110.177 41.7287 108.614 42.6708C108.487 42.7467 108.927 43.1712 108.73 43.3104C108.325 43.6013 107.757 43.8417 107.222 43.8982C106.967 43.9245 107.043 43.3406 106.79 43.3763C106.196 43.46 105.627 43.6932 105.132 44.0381C104.922 44.1861 105.522 44.5446 105.232 44.6942C104.629 45.0099 104.029 45.3294 103.41 45.6338C102.081 46.2868 100.714 46.8591 99.1237 47.1047C98.9667 47.1288 98.2924 46.138 98.1147 46.4916C98.2488 46.7947 98.4331 47.1371 98.5901 47.4538C95.8949 49.1087 92.9638 50.3023 90.1935 51.8923C90.0764 51.9598 90.6014 52.3804 90.377 52.5134C89.0845 53.2812 87.9393 54.1936 86.307 54.4861C86.1454 54.5162 85.6186 53.535 85.327 53.9202C85.2724 53.991 84.7852 54.4795 84.7681 54.7779C84.7677 54.8215 85.1536 55.1891 84.9768 55.3214C83.9576 56.0744 82.7897 56.7063 81.5837 57.1484C81.3914 57.217 81.2527 56.6429 81.1131 56.6879C80.1041 57.0248 79.4296 58.0141 78.4048 58.1554C77.705 58.2608 77.3143 57.3607 76.4722 56.8256C76.3597 56.7442 76.0391 56.9752 75.6836 56.562C74.7606 55.5424 73.9671 54.247 72.9699 53.1711C72.7617 52.9286 72.4034 53.6872 72.245 52.8161C72.2444 52.7466 72.4821 52.2222 72.4229 51.9412C72.381 51.7463 71.9158 51.406 71.9065 51.1214C71.8916 50.842 72.3507 51.0749 72.3867 50.7098C72.4327 50.3338 71.977 49.8841 72.3486 49.515ZM87.9073 13.3849C88.5375 13.5747 87.4194 11.9833 87.3569 12.6123C87.3552 12.6447 87.8754 13.3763 87.9073 13.3849ZM51.8248 39.8846C52.6528 40.4182 52.3633 39.1442 51.748 38.7207C51.1364 38.2956 51.5747 39.7223 51.8248 39.8846ZM47.6329 42.7121C48.4463 43.0672 47.3047 40.5564 47.0096 41.3211C46.9919 41.3648 47.5858 42.6914 47.6329 42.7121ZM77.5962 55.6498C77.5755 55.6327 77.3259 55.7832 77.3371 55.8069C77.5783 56.3951 78.0707 56.0983 77.5962 55.6498ZM43.3955 45.4165C43.7094 45.6878 43.9975 45.0919 43.6122 44.7543C43.3052 44.4818 43.0097 45.0775 43.3955 45.4165ZM107.615 10.0716C107.617 10.1009 107.827 10.1569 107.847 9.99444C107.907 9.46995 107.582 9.57509 107.615 10.0716ZM35.3833 48.2872C36.6448 47.9208 38.0545 49.8604 36.7332 50.05C36.4892 50.0887 36.9771 49.1904 36.6178 49.1013C35.9453 48.9454 36.1043 50.4178 35.2781 49.9167C35.1272 49.8248 35.308 48.3034 35.3843 48.2834C35.3839 48.2847 35.3836 48.2859 35.3833 48.2872ZM89.4891 15.1169C89.5111 15.1324 89.7659 14.9723 89.7559 14.9482C89.5184 14.3552 89.0012 14.6799 89.4891 15.1169ZM119.696 13.9568C119.698 14.0134 120.353 14.239 120.388 14.1966C120.999 13.314 119.666 12.8518 119.696 13.9568ZM74.7529 29.0128C74.8982 29.699 74.635 30.0119 73.9399 29.575C74.2145 29.4015 74.4775 29.1915 74.7529 29.0128Z" fill="#C0A12F" fill-opacity="0.75"/>
</svg>
