<svg width="398" height="263" viewBox="0 0 398 263" fill="none" xmlns="http://www.w3.org/2000/svg">
<path d="M12.9339 0.00121461C13.1032 0.00192919 12.9222 0.00286588 12.6736 0.00357775C12.5966 0.00380085 12.252 0.00368788 12.1833 0.00384189C12.0493 0.0041431 12.2183 0.00442372 12.0587 0.00472138C12.0041 0.00482002 11.4584 0.00469723 11.4136 0.00480067C11.1724 0.00536749 11.3115 0.00590372 11.1954 0.00647792C10.623 0.00930623 10.4182 0.0120864 10.1695 0.0149493C10.088 0.0158933 9.59266 0.0170408 9.80927 0.0180158C9.83505 0.0181297 10.3141 0.0180618 10.3536 0.0180835C10.958 0.0184231 9.99093 0.0183102 9.86243 0.018532C9.3551 0.0194122 9.31098 0.020391 9.49586 0.021238C9.57592 0.0215984 10.5274 0.0212371 9.99335 0.0216C9.95727 0.0216251 9.44855 0.0215337 9.3943 0.0216325C9.27226 0.0218567 9.36319 0.0222819 9.32288 0.0224556C9.24263 0.0227904 9.24775 0.0228458 9.24195 0.0231624C9.2296 0.0235953 8.97672 0.0241101 9.09199 0.0245745C9.11811 0.0246737 9.6396 0.0245424 9.72834 0.0247005C9.81694 0.0248588 9.77272 0.0252774 9.64979 0.0254185C9.52679 0.0255597 9.11691 0.0254996 9.02296 0.0255246C8.22998 0.0257301 9.32826 0.0262143 9.35542 0.0262766C9.81821 0.0274126 9.19256 0.0283868 9.19435 0.0294531C9.19703 0.0302626 9.40358 0.0311282 9.37525 0.0318984C9.33949 0.0328161 9.0569 0.0335938 9.10548 0.0344853C9.11 0.0345794 9.72316 0.0344692 9.72993 0.0345841C9.80128 0.0358049 9.73444 0.0370173 9.3205 0.0382329C9.27845 0.0383548 8.74011 0.0381977 8.6659 0.0383195C8.22348 0.0390652 7.16068 0.0402451 9.50459 0.040688C9.41306 0.0411931 9.3185 0.0418063 8.84602 0.0422582C8.54192 0.0425496 7.95545 0.0422666 8.2057 0.0426245C8.26146 0.0427052 8.77506 0.0426002 8.81983 0.0427213C9.00786 0.043231 8.8409 0.0437878 9.10627 0.044292C9.16146 0.0443946 9.62166 0.0443666 9.70454 0.0443956C10.3757 0.0446398 9.26623 0.0450464 9.18562 0.045135C8.58445 0.0458099 8.82102 0.0463027 8.80635 0.0469314C8.80268 0.0470773 9.42084 0.0469049 9.43952 0.0470453C9.52812 0.0477734 9.47499 0.0485276 9.20069 0.0492406C9.13819 0.0493992 8.61163 0.0492533 8.55482 0.0493291C8.31074 0.0496633 9.30529 0.0497373 9.0904 0.0500578C9.04638 0.0501254 8.5956 0.0500873 8.54609 0.0500996C7.76894 0.0502925 8.87011 0.0504601 8.89442 0.0505097C9.2266 0.0511373 8.07704 0.0515384 8.23982 0.0521446C8.26045 0.0522172 8.83082 0.0520536 8.85395 0.0522575C9.01141 0.0536157 8.85472 0.0550522 8.39851 0.0563966C8.32835 0.0566057 7.89988 0.0564565 7.84706 0.0564696C7.02177 0.056684 8.12756 0.0568227 8.1692 0.0568909C8.46897 0.0574286 7.54164 0.0579309 8.85871 0.0582962C8.40164 0.0605734 9.14125 0.0628402 7.96132 0.0650986C7.94765 0.0651273 7.40305 0.0650759 7.37813 0.0651331C7.07234 0.0658229 7.91875 0.0656905 8.95393 0.0661469C9.21387 0.0662619 7.96406 0.0666116 7.87245 0.0666426C7.53486 0.0667553 6.72464 0.0666384 6.65926 0.0666761C6.14587 0.0669886 8.82532 0.0669376 8.82618 0.0673591C8.82171 0.0673723 8.32853 0.0673169 8.27949 0.0673523C8.12554 0.0674622 8.32151 0.0675712 8.15175 0.0676787C7.75891 0.0679248 6.45693 0.0680125 7.21468 0.0683884C7.31302 0.068436 8.83292 0.0683633 8.76112 0.0687396C8.73121 0.0688897 8.75726 0.0695537 8.65876 0.0697398C8.56039 0.0699256 8.0706 0.069798 8.04939 0.0698113C7.40173 0.0703121 7.13331 0.0701222 6.17446 0.0703731C5.21922 0.070624 7.49755 0.0705544 7.75184 0.0706567C8.00542 0.0707592 7.47106 0.0711264 7.28529 0.0712166C7.09945 0.0713068 6.78823 0.0711943 6.68306 0.0712745C5.99596 0.0718062 7.81394 0.0715079 8.17555 0.0716831C9.03177 0.0720962 7.34215 0.0724179 7.17659 0.0727961C7.13188 0.0728984 7.5167 0.0728149 7.55269 0.072906C7.69012 0.0732669 7.16292 0.0734839 7.64632 0.0738945C7.72509 0.0739616 8.74093 0.0742935 7.99544 0.0745084C7.88794 0.0745388 7.46689 0.0744523 7.37257 0.0746061C7.23103 0.0748359 7.139 0.0752498 7.27974 0.0754968C7.38387 0.0756791 8.07766 0.0754702 7.86213 0.0756996C7.7659 0.0758017 7.36003 0.0756126 7.21309 0.0758042C7.06619 0.0759948 7.08402 0.0764822 7.09804 0.0766677C7.11236 0.0768528 7.63863 0.0767515 7.67409 0.0767664C7.87718 0.076857 8.13095 0.0772122 8.13032 0.0772436C8.19457 0.0788272 7.30748 0.0802875 7.60109 0.0818293C7.62337 0.0819503 8.17833 0.0818697 8.18745 0.0818882C8.41997 0.0823024 6.94446 0.0819758 6.45058 0.0822652C7.57676 0.0822233 7.37284 0.0823942 7.49635 0.0826859C7.55678 0.0828265 7.99285 0.08275 8.03749 0.0827628C8.69982 0.0829713 7.84433 0.0831165 7.66933 0.0831539C7.02556 0.083292 7.78621 0.0834423 7.35591 0.0835362C6.92883 0.0836301 6.29568 0.083414 6.30379 0.0836939C6.70692 0.0837723 7.76042 0.0835646 7.93117 0.083777C8.577 0.0845786 7.75043 0.086075 7.66456 0.0867195C7.57878 0.0873628 7.65315 0.0875705 7.50746 0.0879453C7.24403 0.0886224 8.02566 0.0883743 8.38343 0.0887947C8.74117 0.0892163 6.81799 0.0890113 6.40456 0.089072C5.99131 0.0891315 6.41671 0.0891964 6.18953 0.0892704C5.96241 0.0893442 5.68131 0.0891845 5.59603 0.089358C5.51083 0.0895316 6.24601 0.0900062 6.6783 0.0900677C7.59413 0.0901978 8.55534 0.0899839 8.2176 0.0904432C8.19756 0.0904697 7.69187 0.0903839 7.64076 0.0904851C7.25146 0.0912885 7.22733 0.0921231 6.88301 0.0929256C6.83488 0.0930359 6.27231 0.0929372 6.23793 0.0930014C5.87811 0.0936703 6.82666 0.0934312 7.88038 0.0937977C6.4781 0.0937155 5.62018 0.0939181 5.6119 0.0944257C5.60643 0.0947309 6.21888 0.0946783 6.65053 0.0948757C6.78065 0.0949349 6.36012 0.0951508 6.64815 0.0951899C7.58966 0.095319 8.64363 0.0951156 8.22395 0.0956389C8.20401 0.0956619 7.68864 0.0955888 7.65742 0.0956681C7.45313 0.0961809 8.43794 0.0962423 8.5572 0.0967967C8.65078 0.0972312 8.05026 0.098004 7.95259 0.0984987C6.37602 0.0984883 6.73703 0.0989556 7.82405 0.0991452C7.77955 0.0994663 7.841 0.0998131 7.69075 0.100123C7.63952 0.10023 7.18306 0.10016 7.13374 0.100174C6.36005 0.10038 7.4176 0.10052 7.45906 0.100589C7.86209 0.10134 7.06055 0.101952 7.84389 0.102669C7.8721 0.102694 8.96723 0.102736 8.16761 0.102927C8.1125 0.10294 7.61423 0.102703 7.5757 0.10304C7.53708 0.103377 6.95001 0.104013 7.45747 0.104481C7.57964 0.104595 8.46867 0.104881 7.77406 0.105111C7.67974 0.105142 7.36565 0.105109 7.19087 0.105153C6.63396 0.105296 7.74087 0.105374 6.80049 0.105542C5.86016 0.10571 5.15592 0.10606 5.80471 0.106532C5.82357 0.106547 6.7009 0.106659 6.68703 0.106807C6.66413 0.107044 6.48136 0.107381 6.48708 0.107628C6.49013 0.107747 7.03491 0.107671 7.04488 0.107692C7.35015 0.108488 6.86448 0.109056 6.6537 0.109909C6.61399 0.110066 7.35688 0.110515 6.76955 0.110818C6.12661 0.111151 3.45207 0.110809 4.08926 0.111574C4.34412 0.111882 7.73726 0.112273 5.97927 0.112827C6.41489 0.113902 5.51515 0.114896 6.13716 0.115974C6.16472 0.116022 7.11172 0.116175 7.09883 0.116289C7.07786 0.116459 6.63525 0.116551 6.6061 0.116672C6.47277 0.117178 6.85146 0.117642 6.79256 0.11813C6.77116 0.118315 6.3135 0.11825 6.28792 0.118471C6.26277 0.118692 6.86542 0.118839 6.57436 0.119138C6.3525 0.119364 5.12071 0.119591 4.97713 0.119891C6.19216 0.119902 6.16713 0.120108 6.48787 0.120474C6.5501 0.120545 6.973 0.120469 7.02425 0.120502C7.24221 0.120638 6.89172 0.120763 7.12898 0.120892C7.18597 0.120923 7.60091 0.120925 7.67091 0.12095C8.28199 0.121168 7.34862 0.121527 7.18611 0.121588C6.56892 0.121824 7.1086 0.121934 6.86556 0.122116C6.62254 0.122296 6.31875 0.122026 6.17128 0.122237C5.86626 0.122675 5.93327 0.123237 5.9142 0.123681C5.90916 0.123859 6.46304 0.123738 6.47518 0.123763C6.61566 0.12413 6.02649 0.124501 7.12978 0.124704C4.27708 0.124958 7.40647 0.124925 6.8354 0.125449C6.78922 0.12549 5.4402 0.125543 5.24215 0.125384C5.04429 0.125226 5.46597 0.124986 5.15725 0.124766C5.0848 0.124714 3.82068 0.124415 3.74411 0.124375C3.14565 0.124056 5.16158 0.124011 5.2723 0.123994C6.4672 0.123802 5.10535 0.123438 5.01125 0.123342C4.58007 0.122903 4.86358 0.12253 4.55581 0.122162C4.3569 0.121922 3.03639 0.121898 3.07681 0.12171C3.21041 0.121083 5.05252 0.120864 3.45529 0.120273C3.11463 0.120146 1.67136 0.120272 2.80624 0.119818C2.87779 0.11979 3.916 0.119452 3.25931 0.119258C3.17651 0.119233 2.75588 0.119234 2.72055 0.119202C2.49199 0.118986 2.82708 0.118841 2.66659 0.118606C2.50611 0.11837 2.26685 0.118087 2.40952 0.117818C2.49482 0.117656 3.2785 0.117448 3.47036 0.117371C4.02307 0.117152 3.11686 0.116917 3.78616 0.116781C4.45882 0.116644 5.48037 0.116912 5.915 0.116553C4.82219 0.11654 3.70054 0.116509 2.60153 0.116488C2.64001 0.115702 2.99338 0.114928 2.9451 0.114139C2.93802 0.114041 2.35052 0.114141 2.32779 0.114036C2.23446 0.113594 2.65326 0.113207 2.48648 0.112749C2.35513 0.112393 1.7331 0.112004 1.57639 0.111633C2.82687 0.111406 2.40236 0.110855 2.51663 0.110454C2.55612 0.110314 2.8901 0.110324 2.99905 0.110224C3.40202 0.109848 2.29698 0.110024 2.12308 0.109921C1.38089 0.109478 3.88208 0.10944 3.82028 0.108919C3.81785 0.108891 2.48461 0.108553 2.40158 0.108507C1.86019 0.108211 2.86563 0.108458 2.96414 0.108273C3.14416 0.107935 3.46256 0.1077 3.07205 0.107304C2.95638 0.107188 2.12539 0.106911 2.76816 0.106687C2.85232 0.106657 3.29301 0.106673 3.31881 0.10665C3.74901 0.106219 2.36432 0.106208 1.89536 0.105962C1.4265 0.105716 2.38237 0.105337 2.65787 0.105259C3.37055 0.105057 2.96244 0.105414 3.03238 0.105425C3.86468 0.105554 3.72139 0.105277 3.79171 0.105065C5.14942 0.105035 5.06792 0.104739 3.85916 0.104846C3.72713 0.104858 3.85374 0.105023 3.79171 0.105065C2.45962 0.104879 2.28902 0.104554 3.53384 0.104195C4.11727 0.104027 4.79752 0.104186 4.54867 0.103675C4.43633 0.103443 3.50148 0.103533 3.24661 0.103328C2.66509 0.102861 3.53715 0.102253 3.39975 0.101772C3.34986 0.101597 2.83813 0.101767 2.78641 0.101647C2.64753 0.10133 3.0315 0.101051 2.83481 0.100732C2.81634 0.100703 2.28066 0.100774 2.27383 0.100675C2.21162 0.0999236 2.55473 0.0992697 2.56424 0.0984856C2.56859 0.0981067 2.27315 0.0974294 2.33255 0.097037C2.43234 0.0963568 3.21129 0.09552 3.02206 0.0949389C2.90093 0.09456 2.36515 0.0946431 2.00009 0.0944807C1.29247 0.0941673 2.55999 0.0936127 2.75626 0.093538C2.76275 0.0935357 2.88906 0.0938618 3.16409 0.0936878C3.73717 0.0935866 2.75874 0.0935417 2.75626 0.093538C2.88305 0.0934889 3.00467 0.0928375 2.90225 0.0927081C2.84628 0.0926378 2.33865 0.0926771 2.31906 0.0926405C1.86478 0.0917694 1.73576 0.0908967 1.97312 0.0900132C1.98337 0.0899977 2.55118 0.0900211 2.56821 0.0899845C2.82067 0.089473 2.12606 0.0891455 1.71366 0.0887237C1.30144 0.0883019 1.4395 0.0879674 2.41428 0.0877177C2.29154 0.0873994 2.72249 0.0869429 2.98398 0.0866801C3.24546 0.0864174 2.14017 0.0863807 2.11832 0.0863576C1.41895 0.0856366 2.0516 0.0852197 2.15006 0.0844717C2.19876 0.084116 2.03844 0.0834106 1.91757 0.0830255C1.8202 0.0827212 2.07923 0.0825378 1.91361 0.0822574C1.89149 0.0822195 1.39935 0.0822578 1.38041 0.0822462C0.791597 0.0819332 1.99469 0.0820836 2.20957 0.082019C2.99094 0.0817848 3.4071 0.08164 3.03952 0.0812393C2.95534 0.0811468 1.22305 0.0808775 1.12174 0.080709C0.993201 0.08049 1.61412 0.0805726 1.46372 0.0803432C1.45142 0.0803236 1.06835 0.0803277 1.08524 0.0801861C1.1586 0.0795289 1.3815 0.0788124 1.34311 0.0781294C1.33934 0.0780361 0.731739 0.0781558 0.716284 0.078021C0.644261 0.0773885 0.666747 0.0766952 0.951146 0.0760791C1.02306 0.0759274 1.44848 0.0760225 1.5748 0.0759896C2.3391 0.0757874 1.22859 0.0755008 1.20743 0.0754535C0.673773 0.0743254 1.67877 0.0734619 1.20029 0.0723121C1.1722 0.0722495 -0.01829 0.0717677 1.00272 0.0715527C1.07065 0.071538 2.11525 0.0713253 1.40103 0.0711373C1.35635 0.0711256 0.818577 0.0712581 0.873388 0.0710269C0.928079 0.0707956 0.568956 0.0704235 1.15982 0.0701056C1.34596 0.0700049 2.38798 0.0697671 1.55735 0.0694669C1.49936 0.0694473 -0.378822 0.0689839 0.917028 0.0688184C1.13034 0.0687916 2.50164 0.0688197 1.79856 0.0684614C1.66225 0.0683929 1.35638 0.0685172 1.16538 0.0683369C0.87101 0.0680605 1.23829 0.0676944 0.627417 0.0673547C0.51927 0.0672955 -0.411488 0.0670433 0.294959 0.066841C0.405601 0.0668094 0.863413 0.0668696 0.914647 0.0667627C1.16041 0.0662548 0.854178 0.0657229 1.17093 0.0652071C1.28224 0.0650244 2.02234 0.0651178 2.22067 0.0649274C2.41894 0.0647369 2.60966 0.0643532 2.27145 0.0641539C1.9331 0.0639546 0.753544 0.0641723 0.659155 0.0638738C0.249216 0.0625756 0.941174 0.0612896 1.04239 0.0599934C1.05751 0.0598011 0.63543 0.0599605 0.627417 0.0596772C0.596016 0.0586327 0.20027 0.0568292 1.09714 0.0559228C1.81549 0.0551966 2.36237 0.0561105 2.65469 0.0555556C2.79414 0.0552878 1.42279 0.0549981 1.37961 0.0549334C0.941056 0.0543019 1.54854 0.053863 1.36216 0.0532946C1.32348 0.0531772 0.767657 0.0532923 0.740881 0.0531924C0.644489 0.0528512 0.892583 0.0524926 0.847204 0.0521665C0.825567 0.0520203 0.401049 0.0520472 0.433814 0.0519126C0.507322 0.0515905 0.685769 0.0513058 1.08365 0.0509918C1.11991 0.0509632 1.64799 0.0511561 1.66764 0.0509178C1.69792 0.0505322 2.09043 0.0500535 1.68509 0.0496098C1.56316 0.0494781 0.59293 0.049473 1.26297 0.04919C1.40292 0.0491306 2.56795 0.0492064 1.56131 0.0488767C1.39403 0.0488213 0.0362664 0.0482675 0.911473 0.0479958C1.14182 0.0479241 2.09517 0.0477411 1.94534 0.0475828C1.92144 0.0475613 1.40029 0.0476473 1.34946 0.0475161C1.17938 0.0470538 1.23498 0.0465693 1.07175 0.0460943C1.02713 0.0459674 0.487853 0.0461563 0.438575 0.0459673C0.302267 0.0454475 0.439577 0.0447984 0.608374 0.0442901C0.67163 0.0441026 1.11835 0.0442322 1.16697 0.0442186C1.95769 0.0439992 0.890394 0.0438696 0.828161 0.0437968C0.455513 0.0433441 0.956866 0.0429994 0.824193 0.0425822C0.788933 0.042467 0.280034 0.0425487 0.234657 0.0425257C-0.208712 0.042288 0.705204 0.0424651 0.805944 0.0423146C1.09119 0.0418931 1.05029 0.0414232 0.985265 0.0409968C0.960631 0.0408403 0.370551 0.0410163 0.355262 0.0408757C0.253581 0.040044 0.310045 0.0391793 0.635351 0.0383676C0.697674 0.0382148 1.15205 0.0383109 1.25583 0.0382791C1.98191 0.0380595 0.991532 0.0377378 0.897191 0.0376637C0.466432 0.0373271 0.868248 0.0371963 0.793249 0.0368991C0.419836 0.0354468 0.685964 0.0336536 0.850377 0.0322827C1.06198 0.0304963 1.49424 0.0291101 1.38199 0.0274066C1.37543 0.0272983 0.770963 0.0274075 0.757543 0.0273142C0.611826 0.0261092 0.848026 0.0249229 0.673437 0.0237155C0.660182 0.0236164 0.0871456 0.0237592 0.046608 0.0236002C-0.0405582 0.023274 -0.00941159 0.0228608 0.173561 0.022531C0.261721 0.0223701 0.753437 0.0225859 0.832128 0.022424C1.01648 0.022047 1.05729 0.0216428 0.965428 0.0212556C0.925086 0.0210908 0.339016 0.0213394 0.332252 0.0211252C0.274109 0.019666 0.173172 0.018233 0.932103 0.0167584C0.984226 0.0166573 2.17535 0.0165686 1.94693 0.0163537C1.61636 0.0163375 1.22751 0.0163384 0.874181 0.0163313C0.683849 0.0142071 1.09677 0.0121046 1.16062 0.00997447C1.16317 0.00988466 0.532056 0.0100399 0.533789 0.00986599C0.54312 0.00885962 0.368281 0.00788237 0.99558 0.00685297C1.05693 0.00675083 2.16722 0.00680323 1.9993 0.00650224C1.96866 0.00644916 1.82058 0.00599583 1.57956 0.00587862C1.54321 0.0058627 1.02497 0.00594541 1.00986 0.00579933C0.931165 0.00495043 1.04948 0.00406083 1.36612 0.0032134C1.41822 0.00307664 1.9701 0.00322229 2.01199 0.00312487C2.30496 0.00243387 1.88543 0.00168226 2.38651 0.00102198C2.7239 0.000580012 3.67787 0.000743642 4.61691 0.000508785C4.74939 0.000475567 4.77038 0.000201886 5.31673 0.000187733C6.69058 0.000151398 8.19493 0.000283961 9.65931 0.000229567C9.97473 0.000218075 9.635 -0.000148454 10.3972 6.85547e-05C10.4482 8.3715e-05 10.7012 0.000349451 10.9598 0.000414902C11.1386 0.000460471 11.6942 0.000378354 11.923 0.000471329C12.1517 0.000564297 11.6859 0.000666456 11.9548 0.000820595C12.227 0.000974665 12.8591 0.000906919 12.9339 0.00121461ZM4.15274 0.0854971C4.68354 0.0852538 2.73942 0.0852179 3.20456 0.085481C3.22935 0.0854938 4.1267 0.0855096 4.15274 0.0854971ZM4.4598 0.114932C5.31729 0.114614 4.05644 0.114397 3.39419 0.114621C2.73266 0.114845 4.19986 0.115029 4.4598 0.114932ZM5.08584 0.11823C5.76193 0.117859 3.0051 0.1178 3.5624 0.118198C3.5939 0.118221 5.04658 0.118252 5.08584 0.11823ZM4.8843 0.00159793C4.91012 0.00159457 4.93528 0.00139784 4.90969 0.00139314C4.29224 0.00128838 4.24236 0.00168177 4.8843 0.00159793ZM5.76742 0.121503C6.14034 0.121387 5.70984 0.121053 5.24612 0.121197C4.87306 0.121313 5.30352 0.121648 5.76742 0.121503ZM6.22762 0.0728063C6.25659 0.0728025 6.28268 0.0726614 6.11892 0.0726643C5.59148 0.0726738 5.74034 0.0728701 6.22762 0.0728063ZM5.79915 0.127066C5.90292 0.126244 8.1802 0.125745 7.92323 0.12664C7.87674 0.126802 7.19703 0.126291 6.99172 0.126497C6.61767 0.126875 8.04753 0.127125 7.28133 0.127511C7.14109 0.12758 5.78817 0.127112 5.79598 0.127064C5.79704 0.127065 5.7981 0.127065 5.79915 0.127066ZM6.48787 0.085357C6.51358 0.0853521 6.53796 0.0851569 6.51247 0.0851522C5.89527 0.0850465 5.8458 0.0854398 6.48787 0.085357ZM7.4297 0.0645762C7.48448 0.0645654 7.53572 0.0641123 7.48524 0.0640975C6.47595 0.0638611 6.36938 0.0647772 7.4297 0.0645762ZM7.91054 0.0985065C8.53144 0.0987195 8.60455 0.0989744 7.82484 0.0991442C7.86623 0.0989325 7.87233 0.0987194 7.91054 0.0985065Z" fill="#171717" fill-opacity="0.75"/>
<path d="M281.276 221.302C276.381 222.181 269.795 222.245 264.722 222.02C263.148 221.95 263.83 220.84 262.715 220.75C260.58 220.57 258.62 221.293 256.497 221.049C255.781 220.965 256.469 219.24 255.719 219.189C251.624 218.923 247.9 219.786 243.802 219.946C243.016 219.976 242.221 220.01 241.416 220.047C233.93 220.325 226.609 221.465 219.857 223.591C216.476 224.659 213.257 225.973 210.421 227.514C209.012 228.277 207.695 229.112 206.692 229.869C206.204 230.232 205.771 230.614 205.616 230.74C205.543 230.79 205.54 230.799 205.736 230.451C205.848 230.239 205.999 229.989 206.263 229.29C206.439 228.587 207.126 227.543 206.714 224.221C206.447 222.733 205.496 221.706 205.378 221.701C205.217 221.637 205.657 222.07 206.451 222.545C206.556 222.61 206.667 222.677 206.785 222.748C209.113 224.478 216.986 226.999 223.389 226.713C224.173 226.686 223.799 225.221 223.954 225.113C226.387 223.443 225.448 226.292 226.972 226.759C233.061 228.594 240.178 228.915 246.526 228.773C249.242 228.716 246.723 225.677 249.354 227.476C249.535 227.599 248.731 229.067 249.461 229.287C249.618 229.334 249.789 229.377 249.971 229.416C251.496 229.776 253.935 229.685 254.985 229.823C257.227 230.128 257.606 230.114 259.752 230.127C262.681 230.15 266.247 230.766 269.425 230.191C270.101 230.064 269.091 228.569 270.148 228.224C270.996 227.948 273.003 227.821 274.284 227.908C274.593 227.931 274.856 227.968 275.049 228.021C276.029 228.288 275.764 229.552 275.963 229.814C277.628 232.033 280.586 228.315 281.007 228.171C287.878 225.953 294.747 226.376 301.585 226.174C302.498 226.145 303.425 226.101 304.349 226.035C310.283 225.608 316.459 224.655 321.935 224.364C328.448 224.022 333.997 224.428 340.1 223.511C340.739 223.415 339.753 221.688 340.529 221.566C342.166 221.307 343.782 221.043 345.369 220.77C351.718 219.67 357.915 218.417 363.725 216.92C364.457 216.726 364.242 218.599 365.027 218.485C367.263 218.142 370.3 217.666 372.248 216.288C373.333 215.561 373.916 214.469 373.346 214.052C372.766 213.617 371.428 214.331 369.84 215.374C370.077 215.897 370.26 215.935 370.194 215.722C370.137 215.508 369.885 215.083 369.531 214.591C368.793 213.548 367.702 212.26 366.88 210.894C365.793 209.177 368.241 208.564 365.832 208.058C365.289 207.951 365.147 209.627 364.399 209.375C361.283 208.335 358.084 206.407 354.658 206.003C353.96 205.925 353.67 207.29 353.407 207.459C351.271 208.822 349.798 204.868 349.27 204.464C349.174 204.388 349.077 204.313 348.981 204.24C345.281 201.455 341.878 201.387 337.804 200.632C336.827 200.455 337.669 202.477 336.73 202.377C331.874 201.843 326.786 201.163 321.886 200.002C320.802 199.741 321.918 198.232 321.402 198.027C319.1 197.146 318.406 200.098 316.202 199.346C315.729 199.192 316.061 197.854 315.981 197.701C314.724 195.311 313.398 198.568 313.048 198.629C311.67 198.888 310.463 198.735 309.302 198.411C306.74 197.689 304.472 196.111 301.479 196.423C300.962 196.481 302.113 198.2 300.661 198.259C290.988 198.669 280.729 198.377 271.064 197.34C269.564 197.182 270.584 195.86 270.486 195.705C268.852 193.285 267.984 196.64 267.502 196.784C263.703 197.833 259.968 195.232 257.581 199.325C255.307 199.261 253.039 199.282 250.808 199.373C247.558 199.508 244.299 199.781 241.378 200.243C239.947 200.471 238.545 200.779 237.705 201.084C237.291 201.23 237.082 201.359 237.104 201.341C237.124 201.336 237.236 201.152 236.996 201.474C236.037 202.746 235.252 205.46 235.236 206.891C235.224 207.083 235.203 207.122 235.135 207.072C235.07 207.023 234.948 206.909 234.855 206.881C234.649 206.809 234.736 207.11 235.139 207.471C235.953 208.221 237.528 209.077 239.138 209.887C239.315 209.97 238.603 211.482 238.969 211.643C241.951 212.921 242.809 212.059 244.064 210.639C244.675 209.924 245.409 209.057 246.579 208.177C247.433 207.513 249.394 211.529 249.595 211.825C250.283 212.923 249.173 215.243 249.421 215.468C251.494 217.247 251.979 209.22 254.913 209.5C255.004 209.522 254.478 210.959 254.712 211.129C255.448 211.662 256.262 211.144 256.985 211.718C258.615 213.038 258.955 216.988 261.813 214.916C262.172 214.644 261.985 210.067 264.626 210.457C265.68 210.623 270.387 210.81 271.692 211.159C272.996 211.515 272.025 212.941 272.115 213.009C275.6 215.106 274.215 215.85 275.917 218.793C277.632 221.72 277.358 214.87 278.108 214.13C278.858 213.394 281.434 215.06 282.074 215.627C282.711 216.195 281.887 217.115 282.458 217.44C286.258 219.554 284.176 214.07 285.428 212.997C287.064 211.576 288.464 212.512 289.879 213.691C291.016 214.627 292.141 215.717 293.344 215.894C294.077 216.001 293.443 214.87 294.082 214.736C296.58 214.21 298.258 215.705 300.922 213.955C301.123 213.813 301.721 212.917 302.35 212.299C302.654 211.991 302.998 211.747 303.247 211.716C303.361 211.703 303.481 211.733 303.459 211.876C303.447 211.951 303.404 212.04 303.152 212.278C303.074 212.346 302.978 212.428 302.856 212.539C302.796 212.594 302.729 212.656 302.655 212.728C302.552 212.821 302.406 212.955 302.254 213.122C302.099 213.291 301.923 213.501 301.74 213.784C301.648 213.925 301.555 214.084 301.466 214.265C301.355 214.482 301.21 214.824 301.118 215.175C300.92 215.885 300.907 216.808 301.142 217.586C301.198 217.781 301.267 217.966 301.343 218.138C301.406 218.279 301.47 218.403 301.539 218.523C301.676 218.762 301.824 218.966 301.97 219.139C302.641 219.882 302.906 219.892 303.046 219.93C303.182 219.942 303.189 219.855 303.157 219.731C303.094 219.499 302.823 218.984 303.051 218.924C303.157 218.891 303.401 218.991 303.705 219.075C303.916 219.102 304.161 219.124 304.342 219.102C304.659 219.04 304.692 218.884 304.548 218.799C304.319 218.664 303.861 218.546 303.355 218.466C301.761 218.226 299.784 218.184 298.481 218.537C297.196 218.889 298.74 220.921 297.104 220.33C296.371 220.069 297.668 218.8 296.287 218.413C294.914 218.019 291.439 218.276 290.118 218.426C288.808 218.57 289.654 220.089 289.555 220.203C288.956 220.857 286.54 221.84 286.325 221.864C282.301 222.332 278.384 222.535 274.525 222.84C272.609 222.992 270.681 223.174 268.864 223.455C267.957 223.597 267.075 223.764 266.337 223.964C266.139 224.02 265.992 224.061 265.858 224.105C265.73 224.143 265.633 224.189 265.707 224.119C265.729 224.09 265.866 223.997 266.086 223.711C266.29 223.46 266.97 222.395 266.528 221.008C266.429 220.703 266.287 220.439 266.144 220.234C266.035 220.079 265.925 219.955 265.823 219.854C265.621 219.656 265.445 219.543 265.343 219.485C265.176 219.393 265.098 219.376 265.083 219.377C267.113 220.25 270.084 220.533 272.932 220.388C273.758 220.345 273.252 218.664 273.378 218.641C276.191 217.987 273.897 222.389 275.968 223.874C275.655 220.495 276.855 221.114 278.903 220.677C279.887 220.462 279.299 219.173 279.385 219.036C280.751 216.997 281.88 219.502 282.179 220.012C283.271 221.887 284.195 219.54 284.947 220.782C285.708 222.012 284.286 224.019 286.302 223.849C286.771 222.601 285.062 219.56 286.527 218.935C291.598 216.785 301.215 217.662 306.448 217.645C306.821 217.651 307.161 217.642 307.474 217.618C311.558 217.207 312.843 216.355 315.485 215.941C320.362 215.07 317.864 213.433 320.639 211.425C323.568 209.456 323.511 215.492 324.278 216.56C324.999 217.651 325.133 216.3 325.804 216.843C326.46 217.39 325.582 218.457 326.792 218.443C327.652 218.433 329.317 217.013 330.395 215.765C330.488 215.696 330.526 215.645 330.672 215.537C330.695 215.51 330.76 215.486 330.868 215.362C330.919 215.293 330.971 215.224 330.988 215.059C330.998 214.904 330.93 214.783 330.877 214.725C330.716 214.578 330.662 214.618 330.612 214.615C330.418 214.644 330.315 214.732 330.207 214.806C329.99 214.96 329.83 215.127 329.732 215.29C328.188 217.758 329.234 220.935 326.104 219.23C325.922 219.129 326.879 217.786 326.167 217.472C324.695 216.819 323.231 216.284 321.48 215.318C320.818 214.937 320.111 214.473 319.442 213.666C318.77 212.891 318.264 211.559 318.409 210.411C318.747 208.111 320.031 207.151 321.095 206.337C322.116 205.628 323.134 205.211 324.12 204.879C324.613 204.714 325.101 204.577 325.571 204.457C325.806 204.397 326.038 204.34 326.249 204.289C326.355 204.263 326.455 204.239 326.537 204.22C326.605 204.214 326.72 204.147 326.572 204.283C326.506 204.356 326.384 204.457 326.278 204.768C326.218 204.948 326.203 205.19 326.253 205.393C326.309 205.613 326.375 205.706 326.443 205.802C326.587 205.984 326.658 206.004 326.694 206.024C326.733 206.042 326.746 206.038 326.745 206.03C326.737 205.992 326.611 205.915 326.486 205.849C325.844 205.542 326.86 204.05 326.425 203.845C321.719 201.94 323.085 205.104 319.997 207.837C321.185 203.749 320.073 201.026 316.55 200.423C314.432 200.04 314.482 201.91 312.827 202.908C312.323 203.209 311.066 201.646 310.601 202.421C309.039 204.907 309.795 208.383 306.22 206.203C306.073 206.148 305.916 206.085 305.745 206.008C305.071 205.653 307.765 205.171 305.461 203.971C305.066 203.697 304.563 203.261 304.192 202.525C303.731 201.695 303.713 200.396 304.015 199.665C304.447 198.545 305.045 198.144 305.23 197.969C305.799 197.516 306.053 197.404 306.356 197.222C306.869 196.928 307.253 196.704 307.574 196.473C308.232 196.01 308.69 195.525 309.182 195.006C310.136 193.984 311.137 192.854 313.226 192.218C316.524 191.19 322.577 192.128 326.267 192.116C326.639 196.823 329.85 195.474 331.109 192.16C333.505 192.171 336.101 191.939 338.416 192.428C339.21 192.595 338.66 193.955 338.758 194.105C340.21 196.454 341.323 193.333 341.861 193.235C343.146 193.023 344.381 193.022 345.572 193.132C346.864 193.259 348.242 193.598 349.633 194.513C351.011 195.375 352.272 197.18 352.47 198.96C352.797 202.566 351.284 204.778 350.07 207.339C349.994 207.512 351.786 210.443 348.732 209.713C348.578 209.608 349.408 207.218 346.866 208.826C346.179 209.223 345.253 209.561 344.226 209.818C341.475 210.501 338.223 210.638 335.875 212.205C335.132 212.724 333.289 215.721 331.285 213.842C331.023 213.586 331.168 212.622 330.784 212.137C329.576 210.585 329.28 213.947 327.829 211.224C326.374 208.493 323.993 206.539 320.694 208.396C320.595 208.449 319.706 211.061 318.615 210.951C317.479 210.836 316.042 210.451 314.723 210.082C314.034 209.892 313.388 209.709 312.794 209.58C311.959 209.393 312.102 211.105 311.949 211.1C309.92 210.882 308.031 210.334 306.343 208.81C305.555 208.072 304.6 206.739 304.89 205.076C305.225 203.454 306.358 202.71 307.254 202.247C309.206 201.344 311.126 201.2 313.266 200.967C314.345 200.841 317.468 198.169 319.827 199.855C322.242 201.747 320.267 209.647 324.633 207.964C324.713 207.936 324.795 207.888 324.879 207.823C325.737 207.162 326.983 204.654 328.7 203.291C329.541 202.618 330.527 202.236 331.276 202.631C331.634 202.816 331.909 203.258 331.767 203.674C331.629 204.093 331.091 204.26 330.461 204.083C330.424 204.298 330.22 204.609 329.957 204.881C324.793 209.896 317.754 209.95 311.138 212.721C310.968 212.789 310.723 213.558 310.414 214.323C310.257 214.706 310.082 215.09 309.93 215.382C309.843 215.53 309.779 215.653 309.736 215.74C309.725 215.781 309.705 215.82 309.788 215.814C309.854 215.789 309.809 215.872 310.215 215.612C310.311 215.541 310.435 215.44 310.573 215.259C310.703 215.068 310.87 214.861 310.923 214.313C310.961 213.81 310.748 213.357 310.568 213.13C310.383 212.891 310.233 212.791 310.128 212.721C310.131 212.723 310.134 212.725 310.137 212.727C310.977 213.333 310.962 214.788 311.738 215.2C315.04 216.906 318.526 215.83 321.914 215.78C323.23 215.745 322.888 217.153 324.491 217.075C326.086 216.998 326.958 215.041 329.21 215.785C330.361 216.185 331.779 218.302 331.765 219.678C331.933 220.274 332.096 220.769 332.379 221.053C334.013 217.878 335.357 218.243 337.683 219.634C338.125 219.979 338.879 218.796 339.168 218.968C339.723 219.34 340.038 220.095 339.928 221.037C339.789 221.962 339.304 222.693 339.083 223.584C338.988 223.961 339.867 224.84 339.742 225.253C339.187 227.043 337.381 227.601 336.138 227.447C334.84 227.32 333.855 226.665 333.561 226.48C331.433 225.003 330.877 226.652 329.441 226.019C328.083 225.353 329.986 224.357 328.473 223.976C326.582 223.468 324.36 223.253 322.415 222.853L323.754 225.007C323.637 225.361 323.612 225.296 323.647 225.279C323.68 225.244 323.759 225.171 323.844 225.102C324.023 224.955 324.258 224.791 324.499 224.637C324.983 224.327 325.513 224.037 326.031 223.784C327.113 223.261 325.653 222.133 325.79 222.023C328.042 220.462 331.069 221.292 331.523 217.696C333.991 222.117 333.924 221.055 334.407 219.453C334.736 218.293 335.386 216.838 337.135 217.276C337.478 217.362 338.414 221.304 337.501 222.063C336.937 222.537 336.052 222.362 335.159 222.485C334.614 222.56 334.067 222.746 333.64 223.239C333.328 223.546 332.738 227.735 332.632 228.029C331.545 230.344 328.993 224.902 328.729 224.645C326.065 221.856 325.594 226.756 325.726 227.094C325.686 227.252 325.673 227.387 325.781 227.397C325.838 227.396 325.919 227.377 326.092 227.214C326.239 227.055 326.547 226.8 326.859 225.858L323.026 219.692C324.856 219.439 326.975 219.966 328.775 219.114C330.199 218.436 329.9 214.466 330.662 214.48C331.58 214.487 332.156 215.124 332.305 215.902C332.37 216.308 332.284 216.738 331.954 217.458C331.634 218.142 331.083 219.429 330.981 220.653C330.894 222.53 331.305 223.338 331.259 223.893C331.255 224.445 331.018 224.816 330.635 225.326C330.318 225.727 329.468 226.761 329.031 227.415C328.562 228.053 328.692 228.399 329.372 226.831C329.412 226.748 329.634 226.172 329.805 225.674C330.972 225.257 330.527 224.54 330.158 225.705C330.076 225.954 330.104 227.216 329.998 227.324C329.235 228.035 328.217 227.127 326.582 227.782C324.94 228.435 322.574 229.409 319.932 229.025C318.329 228.809 316.299 226.34 315.611 225.679C313.714 223.855 310.613 225.909 309.739 223.476C309.155 221.106 312.329 219.088 310.089 216.746C308.612 219.675 306.869 222.572 305.122 225.382C304.342 224.976 303.591 224.527 302.855 224.028C301.797 223.233 299.461 222.014 297.953 217.469C297.264 215.258 297.372 212.384 298.161 210.291C298.713 208.748 299.472 207.605 300.159 206.771C301.563 205.117 302.633 204.51 303.388 204.056C303.771 203.838 304.089 203.683 304.364 203.558C304.535 203.481 304.542 203.479 304.616 203.447C304.678 203.421 304.737 203.396 304.794 203.373C305.689 203.017 306.169 202.91 306.492 202.827C306.954 202.716 307.3 202.658 307.458 202.633C307.849 202.571 308.057 202.55 308.276 202.526C308.664 202.487 308.969 202.465 309.262 202.444C309.839 202.404 310.366 202.373 310.881 202.338C311.925 202.266 312.919 202.183 313.914 202.046C315.894 201.777 317.807 201.307 319.478 200.458C319.924 200.225 318.718 198.847 319.143 198.567C320.533 197.637 322.126 197.519 323.385 196.613C323.075 197.046 322 197.168 320.517 200.856C319.873 202.577 319.732 205.478 320.5 207.666C321.235 209.883 322.288 211.143 322.96 211.933C324.358 213.456 324.772 213.761 324.959 214.179C325.261 214.886 324.691 215.3 324.126 215.489C324.119 215.405 324.111 215.323 324.102 215.244C323.686 211.691 320.488 212.836 318.43 212.742C317.673 212.702 317.606 211.704 317.023 211.451C314.838 210.563 316.351 213.693 315.974 214.287C315.359 215.387 314.898 214.654 314.238 213.544C313.651 212.399 312.63 211.065 312.62 210.255C312.646 209.944 312.82 209.744 313.431 208.989C313.485 208.905 313.904 208.814 314.58 208.267C315.243 207.75 316.169 206.515 316.568 204.901C317.321 201.495 316.514 199.246 316.456 198.93C315.936 197.742 315.752 197.536 315.568 197.452C315.39 197.392 315.249 197.581 315.08 197.821C314.769 198.324 314.25 198.96 313.949 198.946C313.516 199.004 313.777 199.548 314.19 199.837C314.624 200.143 315.304 200.289 316.278 199.955C316.363 199.926 316.451 199.893 316.542 199.856C317.205 199.606 318.847 197.276 320.044 199.256C320.207 199.516 320.051 200.832 320.19 200.916C322.813 202.292 322.946 198.101 324.327 196.668C325.697 195.232 328.098 197.916 328.677 198.683C330.127 200.687 327.812 199.686 327.763 199.893C327.148 202.444 328.878 201.889 330.241 201.936C330.905 205.967 332.872 205.45 331.651 201.958C331.521 201.578 330.536 202.091 330.241 201.936C330.986 197.822 332.564 197.101 335.403 200.288C336.739 201.75 336.413 204.026 339.14 202.415C340.215 201.709 339.025 199.495 339.275 198.375C339.279 198.303 339.288 198.237 339.302 198.177C339.538 197.123 339.992 197 340.284 197.241C340.424 197.385 340.476 197.618 340.398 198.296C340.345 198.931 340.117 200.354 340.73 202.172C341.206 203.424 340.987 203.647 340.556 203.806C340.159 203.948 339.621 203.993 340.254 204.952C341.353 206.492 342.577 207.04 343.236 207.22C343.926 207.398 344.216 207.278 344.291 207.211C343.585 207.048 342.855 206.963 342.071 207.141C341.887 207.185 342.227 208.815 341.613 208.799C336.965 208.736 332.725 207.8 327.645 208.222C325.179 208.415 320.97 209.882 318.588 210.182C317.229 210.344 315.762 210.346 314.434 210.341C313.81 210.325 313.148 210.34 312.899 210.247C312.844 210.219 312.815 210.185 312.875 210.11C312.928 210.035 313.081 209.927 313.5 209.618C313.691 209.471 314.129 209.166 314.683 208.641C314.912 208.418 315.423 207.94 316.009 207.135C316.301 206.733 316.613 206.247 316.915 205.64C317.066 205.337 317.214 205.004 317.351 204.638C317.499 204.25 317.699 203.614 317.818 203.013C318.461 200.629 317.552 196.807 316.412 195.275C315.294 193.52 314.058 192.591 313.164 192.023C311.861 191.24 311.201 191.092 310.664 190.938C311.904 191.611 313.288 192.092 314.577 192.155C317.01 192.269 316.798 190.576 317.998 189.678C320.264 187.925 323.494 192.211 324.018 192.881C324.009 192.899 321.668 192.95 322.771 193.94C323.252 195.745 323.988 192.884 324.018 192.881C324.152 193.069 325.096 193.361 326.365 193.666C327.026 193.826 327.727 193.974 328.73 194.213C329.249 194.347 329.794 194.45 330.985 194.89C331.333 195.024 331.709 195.18 332.199 195.429C332.87 195.796 333.505 196.088 334.77 197.23C335.507 197.925 336.394 198.924 337.132 200.434C337.862 201.767 338.524 204.728 338.063 206.956C337.586 209.44 336.841 210.479 336.203 211.441C335.544 212.364 334.924 212.964 334.402 213.418C333.331 214.313 332.922 214.495 332.592 214.704C332.266 214.895 332.08 214.994 331.912 215.085C331.606 215.251 331.447 215.339 331.324 215.415C330.519 215.942 331.591 217.139 331.258 217.341C330.484 217.835 330.254 218.106 330.156 218.31C330.085 218.492 330.257 218.6 330.902 218.221C331.314 217.966 331.817 217.615 332.504 216.733C333.143 215.849 334.21 214.316 334.465 211.235C334.809 208.15 333.104 204.219 331.536 202.654C329.971 200.947 328.943 200.51 328.362 200.199C327.88 199.97 328.084 200.066 328.343 200.138C328.621 200.224 329.041 200.348 329.516 200.486C329.995 200.625 330.529 200.78 331.142 200.961C331.453 201.052 331.777 201.148 332.169 201.265C332.372 201.325 332.588 201.389 332.854 201.468C333.156 201.559 333.39 201.624 334.107 201.852C334.337 201.937 334.186 202.345 334.069 202.765C334.018 202.978 333.989 203.198 334.075 203.401C334.119 203.504 334.192 203.603 334.323 203.704C334.438 203.801 334.678 203.914 335.189 204.143C335.306 204.197 335.433 204.257 335.574 204.326C335.727 204.403 335.817 204.446 336.137 204.621C336.697 204.944 337.435 205.347 338.571 206.396C338.713 206.53 338.86 206.676 339.014 206.836C339.293 207.128 339.606 207.485 339.925 207.91C340.559 208.758 341.277 209.93 341.777 211.546C343.013 214.781 341.72 219.779 340.399 221.414C337.504 225.466 335.202 225.673 334.951 225.922C333.634 226.445 332.902 226.54 332.644 226.595C332.291 226.658 332.025 226.692 331.796 226.717C329.089 226.519 327.881 228.881 326.074 230.688C324.205 232.57 321.744 233.061 318.824 230.949C316.509 232.159 311.728 232.078 309.05 231.574C308.56 231.494 308.168 231.53 307.835 231.649C306.85 232.132 306.864 234.37 306.748 234.435C301.947 237.056 298.63 235.546 293.072 235.779C290.421 235.892 285.136 236.797 282.128 237.294C279.755 237.699 278.277 236.97 275.989 237.485C275.68 237.553 276 239.028 275.905 239.085C273.252 240.849 274.551 237.237 274.022 236.59C272.059 234.196 271.107 232.987 267.381 233.707C266.61 233.876 263.104 238.668 260.424 238.218C259.53 238.069 258.967 237.815 258.587 237.543C256.613 236.358 255.727 236.695 251.313 231.453C250.339 230.16 248.471 226.919 248.267 223.138C248.011 219.2 249.231 215.982 250.71 213.678C252.067 211.641 253.02 210.819 254.091 209.892C254.996 209.146 255.619 208.718 256.334 208.243C256.68 208.022 256.57 207.741 256.922 207.231C257.088 206.984 257.345 206.696 257.738 206.403C258.09 206.13 258.498 205.884 259.078 205.669C267.293 203.059 271.784 203.408 277.419 202.406C278.155 202.296 276.972 200.614 278.026 200.428C282.999 199.555 288.462 199.14 293.355 199.743C294.561 199.898 293.874 201.211 294.151 201.577C295.819 203.788 297.925 200.39 298.311 200.318C300.061 199.956 301.748 199.8 303.396 199.778C304.039 199.775 304.631 199.78 305.598 199.849C305.831 199.867 306.083 199.888 306.418 199.924C306.747 199.961 307.051 199.996 307.598 200.085C307.855 200.127 308.134 200.178 308.448 200.244C308.862 200.33 309.339 200.442 309.93 200.617C310.39 200.76 311.529 201.088 313.065 201.896C313.468 202.11 313.847 202.324 314.389 202.676C315.137 203.168 316.002 203.808 316.955 204.745C318.735 206.631 321.511 209.609 321.843 216.053C321.919 218.947 321.158 221.624 320.225 223.536C319.392 225.214 318.828 225.939 318.152 226.795C316.879 228.352 315.657 229.286 314.985 229.772C313.835 230.591 313.004 231.008 312.354 231.321C311.408 231.766 310.652 232.022 310.267 232.147C309.312 232.451 308.835 232.55 308.349 232.657C307.419 232.851 306.82 232.929 306.218 233.001C303.936 233.254 302.241 233.246 300.504 233.264C297.064 233.282 293.788 233.275 290.17 233.904C290.165 233.904 290.159 233.905 290.154 233.906C289.686 234.005 285.899 237.595 284.288 234.507C284.176 234.303 282.611 231.152 281.152 233.265C281.06 233.397 282.032 235.031 280.286 234.83C278.541 234.628 275.689 235.62 273.374 233.751C272.638 233.162 271.014 229.966 268.655 232.339C268.513 232.509 264.705 237.941 263.697 233.978C263.535 233.325 264.011 229.24 261.202 231.162C260.662 231.533 261.527 232.515 260.137 232.99C257.997 233.722 255.339 232.405 252.586 233.986C252.122 234.27 249.886 236.86 248.54 234.581C248.329 234.224 248.943 232.91 248.135 232.666C245.847 231.968 243.382 231.814 240.822 231.406C239.088 231.128 237.297 230.732 235.487 229.946C233.873 229.237 235.251 227.288 233.646 226.264C232.02 225.211 228.478 223.619 224.804 222.378C223.004 221.765 222.275 222.555 221.495 223.289C220.706 223.884 219.688 224.812 216.473 221.22C213.529 217.807 211.984 212.947 211.618 210.36C210.426 200.987 212.281 195.266 216.907 188.16C218.474 185.603 223.201 181.338 226.431 180.073C229.736 178.568 231.974 178.179 233.909 177.824C237.7 177.21 240.5 177.115 243.281 176.89C244.833 176.78 243.437 175.64 245.682 175.408C246.722 175.303 247.803 175.186 248.981 175.061C257.022 174.193 267.871 173.153 273.794 175.336C279.19 177.337 272.53 179.167 276.619 179.93C278.587 180.296 280.612 176.136 281.088 175.997C285.707 174.585 288.962 176.366 293.146 175.781C294.011 175.661 293.153 173.998 293.89 173.914C296.414 173.613 299.072 174.361 301.496 174.244C302.579 174.188 302.398 172.913 303.4 173.022C305.68 173.258 307.712 173.786 309.9 174.91C310.02 174.971 310.14 175.034 310.261 175.099C310.473 175.213 308.98 176.758 310.77 176.865C313.654 177.035 317.192 178.348 320.622 177.33C321.644 177.025 321.871 174.117 323.91 176.272C324.344 176.726 323.49 180.159 326.253 177.346C326.691 176.87 331.417 173.2 333.309 176.076C333.805 176.829 334.876 179.838 336.171 179.561C336.35 179.514 335.883 177.871 336.936 177.862C340.673 177.865 344.55 178.71 348.502 179.108C349.565 179.215 348.38 177.28 349.97 177.499C352 177.783 354.237 178.356 356.414 179.096C358.918 179.945 361.358 181.017 363.447 182.073C364.879 182.806 363.372 183.676 363.433 183.854C364.309 186.714 366.48 184.147 367.144 184.216C371.202 184.69 373.326 187.347 376.886 188.867C377.88 189.305 377.966 187.601 378.222 187.589C380.895 187.602 378.021 189.097 379.115 190.102C381.082 191.954 383.418 193.669 386.123 196.045C387.623 197.389 389.287 198.932 391.057 201.333C392.88 204.014 392.356 199.817 394.058 202.582C397.004 206.779 398.517 217.195 395.371 223.38C392.598 229.549 389.45 232.015 387.07 234.028C382.839 237.326 379.13 238.946 375.568 240.151C374.148 240.605 374.425 238.972 374.019 238.817C371.275 237.69 369.768 241.452 369.202 241.955C366.777 244.208 365.289 243.405 362.887 244.346C358.833 245.915 354.421 247.058 349.938 247.836C341.428 249.3 333.224 249.505 326.512 249.68C317.802 249.893 310.494 249.53 303.467 249.743C299.794 249.859 296.143 250.155 292.205 250.78C291.47 250.894 292.443 252.597 291.82 252.719C287.341 253.541 282.449 254.229 276.926 254.72C272.81 255.08 268.64 255.368 264.374 255.743C263.577 255.808 264.787 257.491 263.5 257.651C260.858 257.991 257.441 257.907 254.714 257.276C253.388 256.97 255.216 255.552 253.892 255.273C251.983 254.864 249.983 254.576 247.955 254.393C246.983 254.303 245.989 254.279 244.997 254.319C243.887 254.369 245.435 256.229 244.006 256.16C234.176 255.683 223.732 256.163 211.44 252.303C210.572 252.022 210.368 248.393 208.415 248.743C208.096 249.693 207.893 250.842 207.638 251.872C203.652 251.217 199.321 250.354 193.94 247.639C191.926 246.57 189.418 245.215 186.444 242.518C183.566 239.952 179.773 234.95 178.879 228.666C178.166 222.684 179.563 220.465 180.059 218.895C180.778 217.175 181.315 216.324 181.862 215.454C182.916 213.838 183.783 212.844 184.575 211.971C186.18 210.235 187.567 209.054 188.946 207.959C191.677 205.818 194.252 204.233 196.832 202.809C201.985 199.993 207.062 197.963 212.174 196.222C212.898 195.978 211.022 194.623 212.432 194.143C220.656 191.38 228.698 189.148 237.249 189.93C237.398 189.943 237.52 190.055 237.634 190.226C238.131 191.051 238.473 193.229 240.215 192.591C240.571 192.453 243.807 191.607 244.584 190.786C244.687 190.664 243.898 189.193 244.957 189.02C251.099 188.045 257.615 187.678 263.922 188.006C264.949 188.061 264.037 189.815 264.766 189.869C269.897 190.246 275.263 188.506 280.282 189.645C283.629 190.42 282.619 193.363 284.523 196.061C284.759 196.442 286.817 196.383 286.993 198.018C287.468 202.119 286.784 206.677 287.415 211.042C287.487 211.511 288.112 211.459 288.553 211.588C288.675 211.619 288.738 211.665 288.811 211.73C288.845 211.796 288.942 211.886 288.626 212.012C288.555 212.042 288.503 212.074 288.55 212.108C288.594 212.143 288.69 212.178 288.746 212.215C288.868 212.289 288.881 212.374 288.869 212.471C288.851 212.665 288.766 212.903 288.591 213.197C288.528 213.351 286.767 214.207 286.372 215.011C286.087 215.566 286.752 217.195 286.164 217.919C285.573 218.643 284.787 217.294 283.772 218.173C282.783 219.063 283.376 220.918 281.276 221.302ZM299.964 229.033C298.032 227.64 298.392 233.467 300.155 231.874C300.239 231.79 300.063 229.101 299.964 229.033ZM316.841 206.309C319.59 208.151 319.502 204.086 317.58 202.694C315.795 201.232 316.068 205.723 316.841 206.309ZM323.041 220.83C320.112 218.999 319.825 227.285 323.147 225.406C323.336 225.297 323.218 220.933 323.041 220.83ZM276.653 197.444C276.673 197.519 278.124 197.478 278.144 197.4C278.76 195.492 275.884 195.573 276.653 197.444ZM333.238 222.193C333.721 222.657 334.438 222.406 334.724 221.902C335.023 221.395 334.841 220.722 334.298 220.212C333.876 219.792 333.462 219.988 333.127 220.444C332.81 220.896 332.64 221.616 333.238 222.193ZM293.519 218.736C293.493 218.651 292.469 218.606 292.5 219.096C292.626 220.677 294.034 220.181 293.519 218.736ZM348.832 219.836C343.259 219.313 338.916 212.797 345.883 213.388C347.098 213.526 343.255 215.577 344.812 216.184C347.539 217.291 349.582 213.099 352.277 215.572C352.74 216.018 349.133 219.869 348.821 219.845C348.824 219.842 348.828 219.839 348.832 219.836ZM298.201 222.177C298.165 222.104 296.747 222.181 296.726 222.26C296.159 224.182 299.004 224.029 298.201 222.177ZM235.481 210.487C235.482 210.4 234.815 210.075 234.26 209.756C233.684 209.435 233.273 209.132 233.207 209.175C231.825 209.999 231.963 211.281 233.093 211.908C234.167 212.512 235.571 212.198 235.481 210.487ZM326.337 192.236C327.741 190.236 329.73 189.883 331.102 192.158C329.525 192.113 327.921 192.208 326.337 192.236Z" fill="#D6AE1E" fill-opacity="0.75"/>
<path d="M372.825 165.879L371.355 166.896" stroke="black" stroke-width="5" stroke-linecap="round"/>
<path d="M362.208 175.437C362.086 175.683 361.963 175.929 361.135 177.017C360.307 178.104 358.777 180.027 357.201 182.008" stroke="black" stroke-width="5" stroke-linecap="round"/>
<path d="M348.343 183.202C348.343 183.276 347.786 184.383 346.642 186.459C346.055 187.466 345.457 188.381 344.91 189.316C344.362 190.25 343.884 191.178 343.016 192.297" stroke="black" stroke-width="5" stroke-linecap="round"/>
<path d="M335.004 195.769C334.965 195.769 334.927 195.769 334.41 196.011C333.892 196.252 332.897 196.734 331.499 197.744C330.101 198.753 328.331 200.275 325.553 203.056" stroke="black" stroke-width="5" stroke-linecap="round"/>
<path d="M315.913 203.056C315.764 203.056 314.685 203.235 312.551 204.073C311.422 204.73 310.196 205.861 309.299 206.885C308.402 207.908 307.871 208.789 305.992 211.263" stroke="black" stroke-width="5" stroke-linecap="round"/>
<path d="M290.381 215.034H294.695" stroke="black" stroke-width="5" stroke-linecap="round"/>
<path d="M276.235 225.708H276.86" stroke="black" stroke-width="5" stroke-linecap="round"/>
<path d="M266.206 229.736C266.136 229.736 266.065 229.736 265.496 229.736C264.926 229.736 263.859 229.736 262.461 231.044C261.063 232.352 259.366 234.967 257.532 237.871" stroke="black" stroke-width="5" stroke-linecap="round"/>
<path d="M246.812 242.269C246.756 242.269 246.7 242.269 245.346 242.289C243.992 242.308 241.341 242.346 239.299 242.652C237.257 242.957 235.903 243.529 234.041 244.499" stroke="black" stroke-width="5" stroke-linecap="round"/>
<path d="M227.711 243.642C227.56 243.642 226.06 243.825 222.857 244.587C218.981 246.133 213.869 249.339 208.839 253.377C206.762 255.206 205.65 256.588 203.622 259.688" stroke="black" stroke-width="5" stroke-linecap="round"/>
</svg>
