<svg width="209" height="167" viewBox="0 0 209 167" fill="none" xmlns="http://www.w3.org/2000/svg">
<path d="M93.3188 96.459C86.8871 96.759 78.4776 96.7522 71.4905 95.7248C69.8045 95.4583 70.0473 95.2567 69.6103 95.0624C68.9077 94.8754 67.052 94.596 65.3851 92.3862C63.9213 90.1449 64.1484 88.8274 64.1198 87.9159C64.1623 86.9984 64.3002 86.3646 64.4369 85.7947C64.7172 84.6826 65.0476 83.8339 65.39 83.0354C66.0807 81.4557 66.86 80.1003 67.8203 78.8018C68.4647 77.9542 68.1682 79.3457 68.8333 78.4691C69.4385 77.6861 70.0692 76.9295 70.7467 76.1925C73.936 72.7395 77.5063 69.7866 81.7066 67.5359C87.7561 64.3009 94.2852 62.5681 100.697 61.722C108.93 60.6793 117.162 60.7532 125.526 62.7644C131.267 63.7801 135.918 70.1053 136.602 74.8371C138.368 84.8675 132.106 90.959 127.72 96.2753C124.244 100.184 119.725 104.036 116.211 107.844C113.35 111.091 109.742 113.408 106.304 115.027C105.293 115.498 106.089 115.671 105.909 115.793C103.001 117.602 103.693 116.275 101.628 116.81C93.3792 118.75 84.469 118.959 76.8726 119.211C73.643 119.304 76.882 120.248 73.6343 119.715C73.4103 119.679 74.2237 119.171 73.3456 119.116C71.3458 118.99 67.5792 119.065 66.0602 119.041C65.83 119.036 65.6161 119.032 65.416 119.029C62.5844 118.898 61.7692 118.799 58.8833 117.76C56.12 116.679 53.6384 114.642 51.5334 112.815C49.9964 111.503 48.9706 109.914 48.1832 108.425C47.7214 107.509 47.8115 108.977 47.0629 107.499C46.258 106.006 45.3041 102.006 45.2405 100.68C45.1336 99.3433 45.6385 99.8382 45.6919 99.5924C45.9259 98.6022 45.6555 97.0844 45.3487 95.7087C45.0037 94.0306 44.9048 92.5578 44.924 92.2265C46.5203 80.827 52.127 73.9021 56.5664 65.4959C57.2023 64.3596 57.8404 63.2134 58.4817 62.055C61.514 56.3738 66.5009 51.3993 71.5106 48.3143C73.3321 47.1531 75.1174 46.1687 76.8452 45.2482C82.3411 42.3835 87.7016 40.9592 93.556 39.4647C94.3874 39.2599 93.2689 38.8968 94.2831 38.6488C98.9311 37.525 103.584 36.6757 108.231 35.9786C114.893 35.0041 121.401 35.763 127.582 37.1328C128.672 37.3815 127.161 37.6422 128.236 37.9236C134.242 39.4318 142.763 43.0268 147.646 43.1039C148.192 43.1236 148.686 43.1119 149.149 43.0648C153.843 44.923 158.633 49.202 160.667 53.0719C161.968 55.5463 160.045 53.6026 161.987 56.3341C162.403 56.9638 162.375 55.8488 162.964 56.8312C164.446 59.332 165.553 62.1863 166.554 64.8562C167.343 66.9595 167.625 69.0686 167.769 71.0291C167.835 72.0411 168.286 71.764 168.367 72.0571C169.037 74.5788 167.28 78.2811 167.022 79.0353C165.134 85.0486 163.832 89.2665 161.747 94.5567C161.675 94.7356 161.637 94.8629 161.625 94.9531C161.544 95.4963 162.352 94.7202 161.935 95.7757C159.401 102.17 155.096 108.131 150.071 112.503C148.954 113.471 149.582 112.158 149.031 112.595C146.595 114.474 146.689 115.67 144.183 117.29C143.654 117.624 143.672 117.052 143.551 117.079C141.677 117.484 141.024 119.221 140.647 119.495C136.106 122.769 132.379 123.448 127.737 125.642C127.572 125.719 127.405 125.797 127.234 125.877C126.628 126.16 128.244 126.093 126.519 126.849C115.163 131.587 102.61 133.659 90.8544 134.944C90.6374 134.966 90.4202 134.989 90.2028 135.01C88.3341 135.195 89.6042 134.589 89.48 134.553C87.4775 133.991 86.3863 135.233 85.786 135.347C81.0388 136.214 76.498 135.678 73.3485 137.24C63.8984 137.74 54.4936 138.187 45.0523 138.173C37.349 138.119 28.5561 137.362 21.919 132.335C19.1355 130.417 16.9955 127.932 15.2125 125.319C15.065 125.103 15.7801 125.144 15.4873 124.717C12.1482 119.433 12.2253 120.859 9.2798 117.667C8.53829 116.841 8.3143 113.419 8.30146 113.132C8.19949 112.069 9.36543 112.701 9.28835 112.365C8.66762 109.62 6.33983 111.07 4.98419 107.478C4.94724 107.365 5.58299 107.664 5.51861 107.347C5.32062 106.363 4.8101 105.501 4.6611 104.527C4.33561 102.288 5.33118 101.182 3.69265 98.1648C3.49163 97.7778 2.16831 98.8258 1.39396 95.5053C1.29154 95.0527 1.05359 94.0718 0.794605 92.9089C0.240293 90.5542 -0.0238593 87.461 0.00169668 86.3191C0.0301965 84.5842 0.567491 85.7582 0.582685 85.6316C1.17802 81.0434 1.49309 82.7927 2.54442 80.6136C3.65957 78.4875 1.35529 78.9018 1.1912 77.9513C1.01757 76.9936 2.01573 73.7839 2.3492 73.0291C2.66884 72.2664 2.80481 73.3083 3.03046 72.6227C4.57084 68.1064 2.30554 70.3647 2.25623 68.7501C2.19621 65.7103 3.67689 63.5534 4.76744 61.1941C5.05407 60.5637 5.33754 59.9358 5.59215 59.2792C5.93788 58.4125 5.32044 59.0052 5.57409 58.2039C6.67385 55.0367 8.09107 53.5547 9.83191 50.229C10.0957 49.6911 11.185 46.6192 13.0743 45.6645C13.3389 45.5328 13.1283 46.3876 14.1298 45.4285C15.6226 43.9864 18.3348 41.4739 19.8826 39.8967C21.0222 38.7283 19.1669 39.4598 20.8444 38.2516C21.5919 37.7198 20.5944 39.1402 21.9746 38.1209C23.3434 37.1033 26.6442 34.295 27.897 33.229C27.9195 33.2097 27.9413 33.1909 27.9623 33.1725C29.1271 32.1662 28.1362 32.3293 28.214 32.2184C28.7042 31.5246 31.1489 29.3891 31.3938 29.2397C42.1579 21.7436 53.6399 18.0287 65.0135 13.3382C66.1908 12.8604 67.3778 12.3928 68.5865 11.9463C69.6128 11.5725 68.7474 11.2816 68.9021 11.2191C72.4233 9.84686 70.0423 12.1351 72.6517 11.8811C71.9866 10.9041 73.5152 10.652 76.0357 9.94592C77.2541 9.60791 76.4872 9.3352 76.5904 9.26571C78.2889 8.21078 79.7445 8.80498 80.0987 8.91269C81.4313 9.30796 82.6061 8.32007 83.509 8.59605C84.4049 8.87103 82.6263 9.82733 85.0714 9.38897C85.6943 8.87175 83.6849 8.15076 85.5223 7.65951C86.3902 7.42958 87.3211 7.21477 88.358 7.00404C95.6287 5.5125 106.468 4.64615 111.455 4.06574C117.136 3.4011 118.959 3.10519 122.286 2.8446C128.297 2.39203 126.006 1.87822 129.692 1.10138C133.388 0.338057 131.775 2.45045 132.356 2.8028C132.93 3.15744 133.449 2.67526 134.132 2.83356C134.785 2.98875 133.509 3.39173 134.836 3.35076C134.876 3.34949 134.918 3.34785 134.962 3.34582C136.504 3.26452 140.614 2.17411 141.139 1.72175C142.241 0.746305 140.251 -0.148529 144.433 0.0207083C144.672 0.0345565 143.914 0.55976 144.825 0.588051C152.092 0.584344 159.815 2.74353 165.589 7.05505C165.615 7.07315 165.639 7.09072 165.661 7.10777C166.323 7.62319 165.363 7.63494 165.806 7.96062C170.486 11.5882 169.264 9.64288 172.531 10.807C171.077 11.4663 172.01 13.1885 175.357 16.1374C177.359 17.9326 177.421 17.176 178.998 18.0585C179.474 18.3238 180.561 19.9613 181.006 20.0013C182.477 20.151 181.967 18.0832 184.944 21.7633C185.071 21.9263 184.246 21.8067 184.713 22.3434C187.69 25.8433 188.801 25.5856 192.071 29.3983C193.608 31.2213 195.576 34.1473 197.263 37.11C198.37 39.0422 199.349 40.956 200.152 42.5309C198.747 43.2029 200.943 46.681 202.596 47.8533C203.715 50.5256 204.834 53.4929 205.437 56.239C205.641 57.1781 205.034 56.6889 205.018 56.8188C204.752 58.8018 206.03 59.7631 206.201 60.38C207.946 66.993 207.318 72.5866 207.771 79.024C207.786 79.2468 208.866 79.6924 207.953 81.3557C207.89 81.4623 207.539 79.3196 207.291 82.3197C207.232 83.0149 207.127 83.8715 207.011 84.7934C206.642 87.8981 205.806 91.8943 205.487 95.1183C205.399 96.1305 205.654 98.8858 204.389 100.691C204.221 100.931 204.005 100.552 203.724 100.883C202.824 101.938 203.665 102.953 202.287 104.072C200.901 105.191 199.237 107.787 198.072 111.819C198.031 111.95 198.41 113.22 197.802 114.398C197.307 115.358 196.638 116.516 195.955 117.638C195.307 118.711 194.551 119.713 193.88 120.54C193.21 121.351 194.054 121.186 193.945 121.334C191.094 124.861 188.024 126.907 184.859 129.233C182.913 130.631 180.827 132.024 178.372 133.502C177.206 134.23 174.079 136.919 171.363 137.545C168.402 138.191 170.077 134.639 164.219 137.717C161.868 138.901 159.642 143.287 154.4 142.993C151.901 143.852 149.4 144.547 146.91 145.162C140.427 146.758 133.992 147.927 127.363 149.934C126.955 150.058 125.833 151.29 124.85 151.504C123.375 151.823 122.481 151.574 121.424 151.787C117.016 152.661 113.085 153.938 108.843 154.83C107.235 155.168 107.692 154.597 105.774 155C103.852 155.403 102.708 156.276 100.049 156.567C98.0483 156.784 95.8141 156.016 93.1841 156.448C93.3456 157.656 91.5571 158.025 88.4503 159.033C87.8506 159.228 88.6006 159.496 88.3196 159.61C87.1802 160.083 86.0193 159.977 84.9594 160.451C84.7038 160.565 84.7796 160.973 84.5685 161.091C83.676 161.6 82.3883 161.794 81.2823 161.85C80.1487 161.914 79.2199 161.837 78.9243 161.818C76.7493 161.654 75.9016 162.384 74.2751 162.475C72.6695 162.56 74.9403 161.78 73.0785 162.014C69.22 162.497 64.3383 163.536 60.4541 164.018C58.9049 164.208 60.0276 164.625 59.8075 164.665C57.032 165.134 54.1858 164.824 52.3158 165.457C52.021 165.559 51.7374 165.685 51.4954 165.843C49.1858 163.031 49.5318 166.171 44.8659 165.618C44.4963 165.572 44.033 164.225 45.4353 164.023C46.8371 163.821 48.9711 164.229 50.9065 163.882C51.0959 163.849 51.6552 163.604 52.2606 163.319C53.1286 162.916 54.0829 162.425 54.2863 162.371C56.968 161.645 57.4992 163.577 57.6662 163.682C59.45 164.741 62.482 162.925 63.2721 162.69C66.9965 161.64 70.2791 161.255 73.403 160.298C75.4512 159.668 75.3628 158.335 77.0168 158.024C78.2641 157.789 79.352 157.68 80.3633 157.614C83.6556 157.409 85.863 157.752 89.5475 155.688C90.5679 155.115 89.1706 153.945 93.3483 154.189C93.613 154.204 96.7497 154.576 98.3016 153.559C98.4946 153.431 98.3969 153.022 98.6679 152.926C100.495 152.287 101.816 152.337 103.817 151.726C105.821 151.115 108.221 150.332 110.578 149.948C111.999 149.715 113.969 150.073 114.683 150.107C116.699 150.217 118.53 148.87 119.853 149.254C121.186 149.639 119.098 151.166 122.303 150.876C122.173 149.785 122.185 148.631 122.123 147.518C128.922 145.99 135.669 144.774 142.434 143.044C143.261 142.831 142.262 142.475 143.164 142.226C144.121 141.962 145.073 141.73 145.975 141.524C148.66 140.907 151.266 140.411 154.066 139.45C156.997 138.443 159.975 136.818 162.849 135.552C165.102 136.053 169.258 133.847 172.222 132.329C173.266 131.802 173.361 132.127 174.143 131.803C177.071 130.521 175.212 130.334 175.85 129.737C178.288 127.329 179.897 128.689 182.903 126.744C183.179 126.56 183.458 126.356 183.754 126.117C183.954 125.961 185.432 123.079 185.667 122.768C187.238 120.754 186.293 122.861 187.541 121.926C189.749 120.212 191.391 119.118 192.613 116.425C192.675 116.283 192.734 116.095 192.794 115.874C193.145 114.742 193.604 112.888 194.754 111.722C194.939 111.533 195.275 111.851 195.387 111.678C197.349 108.524 196.081 107.853 196.425 105.773C196.762 103.702 198.67 101.002 199.118 100.447C200.306 99.0178 199.02 101.791 199.044 101.901C199.483 103.207 200.118 100.913 200.679 99.1886C202.066 99.3202 202.652 96.7922 201.243 97.3919C201.091 97.4614 200.843 98.8575 200.679 99.1886C199.844 97.2808 200.362 94.6714 202.132 91.8882C202.936 90.573 203.465 92.0366 203.797 87.6262C203.904 85.6244 202.897 86.2978 202.785 84.5474C202.784 84.526 202.782 84.5047 202.781 84.4833C202.549 80.2841 203.745 75.1917 203.416 71.1101C203.299 69.6279 202.856 71.0924 202.753 70.093C202.463 67.4435 202.576 65.0813 201.901 62.484C201.839 62.252 201.421 62.9202 201.262 62.1227C199.997 56.0644 198.455 50.807 195.356 44.9892C194.654 43.6836 193.591 41.9723 192.403 40.2519C191.058 38.2965 189.539 36.3338 188.476 34.9007C185.063 30.2415 180.69 24.3864 176.902 21.0719C174.438 18.9167 174.589 19.815 173.317 19.156C170.882 17.888 168.015 13.9971 167.599 13.4718C167.592 13.4465 169.867 15.0528 168.861 13.9219C168.528 12.9398 167.622 13.4871 167.599 13.4718C167.431 13.2278 165.219 11.4836 163.55 10.4312C162.825 9.96615 162.214 9.61787 161.925 9.48594C161.398 9.24652 161.424 9.84748 161.157 9.71798C154.843 6.51601 148.679 6.07615 140.986 6.44859C140.854 6.44776 141.012 5.86701 140.7 5.87253C138.585 5.90702 136.812 6.17923 135.156 6.52573C133.363 6.90232 131.697 7.373 129.801 7.80016C126.156 8.62304 123.212 8.84239 120.901 8.14554C118.127 8.61052 114.066 8.70167 111.727 8.75145C109.387 8.80068 109.214 9.94201 109.016 9.99068C102.794 11.5523 99.0689 11.4435 92.5293 12.3652C91.6627 12.4881 90.5367 12.671 89.3289 12.8846C86.207 13.4324 82.423 14.2108 80.1161 14.7736C77.5816 15.3938 76.0096 15.4876 73.8126 16.2675C73.5171 16.3739 73.9552 16.7615 73.8686 16.8057C71.587 18.0884 72.4148 16.5994 71.8404 16.5476C70.0671 16.4196 68.8544 16.4158 66.6383 17.4218C66.238 17.604 65.8067 17.8163 65.3359 18.0638C64.6061 18.4455 63.053 20.9383 61.7294 21.5929C60.0055 22.4429 60.4351 21.5912 58.6426 22.5058C58.4898 22.584 58.6701 22.9215 57.5284 23.3893C52.2392 25.5659 46.5205 27.9591 41.5373 30.8514C40.859 31.2455 42.0294 31.271 41.0635 31.8488C37.9577 33.7173 34.8054 35.8281 32.0417 38.0306C30.6245 39.1644 29.233 40.2498 27.8988 41.275C26.8526 42.0782 27.2016 41.2181 26.9023 41.3088C25.0624 41.8779 23.9671 44.3544 23.6946 44.6385C17.6345 50.9307 12.4134 55.5341 10.7354 62.675C10.5769 63.3992 10.4246 64.1361 10.2815 64.8859C10.1702 65.436 10.3934 69.728 9.05761 71.2973C8.96709 71.4007 7.58654 72.9922 8.04145 74.6708C8.07208 74.7724 8.77127 73.7726 8.42063 75.6615C8.0721 77.5611 8.08605 80.5871 7.45442 83.0786C7.25339 83.8487 6.17875 85.836 7.26255 88.0808C7.31134 88.1912 8.41591 89.7807 8.85572 91.0806C9.07104 91.7727 9.13095 92.4459 8.84516 92.9587C8.69776 93.2259 7.28088 93.3359 8.74773 96.1188C9.03336 96.645 9.04656 95.5477 9.64003 96.9715C10.5519 99.1426 11.1322 102.222 12.6937 104.688C12.9656 105.123 14.5689 106.741 14.5694 108.543C14.5702 108.827 13.9515 108.546 14.254 109.382C15.7057 113.365 18.0098 117.11 20.1043 120.521C20.8615 121.721 19.8289 121.602 20.6112 122.884C21.3817 124.185 23.3725 126.398 24.7224 126.865C25.0618 126.996 25.2701 126.96 25.4246 126.865C25.9179 126.608 25.9024 125.823 27.3865 126.65C32.0474 129.294 38.3087 130.007 45.0768 130.253C49.3193 130.38 53.6167 130.408 57.9175 130.287C59.6041 130.236 58.189 129.873 60.6658 129.759C68.6036 129.414 81.4738 128.121 89.7838 127.403C91.0629 127.299 92.2305 127.221 93.2775 127.179C99.6329 126.887 91.8589 128.699 96.6872 128.207C99.0215 127.96 101.255 126.143 101.792 125.994C107.064 124.517 110.886 124.255 115.481 122.745C116.425 122.428 115.335 122.17 116.133 121.905C118.846 120.993 121.747 120.247 124.119 119.171C124.388 119.048 124.561 118.938 124.687 118.835C125.099 118.51 125.083 118.264 125.864 117.931C128.354 116.856 130.544 115.945 133.003 115.003C133.23 114.915 132.093 116.174 133.828 115.202C136.619 113.627 140.165 111.722 142.658 109.066C143.39 108.269 142.788 107.552 144.879 106.483C145.303 106.248 145.745 107.521 146.838 104.899C147.079 104.452 148.792 100.326 150.602 99.0299C151.096 98.7014 152.686 97.9589 153.161 96.7645C153.22 96.6034 152.441 96.9532 152.886 96.0154C153.48 94.7532 154.049 93.4529 154.563 92.11C155.468 89.761 156.333 87.3917 157.007 85.0242C157.293 84.0026 156.297 85.3328 156.73 83.8226C157.919 79.693 159.214 74.5721 159.273 71.1727C159.291 69.9457 159.768 70.766 159.815 70.6775C160.526 69.1254 159.265 68.5408 159.118 68.2304C159.029 68.0321 158.942 67.8511 158.86 67.6873C157.491 64.5429 156.939 62.1102 155.414 59.7115C154.952 59.0013 154.822 59.7801 154.697 59.6593C153.423 58.4606 154.873 59.034 154.356 58.0755C152.885 55.396 150.46 53.1717 147.862 51.8648C146.906 51.3905 147.69 52.4587 146.849 52.0515C146.186 51.7433 145.512 51.4744 144.795 51.231C138.854 49.2 132.799 47.3072 127.095 45.8837C125.863 45.579 126.731 45.2861 126.49 45.1335C124.805 44.0602 122.005 44.666 121.405 44.6994C118.638 44.8215 117.634 44.3596 115.281 44.4028C113.403 44.4573 111.494 44.6167 109.644 44.9391C99.578 46.6775 88.2295 48.8337 80.9553 52.6828C80.2112 53.0804 79.495 53.4689 78.8098 53.8519C72.49 57.3072 68.3984 60.9341 65.4376 65.9829C61.8241 72.1705 58.1964 78.2378 55.3403 84.9781C55.0014 85.8003 55.9036 85.2098 55.6254 85.915C54.2716 89.2917 53.2494 92.9482 53.4688 94.9048C53.837 99.8295 55.3536 105.442 56.876 106.375C57.6709 107.023 58.3973 107.597 59.0897 108.083C59.6588 108.475 59.2017 107.453 60.0932 108.024C61.9354 109.178 63.545 109.743 65.313 109.898C65.3157 109.898 65.3183 109.898 65.3209 109.898C66.7564 109.976 64.8181 110.481 66.2845 110.548C69.7107 110.712 73.2847 110.795 76.6645 110.682C78.0963 110.631 75.9329 110.062 77.7916 110.04C90.1279 109.819 102.66 108.824 109.456 102.045C109.531 101.966 109.606 101.887 109.682 101.808C110.413 101.056 111.853 101.242 113.065 99.6629C112.932 99.3255 112.646 99.0617 112.438 98.7689C119.862 91.2921 128.789 82.0405 127.489 77.1572C126.584 73.5681 125.807 72.7069 123.275 71.9084C120.38 71.1755 117.072 70.7729 113.826 70.6382C113.094 70.6115 114.331 71.2799 112.926 71.2384C109.328 71.1537 105.75 71.4172 102.208 71.9235C97.7579 72.5628 93.4573 73.5827 89.2731 75.1198C88.5396 75.4076 88.4012 74.1847 86.3762 75.4611C85.9958 75.6562 83.0731 77.6823 82.5414 78.4591C82.4694 78.5621 83.2745 78.5899 82.4138 79.2798C81.0229 80.4102 79.7131 81.6569 78.5031 83.0187C77.5502 84.0892 76.618 85.4141 75.9218 86.6811C75.577 87.303 75.2865 87.9558 75.1677 88.3078C75.1021 88.452 75.1263 88.6022 75.1124 88.0759C75.0764 87.8071 75.1037 87.2621 74.5079 86.2289C73.9576 85.154 72.2453 84.1625 71.3663 84.1182C72.7166 84.3848 74.2471 84.5865 75.7636 84.7551C76.8987 84.8779 75.6459 85.3544 76.4658 85.4451C82.322 86.0615 88.9444 85.5162 94.7786 85.8732C98.7023 86.1078 97.2692 87.0981 99.387 87.9812C99.6933 88.1041 102.12 88.0675 102.271 88.6141C102.617 89.9815 101.471 91.5083 101.976 92.9631C102.12 93.2668 105.203 92.9058 103.379 93.6794C103.277 93.7264 100.958 94.0245 100.381 94.3005C99.99 94.4893 100.719 95.0264 99.914 95.276C99.0969 95.5259 98.182 95.0854 96.8178 95.3912C95.4511 95.6993 96.0792 96.3182 93.3188 96.459ZM101.192 9.03448C98.9815 8.81931 98.9512 10.7888 101.188 9.99313C101.295 9.95255 101.306 9.04441 101.192 9.03448ZM135.97 146.18C138.911 146.357 140.482 144.672 138.405 144.497C136.319 144.322 135.067 146.129 135.97 146.18ZM107.598 153.36C110.966 153.297 110.867 150.494 107.542 151.811C107.349 151.887 107.401 153.364 107.598 153.36ZM89.7427 88.4781C89.7733 88.5043 91.515 88.4982 91.5549 88.471C92.4678 87.8368 88.9925 87.8501 89.7427 88.4781ZM79.3706 160.271C79.7434 160.324 80.3319 160.23 80.8969 160.073C81.8939 159.793 82.798 159.303 81.9091 159.188C81.6027 159.147 81.1641 159.2 80.729 159.299C79.5604 159.565 78.4046 160.137 79.3706 160.271ZM6.5209 59.4944C6.47595 59.5142 6.08408 60.6943 6.25541 60.7156C6.77243 60.7741 7.15344 59.1291 6.5209 59.4944ZM30.5206 164.486C37.8103 164.672 42.2252 166.974 34.2731 166.651C32.8339 166.59 37.3837 165.954 35.5523 165.731C32.2051 165.326 29.9622 166.728 26.5511 165.921C25.9341 165.774 30.1048 164.471 30.5336 164.483C30.5292 164.484 30.5249 164.485 30.5206 164.486ZM99.6263 6.90242C99.5832 6.88228 97.8583 7.11161 97.8252 7.14274C96.9884 7.88993 100.446 7.43045 99.6263 6.90242ZM18.7761 128.582C18.7483 128.748 21.9491 131.469 22.1656 131.431C22.3061 131.453 22.4134 131.455 22.4914 131.442C22.6432 131.414 22.6842 131.33 22.6415 131.208C22.2106 130.467 18.3063 126.968 18.7761 128.582ZM200.148 42.6123C201.617 44.0219 202.698 46.1153 202.594 47.845C201.862 46.0592 201.032 44.3385 200.148 42.6123Z" fill="#4A1E1E" fill-opacity="0.75"/>
</svg>
