<svg width="397" height="173" viewBox="0 0 397 173" fill="none" xmlns="http://www.w3.org/2000/svg">
<path d="M12.9339 0.00121461C13.1032 0.00192919 12.9222 0.00286588 12.6736 0.00357775C12.5966 0.00380085 12.252 0.00368788 12.1833 0.00384189C12.0493 0.0041431 12.2183 0.00442372 12.0587 0.00472138C12.0041 0.00482002 11.4584 0.00469723 11.4136 0.00480067C11.1724 0.00536749 11.3115 0.00590372 11.1954 0.00647792C10.623 0.00930623 10.4182 0.0120864 10.1695 0.0149493C10.088 0.0158933 9.59266 0.0170408 9.80927 0.0180158C9.83505 0.0181297 10.3141 0.0180618 10.3536 0.0180835C10.958 0.0184231 9.99093 0.0183102 9.86243 0.018532C9.3551 0.0194122 9.31098 0.020391 9.49586 0.021238C9.57592 0.0215984 10.5274 0.0212371 9.99335 0.0216C9.95727 0.0216251 9.44855 0.0215337 9.3943 0.0216325C9.27226 0.0218567 9.36319 0.0222819 9.32288 0.0224556C9.24263 0.0227904 9.24775 0.0228458 9.24195 0.0231624C9.2296 0.0235953 8.97672 0.0241101 9.09199 0.0245745C9.11811 0.0246737 9.6396 0.0245424 9.72834 0.0247005C9.81694 0.0248588 9.77272 0.0252774 9.64979 0.0254185C9.52679 0.0255597 9.11691 0.0254996 9.02296 0.0255246C8.22998 0.0257301 9.32826 0.0262143 9.35542 0.0262766C9.81821 0.0274126 9.19256 0.0283868 9.19435 0.0294531C9.19703 0.0302626 9.40358 0.0311282 9.37525 0.0318984C9.33949 0.0328161 9.0569 0.0335938 9.10548 0.0344853C9.11 0.0345794 9.72316 0.0344692 9.72993 0.0345841C9.80128 0.0358049 9.73444 0.0370173 9.3205 0.0382329C9.27845 0.0383548 8.74011 0.0381977 8.6659 0.0383195C8.22348 0.0390652 7.16068 0.0402451 9.50459 0.040688C9.41306 0.0411931 9.3185 0.0418063 8.84602 0.0422582C8.54192 0.0425496 7.95545 0.0422666 8.2057 0.0426245C8.26146 0.0427052 8.77506 0.0426002 8.81983 0.0427213C9.00786 0.043231 8.8409 0.0437878 9.10627 0.044292C9.16146 0.0443946 9.62166 0.0443666 9.70454 0.0443956C10.3757 0.0446398 9.26623 0.0450464 9.18562 0.045135C8.58445 0.0458099 8.82102 0.0463027 8.80635 0.0469314C8.80268 0.0470773 9.42084 0.0469049 9.43952 0.0470453C9.52812 0.0477734 9.47499 0.0485276 9.20069 0.0492406C9.13819 0.0493992 8.61163 0.0492533 8.55482 0.0493291C8.31074 0.0496633 9.30529 0.0497373 9.0904 0.0500578C9.04638 0.0501254 8.5956 0.0500873 8.54609 0.0500996C7.76894 0.0502925 8.87011 0.0504601 8.89442 0.0505097C9.2266 0.0511373 8.07704 0.0515384 8.23982 0.0521446C8.26045 0.0522172 8.83082 0.0520536 8.85395 0.0522575C9.01141 0.0536157 8.85472 0.0550522 8.39851 0.0563966C8.32835 0.0566057 7.89988 0.0564565 7.84706 0.0564696C7.02177 0.056684 8.12756 0.0568227 8.1692 0.0568909C8.46897 0.0574286 7.54164 0.0579309 8.85871 0.0582962C8.40164 0.0605734 9.14125 0.0628402 7.96132 0.0650986C7.94765 0.0651273 7.40305 0.0650759 7.37813 0.0651331C7.07234 0.0658229 7.91875 0.0656905 8.95393 0.0661469C9.21387 0.0662619 7.96406 0.0666116 7.87245 0.0666426C7.53486 0.0667553 6.72464 0.0666384 6.65926 0.0666761C6.14587 0.0669886 8.82532 0.0669376 8.82618 0.0673591C8.82171 0.0673723 8.32853 0.0673169 8.27949 0.0673523C8.12554 0.0674622 8.32151 0.0675712 8.15175 0.0676787C7.75891 0.0679248 6.45693 0.0680125 7.21468 0.0683884C7.31302 0.068436 8.83292 0.0683633 8.76112 0.0687396C8.73121 0.0688897 8.75726 0.0695537 8.65876 0.0697398C8.56039 0.0699256 8.0706 0.069798 8.04939 0.0698113C7.40173 0.0703121 7.13331 0.0701222 6.17446 0.0703731C5.21922 0.070624 7.49755 0.0705544 7.75184 0.0706567C8.00542 0.0707592 7.47106 0.0711264 7.28529 0.0712166C7.09945 0.0713068 6.78823 0.0711943 6.68306 0.0712745C5.99596 0.0718062 7.81394 0.0715079 8.17555 0.0716831C9.03177 0.0720962 7.34215 0.0724179 7.17659 0.0727961C7.13188 0.0728984 7.5167 0.0728149 7.55269 0.072906C7.69012 0.0732669 7.16292 0.0734839 7.64632 0.0738945C7.72509 0.0739616 8.74093 0.0742935 7.99544 0.0745084C7.88794 0.0745388 7.46689 0.0744523 7.37257 0.0746061C7.23103 0.0748359 7.139 0.0752498 7.27974 0.0754968C7.38387 0.0756791 8.07766 0.0754702 7.86213 0.0756996C7.7659 0.0758017 7.36003 0.0756126 7.21309 0.0758042C7.06619 0.0759948 7.08402 0.0764822 7.09804 0.0766677C7.11236 0.0768528 7.63863 0.0767515 7.67409 0.0767664C7.87718 0.076857 8.13095 0.0772122 8.13032 0.0772436C8.19457 0.0788272 7.30748 0.0802875 7.60109 0.0818293C7.62337 0.0819503 8.17833 0.0818697 8.18745 0.0818882C8.41997 0.0823024 6.94446 0.0819758 6.45058 0.0822652C7.57676 0.0822233 7.37284 0.0823942 7.49635 0.0826859C7.55678 0.0828265 7.99285 0.08275 8.03749 0.0827628C8.69982 0.0829713 7.84433 0.0831165 7.66933 0.0831539C7.02556 0.083292 7.78621 0.0834423 7.35591 0.0835362C6.92883 0.0836301 6.29568 0.083414 6.30379 0.0836939C6.70692 0.0837723 7.76042 0.0835646 7.93117 0.083777C8.577 0.0845786 7.75043 0.086075 7.66456 0.0867195C7.57878 0.0873628 7.65315 0.0875705 7.50746 0.0879453C7.24403 0.0886224 8.02566 0.0883743 8.38343 0.0887947C8.74117 0.0892163 6.81799 0.0890113 6.40456 0.089072C5.99131 0.0891315 6.41671 0.0891964 6.18953 0.0892704C5.96241 0.0893442 5.68131 0.0891845 5.59603 0.089358C5.51083 0.0895316 6.24601 0.0900062 6.6783 0.0900677C7.59413 0.0901978 8.55534 0.0899839 8.2176 0.0904432C8.19756 0.0904697 7.69187 0.0903839 7.64076 0.0904851C7.25146 0.0912885 7.22733 0.0921231 6.88301 0.0929256C6.83488 0.0930359 6.27231 0.0929372 6.23793 0.0930014C5.87811 0.0936703 6.82666 0.0934312 7.88038 0.0937977C6.4781 0.0937155 5.62018 0.0939181 5.6119 0.0944257C5.60643 0.0947309 6.21888 0.0946783 6.65053 0.0948757C6.78065 0.0949349 6.36012 0.0951508 6.64815 0.0951899C7.58966 0.095319 8.64363 0.0951156 8.22395 0.0956389C8.20401 0.0956619 7.68864 0.0955888 7.65742 0.0956681C7.45313 0.0961809 8.43794 0.0962423 8.5572 0.0967967C8.65078 0.0972312 8.05026 0.098004 7.95259 0.0984987C6.37602 0.0984883 6.73703 0.0989556 7.82405 0.0991452C7.77955 0.0994663 7.841 0.0998131 7.69075 0.100123C7.63952 0.10023 7.18306 0.10016 7.13374 0.100174C6.36005 0.10038 7.4176 0.10052 7.45906 0.100589C7.86209 0.10134 7.06055 0.101952 7.84389 0.102669C7.8721 0.102694 8.96723 0.102736 8.16761 0.102927C8.1125 0.10294 7.61423 0.102703 7.5757 0.10304C7.53708 0.103377 6.95001 0.104013 7.45747 0.104481C7.57964 0.104595 8.46867 0.104881 7.77406 0.105111C7.67974 0.105142 7.36565 0.105109 7.19087 0.105153C6.63396 0.105296 7.74087 0.105374 6.80049 0.105542C5.86016 0.10571 5.15592 0.10606 5.80471 0.106532C5.82357 0.106547 6.7009 0.106659 6.68703 0.106807C6.66413 0.107044 6.48136 0.107381 6.48708 0.107628C6.49013 0.107747 7.03491 0.107671 7.04488 0.107692C7.35015 0.108488 6.86448 0.109056 6.6537 0.109909C6.61399 0.110066 7.35688 0.110515 6.76955 0.110818C6.12661 0.111151 3.45207 0.110809 4.08926 0.111574C4.34412 0.111882 7.73726 0.112273 5.97927 0.112827C6.41489 0.113902 5.51515 0.114896 6.13716 0.115974C6.16472 0.116022 7.11172 0.116175 7.09883 0.116289C7.07786 0.116459 6.63525 0.116551 6.6061 0.116672C6.47277 0.117178 6.85146 0.117642 6.79256 0.11813C6.77116 0.118315 6.3135 0.11825 6.28792 0.118471C6.26277 0.118692 6.86542 0.118839 6.57436 0.119138C6.3525 0.119364 5.12071 0.119591 4.97713 0.119891C6.19216 0.119902 6.16713 0.120108 6.48787 0.120474C6.5501 0.120545 6.973 0.120469 7.02425 0.120502C7.24221 0.120638 6.89172 0.120763 7.12898 0.120892C7.18597 0.120923 7.60091 0.120925 7.67091 0.12095C8.28199 0.121168 7.34862 0.121527 7.18611 0.121588C6.56892 0.121824 7.1086 0.121934 6.86556 0.122116C6.62254 0.122296 6.31875 0.122026 6.17128 0.122237C5.86626 0.122675 5.93327 0.123237 5.9142 0.123681C5.90916 0.123859 6.46304 0.123738 6.47518 0.123763C6.61566 0.12413 6.02649 0.124501 7.12978 0.124704C4.27708 0.124958 7.40647 0.124925 6.8354 0.125449C6.78922 0.12549 5.4402 0.125543 5.24215 0.125384C5.04429 0.125226 5.46597 0.124986 5.15725 0.124766C5.0848 0.124714 3.82068 0.124415 3.74411 0.124375C3.14565 0.124056 5.16158 0.124011 5.2723 0.123994C6.4672 0.123802 5.10535 0.123438 5.01125 0.123342C4.58007 0.122903 4.86358 0.12253 4.55581 0.122162C4.3569 0.121922 3.03639 0.121898 3.07681 0.12171C3.21041 0.121083 5.05252 0.120864 3.45529 0.120273C3.11463 0.120146 1.67136 0.120272 2.80624 0.119818C2.87779 0.11979 3.916 0.119452 3.25931 0.119258C3.17651 0.119233 2.75588 0.119234 2.72055 0.119202C2.49199 0.118986 2.82708 0.118841 2.66659 0.118606C2.50611 0.11837 2.26685 0.118087 2.40952 0.117818C2.49482 0.117656 3.2785 0.117448 3.47036 0.117371C4.02307 0.117152 3.11686 0.116917 3.78616 0.116781C4.45882 0.116644 5.48037 0.116912 5.915 0.116553C4.82219 0.11654 3.70054 0.116509 2.60153 0.116488C2.64001 0.115702 2.99338 0.114928 2.9451 0.114139C2.93802 0.114041 2.35052 0.114141 2.32779 0.114036C2.23446 0.113594 2.65326 0.113207 2.48648 0.112749C2.35513 0.112393 1.7331 0.112004 1.57639 0.111633C2.82687 0.111406 2.40236 0.110855 2.51663 0.110454C2.55612 0.110314 2.8901 0.110324 2.99905 0.110224C3.40202 0.109848 2.29698 0.110024 2.12308 0.109921C1.38089 0.109478 3.88208 0.10944 3.82028 0.108919C3.81785 0.108891 2.48461 0.108553 2.40158 0.108507C1.86019 0.108211 2.86563 0.108458 2.96414 0.108273C3.14416 0.107935 3.46256 0.1077 3.07205 0.107304C2.95638 0.107188 2.12539 0.106911 2.76816 0.106687C2.85232 0.106657 3.29301 0.106673 3.31881 0.10665C3.74901 0.106219 2.36432 0.106208 1.89536 0.105962C1.4265 0.105716 2.38237 0.105337 2.65787 0.105259C3.37055 0.105057 2.96244 0.105414 3.03238 0.105425C3.86468 0.105554 3.72139 0.105277 3.79171 0.105065C5.14942 0.105035 5.06792 0.104739 3.85916 0.104846C3.72713 0.104858 3.85374 0.105023 3.79171 0.105065C2.45962 0.104879 2.28902 0.104554 3.53384 0.104195C4.11727 0.104027 4.79752 0.104186 4.54867 0.103675C4.43633 0.103443 3.50148 0.103533 3.24661 0.103328C2.66509 0.102861 3.53715 0.102253 3.39975 0.101772C3.34986 0.101597 2.83813 0.101767 2.78641 0.101647C2.64753 0.10133 3.0315 0.101051 2.83481 0.100732C2.81634 0.100703 2.28066 0.100774 2.27383 0.100675C2.21162 0.0999236 2.55473 0.0992697 2.56424 0.0984856C2.56859 0.0981067 2.27315 0.0974294 2.33255 0.097037C2.43234 0.0963568 3.21129 0.09552 3.02206 0.0949389C2.90093 0.09456 2.36515 0.0946431 2.00009 0.0944807C1.29247 0.0941673 2.55999 0.0936127 2.75626 0.093538C2.76275 0.0935357 2.88906 0.0938618 3.16409 0.0936878C3.73717 0.0935866 2.75874 0.0935417 2.75626 0.093538C2.88305 0.0934889 3.00467 0.0928375 2.90225 0.0927081C2.84628 0.0926378 2.33865 0.0926771 2.31906 0.0926405C1.86478 0.0917694 1.73576 0.0908967 1.97312 0.0900132C1.98337 0.0899977 2.55118 0.0900211 2.56821 0.0899845C2.82067 0.089473 2.12606 0.0891455 1.71366 0.0887237C1.30144 0.0883019 1.4395 0.0879674 2.41428 0.0877177C2.29154 0.0873994 2.72249 0.0869429 2.98398 0.0866801C3.24546 0.0864174 2.14017 0.0863807 2.11832 0.0863576C1.41895 0.0856366 2.0516 0.0852197 2.15006 0.0844717C2.19876 0.084116 2.03844 0.0834106 1.91757 0.0830255C1.8202 0.0827212 2.07923 0.0825378 1.91361 0.0822574C1.89149 0.0822195 1.39935 0.0822578 1.38041 0.0822462C0.791597 0.0819332 1.99469 0.0820836 2.20957 0.082019C2.99094 0.0817848 3.4071 0.08164 3.03952 0.0812393C2.95534 0.0811468 1.22305 0.0808775 1.12174 0.080709C0.993201 0.08049 1.61412 0.0805726 1.46372 0.0803432C1.45142 0.0803236 1.06835 0.0803277 1.08524 0.0801861C1.1586 0.0795289 1.3815 0.0788124 1.34311 0.0781294C1.33934 0.0780361 0.731739 0.0781558 0.716284 0.078021C0.644261 0.0773885 0.666747 0.0766952 0.951146 0.0760791C1.02306 0.0759274 1.44848 0.0760225 1.5748 0.0759896C2.3391 0.0757874 1.22859 0.0755008 1.20743 0.0754535C0.673773 0.0743254 1.67877 0.0734619 1.20029 0.0723121C1.1722 0.0722495 -0.01829 0.0717677 1.00272 0.0715527C1.07065 0.071538 2.11525 0.0713253 1.40103 0.0711373C1.35635 0.0711256 0.818577 0.0712581 0.873388 0.0710269C0.928079 0.0707956 0.568956 0.0704235 1.15982 0.0701056C1.34596 0.0700049 2.38798 0.0697671 1.55735 0.0694669C1.49936 0.0694473 -0.378822 0.0689839 0.917028 0.0688184C1.13034 0.0687916 2.50164 0.0688197 1.79856 0.0684614C1.66225 0.0683929 1.35638 0.0685172 1.16538 0.0683369C0.87101 0.0680605 1.23829 0.0676944 0.627417 0.0673547C0.51927 0.0672955 -0.411488 0.0670433 0.294959 0.066841C0.405601 0.0668094 0.863413 0.0668696 0.914647 0.0667627C1.16041 0.0662548 0.854178 0.0657229 1.17093 0.0652071C1.28224 0.0650244 2.02234 0.0651178 2.22067 0.0649274C2.41894 0.0647369 2.60966 0.0643532 2.27145 0.0641539C1.9331 0.0639546 0.753544 0.0641723 0.659155 0.0638738C0.249216 0.0625756 0.941174 0.0612896 1.04239 0.0599934C1.05751 0.0598011 0.63543 0.0599605 0.627417 0.0596772C0.596016 0.0586327 0.20027 0.0568292 1.09714 0.0559228C1.81549 0.0551966 2.36237 0.0561105 2.65469 0.0555556C2.79414 0.0552878 1.42279 0.0549981 1.37961 0.0549334C0.941056 0.0543019 1.54854 0.053863 1.36216 0.0532946C1.32348 0.0531772 0.767657 0.0532923 0.740881 0.0531924C0.644489 0.0528512 0.892583 0.0524926 0.847204 0.0521665C0.825567 0.0520203 0.401049 0.0520472 0.433814 0.0519126C0.507322 0.0515905 0.685769 0.0513058 1.08365 0.0509918C1.11991 0.0509632 1.64799 0.0511561 1.66764 0.0509178C1.69792 0.0505322 2.09043 0.0500535 1.68509 0.0496098C1.56316 0.0494781 0.59293 0.049473 1.26297 0.04919C1.40292 0.0491306 2.56795 0.0492064 1.56131 0.0488767C1.39403 0.0488213 0.0362664 0.0482675 0.911473 0.0479958C1.14182 0.0479241 2.09517 0.0477411 1.94534 0.0475828C1.92144 0.0475613 1.40029 0.0476473 1.34946 0.0475161C1.17938 0.0470538 1.23498 0.0465693 1.07175 0.0460943C1.02713 0.0459674 0.487853 0.0461563 0.438575 0.0459673C0.302267 0.0454475 0.439577 0.0447984 0.608374 0.0442901C0.67163 0.0441026 1.11835 0.0442322 1.16697 0.0442186C1.95769 0.0439992 0.890394 0.0438696 0.828161 0.0437968C0.455513 0.0433441 0.956866 0.0429994 0.824193 0.0425822C0.788933 0.042467 0.280034 0.0425487 0.234657 0.0425257C-0.208712 0.042288 0.705204 0.0424651 0.805944 0.0423146C1.09119 0.0418931 1.05029 0.0414232 0.985265 0.0409968C0.960631 0.0408403 0.370551 0.0410163 0.355262 0.0408757C0.253581 0.040044 0.310045 0.0391793 0.635351 0.0383676C0.697674 0.0382148 1.15205 0.0383109 1.25583 0.0382791C1.98191 0.0380595 0.991532 0.0377378 0.897191 0.0376637C0.466432 0.0373271 0.868248 0.0371963 0.793249 0.0368991C0.419836 0.0354468 0.685964 0.0336536 0.850377 0.0322827C1.06198 0.0304963 1.49424 0.0291101 1.38199 0.0274066C1.37543 0.0272983 0.770963 0.0274075 0.757543 0.0273142C0.611826 0.0261092 0.848026 0.0249229 0.673437 0.0237155C0.660182 0.0236164 0.0871456 0.0237592 0.046608 0.0236002C-0.0405582 0.023274 -0.00941159 0.0228608 0.173561 0.022531C0.261721 0.0223701 0.753437 0.0225859 0.832128 0.022424C1.01648 0.022047 1.05729 0.0216428 0.965428 0.0212556C0.925086 0.0210908 0.339016 0.0213394 0.332252 0.0211252C0.274109 0.019666 0.173172 0.018233 0.932103 0.0167584C0.984226 0.0166573 2.17535 0.0165686 1.94693 0.0163537C1.61636 0.0163375 1.22751 0.0163384 0.874181 0.0163313C0.683849 0.0142071 1.09677 0.0121046 1.16062 0.00997447C1.16317 0.00988466 0.532056 0.0100399 0.533789 0.00986599C0.54312 0.00885962 0.368281 0.00788237 0.99558 0.00685297C1.05693 0.00675083 2.16722 0.00680323 1.9993 0.00650224C1.96866 0.00644916 1.82058 0.00599583 1.57956 0.00587862C1.54321 0.0058627 1.02497 0.00594541 1.00986 0.00579933C0.931165 0.00495043 1.04948 0.00406083 1.36612 0.0032134C1.41822 0.00307664 1.9701 0.00322229 2.01199 0.00312487C2.30496 0.00243387 1.88543 0.00168226 2.38651 0.00102198C2.7239 0.000580012 3.67787 0.000743642 4.61691 0.000508785C4.74939 0.000475567 4.77038 0.000201886 5.31673 0.000187733C6.69058 0.000151398 8.19493 0.000283961 9.65931 0.000229567C9.97473 0.000218075 9.635 -0.000148454 10.3972 6.85547e-05C10.4482 8.3715e-05 10.7012 0.000349451 10.9598 0.000414902C11.1386 0.000460471 11.6942 0.000378354 11.923 0.000471329C12.1517 0.000564297 11.6859 0.000666456 11.9548 0.000820595C12.227 0.000974665 12.8591 0.000906919 12.9339 0.00121461ZM4.15274 0.0854971C4.68354 0.0852538 2.73942 0.0852179 3.20456 0.085481C3.22935 0.0854938 4.1267 0.0855096 4.15274 0.0854971ZM4.4598 0.114932C5.31729 0.114614 4.05644 0.114397 3.39419 0.114621C2.73266 0.114845 4.19986 0.115029 4.4598 0.114932ZM5.08584 0.11823C5.76193 0.117859 3.0051 0.1178 3.5624 0.118198C3.5939 0.118221 5.04658 0.118252 5.08584 0.11823ZM4.8843 0.00159793C4.91012 0.00159457 4.93528 0.00139784 4.90969 0.00139314C4.29224 0.00128838 4.24236 0.00168177 4.8843 0.00159793ZM5.76742 0.121503C6.14034 0.121387 5.70984 0.121053 5.24612 0.121197C4.87306 0.121313 5.30352 0.121648 5.76742 0.121503ZM6.22762 0.0728063C6.25659 0.0728025 6.28268 0.0726614 6.11892 0.0726643C5.59148 0.0726738 5.74034 0.0728701 6.22762 0.0728063ZM5.79915 0.127066C5.90292 0.126244 8.1802 0.125745 7.92323 0.12664C7.87674 0.126802 7.19703 0.126291 6.99172 0.126497C6.61767 0.126875 8.04753 0.127125 7.28133 0.127511C7.14109 0.12758 5.78817 0.127112 5.79598 0.127064C5.79704 0.127065 5.7981 0.127065 5.79915 0.127066ZM6.48787 0.085357C6.51358 0.0853521 6.53796 0.0851569 6.51247 0.0851522C5.89527 0.0850465 5.8458 0.0854398 6.48787 0.085357ZM7.4297 0.0645762C7.48448 0.0645654 7.53572 0.0641123 7.48524 0.0640975C6.47595 0.0638611 6.36938 0.0647772 7.4297 0.0645762ZM7.91054 0.0985065C8.53144 0.0987195 8.60455 0.0989744 7.82484 0.0991442C7.86623 0.0989325 7.87233 0.0987194 7.91054 0.0985065Z" fill="#171717" fill-opacity="0.75"/>
<path d="M341.842 162.958C337.338 162.913 331.574 162.258 327.232 161.595C325.873 161.388 326.588 161.11 325.662 160.951C324.852 160.813 324.092 160.737 323.299 160.661C322.269 160.562 321.224 160.456 320.198 160.238C319.584 160.105 320.424 159.661 319.78 159.535C316.291 158.842 312.994 158.464 309.522 157.758C300.11 155.83 290.903 153.736 281.68 151.638C273.977 149.671 266.373 148.444 258.441 142.87C257.56 142.128 256.612 141.272 255.793 139.737C255.2 138.916 255.168 136.642 255.91 135.706C256.548 134.728 257.08 134.454 257.451 134.207C258.211 133.764 258.684 133.633 259.157 133.484C260.052 133.224 260.813 133.095 261.564 132.979C263.052 132.758 264.474 132.635 265.878 132.522C268.686 132.304 271.428 132.148 273.964 131.895C274.657 131.826 274.214 131.374 274.343 131.326C274.524 131.262 274.686 131.211 274.83 131.171C276.306 130.769 275.882 131.609 277.14 131.661C282.609 131.89 288.665 131.867 294.013 132.114C296.29 132.233 294.099 131.071 296.349 131.834C296.505 131.888 295.87 132.33 296.49 132.453C297.889 132.717 300.592 133.051 301.692 133.339C303.799 133.885 304.157 133.966 306.166 134.633C307.71 135.177 309.422 135.995 311.038 137.151C312.299 138.052 313.453 139.164 314.403 140.371C314.862 140.976 314.713 139.824 315.482 140.824C316.338 141.801 317.428 145.045 317.356 146.166C317.374 147.276 316.898 146.844 316.827 147.043C316.295 148.575 316.772 152.099 316.569 152.602C315.633 156.483 313.157 159.661 309.97 161.58C306.318 163.734 302.461 164.07 298.779 164.134C293.437 164.18 288.016 163.285 283.365 162.13C282.599 161.938 281.844 161.737 281.118 161.535C278.849 160.9 276.685 160.248 274.448 159.349C273.322 158.882 272.183 158.388 270.939 157.528C270.323 157.086 269.647 156.546 269.04 155.637C268.423 154.761 268.053 153.295 268.29 152.114C268.548 151.017 267.584 152.134 268.022 150.792C268.709 149.147 269.582 148.276 270.396 147.455C276.171 142.429 282.058 139.988 288.216 137.426C288.919 137.15 288.261 138.043 288.975 137.798C293.352 136.25 300.413 134.613 302.242 131.523C302.701 131.377 303.192 131.223 303.676 131.076C306.365 130.251 309.412 129.496 311.846 129.331C313.7 129.215 312.091 130.171 314.225 129.458C314.712 129.303 313.961 128.929 314.702 128.736C317.828 127.925 321.38 127.694 324.571 127.357C325.222 127.286 325.036 126.831 325.221 126.745C326.795 126.037 329.366 127.238 329.903 127.353C331.02 127.569 332.046 127.742 333.029 127.885C335.733 128.281 338.133 128.41 340.963 128.798C341.856 128.923 340.884 128.166 341.746 128.266C346.237 128.798 350.846 129.706 355.097 130.988C356.042 131.276 355.039 131.58 355.482 131.743C357.43 132.466 358.117 131.616 359.988 132.346C360.378 132.499 360.031 132.871 360.091 132.939C361.033 134.005 362.326 133.24 362.631 133.305C366.466 134.116 368.459 136.012 371.997 137.233C372.426 137.383 371.69 136.471 372.88 136.927C374.168 137.425 375.458 137.966 376.738 138.556C382.802 141.301 388.308 146.16 391.305 152.12C391.695 152.891 392.117 153.795 392.244 154.954C392.32 155.953 392.097 156.106 392 156.001C391.888 155.899 391.771 155.597 391.743 155.656C390.896 157.386 390.986 158.551 390.66 159.079C390.288 159.557 389.868 159.943 389.443 160.27C386.847 162.154 384.274 162.496 382.812 164.283C379.386 165.429 375.967 166.338 372.527 167.136C362.16 169.526 351.708 170.365 341.347 170.138C341.174 170.134 341.452 169.572 341.105 169.568C336.895 169.501 337.738 170.298 335.015 171.474C334.829 171.553 334.533 171.528 334.193 171.448C333.302 171.229 332.069 170.599 331.935 170.538C331.241 170.232 331.908 169.391 331.678 169.336C329.757 168.909 330.191 171.573 327.612 171.683C327.532 171.682 327.845 171.175 327.63 171.135C326.961 171.009 326.303 171.232 325.634 171.089C324.131 170.756 323.539 169.477 321.278 170.319C320.988 170.428 321.494 171.932 319.195 171.942C318.281 171.945 314.232 172.106 313.096 172.041C311.961 171.977 312.723 171.464 312.642 171.445C309.566 170.89 310.723 170.586 309.164 169.672C307.611 168.76 308.099 171.026 307.482 171.297C306.863 171.568 304.615 171.093 304.059 170.92C303.504 170.748 304.182 170.42 303.691 170.327C300.439 169.719 302.297 171.492 301.238 171.879C298.74 172.793 296.742 171.145 294.436 171.023C293.812 170.99 294.328 171.365 293.774 171.411C291.575 171.588 290.247 171.083 287.751 171.602C287.344 171.687 285.33 172.729 284.015 171.997C283.828 171.892 284.351 171.465 283.413 171.381C282.006 171.255 279.49 171.183 277.982 171.331C276.871 171.441 278.147 172.129 276.75 171.92C276.131 171.826 277.278 171.416 276.111 171.273C274.94 171.132 271.985 171.151 270.846 171.161C269.718 171.172 270.334 171.7 270.242 171.735C269.702 171.938 267.513 172.179 267.333 172.176C264.511 172.174 261.752 172.074 259.031 171.919C252.377 171.53 245.968 170.649 239.324 169.512C238.591 169.383 238.962 170.027 238.849 170.012C236.278 169.685 238.572 168.689 236.974 167.805C236.952 168.955 235.99 168.533 234.208 168.149C233.362 167.963 233.685 168.512 233.599 168.533C232.145 168.79 231.539 167.671 231.387 167.433C230.79 166.545 229.662 166.928 229.269 166.305C228.899 165.69 230.351 165.609 228.782 164.962C228.176 165.139 228.952 166.624 227.661 166.249C224.041 165.279 218.865 161.561 215.968 158.035C214.809 156.731 213.954 155.281 213.668 153.975C213.114 151.402 214.444 149.81 215.23 148.957C216.102 148.067 216.906 147.531 217.965 146.967C221.863 145.159 220.143 145.24 222.477 143.867C224.858 142.601 224.278 144.876 224.77 145.134C225.25 145.404 225.483 144.876 225.981 144.952C226.474 145.031 225.645 145.594 226.667 145.354C227.672 145.108 230.237 143.626 230.498 143.12C230.991 142.122 229.744 141.526 231.759 141.151C231.931 141.12 232.128 141.09 232.355 141.063C232.518 141.044 232.121 141.66 232.742 141.563C237.633 140.785 242.679 139.976 247.584 139.707C248.25 139.672 247.728 140.304 248.118 140.29C252.207 140.167 250.648 139.402 252.766 138.117C252.404 139.566 253.733 140.278 256.788 140.017C258.642 139.863 258.255 139.283 259.431 138.755C259.784 138.596 261.115 138.917 261.342 138.612C262.055 137.618 260.735 136.649 263.959 136.85C264.1 136.861 263.689 137.405 264.174 137.404C267.305 137.408 267.637 136.402 271.01 136.105C272.751 135.952 275.433 136.07 277.924 136.171C279.165 136.223 280.409 136.268 281.412 136.265C281.407 137.842 284.226 137.385 285.364 136.264C287.307 136.249 289.432 136.129 291.324 136.232C291.974 136.267 291.559 136.734 291.642 136.781C292.919 137.524 293.748 136.447 294.166 136.396C298.733 135.889 302.477 136.624 306.833 135.775C306.988 135.745 307.224 134.646 308.402 135.429C308.478 135.483 307.043 136.001 309.097 136.012C311.154 136.022 315.032 136.563 317.88 136.029C318.567 135.901 320.31 134.996 321.714 135.68C321.902 135.773 321.699 136.089 321.971 136.261C322.847 136.812 323.315 135.702 324.343 136.635C325.374 137.569 327.508 138.259 330.375 137.599C330.467 137.579 331.148 136.699 332.051 136.71C333.491 136.728 335.535 136.905 337.052 136.898C337.774 136.893 337.311 136.349 337.436 136.339C342.283 136.029 345.749 136.518 350.941 136.749C351.889 136.793 354.649 136.064 356.476 136.664C358.514 137.323 356.387 139.978 361.055 139.383C361.543 139.322 362.059 139.054 362.606 138.72C364.249 137.757 366.208 136.243 368.699 137.59C375.236 137.35 381.322 138.047 387.704 138.64C387.974 138.674 389.162 138.024 389.86 138.375C390.101 138.494 390.3 138.634 390.466 138.777C390.983 139.226 391.219 139.706 391.639 140.073C393.497 141.718 394.766 143.754 395.523 145.999C395.714 146.57 395.871 147.157 395.98 147.76C396.159 148.894 395.666 148.571 395.755 149.89C395.781 151.178 396.401 152.199 395.57 153.912C395.309 154.409 394.851 154.813 394.339 155.129L394.447 155C393.545 155.229 392.59 155.303 391.671 155.717C392.216 156.795 391.146 157.421 389.183 158.518C388.806 158.728 389.385 158.96 389.213 159.081C388.494 159.584 387.658 159.496 386.966 159.959C386.797 160.071 386.912 160.469 386.78 160.582C385.643 161.575 383.236 161.196 382.836 161.113C381.296 160.826 380.737 161.482 379.607 161.445C378.472 161.402 380.043 160.813 378.755 160.892C376.084 161.055 372.732 161.547 370.038 161.778C368.971 161.872 369.749 162.356 369.598 162.382C367.382 162.727 365.098 162.281 363.921 163.449C362.371 160.924 362.547 163.297 360.135 163.391C360.131 163.391 360.12 163.391 360.116 163.391C359.875 163.389 359.63 163.364 359.341 163.306C359.087 163.253 358.815 161.9 359.764 161.721C359.88 161.699 360.005 161.686 360.137 161.68L360.078 161.68C361.017 161.591 362.289 161.831 363.441 161.499C363.755 161.412 365.473 160.044 365.704 159.949C367.562 159.222 367.989 161.2 368.101 161.304C369.358 162.405 371.428 160.831 371.989 160.67C374.557 159.952 376.817 159.911 378.916 159.223C380.291 158.768 380.162 157.444 381.241 157.257C384.743 156.597 386.66 157.991 389.117 155.272C389.597 154.666 388.452 153.702 390.922 153.645C391.026 153.649 392.224 153.656 392.814 153.127L392.209 153.849C392.312 153.676 392.349 153.468 392.273 153.255C392.232 153.141 391.843 152.981 391.848 152.873C391.871 152.156 392.303 151.693 392.158 150.691C392.007 149.719 391.587 148.518 391.333 147.281C391.328 147.254 391.322 147.227 391.317 147.2C391.18 146.44 391.521 145.271 391.513 144.853C391.507 143.631 390.153 143.412 390.215 142.571C390.157 141.641 391.981 141.78 390.659 140.2C389.97 141.052 389.224 141.903 388.571 142.79C388.483 142.733 388.393 142.676 388.299 142.621C386.317 141.398 380.901 140.965 376.562 140.817C375.983 140.804 376.559 141.412 375.93 141.413C373.261 141.42 370.958 140.954 368.157 141.075C366.394 141.154 364.477 141.572 362.573 141.791C362.182 141.838 361.787 141.875 361.39 141.899C360.025 140.634 356.654 141.031 354.237 140.903C353.375 140.859 353.448 140.525 352.842 140.413C350.544 139.999 351.617 141.109 350.992 141.28C348.299 142.012 348.074 139.509 344.907 139.565C344.734 139.567 342.683 140.898 342.4 140.981C340.595 141.521 342.097 140.516 340.974 140.418C338.926 140.238 337.493 139.921 335.083 140.316C334.383 140.433 332.695 141.269 331.331 140.631C331.151 140.548 331.248 140.107 331.104 140.082C328.485 139.662 328.421 141.048 326.93 141.525C325.441 142.001 323.126 141.061 322.653 140.79C321.418 140.086 323.594 140.478 323.659 140.408C324.435 139.57 322.753 139.725 321.464 139.665C321.268 138.308 319.467 138.405 320.13 139.608C320.205 139.739 321.205 139.605 321.464 139.665C320.346 141.005 318.371 141.192 316.174 139.97C315.146 139.397 316.105 138.706 313.001 138.99C311.591 139.119 312.147 140.047 310.907 140.317C308.073 140.934 304.368 140.118 301.445 140.308C300.38 140.377 301.427 140.87 300.7 140.935C298.779 141.109 297.073 140.76 295.139 140.999C294.964 141.022 295.404 141.548 294.803 141.568C290.248 141.734 286.276 141.497 281.521 141.653C280.622 141.683 279.391 141.774 278.152 141.876C276.227 142.031 274.212 142.214 272.773 142.249C268.679 142.344 263.564 141.879 260.096 142.343C257.819 142.644 258.375 143.14 257.429 143.586C255.62 144.446 252.203 143.519 251.734 143.377C251.728 143.37 253.645 143.043 252.583 142.877C251.927 142.369 251.754 143.373 251.734 143.377C251.429 143.274 247.538 143.61 246.794 143.823C246.382 143.935 246.684 144.407 246.469 144.455C242.033 145.457 237.681 146.378 233.29 147.337C232.651 147.477 232.025 147.612 231.39 147.751C231.3 147.765 231.285 147.181 231.075 147.22C228.122 147.763 226.503 149.013 224.516 150.231C222.523 151.465 221.132 152.079 219.745 151.889C219.481 152.123 219.202 152.351 219.007 152.511C218.718 152.751 218.6 152.844 218.509 152.784C218.417 152.721 218.272 152.718 218.226 152.904C218.167 153.157 218.498 153.313 218.772 153.285C219.054 153.271 219.312 153.146 219.34 153.168C219.613 153.377 219.922 153.624 220.242 153.879C222.531 155.774 223.768 157.442 226.66 159.264C228.251 160.305 231.86 161.711 233.951 162.229C235.582 162.66 236.514 163.186 238.098 163.409C238.316 163.439 238.218 162.909 238.287 162.906C240.118 162.734 239.039 163.712 239.35 164.005C240.484 165.05 241.255 165.645 243.625 165.659C244.189 165.667 245.973 164.177 246.942 164.192C248.199 164.214 247.685 164.781 249.005 164.77C249.121 164.769 249.13 164.388 249.952 164.484C252.873 164.818 256.041 165.138 259.189 165.257C260.122 165.293 261.105 165.318 262.033 165.325C262.596 165.331 261.883 164.711 262.699 164.709C266.505 164.697 270.701 164.738 274.424 165.016C275.338 165.086 274.766 165.512 274.965 165.638C276.198 166.4 277.922 165.281 278.213 165.258C285.042 164.681 290.291 165.61 297.26 164.99C297.64 164.954 300.534 163.701 301.862 164.69C301.954 164.755 303.267 165.769 304.392 165.026C304.462 164.979 303.645 164.462 305.049 164.481C306.45 164.5 308.701 164.079 310.645 164.613C311.257 164.781 312.735 165.779 314.532 164.891C314.649 164.829 317.401 162.859 318.439 164.119C318.607 164.326 318.497 165.704 320.635 164.923C321.044 164.772 320.277 164.494 321.37 164.262C323.03 163.907 325.268 164.187 327.295 163.491C327.651 163.368 329.129 162.373 330.391 163.023C330.588 163.125 330.245 163.599 330.893 163.621C331.842 163.655 332.849 163.631 333.81 163.589C335.974 163.494 338.152 163.303 340.299 163.397C341.402 163.444 340.876 164.217 342.046 164.345C343.193 164.475 345.535 164.514 346.705 164.091C347.879 163.667 346.476 162.587 348.267 162.36C355.968 161.358 363.538 161.299 370.78 159.688C370.798 159.684 370.816 159.68 370.833 159.676C371.918 159.432 370.929 159.242 372.506 158.84C376.124 157.929 382.381 155.788 384.8 154.164C385.008 154.03 385.08 153.948 384.987 154.107C384.903 154.246 384.652 154.764 384.629 155.334C384.598 155.905 384.762 156.261 384.819 156.278C384.884 156.307 384.86 156.103 384.775 155.832C384.718 155.673 384.66 155.512 384.607 155.361C383.244 151.947 386.248 155.484 384.888 152.953C384.168 151.696 382.119 151.486 381.878 151.298C379.389 149.339 377.944 147.555 375.252 146.257C374.7 146.002 374.96 146.773 374.495 146.556C374.087 146.37 373.678 146.169 373.263 145.963C371.982 145.331 370.67 144.629 369.372 144.145C368.587 143.856 368.574 144.307 367.87 144C366.178 143.276 364.689 142.565 363.076 141.623C362.929 141.537 364.164 141.382 362.848 140.936C360.716 140.218 358.116 139.06 355.486 138.818C354.706 138.749 354.454 139.68 352.992 138.648C352.686 138.436 353.382 137.391 351.267 137.954C350.905 138.038 347.478 138.715 346.074 137.586C345.698 137.284 344.804 136.161 343.853 136.16C343.725 136.163 344.14 136.757 343.373 136.686C340.663 136.428 337.846 136.007 335.054 135.893C334.308 135.864 335.359 136.508 334.25 136.45C333.638 136.42 333.001 136.38 332.337 136.333C329.751 136.144 327.005 135.922 324.78 135.852C323.752 135.82 324.445 135.352 324.37 135.305C323.12 134.558 322.46 135.682 322.076 135.773C319.653 136.346 317.732 136.138 315.477 136.737C314.859 136.904 315.409 137.307 315.294 137.378C314.108 138.093 314.868 136.987 314.023 137.078C311.659 137.335 309.08 138.134 306.766 138.978C306.523 139.067 306.441 139.15 306.433 139.229C306.428 139.28 306.453 139.33 306.484 139.38C306.536 139.463 306.605 139.544 306.567 139.626C306.542 139.683 306.468 139.74 306.303 139.799C301.785 141.451 297.038 143.316 292.564 144.988C291.722 145.303 292.046 144.656 291.833 144.639C290.348 144.517 289.058 146.233 288.717 146.507C287.144 147.759 286.284 147.747 284.801 148.619C281.994 150.289 278.536 152.367 276.741 154.041C276.451 154.308 276.282 154.562 276.376 154.407C276.419 154.322 276.541 154.105 276.633 153.644C276.729 153.191 276.719 152.462 276.525 151.872C276.086 150.634 275.62 150.506 275.717 150.555C275.772 150.613 276.109 150.829 276.523 151.028C278.29 151.878 280.9 152.645 283.199 153.297C283.216 153.301 283.233 153.306 283.251 153.311C292.238 155.839 300.739 157.657 305.652 154.768C306.039 154.52 306.41 154.225 306.758 153.882C307.033 153.604 306.334 153.446 306.547 153.211C309.218 150.215 309.332 145.812 306.318 144.098C306.1 143.959 305.846 143.816 305.574 143.681C305.224 143.511 305.447 144.271 304.887 144.032C303.719 143.538 301.843 142.912 300.21 142.378C299.415 142.118 300.616 141.869 299.8 141.618C297.873 141.036 295.629 140.71 293.435 140.625C292.499 140.593 293.857 141.285 292.651 141.201C287.047 140.849 281.29 141.049 275.434 141.194C272.642 141.267 269.851 141.304 267.116 141.342C266.531 141.352 265.882 140.218 264.705 140.605C264.661 140.945 264.72 141.329 264.731 141.684C263.884 141.816 263.052 141.966 262.43 142.121C262.139 142.191 261.857 142.293 261.962 142.258C262.042 142.204 262.168 142.244 262.897 141.64C263.081 141.477 263.327 141.232 263.575 140.897C263.861 140.502 264.141 140.039 264.364 139.313C264.845 137.869 264.436 136.118 263.978 135.358C263.737 134.981 264.025 135.426 264.533 135.771C265.042 136.146 265.744 136.565 266.513 136.959C268.066 137.757 269.871 138.48 271.737 139.134C275.492 140.442 279.514 141.503 283.613 142.421C285.887 142.927 288.176 143.428 290.469 143.91C291.004 144.023 290.211 143.216 291.237 143.428C297.21 144.658 303.028 145.626 309.013 147.318C309.605 147.484 309.106 148.527 310.918 148.667C311.241 148.694 313.951 148.993 314.68 148.861C314.78 148.84 314.372 148.251 315.238 148.372C318.276 148.799 321.397 149.267 324.414 149.673C326.458 149.944 328.493 150.235 330.483 150.539C331.296 150.664 330.378 151.136 330.954 151.23C335.087 151.891 339.608 151.81 343.503 152.476C346.108 152.914 345.108 153.828 346.488 154.803C346.688 154.943 348.326 154.983 348.411 155.528C348.627 156.903 347.805 158.402 348.127 159.868C348.206 160.187 350.455 159.848 349.127 160.61C349.038 160.663 347.37 160.907 346.949 161.156C346.659 161.329 347.167 161.894 346.577 162.112C345.981 162.33 345.346 161.849 344.365 162.085C343.387 162.32 343.78 162.974 341.842 162.958ZM220.924 157.635C221.652 158.94 223.009 157.533 221.609 156.973C221.54 156.948 220.888 157.57 220.924 157.635ZM381.383 139.532C379.529 138.555 378.138 139.766 379.469 140.49C380.767 141.216 381.933 139.83 381.383 139.532ZM394.406 148.647C394.649 146.408 391.913 146.934 392.876 148.733C392.926 148.835 394.386 148.77 394.406 148.647ZM339.924 154.792C339.937 154.819 341.122 154.913 341.158 154.888C341.822 154.308 339.456 154.123 339.924 154.792ZM383.024 159.613C383.794 159.826 385.632 158.883 384.672 158.661C383.918 158.488 382.078 159.359 383.024 159.613ZM294.356 170.075C294.38 170.104 295.239 170.114 295.219 169.95C295.15 169.424 293.959 169.595 294.356 170.075ZM350.027 160.489C354.339 162.357 357.494 164.816 351.774 163.386C350.79 163.066 354.127 163.263 352.903 162.731C350.768 161.793 348.775 162.421 346.951 160.717C346.633 160.417 349.782 160.397 350.036 160.489C350.033 160.489 350.03 160.489 350.027 160.489ZM220.055 159.954C220.055 159.993 220.979 160.752 221.018 160.742C221.887 160.64 220.07 159.153 220.055 159.954ZM344.498 169.41C344.555 169.463 347.333 169.326 347.417 169.267C348.783 168.162 343.204 168.437 344.498 169.41ZM281.46 136.306C282.751 135.639 284.282 135.516 285.358 136.264C284.049 136.262 282.772 136.298 281.46 136.306Z" fill="#FFCA0C" fill-opacity="0.75"/>
<path d="M342.295 163.04C340.394 163.196 337.921 162.983 336.047 162.701C335.459 162.614 335.764 162.275 335.357 162.198C334.566 162.05 333.82 162.203 333.036 162.026C332.776 161.965 333.114 161.427 332.841 161.376C331.351 161.101 329.932 161.202 328.416 161.037C323.467 160.429 319.356 160.359 313.388 159.093C312.027 158.754 310.303 157.592 309.521 156.079C308.715 154.589 308.633 153.238 308.684 152.125C308.918 149.161 310.402 147.511 311.584 146.239C313.882 143.92 316.933 142.671 319.24 141.19C319.511 141.018 319.119 140.683 319.155 140.619C319.372 140.247 319.533 140.162 319.68 140.189C319.935 140.228 320.138 140.575 320.545 140.468C323.146 139.778 325.848 139.046 328.209 138.448C329.214 138.197 328.036 137.424 329.159 137.79C329.236 137.815 329.051 138.357 329.339 138.369C329.983 138.395 331.171 138.175 331.659 138.18C332.604 138.188 332.757 138.175 333.641 138.145C334.853 138.113 336.27 138.376 337.551 138.321C337.825 138.308 337.487 137.77 337.93 137.703C338.375 137.634 339.535 137.762 339.91 137.921C340.288 138.078 340.084 138.472 340.144 138.571C340.625 139.408 342.046 138.467 342.225 138.465C345.38 138.402 347.879 139.534 350.667 140.197C352.788 140.702 355.087 141.129 357.053 141.766C359.385 142.523 361.281 143.469 363.51 144.228C363.748 144.31 363.68 143.632 363.975 143.733C364.921 144.056 365.877 144.406 366.787 144.766C368.096 145.292 369.494 146.026 370.711 147.448C371.938 148.827 372.654 151.166 372.067 153.141C371.898 153.705 371.541 152.869 371.338 153.382C371.337 153.386 371.335 153.39 371.334 153.393C370.474 155.483 368.468 155.93 367.327 156.38C366.102 156.829 365.096 157.38 364.738 158.664C363.301 158.893 361.626 159.06 360.355 158.757C359.536 158.561 360.219 157.879 359.299 158.251C359.089 158.333 359.434 158.808 359.117 158.893C357.783 159.248 356.294 159.235 354.994 159.624C354.724 159.705 354.841 160.156 354.771 160.246C354.198 160.974 353.009 159.963 352.779 159.901C350.955 159.45 349.667 159.783 348.027 159.884C347.64 159.907 348.141 160.492 347.769 160.536C346.63 160.669 345.463 160.748 344.283 160.755C343.517 160.76 342.722 160.729 341.97 160.657C341.543 160.615 341.907 160.07 341.702 160.023C340.805 159.822 340.664 160.823 339.798 160.644C339.62 160.607 339.701 160.153 339.667 160.104C339.135 159.348 338.732 160.464 338.599 160.493C336.96 160.883 335.861 159.763 334.279 159.963C334.088 159.988 334.532 160.548 333.995 160.583C330.422 160.819 326.645 160.697 323.115 160.249C322.565 160.18 322.957 159.75 322.922 159.698C322.359 158.874 321.998 159.98 321.819 160.021C320.407 160.322 319.094 159.392 318.131 160.706C312.161 160.228 306.217 160.893 300.314 159.621C300.24 159.607 300.382 159.064 300.233 159.037C298.427 158.703 298.778 159.554 297.553 160.57C297.245 160.825 296.36 159.56 296.274 159.467C295.983 159.125 296.304 158.32 296.206 158.253C295.392 157.726 295.497 160.407 294.381 160.389C294.347 160.384 294.5 159.893 294.408 159.843C294.121 159.684 293.843 159.875 293.561 159.701C292.908 159.297 292.731 157.992 291.715 158.733C291.598 158.823 291.727 160.158 290.957 160.261C290.901 160.268 290.839 160.27 290.773 160.264C290.368 160.229 288.606 160.213 288.128 160.096C287.634 159.981 287.992 159.503 287.958 159.481C286.644 158.786 287.18 158.536 286.553 157.55C285.937 156.566 286.016 158.85 285.735 159.091C285.465 159.333 284.5 158.744 284.29 158.544C284.062 158.344 284.381 158.052 284.174 157.934C282.823 157.156 283.487 159.021 282.998 159.35C281.821 160.121 281.118 158.362 280.145 158.092C279.884 158.019 280.065 158.425 279.816 158.434C278.841 158.461 278.344 157.869 277.195 158.183C277.005 158.234 275.939 159.09 275.507 158.246C275.446 158.125 275.754 157.756 275.363 157.584C274.791 157.33 273.74 156.998 273.061 156.956C272.561 156.926 272.92 157.748 272.373 157.368C272.136 157.198 272.737 156.953 272.285 156.666C271.839 156.387 270.596 155.969 270.134 155.783C269.672 155.606 269.715 156.194 269.665 156.212C269.352 156.306 268.343 156.114 268.265 156.069C267.565 155.734 266.908 155.343 266.303 154.945C265.249 154.159 263.73 153.346 263.585 150.999C263.637 149.854 264.317 149.194 264.807 148.777C265.322 148.356 265.841 148.065 266.342 147.799C267.35 147.274 268.343 146.844 269.325 146.358C269.618 146.215 269.21 145.782 269.253 145.755C270.208 145.127 269.936 146.819 270.819 147.007C270.315 145.995 270.81 146.021 271.496 145.641C271.824 145.459 271.487 145.116 271.504 145.063C271.81 144.25 272.458 144.931 272.608 145.064C273.157 145.556 273.293 144.706 273.663 145.036C274.033 145.363 273.695 146.143 274.391 145.902C274.457 145.456 273.611 144.626 274.084 144.29C274.761 143.812 275.749 143.456 276.803 143.184C278.575 142.723 280.543 142.504 281.574 142.265C283.228 141.882 283.735 141.668 284.722 141.55C286.51 141.341 285.676 140.757 286.659 140.128C287.64 139.503 287.603 141.5 287.859 141.861C288.114 142.222 288.173 141.768 288.417 141.94C288.66 142.112 288.326 142.487 288.785 142.458C289.237 142.43 290.27 141.415 290.319 140.958C290.429 139.988 289.656 139.187 290.912 139.228C290.984 139.231 290.885 139.775 291.155 139.762C293.294 139.643 295.436 139.175 297.563 139.056C297.855 139.041 297.725 139.646 297.896 139.643C299.685 139.618 298.858 138.829 299.584 137.593C299.672 139.009 300.362 139.736 301.667 139.466C302.445 139.306 302.19 138.734 302.601 138.205C302.72 138.047 303.37 138.34 303.408 138.037C303.545 137.046 302.797 136.127 304.232 136.253C304.294 136.26 304.215 136.803 304.423 136.791C305.78 136.713 305.731 135.718 307.119 135.298C308.203 134.971 310.292 135.125 311.545 134.913C311.884 136.455 313.014 135.798 313.172 134.62C313.335 134.584 313.493 134.543 313.647 134.5C314.331 134.31 315.036 134.105 315.714 134.064C316.006 134.047 315.928 134.535 315.975 134.574C316.683 135.2 316.807 134.093 316.985 134.013C318.895 133.203 320.621 133.777 322.463 132.845C322.527 132.812 322.565 131.709 323.137 132.473C323.172 132.527 322.571 133.063 323.476 133.046C324.386 133.028 326.075 133.573 327.317 133.086C327.614 132.967 328.408 132.093 328.998 132.81C329.076 132.907 328.976 133.218 329.086 133.397C329.441 133.968 329.695 132.871 330.093 133.832C330.491 134.793 331.34 135.543 332.611 134.989C332.653 134.974 333.007 134.12 333.396 134.166C334.015 134.24 334.872 134.501 335.521 134.558C335.827 134.585 335.684 134.024 335.739 134.019C336.69 133.976 337.488 134.083 338.296 134.258C338.3 134.258 338.312 134.26 338.316 134.26C339.296 134.509 340.261 134.857 341.463 135.162C341.853 135.263 343.146 134.714 343.83 135.42C344.59 136.194 343.277 138.689 345.347 138.382C346.177 138.261 347.75 135.082 348.886 137.059C351.732 137.102 354.134 138.44 357.017 138.337C357.147 138.333 357.712 137.474 358.004 137.542C358.437 137.643 358.594 138.123 358.899 138.21C360.176 138.584 361.437 138.44 362.681 138.743C363.155 138.858 362.902 139.274 363.461 139.411C364.025 139.549 364.52 139.033 365.23 139.474C365.767 139.81 366.099 141.135 366.828 141.435C367.021 140.616 367.337 140.43 367.835 140.354C368.064 140.322 368.328 140.311 368.632 140.277C368.825 140.255 368.721 139.8 368.819 139.768C369.221 139.633 369.453 140.044 369.842 139.888C369.935 139.85 370.03 139.447 370.111 139.393C370.804 138.922 371.523 140.049 371.637 140.244C372.098 140.989 372.506 140.534 372.906 140.885C373.308 141.237 372.544 141.357 373.046 141.637C374.073 142.212 375.496 142.536 376.592 142.896C377.029 143.037 376.895 142.416 376.961 142.424C377.925 142.576 378.641 143.446 379.514 142.587C379.172 145.497 380.157 142.517 381.25 143.55C381.336 143.633 380.967 144.937 380.516 144.974C380.067 145.012 379.637 144.398 379 144.498C378.847 144.518 377.717 145.463 377.6 145.505C376.66 145.818 377.175 143.871 377.166 143.751C377.061 142.459 375.75 143.484 375.494 143.509C374.297 143.607 373.452 143.089 372.459 143.154C371.815 143.197 371.438 144.465 370.985 144.314C369.47 143.815 369.313 141.894 367.481 143.13C367.311 143.244 367.217 143.585 367.092 143.826C366.93 144.144 366.719 144.29 366.198 143.521C366.144 143.437 365.5 142.242 364.872 142.784C364.793 142.852 364.711 143.265 364.621 143.283C364.033 143.396 363.729 142.993 363.101 143.032C362.47 143.07 361.707 143.164 361.048 142.891C360.653 142.727 360.27 141.856 360.107 141.629C359.653 140.98 358.882 141.757 358.659 141.034C358.433 140.307 359.308 139.431 358.466 138.832C358.231 139.9 357.948 140.988 357.692 142.058C355.689 141.646 353.773 140.94 351.741 140.632C351.489 140.595 351.643 141.219 351.371 141.194C350.222 141.087 349.303 140.504 348.099 140.468C347.166 140.443 346.064 140.889 345.091 140.887C344.71 139.556 343.229 139.745 342.221 139.469C341.868 139.373 341.945 139.047 341.708 138.9C340.8 138.349 341.086 139.513 340.796 139.643C339.547 140.201 339.835 137.714 338.483 137.575C338.44 137.57 338.05 137.981 337.722 138.335L337.841 138.351C337.614 138.604 337.413 138.828 337.361 138.856C336.55 139.313 337.287 138.381 336.825 138.233C335.978 137.962 335.412 137.584 334.363 137.879C334.056 137.967 333.286 138.733 332.77 138.047C332.703 137.958 332.779 137.522 332.721 137.491C331.659 136.978 331.53 138.36 330.893 138.789C330.252 139.218 329.369 138.219 329.184 137.937C328.706 137.205 329.585 137.649 329.613 137.581C329.976 136.765 329.27 136.874 328.74 136.786C328.712 135.425 327.945 135.486 328.189 136.702C328.215 136.834 328.637 136.72 328.74 136.786C328.22 138.101 327.447 138.25 326.556 137.005C326.137 136.424 326.528 135.733 325.241 136.005C324.662 136.133 324.912 137.061 324.422 137.334C323.313 137.958 321.79 137.207 320.639 137.502C320.227 137.608 320.703 138.059 320.427 138.15C319.703 138.392 318.982 138.126 318.275 138.468C318.212 138.5 318.48 138.992 318.254 139.045C317.2 139.302 316.205 139.435 315.166 139.64C314.379 139.81 313.608 139.957 312.803 140.153C311.79 140.401 310.079 141.088 309.05 141.249C307.261 141.536 304.958 141.221 303.514 141.721C302.58 142.043 302.893 142.524 302.559 142.969C301.915 143.829 300.235 142.895 300.006 142.745C299.995 142.74 300.803 142.436 300.3 142.264C299.916 141.76 300.016 142.74 300.006 142.745C299.857 142.647 298.181 142.891 297.872 143.066C297.704 143.16 297.916 143.633 297.828 143.673C295.734 144.607 293.57 145.244 291.312 145.559C291.271 145.559 291.193 144.993 291.097 144.999C289.756 145.072 289.104 145.957 288.168 146.627C287.221 147.302 286.367 147.39 285.492 146.619C284.736 146.953 283.495 146.855 282.768 146.792C282.048 146.727 282.266 147.816 282.215 147.854C280.952 148.807 279.942 148.806 278.626 149.017C278.29 149.072 277.958 149.134 277.581 149.233C276.695 149.462 275.049 150.172 274.184 150.606C273.505 150.948 272.992 150.858 272.415 151.254C272.338 151.307 272.599 151.734 272.58 151.762C272.101 152.577 271.997 151.329 271.775 151.185C270.973 150.664 270.459 150.415 269.778 151.13C269.607 151.3 269.861 153.105 269.704 153.313C269.492 153.582 269.25 153.003 269.119 153.268C269.118 153.284 269.309 153.617 269.268 153.627C269.243 153.623 269.303 153.585 269.534 153.25C269.74 152.95 270.231 152.074 270.184 150.904C270.156 150.18 269.911 149.606 269.728 149.309C269.538 149.001 269.407 148.897 269.355 148.858C269.248 148.794 269.404 148.957 269.648 149.086C269.741 149.139 269.885 148.703 270.022 148.626C270.055 148.618 270.09 148.623 270.13 148.644C271.437 149.333 272.452 149.834 273.557 150.501C273.828 150.665 273.513 151.01 273.54 151.151C273.713 152.012 274.642 151.117 274.731 151.117C277.187 151.2 279.097 152.473 281.956 152.266C282.117 152.254 283.383 151.166 283.839 152.219C283.864 152.289 284.336 153.368 284.846 152.683C284.877 152.64 284.583 152.084 285.149 152.172C285.729 152.26 286.671 151.947 287.443 152.568C287.682 152.764 288.265 153.828 289.044 153.019C289.103 152.964 290.307 151.115 290.706 152.417C290.754 152.576 290.712 153.364 291.069 153.489C291.193 153.533 291.366 153.494 291.614 153.314C291.795 153.181 291.474 152.87 291.951 152.686C292.686 152.404 293.644 152.788 294.531 152.192C294.686 152.086 295.372 151.167 295.88 151.882C295.961 151.994 295.796 152.449 296.075 152.505C297.405 152.773 298.789 152.489 300.138 152.827C300.611 152.946 300.356 153.682 300.851 153.888C301.352 154.094 302.341 154.3 302.872 153.97C303.4 153.639 302.85 152.451 303.626 152.368C307.019 152.006 310.36 152.738 313.74 152.865C314.24 152.884 313.828 152.458 314.565 152.456C317.287 152.446 321.974 152.059 324.329 152.943C326.221 153.653 323.844 154.211 325.292 154.497C325.99 154.632 326.731 153.255 326.9 153.211C328.531 152.759 329.677 153.353 331.148 153.144C331.45 153.1 331.145 152.549 331.401 152.518C332.287 152.407 333.206 152.638 334.054 152.573C334.431 152.543 334.352 152.12 334.696 152.145C335.534 152.198 336.254 152.357 337.085 152.729C337.161 152.763 336.679 153.306 337.295 153.306C338.276 153.305 339.532 153.652 340.652 153.195C340.979 153.058 340.946 152.089 341.704 152.723C341.86 152.854 341.733 154.029 342.51 152.979C342.596 152.868 343.168 152.255 343.734 152.026C344.09 151.891 344.45 151.888 344.729 152.193C344.931 152.41 345.45 153.332 345.863 153.154C345.917 153.127 345.658 152.622 345.997 152.548C347.169 152.3 348.43 152.267 349.64 152.011C349.957 151.943 349.44 151.441 349.912 151.356C351.244 151.117 352.905 151.117 354.202 151.163C354.683 151.181 354.397 151.657 354.436 151.702C355.065 152.436 355.287 151.341 355.466 151.26C356.55 150.775 357.478 151.175 358.476 150.914C358.754 150.843 358.489 150.364 358.539 150.312C359.051 149.798 358.747 150.76 359.119 150.811C360.179 150.956 361.288 150.741 362.214 150.49C362.556 150.395 362.054 149.895 362.353 149.819C363.21 149.591 364.05 149.35 364.497 149.213C364.716 149.154 364.823 149.105 364.652 149.283C364.51 149.439 363.906 150.046 363.657 151.052C363.636 151.139 363.629 151.21 363.631 151.268C363.71 151.478 364.098 151.42 364.174 151.494C364.487 151.75 364.412 151.863 364.251 152.048C364.09 152.222 363.863 152.45 363.835 152.528C363.601 153.252 364.149 153.262 364.184 153.41C364.259 153.607 364.024 153.453 363.519 153.293C360.725 152.289 357.828 151.073 355.461 150.199C351.276 148.665 348.042 147.385 343.931 146.778C343.671 146.74 343.831 147.38 343.607 147.356C340.731 147.024 337.953 146.509 335.193 146.686C334.968 146.7 335.291 147.272 334.936 147.314C334.208 147.406 333.305 147.411 332.573 147.285C332.216 147.225 332.649 146.697 332.286 146.648C331.438 146.534 330.541 146.605 329.733 146.841C329.394 146.943 330.015 147.426 329.574 147.513C327.638 147.914 325.906 148.529 324.251 149.18C323.154 149.634 322.063 150.062 320.975 150.445C320.77 150.517 319.942 149.632 319.687 150.089C319.849 150.38 320.075 150.696 320.266 150.993C319.478 151.601 318.777 152.214 318.357 152.676C318.149 152.9 318.021 153.083 318 153.1C317.971 153.122 318.077 152.923 318.078 152.466C318.047 152.435 318.097 152.131 317.686 151.414C317.295 150.672 316.221 150.042 315.824 150.009C315.802 150.022 316.139 150.105 316.43 150.158C316.748 150.219 317.11 150.275 317.473 150.325C318.21 150.427 319.024 150.513 319.811 150.58C320.038 150.599 319.692 149.942 320.13 149.975C322.633 150.157 325.145 150.09 327.774 150.81C328.035 150.88 327.864 151.986 328.648 151.844C328.785 151.818 329.965 151.706 330.274 151.473C330.316 151.438 330.117 150.914 330.496 150.909C332.695 150.892 334.993 151.06 337.192 151.411C337.545 151.469 337.159 152.015 337.411 152.061C339.195 152.382 341.169 151.984 342.868 152.496C344.027 152.84 343.573 153.791 344.196 154.733C344.284 154.866 344.991 154.889 345.032 155.435C345.127 156.809 344.772 158.313 344.914 159.777C344.953 160.093 345.897 159.754 345.338 160.516C345.307 160.567 344.584 160.819 344.422 161.077C344.302 161.255 344.516 161.811 344.271 162.04C344.023 162.267 343.749 161.801 343.345 162.067C342.935 162.337 343.104 162.971 342.295 163.04ZM279.51 146.536C278.755 146.212 279.237 148.097 279.746 147.456C279.77 147.422 279.548 146.552 279.51 146.536ZM354.041 139.502C353.375 138.512 352.595 139.654 353.055 140.408C353.514 141.162 354.244 139.802 354.041 139.502ZM362.612 140.469C361.789 139.619 361.117 142.297 362.236 141.948C362.302 141.928 362.66 140.518 362.612 140.469ZM341.353 154.982C341.363 155.008 341.873 155.038 341.884 155.012C342.16 154.397 341.143 154.339 341.353 154.982ZM371.094 141.573C370.881 141.139 369.94 141.365 370.201 141.901C370.407 142.33 371.351 142.111 371.094 141.573ZM280.22 157.145C280.226 157.175 280.586 157.24 280.596 157.076C280.624 156.549 280.11 156.644 280.22 157.145ZM384.752 146.132C382.84 145.186 382.485 142.582 384.571 143.739C384.945 143.949 383.439 144.046 383.859 144.448C384.621 145.179 385.796 144.133 386.415 145.244C386.523 145.444 384.855 146.188 384.747 146.133C384.749 146.132 384.75 146.132 384.752 146.132ZM278.482 144.408C278.462 144.387 277.967 144.514 277.963 144.542C277.882 145.213 278.876 144.959 278.482 144.408ZM301.692 159.111C301.717 159.166 302.903 159.235 302.945 159.185C303.578 158.185 301.18 158.043 301.692 159.111ZM311.574 134.949C311.962 134.214 312.549 133.985 313.17 134.62C312.646 134.724 312.117 134.854 311.574 134.949Z" fill="#463703" fill-opacity="0.75"/>
</svg>
