<svg width="351" height="291" viewBox="0 0 351 291" fill="none" xmlns="http://www.w3.org/2000/svg">
<path d="M12.9339 0.00121461C13.1032 0.00192919 12.9222 0.00286588 12.6736 0.00357775C12.5966 0.00380085 12.252 0.00368788 12.1833 0.00384189C12.0493 0.0041431 12.2183 0.00442372 12.0587 0.00472138C12.0041 0.00482002 11.4584 0.00469723 11.4136 0.00480067C11.1724 0.00536749 11.3115 0.00590372 11.1954 0.00647792C10.623 0.00930623 10.4182 0.0120864 10.1695 0.0149493C10.088 0.0158933 9.59266 0.0170408 9.80927 0.0180158C9.83505 0.0181297 10.3141 0.0180618 10.3536 0.0180835C10.958 0.0184231 9.99093 0.0183102 9.86243 0.018532C9.3551 0.0194122 9.31098 0.020391 9.49586 0.021238C9.57592 0.0215984 10.5274 0.0212371 9.99335 0.0216C9.95727 0.0216251 9.44855 0.0215337 9.3943 0.0216325C9.27226 0.0218567 9.36319 0.0222819 9.32288 0.0224556C9.24263 0.0227904 9.24775 0.0228458 9.24195 0.0231624C9.2296 0.0235953 8.97672 0.0241101 9.09199 0.0245745C9.11811 0.0246737 9.6396 0.0245424 9.72834 0.0247005C9.81694 0.0248588 9.77272 0.0252774 9.64979 0.0254185C9.52679 0.0255597 9.11691 0.0254996 9.02296 0.0255246C8.22998 0.0257301 9.32826 0.0262143 9.35542 0.0262766C9.81821 0.0274126 9.19256 0.0283868 9.19435 0.0294531C9.19703 0.0302626 9.40358 0.0311282 9.37525 0.0318984C9.33949 0.0328161 9.0569 0.0335938 9.10548 0.0344853C9.11 0.0345794 9.72316 0.0344692 9.72993 0.0345841C9.80128 0.0358049 9.73444 0.0370173 9.3205 0.0382329C9.27845 0.0383548 8.74011 0.0381977 8.6659 0.0383195C8.22348 0.0390652 7.16068 0.0402451 9.50459 0.040688C9.41306 0.0411931 9.3185 0.0418063 8.84602 0.0422582C8.54192 0.0425496 7.95545 0.0422666 8.2057 0.0426245C8.26146 0.0427052 8.77506 0.0426002 8.81983 0.0427213C9.00786 0.043231 8.8409 0.0437878 9.10627 0.044292C9.16146 0.0443946 9.62166 0.0443666 9.70454 0.0443956C10.3757 0.0446398 9.26623 0.0450464 9.18562 0.045135C8.58445 0.0458099 8.82102 0.0463027 8.80635 0.0469314C8.80268 0.0470773 9.42084 0.0469049 9.43952 0.0470453C9.52812 0.0477734 9.47499 0.0485276 9.20069 0.0492406C9.13819 0.0493992 8.61163 0.0492533 8.55482 0.0493291C8.31074 0.0496633 9.30529 0.0497373 9.0904 0.0500578C9.04638 0.0501254 8.5956 0.0500873 8.54609 0.0500996C7.76894 0.0502925 8.87011 0.0504601 8.89442 0.0505097C9.2266 0.0511373 8.07704 0.0515384 8.23982 0.0521446C8.26045 0.0522172 8.83082 0.0520536 8.85395 0.0522575C9.01141 0.0536157 8.85472 0.0550522 8.39851 0.0563966C8.32835 0.0566057 7.89988 0.0564565 7.84706 0.0564696C7.02177 0.056684 8.12756 0.0568227 8.1692 0.0568909C8.46897 0.0574286 7.54164 0.0579309 8.85871 0.0582962C8.40164 0.0605734 9.14125 0.0628402 7.96132 0.0650986C7.94765 0.0651273 7.40305 0.0650759 7.37813 0.0651331C7.07234 0.0658229 7.91875 0.0656905 8.95393 0.0661469C9.21387 0.0662619 7.96406 0.0666116 7.87245 0.0666426C7.53486 0.0667553 6.72464 0.0666384 6.65926 0.0666761C6.14587 0.0669886 8.82532 0.0669376 8.82618 0.0673591C8.82171 0.0673723 8.32853 0.0673169 8.27949 0.0673523C8.12554 0.0674622 8.32151 0.0675712 8.15175 0.0676787C7.75891 0.0679248 6.45693 0.0680125 7.21468 0.0683884C7.31302 0.068436 8.83292 0.0683633 8.76112 0.0687396C8.73121 0.0688897 8.75726 0.0695537 8.65876 0.0697398C8.56039 0.0699256 8.0706 0.069798 8.04939 0.0698113C7.40173 0.0703121 7.13331 0.0701222 6.17446 0.0703731C5.21922 0.070624 7.49755 0.0705544 7.75184 0.0706567C8.00542 0.0707592 7.47106 0.0711264 7.28529 0.0712166C7.09945 0.0713068 6.78823 0.0711943 6.68306 0.0712745C5.99596 0.0718062 7.81394 0.0715079 8.17555 0.0716831C9.03177 0.0720962 7.34215 0.0724179 7.17659 0.0727961C7.13188 0.0728984 7.5167 0.0728149 7.55269 0.072906C7.69012 0.0732669 7.16292 0.0734839 7.64632 0.0738945C7.72509 0.0739616 8.74093 0.0742935 7.99544 0.0745084C7.88794 0.0745388 7.46689 0.0744523 7.37257 0.0746061C7.23103 0.0748359 7.139 0.0752498 7.27974 0.0754968C7.38387 0.0756791 8.07766 0.0754702 7.86213 0.0756996C7.7659 0.0758017 7.36003 0.0756126 7.21309 0.0758042C7.06619 0.0759948 7.08402 0.0764822 7.09804 0.0766677C7.11236 0.0768528 7.63863 0.0767515 7.67409 0.0767664C7.87718 0.076857 8.13095 0.0772122 8.13032 0.0772436C8.19457 0.0788272 7.30748 0.0802875 7.60109 0.0818293C7.62337 0.0819503 8.17833 0.0818697 8.18745 0.0818882C8.41997 0.0823024 6.94446 0.0819758 6.45058 0.0822652C7.57676 0.0822233 7.37284 0.0823942 7.49635 0.0826859C7.55678 0.0828265 7.99285 0.08275 8.03749 0.0827628C8.69982 0.0829713 7.84433 0.0831165 7.66933 0.0831539C7.02556 0.083292 7.78621 0.0834423 7.35591 0.0835362C6.92883 0.0836301 6.29568 0.083414 6.30379 0.0836939C6.70692 0.0837723 7.76042 0.0835646 7.93117 0.083777C8.577 0.0845786 7.75043 0.086075 7.66456 0.0867195C7.57878 0.0873628 7.65315 0.0875705 7.50746 0.0879453C7.24403 0.0886224 8.02566 0.0883743 8.38343 0.0887947C8.74117 0.0892163 6.81799 0.0890113 6.40456 0.089072C5.99131 0.0891315 6.41671 0.0891964 6.18953 0.0892704C5.96241 0.0893442 5.68131 0.0891845 5.59603 0.089358C5.51083 0.0895316 6.24601 0.0900062 6.6783 0.0900677C7.59413 0.0901978 8.55534 0.0899839 8.2176 0.0904432C8.19756 0.0904697 7.69187 0.0903839 7.64076 0.0904851C7.25146 0.0912885 7.22733 0.0921231 6.88301 0.0929256C6.83488 0.0930359 6.27231 0.0929372 6.23793 0.0930014C5.87811 0.0936703 6.82666 0.0934312 7.88038 0.0937977C6.4781 0.0937155 5.62018 0.0939181 5.6119 0.0944257C5.60643 0.0947309 6.21888 0.0946783 6.65053 0.0948757C6.78065 0.0949349 6.36012 0.0951508 6.64815 0.0951899C7.58966 0.095319 8.64363 0.0951156 8.22395 0.0956389C8.20401 0.0956619 7.68864 0.0955888 7.65742 0.0956681C7.45313 0.0961809 8.43794 0.0962423 8.5572 0.0967967C8.65078 0.0972312 8.05026 0.098004 7.95259 0.0984987C6.37602 0.0984883 6.73703 0.0989556 7.82405 0.0991452C7.77955 0.0994663 7.841 0.0998131 7.69075 0.100123C7.63952 0.10023 7.18306 0.10016 7.13374 0.100174C6.36005 0.10038 7.4176 0.10052 7.45906 0.100589C7.86209 0.10134 7.06055 0.101952 7.84389 0.102669C7.8721 0.102694 8.96723 0.102736 8.16761 0.102927C8.1125 0.10294 7.61423 0.102703 7.5757 0.10304C7.53708 0.103377 6.95001 0.104013 7.45747 0.104481C7.57964 0.104595 8.46867 0.104881 7.77406 0.105111C7.67974 0.105142 7.36565 0.105109 7.19087 0.105153C6.63396 0.105296 7.74087 0.105374 6.80049 0.105542C5.86016 0.10571 5.15592 0.10606 5.80471 0.106532C5.82357 0.106547 6.7009 0.106659 6.68703 0.106807C6.66413 0.107044 6.48136 0.107381 6.48708 0.107628C6.49013 0.107747 7.03491 0.107671 7.04488 0.107692C7.35015 0.108488 6.86448 0.109056 6.6537 0.109909C6.61399 0.110066 7.35688 0.110515 6.76955 0.110818C6.12661 0.111151 3.45207 0.110809 4.08926 0.111574C4.34412 0.111882 7.73726 0.112273 5.97927 0.112827C6.41489 0.113902 5.51515 0.114896 6.13716 0.115974C6.16472 0.116022 7.11172 0.116175 7.09883 0.116289C7.07786 0.116459 6.63525 0.116551 6.6061 0.116672C6.47277 0.117178 6.85146 0.117642 6.79256 0.11813C6.77116 0.118315 6.3135 0.11825 6.28792 0.118471C6.26277 0.118692 6.86542 0.118839 6.57436 0.119138C6.3525 0.119364 5.12071 0.119591 4.97713 0.119891C6.19216 0.119902 6.16713 0.120108 6.48787 0.120474C6.5501 0.120545 6.973 0.120469 7.02425 0.120502C7.24221 0.120638 6.89172 0.120763 7.12898 0.120892C7.18597 0.120923 7.60091 0.120925 7.67091 0.12095C8.28199 0.121168 7.34862 0.121527 7.18611 0.121588C6.56892 0.121824 7.1086 0.121934 6.86556 0.122116C6.62254 0.122296 6.31875 0.122026 6.17128 0.122237C5.86626 0.122675 5.93327 0.123237 5.9142 0.123681C5.90916 0.123859 6.46304 0.123738 6.47518 0.123763C6.61566 0.12413 6.02649 0.124501 7.12978 0.124704C4.27708 0.124958 7.40647 0.124925 6.8354 0.125449C6.78922 0.12549 5.4402 0.125543 5.24215 0.125384C5.04429 0.125226 5.46597 0.124986 5.15725 0.124766C5.0848 0.124714 3.82068 0.124415 3.74411 0.124375C3.14565 0.124056 5.16158 0.124011 5.2723 0.123994C6.4672 0.123802 5.10535 0.123438 5.01125 0.123342C4.58007 0.122903 4.86358 0.12253 4.55581 0.122162C4.3569 0.121922 3.03639 0.121898 3.07681 0.12171C3.21041 0.121083 5.05252 0.120864 3.45529 0.120273C3.11463 0.120146 1.67136 0.120272 2.80624 0.119818C2.87779 0.11979 3.916 0.119452 3.25931 0.119258C3.17651 0.119233 2.75588 0.119234 2.72055 0.119202C2.49199 0.118986 2.82708 0.118841 2.66659 0.118606C2.50611 0.11837 2.26685 0.118087 2.40952 0.117818C2.49482 0.117656 3.2785 0.117448 3.47036 0.117371C4.02307 0.117152 3.11686 0.116917 3.78616 0.116781C4.45882 0.116644 5.48037 0.116912 5.915 0.116553C4.82219 0.11654 3.70054 0.116509 2.60153 0.116488C2.64001 0.115702 2.99338 0.114928 2.9451 0.114139C2.93802 0.114041 2.35052 0.114141 2.32779 0.114036C2.23446 0.113594 2.65326 0.113207 2.48648 0.112749C2.35513 0.112393 1.7331 0.112004 1.57639 0.111633C2.82687 0.111406 2.40236 0.110855 2.51663 0.110454C2.55612 0.110314 2.8901 0.110324 2.99905 0.110224C3.40202 0.109848 2.29698 0.110024 2.12308 0.109921C1.38089 0.109478 3.88208 0.10944 3.82028 0.108919C3.81785 0.108891 2.48461 0.108553 2.40158 0.108507C1.86019 0.108211 2.86563 0.108458 2.96414 0.108273C3.14416 0.107935 3.46256 0.1077 3.07205 0.107304C2.95638 0.107188 2.12539 0.106911 2.76816 0.106687C2.85232 0.106657 3.29301 0.106673 3.31881 0.10665C3.74901 0.106219 2.36432 0.106208 1.89536 0.105962C1.4265 0.105716 2.38237 0.105337 2.65787 0.105259C3.37055 0.105057 2.96244 0.105414 3.03238 0.105425C3.86468 0.105554 3.72139 0.105277 3.79171 0.105065C5.14942 0.105035 5.06792 0.104739 3.85916 0.104846C3.72713 0.104858 3.85374 0.105023 3.79171 0.105065C2.45962 0.104879 2.28902 0.104554 3.53384 0.104195C4.11727 0.104027 4.79752 0.104186 4.54867 0.103675C4.43633 0.103443 3.50148 0.103533 3.24661 0.103328C2.66509 0.102861 3.53715 0.102253 3.39975 0.101772C3.34986 0.101597 2.83813 0.101767 2.78641 0.101647C2.64753 0.10133 3.0315 0.101051 2.83481 0.100732C2.81634 0.100703 2.28066 0.100774 2.27383 0.100675C2.21162 0.0999236 2.55473 0.0992697 2.56424 0.0984856C2.56859 0.0981067 2.27315 0.0974294 2.33255 0.097037C2.43234 0.0963568 3.21129 0.09552 3.02206 0.0949389C2.90093 0.09456 2.36515 0.0946431 2.00009 0.0944807C1.29247 0.0941673 2.55999 0.0936127 2.75626 0.093538C2.76275 0.0935357 2.88906 0.0938618 3.16409 0.0936878C3.73717 0.0935866 2.75874 0.0935417 2.75626 0.093538C2.88305 0.0934889 3.00467 0.0928375 2.90225 0.0927081C2.84628 0.0926378 2.33865 0.0926771 2.31906 0.0926405C1.86478 0.0917694 1.73576 0.0908967 1.97312 0.0900132C1.98337 0.0899977 2.55118 0.0900211 2.56821 0.0899845C2.82067 0.089473 2.12606 0.0891455 1.71366 0.0887237C1.30144 0.0883019 1.4395 0.0879674 2.41428 0.0877177C2.29154 0.0873994 2.72249 0.0869429 2.98398 0.0866801C3.24546 0.0864174 2.14017 0.0863807 2.11832 0.0863576C1.41895 0.0856366 2.0516 0.0852197 2.15006 0.0844717C2.19876 0.084116 2.03844 0.0834106 1.91757 0.0830255C1.8202 0.0827212 2.07923 0.0825378 1.91361 0.0822574C1.89149 0.0822195 1.39935 0.0822578 1.38041 0.0822462C0.791597 0.0819332 1.99469 0.0820836 2.20957 0.082019C2.99094 0.0817848 3.4071 0.08164 3.03952 0.0812393C2.95534 0.0811468 1.22305 0.0808775 1.12174 0.080709C0.993201 0.08049 1.61412 0.0805726 1.46372 0.0803432C1.45142 0.0803236 1.06835 0.0803277 1.08524 0.0801861C1.1586 0.0795289 1.3815 0.0788124 1.34311 0.0781294C1.33934 0.0780361 0.731739 0.0781558 0.716284 0.078021C0.644261 0.0773885 0.666747 0.0766952 0.951146 0.0760791C1.02306 0.0759274 1.44848 0.0760225 1.5748 0.0759896C2.3391 0.0757874 1.22859 0.0755008 1.20743 0.0754535C0.673773 0.0743254 1.67877 0.0734619 1.20029 0.0723121C1.1722 0.0722495 -0.01829 0.0717677 1.00272 0.0715527C1.07065 0.071538 2.11525 0.0713253 1.40103 0.0711373C1.35635 0.0711256 0.818577 0.0712581 0.873388 0.0710269C0.928079 0.0707956 0.568956 0.0704235 1.15982 0.0701056C1.34596 0.0700049 2.38798 0.0697671 1.55735 0.0694669C1.49936 0.0694473 -0.378822 0.0689839 0.917028 0.0688184C1.13034 0.0687916 2.50164 0.0688197 1.79856 0.0684614C1.66225 0.0683929 1.35638 0.0685172 1.16538 0.0683369C0.87101 0.0680605 1.23829 0.0676944 0.627417 0.0673547C0.51927 0.0672955 -0.411488 0.0670433 0.294959 0.066841C0.405601 0.0668094 0.863413 0.0668696 0.914647 0.0667627C1.16041 0.0662548 0.854178 0.0657229 1.17093 0.0652071C1.28224 0.0650244 2.02234 0.0651178 2.22067 0.0649274C2.41894 0.0647369 2.60966 0.0643532 2.27145 0.0641539C1.9331 0.0639546 0.753544 0.0641723 0.659155 0.0638738C0.249216 0.0625756 0.941174 0.0612896 1.04239 0.0599934C1.05751 0.0598011 0.63543 0.0599605 0.627417 0.0596772C0.596016 0.0586327 0.20027 0.0568292 1.09714 0.0559228C1.81549 0.0551966 2.36237 0.0561105 2.65469 0.0555556C2.79414 0.0552878 1.42279 0.0549981 1.37961 0.0549334C0.941056 0.0543019 1.54854 0.053863 1.36216 0.0532946C1.32348 0.0531772 0.767657 0.0532923 0.740881 0.0531924C0.644489 0.0528512 0.892583 0.0524926 0.847204 0.0521665C0.825567 0.0520203 0.401049 0.0520472 0.433814 0.0519126C0.507322 0.0515905 0.685769 0.0513058 1.08365 0.0509918C1.11991 0.0509632 1.64799 0.0511561 1.66764 0.0509178C1.69792 0.0505322 2.09043 0.0500535 1.68509 0.0496098C1.56316 0.0494781 0.59293 0.049473 1.26297 0.04919C1.40292 0.0491306 2.56795 0.0492064 1.56131 0.0488767C1.39403 0.0488213 0.0362664 0.0482675 0.911473 0.0479958C1.14182 0.0479241 2.09517 0.0477411 1.94534 0.0475828C1.92144 0.0475613 1.40029 0.0476473 1.34946 0.0475161C1.17938 0.0470538 1.23498 0.0465693 1.07175 0.0460943C1.02713 0.0459674 0.487853 0.0461563 0.438575 0.0459673C0.302267 0.0454475 0.439577 0.0447984 0.608374 0.0442901C0.67163 0.0441026 1.11835 0.0442322 1.16697 0.0442186C1.95769 0.0439992 0.890394 0.0438696 0.828161 0.0437968C0.455513 0.0433441 0.956866 0.0429994 0.824193 0.0425822C0.788933 0.042467 0.280034 0.0425487 0.234657 0.0425257C-0.208712 0.042288 0.705204 0.0424651 0.805944 0.0423146C1.09119 0.0418931 1.05029 0.0414232 0.985265 0.0409968C0.960631 0.0408403 0.370551 0.0410163 0.355262 0.0408757C0.253581 0.040044 0.310045 0.0391793 0.635351 0.0383676C0.697674 0.0382148 1.15205 0.0383109 1.25583 0.0382791C1.98191 0.0380595 0.991532 0.0377378 0.897191 0.0376637C0.466432 0.0373271 0.868248 0.0371963 0.793249 0.0368991C0.419836 0.0354468 0.685964 0.0336536 0.850377 0.0322827C1.06198 0.0304963 1.49424 0.0291101 1.38199 0.0274066C1.37543 0.0272983 0.770963 0.0274075 0.757543 0.0273142C0.611826 0.0261092 0.848026 0.0249229 0.673437 0.0237155C0.660182 0.0236164 0.0871456 0.0237592 0.046608 0.0236002C-0.0405582 0.023274 -0.00941159 0.0228608 0.173561 0.022531C0.261721 0.0223701 0.753437 0.0225859 0.832128 0.022424C1.01648 0.022047 1.05729 0.0216428 0.965428 0.0212556C0.925086 0.0210908 0.339016 0.0213394 0.332252 0.0211252C0.274109 0.019666 0.173172 0.018233 0.932103 0.0167584C0.984226 0.0166573 2.17535 0.0165686 1.94693 0.0163537C1.61636 0.0163375 1.22751 0.0163384 0.874181 0.0163313C0.683849 0.0142071 1.09677 0.0121046 1.16062 0.00997447C1.16317 0.00988466 0.532056 0.0100399 0.533789 0.00986599C0.54312 0.00885962 0.368281 0.00788237 0.99558 0.00685297C1.05693 0.00675083 2.16722 0.00680323 1.9993 0.00650224C1.96866 0.00644916 1.82058 0.00599583 1.57956 0.00587862C1.54321 0.0058627 1.02497 0.00594541 1.00986 0.00579933C0.931165 0.00495043 1.04948 0.00406083 1.36612 0.0032134C1.41822 0.00307664 1.9701 0.00322229 2.01199 0.00312487C2.30496 0.00243387 1.88543 0.00168226 2.38651 0.00102198C2.7239 0.000580012 3.67787 0.000743642 4.61691 0.000508785C4.74939 0.000475567 4.77038 0.000201886 5.31673 0.000187733C6.69058 0.000151398 8.19493 0.000283961 9.65931 0.000229567C9.97473 0.000218075 9.635 -0.000148454 10.3972 6.85547e-05C10.4482 8.3715e-05 10.7012 0.000349451 10.9598 0.000414902C11.1386 0.000460471 11.6942 0.000378354 11.923 0.000471329C12.1517 0.000564297 11.6859 0.000666456 11.9548 0.000820595C12.227 0.000974665 12.8591 0.000906919 12.9339 0.00121461ZM4.15274 0.0854971C4.68354 0.0852538 2.73942 0.0852179 3.20456 0.085481C3.22935 0.0854938 4.1267 0.0855096 4.15274 0.0854971ZM4.4598 0.114932C5.31729 0.114614 4.05644 0.114397 3.39419 0.114621C2.73266 0.114845 4.19986 0.115029 4.4598 0.114932ZM5.08584 0.11823C5.76193 0.117859 3.0051 0.1178 3.5624 0.118198C3.5939 0.118221 5.04658 0.118252 5.08584 0.11823ZM4.8843 0.00159793C4.91012 0.00159457 4.93528 0.00139784 4.90969 0.00139314C4.29224 0.00128838 4.24236 0.00168177 4.8843 0.00159793ZM5.76742 0.121503C6.14034 0.121387 5.70984 0.121053 5.24612 0.121197C4.87306 0.121313 5.30352 0.121648 5.76742 0.121503ZM6.22762 0.0728063C6.25659 0.0728025 6.28268 0.0726614 6.11892 0.0726643C5.59148 0.0726738 5.74034 0.0728701 6.22762 0.0728063ZM5.79915 0.127066C5.90292 0.126244 8.1802 0.125745 7.92323 0.12664C7.87674 0.126802 7.19703 0.126291 6.99172 0.126497C6.61767 0.126875 8.04753 0.127125 7.28133 0.127511C7.14109 0.12758 5.78817 0.127112 5.79598 0.127064C5.79704 0.127065 5.7981 0.127065 5.79915 0.127066ZM6.48787 0.085357C6.51358 0.0853521 6.53796 0.0851569 6.51247 0.0851522C5.89527 0.0850465 5.8458 0.0854398 6.48787 0.085357ZM7.4297 0.0645762C7.48448 0.0645654 7.53572 0.0641123 7.48524 0.0640975C6.47595 0.0638611 6.36938 0.0647772 7.4297 0.0645762ZM7.91054 0.0985065C8.53144 0.0987195 8.60455 0.0989744 7.82484 0.0991442C7.86623 0.0989325 7.87233 0.0987194 7.91054 0.0985065Z" fill="#171717" fill-opacity="0.75"/>
<path d="M278.997 226.974C278.953 227.013 278.909 227.053 278.865 227.092C271.986 232.186 267.3 230.543 264.676 230.284C261.884 229.723 259.937 228.937 258.116 228.14C253.843 226.407 249.591 222.25 247.761 218.345C245.823 214.432 245.396 211.176 245.167 208.624C244.999 205.922 245.812 207.206 245.806 205.479C245.86 202.21 245.609 199.597 245.91 197.162C246.013 196.368 247.065 197.352 247.148 196.521C247.158 196.426 247.166 196.333 247.175 196.24C247.649 187.887 251.712 182.782 254.961 179.033C255.539 178.387 256.154 177.779 256.799 177.214C262.246 172.542 268.216 171.1 273.376 170.35C279.239 169.527 286.216 170.337 291.966 175.083C299.675 182.856 298.766 189.036 300.011 194.361C302.078 207.126 297.846 220.066 290.747 229.818C287.736 233.937 284.076 237.865 278.931 241.444C273.329 245.127 267.577 245.157 263.088 245.121C261.918 245.089 262.542 246.055 262.312 246.115C258.68 246.924 260.057 245.181 257.947 244.604C249.755 242.186 241.732 238.861 234.8 236.354C234.684 236.31 234.57 236.263 234.457 236.215C231.675 234.872 231.59 235.033 231.32 235.351C231.176 235.623 230.699 235.777 229.224 233.321C229.052 233.001 230.617 233.37 229.83 232.235C227.994 229.64 226.433 225.421 226.105 223.73C225.512 220.771 225.442 220.094 225.1 217.806C225.047 217.423 225.008 217.013 224.99 216.57C224.979 210.483 227.883 206.429 229.669 202.464C230.069 201.637 228.591 202.227 229.173 200.84C229.743 199.444 231.863 196.199 232.767 195.284C233.67 194.345 234.024 195.241 234.299 195.153C236.571 194.466 237.313 189.773 237.616 189.281C241.861 182.218 246.871 177.053 251.74 171.507C252.909 170.176 254.097 168.846 255.353 167.478C258.241 164.253 262.382 160.46 266.578 158.353C269.871 156.555 273.29 155.67 276.434 155.28C285.747 154.398 292.672 156.086 301.026 159.007C301.853 159.342 301.454 158.182 302.139 158.227C302.249 158.242 302.386 158.283 302.553 158.359C317.596 167.665 315.583 181.437 316.419 191.747C316.422 192.841 315.284 191.522 315.222 192.611C314.996 196.899 314.178 202.675 314.855 207.228C315.257 210.208 315.395 212.916 316.395 215.06C314.522 220.38 310.899 225.096 307.655 227.784C305.559 229.481 306.278 226.826 304.649 229.52C304.638 229.538 304.626 229.556 304.615 229.574C304.229 230.198 305.601 230.109 304.947 231.008C302.183 234.775 298.477 238.055 295.634 241.514C295.057 242.218 295.847 242.685 295.772 242.978C295.101 245.419 291.013 246.306 290.34 246.712C285.204 249.863 282.288 253.035 278.161 256.608C277.204 257.436 279.083 257.354 278.236 258.159C278.231 258.164 278.225 258.169 278.22 258.174C273.453 262.549 267.681 267.051 260.834 269.317C259.331 269.797 260.291 268.319 259.565 268.49C256.424 269.158 256.236 271.185 253.069 271.457C252.407 271.503 252.606 270.579 252.471 270.509C250.438 269.382 249.229 271.652 248.75 271.756C247.81 271.969 246.929 272.078 246.073 272.118C240.439 272.256 237.293 269.376 233 267.377C232.375 267.068 233.213 268.815 231.471 267.86C224.005 263.586 218.264 257.446 213.058 251.625C208.973 246.252 209.018 242.33 207.995 238.171C207.651 236.351 208.786 237.416 208.854 237.276C209.91 235.056 207.563 234.42 207.339 233.859C206.849 232.585 206.563 231.291 206.326 230.038C205.699 226.782 205.626 223.848 203.547 221.722C202.874 213.372 203.055 205.215 203.392 197.268C203.881 184.512 209.111 172.456 216.779 163.19C216.939 162.992 217.57 163.943 217.886 163.545C221.751 158.842 219.776 158.924 220.613 154.453C220.837 153.319 224.645 152.368 224.951 152.277C226.074 151.914 226.651 153.685 226.955 153.508C227.113 153.412 227.243 153.311 227.349 153.205C228.91 151.684 225.329 148.843 227.879 146.144C227.969 146.063 228.295 147.09 228.59 146.921C229.499 146.407 229.947 145.439 230.891 145.002C233.084 144.02 235.212 145.435 236.933 142.271C237.169 141.876 234.83 139.891 237.789 138.001C238.936 137.205 244.184 134.053 245.807 133.516C247.402 132.925 246.784 134.291 246.911 134.271C251.48 133.444 250.172 134.666 252.901 135.464C255.594 136.311 253.357 132.509 254.013 131.71C254.481 131.142 256.353 130.861 257.692 130.796C258.218 130.772 258.689 130.769 258.927 130.791C259.786 130.861 259.067 131.756 259.793 131.71C264.582 131.428 260.99 128.987 262.221 127.828C265.141 125.105 268.827 127.35 272.048 126.697C272.924 126.52 272.015 126.023 272.753 125.727C275.687 124.568 277.776 125.011 280.96 123.151C281.479 122.846 283.758 120.19 285.946 121.097C286.255 121.229 285.737 122.202 287.075 122.038C288.867 121.818 291.889 121.228 293.959 120.581C294.207 120.504 294.441 120.426 294.657 120.348C296.176 119.805 294.077 118.897 296.168 118.872C297.086 118.872 295.619 119.969 297.32 119.911C299.014 119.834 303.221 119.137 304.851 118.967C306.459 118.777 305.489 117.859 305.609 117.778C306.369 117.291 309.555 116.625 309.861 116.638C315.839 116.422 321.945 117.451 327.275 120.17C333.821 123.542 337.641 129.27 341.42 134.484C342.27 135.675 343 136.935 343.648 138.222C344.146 139.236 344.82 138.125 344.906 138.276C346.781 141.779 343.04 139.946 342.979 142.649C344.914 141.623 345.067 143.203 345.914 145.67C346.319 146.863 346.976 146.008 347.087 146.1C348.758 147.668 347.381 149.286 347.112 149.669C346.122 151.089 347.779 152.132 347.093 153.089C346.407 154.02 344.92 152.364 345.302 154.749C346.169 155.311 347.906 153.212 348.504 155.014C349.301 157.429 349.787 160.675 350.066 164.081C350.603 170.323 350.176 177.113 350.091 180.756C349.958 186.4 349.995 188.218 349.557 191.492C348.674 197.38 350.311 195.298 350.651 199.085C350.928 202.895 347.447 200.637 346.6 201.074C345.749 201.497 346.493 202.14 345.974 202.725C345.457 203.297 345.104 201.872 344.743 203.313C344.399 204.749 345.106 208.988 345.798 209.681C347.262 211.117 349.447 209.69 348.076 213.339C348.045 213.421 348.013 213.505 347.978 213.591C347.875 213.836 347.146 212.778 346.798 213.717C343.798 220.789 339.488 226.491 335.048 231.931C334.425 232.667 334.027 231.344 333.653 231.766C329.76 236.096 332.441 235.445 332.219 239.223C330.453 237.061 328.096 237.526 325.483 241.034C325.408 241.134 325.339 241.23 325.276 241.323C324.027 243.145 325.1 243.55 324.712 245.324C324.591 245.885 322.78 246.829 322.991 247.437C323.658 249.453 326.383 249.41 322.759 252.393C322.598 252.52 322.271 251.385 321.769 251.871C318.512 254.975 319.553 256.641 316.38 260.351C313.889 263.261 308.304 267.244 305.048 270.086C303.931 268.852 302.697 269.287 301.838 270.366C301.13 271.256 300.66 272.577 300.718 273.788C298.543 275.617 296.135 277.716 293.533 278.985C292.641 279.418 292.74 278.327 292.584 278.311C290.274 277.968 290.131 280.273 289.563 280.631C287.12 282.121 284.621 282.862 282.23 283.488C278.833 284.368 275.554 285.029 272.166 286.715C271.962 286.816 272.069 288.957 270.09 287.817C269.965 287.735 271.78 286.36 268.884 286.913C265.98 287.469 260.353 287.407 256.472 288.99C255.738 289.292 254.203 290.627 252.51 290.672C252.036 290.685 251.562 290.599 251.085 290.365C250.796 290.218 251.014 289.583 250.591 289.295C249.236 288.375 248.753 290.571 247.127 288.888C245.476 287.184 242.665 286.093 238.682 286.903C238.562 286.924 237.401 288.497 236.108 288.237C234.066 287.841 231.339 286.714 229.335 285.986C228.369 285.638 228.621 286.846 228.447 286.802C227.129 286.433 225.916 285.989 224.772 285.496C220.042 283.42 216.512 280.694 211.651 277.231C210.554 276.454 206.476 275.456 204.998 272.979C203.417 270.266 208.759 267.929 202.996 264.983C200.765 263.813 193.789 266.532 192.69 260.699C192.649 260.664 192.607 260.63 192.565 260.595C185.472 254.596 181.985 246.666 177.328 238.802C177.118 238.451 174.923 237.911 174.587 236.953C174.099 235.551 174.637 234.493 174.36 233.485C173.229 229.249 171.635 225.49 170.899 221.317C170.84 220.992 170.835 220.757 170.86 220.567C170.858 220.56 170.855 220.538 170.854 220.53C171.018 219.766 171.567 219.752 171.495 218.25C171.445 216.406 170.267 215.026 171.227 212.498C171.989 210.582 174.76 209.425 175.839 207.248C173.673 206.384 174.288 204.721 175.017 201.584C175.154 200.987 174.148 201.242 174.175 200.94C174.289 199.67 175.357 198.99 175.444 197.77C175.464 197.481 174.753 197.117 174.732 196.856C174.67 196.138 174.924 195.466 175.338 194.835C175.353 194.805 175.402 194.718 175.419 194.689C176.377 193.422 177.958 192.567 178.337 192.356C180.42 191.223 180.033 189.88 181.263 188.789C182.49 187.708 181.741 190.008 182.955 188.601C185.458 185.707 187.967 181.54 190.079 178.332C190.918 177.049 189.456 177.351 189.555 177.154C191.047 174.342 193.748 172.263 192.928 169.634C198.727 170.783 193.525 167.739 196.928 164.537C197.197 164.288 199.618 165.325 199.186 166.682C198.756 168.037 196.938 169.339 196.4 171.253C196.268 171.711 196.902 175.196 196.836 175.569C196.304 178.504 192.838 176.728 192.58 176.734C189.751 176.876 190.244 180.949 189.953 181.739C188.6 185.384 186.421 187.801 185.244 190.8C184.475 192.755 186.528 194.266 185.622 195.591C184.609 197.076 183.498 198.032 182.473 198.873L182.645 198.561C180.748 200.329 179.064 201.741 179.69 205.457C179.925 206.637 182.79 206.778 179.582 209.182C179.38 209.301 176.673 211.165 177.662 212.764C177.784 212.959 178.578 213.113 178.607 213.326C178.801 214.736 178.081 215.477 178.407 216.947C178.581 217.69 178.845 218.532 179.086 219.519L178.979 218.873C179.328 219.993 179.595 221.093 179.692 222.179C179.81 223.517 178.729 225.487 178.529 226.195C177.933 228.202 180.139 229.538 179.239 230.948C178.357 232.418 175.774 230.878 175.948 234.033C177.971 233.453 180.09 232.977 182.137 232.426C184.095 238.187 186.307 243.835 190.061 248.769C190.526 249.373 190.967 248.076 191.488 248.696C193.524 251.098 194.855 253.655 197.286 255.87C197.471 256.037 197.663 256.203 197.864 256.368C200.04 258.146 203.163 259.296 205.652 260.917C205.541 263.941 209.648 266.051 212.218 268.062C213.121 268.773 212.697 269.26 213.264 269.892C215.429 272.246 215.373 269.659 216.259 269.836C220.032 270.519 217.793 274.815 221.645 276.817C221.864 276.942 225.474 275.935 225.852 275.931C228.388 276.007 225.809 276.909 227.044 277.705C227.369 277.91 227.681 278.113 227.974 278.304C229.761 279.454 231.263 280.452 233.859 280.562C234.779 280.608 236.967 279.523 238.28 280.959C238.459 281.149 238.222 281.971 238.385 282.045C241.414 283.249 241.695 280.504 243.364 279.624C245 278.73 247.997 280.291 248.71 280.737C250.473 281.918 247.537 281.457 247.474 281.586C246.602 283.27 248.766 282.812 250.535 282.716C250.749 283.663 251.216 284.196 251.673 284.376C252.441 284.683 253.134 283.974 252.369 282.603C252.296 282.475 251.867 282.543 251.439 282.617C251.069 282.682 250.702 282.75 250.535 282.716C250.744 282.24 250.994 281.827 251.287 281.477C252.662 279.821 254.89 279.616 257.684 281.148C259.269 282.009 258.173 283.553 262.366 282.29C264.265 281.705 263.173 280.086 264.768 279.267C268.39 277.397 273.741 277.889 277.535 276.559C278.9 276.078 277.285 275.509 278.195 275.148C278.664 274.961 279.128 274.81 279.581 274.683C281.485 274.144 283.327 273.974 284.889 272.98C285.059 272.868 284.212 272.113 284.824 271.832C288.651 270.053 292.003 267.89 296.083 264.261C296.697 263.711 297.333 263.125 297.956 262.53C300.281 260.326 303.938 255.88 306.298 253.575C310.409 249.602 316.232 245.36 318.926 241.388C320.665 238.818 319.413 238.716 319.624 237.274C319.629 237.233 319.636 237.191 319.643 237.15C320.272 234.245 324.868 231.946 325.534 231.647C325.562 231.633 324.129 234.031 325.425 233.142C326.83 233.078 325.52 231.675 325.534 231.647C325.99 231.448 329.361 227.075 329.789 226.068C330.035 225.515 329.041 225.242 329.182 224.966C331.917 219.62 335.225 213.711 336.203 210.517C336.461 209.59 336.732 208.553 336.998 207.527C337.041 207.408 338.079 207.794 338.165 207.512C339.384 203.547 338.392 200.667 337.95 197.197C337.496 193.707 337.906 191.068 339.867 189.088C339.751 186.458 340.62 182.723 341.087 180.524C341.557 178.322 339.412 178.082 339.367 177.891C338.091 173.015 338.509 169.832 338.405 165.328C338.378 164.379 338.331 163.396 338.24 162.335C338.003 159.339 336.897 153.586 336.051 150.738C335.396 148.485 335.546 147.02 334.66 145.28C334.541 145.053 333.721 145.59 333.662 145.528C331.949 144.034 334.427 144.154 334.669 143.605C335.419 141.916 335.722 140.619 334.468 139.34C334.242 139.091 333.987 138.836 333.699 138.574C333.118 138.027 329.192 138.308 328.32 137.556C327.168 136.552 328.439 136.192 327.201 135.255C327.097 135.182 326.573 135.683 325.993 135.051C324.635 133.592 323.331 132.464 322.076 131.78C320.365 130.883 318.387 130.252 316.211 129.985C315.614 129.912 316.213 131.167 315.376 131.093C311.428 130.753 306.452 131.063 301.743 131.335C300.582 131.399 301.149 130.469 300.857 130.274C299.032 129.104 297.246 131.688 296.908 131.812C296.809 131.847 296.709 131.882 296.61 131.917C287.945 134.962 280.364 135.171 271.513 138.9C271.015 139.109 267.912 142.521 265.624 141.241C265.471 141.155 263.133 139.835 262.173 141.652C262.124 141.753 263.215 142.261 262.127 142.751C262.011 142.804 261.871 142.857 261.702 142.909C259.925 143.459 257.513 145.168 254.848 145.156C254.021 145.145 251.419 144.147 250.177 146.651C250.032 146.837 249.025 151.597 246.733 150.166C246.36 149.934 245.008 147.605 243.638 150.263C243.395 150.772 244.458 150.706 243.649 151.779C242.44 153.408 239.993 154.601 239.175 157.144C239.016 157.601 239.184 160.033 237.265 160.227C236.96 160.263 236.554 159.369 235.995 159.896C235.942 159.946 235.889 159.998 235.836 160.049C232.927 162.981 230.867 166.629 228.2 169.585C227.237 170.666 226.444 169.268 225.31 170.344C224.174 171.411 222.32 173.871 222.184 175.555C222.054 177.223 224.813 176.791 223.986 178.854C221.443 185.375 219.114 191.453 218.418 197.905C218.138 200.863 217.901 203.756 217.823 206.598C217.786 208.156 218.595 206.879 218.62 209.145C218.677 214.141 219.399 220.96 220.656 226.537C221.68 231.147 222.431 235.321 222.57 238.066C222.887 243.289 219.808 237.654 220.582 241.484C220.755 242.265 221.493 242.766 222.136 242.781C222.796 242.823 223.233 242.26 223.191 241.843C223.317 241.876 223.409 241.91 223.46 241.949C227.839 245.277 229.453 248.594 232.975 251.163C233.693 251.676 233.73 250.307 234.325 250.741C236.346 252.195 238.063 254.017 239.804 254.893C240.576 255.271 240.817 254.474 241.415 254.837C242.851 255.666 243.717 256.23 244.494 257.035C244.595 257.109 243.915 258.1 244.684 258.162C244.805 258.168 244.925 258.177 245.044 258.186C247.744 258.155 250.836 258.226 253.07 256.778C253.816 256.283 253.175 254.572 255.249 255.105C255.679 255.197 256.211 257.474 257.292 254.766C257.534 254.322 259.179 250.318 261.739 250.456C262.408 250.516 264.637 251.126 265.435 250.106C265.536 249.965 264.386 249.609 265.117 248.888C265.988 248.033 266.91 247.17 267.857 246.283C269.84 244.435 271.883 242.614 273.744 240.68C274.492 239.9 272.606 240.191 273.739 239.055C276.854 235.928 281.048 232.44 284.291 229.75C285.487 228.759 285.318 230.12 285.464 230.109C287.834 229.927 287.144 227.71 287.477 227.206C289.499 224.181 292.007 222.815 293.795 220.414C293.85 220.34 293.905 220.266 293.958 220.191C294.472 219.465 293.316 219.325 293.361 219.135C293.834 217.206 294.351 219.358 295.219 218.585C297.625 216.452 299.471 213.565 300.252 211.464C300.525 210.715 299.144 211.063 299.367 210.449C299.792 209.175 299.858 208.485 299.857 207.725C299.731 203.029 299.748 198.424 299.848 194.13C299.878 192.888 300.806 193.598 300.986 193.325C302.249 191.416 300.092 189.011 299.843 188.479C298.713 185.976 299.333 184.905 298.795 182.801C298.131 180.283 297.317 177.786 296.47 176.151C296.055 175.334 295.65 174.771 295.414 174.514C295.166 174.247 295.166 174.272 295.147 174.235C291.378 172.568 284.926 171.305 280.84 171.354C277.859 171.34 275.447 171.805 273.955 172.443C271.505 173.579 270.592 174.135 268.75 175.691C267.04 177.165 265.255 179.045 263.489 181.11C260.878 184.174 258.292 187.334 255.715 190.745C255.163 191.475 256.646 191.461 256.184 192.098C250.416 200.02 243.506 208.719 241.702 215.016C241.607 215.415 242.81 215.228 242.736 215.772C242.66 216.254 242.84 216.508 242.687 215.325C242.833 216.627 242.959 217.854 243.015 218.838C243.077 219.771 241.851 218.802 241.942 219.75C242.048 220.835 242.313 221.801 242.489 222.191C242.569 222.384 242.616 222.414 242.475 222.238C242.339 222.07 241.963 221.676 241.339 221.326C241.232 221.264 241.152 221.209 241.098 221.157C241.506 221.176 241.336 220.722 241.395 220.441C241.421 220.402 241.439 220.363 241.445 220.321C241.536 220.199 241.747 220.172 242.266 220.382C252.878 225.025 266.219 228.074 268.844 227.561C268.91 227.579 269.231 228.039 269.602 228.408C270.13 228.71 270.823 228.821 271.207 228.196C270.873 227.644 270.381 227.081 269.97 226.538C278.043 218.956 283.872 207.617 282.17 197.441C281.669 194.03 280.937 190.682 280.299 189.415C280.242 189.295 279.996 189.481 279.732 189.628C279.472 189.785 279.181 189.875 279.129 189.779C279.052 189.636 279.147 189.876 279.602 190.258C279.773 190.35 278.579 189.76 276.649 189.972C274.346 190.23 272.391 190.634 271.011 190.954C270.676 191.04 269.572 189.135 268.876 190.134C268.835 190.203 268.651 190.45 268.511 190.754C267.896 191.668 267.355 192.745 267.374 193.217C267.389 193.321 268.433 193.552 268.051 194.172C267.654 194.826 267.41 195.362 267.3 195.676C267.187 196 267.191 196.064 267.164 196.071C267.069 201.162 266.81 205.445 267.038 207.325C267.07 207.759 265.918 207.649 265.946 207.984C266 208.511 266.103 208.747 266.121 208.803C266.147 208.859 266.104 208.844 266.335 208.942C267.321 209.361 268.277 209.669 268.719 209.785C268.924 209.849 268.997 209.839 268.598 209.893C268.248 209.955 267.062 210.127 265.792 211.255C266.184 211.016 266.589 210.77 267.004 210.526C269.701 208.844 270.176 210.913 272.762 210.789C273.144 210.767 274.569 209.13 275.453 209.678C277.748 211.036 279.256 213.791 281.77 215.154C282.05 215.288 282.618 214.564 283.18 213.929C283.454 213.628 283.801 213.215 284.005 213.167C284.206 213.129 284.087 213.807 283.984 214.58C283.905 214.913 282.556 217.396 282.483 218.206C282.433 218.787 283.807 218.839 283.49 219.868C283.156 220.906 281.789 221.082 280.994 222.605C280.149 224.137 281.633 224.512 278.997 226.974ZM342.908 170.538C343.768 168.4 340.018 168.418 341.079 170.537C341.135 170.639 342.865 170.647 342.908 170.538ZM184.135 245.105C184.078 248.223 187.128 248.341 187.196 246.149C187.317 244.001 184.178 244.185 184.135 245.105ZM173.984 220.025C173.972 220.067 173.961 220.109 173.951 220.15L173.914 219.93C173.456 223.201 178.584 222.572 176.86 219.47C176.835 219.425 176.648 219.41 176.379 219.416L176.45 219.843C175.628 219.807 174.024 219.885 173.984 220.025ZM268.291 215.073C268.296 215.099 268.579 215.155 268.789 215.163C269.008 215.173 269.109 215.147 269.105 215.123C269.084 214.824 269 214.608 268.97 214.454C268.935 214.301 268.902 214.224 268.801 214.218C268.619 214.211 268.135 214.431 268.291 215.073ZM180.283 194.406C179.528 194.723 178.922 196.143 179.044 196.839L179.094 196.75C179.163 197.072 179.369 197.239 179.749 197.085L179.678 197.215C179.713 197.204 179.751 197.19 179.79 197.173C180.911 196.682 181.687 193.812 180.283 194.406ZM272.665 128.417C272.618 128.372 271.436 128.682 271.553 128.976C271.931 129.92 273.465 129.152 272.665 128.417ZM206.262 153.926C202.193 159.763 196.166 160.974 200.828 154.763C201.672 153.639 200.337 158.058 201.647 156.781C204.04 154.442 202.932 151.12 205.993 149.141C206.55 148.785 206.502 153.599 206.261 153.94C206.261 153.935 206.262 153.931 206.262 153.926ZM347.294 168.999C347.342 168.952 347.245 167.271 347.191 167.231C345.931 166.435 346.124 169.802 347.294 168.999ZM215.22 167.668C215.065 167.682 213.037 171.149 213.083 171.322C213.82 174.008 217.812 167.167 215.22 167.668ZM304.943 270.075C304.73 270.976 304.323 271.799 303.782 272.427C303.017 273.31 301.956 273.85 300.725 273.783C301.54 273.116 302.329 272.421 303.112 271.717C303.716 271.174 304.332 270.616 304.943 270.075Z" fill="#F1A10E" fill-opacity="0.41"/>
</svg>
