<svg width="186" height="79" viewBox="0 0 186 79" fill="none" xmlns="http://www.w3.org/2000/svg">
<path d="M92.6759 55.9864C90.0103 56.3974 87.4021 57.135 82.5407 56.2593C80.6423 55.919 78.4417 54.3103 77.5491 52.7955C76.5851 51.2762 76.3525 50.1017 76.1863 49.1674C75.9138 47.3123 76.0547 46.1124 76.1773 44.9973C76.4626 42.8126 76.9345 41.1294 77.382 39.6039C77.8159 38.1769 77.9654 38.6183 78.221 38.1338C78.2879 37.9818 78.3656 37.7775 78.4711 37.4898C79.3936 34.9441 80.8793 32.7835 82.4466 31.257C83.6398 30.0855 84.8062 29.5509 85.7745 29.2039C87.0301 28.809 85.7186 29.8383 86.9458 29.4825C92.3073 28.3954 95.6371 28.9664 99.5497 29.361C100.196 29.444 100.836 29.5546 101.482 29.6991C110.111 31.3432 115.779 39.1157 118.646 44.919C119.215 45.898 119.579 47.3506 119.413 48.6491C119.264 49.9541 118.754 50.9493 118.269 51.6714C117.266 53.1051 116.282 53.8109 115.366 54.4568C103.835 62.2645 89.4563 63.3566 76.5338 60.4039C73.1886 59.5476 69.8265 58.6862 65.9171 56.1165C61.2309 52.7516 59.8151 47.0823 59.339 42.9376C59.2321 42.016 58.8035 42.6046 58.749 42.4311C57.9816 39.6804 59.0113 40.5627 59.1287 38.8162C59.3238 36.4712 59.6383 34.1202 59.9004 31.8577C60.2833 28.0446 63.2258 25.7618 65.3712 24.545C67.6489 23.2595 69.8701 22.5074 71.965 21.8607C74.6544 21.0879 71.7115 20.8284 74.5806 20.7093C74.78 20.7027 74.1939 21.351 74.9553 21.2411C76.6604 20.9831 79.8164 20.3771 81.1088 20.2503C83.6047 19.9974 84.0252 19.9497 86.3666 19.7155C89.584 19.408 93.3977 19.3986 96.8162 19.1098C97.545 19.0468 96.5505 18.5742 97.7136 18.4279C98.8796 18.2792 101.97 18.1983 103.013 18.2878C104.057 18.375 103.628 18.8001 103.815 18.8877C104.45 19.194 105.423 19.1684 106.378 19.0324C107.867 18.8286 109.365 18.5743 109.664 18.5873C118.945 19.2037 125.397 23.4093 132.362 27.0454C132.919 27.3458 133.479 27.6489 134.043 27.9546C139.37 30.632 143.901 36.2977 145.046 41.9127C145.151 42.3537 145.243 42.7925 145.322 43.2232C145.905 48.2462 143.46 50.9692 141.689 53.5049C139.75 55.9935 137.618 58.1177 135.313 60.3022C134.792 60.79 135.824 60.6731 135.185 61.269C134.104 62.2704 133.002 63.2347 131.885 64.1694C125.129 69.8173 116.7 70.9811 109.269 71.7611C108.368 71.8459 109.448 71.1504 108.542 71.2024C107.107 71.2862 105.458 71.3397 103.753 71.418C98.8417 71.6661 93.47 71.8338 91.0719 73.6314C87.2874 73.6692 82.6989 73.5053 79.3472 72.8221C77.1935 72.3768 79.3432 71.9439 76.6687 71.9899C76.0678 71.9948 76.8005 72.5738 75.9007 72.54C72.0788 72.3878 67.9666 71.6442 64.1586 71.0392C63.384 70.9154 63.4912 71.4113 63.2478 71.4383C61.5588 71.6225 59.2925 70.2111 58.276 69.4873C58.0817 69.3535 57.9314 69.2503 57.8316 69.1957C53.1256 66.5567 49.8597 64.3882 46.4601 60.8209C45.689 59.9779 46.1474 61.3969 45.3883 60.5861C43.9772 59.0525 42.6999 57.3793 41.5676 55.6439C39.27 52.1225 38.5081 48.0927 38.4269 44.4919C38.4115 43.233 39.006 44.3538 39.0295 43.7579C39.1805 41.1754 38.2213 40.5777 38.6049 38.1163C38.6916 37.6025 39.1168 37.9325 39.1739 37.8426C39.6805 37.0594 39.6072 36.2979 39.453 35.7002C39.3447 35.1424 39.2285 34.6833 39.2665 34.4801C40.8986 28.4213 44.9551 27.661 48.3296 24.8292C48.7598 24.5002 47.4309 24.7379 48.6646 23.8426C49.683 23.1079 50.7052 22.3976 51.7211 21.6873C59.3134 16.4611 68.0031 12.9947 76.2878 10.3233C77.7618 9.85616 76.8739 10.639 76.9835 10.6548C78.7473 10.8876 79.3363 9.51058 79.7995 9.3038C81.7379 8.45619 83.7296 7.99024 85.4906 7.43705C87.0952 6.9326 88.5316 6.44332 89.688 5.56418C99.1515 3.8285 108.481 4.4188 117.553 5.10348C125.564 5.78952 132.803 8.94826 139.346 12.7296C139.53 12.8356 138.949 13.1562 139.317 13.3654C143.712 15.9292 143.214 14.7525 146.682 15.4518C147.557 15.6328 149.194 17.9857 149.343 18.1777C149.897 18.8795 148.751 19.1611 148.96 19.3546C150.693 20.9312 151.702 18.4217 154.382 19.9645C154.464 20.0166 153.866 20.2412 154.066 20.4131C154.557 20.8372 155.157 21.0707 155.679 21.4169C155.821 21.5105 155.956 21.6111 156.08 21.7242C157.474 23.0215 157.329 24.3866 160.027 25.4122C160.367 25.5843 160.871 23.8867 163.122 25.9964C163.514 26.3796 164.521 27.399 165.408 28.5862C166.696 30.2633 167.347 32.2762 167.534 33.0971C167.852 34.5979 167.094 33.7067 167.107 33.8224C167.314 37.8004 166.678 36.3718 165.946 38.3008C165.106 40.1527 167.336 39.5585 167.611 40.3377C167.901 41.1238 167.233 43.8774 166.964 44.5189C166.716 45.1622 166.486 44.3096 166.324 44.8839C165.175 48.6696 167.232 46.7404 167.405 48.098C167.738 51.3479 165.514 53.3454 164.589 55.9615C164.334 56.6721 164.878 56.1895 164.72 56.8465C164.417 58.0689 164.023 59.0065 163.629 59.9788C163.145 61.1612 162.555 62.3035 161.66 63.8212C161.462 64.2826 160.165 67.0111 158.271 67.3201C158.013 67.3604 158.335 66.6537 157.299 67.2115C155.756 68.0581 152.917 69.2623 151.234 70.0131C149.998 70.5734 151.696 70.7059 150.003 71.0697C149.248 71.2223 150.454 70.3916 149.058 70.7004C147.676 71.0209 144.219 71.9856 142.889 72.3047C141.574 72.6344 142.415 72.9735 142.317 73.0337C141.713 73.3924 139.196 74.2025 138.971 74.2438C138.678 74.3069 138.384 74.3689 138.087 74.4299C126.872 76.6468 116.358 76.6542 105.376 77.6157C104.49 77.6886 105.112 78.2089 104.977 78.2258C101.949 78.6239 104.266 77.0221 102.123 76.6381C102.485 77.7468 101.224 77.6102 99.0901 77.8252C98.0611 77.9289 98.6412 78.3409 98.5488 78.3895C97.0433 79.1144 95.9441 78.2958 95.6638 78.1305C94.633 77.5222 93.5566 78.3159 92.8489 77.9051C92.1494 77.4968 93.7127 76.8219 91.6673 76.884C91.1 77.3014 92.6554 78.3167 91.0966 78.5259C90.5198 78.604 89.8676 78.6679 89.2008 78.7179C83.0799 79.2126 73.7068 78.3669 69.4495 77.927C64.7221 77.4825 63.1934 77.3389 60.4708 76.8331C57.4556 76.2423 56.9433 76.369 56.259 76.5514C55.8284 76.6612 55.3387 76.7845 54.1363 76.7112C51.004 76.5045 52.8485 74.8821 52.4865 74.3961C52.1337 73.9086 51.597 74.2384 51.1031 73.9092C50.618 73.5812 51.816 73.5334 50.5921 73.202C49.3707 72.8793 45.8334 72.8516 45.2964 73.1628C44.1611 73.8342 45.4669 75.1459 42.2477 74.014C42.0641 73.9476 42.7969 73.609 42.089 73.3799C36.4456 71.568 30.5675 69.752 25.1692 67.3513C24.4333 67.0215 25.3057 66.7504 24.8811 66.5523C20.4586 64.4318 21.747 65.9488 18.8357 65.8525C19.7013 65.0533 19.2719 64.0633 17.564 62.9345C17.0585 62.5955 16.4584 62.2258 15.763 61.782C14.0094 60.5893 13.961 61.2633 12.5757 60.6391C12.1474 60.4465 11.3487 59.0146 10.9569 58.9836C9.65108 58.8466 9.69384 60.8121 7.63657 57.2464C7.55467 57.089 8.294 57.265 7.98228 56.7445C6.10382 53.3572 5.04383 53.3698 3.28201 49.5299C2.41552 47.5679 1.59622 44.4697 0.952147 41.5805C0.563247 39.9125 0.403883 38.2559 0.379431 36.8766C1.89637 36.8243 1.59845 33.5326 1.00943 31.8C1.64347 29.3497 2.79513 26.8651 4.21483 24.9651C4.70319 24.3144 4.79027 25.0138 4.88764 24.955C6.37569 24.1209 6.16739 22.6993 6.46474 22.2555C9.20473 18.326 12.5303 16.0212 15.3435 12.8317C15.9022 12.2065 16.4976 11.5932 17.1276 10.9784C17.2669 10.8506 16.9112 9.7075 18.6365 9.58568C18.7406 9.59295 17.4501 10.9342 19.6893 9.66005C21.966 8.36814 26.599 7.2992 29.8023 5.94307C30.571 5.60237 32.4343 4.21181 34.2532 4.52168C34.4933 4.56474 34.3213 4.92475 34.6763 5.02497C35.8333 5.34069 36.1631 4.13924 37.554 4.81761C38.959 5.49423 41.5554 5.70642 44.8617 4.50422C44.9764 4.46627 45.6138 3.47119 46.7112 3.31201C47.7765 3.15813 49.1467 3.02704 50.4778 2.88689C51.242 2.80722 52.0267 2.72685 52.6846 2.6424C53.5482 2.53261 52.9296 2.06019 53.0786 2.03177C58.8703 1.04928 63.0709 1.26946 69.3268 1.17282C70.4674 1.15669 73.7376 0.279892 75.9761 0.79952C78.4322 1.37084 76.0094 4.10451 81.5698 3.3293C83.8083 3.02342 86.6136 -0.425019 90.695 1.27938C96.3565 0.890063 101.722 1.23821 107.216 1.16277C109.358 1.13229 111.513 1.0677 113.72 0.919911C114.089 0.896313 115.209 -0.0338296 116.057 0.000956062C117.297 0.0536788 117.965 0.521666 118.846 0.588193C122.529 0.886843 125.966 0.778068 129.503 1.43852C130.842 1.70252 130.289 2.05436 131.856 2.41769C133.409 2.80065 134.626 2.49853 136.628 3.46038C136.828 3.55778 137.028 3.67541 137.218 3.80433C138.532 4.52391 139.815 5.74788 141.64 6.26707C141.983 5.10145 143.443 5.4232 146.129 5.72578C146.645 5.78454 146.207 5.24561 146.455 5.25192C147.478 5.27205 148.281 5.83391 149.259 5.8441C149.495 5.84701 149.611 5.44863 149.812 5.42954C151.538 5.24591 153.824 6.89772 154.203 7.19079C155.674 8.29365 156.613 8.03996 157.79 8.7013C158.96 9.36737 157 9.00258 158.399 9.65079C160.65 10.6958 163.423 11.8005 165.931 12.9041L165.811 12.8338C166.442 13.3158 167.037 13.8119 167.583 14.3007C168.528 15.1574 168.255 14.1667 168.398 14.2794C170.493 15.9975 171.83 18.4206 173.634 18.8472C172.628 22.1072 174.916 19.8978 176.814 23.3248C176.96 23.5968 176.107 24.7049 175.258 23.9091C174.41 23.1162 173.669 21.479 172.414 20.4616C172.116 20.2049 169.771 19.4354 169.526 19.294C167.594 18.0765 168.785 16.475 168.775 16.2975C168.652 14.5647 166.051 13.8209 165.278 13.5329L165.578 13.7097C165.524 13.7004 165.476 13.6904 165.436 13.6791C162.359 12.8099 159.951 11.5791 157.353 10.9949C155.65 10.6162 155.079 11.823 153.817 11.3757C149.623 9.93776 148.526 7.76068 144.021 8.34966C143.045 8.4818 143.647 10.0817 140.67 8.27931C140.487 8.16419 138.294 6.64871 136.69 6.94312C136.576 6.96432 136.498 7.10387 136.407 7.21756C136.344 7.20163 136.158 7.15004 136.097 7.12853C136.022 7.21093 135.942 7.27752 135.842 7.26046C134.327 6.99664 133.516 6.38963 131.942 6.15861C130.374 5.93167 128.474 5.82159 126.66 5.43931C125.577 5.20579 124.201 4.28103 123.673 4.0429C122.168 3.35108 120.432 4.15645 119.506 3.44172C118.547 2.72467 120.536 1.7864 117.945 1.2436C117.801 2.33178 117.551 3.44518 117.361 4.53841C113.998 4.40237 110.665 4.26123 107.262 4.21689C104.96 4.1879 102.653 4.16611 100.333 4.20881C99.6145 4.22304 100.357 4.80319 99.5832 4.8336C96.3503 4.95901 93.5145 4.56753 90.1697 4.7795C87.5794 4.94592 84.7518 5.61494 82.0552 5.83187C80.3767 4.61649 76.375 5.14451 73.4701 5.141C72.4504 5.13979 72.5049 4.80385 71.7779 4.72406C69.0289 4.43713 70.3588 5.48799 69.6216 5.69465C66.4671 6.59224 66.0504 4.10149 62.2816 4.41564C62.0744 4.42944 59.7459 5.94345 59.4244 6.05739C57.363 6.77886 59.0339 5.6232 57.7023 5.64425C55.3201 5.69297 53.6068 5.55936 50.9782 6.2999C50.9298 6.31342 50.881 6.32719 50.832 6.34121C50.0019 6.57941 48.1624 7.69623 46.4536 7.32139C46.2295 7.27226 46.2757 6.81843 46.1023 6.82032C42.9557 6.90111 43.123 8.28724 41.4651 9.06205C39.8218 9.83348 36.9893 9.43818 36.4014 9.28815C34.8356 8.8979 37.4089 8.75909 37.4812 8.67784C38.2235 7.67698 36.2912 8.21149 34.8048 8.47956C34.2804 7.20094 32.2219 7.77757 33.2592 8.77187C33.3853 8.87571 34.4809 8.48762 34.8048 8.47956C33.7921 10.0764 31.647 10.753 28.8984 10.2835C27.6092 10.0896 28.4276 9.03398 25.1318 10.4887C23.6699 11.1867 24.5919 11.8175 23.4577 12.6013C21.8482 13.7454 19.9004 14.645 18.3659 15.9179C17.2414 16.8783 16.1562 17.7999 15.2759 18.7332C14.4129 19.6507 15.6447 19.1569 15.0709 19.7952C13.5648 21.483 11.9262 22.6228 10.6849 24.4009C10.5756 24.5608 11.2854 24.5446 10.8712 25.0542C7.80445 28.9152 5.59513 32.3132 5.76572 36.704C5.80566 37.5818 6.02306 38.7434 6.44211 39.9499C7.13726 42.0323 7.94048 44.1757 8.46267 45.6695C9.92726 50.0947 11.9469 55.4231 14.7438 57.699C16.5283 59.1427 16.5082 58.3336 17.4464 58.5685C18.0452 58.6901 18.6396 59.0156 19.2373 59.391C20.808 60.3288 22.3018 61.6251 22.5868 61.887C22.5918 61.902 20.4259 61.1048 21.4495 61.8468C21.879 62.6556 22.5655 61.8804 22.5868 61.887C22.8453 62.1573 27.1095 63.9648 28.0275 64.1639C28.5179 64.2819 28.4255 63.7087 28.6762 63.7781C34.6555 65.4388 40.6485 67.0238 46.736 68.6661C46.8418 68.7009 46.5517 69.217 46.8031 69.2919C50.3268 70.3476 52.7729 70.1143 55.8049 70.233C56.3197 70.2517 56.8173 70.2815 57.297 70.3241C59.605 70.5273 61.4117 71.0136 62.77 71.9991C65.0231 72.1674 68.2011 72.8946 70.0635 73.2781C71.9207 73.6648 72.2473 72.5658 72.4107 72.5548C77.574 72.1102 80.527 72.7709 85.9345 72.8322C86.7771 72.8399 87.8709 72.8191 89.0879 72.776C91.5794 72.6892 94.5241 72.5008 96.3963 72.3489C98.5952 72.1692 99.9329 72.3695 101.954 72.104C102.227 72.0681 101.925 71.5905 102.008 71.5674C104.236 70.8632 103.214 72.1196 103.694 72.3097C105.429 72.9961 106.511 73.3551 109.387 72.7924C110.054 72.6634 111.871 70.7954 113.07 70.5971C114.634 70.3418 114.091 71.0104 115.727 70.7187C115.866 70.6939 115.804 70.3162 116.819 70.2411C121.532 69.8854 126.676 69.5276 131.445 68.7285C132.098 68.6197 131.166 68.1553 132.104 67.9869C133.582 67.7189 135.094 67.4325 136.596 67.1293C139.626 66.5182 142.647 65.8892 145.354 65.2914C146.358 65.0681 145.864 65.6584 146.115 65.7153C147.676 66.0515 149.12 64.3527 149.375 64.2243C153.892 62.1252 156.887 60.344 157.79 57.9604C158.58 55.8313 159.26 53.589 159.691 51.1195C159.785 50.6767 159.275 47.3384 160.452 46.1113C160.532 46.0434 161.769 44.7471 161.149 43.4616C161.108 43.3862 160.515 44.1825 160.672 42.7183C160.825 41.2424 160.472 38.9736 160.771 37.1494C160.88 36.6195 161.626 34.8637 160.28 33.9278C160.237 33.8986 159.45 33.5731 158.994 33.5014C158.342 33.0765 157.864 32.6646 158.01 31.9678C158.046 31.7337 159.213 30.8137 157.121 30.009C156.712 29.8669 157.119 30.555 156.144 30.0633C155.015 29.5071 153.669 28.4749 152.037 27.7309C151.463 27.4648 150.868 27.2267 150.258 27.0505C149.827 26.9271 147.774 26.8166 146.855 25.4795C146.711 25.27 147.316 25.0877 146.67 24.6608C143.597 22.6291 140.129 21.0626 137.03 19.1604C135.929 18.4903 136.846 18.1152 135.722 17.3511C134.6 16.5836 132.212 15.3 130.8 15.0984C129.395 14.8983 130.342 16.5362 128.426 15.8951C124.473 14.608 120.642 13.5135 116.952 13.1136C112.07 12.6151 107.273 12.0906 102.587 12.0882C101.267 12.0961 102.36 12.4868 100.437 12.556C96.8164 12.6987 92.031 13.3192 87.8224 14.6847C83.1979 16.1523 78.7582 17.6273 75.6696 18.3686C70.609 19.6124 76.4454 16.6847 72.6625 17.8932C70.8284 18.4891 69.4899 20.5751 69.0984 20.7986C65.2317 23.0159 62.2254 23.8495 58.9781 25.9861C58.3139 26.4317 59.2683 26.5036 58.7095 26.8752C57.9277 27.4011 57.1207 27.8996 56.3349 28.4003C55.0516 29.2256 53.7961 29.9845 52.7314 30.7706C51.9283 31.3693 52.3248 31.6058 51.5972 32.104C49.8874 33.2927 48.5537 34.2367 47.4995 35.024C47.3965 35.108 47.4475 34.1197 46.8501 34.9406C46.4766 35.4995 46.2065 35.9625 46.0819 36.5131C45.7982 38.2093 45.6306 39.9924 45.8535 41.6333C45.9824 42.4814 46.9176 42.4873 46.3683 44.2383C46.2716 44.5901 45.017 44.3135 46.3013 46.128C46.4945 46.543 48.4826 48.9797 48.3526 50.3248C48.3341 50.5086 48.2414 50.8636 48.2223 51.2581C48.274 51.84 48.4218 52.4865 48.8165 52.8937C48.9172 52.9909 49.0146 52.2415 49.5516 52.8897C51.4381 55.1634 53.4943 57.3662 55.9088 58.907C56.5513 59.3088 55.9504 58.229 56.8874 58.8197C58.2578 59.6646 59.8405 60.5259 61.5 61.2186C62.8786 61.7986 64.5702 62.3337 66.076 62.7604C67.2755 63.0941 66.3416 63.3427 66.4198 63.4104C67.7007 64.5002 68.7814 63.6026 69.2792 63.6283C72.3644 63.7814 74.6744 64.5506 77.5733 64.6577C78.3799 64.6856 77.8488 64.1335 78.0122 64.1007C79.6765 63.7769 78.3903 64.6021 79.4342 64.7724C82.3388 65.2439 85.6455 65.2771 88.64 65.1658C89.7326 65.123 88.4947 64.5548 89.4734 64.5209C93.871 64.3526 98.3983 64.0369 102.809 63.6529C104.265 63.5251 105.698 63.4072 107.097 63.2952C108.183 63.2076 107.568 63.7514 107.807 63.823C109.463 64.3292 111.542 62.9867 112.014 62.8023C114.213 61.9666 115.145 62.1804 117.006 61.6282C120.406 60.5954 123.523 59.2501 126.033 57.1366C131.191 53.0328 136.864 46.7679 136.946 44.8079C136.963 44.7291 136.961 44.7457 136.986 44.8256C136.201 40.1248 133.955 37.1357 130.205 34.915C125.579 32.2521 120.945 29.7555 115.835 28.0806C115.158 27.8643 115.647 28.66 115.07 28.4874C112.095 27.5979 109.212 27.0489 106.609 27.1131C101.413 27.2431 96.2476 27.4091 91.1149 27.9033C90.4106 27.9711 91.4681 28.4629 90.3454 28.5922C88.0467 28.8615 85.1611 29.1193 82.8812 29.2429C81.7638 29.3058 83.1856 28.6147 82.0549 28.6913C79.4456 28.8716 76.6912 29.3234 74.3211 30.0602C73.3192 30.3805 74.9927 30.5179 73.7003 30.8935C72.0647 31.3831 70.5335 32.0117 69.6164 32.6017C69.1585 32.8874 68.8978 33.1552 68.8866 33.1805C68.8698 33.2287 69.0673 32.8699 69.0688 32.6051C68.4219 38.9815 68.2531 44.9742 69.9889 47.7514C70.1588 48.0364 69.5116 49.1569 70.4097 49.5454C70.6152 49.3564 70.8 49.1031 70.9849 48.8663C71.0219 48.8156 71.0586 48.7654 71.095 48.7162C81.3324 53.6072 98.6455 54.46 109.41 47.0276C109.865 46.7216 108.77 46.7348 109.563 46.1637C109.572 46.1568 109.581 46.1499 109.591 46.1431C109.92 45.9327 110.081 45.6628 109.783 46.07C109.649 46.2817 109.36 46.7719 109.273 47.6184C109.171 48.4567 109.45 49.4587 109.757 49.9615C107.037 45.0723 104.725 42.0028 101.274 40.2087C100.816 39.9962 101.463 38.9663 99.8012 38.742C99.674 38.7287 99.1276 38.6516 98.4721 38.6337C97.4499 38.5854 96.2854 38.5906 95.8393 38.6954C95.7329 38.725 96.235 39.2776 95.2776 39.2281C93.8903 39.1609 92.5136 39.1463 91.3652 39.2389C90.7986 39.2831 90.2861 39.3632 89.9956 39.4356C89.7029 39.4781 89.6951 39.6494 90.3156 39.0662C89.5022 39.8444 89.1372 40.3943 88.8806 41.0591C88.4821 42.3193 88.1148 43.5415 87.8325 44.6642C87.6357 45.4688 87.2443 44.5061 87.1032 45.0823C86.9088 45.887 86.8071 46.7183 86.8241 47.1639C86.819 47.3699 86.8948 47.4737 86.747 47.1197C86.6664 46.947 86.4855 46.6249 86.119 46.302C85.7599 45.9761 85.2379 45.7369 84.8725 45.6635C86.3384 45.9766 89.6484 45.5417 92.2878 45.3491C95.3774 45.0946 94.4548 46.2383 96.3014 46.8012C96.5647 46.882 98.4953 46.4529 98.7261 46.9562C99.3087 48.2294 98.7059 49.9203 99.4369 51.2513C99.5953 51.5423 102.172 50.5567 100.78 51.6854C100.685 51.7638 98.8055 52.4751 98.3782 52.8345C98.0815 53.0855 98.8122 53.4892 98.1753 53.8685C97.5308 54.2477 96.6714 53.9621 95.56 54.4617C94.4341 54.9571 95.0988 55.4969 92.6759 55.9864ZM78.5158 74.8073C80.2721 75.368 80.5519 73.4268 78.6496 73.8614C78.5574 73.8845 78.4257 74.7795 78.5158 74.8073ZM106.133 2.62855C103.786 1.80224 102.211 3.07807 103.861 3.72247C105.519 4.36531 106.851 2.87842 106.133 2.62855ZM129.919 3.24705C127.397 2.12564 126.624 4.80607 129.421 4.70433C129.584 4.70179 130.062 3.31385 129.919 3.24705ZM88.699 48.4028C88.723 48.4325 90.102 48.291 90.1328 48.2555C90.769 47.5556 88.0587 47.8374 88.699 48.4028ZM153.193 8.36571C152.495 7.75757 150.029 7.51362 150.914 8.24401C151.62 8.82244 154.064 9.11414 153.193 8.36571ZM163.657 55.769C163.695 55.7487 164.001 54.7639 163.836 54.7417C163.313 54.6659 163.061 56.0781 163.657 55.769ZM182.776 33.5964C179.503 28.5728 179.232 24.2687 182.781 29.8255C183.417 30.8331 180.728 28.1224 181.419 29.4876C182.678 31.9759 184.886 32.7027 185.825 35.4712C185.994 35.9727 182.959 33.8845 182.767 33.5893C182.77 33.5916 182.773 33.594 182.776 33.5964ZM79.4967 77.1592C79.5311 77.1865 80.9608 77.2269 80.9953 77.2007C81.7725 76.5919 78.9008 76.5111 79.4967 77.1592ZM135.623 11.56C135.58 11.4648 132.518 10.0966 132.388 10.1158C130.419 10.3727 136.545 13.0984 135.623 11.56ZM0.418731 36.8128C-0.298327 35.1473 -0.08946 32.9112 1.00683 31.8073C0.5678 33.418 0.38389 35.1201 0.418731 36.8128Z" fill="#FECA0E" fill-opacity="0.75"/>
</svg>
