<svg width="473" height="271" viewBox="0 0 473 271" fill="none" xmlns="http://www.w3.org/2000/svg">
<path d="M12.9339 0.00121461C13.1032 0.00192919 12.9222 0.00286588 12.6736 0.00357775C12.5966 0.00380085 12.252 0.00368788 12.1833 0.00384189C12.0493 0.0041431 12.2183 0.00442372 12.0587 0.00472138C12.0041 0.00482002 11.4584 0.00469723 11.4136 0.00480067C11.1724 0.00536749 11.3115 0.00590372 11.1954 0.00647792C10.623 0.00930623 10.4182 0.0120864 10.1695 0.0149493C10.088 0.0158933 9.59266 0.0170408 9.80927 0.0180158C9.83505 0.0181297 10.3141 0.0180618 10.3536 0.0180835C10.958 0.0184231 9.99093 0.0183102 9.86243 0.018532C9.3551 0.0194122 9.31098 0.020391 9.49586 0.021238C9.57592 0.0215984 10.5274 0.0212371 9.99335 0.0216C9.95727 0.0216251 9.44855 0.0215337 9.3943 0.0216325C9.27226 0.0218567 9.36319 0.0222819 9.32288 0.0224556C9.24263 0.0227904 9.24775 0.0228458 9.24195 0.0231624C9.2296 0.0235953 8.97672 0.0241101 9.09199 0.0245745C9.11811 0.0246737 9.6396 0.0245424 9.72834 0.0247005C9.81694 0.0248588 9.77272 0.0252774 9.64979 0.0254185C9.52679 0.0255597 9.11691 0.0254996 9.02296 0.0255246C8.22998 0.0257301 9.32826 0.0262143 9.35542 0.0262766C9.81821 0.0274126 9.19256 0.0283868 9.19435 0.0294531C9.19703 0.0302626 9.40358 0.0311282 9.37525 0.0318984C9.33949 0.0328161 9.0569 0.0335938 9.10548 0.0344853C9.11 0.0345794 9.72316 0.0344692 9.72993 0.0345841C9.80128 0.0358049 9.73444 0.0370173 9.3205 0.0382329C9.27845 0.0383548 8.74011 0.0381977 8.6659 0.0383195C8.22348 0.0390652 7.16068 0.0402451 9.50459 0.040688C9.41306 0.0411931 9.3185 0.0418063 8.84602 0.0422582C8.54192 0.0425496 7.95545 0.0422666 8.2057 0.0426245C8.26146 0.0427052 8.77506 0.0426002 8.81983 0.0427213C9.00786 0.043231 8.8409 0.0437878 9.10627 0.044292C9.16146 0.0443946 9.62166 0.0443666 9.70454 0.0443956C10.3757 0.0446398 9.26623 0.0450464 9.18562 0.045135C8.58445 0.0458099 8.82102 0.0463027 8.80635 0.0469314C8.80268 0.0470773 9.42084 0.0469049 9.43952 0.0470453C9.52812 0.0477734 9.47499 0.0485276 9.20069 0.0492406C9.13819 0.0493992 8.61163 0.0492533 8.55482 0.0493291C8.31074 0.0496633 9.30529 0.0497373 9.0904 0.0500578C9.04638 0.0501254 8.5956 0.0500873 8.54609 0.0500996C7.76894 0.0502925 8.87011 0.0504601 8.89442 0.0505097C9.2266 0.0511373 8.07704 0.0515384 8.23982 0.0521446C8.26045 0.0522172 8.83082 0.0520536 8.85395 0.0522575C9.01141 0.0536157 8.85472 0.0550522 8.39851 0.0563966C8.32835 0.0566057 7.89988 0.0564565 7.84706 0.0564696C7.02177 0.056684 8.12756 0.0568227 8.1692 0.0568909C8.46897 0.0574286 7.54164 0.0579309 8.85871 0.0582962C8.40164 0.0605734 9.14125 0.0628402 7.96132 0.0650986C7.94765 0.0651273 7.40305 0.0650759 7.37813 0.0651331C7.07234 0.0658229 7.91875 0.0656905 8.95393 0.0661469C9.21387 0.0662619 7.96406 0.0666116 7.87245 0.0666426C7.53486 0.0667553 6.72464 0.0666384 6.65926 0.0666761C6.14587 0.0669886 8.82532 0.0669376 8.82618 0.0673591C8.82171 0.0673723 8.32853 0.0673169 8.27949 0.0673523C8.12554 0.0674622 8.32151 0.0675712 8.15175 0.0676787C7.75891 0.0679248 6.45693 0.0680125 7.21468 0.0683884C7.31302 0.068436 8.83292 0.0683633 8.76112 0.0687396C8.73121 0.0688897 8.75726 0.0695537 8.65876 0.0697398C8.56039 0.0699256 8.0706 0.069798 8.04939 0.0698113C7.40173 0.0703121 7.13331 0.0701222 6.17446 0.0703731C5.21922 0.070624 7.49755 0.0705544 7.75184 0.0706567C8.00542 0.0707592 7.47106 0.0711264 7.28529 0.0712166C7.09945 0.0713068 6.78823 0.0711943 6.68306 0.0712745C5.99596 0.0718062 7.81394 0.0715079 8.17555 0.0716831C9.03177 0.0720962 7.34215 0.0724179 7.17659 0.0727961C7.13188 0.0728984 7.5167 0.0728149 7.55269 0.072906C7.69012 0.0732669 7.16292 0.0734839 7.64632 0.0738945C7.72509 0.0739616 8.74093 0.0742935 7.99544 0.0745084C7.88794 0.0745388 7.46689 0.0744523 7.37257 0.0746061C7.23103 0.0748359 7.139 0.0752498 7.27974 0.0754968C7.38387 0.0756791 8.07766 0.0754702 7.86213 0.0756996C7.7659 0.0758017 7.36003 0.0756126 7.21309 0.0758042C7.06619 0.0759948 7.08402 0.0764822 7.09804 0.0766677C7.11236 0.0768528 7.63863 0.0767515 7.67409 0.0767664C7.87718 0.076857 8.13095 0.0772122 8.13032 0.0772436C8.19457 0.0788272 7.30748 0.0802875 7.60109 0.0818293C7.62337 0.0819503 8.17833 0.0818697 8.18745 0.0818882C8.41997 0.0823024 6.94446 0.0819758 6.45058 0.0822652C7.57676 0.0822233 7.37284 0.0823942 7.49635 0.0826859C7.55678 0.0828265 7.99285 0.08275 8.03749 0.0827628C8.69982 0.0829713 7.84433 0.0831165 7.66933 0.0831539C7.02556 0.083292 7.78621 0.0834423 7.35591 0.0835362C6.92883 0.0836301 6.29568 0.083414 6.30379 0.0836939C6.70692 0.0837723 7.76042 0.0835646 7.93117 0.083777C8.577 0.0845786 7.75043 0.086075 7.66456 0.0867195C7.57878 0.0873628 7.65315 0.0875705 7.50746 0.0879453C7.24403 0.0886224 8.02566 0.0883743 8.38343 0.0887947C8.74117 0.0892163 6.81799 0.0890113 6.40456 0.089072C5.99131 0.0891315 6.41671 0.0891964 6.18953 0.0892704C5.96241 0.0893442 5.68131 0.0891845 5.59603 0.089358C5.51083 0.0895316 6.24601 0.0900062 6.6783 0.0900677C7.59413 0.0901978 8.55534 0.0899839 8.2176 0.0904432C8.19756 0.0904697 7.69187 0.0903839 7.64076 0.0904851C7.25146 0.0912885 7.22733 0.0921231 6.88301 0.0929256C6.83488 0.0930359 6.27231 0.0929372 6.23793 0.0930014C5.87811 0.0936703 6.82666 0.0934312 7.88038 0.0937977C6.4781 0.0937155 5.62018 0.0939181 5.6119 0.0944257C5.60643 0.0947309 6.21888 0.0946783 6.65053 0.0948757C6.78065 0.0949349 6.36012 0.0951508 6.64815 0.0951899C7.58966 0.095319 8.64363 0.0951156 8.22395 0.0956389C8.20401 0.0956619 7.68864 0.0955888 7.65742 0.0956681C7.45313 0.0961809 8.43794 0.0962423 8.5572 0.0967967C8.65078 0.0972312 8.05026 0.098004 7.95259 0.0984987C6.37602 0.0984883 6.73703 0.0989556 7.82405 0.0991452C7.77955 0.0994663 7.841 0.0998131 7.69075 0.100123C7.63952 0.10023 7.18306 0.10016 7.13374 0.100174C6.36005 0.10038 7.4176 0.10052 7.45906 0.100589C7.86209 0.10134 7.06055 0.101952 7.84389 0.102669C7.8721 0.102694 8.96723 0.102736 8.16761 0.102927C8.1125 0.10294 7.61423 0.102703 7.5757 0.10304C7.53708 0.103377 6.95001 0.104013 7.45747 0.104481C7.57964 0.104595 8.46867 0.104881 7.77406 0.105111C7.67974 0.105142 7.36565 0.105109 7.19087 0.105153C6.63396 0.105296 7.74087 0.105374 6.80049 0.105542C5.86016 0.10571 5.15592 0.10606 5.80471 0.106532C5.82357 0.106547 6.7009 0.106659 6.68703 0.106807C6.66413 0.107044 6.48136 0.107381 6.48708 0.107628C6.49013 0.107747 7.03491 0.107671 7.04488 0.107692C7.35015 0.108488 6.86448 0.109056 6.6537 0.109909C6.61399 0.110066 7.35688 0.110515 6.76955 0.110818C6.12661 0.111151 3.45207 0.110809 4.08926 0.111574C4.34412 0.111882 7.73726 0.112273 5.97927 0.112827C6.41489 0.113902 5.51515 0.114896 6.13716 0.115974C6.16472 0.116022 7.11172 0.116175 7.09883 0.116289C7.07786 0.116459 6.63525 0.116551 6.6061 0.116672C6.47277 0.117178 6.85146 0.117642 6.79256 0.11813C6.77116 0.118315 6.3135 0.11825 6.28792 0.118471C6.26277 0.118692 6.86542 0.118839 6.57436 0.119138C6.3525 0.119364 5.12071 0.119591 4.97713 0.119891C6.19216 0.119902 6.16713 0.120108 6.48787 0.120474C6.5501 0.120545 6.973 0.120469 7.02425 0.120502C7.24221 0.120638 6.89172 0.120763 7.12898 0.120892C7.18597 0.120923 7.60091 0.120925 7.67091 0.12095C8.28199 0.121168 7.34862 0.121527 7.18611 0.121588C6.56892 0.121824 7.1086 0.121934 6.86556 0.122116C6.62254 0.122296 6.31875 0.122026 6.17128 0.122237C5.86626 0.122675 5.93327 0.123237 5.9142 0.123681C5.90916 0.123859 6.46304 0.123738 6.47518 0.123763C6.61566 0.12413 6.02649 0.124501 7.12978 0.124704C4.27708 0.124958 7.40647 0.124925 6.8354 0.125449C6.78922 0.12549 5.4402 0.125543 5.24215 0.125384C5.04429 0.125226 5.46597 0.124986 5.15725 0.124766C5.0848 0.124714 3.82068 0.124415 3.74411 0.124375C3.14565 0.124056 5.16158 0.124011 5.2723 0.123994C6.4672 0.123802 5.10535 0.123438 5.01125 0.123342C4.58007 0.122903 4.86358 0.12253 4.55581 0.122162C4.3569 0.121922 3.03639 0.121898 3.07681 0.12171C3.21041 0.121083 5.05252 0.120864 3.45529 0.120273C3.11463 0.120146 1.67136 0.120272 2.80624 0.119818C2.87779 0.11979 3.916 0.119452 3.25931 0.119258C3.17651 0.119233 2.75588 0.119234 2.72055 0.119202C2.49199 0.118986 2.82708 0.118841 2.66659 0.118606C2.50611 0.11837 2.26685 0.118087 2.40952 0.117818C2.49482 0.117656 3.2785 0.117448 3.47036 0.117371C4.02307 0.117152 3.11686 0.116917 3.78616 0.116781C4.45882 0.116644 5.48037 0.116912 5.915 0.116553C4.82219 0.11654 3.70054 0.116509 2.60153 0.116488C2.64001 0.115702 2.99338 0.114928 2.9451 0.114139C2.93802 0.114041 2.35052 0.114141 2.32779 0.114036C2.23446 0.113594 2.65326 0.113207 2.48648 0.112749C2.35513 0.112393 1.7331 0.112004 1.57639 0.111633C2.82687 0.111406 2.40236 0.110855 2.51663 0.110454C2.55612 0.110314 2.8901 0.110324 2.99905 0.110224C3.40202 0.109848 2.29698 0.110024 2.12308 0.109921C1.38089 0.109478 3.88208 0.10944 3.82028 0.108919C3.81785 0.108891 2.48461 0.108553 2.40158 0.108507C1.86019 0.108211 2.86563 0.108458 2.96414 0.108273C3.14416 0.107935 3.46256 0.1077 3.07205 0.107304C2.95638 0.107188 2.12539 0.106911 2.76816 0.106687C2.85232 0.106657 3.29301 0.106673 3.31881 0.10665C3.74901 0.106219 2.36432 0.106208 1.89536 0.105962C1.4265 0.105716 2.38237 0.105337 2.65787 0.105259C3.37055 0.105057 2.96244 0.105414 3.03238 0.105425C3.86468 0.105554 3.72139 0.105277 3.79171 0.105065C5.14942 0.105035 5.06792 0.104739 3.85916 0.104846C3.72713 0.104858 3.85374 0.105023 3.79171 0.105065C2.45962 0.104879 2.28902 0.104554 3.53384 0.104195C4.11727 0.104027 4.79752 0.104186 4.54867 0.103675C4.43633 0.103443 3.50148 0.103533 3.24661 0.103328C2.66509 0.102861 3.53715 0.102253 3.39975 0.101772C3.34986 0.101597 2.83813 0.101767 2.78641 0.101647C2.64753 0.10133 3.0315 0.101051 2.83481 0.100732C2.81634 0.100703 2.28066 0.100774 2.27383 0.100675C2.21162 0.0999236 2.55473 0.0992697 2.56424 0.0984856C2.56859 0.0981067 2.27315 0.0974294 2.33255 0.097037C2.43234 0.0963568 3.21129 0.09552 3.02206 0.0949389C2.90093 0.09456 2.36515 0.0946431 2.00009 0.0944807C1.29247 0.0941673 2.55999 0.0936127 2.75626 0.093538C2.76275 0.0935357 2.88906 0.0938618 3.16409 0.0936878C3.73717 0.0935866 2.75874 0.0935417 2.75626 0.093538C2.88305 0.0934889 3.00467 0.0928375 2.90225 0.0927081C2.84628 0.0926378 2.33865 0.0926771 2.31906 0.0926405C1.86478 0.0917694 1.73576 0.0908967 1.97312 0.0900132C1.98337 0.0899977 2.55118 0.0900211 2.56821 0.0899845C2.82067 0.089473 2.12606 0.0891455 1.71366 0.0887237C1.30144 0.0883019 1.4395 0.0879674 2.41428 0.0877177C2.29154 0.0873994 2.72249 0.0869429 2.98398 0.0866801C3.24546 0.0864174 2.14017 0.0863807 2.11832 0.0863576C1.41895 0.0856366 2.0516 0.0852197 2.15006 0.0844717C2.19876 0.084116 2.03844 0.0834106 1.91757 0.0830255C1.8202 0.0827212 2.07923 0.0825378 1.91361 0.0822574C1.89149 0.0822195 1.39935 0.0822578 1.38041 0.0822462C0.791597 0.0819332 1.99469 0.0820836 2.20957 0.082019C2.99094 0.0817848 3.4071 0.08164 3.03952 0.0812393C2.95534 0.0811468 1.22305 0.0808775 1.12174 0.080709C0.993201 0.08049 1.61412 0.0805726 1.46372 0.0803432C1.45142 0.0803236 1.06835 0.0803277 1.08524 0.0801861C1.1586 0.0795289 1.3815 0.0788124 1.34311 0.0781294C1.33934 0.0780361 0.731739 0.0781558 0.716284 0.078021C0.644261 0.0773885 0.666747 0.0766952 0.951146 0.0760791C1.02306 0.0759274 1.44848 0.0760225 1.5748 0.0759896C2.3391 0.0757874 1.22859 0.0755008 1.20743 0.0754535C0.673773 0.0743254 1.67877 0.0734619 1.20029 0.0723121C1.1722 0.0722495 -0.01829 0.0717677 1.00272 0.0715527C1.07065 0.071538 2.11525 0.0713253 1.40103 0.0711373C1.35635 0.0711256 0.818577 0.0712581 0.873388 0.0710269C0.928079 0.0707956 0.568956 0.0704235 1.15982 0.0701056C1.34596 0.0700049 2.38798 0.0697671 1.55735 0.0694669C1.49936 0.0694473 -0.378822 0.0689839 0.917028 0.0688184C1.13034 0.0687916 2.50164 0.0688197 1.79856 0.0684614C1.66225 0.0683929 1.35638 0.0685172 1.16538 0.0683369C0.87101 0.0680605 1.23829 0.0676944 0.627417 0.0673547C0.51927 0.0672955 -0.411488 0.0670433 0.294959 0.066841C0.405601 0.0668094 0.863413 0.0668696 0.914647 0.0667627C1.16041 0.0662548 0.854178 0.0657229 1.17093 0.0652071C1.28224 0.0650244 2.02234 0.0651178 2.22067 0.0649274C2.41894 0.0647369 2.60966 0.0643532 2.27145 0.0641539C1.9331 0.0639546 0.753544 0.0641723 0.659155 0.0638738C0.249216 0.0625756 0.941174 0.0612896 1.04239 0.0599934C1.05751 0.0598011 0.63543 0.0599605 0.627417 0.0596772C0.596016 0.0586327 0.20027 0.0568292 1.09714 0.0559228C1.81549 0.0551966 2.36237 0.0561105 2.65469 0.0555556C2.79414 0.0552878 1.42279 0.0549981 1.37961 0.0549334C0.941056 0.0543019 1.54854 0.053863 1.36216 0.0532946C1.32348 0.0531772 0.767657 0.0532923 0.740881 0.0531924C0.644489 0.0528512 0.892583 0.0524926 0.847204 0.0521665C0.825567 0.0520203 0.401049 0.0520472 0.433814 0.0519126C0.507322 0.0515905 0.685769 0.0513058 1.08365 0.0509918C1.11991 0.0509632 1.64799 0.0511561 1.66764 0.0509178C1.69792 0.0505322 2.09043 0.0500535 1.68509 0.0496098C1.56316 0.0494781 0.59293 0.049473 1.26297 0.04919C1.40292 0.0491306 2.56795 0.0492064 1.56131 0.0488767C1.39403 0.0488213 0.0362664 0.0482675 0.911473 0.0479958C1.14182 0.0479241 2.09517 0.0477411 1.94534 0.0475828C1.92144 0.0475613 1.40029 0.0476473 1.34946 0.0475161C1.17938 0.0470538 1.23498 0.0465693 1.07175 0.0460943C1.02713 0.0459674 0.487853 0.0461563 0.438575 0.0459673C0.302267 0.0454475 0.439577 0.0447984 0.608374 0.0442901C0.67163 0.0441026 1.11835 0.0442322 1.16697 0.0442186C1.95769 0.0439992 0.890394 0.0438696 0.828161 0.0437968C0.455513 0.0433441 0.956866 0.0429994 0.824193 0.0425822C0.788933 0.042467 0.280034 0.0425487 0.234657 0.0425257C-0.208712 0.042288 0.705204 0.0424651 0.805944 0.0423146C1.09119 0.0418931 1.05029 0.0414232 0.985265 0.0409968C0.960631 0.0408403 0.370551 0.0410163 0.355262 0.0408757C0.253581 0.040044 0.310045 0.0391793 0.635351 0.0383676C0.697674 0.0382148 1.15205 0.0383109 1.25583 0.0382791C1.98191 0.0380595 0.991532 0.0377378 0.897191 0.0376637C0.466432 0.0373271 0.868248 0.0371963 0.793249 0.0368991C0.419836 0.0354468 0.685964 0.0336536 0.850377 0.0322827C1.06198 0.0304963 1.49424 0.0291101 1.38199 0.0274066C1.37543 0.0272983 0.770963 0.0274075 0.757543 0.0273142C0.611826 0.0261092 0.848026 0.0249229 0.673437 0.0237155C0.660182 0.0236164 0.0871456 0.0237592 0.046608 0.0236002C-0.0405582 0.023274 -0.00941159 0.0228608 0.173561 0.022531C0.261721 0.0223701 0.753437 0.0225859 0.832128 0.022424C1.01648 0.022047 1.05729 0.0216428 0.965428 0.0212556C0.925086 0.0210908 0.339016 0.0213394 0.332252 0.0211252C0.274109 0.019666 0.173172 0.018233 0.932103 0.0167584C0.984226 0.0166573 2.17535 0.0165686 1.94693 0.0163537C1.61636 0.0163375 1.22751 0.0163384 0.874181 0.0163313C0.683849 0.0142071 1.09677 0.0121046 1.16062 0.00997447C1.16317 0.00988466 0.532056 0.0100399 0.533789 0.00986599C0.54312 0.00885962 0.368281 0.00788237 0.99558 0.00685297C1.05693 0.00675083 2.16722 0.00680323 1.9993 0.00650224C1.96866 0.00644916 1.82058 0.00599583 1.57956 0.00587862C1.54321 0.0058627 1.02497 0.00594541 1.00986 0.00579933C0.931165 0.00495043 1.04948 0.00406083 1.36612 0.0032134C1.41822 0.00307664 1.9701 0.00322229 2.01199 0.00312487C2.30496 0.00243387 1.88543 0.00168226 2.38651 0.00102198C2.7239 0.000580012 3.67787 0.000743642 4.61691 0.000508785C4.74939 0.000475567 4.77038 0.000201886 5.31673 0.000187733C6.69058 0.000151398 8.19493 0.000283961 9.65931 0.000229567C9.97473 0.000218075 9.635 -0.000148454 10.3972 6.85547e-05C10.4482 8.3715e-05 10.7012 0.000349451 10.9598 0.000414902C11.1386 0.000460471 11.6942 0.000378354 11.923 0.000471329C12.1517 0.000564297 11.6859 0.000666456 11.9548 0.000820595C12.227 0.000974665 12.8591 0.000906919 12.9339 0.00121461ZM4.15274 0.0854971C4.68354 0.0852538 2.73942 0.0852179 3.20456 0.085481C3.22935 0.0854938 4.1267 0.0855096 4.15274 0.0854971ZM4.4598 0.114932C5.31729 0.114614 4.05644 0.114397 3.39419 0.114621C2.73266 0.114845 4.19986 0.115029 4.4598 0.114932ZM5.08584 0.11823C5.76193 0.117859 3.0051 0.1178 3.5624 0.118198C3.5939 0.118221 5.04658 0.118252 5.08584 0.11823ZM4.8843 0.00159793C4.91012 0.00159457 4.93528 0.00139784 4.90969 0.00139314C4.29224 0.00128838 4.24236 0.00168177 4.8843 0.00159793ZM5.76742 0.121503C6.14034 0.121387 5.70984 0.121053 5.24612 0.121197C4.87306 0.121313 5.30352 0.121648 5.76742 0.121503ZM6.22762 0.0728063C6.25659 0.0728025 6.28268 0.0726614 6.11892 0.0726643C5.59148 0.0726738 5.74034 0.0728701 6.22762 0.0728063ZM5.79915 0.127066C5.90292 0.126244 8.1802 0.125745 7.92323 0.12664C7.87674 0.126802 7.19703 0.126291 6.99172 0.126497C6.61767 0.126875 8.04753 0.127125 7.28133 0.127511C7.14109 0.12758 5.78817 0.127112 5.79598 0.127064C5.79704 0.127065 5.7981 0.127065 5.79915 0.127066ZM6.48787 0.085357C6.51358 0.0853521 6.53796 0.0851569 6.51247 0.0851522C5.89527 0.0850465 5.8458 0.0854398 6.48787 0.085357ZM7.4297 0.0645762C7.48448 0.0645654 7.53572 0.0641123 7.48524 0.0640975C6.47595 0.0638611 6.36938 0.0647772 7.4297 0.0645762ZM7.91054 0.0985065C8.53144 0.0987195 8.60455 0.0989744 7.82484 0.0991442C7.86623 0.0989325 7.87233 0.0987194 7.91054 0.0985065Z" fill="#171717" fill-opacity="0.75"/>
<path d="M364.374 185.389C361.735 185.579 358.277 185.443 355.64 185.237C354.809 185.173 355.222 184.822 354.655 184.763C353.534 184.647 352.504 184.835 351.398 184.696C351.032 184.649 351.476 184.094 351.092 184.057C349.692 183.923 348.343 183.959 346.966 183.978C346.412 183.984 345.843 184.01 345.255 184.032C336.405 184.474 327.313 189.977 318.854 195.774C316.259 197.57 313.024 199.543 310.456 201.749C310.239 201.936 310.027 202.128 309.822 202.325C309.537 202.6 310.028 202.813 309.996 202.891C309.517 204.103 309.17 203.126 308.51 203.546C305.89 205.236 303.453 207.821 301.646 210.282C300.878 211.335 302.44 210.934 301.202 211.604C301.117 211.652 300.93 211.074 300.663 211.317C300.055 211.869 299.175 213.138 298.761 213.615C297.959 214.533 297.842 214.698 297.152 215.621C296.208 216.882 294.913 218.272 294.048 219.741C293.865 220.055 294.565 219.954 294.314 220.48C294.062 221.005 293.176 222.25 292.791 222.614C292.405 222.976 292.183 222.568 292.055 222.593C290.972 222.793 290.933 224.884 290.836 225.09C289.203 228.419 287.16 230.959 285.339 233.857C285.102 234.235 284.889 234.589 284.666 234.983C283.241 237.509 282.05 240.373 281.253 242.768C280.618 244.692 280.259 246.147 280.373 247.886C280.42 248.741 280.576 249.54 280.907 250.275C281.011 250.501 281.457 249.997 281.58 250.249C282.142 251.394 283.188 252.49 284.574 253.732C285.986 255.02 287.968 256.152 290.068 257.204C290.45 257.394 289.745 257.703 290.12 257.923C292.383 259.281 296.397 261.398 298.477 259.449C300.235 259.944 302.407 260.471 303.951 261.232C304.955 261.723 303.821 262.116 305.164 262.1C305.468 262.096 305.176 261.524 305.621 261.556C305.948 261.579 306.28 261.614 306.619 261.656C308.113 261.836 309.709 262.086 311.202 261.977C311.572 261.948 311.504 261.482 311.613 261.406C312.511 260.799 313.898 261.966 314.225 262.055C316.643 262.729 318.45 262.476 320.747 262.431C321.278 262.419 320.633 261.82 321.142 261.786C323.789 261.616 326.55 261.51 329.182 261.594C329.771 261.614 329.274 262.178 329.555 262.214C330.801 262.366 330.996 261.352 332.189 261.47C332.44 261.493 332.338 261.954 332.388 261.999C333.166 262.714 333.685 261.563 333.866 261.523C335.59 261.117 336.915 261.591 338.427 261.676C338.903 261.703 339.406 261.69 339.942 261.593C340.204 261.545 339.547 261.041 340.289 260.939C345.254 260.249 350.529 259.711 355.521 259.445C356.297 259.403 355.813 259.907 355.868 259.952C356.775 260.653 357.123 259.483 357.366 259.405C359.289 258.815 361.274 259.445 362.404 257.933C369.405 257.206 376.244 255.556 383.165 254.709C384.549 254.537 385.917 254.385 387.285 254.261C387.393 254.249 387.332 254.824 387.546 254.798C390.087 254.489 389.428 253.774 390.733 252.345C391.071 251.983 392.622 252.829 392.766 252.879C393.264 253.08 393.085 253.982 393.238 254.003C394.51 254.146 393.51 251.659 394.954 251.175C395.001 251.164 394.97 251.695 395.107 251.701C395.532 251.719 395.838 251.405 396.267 251.432C397.233 251.5 398.016 252.605 399.019 251.392C399.138 251.236 398.346 249.927 399.612 249.476C400.124 249.304 402.276 248.294 402.91 248.074C403.551 247.864 403.361 248.506 403.413 248.504C405.32 248.257 404.839 248.801 406.111 249.207C407.399 249.587 406.059 247.722 406.255 247.319C406.448 246.922 407.87 246.697 408.249 246.676C408.63 246.659 408.441 247.143 408.749 247.075C410.782 246.599 408.865 245.66 409.202 245.012C409.96 243.484 411.869 244.198 413.093 243.487C413.421 243.296 412.944 243.174 413.188 242.943C414.151 242.034 415.109 241.947 415.964 240.611C416.108 240.391 416.377 238.838 417.458 238.887C417.613 238.895 417.647 239.422 418.138 239.121C418.873 238.672 420.077 237.725 420.665 237.005C421.094 236.477 420.056 236.479 420.83 236.07C421.175 235.887 420.927 236.66 421.554 236.29C422.175 235.926 423.498 234.692 423.998 234.214C424.494 233.741 423.862 233.606 423.879 233.543C423.931 233.366 424.136 233.034 424.35 232.721C424.58 232.379 424.827 232.055 424.873 232.013C429.114 228.003 433.602 224.834 437.454 220.591C437.756 220.258 437.153 220.076 437.195 220.021C438.119 218.771 438.303 220.672 439.412 220.262C438.506 219.575 439.1 219.271 439.776 218.417C440.102 218.004 439.592 217.898 439.594 217.833C439.671 216.817 440.657 217.039 440.879 217.063C441.697 217.153 441.55 216.221 442.101 216.276C442.65 216.329 442.535 217.345 443.26 216.6C443.179 216.109 441.887 215.917 442.321 215.236C443.952 212.672 448.428 209.276 450.15 207.619C451.877 205.961 452.353 205.358 453.427 204.453C455.164 202.989 454.371 202.933 454.782 201.947C454.83 201.835 454.893 201.711 454.975 201.573C455.782 200.205 456.657 202.075 457.113 202.195C457.569 202.314 457.427 201.845 457.78 201.8C458.132 201.756 457.934 202.38 458.434 201.97C458.944 201.552 459.603 199.745 459.424 199.295C459.066 198.322 457.836 198.26 459.203 197.234C459.283 197.173 459.45 197.748 459.738 197.499C461.985 195.533 463.979 193.197 465.855 190.922C466.115 190.6 466.395 191.211 466.552 191.025C468.134 189.051 466.877 189.288 466.423 187.754C467.558 188.537 468.863 188.296 469.162 186.093C469.2 185.629 469.106 185.347 468.977 185.169C468.731 184.829 468.373 184.776 467.984 184.41C467.825 184.26 467.874 183.355 467.537 183.372C466.47 183.468 466.038 184.565 465.392 183.083C465.359 183.014 465.904 182.854 465.755 182.638C464.691 181.229 463.846 181.839 462.259 180.815C461 180.012 458.915 178.078 457.356 177.148C458.138 175.774 456.422 175.28 455.312 175.944C454.279 175.375 453.104 174.876 452.13 174.253C451.796 174.039 452.224 173.736 452.2 173.67C451.831 172.643 450.919 173.388 450.668 173.319C448.963 172.818 447.636 171.981 446.19 171.346C445.36 170.981 444.487 170.699 443.493 170.622C443.394 170.614 442.866 171.581 442.502 170.592C442.478 170.525 443.463 170.357 442.32 169.895C441.189 169.435 439.13 168.151 437.335 168.217C436.896 168.227 435.692 168.843 435.029 167.99C434.94 167.874 435.127 167.593 435.006 167.388C434.603 166.733 434.106 167.76 433.678 166.721C433.251 165.682 432.044 164.744 430.196 165.152C430.136 165.163 429.609 165.978 429.067 165.899C428.198 165.77 426.973 165.462 426.056 165.391C425.617 165.357 425.852 165.923 425.775 165.927C423.782 165.968 422.2 165.726 420.405 165.451L420.442 165.451C419.546 165.396 418.617 165.337 417.6 165.313C416.995 165.299 415.388 166.117 414.224 165.588C412.946 165.01 414.092 162.269 411.271 163.06C410.131 163.38 408.884 166.85 406.727 165.231C402.764 165.933 399.001 165.332 395.078 166.378C394.915 166.423 394.427 167.429 394.013 167.463C393.395 167.513 393.001 167.114 392.546 167.14C390.663 167.235 389.024 167.843 387.226 168.071C386.538 168.162 386.695 167.671 385.89 167.782C385.065 167.901 384.643 168.588 383.503 168.518C382.632 168.467 381.549 167.436 380.4 167.564C380.641 168.758 379.882 168.903 378.655 169.58C378.422 169.71 378.805 170.041 378.701 170.124C378.291 170.467 377.744 170.265 377.363 170.635C377.269 170.724 377.391 171.121 377.324 171.216C376.769 172.031 375.267 171.591 374.982 171.532C373.952 171.274 373.779 171.937 373.08 171.985C372.371 172.042 373.155 171.347 372.381 171.543C372.36 171.548 372.34 171.553 372.319 171.559C372.317 171.56 372.31 171.564 372.307 171.565C370.735 172.05 368.947 173.092 367.51 173.857C366.927 174.171 367.589 174.44 367.512 174.496C366.387 175.273 364.895 175.423 364.767 176.754C362.561 174.713 364.182 177.393 362.2 177.835C362.044 177.868 361.22 176.782 361.641 176.324C362.06 175.867 363.046 175.804 363.612 175.139C363.748 174.981 364.106 173.339 364.203 173.198C364.955 172.101 366.075 173.786 366.183 173.853C367.381 174.558 367.915 172.714 368.187 172.46C369.319 171.395 370.562 170.962 371.599 170.199C371.612 170.192 371.651 170.173 371.664 170.167C371.763 170.1 371.862 170.03 371.96 169.957C372.731 169.39 372.303 168.14 373.035 167.884C375.488 167.071 376.804 168.605 378.597 166.451C378.979 166.002 378.169 164.705 380.172 165.387C380.303 165.427 381.799 166.15 382.398 165.359C382.475 165.259 382.388 164.847 382.506 164.787C383.273 164.399 383.897 164.621 384.759 164.304C385.627 163.986 386.659 163.574 387.709 163.56C388.338 163.551 389.225 164.217 389.554 164.366C390.426 164.803 391.224 163.787 391.798 164.39C392.391 164.995 391.516 166.131 392.909 166.4C392.829 165.309 392.815 164.181 392.767 163.08C395.721 162.772 398.662 162.849 401.612 162.563C401.98 162.526 401.555 161.971 401.951 161.917C403.602 161.693 405.069 162.007 406.794 161.726C408.093 161.509 409.54 160.798 410.909 160.564C411.852 161.763 413.868 161.23 415.368 161.274C415.89 161.289 415.872 161.624 416.25 161.716C417.685 162.053 416.973 160.98 417.356 160.789C418.681 160.113 419.084 161.72 420.312 162.202C420.363 162.201 420.513 162.199 420.564 162.203C420.803 162.323 421.08 162.4 421.41 162.407C421.513 162.409 422.862 161.148 423.047 161.078C424.206 160.607 423.205 161.552 423.9 161.695C425.173 161.962 426.035 162.345 427.589 162.102C428.04 162.029 429.206 161.316 429.999 162.065C430.102 162.163 429.984 162.592 430.072 162.629C431.663 163.273 431.903 161.918 432.945 161.609C433.994 161.302 435.313 162.535 435.548 162.869C436.181 163.731 434.89 163.043 434.833 163.106C434.179 163.827 435.266 163.889 436.054 164.138C435.88 165.487 436.989 165.663 436.87 164.394C436.854 164.253 436.202 164.233 436.054 164.138C437.041 162.991 438.389 163.133 439.407 164.714C439.878 165.46 439.1 165.922 441.046 166.264C441.927 166.431 441.891 165.435 442.732 165.45C444.484 165.489 446.219 166.881 447.821 167.616C447.982 167.69 448.143 167.756 448.304 167.812C448.923 168.03 448.545 167.305 448.976 167.438C450.126 167.793 450.925 168.57 452.104 168.891C452.211 168.919 452.191 168.321 452.534 168.47C455.151 169.602 457.257 170.979 459.942 172.42C461.237 173.108 463.706 174.19 465.034 175.169C467.288 176.872 469.819 179.503 471.334 182.983C471.751 184.024 471.915 184.614 472.117 184.958C472.342 185.313 472.606 185.409 472.785 186.018C473.432 188.455 470.953 190.702 470.664 190.807C470.664 190.823 471.173 189.362 470.591 190.002C469.876 190.196 470.672 190.781 470.664 190.807C470.469 191.015 468.942 193.361 468.715 193.816C468.601 194.084 469.11 194.238 469.04 194.374C467.355 197.6 465.214 200.254 462.776 202.602C462.729 202.639 462.368 202.192 462.263 202.283C460.768 203.55 460.42 204.931 459.614 206.373C459.59 206.416 459.565 206.458 459.541 206.5C458.762 207.847 457.821 208.597 456.506 208.599C455.772 209.538 454.282 210.458 453.408 210.983C452.543 211.499 453.235 212.372 453.191 212.449C451.819 214.862 450.279 215.534 448.251 217.455C447.288 218.366 445.551 220.352 444.622 221.456C443.89 222.331 443.224 222.632 442.6 223.49C442.515 223.606 442.964 223.853 442.947 223.897C442.536 225.14 442.084 223.891 441.761 223.91C440.589 223.975 439.913 224.061 439.111 225.374C438.923 225.678 439.429 227.614 439.047 228.133C438.552 228.8 438.341 228.137 437.83 228.849C437.786 228.909 438.065 229.173 437.675 229.531C435.861 231.204 433.779 232.908 431.925 234.713C431.672 234.957 432.416 235.09 432.058 235.449C431.178 236.33 430.232 237.228 429.247 238.079C428.354 238.849 427.444 239.58 426.526 240.232C426.057 240.562 426.034 240.007 425.858 239.997C424.787 239.939 424.728 241.49 424.608 241.625C421.763 244.889 418.568 246.343 415.125 249.406C414.95 249.573 414.008 251.673 412.705 251.291C412.614 251.27 411.344 250.846 411.072 251.849C411.053 251.912 411.794 252.091 410.964 252.531C410.132 252.971 408.984 254.042 407.562 254.118C407.107 254.147 405.8 253.653 405.082 254.914C405.049 255 404.109 257.501 402.961 256.575C402.774 256.42 402.357 255.119 401.303 256.311C401.1 256.54 401.672 256.64 401.078 257.084C400.158 257.767 398.653 257.935 397.574 258.944C397.392 259.121 396.703 260.332 395.725 259.896C395.571 259.828 395.664 259.32 395.243 259.397C393.259 259.754 391.294 260.604 389.275 260.766C388.547 260.827 388.732 260.022 387.978 259.995C387.218 259.97 385.74 260.098 385.058 260.582C384.468 260.998 385.164 261.781 384.668 262.202C384.59 262.271 384.479 262.331 384.323 262.376C379.592 263.735 374.711 263.912 369.908 264.624C369.195 264.729 369.852 265.046 368.806 265.23C364.952 265.915 358.313 267.341 354.813 266.924C352.014 266.593 355.332 265.574 353.232 265.573C352.221 265.574 351.328 267.078 351.093 267.153C348.798 267.903 347.081 267.508 344.978 267.947C344.543 268.038 345.04 268.539 344.668 268.61C343.4 268.857 342.022 268.762 340.8 268.936C340.254 269.016 340.395 269.428 339.884 269.448C339.653 269.457 339.428 269.463 339.206 269.462C338.247 269.463 337.347 269.371 336.366 269.138C336.256 269.112 336.93 268.519 336.033 268.583C334.586 268.687 332.759 268.452 331.12 268.985C330.629 269.145 330.687 270.115 329.565 269.525C329.328 269.401 329.537 268.22 328.359 269.309C328.166 269.492 326.137 270.981 325.051 270.158C324.76 269.942 324.024 269.024 323.425 269.2C323.344 269.227 323.694 269.734 323.197 269.806C321.44 270.05 319.563 270.045 317.723 270.215C317.225 270.261 317.969 270.799 317.226 270.849C315.193 270.988 312.609 270.777 310.566 270.451C309.818 270.33 310.374 269.925 310.322 269.872C309.507 269.015 308.891 270.023 308.586 270.054C307.348 270.169 306.32 269.895 305.271 269.635C304.769 269.507 304.282 269.393 303.727 269.342C303.287 269.3 303.506 269.855 303.412 269.885C302.44 270.161 303.269 269.382 302.717 269.179C301.178 268.61 299.401 268.305 297.768 268.018C297.164 267.911 297.711 268.635 297.17 268.532C293.978 267.93 290.614 267.008 287.5 265.516C286.918 265.233 287.457 264.949 287.368 264.805C286.775 263.812 285.138 264.185 284.785 264.123C283.243 263.88 282.879 263.239 281.63 262.582C280.662 262.062 279.653 261.418 278.651 260.594C275.988 258.781 271.945 253.349 271.961 248.707C271.735 246.397 272.103 243.729 272.641 241.889C274.238 236.57 276.444 233.347 278.539 229.874C279.616 228.153 280.709 226.366 281.839 224.446C282.048 224.092 281.315 224.131 281.49 223.819C283.763 219.843 286.433 216.166 288.996 212.274C289.208 211.955 288.42 212.071 288.746 211.546C289.412 210.468 290.395 209.19 291.323 208.279C291.775 207.834 291.654 208.8 292.1 208.348C293.139 207.299 294.151 206.094 295.053 204.869C295.438 204.346 294.359 204.721 294.897 204.069C297.725 200.652 300.767 197.317 304.646 194.572C305.705 193.836 306.779 193.144 307.897 192.488C308.225 192.298 309.235 193.019 309.737 192.342C309.583 192.043 309.343 191.737 309.148 191.441C315.464 186.36 322.334 181.969 330.119 178.302C330.448 178.15 329.61 177.846 330.249 177.549C333.973 175.835 337.915 174.198 342.545 174.101C343.007 174.097 342.926 175.213 344.2 174.896C344.398 174.836 346.081 174.574 346.757 174.366C346.806 174.347 346.85 174.327 346.885 174.307C346.943 174.269 346.622 173.758 347.17 173.731C350.33 173.584 353.657 173.64 356.815 173.91C357.328 173.954 356.789 174.514 357.157 174.551C359.738 174.806 362.536 174.353 365.006 174.836C366.65 175.162 366.056 176.12 366.934 177.054C367.044 177.186 368.087 177.203 368.129 177.749C368.267 179.123 367.785 180.628 367.991 182.092C368.04 182.407 369.365 182.066 368.584 182.829C368.528 182.88 367.549 183.135 367.311 183.395C367.141 183.575 367.448 184.129 367.107 184.359C366.76 184.59 366.392 184.126 365.818 184.399C365.255 184.675 365.509 185.305 364.374 185.389ZM449.497 213.324C448.485 213.6 449.781 215.056 450.134 214.03C450.149 213.978 449.548 213.309 449.497 213.324ZM398.781 164.326C400.024 165.074 400.759 163.748 399.847 163.161C398.938 162.576 398.402 164.099 398.781 164.326ZM386.576 166.448C388.055 166.895 387.857 164.137 386.452 164.924C386.368 164.97 386.488 166.423 386.576 166.448ZM362.878 177.352C362.898 177.378 363.616 177.396 363.642 177.37C364.026 176.749 362.561 176.713 362.878 177.352ZM374.771 170.093C375.302 170.285 376.353 169.467 375.686 169.207C375.143 168.994 374.083 169.859 374.771 170.093ZM413.694 244.222C413.666 244.208 413.229 244.502 413.335 244.627C413.678 245.03 414.179 244.468 413.694 244.222ZM356.439 179.816C359.164 178.447 361.887 179.546 358.844 180.923C358.293 181.172 359.634 179.662 358.863 179.85C357.452 180.197 357.319 181.898 355.692 181.908C355.399 181.908 356.281 179.89 356.442 179.811C356.441 179.812 356.44 179.814 356.439 179.816ZM447.464 212.064C447.433 212.058 446.906 212.562 446.913 212.591C447.079 213.304 448.138 212.293 447.464 212.064ZM385.533 255.207C385.479 255.166 383.852 255.459 383.8 255.518C383.146 256.688 386.486 256.091 385.533 255.207ZM457.35 177.097C456.368 177.276 455.525 176.925 455.314 175.946C455.993 176.334 456.679 176.695 457.35 177.097Z" fill="#E8E5DA" fill-opacity="0.75"/>
<path d="M361.167 219.773C357.907 220.074 354.266 220.289 350.834 220.528C349.131 220.646 347.469 220.776 346.189 220.904C345.578 220.961 345.028 221.034 344.929 221.011C344.892 220.993 344.945 220.966 345.388 220.777C345.831 220.53 346.558 220.449 349.038 218.601C349.793 217.777 349.113 218.05 348.451 218.811C347.49 219.938 346.986 218.765 346.191 219.778C344.572 221.961 343.777 225.126 341.976 228.315C341.369 229.386 340.418 227.36 339.813 228.508C339.508 229.092 339.21 229.685 338.918 230.287C338.719 230.566 338.714 230.572 338.765 230.007C338.815 229.473 338.837 228.204 338.432 226.912C338.045 225.614 337.354 224.629 336.986 224.224C336.601 223.797 336.506 223.786 336.65 223.89C336.989 224.174 338.719 225.133 340.353 225.921C341.39 226.429 342.505 226.914 343.517 227.309C344.015 227.504 344.507 227.679 344.803 227.785C344.942 227.838 345.051 227.872 344.893 227.861C344.799 227.856 344.655 227.835 344.19 227.808C343.949 227.797 343.611 227.777 342.973 227.805C342.612 227.822 342.169 227.855 341.583 227.947C340.891 228.061 339.826 228.257 338.368 228.884C337.929 229.167 337.313 229.166 335.186 231.227C334.612 231.837 334.079 232.456 333.398 233.615C332.714 234.801 332.132 236.261 331.86 237.971C331.264 241.627 332.465 244.757 333.42 246.322C335.361 249.297 336.138 249.342 336.575 249.728C336.988 249.983 337.079 249.99 337.072 249.97C336.933 249.804 335.63 249.248 334.43 248.865C333.193 248.458 331.808 248.092 330.581 247.833C329.975 247.704 329.385 247.603 329.066 247.552C328.921 247.524 328.816 247.519 329.098 247.496C329.174 247.489 329.28 247.48 329.427 247.463C329.6 247.443 329.84 247.413 330.17 247.352C330.443 247.299 331.065 247.178 331.88 246.888C332.475 246.65 334.407 246.04 336.549 243.867C329.744 250.154 324.187 251.137 319.454 252.659C314.89 253.911 309.967 255.024 308.664 255.585C306.226 256.748 303.502 257.427 301.308 257.692C300.226 257.831 299.247 257.889 298.756 257.919C298.523 257.931 298.407 257.946 298.673 257.896C298.947 257.811 299.631 257.819 301.445 256.877C298.544 258.699 293.364 258.64 291.063 257.505C288.578 256.469 287.617 255.468 286.83 254.743C285.394 253.285 284.967 252.468 284.527 251.759C283.739 250.382 283.414 249.51 283.09 248.635C282.49 246.907 282.128 245.535 281.859 243.438C281.309 239.581 282.377 234.747 284.235 231.636C286.059 228.443 288.102 226.483 289.877 224.915C293.485 221.841 296.618 220.027 299.676 218.219C305.751 214.722 311.487 211.781 317.184 208.672C317.666 208.41 318.159 208.145 318.663 207.875C330.86 201.713 342.527 202.244 353.411 202.087C356.671 202.126 360.078 202.296 364.016 203.372C366.363 204.091 365.49 202.282 365.984 202.329C370.186 203.013 371.739 204.738 372.321 205.896C372.921 207.187 373.115 208.201 374.861 211.092C375.575 212.349 376.125 213.687 376.498 215.002C378.898 225.741 374.169 232.03 370.277 237.183C365.284 242.623 361.572 246.646 352.327 249.327C350.377 249.634 347.468 250.235 343.389 247.964C340.832 246.43 339.514 244.323 338.85 243.08C338.17 241.775 337.908 241.02 337.657 240.519C337.199 239.564 336.903 239.603 336.627 239.636C336.363 239.671 336.122 239.679 336.008 238.685C335.903 237.752 336.032 235.837 336.944 233.698C337.184 233.151 338.187 235.542 338.872 233.391C339.327 232.085 339.888 230.729 340.513 229.405C342.099 226.028 344.149 222.819 345.324 221.344C348.504 217.496 349.027 216.917 352.22 213.591C355.512 210.274 359.835 207.179 364.137 204.382C365.632 203.407 367.109 202.47 368.533 201.54C369.72 200.769 367.299 200.341 369.164 198.988C371.018 197.595 376.558 195.102 378.623 194.716C380.669 194.293 380.3 195.771 380.736 195.901C384.165 197.002 389.997 191.992 391.218 191.804C394.154 191.134 397.046 190.36 401.942 191.42C405.159 192.035 409.629 195.223 411.121 199.013C412.712 202.707 412.531 205.59 412.278 207.903C411.603 212.523 410.149 215.666 408.135 219.026C407.23 220.458 406.215 221.909 404.543 223.507C403.629 224.321 402.805 225.155 400.611 226.173C400.048 226.412 399.332 226.696 398.229 226.892C397.127 227.006 395.454 227.475 392.373 225.978C390.9 225.234 389.304 223.617 388.582 221.974C387.828 220.348 387.735 218.901 387.764 217.957C387.871 215.961 388.33 215.054 388.667 214.277C392.928 206.949 397.672 206.082 401.638 204.331C408.967 201.767 416.095 200.699 423.634 200.781C424.793 200.835 426.256 201.017 428.036 201.942C429.809 202.833 431.479 204.644 432.237 206.295C433.727 209.675 433.266 211.498 433.14 212.88C432.686 215.554 431.967 216.978 431.284 218.401C429.885 221.139 428.33 223.21 426.63 225.13C425.986 225.849 425.321 226.533 424.633 227.188C417.372 233.795 410.665 237.455 402.749 241.284C401.429 241.889 400.074 242.484 398.414 243.06C397.575 243.345 396.666 243.632 395.484 243.868C394.248 244.04 392.928 244.502 389.85 243.731C388.389 243.3 387.449 242.788 387.025 242.716C386.57 242.611 386.531 242.863 386.454 243.096C386.376 243.319 386.251 243.544 385.531 243.19C384.893 242.869 383.223 241.676 382.136 239.014C380.567 234.319 381.539 232.589 381.775 231.039C385.599 220.466 389.222 216.902 394.719 210.651C396.173 209.191 397.663 207.749 400.112 206.176C401.446 205.428 402.661 204.432 406.259 203.856C407.974 203.629 411.429 203.657 414.509 206.136C417.523 208.639 418.163 211.512 418.418 213.119C418.831 217.813 417.838 219.264 417.194 221.194C416.462 222.973 415.612 224.455 414.677 225.839C412.807 228.583 410.578 230.893 408.044 232.836C407.238 233.453 406.424 234.009 405.604 234.519C403.852 235.57 405.076 232.788 403.328 233.69C398.269 236.155 392.012 237.756 385.156 237.817C382.352 237.682 379.142 237.699 375.676 234.749C373.979 233.252 372.915 230.682 372.772 228.646C372.587 226.576 372.867 224.964 373.09 223.563C373.241 221.782 373.313 220.093 373.135 218.477C378.684 210.888 387.659 206.478 394.241 205.475C398.514 204.893 395.252 207.85 399.802 205.61C400.847 205.134 398.985 204.06 400.619 203.463C404.91 201.938 409.628 201.141 414.564 200.849C416.409 200.693 419.91 201.364 422.122 203.9C424.263 206.349 424.555 208.626 424.718 210.185C424.904 213.359 424.338 215.342 423.606 217.478C422.715 219.711 424.119 219.837 423.935 220.651C423.683 221.49 423.247 222.394 422.439 223.4C420.385 225.744 418.001 227.844 412.148 228.004C410.621 227.945 408.467 227.739 405.951 226.125C403.358 224.555 401.585 221.158 401.403 219.04C401.046 214.731 402.262 213.655 402.764 212.589C403.271 211.98 403.676 211.542 403.861 211.269C411.002 201.673 416.856 197.453 425.615 193.453C427.729 192.632 424.514 191.883 426.613 191.032C428.938 190.168 431.232 189.373 434.714 189.091C435.299 189.056 435.957 189.065 436.703 189.173C437.571 189.304 438.47 189.536 439.52 190.05C441.662 191.031 443.461 193.315 444.041 194.929C445.202 198.258 444.665 199.418 444.583 200.444C444.211 202.345 443.795 203.117 443.413 203.959C442.641 205.527 441.881 206.611 441.051 207.67C439.386 209.74 437.505 211.529 434.859 213.076C431.937 214.724 429.143 215.574 426.211 216.046C424.735 216.27 423.234 216.392 421.522 216.321C419.748 216.148 418.058 216.308 414.581 214.445C414.307 214.282 414.031 214.101 413.757 213.902C411.717 212.423 410.91 210.526 410.78 209.812C410.631 209.026 410.893 209.038 411.188 209.199C411.489 209.366 411.878 209.662 412.051 209.612C412.241 209.561 412.115 209.208 411.804 208.027C411.242 205.487 411.851 203.907 412.201 202.864C412.602 201.8 412.986 201.102 413.311 200.484C413.965 199.273 414.446 198.398 414.91 197.555C415.838 195.903 416.767 194.409 418.787 193.264C418.998 193.146 419.223 193.031 419.461 192.923C420.446 192.478 420.622 193.955 420.864 193.982C424.46 194.554 425.121 190.671 425.849 190.271C427.63 189.271 429.413 188.593 431.476 188.176C432.528 187.975 433.605 187.82 435.117 187.842C435.882 187.868 436.77 187.899 438.111 188.264C439.323 188.604 441.879 189.586 443.306 192.431C444.881 196.272 443.737 197.794 443.445 198.864C442.993 199.926 442.529 200.589 442.087 201.187C441.19 202.367 440.329 203.204 439.458 204.037C437.723 205.665 435.992 207.142 434.112 208.902C433.297 209.644 436.362 209.387 433.916 211.416C432.508 212.537 430.986 213.601 429.218 214.56C423.381 218.097 411.582 219.402 405.323 210.52C400.209 202.208 401.606 194.515 405.618 187.705C407.418 184.96 409.793 182.853 412.471 181.355C415.363 180.018 417.514 178.389 423.301 179.517C425.442 179.926 428.667 182.82 428.872 185.817C429.198 188.688 428.238 190.402 427.454 191.668C425.782 193.959 425.241 193.574 425.139 193.243C425.032 192.839 425.236 192.066 425.083 192.117C422.533 192.955 421.62 193.75 420.791 194.909C420.117 195.845 419.657 196.806 419.197 197.037C411.524 200.401 405.206 197.827 398.921 199.423C398.488 199.514 398.059 199.619 397.614 199.738C394.925 198.815 392.28 197.571 389.692 195.329C388.411 194.177 387.078 192.781 386.039 190.513C384.965 188.357 384.612 184.477 386.204 181.644C388.071 178.367 390.016 177.442 391.587 176.479C393.196 175.595 394.662 175.027 396.105 174.541C398.989 173.595 401.708 173.012 404.676 172.663C406.079 172.509 407.52 172.415 409.17 172.493C410.021 172.543 410.859 172.6 412.106 172.895C412.437 172.977 412.776 173.071 413.231 173.238C413.685 173.419 414.2 173.589 415.138 174.236C415.608 174.59 416.253 175.041 417.026 176.22C417.827 177.277 418.496 180.086 417.736 181.999C417.037 183.929 416.161 184.612 415.58 185.138C415.013 185.604 414.598 185.836 414.232 186.031C400.089 190.637 392.809 186.154 383.845 184.673C383.744 184.652 383.631 184.626 383.492 184.59C383.422 184.572 383.346 184.551 383.26 184.525C383.168 184.497 383.107 184.482 382.845 184.388C382.611 184.299 382.319 184.189 381.86 183.929C381.629 183.796 381.352 183.623 381.009 183.345C380.706 183.119 378.25 181.082 378.748 177.528C378.989 175.896 379.819 174.722 380.445 174.08C380.526 173.997 380.604 173.92 380.681 173.848C380.772 173.764 380.766 173.771 380.807 173.734C380.873 173.676 380.936 173.622 380.998 173.572C381.123 173.47 381.24 173.382 381.351 173.304C381.796 172.993 382.135 172.826 382.41 172.701C382.953 172.462 383.282 172.382 383.514 172.323C384.54 172.104 384.571 172.163 384.849 172.134C385.215 172.117 385.454 172.122 385.674 172.126C386.117 172.137 386.47 172.159 386.832 172.186C387.54 172.241 388.204 172.314 388.86 172.4C390.172 172.572 391.44 172.793 392.708 173.061C395.229 173.596 397.713 174.309 400.157 175.244C403.773 176.627 408.179 178.078 412.235 179.633C412.584 179.76 411.551 181.189 412.251 181.438C420.671 184.44 419.609 181.563 426.071 179.948C427.704 179.545 431.188 184.265 431.511 184.629C432.68 185.962 430.634 187.959 431.058 188.266C434.589 190.73 435.9 182.769 441.188 184.096C441.35 184.151 440.293 185.41 440.701 185.665C440.881 185.778 441.066 185.87 441.255 185.948C441.963 186.194 442.719 186.382 443.919 187.244C445.088 187.937 446.609 190.512 446.364 192.392C445.899 195.873 444.701 196.352 443.92 197.063C439.402 199.48 437.171 196.156 433.143 200.217C432.886 200.448 433.282 201.444 433.182 202.602C433.001 203.722 432.674 205.232 429.217 205.7C428.765 205.745 428.274 205.758 427.707 205.718C426.59 205.462 422.245 205.967 418.412 200.719C414.982 195.053 417.663 189.833 419.31 187.592C420.311 186.236 421.205 185.446 421.791 184.974C424.524 182.98 423.699 185.647 423.942 185.511C427.715 183.777 428.983 184.163 429.936 184.508C430.87 184.934 431.496 185.621 433.515 186.306C437.389 187.837 434.287 181.762 435.507 180.564C435.901 180.192 436.775 179.946 437.844 179.864C440.108 179.621 443.197 180.515 444.076 181.119C445.363 181.943 443.506 182.506 444.553 183.065C447.288 184.809 447.675 185.501 448.823 185.278C449.497 185.166 450.161 184.687 450.83 184.365C451.488 184.073 452.272 183.889 453.085 185.223C454.083 186.883 454.231 189.328 453.571 191.134C452.934 192.972 451.829 194.164 450.8 194.94C448.697 196.469 446.724 196.663 444.958 196.697C442.538 196.697 440.432 196.248 438.372 196.482C436.997 196.623 438.33 197.539 437.127 197.875C432.255 199.067 429.43 197.883 423.544 198.92C423.231 198.961 422.531 199.242 421.525 199.447C419.509 199.944 414.664 199.794 413.114 195.16C413.008 194.725 413.554 194.818 413.85 194.557C414.19 194.285 414.089 193.829 413.7 192.095C413.221 189.799 414.43 187.321 415.829 185.814C417.836 183.603 420.174 182.17 421.809 180.954C423.919 179.49 420.31 178.965 423.607 178.097C425.063 177.778 423.109 179.936 425.734 179.31C427.34 178.963 430.329 177.99 433.326 177.901C435.203 177.823 437.068 178.259 438.166 178.87C439.568 179.657 440.071 179.85 440.389 179.535C440.698 179.254 440.639 178.599 440.799 178.683C441.819 179.087 443.808 181.646 444.017 184.079C444.343 186.472 443.832 188.25 443.761 188.521C443.464 189.42 443.107 190.233 442.717 190.995C439.934 196.427 436.161 201.135 431.782 205.028C429.583 206.978 427.25 208.72 424.717 210.244C423.443 211.006 422.153 211.699 420.698 212.331C419.987 212.635 419.216 212.939 418.319 213.192C418.09 213.256 417.864 213.313 417.584 213.373C417.449 213.402 417.319 213.426 417.173 213.45C417.009 213.478 416.84 213.501 416.665 213.518C416.499 213.534 416.282 213.55 416.03 213.549C415.772 213.546 415.55 213.543 415.107 213.467C414.698 213.379 414.234 213.299 413.476 212.805C412.796 212.387 411.986 211.311 411.831 210.316C411.483 207.706 412.477 206.458 413.075 205.458C413.751 204.472 414.435 203.756 415.127 203.083C416.509 201.759 417.91 200.694 419.332 199.678C422.174 197.672 425.084 195.924 428.11 194.264C429.792 193.348 431.536 192.548 433.354 191.862C434.982 191.274 433.401 190.03 433.644 189.924C439.555 187.715 435.902 193.072 439.883 193.927C439.012 190.828 441.14 190.235 446.385 191.558C447.697 192.045 448.238 192.11 448.458 191.792C448.685 191.501 448.542 190.959 448.721 191.003C449.794 191.296 450.824 192.026 451.521 192.957C453.091 195.135 452.768 197.044 452.351 198.062C451.9 199.124 451.244 199.614 450.998 199.847C448.753 201.733 450.02 204.356 448.232 205.094C446.502 205.632 446.146 202.325 444.454 205.435C444.93 206.982 449.19 206.066 448.005 208.971C447.181 210.855 445.958 212.854 444.138 214.834C440.927 217.816 437.008 222.116 428.47 219.909C426.877 219.407 424.294 216.95 424.357 214.144C424.464 211.54 425.182 209.388 428.631 207.982C431.323 207.146 433.564 208.582 434.44 209.561C435.42 210.614 435.808 211.587 436.078 212.444C436.575 214.168 436.499 215.539 436.339 216.768C434.916 223.66 430.812 226.017 428.718 228.089C421.685 233.685 419.23 234.843 414.671 236.917C406.333 240.239 410.287 240.85 405.567 244.118C404.83 244.61 404.213 244.867 403.689 244.953C400.563 245.475 400.977 240.71 399.948 239.98C398.828 239.067 398.457 240.535 397.359 240.138C396.31 239.716 397.93 238.414 395.878 238.686C393.974 239.097 388.494 241.465 387.392 242.511C386.269 243.952 386.554 245.583 385.939 246.43C385.667 246.751 385.233 246.957 384.419 246.917C384.009 246.894 383.503 246.811 382.837 246.6C382.121 246.33 381.481 246.228 379.816 245.021C379.315 244.613 380.154 244.751 380.519 244.494C380.713 244.376 380.83 244.21 380.732 243.947C380.684 243.814 380.581 243.661 380.369 243.408C380.168 243.111 379.785 242.935 379.232 241.632C378.98 241.004 378.886 239.914 379.227 239.05C379.555 238.183 380.054 237.707 380.416 237.413C381.247 236.795 381.654 236.745 382.038 236.623C382.412 236.526 382.719 236.482 383.012 236.451C383.594 236.394 384.112 236.398 384.653 236.442C385.197 236.49 385.741 236.567 386.42 236.777C387.05 237.054 388.114 237.132 389.156 238.991C389.718 240.378 390.303 242.409 389.334 244.566C388.31 246.68 386.554 247.452 385.251 247.925C382.559 248.797 380.152 248.816 377.787 248.794C373.071 248.672 368.566 247.939 364.227 246.832C362.822 246.46 364.364 245 363.565 244.764C359.881 243.631 358.326 243.523 357.49 243.932C357.344 243.917 357.125 243.828 357.159 243.547C357.187 243.298 357.313 243.088 357.402 242.892C357.616 242.494 357.861 242.111 358.163 241.713C358.784 240.921 359.662 240.079 361.198 239.347C359.794 243.001 362.041 245.434 365.872 246.888C365.785 246.861 365.648 246.818 365.423 246.678C365.325 246.635 364.372 245.973 364.318 244.748C364.286 244.161 364.475 243.665 364.649 243.371C364.74 243.215 364.82 243.115 364.863 243.06C364.914 242.997 364.962 242.945 365.005 242.9C365.176 242.724 365.301 242.644 365.333 242.618C365.523 242.49 365.412 242.549 365.333 242.564C365.132 242.621 364.84 242.701 364.512 242.791C360.972 243.649 361.882 245.266 359.636 247.02C358.947 247.548 355.992 246.756 355.626 247.679C354.356 250.694 357.58 253.548 350.314 253.125C349.991 253.095 350.845 251.461 349.755 251.47C349.727 251.47 349.7 251.47 349.672 251.47C349.688 251.469 349.707 251.467 349.747 251.463C349.796 251.456 349.821 251.459 350.05 251.415C350.113 251.402 350.192 251.386 350.342 251.343C350.506 251.281 350.678 251.284 351.302 250.89C351.596 250.662 352.185 250.337 352.64 249.142C353.162 247.907 352.474 246.125 351.877 245.635C351.29 245.045 350.927 244.93 350.684 244.816C350.44 244.717 350.293 244.68 350.178 244.651C349.753 244.557 349.692 244.573 349.597 244.562C349.517 244.557 349.477 244.556 349.444 244.555C349.235 244.553 349.318 244.555 349.299 244.555C349.296 244.555 349.294 244.555 349.291 244.555C349.286 244.556 349.282 244.556 349.279 244.556C349.273 244.557 349.269 244.557 349.267 244.557C349.263 244.558 349.264 244.559 349.268 244.559C349.277 244.56 349.282 244.561 349.292 244.561C349.309 244.563 349.343 244.563 349.36 244.565C349.402 244.567 349.462 244.568 349.504 244.57C349.606 244.572 349.696 244.575 349.801 244.575C349.988 244.577 350.187 244.575 350.366 244.57C350.736 244.56 351.085 244.537 351.418 244.503C352.077 244.436 352.669 244.324 353.207 244.181C353.746 244.038 354.232 243.863 354.677 243.666C354.89 243.568 355.11 243.463 355.273 243.356C355.353 243.303 355.43 243.248 355.44 243.201C355.438 243.18 355.439 243.154 355.318 243.158C355.257 243.163 355.182 243.16 354.873 243.257C354.675 243.359 354.703 243.189 353.652 243.925C353.404 244.123 353.093 244.398 352.758 244.874C352.445 245.366 352.026 245.948 351.954 247.338C351.911 248.619 352.501 249.75 352.991 250.315C353.495 250.909 353.902 251.157 354.196 251.334C352.747 251.336 351.418 251.587 348.804 251.437C347.608 251.377 346.074 251.237 344.244 251.159C343.325 251.119 342.357 251.092 341.275 251.078C340.739 251.069 340.178 251.066 339.517 251.056C339.18 251.05 338.821 251.047 338.321 251.024C338.035 251.009 337.76 251.001 337.2 250.924C336.97 250.887 336.465 250.818 335.83 250.584C335.389 250.419 334.769 250.155 334.058 249.546C333.323 249.008 332.182 247.247 332.176 245.732C332.178 244.712 332.26 243.548 332.92 242.088C333.542 240.662 334.94 239.325 336.169 238.766C338.681 237.654 340.167 237.994 341.416 238.122C343.846 238.527 345.474 239.233 346.982 239.813C346.297 241.62 346.946 242.855 348.111 243.615C348.695 243.995 349.428 244.262 350.236 244.432C350.652 244.524 351.066 244.58 351.523 244.636C351.741 244.659 351.993 244.695 352.231 244.724C352.377 244.755 352.5 244.772 352.665 244.822C352.76 244.857 352.858 244.896 352.971 244.956C353.018 244.978 353.109 245.036 353.238 245.152C353.363 245.274 353.529 245.414 353.738 245.824C354.469 246.451 355.271 246.972 355.952 248.23C355.973 248.923 355.898 250.033 355.227 251.159C354.517 252.371 353.318 253.077 352.449 253.345C350.728 253.833 349.914 253.617 349.06 253.524C347.48 253.263 346.336 252.849 345.2 252.42C342.961 251.543 340.99 250.507 339.237 249.353C338.038 248.555 339.511 247.778 339.418 247.564C338.13 244.261 335.039 246.112 334.162 245.74C332.296 244.864 331.045 244.356 328.889 242.672C328.716 242.511 328.539 242.329 328.361 242.102C328.166 241.849 327.911 241.475 327.727 240.938C327.506 240.309 327.43 239.418 327.736 238.571C328.058 237.707 328.478 237.299 328.861 236.964C330.196 235.989 330.65 236.091 331.186 235.929C332.19 235.733 332.932 235.71 333.68 235.69C335.154 235.664 336.507 235.75 337.851 235.845C340.53 236.044 343.107 236.294 345.815 236.361C345.968 236.373 346.125 236.387 346.35 236.432C346.383 236.438 346.527 236.47 346.673 236.516C346.826 236.566 347.012 236.63 347.277 236.775C347.41 236.849 347.564 236.945 347.741 237.088C347.817 237.138 348.589 237.797 348.809 238.761C349.086 239.763 348.713 240.828 348.363 241.302C348.276 241.431 348.19 241.538 348.108 241.631C348.066 241.679 348.034 241.712 347.999 241.749C347.93 241.82 347.864 241.88 347.803 241.933C347.319 242.336 347.065 242.417 346.887 242.503C346.776 242.552 346.685 242.587 346.6 242.618C346.517 242.649 346.441 242.675 346.368 242.698C346.317 242.715 346.269 242.731 346.221 242.747C346.021 242.809 345.861 242.855 345.716 242.897C345.557 242.941 345.425 242.978 345.292 243.015C344.75 243.163 344.255 243.295 343.756 243.432C342.764 243.705 341.781 243.994 340.78 244.322C340.455 244.427 340.095 247.774 337.363 245.503C337.2 245.342 340.27 243.719 335.788 243.786C332.489 243.806 327.122 242.852 322.019 242.268C319.885 241.993 317.801 241.541 315.66 240.209C315.157 239.838 314.285 239.518 313.373 238.027C312.951 237.293 312.508 235.961 312.97 234.37C313.428 232.773 314.638 231.668 315.568 231.116C318.436 229.519 320.2 229.701 321.894 230.67C322.34 230.973 321.813 231.889 322.41 232.448C324.168 234.252 325.866 231.15 327.459 234.476C328.13 236.05 329.198 237.625 330.334 239.026C331.567 240.612 333.029 241.862 334.555 243.618C334.593 243.677 335.328 243.764 336.011 244.28C336.695 244.76 337.252 245.871 336.715 246.851C336.501 247.243 336.217 247.621 335.876 247.96C333.496 250.227 329.61 250.475 326.897 250.592C325.373 250.626 326.343 252.243 326.074 252.277C323.205 252.493 320.478 252.038 318.036 251.014C311.806 248.175 307.865 242.707 306.568 235.552C306.459 234.737 306.419 233.898 306.48 233.041C306.548 232.099 306.272 230.165 307.163 228.04C307.999 225.925 310.032 224.019 312.132 223.574C312.494 223.492 312.857 223.449 313.213 223.448C318.026 223.947 316.173 232.141 322.96 229.694C323.559 229.541 324.202 228.997 324.92 228.324C326.177 227.034 327.812 225.777 328.774 224.854C329.102 225.281 328.363 226.169 327.571 226.313C326.756 226.532 325.736 226.009 325.511 225.109C325.292 224.339 325.568 223.442 326.234 222.771C325.929 219.845 328.197 216.732 330.749 214.648C338.367 208.791 347.798 206.397 357.2 202.887C357.396 202.818 357.674 202.418 358.022 201.909C358.73 200.892 359.701 199.448 360.704 199.316C362.918 199.033 364.292 200.21 365.845 200.136C372.347 199.897 378.427 198.81 384.749 200.078C387.115 200.607 386.032 201.741 388.701 202.54C389.958 202.982 391.13 202.851 392.317 203.335C392.357 203.378 392.389 203.392 392.41 203.474C392.437 203.556 392.333 203.65 392.274 203.662C392.164 203.703 392.06 203.705 391.964 203.709C391.764 203.711 391.581 203.693 391.386 203.663C391.007 203.602 390.625 203.497 390.243 203.346C389.48 203.043 388.699 202.556 387.981 201.783C387.066 200.8 386.547 199.049 386.94 197.78C387.364 196.091 388.658 195.519 389.113 194.868C385.676 193.809 386.267 191.185 389.614 187.718C390.27 187.045 388.73 186.558 389.018 186.176C389.181 185.958 389.364 185.771 389.565 185.604C390.778 184.592 392.27 184.506 393.264 183.225C393.534 182.872 392.934 181.782 393.124 181.432C394.763 178.353 400.461 178.716 401.335 178.9C404.918 179.361 405.7 177.367 408.231 177.351C410.676 177.414 407.603 179.216 410.297 178.939C412.825 178.722 415.589 178.463 418.276 178.712C419.608 178.834 420.932 179.091 422.143 179.504C422.764 179.713 423.35 179.959 423.96 180.243C424.266 180.384 424.576 180.54 424.98 180.711C425.192 180.795 425.421 180.899 425.838 180.978C426.081 181.015 426.329 181.057 426.784 180.963C427.205 180.878 427.685 180.584 427.955 180.243C427.753 180.49 427.5 180.535 427.498 180.533C427.479 180.534 427.584 180.535 427.71 180.564C428.352 180.73 428.746 180.52 428.856 180.098C428.986 179.695 428.876 179.188 429.029 179.233C430.681 179.802 432.126 181.102 432.766 182.573C433.527 185.279 432.285 187.217 431.843 190.159C431.11 189.796 430.556 189.422 430.14 189.083C429.261 188.352 428.978 187.832 428.759 187.654C428.548 187.464 428.417 187.582 428.137 187.816C427.863 188.042 427.441 188.402 426.801 188.473C426.486 188.503 426.107 188.456 425.756 188.176C425.405 187.909 425.134 187.317 425.23 186.682C425.495 185.241 426.638 184.366 428.09 183.987C428.789 183.808 430.635 187.36 429.805 188.501C429.683 188.697 429.549 188.854 429.489 188.925C429.425 188.967 429.478 189.048 429.731 188.378C429.992 187.765 429.764 186.546 429.371 186.152C429.005 185.713 428.792 185.702 428.711 185.67C428.554 185.653 428.668 185.577 428.414 185.339C428.411 185.336 428.407 185.332 428.402 185.326C428.293 185.194 427.807 184.291 427.019 183.68C426.256 183.015 425.162 183.041 425.024 183.195C424.355 183.621 424.524 185.14 425.399 185.916C426.454 186.743 427.196 185.705 427.854 185.046C428.495 184.315 429.006 183.615 429.057 183.5C429.473 182.429 429.029 181.61 428.395 181.299C428.089 181.143 427.71 181.112 427.543 181.235C427.468 181.292 427.45 181.403 427.663 181.47C427.852 181.544 428.439 181.479 428.93 181.051C428.197 182.216 426.31 182.557 425.806 182.488C425.431 182.479 425.224 182.459 425.02 182.442C424.817 182.422 424.651 182.402 424.524 182.395C424.252 182.374 424.039 182.362 423.861 182.364C423.673 182.36 423.521 182.368 423.38 182.378C422.816 182.415 422.467 182.492 422.259 182.466C418.271 182.123 414.473 181.89 410.702 183.848C408.271 185.199 409.432 189.034 407.539 189.654C402.346 191.517 397.907 189.763 394.462 193.418C393.977 194.056 393.655 194.96 393.855 195.952C393.991 196.531 394.98 197.444 395.541 197.992C396.068 198.507 396.524 198.687 395.378 196.595C395.304 196.411 393.85 194.785 393.101 194.197C392.599 193.578 392.763 193.678 393.244 193.306C393.458 193.161 394.252 192.181 394.375 192.143C394.705 192.069 395.041 192.264 395.279 192.449C395.389 192.539 395.504 192.638 395.429 192.649C395.372 192.65 395.324 192.636 394.844 192.513C394.714 192.482 394.56 192.443 394.279 192.388C394.028 192.342 393.616 192.256 392.86 192.208C392.468 192.186 391.764 192.156 390.806 192.277C390.447 192.321 389.426 192.478 388.363 192.875C387.217 193.356 386.077 193.695 384.038 195.736C382.186 197.508 380.984 201.069 380.994 202.708C380.868 204.681 381.24 206.155 381.6 207.198C382.136 208.67 382.617 209.352 383.007 209.925C383.862 211.105 384.452 211.592 384.889 211.974C385.004 212.07 385.09 212.138 385.146 212.183C385.209 212.232 385.268 212.277 385.324 212.32C385.437 212.405 385.538 212.477 385.629 212.541C386.015 212.805 386.16 212.884 386.299 212.967C386.581 213.129 386.629 213.153 386.684 213.191C386.756 213.247 386.658 213.241 386.517 213.25C385.032 213.199 381.994 213.279 379.355 212.594C377.76 212.16 375.619 209.723 374.724 209.141C372.236 207.438 369.642 210.301 367.955 208.436C366.147 206.581 369.175 203.183 364.56 202.363C364.781 205.639 364.823 209.024 365.016 212.324C363.404 212.511 361.793 212.718 360.159 212.96C353.476 213.939 346.103 215.887 340.437 219.364C339.614 219.889 341.361 220.883 340.558 221.465C339.599 222.169 338.722 222.753 338.074 223.183C337.259 223.718 336.652 224.175 336.45 224.294C336.348 224.343 336.356 224.3 336.445 223.985C336.516 223.654 336.743 223.104 336.617 221.717C336.53 221.02 336.39 220.09 335.626 218.706C334.604 216.464 330.736 213.867 327.883 213.789C326.432 213.657 325.201 213.784 323.857 214.207C322.511 214.767 320.981 215.004 318.509 218.372C317.24 220.147 316.119 223.586 316.579 226.71C316.989 229.836 318.312 231.845 319.228 233.017C321.151 235.303 322.09 235.639 322.681 236.086C323.806 236.789 323.807 236.866 323.72 237.032C323.623 237.123 323.408 237.188 323.17 237.24C322.541 234.198 318.701 234.777 318.161 235.282C317.972 235.392 317.99 235.422 318.068 235.236C318.224 234.892 317.429 234.261 317.252 233.905C316.402 232.743 319.479 233.754 320.069 233.316C320.463 232.986 320.518 232.778 320.405 232.752C319.907 232.77 315.415 236.277 317.949 238.999C318.026 239.081 319.279 238.947 320.409 238.544C321.556 238.165 322.51 237.507 322.653 237.45C324.422 236.581 322.142 238.787 322.792 239.419C322.792 239.419 322.793 239.419 322.793 239.42C323.988 240.539 326.627 241.759 328.337 240.106C328.464 239.951 328.574 239.509 328.402 239.187C328.239 238.891 327.709 238.627 326.695 239.593C325.826 240.393 325.144 242.227 325.608 243.537C325.797 244.072 327.143 243.932 327.2 244.23C327.519 245.498 327.728 245.6 327.56 245.855C327.415 246.07 327.049 246.309 326.654 246.661C325.85 247.342 324.952 248.423 324.632 249.056C324.575 249.161 324.538 249.242 324.514 249.299C324.383 249.843 322.691 246.838 322.257 246.085C321.04 243.8 323.518 245.312 323.625 245.173C325.218 242.978 322.72 242.786 321.089 242.6C321.02 240.559 320.205 239.612 319.785 239.682C319.287 239.774 319.886 240.644 320.143 242.444C320.157 242.647 320.101 242.651 320.338 242.604C320.551 242.56 320.933 242.504 321.089 242.6C320.806 243.419 320.549 244.107 320.503 244.637C320.485 244.899 320.52 245.125 320.721 245.27C320.941 245.396 321.262 245.526 322.319 245.152C323.216 244.789 324.591 244.077 325.96 242.316C327.36 240.591 328.171 237.724 327.98 235.686C327.517 231.541 325.975 230.653 325.297 230.083C323.771 229.187 323.24 230.077 323.149 231.141C323.127 231.919 323.103 232.739 323.185 233.373C323.535 234.218 324.331 234.863 327.815 234.644C330.61 234.427 329.629 231.586 332.013 230.852C333.928 230.246 336.041 230.119 338.222 230.13C339.311 230.135 340.404 230.176 341.458 230.207C341.963 230.225 342.492 230.235 342.886 230.249C343.061 230.26 343.268 230.258 343.207 230.305C343.192 230.317 343.136 230.338 343.028 230.375C342.945 230.409 342.705 230.466 342.13 230.699C342.033 230.741 341.698 230.872 341.22 231.128C340.738 231.402 340.073 231.739 339.022 232.758C339.061 232.728 336.241 235.274 336.208 239.354C335.983 243.57 339.394 246.797 339.749 246.95C341.116 248.017 341.938 248.273 342.522 248.499C343.093 248.699 343.508 248.783 343.6 248.802C343.761 248.835 343.892 248.858 344.004 248.875C344.227 248.908 344.373 248.921 344.483 248.929C342.685 248.522 340.798 248.228 339.121 248.254C337.078 248.298 338.969 249.929 337.606 250.022C336.373 250.118 335.202 250.058 334.413 249.999C334.219 249.984 334.058 249.968 333.976 249.948C333.898 249.926 333.871 249.911 334.146 249.828C334.281 249.784 334.523 249.72 334.965 249.555C335.469 249.33 336.188 249.193 337.872 247.863C338.819 247.034 340.024 245.941 341.004 243.413C341.941 240.935 341.728 238.228 341.111 236.476C340.587 234.941 339.938 234.039 339.5 233.468C339.103 232.964 338.762 232.624 338.483 232.368C337.988 231.925 337.942 231.925 337.923 231.909C337.904 231.899 337.954 231.939 338.003 231.974C338.121 232.06 338.29 232.17 338.49 232.289C338.874 232.517 339.337 232.753 339.844 232.963C340.145 233.083 340.318 231.304 341.273 231.865C344.057 233.469 346.878 235.126 349.28 236.391C350.396 237.003 351.771 237.565 351.647 237.604C351.557 237.617 351.371 237.563 350.486 237.567C349.729 237.742 347.521 237.098 343.445 240.494C341.482 242.283 340.378 244.846 340.101 246.643C339.822 248.315 339.983 249.402 340.087 250.03C340.336 251.298 340.538 251.542 340.613 251.706C342.118 254.72 342.918 255.021 343.407 255.573C343.693 255.831 343.894 255.99 344.055 256.113C344.394 256.37 344.47 256.411 344.572 256.478C344.76 256.597 344.772 256.594 344.787 256.598C344.796 256.591 344.694 256.522 344.572 256.447C344.328 256.298 343.993 256.115 343.646 255.941C342.957 255.593 342.19 255.263 341.504 255.022C341.138 254.893 340.747 254.786 340.433 254.73C340.132 254.673 339.863 254.679 340.052 254.742C340.295 254.687 340.841 255.317 344.138 253.89C345.755 253.164 347.966 251.052 348.818 248.967C349.734 246.845 349.697 245.514 349.696 244.684C349.598 242.215 348.426 239.391 346.914 237.649C345.388 235.892 344.463 235.388 343.464 234.798C341.395 233.737 340.911 233.774 340.213 233.583C339.554 233.446 339.27 233.422 339.008 233.391C338.756 233.365 338.548 233.352 338.43 233.345C337.951 233.322 337.925 233.326 337.936 233.311C337.999 233.286 338.333 233.237 338.698 233.182C339.432 233.071 340.337 232.946 341.237 232.849C343.049 232.649 344.908 232.555 346.554 232.618C350.928 232.814 356.547 233.701 362.213 237.384C363.142 237.962 364.603 238.764 366.238 241.243C367.984 243.517 368.572 248.867 367.277 251.542C365.276 256.117 363.135 256.8 362.159 257.508C361.888 257.662 361.651 257.782 361.439 257.884C361.312 257.945 361.286 257.956 361.233 257.98C361.184 258.002 361.136 258.023 361.09 258.044C360.905 258.125 360.741 258.191 360.592 258.248C360.294 258.362 360.056 258.44 359.852 258.503C359.65 258.566 359.468 258.615 359.333 258.65C359.233 258.676 359.141 258.697 359.056 258.717C358.887 258.755 358.745 258.784 358.617 258.808C358.34 258.86 358.245 258.871 358.091 258.893C357.949 258.913 357.832 258.926 357.74 258.935C357.343 258.975 357.092 258.984 356.864 258.992C356.401 259.006 356.024 259.003 355.666 258.998C354.948 258.986 354.295 258.961 353.649 258.934C353.004 258.907 352.377 258.877 351.751 258.848C351.439 258.834 351.133 258.819 350.818 258.805C350.662 258.798 350.503 258.791 350.346 258.784C350.262 258.78 350.189 258.777 350.095 258.774C350.045 258.772 350.02 258.77 349.954 258.769C349.925 258.769 349.896 258.768 349.865 258.768C349.857 258.767 349.815 258.768 349.777 258.768C349.756 258.769 349.732 258.769 349.699 258.77C349.682 258.77 349.663 258.77 349.639 258.771C349.627 258.771 349.614 258.771 349.599 258.771C349.584 258.771 349.611 258.771 349.552 258.772C349.486 258.773 349.417 258.775 349.207 258.772C349.092 258.77 348.963 258.771 348.605 258.747C348.414 258.731 348.186 258.719 347.658 258.637C347.384 258.591 347.041 258.536 346.42 258.363C345.775 258.131 344.931 258.059 342.868 256.591C341.876 255.815 340.326 254.481 339.282 251.766C338.174 249.084 338.59 245.308 339.721 243.255C342.093 239.112 343.766 238.964 344.588 238.383C346.271 237.605 346.598 237.647 346.998 237.528C347.665 237.384 347.811 237.38 347.981 237.354C348.269 237.318 348.342 237.314 348.42 237.306C351.263 237.386 354.474 237.086 356.958 236.439C361.287 235.278 360.042 233.841 361.256 232.444C361.438 232.173 361.667 231.944 361.579 231.862C361.55 231.845 361.507 231.834 361.381 231.859C361.257 231.885 361.091 231.925 360.673 232.099C360.571 232.142 360.46 232.191 360.323 232.255C360.151 232.338 359.95 232.439 359.709 232.573C359.468 232.708 359.186 232.874 358.847 233.1C358.464 233.358 357.789 233.836 357.017 234.58C356.624 234.96 356.184 235.424 355.71 236.033C355.183 236.699 354.196 238.141 353.566 239.953C351.982 243.6 353.007 249.963 355.396 252.815C356.458 254.314 357.757 255.406 358.411 255.883C358.983 256.309 359.495 256.624 359.948 256.876C360.854 257.377 361.533 257.639 362.075 257.83C362.49 257.974 362.609 257.999 362.689 258.019C362.759 258.034 362.767 258.03 362.755 258.019C362.726 257.996 362.617 257.947 362.494 257.89C362.239 257.773 361.908 257.617 361.579 257.445C360.916 257.101 360.24 256.691 359.73 256.303C359.227 255.914 358.849 255.557 358.974 255.26C359.083 254.915 359.893 254.864 362.183 253.759C362.21 253.745 362.007 253.838 361.735 253.944C361.49 254.039 361.153 254.155 360.821 254.245C360.16 254.425 359.681 254.475 359.406 254.483C358.845 254.49 358.908 254.386 359.012 254.293C359.129 254.196 359.323 254.082 359.374 253.933C359.435 253.785 359.323 253.596 359.085 253.381C358.848 252.508 358.785 252.855 359.437 253.292C360 253.779 361.814 253.962 362.183 253.759C362.685 253.386 363.422 253.514 365.89 250.821C367.042 249.601 368.62 246.191 368.378 243.421C368.169 240.331 367.264 239.008 366.567 237.888C364.236 234.766 363.135 234.727 362.547 234.312C362.196 234.144 361.963 234.058 361.797 234.001C361.627 233.944 361.55 233.929 361.509 233.924C361.464 233.919 361.443 233.922 361.443 233.932C361.45 233.973 361.706 234.08 361.986 234.18C362.588 234.39 363.475 234.625 364.332 234.814C366.095 235.204 367.872 235.433 368.526 235.379C369.338 235.31 369.077 233.743 369.492 233.733C372.8 233.652 376.215 233.464 378.423 233.04C378.954 232.938 379.382 232.818 379.522 232.742C379.649 232.689 379.517 232.576 378.452 233.103C377.892 233.405 377.066 233.892 376.033 234.996C375.008 236.07 373.886 237.93 373.44 239.871C372.592 243.918 373.732 245.756 373.958 246.372C375.688 249.823 377.935 251.258 379.206 252.014C380.545 252.764 381.374 252.996 382.009 253.176C383.25 253.492 383.782 253.488 384.289 253.506C384.784 253.507 385.15 253.486 385.786 253.38C386.115 253.32 386.499 253.248 387.177 253.035C387.909 252.722 388.696 252.773 391.392 250.709C392.817 249.561 395.746 246.494 396.21 241.567C396.599 236.669 394.632 233.694 393.65 232.321C391.457 229.589 390.59 229.439 389.915 228.963C388.672 228.288 388.393 228.288 388.145 228.211C387.738 228.127 387.913 228.231 388.137 228.296C388.545 228.375 388.865 228.439 389.158 228.496C389.264 228.534 388.97 230.222 389.241 230.291C392.167 231.066 394.262 229.173 396.387 227.072C397.086 226.504 397.786 225.933 398.525 225.368C402.543 222.287 405.923 221.001 409.788 222.174C412.73 220.129 417.377 218.477 419.553 217.441C421.796 216.359 419.125 214.183 419.159 214.076C419.255 213.146 418.464 213.222 418.126 215.131C418.058 215.654 417.887 216.515 418.582 218.561C418.989 219.59 419.53 220.989 421.47 222.885C423.137 224.613 428.279 227.706 434.369 225.697C438.562 224.197 440.182 221.962 441.348 220.065C442.451 218.105 443.037 216.014 442.941 213.454C442.871 210.931 441.716 207.94 439.995 206.005C438.287 204.03 436.503 203.144 435.299 202.695C433.086 201.949 432.296 202.157 431.655 202.208C431.054 202.301 430.764 202.445 430.592 202.553C430.265 202.776 430.43 202.876 430.752 202.699C430.919 202.61 431.155 202.429 431.447 202.122C432.139 201.42 433.255 199.791 433.808 198.456C434.092 197.799 434.242 197.209 434.209 197.042C434.198 196.882 433.902 197.167 433.903 198.63C433.916 199.615 434.224 201.358 435.376 203.171C436.647 205.172 438.282 206.229 439.262 206.687C440.284 207.16 440.861 207.223 441.195 207.263C441.841 207.307 441.642 207.211 441.223 207.472C441.078 207.555 441.396 209.005 441.358 209.066C440.442 211 440.249 207.397 439.76 206.837C437.998 205.277 436.228 204.574 434.245 205.913C433.745 206.242 433.216 206.666 432.663 207.198C431.848 207.938 432.169 213.856 431.255 214.928C430.602 215.646 430.205 215.503 429.762 215.395C429.351 215.265 428.824 215.235 428.565 215.789C428.547 215.832 428.736 216.061 428.894 216.307C429.065 216.536 429.138 216.869 429.266 216.682C429.366 216.519 429.622 216.246 430.173 215.144C430.577 214.07 432.078 211.769 431.177 206.449C430.674 203.711 429.053 200.569 427.001 198.526C425.1 196.575 423.024 195.447 421.375 194.817C418.764 193.839 416.955 193.833 416.121 193.811C415.626 193.808 415.21 193.83 414.85 193.86C414.535 193.887 414.3 193.917 414.071 193.951C413.62 194.018 413.291 194.092 413.074 194.145C412.149 194.386 412.058 194.484 411.964 194.533C411.865 194.621 412.23 194.502 412.605 194.331C413.399 193.974 414.459 193.35 415.466 192.634C417.518 191.182 419.506 189.291 421.074 187.198C421.567 186.539 419.494 186.256 420.147 185.31C421.111 183.885 422.012 182.366 422.826 180.791C422.787 180.902 422.542 181.281 422.313 182.616C422.121 183.873 421.906 186.652 423.608 190.024C425.28 193.437 428.638 195.63 430.514 196.199C432.488 196.854 433.454 196.711 433.955 196.631C434.436 196.514 434.248 196.391 433.934 196.348C433.309 196.294 433.299 194.975 433.051 194.652C432.184 193.711 431.381 194.295 430.987 195.097C430.571 195.905 430.558 196.898 430.464 196.988C430.111 197.332 429.827 197.644 429.718 197.821C429.616 197.98 429.676 198.074 430.197 197.503C430.654 196.924 431.726 195.779 432.313 192.63C433.043 189.542 431.52 184.424 429.509 182.382C427.571 180.182 426.264 179.786 425.656 179.537C425.028 179.332 424.913 179.404 425.004 179.47C426.622 180.329 435.12 180.031 437.5 178.215C437.525 178.188 437.542 178.163 437.55 178.14C437.555 178.119 437.527 177.898 437.254 177.739C436.978 177.603 436.43 177.449 435.193 178.225C434.063 178.938 431.656 181.248 430.933 185.605C430.193 189.969 432.025 193.838 433.552 195.177C434.034 195.631 434.543 195.976 435.043 196.207C435.25 196.316 437.188 197.164 438.799 197.381C440.461 197.66 441.331 197.484 441.653 198.588C441.681 198.658 441.492 199.081 441.423 199.475C441.393 199.673 441.417 199.868 441.541 200.008C441.656 200.147 441.884 200.224 442.027 200.176C442.172 200.126 442.161 200.156 441.994 200.245C441.385 200.5 439.667 201.37 438.004 200.844C437.682 200.742 436.961 200.294 436.367 200.057C436.075 199.933 435.821 199.861 435.753 199.822C435.688 199.772 435.811 199.785 436.367 199.523C436.634 199.401 436.98 199.243 437.419 198.974C437.485 198.919 438.026 198.782 438.789 197.974C439.508 197.172 440.634 195.507 440.496 192.299C440.48 189.14 438.011 184.826 435.383 183.192C432.778 181.447 430.92 181.56 430.001 182.35C429.776 182.551 429.607 183.242 429.281 183.9C428.973 184.56 428.523 185.21 428.288 185.402C427.768 185.553 427.623 185.494 427.712 184.895C427.794 184.441 427.146 183.693 427.518 182.959C427.831 182.405 428.77 181.968 429.075 181.689C429.137 181.633 429.147 181.595 428.996 181.676C428.833 181.783 428.557 181.893 427.729 182.771C427.304 183.252 426.711 183.903 425.916 185.418C425.203 186.955 423.717 189.849 424.557 195.123C425.466 200.578 429.447 204.46 431.553 205.766C433.656 207.147 434.852 207.513 435.724 207.855C435.523 207.876 435.322 207.901 435.12 207.932C434.307 208.061 430.509 209.986 428.514 207.307C428.201 206.887 429.284 205.741 427.989 205.261C421.859 202.979 415.012 202.261 408.751 199.752C406.53 198.865 408.237 196.998 405.977 195.829C403.688 194.65 399.097 192.938 395.901 193.079C395.267 193.099 394.769 193.247 394.419 193.493C393.492 194.713 393.587 197.165 391.62 196.872C390.409 196.708 389.138 196.557 387.901 196.444C387.287 196.389 386.673 196.342 386.163 196.316C385.911 196.302 385.671 196.294 385.58 196.295C385.547 196.295 385.517 196.3 385.751 196.298C385.816 196.297 385.888 196.296 386.041 196.291C386.19 196.284 386.359 196.279 386.807 196.239C386.915 196.229 387.037 196.217 387.179 196.2C387.345 196.181 387.618 196.146 387.933 196.095C388.256 196.042 388.649 195.971 389.202 195.839C390.071 195.517 391.452 195.659 395.551 192.894C395.813 192.702 396.087 192.491 396.374 192.254C396.517 192.136 396.663 192.012 396.812 191.88C396.887 191.815 396.962 191.747 397.038 191.678C397.164 191.563 397.374 191.366 397.547 191.195C398.968 189.787 400.743 187.596 401.89 184.309C404.635 177.352 400.996 169.048 398.447 166.667C397.802 165.932 397.202 165.362 396.659 164.893C396.577 164.823 396.558 164.807 396.532 164.785C396.507 164.764 396.482 164.743 396.456 164.722C396.406 164.68 396.356 164.639 396.307 164.599C396.209 164.518 396.112 164.441 396.017 164.367C395.639 164.07 395.291 163.822 394.969 163.606C394.327 163.175 393.791 162.87 393.329 162.626C392.407 162.144 391.765 161.891 391.247 161.696C390.99 161.6 390.765 161.523 390.565 161.458C390.419 161.41 390.345 161.387 390.245 161.357C389.495 161.131 389.07 161.042 388.736 160.972C393.154 161.889 397.078 162.867 400.477 163.533C402.148 163.865 403.693 164.105 404.663 164.218C405.137 164.279 405.461 164.3 405.391 164.369C405.32 164.459 404.818 164.519 403.44 165.274C402.739 165.652 401.891 166.119 400.629 167.159C399.343 168.341 397.268 169.909 395.563 174.609C393.701 179.274 395.359 186.202 397.278 188.702C399.128 191.516 400.587 192.496 401.586 193.252C403.578 194.61 404.426 194.831 405.121 195.111C405.803 195.354 406.199 195.449 406.537 195.527C407.75 195.776 407.875 195.694 408.007 195.688C408.168 195.638 407.745 195.584 407.278 195.599C406.473 195.62 405.337 195.783 404.424 195.999C403.795 196.15 403.868 196.458 403.855 196.79C403.854 196.955 403.836 197.128 403.753 197.286C403.677 197.44 403.505 197.594 403.405 197.646C403.332 197.677 403.39 197.702 403.958 197.341C404.485 196.886 405.823 196.437 407.895 192.761C410.242 188.737 409.589 182.529 408.281 180.236C407.048 177.673 406.059 176.947 405.535 176.441C404.99 175.977 404.772 175.871 404.696 175.809C404.623 175.756 404.697 175.775 404.833 175.795C405.328 175.908 407.129 176.069 408.687 175.967C409.474 175.927 410.239 175.842 410.784 175.77C411.312 175.715 411.685 175.6 411.22 175.925C410.752 176.38 409.704 176.691 407.816 179.929C407.028 181.613 405.386 184.473 406.533 190.2C407.13 192.982 408.963 196.163 411.226 198.103C413.481 200.096 415.746 200.945 417.353 201.327C420.594 201.982 421.509 201.484 422.272 201.291C423.512 200.796 423.468 200.427 423.551 200.138C423.583 199.847 423.492 199.615 423.397 199.4C423.195 198.974 422.952 198.612 422.765 198.263C422.576 197.917 422.414 197.6 422.299 197.311C422.178 197.03 422.123 196.738 421.749 196.71C421.241 196.728 422.014 198.099 423.196 198.477C423.893 198.793 424.516 199.014 424.568 199.02C424.984 199.084 425.04 199.376 425.005 199.288C424.929 199.217 424.839 198.686 423.745 197.328C422.606 195.922 420.648 195.025 419.537 194.718C418.898 194.533 419.719 192.928 419.07 192.81C417.804 192.634 417.573 193.09 417.954 193.049C418.289 193.013 419.136 192.588 419.797 191.962C420.495 191.287 419.52 190.445 420.175 189.952C420.743 189.513 421.271 189.068 421.474 189.101C421.565 189.149 421.577 189.248 421.298 190.104C421.156 190.582 420.921 191.163 420.617 192.73C420.521 194.245 419.31 197.205 422.298 203.423C424.408 207.435 428.115 209.783 430.249 210.568C432.534 211.437 433.731 211.454 434.651 211.494C436.373 211.487 436.785 211.207 437.058 211.033C437.147 210.965 436.815 210.589 436.56 210.193C436.442 209.993 436.434 209.788 436.588 209.613C436.726 209.442 436.974 209.285 436.894 209.285C436.236 209.302 432.348 210.257 430.565 211.543C430.186 211.805 429.884 212.08 429.737 212.311C429.593 212.533 429.593 212.743 429.941 212.626C430.295 212.455 431.209 212.653 432.374 211.476C432.92 210.784 433.797 209.89 434.073 206.484C434.164 204.805 433.935 202.137 432.452 199.335C431.002 196.508 428.404 194.359 426.459 193.527C425.827 193.244 425.252 193.064 424.762 192.958C423.609 192.754 423.461 193.762 422.739 194.142C422.058 194.535 421.382 194.644 421.477 193.141C421.469 192.959 421.542 192.305 421.64 191.63C421.732 190.967 421.737 190.252 421.307 190.363C420.497 190.759 420.474 191.141 420.923 191.717C421.131 192.001 421.792 192.595 422.366 193.075C422.645 193.33 422.893 193.551 422.945 193.919C422.968 194.115 422.944 194.333 422.825 194.753C422.714 195.204 422.474 195.698 422.221 197.269C422.093 198.229 421.825 196.72 421.445 196.561C421.348 196.503 421.242 196.501 421.123 196.612C421.006 196.726 420.87 196.945 420.738 197.501C420.636 198.068 420.4 198.84 420.703 201.107C420.903 202.273 421.229 203.996 422.663 206.377C424.048 208.818 427.381 211.697 430.569 212.671C433.111 213.504 434.797 213.501 436.189 213.446C436.541 213.481 436.477 213.521 436.329 213.6C436.169 213.678 435.899 213.784 435.584 213.914C434.954 214.174 434.159 214.526 433.377 214.936C431.799 215.756 430.21 216.833 429.088 218.037C428.516 218.678 430.462 219.163 429.678 220.018C428.54 221.29 427.809 222.385 427.551 222.689C427.816 221.977 428.188 221.025 428.448 219.138C428.632 217.303 428.992 214.057 426.75 209.425C424.544 204.682 419.2 201.329 416.044 200.653C412.773 199.814 410.848 200.078 409.427 200.274C404.301 201.386 403.626 202.726 402.136 204.142C400.711 205.797 400.567 206.467 400.309 207.125C399.818 208.978 401.564 208.125 401.636 208.335C402.557 209.534 401.972 210.116 401.923 213.085C401.584 215.869 404.652 221.903 408.203 223.508C411.352 225.222 413.946 225.386 415.489 225.398C412.453 226.225 409.01 225.581 405.704 226.959C404.726 227.375 405.904 228.607 405.746 228.799C404.216 230.712 404.793 227.618 403.423 227.788C399.579 228.257 396.117 230.516 394.904 232.133C394.484 232.686 396.263 233.37 395.97 233.763C395.717 234.138 395.637 234.366 395.622 234.449C396.052 233.491 396.987 231.649 396.803 227.931C396.748 224.223 394.032 219.327 391.505 217.464C388.989 215.431 387.312 215.079 386.357 214.838C385.384 214.639 384.975 214.681 384.779 214.703C384.45 214.809 385.631 214.779 386.695 214.545C387.807 214.324 389.032 213.95 390 213.616C390.751 213.356 391.099 214.751 391.413 214.918C392.087 215.255 392.546 215.147 392.748 214.89C393.298 214.227 392.582 212.683 392.493 212.468C392.31 211.741 392.292 211.54 392.303 211.7C392.304 211.796 392.303 211.964 392.24 212.472C392.21 212.732 392.16 213.078 392.11 213.697C392.079 214.343 391.959 215.167 392.237 217.138C392.568 218.772 392.978 222.054 396.902 225.992C400.442 229.5 405.517 230.528 407.977 230.417C410.583 230.364 411.834 229.896 412.717 229.615C414.389 228.999 414.688 228.717 414.926 228.614C415.276 228.426 414.84 228.825 414.408 229.359C413.323 230.636 411.706 232.777 410.381 234.776C409.711 235.782 409.077 236.802 408.603 237.642C408.369 238.056 408.175 238.43 408.083 238.622C408.037 238.714 408.018 238.761 408.043 238.689C408.068 238.608 408.142 238.432 408.284 237.879C408.409 237.244 408.746 236.347 408.629 233.733C408.68 231.522 406.852 224.932 401.708 221.568C396.866 218.422 394.044 218.808 392.68 218.719C391.256 218.759 390.743 218.915 390.409 218.986C389.811 219.146 390.051 219.125 390.362 219.01C390.695 218.896 391.199 218.693 391.75 218.448C396.513 216.305 402.08 212.847 405.495 210.096C405.989 209.699 406.444 209.317 406.843 208.966C407.669 208.282 408.515 207.298 408.818 206.925C408.889 206.846 408.92 206.819 408.884 206.954C408.85 207.104 408.736 207.363 408.548 208.252C408.496 209.224 407.645 210.538 409.111 215.499C409.862 217.935 412.309 221.547 415.421 223.37C418.499 225.246 421.025 225.51 422.577 225.584C419.317 225.244 415.44 225.431 412.284 226.019C410.721 226.301 409.278 226.728 408.529 227.026C408.166 227.16 407.991 227.275 408.235 227.052C408.447 226.816 409.275 226.222 410.208 224.242C410.638 223.199 411.312 221.936 411.497 218.777C411.544 217.254 411.44 214.964 410.224 212.184C409.081 209.431 406.439 206.563 403.906 205.205C398.623 202.485 395.863 203.32 394.21 203.459C392.542 203.752 391.637 204.138 390.957 204.429C388.431 205.649 388.222 206.169 387.766 206.546C387.11 207.239 387.241 207.224 387.334 207.04C387.519 206.741 387.816 206.092 387.955 205.638C388.112 205.197 388.099 204.81 388.032 205.403C388.013 205.701 387.565 205.787 387.102 205.765C386.644 205.772 386.162 205.672 386.185 206.281C386.253 207.355 386.597 209.719 388.57 212.351C390.521 215.012 393.589 216.511 395.135 216.879C397.08 217.349 397.047 217.129 396.815 217.193C396.534 217.216 395.86 217.312 395.09 217.481C393.525 217.819 391.553 218.419 389.584 219.165C385.624 220.662 381.505 222.755 378.122 225.136C376.836 226.041 375.603 227.018 374.429 228.074C373.732 228.704 375.852 229.169 374.809 230.209C372.691 232.344 370.038 235.001 367.953 236.901C366.94 237.832 366.831 235.479 365.822 236.47C364.694 237.582 363.716 238.917 363.304 239.68C363.194 239.879 363.131 240.02 363.127 240.019C363.122 240.012 363.184 239.88 363.285 239.361C363.362 238.824 363.587 237.939 363.293 235.83C363.065 233.892 361.589 229.709 357.993 226.99C355.122 224.903 354.186 224.806 354.046 224.49C353.901 224.25 354.532 224.209 355.154 224.221C355.767 224.23 356.315 224.243 355.68 223.767C355.121 223.326 352.937 222.338 350.48 222.222C349.011 222.146 348.108 222.277 347.451 222.385C346.513 222.555 346.158 222.7 345.96 222.764C345.771 222.831 345.766 222.835 345.825 222.797C345.953 222.718 346.331 222.477 346.715 222.18C347.5 221.587 348.359 220.723 348.746 220.215C349.15 219.721 349.347 219.245 349.281 219.489C349.297 219.706 348.668 220.99 349.747 224.209C350.302 225.832 351.709 227.791 353.001 228.775C354.3 229.806 355.206 230.05 355.511 230.087C356.128 230.1 354.922 229.611 353.361 229.414C351.002 229.176 348.592 228.979 346.227 228.822C345.165 228.754 343.828 225.267 341.614 226.255C341.58 227.261 341.755 228.415 341.833 229.475C337.748 230.129 333.875 231.359 332.582 232.162C326.529 235.635 320.353 238.886 315.009 241.923C312.388 243.41 309.895 244.982 308.815 245.84C308.282 246.222 308.272 246.418 308.877 245.377C309.515 244.436 310.204 241.482 309.853 239.901C309.709 239.071 309.699 239.223 309.548 238.814C309.446 238.595 309.388 238.361 308.816 237.383C308.469 236.86 308.171 236.187 306.568 234.565C305.675 233.758 304.561 232.555 301.405 231.239C298.498 229.791 291.696 229.709 287.96 232.077C291.124 230.439 292.831 230.288 293.966 230.058C295.094 229.879 295.715 229.839 296.167 229.8C297.044 229.736 297.261 229.724 297.331 229.725C297.431 229.724 296.79 229.877 296.32 230.143C303.296 227.117 306.641 226.817 310.146 225.713C311.091 225.439 308.959 224.104 310.72 223.576C312.352 223.079 313.695 222.57 314.47 222.191C315.251 221.845 315.357 221.525 314.446 222.404C317.556 219.237 320.594 218.213 321.618 217.824C322.972 217.343 324.197 217.096 324.788 216.992C325.497 216.867 326.102 216.794 326.643 216.745C327.091 216.704 327.499 216.68 327.881 216.665C329.36 216.614 330.264 216.669 331.148 216.726C332.835 216.849 334.126 217.034 335.4 217.244C337.898 217.668 340.144 218.197 342.504 218.897C344.906 219.641 347.17 220.358 350.599 222.107C351.517 222.59 352.516 223.143 353.83 224.058C355.244 225.198 356.891 225.852 359.907 230.456C361.326 232.777 363.11 237.122 362.388 242.363C361.716 247.376 359.069 250.878 357.427 252.548C353.871 255.976 352.197 256.325 350.593 257.078C348.768 257.854 347.42 258.121 346.389 258.29C345.586 258.414 344.94 258.462 344.382 258.485C343.315 258.522 342.769 258.481 342.198 258.439C341.224 258.355 340.615 258.244 340.063 258.137C339.05 257.932 338.363 257.731 337.727 257.534C336.482 257.141 335.517 256.755 334.571 256.35C332.944 255.608 334.774 252.822 330.159 251.558C329.37 251.361 323.513 249.274 320.034 247.497C319.793 247.384 319.577 247.287 319.391 247.21C318.969 247.003 319.871 249.735 316.66 247.225C313.687 244.81 309.369 239.834 308.241 233.055C307.151 226.357 308.924 221.683 310.042 218.791C313.224 211.784 315.403 204.007 324.593 194.45C327.074 192.2 325.691 195.864 327.472 194.343C328.037 193.879 328.638 193.416 329.276 192.962C331.959 191.053 333.243 190.787 334.43 190.343C335.569 189.972 336.467 189.757 337.317 189.567C338.967 189.207 340.344 188.99 341.695 188.791C344.339 188.409 346.788 188.141 349.168 187.942C353.925 187.554 358.462 187.462 362.711 188.073C368.637 188.965 366.501 191.876 369.608 194.665C370.039 195.055 373.642 195.127 373.804 196.773C374.224 200.898 372.504 205.398 373.163 209.796C373.302 210.734 377.802 209.793 375.12 212.033C374.945 212.177 371.659 212.908 370.854 213.69C370.292 214.227 371.307 215.892 370.162 216.581C369.036 217.271 367.765 215.881 365.885 216.719C364.012 217.573 364.872 219.438 361.167 219.773ZM429.395 219.276C430.312 219.347 431.327 219.2 432.16 218.877C434.006 218.101 434.512 217.261 435.009 216.692C435.469 216.099 435.775 215.602 436.061 215.113C436.628 214.152 437.003 213.247 437.497 213.105C437.958 212.937 438.678 213.674 438.722 215.324C438.729 216.137 438.562 217.114 437.94 218.22C437.254 219.28 436.377 220.781 433.121 221.845C432.4 222.052 431.612 222.173 430.826 222.181C430.027 222.193 429.261 221.408 429.04 220.66C428.804 219.91 428.939 219.236 429.395 219.276ZM346.43 211.407C341.856 210.483 341.247 215.094 344.398 215.766C347.436 216.539 347.759 211.728 346.43 211.407ZM385.008 205.341C380.911 202.549 379.388 210.724 383.76 209.752C383.995 209.701 385.235 205.509 385.008 205.341ZM355.347 195.847C355.394 195.919 357.981 195.875 358.038 195.799C359.347 193.885 354.139 193.973 355.347 195.847ZM402.104 183.222C400.261 182.806 397.147 185.907 399.379 186.307C401.165 186.599 404.276 183.756 402.104 183.222ZM437.661 193.722C437.725 193.806 439.492 193.483 439.335 193.007C438.839 191.517 436.603 192.454 437.661 193.722ZM443.276 191.939C442.732 190.086 442.296 188.537 441.664 187.178C440.428 184.396 438.133 182.398 438.035 181.125C437.983 180.502 438.508 180.006 439.874 180.077C441.19 180.163 443.557 180.887 445.739 183.416C445.803 183.491 445.866 183.567 445.928 183.644C446.571 184.484 446.061 184.275 445.226 183.89C443.603 183.067 440.797 182.562 442.269 184.043C442.714 184.545 443.13 185.006 443.536 185.45C446.413 188.748 449.964 191.597 448.968 196.365C448.762 197.297 443.477 192.277 443.262 191.925C443.267 191.929 443.272 191.934 443.276 191.939ZM429.197 213.333C429.155 213.331 428.868 214.006 429.196 214.63C429.507 215.255 430.203 215.483 430.231 215.458C430.233 215.457 430.235 215.456 430.237 215.455C430.72 215.135 430.7 214.75 430.63 214.465C430.573 214.25 430.499 214.066 430.498 213.984C430.495 213.897 430.506 213.946 430.415 213.905C430.329 213.868 430.198 213.741 430.022 213.595C429.843 213.457 429.604 213.273 429.197 213.333ZM405.337 179.566C405.233 179.383 399.678 177.775 399.556 177.85C399.446 177.915 399.354 177.982 399.275 178.051C398.741 178.411 398.678 178.829 398.9 179.243C399.775 181.114 406.733 182.518 405.337 179.566ZM347.047 239.97C348.426 239.696 349.817 239.752 351.071 240.14C351.697 240.334 352.299 240.615 352.863 240.992C353.147 241.183 353.423 241.397 353.728 241.668C353.888 241.808 354.033 241.947 354.254 242.156C354.306 242.206 354.359 242.258 354.414 242.313C354.495 242.387 354.582 242.468 354.68 242.563C354.788 242.668 354.853 242.735 355.055 242.942C355.306 243.236 355.669 243.463 356.257 244.695C356.399 245.727 356.386 246.761 355.952 248.193C355.909 247.344 355.805 246.948 355.652 246.388C355.531 245.963 355.385 245.565 355.215 245.162C354.703 244.128 354.405 243.986 354.192 243.754C354.066 243.637 353.97 243.558 353.879 243.485C353.683 243.332 353.591 243.268 353.483 243.192C353.253 243.034 353.121 242.95 352.945 242.84C352.637 242.648 352.352 242.484 352.064 242.323C351.508 242.013 350.96 241.73 350.409 241.46C349.314 240.923 348.205 240.432 347.047 239.97Z" fill="#E8E5DA" fill-opacity="0.75"/>
</svg>
